<svg xmlns="http://www.w3.org/2000/svg" viewBox="0 0 192.13 87.62"><defs><style>.cls-1{fill:none;}.cls-1,.cls-3{stroke:#fff;stroke-miterlimit:10;stroke-width:6px;}.cls-2,.cls-3{fill:#fff;}</style></defs><title>fish_1</title><g id="Слой_2" data-name="Слой 2"><g id="Слой_1-2" data-name="Слой 1"><path class="cls-1" d="M43.9,68.11c-18,.07-40.83-14-40.9-31.93S25.65,3.07,43.63,3a32.55,32.55,0,1,1,.27,65.11Z"/><path class="cls-1" d="M69.85,35.45"/><path class="cls-1" d="M43.66,9.47"/><path class="cls-2" d="M79,57c6.79,2.22,10,3.62,13,2.77.78-.22,3.46-.95,4.79-3a5.48,5.48,0,0,0,.65-3.92c-.22-1.73-.87-2.67-2.91-5.91a55.06,55.06,0,0,1-4.71-8c-1.19-2.72-.29-6.8,1.93-10.55s4.11-6.19,4.88-10.16a5.65,5.65,0,0,0-.39-4,7.21,7.21,0,0,0-3.58-3,15.41,15.41,0,0,0-8.47.27c-3.11,1.12-4.47,1.89-7.54,2.78a11,11,0,0,1-9-.89C80.45,22.66,79.05,50,66.39,59.14,68.53,57.86,73.88,55.3,79,57ZM80.14,46.4a2.74,2.74,0,0,1,1.51-2.46l-.07-16.18a2.75,2.75,0,1,1,2.45,0l.07,16.18a2.75,2.75,0,1,1-4,2.47Z"/><path class="cls-2" d="M180,41.72"/><path class="cls-1" d="M29.25,62.77"/><path class="cls-2" d="M113.25,30.51c-6.78-2.25-10-3.66-13-2.82-.78.21-3.46.94-4.8,3a5.48,5.48,0,0,0-.67,3.92c.21,1.73.86,2.68,2.88,5.92a55.06,55.06,0,0,1,4.68,8c1.18,2.73.26,6.8-2,10.54s-4.13,6.18-4.92,10.14a5.65,5.65,0,0,0,.37,4,7.21,7.21,0,0,0,3.57,3,15.41,15.41,0,0,0,8.47-.24c3.12-1.1,4.48-1.87,7.56-2.75a11,11,0,0,1,9,.93c-12.71-9.42-11.2-36.73,1.5-45.85C123.69,29.66,118.33,32.2,113.25,30.51ZM112,41.07a2.74,2.74,0,0,1-1.52,2.45V59.7a2.75,2.75,0,1,1-2.45,0V43.52a2.75,2.75,0,1,1,4-2.45Z"/><path class="cls-3" d="M148.36,19.51c18,0,40.77,14.12,40.77,32.1s-22.79,33-40.77,33a32.55,32.55,0,0,1,0-65.11Z"/></g></g></svg>