<?xml version="1.0" encoding="utf-8"?>
<!-- Generator: Adobe Illustrator 20.1.0, SVG Export Plug-In . SVG Version: 6.00 Build 0)  -->
<svg version="1.1" id="Слой_1" xmlns="http://www.w3.org/2000/svg" xmlns:xlink="http://www.w3.org/1999/xlink" x="0px" y="0px"
	 viewBox="0 0 678 504" enable-background="new 0 0 678 504" xml:space="preserve">
<g>
	<g>
		<circle fill="none" stroke="#FFFFFF" stroke-width="6" stroke-miterlimit="10" cx="306.9" cy="156.1" r="138.2"/>
		<circle fill="#FFFFFF" cx="359.7" cy="155.8" r="142.7"/>
	</g>
</g>
<g>
	<path fill="#FFFFFF" d="M40.7,424.8c-3.5,0-6.7-0.5-9.6-1.5c-2.9-1-5.5-2.6-7.6-4.6c-2.1-2-3.8-4.6-4.9-7.6s-1.7-6.6-1.7-10.5
		c0-3.7,0.6-7.1,1.7-10.1c1.1-3,2.7-5.6,4.8-7.8c2-2.1,4.6-3.7,7.6-4.8c3-1.1,6.3-1.7,9.9-1.7c2,0,3.7,0.1,5.3,0.3
		c1.6,0.2,3,0.5,4.4,0.9c1.4,0.4,2.7,0.8,3.8,1.3c1.1,0.5,2.1,0.9,3,1.4v11.4h-1.4c-0.6-0.5-1.3-1.1-2.2-1.8c-0.9-0.7-1.9-1.4-3-2
		c-1.2-0.7-2.4-1.2-3.7-1.7c-1.3-0.5-2.8-0.7-4.3-0.7c-1.7,0-3.3,0.3-4.8,0.8c-1.5,0.5-2.9,1.4-4.2,2.7c-1.2,1.2-2.2,2.8-3,4.7
		c-0.8,2-1.1,4.4-1.1,7.2c0,2.9,0.4,5.4,1.2,7.3c0.8,2,1.9,3.5,3.1,4.6c1.3,1.2,2.7,2,4.3,2.5c1.6,0.5,3.1,0.7,4.7,0.7
		c1.5,0,2.9-0.2,4.4-0.7c1.4-0.4,2.8-1,4-1.8c1-0.6,2-1.3,2.9-1.9c0.9-0.7,1.6-1.3,2.2-1.8h1.3v11.2c-1.2,0.5-2.3,1-3.4,1.5
		c-1.1,0.5-2.2,0.9-3.4,1.2c-1.5,0.4-3,0.8-4.3,1C44.9,424.6,43.1,424.8,40.7,424.8z"/>
	<path fill="#FFFFFF" d="M122.3,423.8h-12.5l-3.3-9.5H89.2l-3.3,9.5H73.8L91.1,377H105L122.3,423.8z M103.7,405.8L97.9,389
		l-5.8,16.8H103.7z"/>
	<path fill="#FFFFFF" d="M179.4,409.1c0,4.6-2,8.4-5.9,11.2c-3.9,2.9-9.2,4.3-15.9,4.3c-3.9,0-7.3-0.3-10.1-1
		c-2.9-0.7-5.6-1.5-8.1-2.6v-11.2h1.3c2.5,2,5.3,3.5,8.4,4.6c3.1,1.1,6.1,1.6,8.9,1.6c0.7,0,1.7-0.1,2.9-0.2
		c1.2-0.1,2.2-0.3,2.9-0.6c0.9-0.4,1.7-0.8,2.3-1.4c0.6-0.6,0.9-1.4,0.9-2.5c0-1-0.4-1.9-1.3-2.7c-0.9-0.7-2.1-1.3-3.8-1.7
		c-1.8-0.4-3.6-0.8-5.6-1.2c-2-0.4-3.8-0.8-5.5-1.4c-3.9-1.3-6.8-3-8.5-5.2c-1.7-2.2-2.6-4.9-2.6-8.2c0-4.4,2-7.9,5.9-10.7
		c3.9-2.8,8.9-4.1,15.1-4.1c3.1,0,6.1,0.3,9.1,0.9c3,0.6,5.6,1.3,7.8,2.2v10.8h-1.3c-1.9-1.5-4.2-2.8-6.9-3.8s-5.5-1.5-8.4-1.5
		c-1,0-2,0.1-3,0.2c-1,0.1-2,0.4-2.9,0.8c-0.8,0.3-1.5,0.8-2.1,1.4c-0.6,0.6-0.9,1.4-0.9,2.2c0,1.2,0.5,2.2,1.4,2.8s2.7,1.3,5.3,1.8
		c1.7,0.4,3.4,0.7,5,1c1.6,0.3,3.3,0.8,5.1,1.4c3.6,1.2,6.2,2.8,7.9,4.8C178.5,403.3,179.4,405.9,179.4,409.1z"/>
	<path fill="#FFFFFF" d="M237.2,386.1h-14.6v37.8h-12.1v-37.8h-14.6V377h41.3V386.1z"/>
	<path fill="#FFFFFF" d="M300.6,423.8h-12.5l-3.3-9.5h-17.3l-3.3,9.5h-12.2l17.3-46.8h13.9L300.6,423.8z M281.9,405.8l-5.8-16.8
		l-5.8,16.8H281.9z"/>
	<path fill="#FFFFFF" d="M361.6,421.2c-2.1,0.8-4.9,1.6-8.3,2.4s-6.9,1.2-10.3,1.2c-8,0-14.2-2.2-18.7-6.5s-6.8-10.3-6.8-17.9
		c0-7.3,2.3-13.1,6.8-17.6c4.5-4.5,10.9-6.7,19-6.7c3.1,0,6,0.3,8.8,0.8c2.8,0.6,5.9,1.7,9.3,3.3v11H360c-0.6-0.4-1.4-1.1-2.6-1.9
		c-1.1-0.8-2.2-1.5-3.3-2.1c-1.2-0.7-2.6-1.2-4.3-1.7c-1.6-0.5-3.3-0.7-5.2-0.7c-2.1,0-4.1,0.3-5.8,0.9c-1.7,0.6-3.3,1.6-4.7,2.9
		c-1.3,1.3-2.4,2.9-3.1,4.8c-0.8,1.9-1.1,4.2-1.1,6.7c0,5.2,1.4,9.1,4.1,11.9c2.7,2.7,6.8,4.1,12.2,4.1c0.5,0,1,0,1.5,0
		c0.6,0,1.1-0.1,1.5-0.1v-9.2H340v-8.8h21.6V421.2z"/>
	<path fill="#FFFFFF" d="M427.9,423.8h-11.6l-19.9-32.1v32.1h-11.1V377h14.4l17.1,26.8V377h11.1V423.8z"/>
	<path fill="#FFFFFF" d="M486.5,423.8h-33.9V377h33.9v9.1h-21.9v8.1H485v9.1h-20.3v11.6h21.9V423.8z"/>
	<path fill="#FFFFFF" d="M546.2,386.1h-14.6v37.8h-12.1v-37.8h-14.6V377h41.3V386.1z"/>
	<path fill="#FFFFFF" d="M603,386.1h-14.6v37.8h-12.1v-37.8h-14.6V377H603V386.1z"/>
	<path fill="#FFFFFF" d="M657,423.8h-33.9V377H657v9.1h-21.9v8.1h20.3v9.1h-20.3v11.6H657V423.8z"/>
</g>
<g>
	<g>
		<path fill="#FFFFFF" d="M32.7,479.3c-1.7,0-3.3-0.4-4.7-1.3s-2.5-2-3.3-3.6s-1.2-3.2-1.2-5.1v-0.8c0-2,0.4-3.7,1.1-5.3
			c0.8-1.6,1.8-2.8,3.2-3.7c1.4-0.9,2.8-1.3,4.4-1.3c2.5,0,4.4,0.8,5.9,2.5c1.4,1.7,2.2,4,2.2,6.9v1.3H25.8v0.4c0,2.3,0.7,4.2,2,5.7
			c1.3,1.5,3,2.3,5,2.3c1.2,0,2.3-0.2,3.2-0.7s1.8-1.1,2.5-2.1l1.4,1.1C38.2,478.1,35.8,479.3,32.7,479.3z M32.2,460.2
			c-1.7,0-3.1,0.6-4.3,1.9c-1.2,1.2-1.9,2.9-2.1,5H38v-0.2c-0.1-2-0.6-3.5-1.7-4.8C35.3,460.8,33.9,460.2,32.2,460.2z"/>
		<path fill="#FFFFFF" d="M62.9,468.6c0-3.2,0.7-5.7,2.1-7.5c1.4-1.9,3.3-2.8,5.7-2.8c2.7,0,4.8,1.1,6.3,3.2v-11.4h2.2v28.8h-2.1
			l-0.1-2.7c-1.4,2.1-3.6,3.1-6.3,3.1c-2.3,0-4.2-0.9-5.7-2.8c-1.4-1.9-2.1-4.4-2.1-7.6V468.6z M65.2,469c0,2.6,0.5,4.6,1.6,6.1
			c1,1.5,2.5,2.2,4.4,2.2c2.8,0,4.7-1.2,5.9-3.7v-9.5c-1.2-2.6-3.1-4-5.9-4c-1.9,0-3.4,0.7-4.4,2.2C65.7,463.9,65.2,466.1,65.2,469z
			"/>
		<path fill="#FFFFFF" d="M117.5,476.4c-1.4,2-3.5,2.9-6.5,2.9c-2.2,0-3.8-0.6-4.9-1.9c-1.1-1.3-1.7-3.1-1.7-5.6v-13.2h2.2v12.9
			c0,3.9,1.6,5.8,4.7,5.8c3.3,0,5.3-1.3,6.2-4v-14.7h2.3v20.3h-2.2L117.5,476.4z"/>
		<path fill="#FFFFFF" d="M152.2,477.4c1.6,0,2.9-0.4,3.9-1.3s1.6-2,1.7-3.4h2.2c-0.1,1.2-0.5,2.4-1.2,3.4c-0.7,1-1.7,1.8-2.8,2.4
			c-1.2,0.6-2.4,0.9-3.8,0.9c-2.7,0-4.8-0.9-6.3-2.8c-1.6-1.9-2.3-4.3-2.3-7.5v-0.7c0-2,0.4-3.8,1.1-5.3s1.7-2.7,3-3.6
			s2.8-1.3,4.6-1.3c2.2,0,4.1,0.7,5.5,2s2.2,3.1,2.3,5.2h-2.2c-0.1-1.6-0.7-2.9-1.7-3.8c-1-1-2.4-1.5-3.9-1.5c-2,0-3.6,0.7-4.7,2.2
			c-1.1,1.5-1.7,3.5-1.7,6.2v0.7c0,2.6,0.6,4.6,1.7,6.1C148.6,476.7,150.2,477.4,152.2,477.4z"/>
		<path fill="#FFFFFF" d="M196.5,478.9c-0.2-0.6-0.4-1.6-0.4-2.8c-0.8,1-1.8,1.8-3,2.4c-1.2,0.6-2.5,0.8-3.9,0.8
			c-2,0-3.5-0.5-4.7-1.6s-1.8-2.5-1.8-4.1c0-2,0.8-3.5,2.5-4.7c1.6-1.2,3.9-1.7,6.9-1.7h4.1v-2.3c0-1.5-0.4-2.6-1.3-3.4
			c-0.9-0.8-2.2-1.2-3.9-1.2c-1.6,0-2.9,0.4-3.9,1.2c-1,0.8-1.5,1.8-1.5,2.9l-2.3,0c0-1.6,0.8-3,2.3-4.2c1.5-1.2,3.3-1.8,5.5-1.8
			c2.3,0,4,0.6,5.4,1.7s2,2.7,2,4.7v9.6c0,2,0.2,3.4,0.6,4.4v0.2H196.5z M189.5,477.3c1.5,0,2.8-0.4,4-1.1c1.2-0.7,2-1.7,2.6-2.9
			v-4.5h-4c-2.2,0-4,0.4-5.3,1.2c-1.3,0.8-1.9,1.9-1.9,3.3c0,1.1,0.4,2.1,1.3,2.8C187,476.9,188.1,477.3,189.5,477.3z"/>
		<path fill="#FFFFFF" d="M227,453.4v5.2h4.2v1.8H227V474c0,1.1,0.2,2,0.6,2.5c0.4,0.6,1.1,0.8,2,0.8c0.4,0,1-0.1,1.8-0.2l0.1,1.8
			c-0.6,0.2-1.4,0.3-2.4,0.3c-1.5,0-2.7-0.4-3.4-1.3c-0.7-0.9-1.1-2.2-1.1-3.9v-13.5H221v-1.8h3.7v-5.2H227z"/>
		<path fill="#FFFFFF" d="M254.9,452.8c0-0.4,0.1-0.8,0.4-1.1c0.3-0.3,0.6-0.4,1.1-0.4s0.9,0.1,1.1,0.4s0.4,0.6,0.4,1.1
			s-0.1,0.8-0.4,1.1s-0.7,0.4-1.1,0.4s-0.9-0.1-1.1-0.4C255.1,453.6,254.9,453.2,254.9,452.8z M257.6,478.9h-2.3v-20.3h2.3V478.9z"
			/>
		<path fill="#FFFFFF" d="M281.6,468.5c0-2,0.4-3.7,1.1-5.3c0.8-1.6,1.8-2.8,3.2-3.6s2.9-1.3,4.7-1.3c2.7,0,4.9,0.9,6.6,2.8
			c1.7,1.9,2.5,4.4,2.5,7.5v0.5c0,2-0.4,3.7-1.1,5.3c-0.8,1.6-1.8,2.8-3.2,3.6c-1.4,0.9-2.9,1.3-4.7,1.3c-2.7,0-4.9-0.9-6.6-2.8
			s-2.5-4.4-2.5-7.5V468.5z M283.9,469.1c0,2.4,0.6,4.4,1.9,6s2.9,2.3,4.9,2.3c2,0,3.7-0.8,4.9-2.3s1.9-3.6,1.9-6.2v-0.4
			c0-1.5-0.3-3-0.9-4.3s-1.4-2.3-2.4-3c-1-0.7-2.2-1.1-3.6-1.1c-2,0-3.6,0.8-4.9,2.4c-1.3,1.6-1.9,3.6-1.9,6.2V469.1z"/>
		<path fill="#FFFFFF" d="M325.7,458.6l0.1,3.5c0.8-1.3,1.7-2.2,2.9-2.9c1.1-0.7,2.4-1,3.8-1c2.2,0,3.8,0.6,4.9,1.8s1.6,3.1,1.6,5.5
			v13.3h-2.2v-13.3c0-1.8-0.4-3.2-1.2-4.1c-0.8-0.9-2-1.3-3.6-1.3c-1.4,0-2.6,0.4-3.7,1.3s-1.9,2-2.4,3.5v13.9h-2.2v-20.3H325.7z"/>
		<path fill="#FFFFFF" d="M397.1,464c-1.1-1.3-1.9-2.5-2.4-3.5c-0.5-1-0.7-2.1-0.7-3.1c0-1.9,0.6-3.4,1.7-4.5s2.7-1.7,4.6-1.7
			c1.7,0,3.1,0.5,4.2,1.5c1.1,1,1.6,2.3,1.6,3.8c0,1.8-1,3.6-3.1,5.3l-3,2.3l7.5,8.7c1.1-1.8,1.7-3.9,1.7-6.2h2.1
			c0,3.1-0.8,5.7-2.4,7.9l3.7,4.4h-2.7l-2.4-2.7c-1,1-2.1,1.7-3.4,2.3c-1.3,0.5-2.7,0.8-4.1,0.8c-2.6,0-4.7-0.7-6.2-2
			c-1.5-1.3-2.3-3.1-2.3-5.3c0-1.3,0.4-2.6,1.2-3.8s2.2-2.5,4.1-4L397.1,464z M400,477.4c1.1,0,2.2-0.2,3.3-0.7
			c1.1-0.5,2-1.2,2.9-2.1l-7.6-8.9l-0.3-0.3l-0.9,0.7c-2.5,2-3.7,3.9-3.7,5.8c0,1.6,0.6,3,1.7,3.9
			C396.6,476.9,398.1,477.4,400,477.4z M396.2,457.4c0,1.5,0.8,3.3,2.5,5.4l2.5-1.9c0.8-0.6,1.5-1.2,2-1.9c0.5-0.7,0.8-1.5,0.8-2.4
			c0-1-0.3-1.8-1-2.4c-0.7-0.7-1.6-1-2.7-1c-1.2,0-2.2,0.4-2.9,1.2C396.6,455.1,396.2,456.1,396.2,457.4z"/>
		<path fill="#FFFFFF" d="M471.7,479.3c-1.7,0-3.3-0.4-4.7-1.3s-2.5-2-3.3-3.6c-0.8-1.5-1.2-3.2-1.2-5.1v-0.8c0-2,0.4-3.7,1.1-5.3
			c0.8-1.6,1.8-2.8,3.2-3.7c1.4-0.9,2.8-1.3,4.4-1.3c2.5,0,4.4,0.8,5.9,2.5c1.4,1.7,2.2,4,2.2,6.9v1.3h-14.5v0.4
			c0,2.3,0.7,4.2,2,5.7c1.3,1.5,3,2.3,5,2.3c1.2,0,2.3-0.2,3.2-0.7s1.8-1.1,2.5-2.1l1.4,1.1C477.2,478.1,474.8,479.3,471.7,479.3z
			 M471.3,460.2c-1.7,0-3.1,0.6-4.3,1.9c-1.2,1.2-1.9,2.9-2.1,5h12.2v-0.2c-0.1-2-0.6-3.5-1.7-4.8
			C474.4,460.8,473,460.2,471.3,460.2z"/>
		<path fill="#FFFFFF" d="M509,475.8l6.2-17.2h2.3l-7.6,20.3H508l-7.6-20.3h2.3L509,475.8z"/>
		<path fill="#FFFFFF" d="M547.9,479.3c-1.7,0-3.3-0.4-4.7-1.3s-2.5-2-3.3-3.6c-0.8-1.5-1.2-3.2-1.2-5.1v-0.8c0-2,0.4-3.7,1.1-5.3
			c0.8-1.6,1.8-2.8,3.2-3.7c1.4-0.9,2.8-1.3,4.4-1.3c2.5,0,4.4,0.8,5.9,2.5c1.4,1.7,2.2,4,2.2,6.9v1.3h-14.5v0.4
			c0,2.3,0.7,4.2,2,5.7c1.3,1.5,3,2.3,5,2.3c1.2,0,2.3-0.2,3.2-0.7s1.8-1.1,2.5-2.1l1.4,1.1C553.5,478.1,551.1,479.3,547.9,479.3z
			 M547.5,460.2c-1.7,0-3.1,0.6-4.3,1.9c-1.2,1.2-1.9,2.9-2.1,5h12.2v-0.2c-0.1-2-0.6-3.5-1.7-4.8
			C550.6,460.8,549.2,460.2,547.5,460.2z"/>
		<path fill="#FFFFFF" d="M581.3,458.6l0.1,3.5c0.8-1.3,1.7-2.2,2.9-2.9c1.1-0.7,2.4-1,3.8-1c2.2,0,3.8,0.6,4.9,1.8s1.6,3.1,1.6,5.5
			v13.3h-2.2v-13.3c0-1.8-0.4-3.2-1.2-4.1c-0.8-0.9-2-1.3-3.6-1.3c-1.4,0-2.6,0.4-3.7,1.3s-1.9,2-2.4,3.5v13.9h-2.2v-20.3H581.3z"/>
		<path fill="#FFFFFF" d="M622.9,453.4v5.2h4.2v1.8h-4.2V474c0,1.1,0.2,2,0.6,2.5c0.4,0.6,1.1,0.8,2,0.8c0.4,0,1-0.1,1.8-0.2
			l0.1,1.8c-0.6,0.2-1.4,0.3-2.4,0.3c-1.5,0-2.7-0.4-3.4-1.3c-0.7-0.9-1.1-2.2-1.1-3.9v-13.5H617v-1.8h3.7v-5.2H622.9z"/>
		<path fill="#FFFFFF" d="M663.2,473.8c0-1.1-0.4-2-1.3-2.7c-0.9-0.7-2.2-1.2-4-1.6c-1.8-0.4-3.2-0.8-4.2-1.3
			c-1-0.5-1.7-1.1-2.2-1.8s-0.7-1.6-0.7-2.6c0-1.6,0.7-2.9,2-4c1.3-1,3.1-1.6,5.1-1.6c2.3,0,4.1,0.6,5.4,1.7
			c1.4,1.1,2.1,2.6,2.1,4.4H663c0-1.2-0.5-2.2-1.5-3c-1-0.8-2.2-1.2-3.8-1.2c-1.5,0-2.7,0.3-3.6,1c-0.9,0.7-1.3,1.5-1.3,2.6
			c0,1,0.4,1.8,1.1,2.4s2.1,1.1,4.1,1.5c2,0.5,3.4,1,4.4,1.5c1,0.5,1.7,1.2,2.2,1.9s0.7,1.6,0.7,2.7c0,1.7-0.7,3.1-2.1,4.1
			c-1.4,1-3.2,1.5-5.4,1.5c-2.4,0-4.3-0.6-5.7-1.7c-1.5-1.1-2.2-2.6-2.2-4.3h2.3c0.1,1.3,0.6,2.3,1.7,3.1c1,0.7,2.4,1.1,4,1.1
			c1.6,0,2.8-0.3,3.8-1S663.2,474.8,663.2,473.8z"/>
	</g>
</g>
</svg>
