<?xml version="1.0" encoding="utf-8"?>
<!-- Generator: Adobe Illustrator 21.1.0, SVG Export Plug-In . SVG Version: 6.00 Build 0)  -->
<svg version="1.1" id="Слой_1" xmlns="http://www.w3.org/2000/svg" xmlns:xlink="http://www.w3.org/1999/xlink" x="0px" y="0px"
	 viewBox="0 0 707 424" enable-background="new 0 0 707 424" xml:space="preserve">
<g>
	<path fill="#FFFFFF" d="M370.7-0.1c-6.5,0-12.9,0.7-19.1,1.9c-5.4-0.9-10.9-1.4-16.6-1.4c-52.9,0-95.9,43-95.9,95.9
		s43,95.9,95.9,95.9c5.7,0,11.3-0.5,16.7-1.5c6.2,1.2,12.5,1.9,19,1.9c53.1,0,96.3-43.2,96.3-96.3S423.8-0.1,370.7-0.1z M335,186.1
		c-49.5,0-89.9-40.3-89.9-89.9S285.5,6.4,335,6.4c0.3,0,0.7,0,1,0c-36,14-61.6,49-61.6,89.8c0,40.9,25.6,75.9,61.7,89.9
		C335.7,186.1,335.4,186.1,335,186.1z"/>
	<g>
		<path fill="#FFFFFF" d="M25.9,355.2c-3.8,0-7.3-0.6-10.5-1.7c-3.2-1.1-6-2.8-8.3-5c-2.3-2.2-4.1-5-5.4-8.3s-1.9-7.2-1.9-11.5
			c0-4.1,0.6-7.7,1.8-11c1.2-3.3,3-6.1,5.3-8.5c2.2-2.3,5-4,8.3-5.3c3.3-1.2,6.9-1.9,10.8-1.9c2.2,0,4.1,0.1,5.8,0.4
			c1.7,0.2,3.3,0.6,4.8,0.9c1.5,0.4,2.9,0.9,4.2,1.5c1.2,0.5,2.3,1,3.3,1.5v12.4h-1.5c-0.6-0.5-1.4-1.2-2.4-1.9
			c-1-0.8-2.1-1.5-3.3-2.2c-1.3-0.7-2.6-1.3-4.1-1.8c-1.5-0.5-3-0.8-4.7-0.8c-1.9,0-3.6,0.3-5.3,0.9c-1.7,0.6-3.2,1.5-4.6,2.9
			c-1.4,1.3-2.4,3-3.3,5.2c-0.8,2.2-1.3,4.8-1.3,7.8c0,3.2,0.5,5.9,1.4,8c0.9,2.2,2,3.8,3.4,5.1c1.4,1.3,3,2.2,4.7,2.7
			c1.7,0.5,3.4,0.8,5.1,0.8c1.6,0,3.2-0.2,4.8-0.7c1.6-0.5,3-1.1,4.3-2c1.1-0.7,2.2-1.4,3.1-2.1c1-0.8,1.8-1.4,2.4-2h1.4v12.2
			c-1.3,0.6-2.5,1.1-3.7,1.6s-2.4,0.9-3.7,1.3c-1.7,0.5-3.2,0.8-4.7,1.1C30.5,355.1,28.5,355.2,25.9,355.2z"/>
		<path fill="#FFFFFF" d="M115.1,354.2h-13.6l-3.6-10.3H79l-3.6,10.3H62.1L81,303h15.2L115.1,354.2z M94.8,334.5l-6.3-18.3
			l-6.3,18.3H94.8z"/>
		<path fill="#FFFFFF" d="M177.6,338.1c0,5-2.1,9.1-6.4,12.3c-4.3,3.2-10.1,4.7-17.4,4.7c-4.2,0-7.9-0.4-11.1-1.1
			c-3.2-0.7-6.1-1.7-8.9-2.8v-12.3h1.4c2.7,2.2,5.8,3.9,9.2,5c3.4,1.2,6.6,1.8,9.7,1.8c0.8,0,1.9-0.1,3.2-0.2
			c1.3-0.1,2.4-0.4,3.2-0.7c1-0.4,1.8-0.9,2.5-1.5s1-1.5,1-2.8c0-1.1-0.5-2.1-1.4-2.9c-1-0.8-2.3-1.4-4.2-1.9
			c-1.9-0.5-4-0.9-6.1-1.3c-2.1-0.4-4.2-0.9-6-1.5c-4.3-1.4-7.4-3.3-9.3-5.7c-1.9-2.4-2.8-5.4-2.8-8.9c0-4.8,2.1-8.7,6.4-11.7
			c4.3-3,9.8-4.5,16.5-4.5c3.4,0,6.7,0.3,10,1c3.3,0.7,6.1,1.5,8.5,2.5v11.8h-1.4c-2.1-1.7-4.6-3-7.6-4.1c-3-1.1-6-1.7-9.2-1.7
			c-1.1,0-2.2,0.1-3.3,0.2c-1.1,0.1-2.1,0.4-3.1,0.8c-0.9,0.3-1.7,0.9-2.3,1.6c-0.6,0.7-1,1.5-1,2.4c0,1.4,0.5,2.4,1.5,3.1
			c1,0.7,3,1.4,5.8,2c1.9,0.4,3.7,0.8,5.4,1.1c1.7,0.4,3.6,0.9,5.6,1.5c3.9,1.3,6.8,3,8.7,5.2C176.6,331.7,177.6,334.6,177.6,338.1z
			"/>
		<path fill="#FFFFFF" d="M240.7,312.9h-16v41.3h-13.2v-41.3h-16V303h45.2V312.9z"/>
		<path fill="#FFFFFF" d="M310.1,354.2h-13.6l-3.6-10.3h-18.9l-3.6,10.3h-13.3L276,303h15.2L310.1,354.2z M289.7,334.5l-6.3-18.3
			l-6.3,18.3H289.7z"/>
		<path fill="#FFFFFF" d="M376.8,351.3c-2.3,0.9-5.3,1.8-9.1,2.7c-3.8,0.9-7.6,1.3-11.3,1.3c-8.7,0-15.5-2.4-20.5-7.1
			c-4.9-4.7-7.4-11.3-7.4-19.6c0-8,2.5-14.4,7.5-19.2s11.9-7.3,20.8-7.3c3.4,0,6.6,0.3,9.6,0.9s6.4,1.8,10.2,3.6v12h-1.5
			c-0.6-0.5-1.6-1.2-2.8-2c-1.2-0.9-2.4-1.6-3.6-2.3c-1.3-0.7-2.9-1.4-4.7-1.9c-1.8-0.5-3.7-0.8-5.7-0.8c-2.3,0-4.5,0.3-6.4,1
			c-1.9,0.7-3.6,1.7-5.1,3.2c-1.4,1.4-2.6,3.1-3.4,5.2c-0.8,2.1-1.3,4.6-1.3,7.3c0,5.7,1.5,10,4.5,13s7.4,4.5,13.3,4.5
			c0.5,0,1.1,0,1.7,0c0.6,0,1.2-0.1,1.7-0.1v-10h-10.2V326h23.6V351.3z"/>
		<path fill="#FFFFFF" d="M449.2,354.2h-12.7l-21.7-35.1v35.1h-12.1V303h15.8l18.7,29.3V303h12.1V354.2z"/>
		<path fill="#FFFFFF" d="M513.4,354.2h-37V303h37v9.9h-23.9v8.8h22.2v9.9h-22.2v12.7h23.9V354.2z"/>
		<path fill="#FFFFFF" d="M578.6,312.9h-16v41.3h-13.2v-41.3h-16V303h45.2V312.9z"/>
		<path fill="#FFFFFF" d="M640.7,312.9h-16v41.3h-13.2v-41.3h-16V303h45.2V312.9z"/>
		<path fill="#FFFFFF" d="M699.7,354.2h-37V303h37v9.9h-23.9v8.8H698v9.9h-22.2v12.7h23.9V354.2z"/>
	</g>
	<g>
		<path fill="#FFFFFF" d="M12.5,414.9c-2.8,0-5.1-1-6.9-3.1c-1.8-2.1-2.8-4.6-2.8-7.8v-1.1c0-3.2,0.9-5.8,2.7-7.9
			c1.8-2.1,4-3.1,6.6-3.1c2.7,0,4.9,0.9,6.4,2.6c1.6,1.7,2.3,4,2.3,6.9v2.1H5.3v0.6c0,2.5,0.7,4.6,2,6.3c1.3,1.7,3.1,2.5,5.2,2.5
			c1.5,0,2.8-0.2,3.9-0.6s2-1,2.8-1.8l1,1.7c-0.8,0.9-1.9,1.6-3.2,2.1S14.3,414.9,12.5,414.9z M12.2,393.9c-1.8,0-3.3,0.7-4.6,2.1
			c-1.2,1.4-1.9,3.1-2.2,5.2l0,0.1h13v-0.6c0-1.9-0.6-3.5-1.7-4.8C15.7,394.6,14.2,393.9,12.2,393.9z"/>
		<path fill="#FFFFFF" d="M45.9,403.5c0-3.5,0.7-6.4,2.2-8.5c1.5-2.1,3.6-3.2,6.3-3.2c1.5,0,2.9,0.3,4,1s2.1,1.6,2.8,2.8v-13.2h2.4
			v32h-2.2l-0.2-3.2c-0.7,1.2-1.7,2.1-2.9,2.7s-2.5,0.9-4.1,0.9c-2.7,0-4.7-1-6.2-3c-1.5-2-2.2-4.6-2.2-7.9V403.5z M48.3,404
			c0,2.7,0.5,4.8,1.6,6.4c1.1,1.6,2.7,2.4,4.9,2.4c1.6,0,2.9-0.4,4-1.1c1.1-0.7,1.9-1.7,2.5-3v-10.5c-0.6-1.3-1.4-2.3-2.4-3.1
			s-2.4-1.2-4-1.2c-2.2,0-3.8,0.9-4.9,2.7s-1.6,4.1-1.6,6.9V404z"/>
		<path fill="#FFFFFF" d="M105.8,410.8c-0.7,1.3-1.7,2.3-2.9,3s-2.6,1.1-4.3,1.1c-2.3,0-4.2-0.8-5.5-2.4c-1.3-1.6-2-4-2-7.4v-12.9
			h2.5v12.9c0,2.7,0.5,4.7,1.4,5.8c0.9,1.2,2.2,1.8,3.9,1.8c1.9,0,3.3-0.4,4.5-1.3c1.1-0.8,1.9-2,2.3-3.5v-15.8h2.5v22.2H106
			L105.8,410.8z"/>
		<path fill="#FFFFFF" d="M143.8,412.8c1.6,0,3.1-0.5,4.3-1.4c1.2-0.9,1.9-2.2,1.9-3.9h2.2l0,0.1c0.1,2.1-0.8,3.8-2.5,5.1
			c-1.7,1.4-3.7,2.1-5.9,2.1c-3,0-5.4-1-7-3.1c-1.6-2.1-2.5-4.7-2.5-8v-0.9c0-3.2,0.8-5.9,2.5-8c1.7-2.1,4-3.1,7-3.1
			c2.4,0,4.5,0.7,6.1,2.2c1.6,1.4,2.4,3.3,2.3,5.7l0,0.1H150c0-1.8-0.6-3.2-1.8-4.3c-1.2-1.1-2.7-1.6-4.4-1.6
			c-2.4,0-4.1,0.9-5.3,2.6s-1.7,3.8-1.7,6.4v0.9c0,2.6,0.6,4.8,1.7,6.5C139.7,411.9,141.4,412.8,143.8,412.8z"/>
		<path fill="#FFFFFF" d="M192.4,414.4c-0.2-0.8-0.3-1.4-0.3-1.9c-0.1-0.5-0.1-1.1-0.1-1.7c-0.8,1.2-1.9,2.1-3.3,2.9
			s-2.9,1.1-4.6,1.1c-2.2,0-3.8-0.6-5-1.7c-1.2-1.1-1.8-2.7-1.8-4.6c0-2.1,0.9-3.7,2.7-4.9c1.8-1.2,4.2-1.8,7.2-1.8h4.9V399
			c0-1.6-0.5-2.8-1.5-3.7s-2.4-1.4-4.3-1.4c-1.7,0-3.1,0.4-4.3,1.3s-1.7,1.9-1.7,3.2l-2.3,0l0-0.1c-0.1-1.7,0.7-3.1,2.3-4.4
			c1.6-1.3,3.6-2,6.1-2c2.4,0,4.4,0.6,5.9,1.9c1.5,1.2,2.2,3,2.2,5.4V410c0,0.8,0,1.5,0.1,2.3c0.1,0.7,0.2,1.5,0.4,2.2H192.4z
			 M184.4,412.7c1.8,0,3.3-0.4,4.7-1.2s2.3-1.9,2.9-3.2v-4.6H187c-2.2,0-4,0.5-5.3,1.4s-2,2.1-2,3.5c0,1.2,0.4,2.2,1.2,2.9
			C181.8,412.3,182.9,412.7,184.4,412.7z"/>
		<path fill="#FFFFFF" d="M225.8,386.6v5.7h4.9v2h-4.9v14.5c0,1.4,0.3,2.5,0.8,3.1s1.2,0.9,2.1,0.9c0.4,0,0.8,0,1.2-0.1
			s0.8-0.1,1.3-0.2l0.4,1.8c-0.4,0.2-0.9,0.3-1.5,0.4c-0.6,0.1-1.2,0.1-1.8,0.1c-1.6,0-2.8-0.5-3.6-1.5c-0.9-1-1.3-2.5-1.3-4.7
			v-14.5h-3.8v-2h3.8v-5.7H225.8z"/>
		<path fill="#FFFFFF" d="M259.7,385.9h-2.4v-3.4h2.4V385.9z M259.7,414.4h-2.4v-22.2h2.4V414.4z"/>
		<path fill="#FFFFFF" d="M286.1,403c0-3.3,0.9-5.9,2.7-8s4.2-3.1,7.1-3.1c3,0,5.3,1,7.1,3.1s2.7,4.8,2.7,8v0.7c0,3.3-0.9,6-2.7,8.1
			s-4.2,3.1-7.1,3.1c-3,0-5.4-1-7.2-3.1s-2.7-4.8-2.7-8.1V403z M288.5,403.7c0,2.6,0.6,4.7,1.9,6.5s3.1,2.6,5.4,2.6
			c2.3,0,4.1-0.9,5.4-2.6c1.3-1.7,2-3.9,2-6.5V403c0-2.5-0.7-4.7-2-6.4s-3.1-2.6-5.4-2.6c-2.3,0-4.1,0.9-5.4,2.6s-1.9,3.9-1.9,6.4
			V403.7z"/>
		<path fill="#FFFFFF" d="M334,392.3l0.2,3.9c0.7-1.4,1.7-2.4,2.9-3.2s2.6-1.1,4.3-1.1c2.4,0,4.2,0.7,5.5,2.2
			c1.3,1.5,1.9,3.8,1.9,6.9v13.5h-2.5v-13.5c0-2.5-0.5-4.4-1.4-5.4s-2.3-1.6-4.1-1.6c-1.7,0-3.1,0.5-4.2,1.4s-1.9,2.1-2.3,3.6v15.5
			h-2.5v-22.2H334z"/>
		<path fill="#FFFFFF" d="M412.1,398.1c-1.1-1.4-1.9-2.6-2.5-3.7s-0.8-2.3-0.8-3.5c0-2.2,0.6-3.8,1.8-5s2.9-1.8,5-1.8
			c2,0,3.5,0.6,4.7,1.7s1.7,2.5,1.7,4.2c0,1.2-0.3,2.3-0.9,3.2s-1.5,1.8-2.7,2.7l-3.3,2.5l8.4,9.9c0.7-1,1.2-2.1,1.6-3.3
			s0.6-2.5,0.6-3.9h2.3c0,1.8-0.2,3.4-0.7,4.8s-1.2,2.8-2.2,4l3.8,4.4l0,0.1h-2.8l-2.5-2.9c-1.2,1.1-2.4,1.9-3.8,2.5
			s-2.9,0.9-4.5,0.9c-2.9,0-5.1-0.7-6.8-2.2s-2.5-3.4-2.5-5.8c0-1.6,0.5-3.1,1.5-4.4c1-1.3,2.4-2.7,4.3-4L412.1,398.1z M415.3,412.8
			c1.3,0,2.5-0.2,3.7-0.7c1.2-0.5,2.3-1.2,3.2-2.1l-8.5-9.9c-0.1-0.1-0.1-0.1-0.2-0.2s-0.1-0.1-0.1-0.2l-1,0.7
			c-1.6,1.3-2.6,2.4-3.2,3.5c-0.5,1-0.8,2-0.8,2.9c0,1.7,0.6,3.1,1.8,4.2C411.4,412.2,413.1,412.8,415.3,412.8z M411.3,390.9
			c0,0.9,0.2,1.8,0.6,2.8s1.1,2,2,3.1l3.6-2.7c0.8-0.6,1.4-1.3,1.7-1.9s0.5-1.4,0.5-2.2c0-1.1-0.4-2-1.1-2.7s-1.7-1.1-3-1.1
			c-1.4,0-2.5,0.4-3.2,1.3C411.7,388.5,411.3,389.6,411.3,390.9z"/>
		<path fill="#FFFFFF" d="M493.8,414.9c-2.8,0-5.1-1-6.9-3.1c-1.8-2.1-2.8-4.6-2.8-7.8v-1.1c0-3.2,0.9-5.8,2.7-7.9
			c1.8-2.1,4-3.1,6.6-3.1c2.7,0,4.9,0.9,6.4,2.6s2.3,4,2.3,6.9v2.1h-15.7v0.6c0,2.5,0.7,4.6,2,6.3c1.3,1.7,3.1,2.5,5.2,2.5
			c1.5,0,2.8-0.2,3.9-0.6s2-1,2.8-1.8l1,1.7c-0.8,0.9-1.9,1.6-3.2,2.1S495.6,414.9,493.8,414.9z M493.5,393.9
			c-1.8,0-3.3,0.7-4.6,2.1c-1.2,1.4-1.9,3.1-2.2,5.2l0,0.1h13v-0.6c0-1.9-0.6-3.5-1.7-4.8C497,394.6,495.4,393.9,493.5,393.9z"/>
		<path fill="#FFFFFF" d="M534.2,408.9l0.7,2.6h0.1l0.8-2.6l6-16.6h2.5l-8.4,22.2h-2l-8.4-22.2h2.5L534.2,408.9z"/>
		<path fill="#FFFFFF" d="M577.5,414.9c-2.8,0-5.1-1-6.9-3.1s-2.8-4.6-2.8-7.8v-1.1c0-3.2,0.9-5.8,2.7-7.9s4-3.1,6.6-3.1
			c2.7,0,4.9,0.9,6.4,2.6s2.3,4,2.3,6.9v2.1h-15.7v0.6c0,2.5,0.7,4.6,2,6.3c1.3,1.7,3.1,2.5,5.2,2.5c1.5,0,2.8-0.2,3.9-0.6
			s2-1,2.8-1.8l1,1.7c-0.8,0.9-1.9,1.6-3.2,2.1C580.7,414.6,579.2,414.9,577.5,414.9z M577.2,393.9c-1.8,0-3.3,0.7-4.6,2.1
			c-1.2,1.4-1.9,3.1-2.2,5.2l0,0.1h13v-0.6c0-1.9-0.6-3.5-1.7-4.8C580.6,394.6,579.1,393.9,577.2,393.9z"/>
		<path fill="#FFFFFF" d="M613.9,392.3l0.2,3.9c0.7-1.4,1.7-2.4,2.9-3.2s2.6-1.1,4.3-1.1c2.4,0,4.2,0.7,5.5,2.2s1.9,3.8,1.9,6.9
			v13.5h-2.5v-13.5c0-2.5-0.5-4.4-1.4-5.4c-1-1.1-2.3-1.6-4.1-1.6c-1.7,0-3.1,0.5-4.2,1.4s-1.9,2.1-2.3,3.6v15.5h-2.5v-22.2H613.9z"
			/>
		<path fill="#FFFFFF" d="M660,386.6v5.7h4.9v2H660v14.5c0,1.4,0.3,2.5,0.8,3.1s1.2,0.9,2.1,0.9c0.4,0,0.8,0,1.2-0.1
			s0.8-0.1,1.3-0.2l0.4,1.8c-0.4,0.2-0.9,0.3-1.5,0.4s-1.2,0.1-1.8,0.1c-1.6,0-2.8-0.5-3.6-1.5s-1.3-2.5-1.3-4.7v-14.5h-3.8v-2h3.8
			v-5.7H660z"/>
		<path fill="#FFFFFF" d="M704.4,408.8c0-1-0.4-1.9-1.3-2.7c-0.9-0.8-2.4-1.4-4.6-1.9c-2.7-0.6-4.6-1.3-5.9-2.3s-1.9-2.3-1.9-4
			c0-1.7,0.7-3.1,2.1-4.3s3.3-1.8,5.7-1.8c2.5,0,4.5,0.6,5.9,1.9c1.5,1.2,2.2,2.8,2.1,4.6l0,0.1h-2.3c0-1.2-0.5-2.3-1.5-3.2
			c-1-0.9-2.4-1.4-4.2-1.4c-1.8,0-3.1,0.4-4,1.2c-0.9,0.8-1.3,1.7-1.3,2.7c0,1,0.4,1.9,1.2,2.5c0.8,0.7,2.3,1.3,4.6,1.8
			c2.6,0.6,4.6,1.4,5.9,2.4c1.3,1,2,2.4,2,4.2c0,1.9-0.7,3.4-2.2,4.5s-3.5,1.7-5.9,1.7c-2.7,0-4.8-0.6-6.3-1.9s-2.3-2.8-2.2-4.6
			l0-0.1h2.3c0.1,1.6,0.7,2.7,2,3.5s2.6,1.1,4.3,1.1c1.8,0,3.2-0.4,4.2-1.2S704.4,409.9,704.4,408.8z"/>
	</g>
</g>
</svg>
