<svg width="350" height="200" viewBox="0 0 350 200" version="1.1" xmlns="http://www.w3.org/2000/svg" xmlns:xlink="http://www.w3.org/1999/xlink">
<title>Group 16</title>
<desc>Created using Figma</desc>
<g id="Canvas" transform="translate(-3403 -11300)">
<g id="Group 16">
<g id="input field copy 21">
<use xlink:href="#path0_fill" transform="translate(3403 11300)" fill="#FFFFFF"/>
<mask id="mask0_outline_ins">
<use xlink:href="#path0_fill" fill="white" transform="translate(3403 11300)"/>
</mask>
<g mask="url(#mask0_outline_ins)">
<use xlink:href="#path1_stroke_2x" transform="translate(3403 11300)" fill="#E0E6ED"/>
</g>
</g>
<g id="Price per">
<use xlink:href="#path2_fill" transform="translate(3418 11327)" fill="#34495E"/>
</g>
<g id="Passenger Copy 2">
<use xlink:href="#path3_fill" transform="translate(3664 11378)" fill="#34495E"/>
</g>
<g id="Boat Copy">
<use xlink:href="#path4_fill" transform="translate(3418 11378)" fill="#34495E"/>
</g>
<g id="Rectangle 5 Copy 22" opacity="0.5">
<use xlink:href="#path5_fill" transform="translate(3417 11466)" fill="#DDDDDD"/>
</g>
<g id="Rectangle 5 Copy 21">
<use xlink:href="#path6_fill" transform="translate(3477 11466)" fill="#71A2EA"/>
</g>
<g id="Oval Copy 14">
<use xlink:href="#path7_fill" transform="translate(3471 11457)" fill="#C8DCF9"/>
<mask id="mask1_outline_ins">
<use xlink:href="#path7_fill" fill="white" transform="translate(3471 11457)"/>
</mask>
<g mask="url(#mask1_outline_ins)">
<use xlink:href="#path8_stroke_2x" transform="translate(3471 11457)" fill="#71A2EA"/>
</g>
</g>
<g id="Oval Copy 13">
<use xlink:href="#path7_fill" transform="translate(3671 11457)" fill="#C8DCF9"/>
<mask id="mask2_outline_ins">
<use xlink:href="#path7_fill" fill="white" transform="translate(3671 11457)"/>
</mask>
<g mask="url(#mask2_outline_ins)">
<use xlink:href="#path8_stroke_2x" transform="translate(3671 11457)" fill="#71A2EA"/>
</g>
</g>
<g id="input field copy 7">
<use xlink:href="#path9_fill" transform="translate(3418 11407)" fill="#FFFFFF"/>
<mask id="mask3_outline_ins">
<use xlink:href="#path9_fill" fill="white" transform="translate(3418 11407)"/>
</mask>
<g mask="url(#mask3_outline_ins)">
<use xlink:href="#path10_stroke_2x" transform="translate(3418 11407)" fill="#DDDDDD"/>
</g>
</g>
<g id="5456">
<use xlink:href="#path11_fill" transform="translate(3424 11411)" fill="#34495E"/>
</g>
<g id="input field copy 8">
<use xlink:href="#path9_fill" transform="translate(3476 11407)" fill="#FFFFFF"/>
<mask id="mask4_outline_ins">
<use xlink:href="#path9_fill" fill="white" transform="translate(3476 11407)"/>
</mask>
<g mask="url(#mask4_outline_ins)">
<use xlink:href="#path10_stroke_2x" transform="translate(3476 11407)" fill="#DDDDDD"/>
</g>
</g>
<g id="5456 copy">
<use xlink:href="#path11_fill" transform="translate(3482 11411)" fill="#34495E"/>
</g>
<g id="&#226;&#128;&#147;">
<use xlink:href="#path12_fill" transform="translate(3468 11411)" fill="#DDDDDD"/>
</g>
<g id="&#226;&#128;&#147; copy">
<use xlink:href="#path12_fill" transform="translate(3677 11410)" fill="#DDDDDD"/>
</g>
<g id="input field copy 10">
<use xlink:href="#path9_fill" transform="translate(3627 11407)" fill="#FFFFFF"/>
<mask id="mask5_outline_ins">
<use xlink:href="#path9_fill" fill="white" transform="translate(3627 11407)"/>
</mask>
<g mask="url(#mask5_outline_ins)">
<use xlink:href="#path10_stroke_2x" transform="translate(3627 11407)" fill="#DDDDDD"/>
</g>
</g>
<g id="456">
<use xlink:href="#path13_fill" transform="translate(3633 11411)" fill="#34495E"/>
</g>
<g id="input field copy 9">
<use xlink:href="#path9_fill" transform="translate(3685 11407)" fill="#FFFFFF"/>
<mask id="mask6_outline_ins">
<use xlink:href="#path9_fill" fill="white" transform="translate(3685 11407)"/>
</mask>
<g mask="url(#mask6_outline_ins)">
<use xlink:href="#path10_stroke_2x" transform="translate(3685 11407)" fill="#DDDDDD"/>
</g>
</g>
<g id="545">
<use xlink:href="#path14_fill" transform="translate(3691 11411)" fill="#34495E"/>
</g>
<g id="input field copy 12" opacity="0.15" filter="url(#filter0_i)">
<use xlink:href="#path15_fill" transform="translate(3577 11324)" fill="#71A2EA"/>
</g>
<g id="Rectangle 8 Copy 3">
<use xlink:href="#path16_fill" transform="translate(3577 11324)" fill="#71A2EA"/>
</g>
<g id="week">
<use xlink:href="#path17_fill" transform="translate(3598 11328)" fill="#FFFFFF"/>
</g>
<g id="day">
<use xlink:href="#path18_fill" transform="translate(3684 11328)" fill="#34495E"/>
</g>
</g>
</g>
<defs>
<filter id="filter0_i" filterUnits="userSpaceOnUse" x="3576" y="11324" width="162" height="37" color-interpolation-filters="sRGB">
<feFlood flood-opacity="0" result="BackgroundImageFix"/>
<feBlend mode="normal" in="SourceGraphic" in2="BackgroundImageFix" result="shape"/>
<feColorMatrix in="SourceAlpha" type="matrix" values="0 0 0 0 0 0 0 0 0 0 0 0 0 0 0 0 0 0 255 0" result="hardAlpha"/>
<feOffset dx="0" dy="1"/>
<feGaussianBlur stdDeviation="0.5"/>
<feComposite in2="hardAlpha" operator="arithmetic" k2="-1" k3="1"/>
<feColorMatrix type="matrix" values="0 0 0 0 0.443137 0 0 0 0 0.635294 0 0 0 0 0.917647 0 0 0 1 0"/>
<feBlend mode="normal" in2="shape" result="effect1_innerShadow"/>
</filter>
<path id="path0_fill" fill-rule="evenodd" d="M 0 4C 0 1.79086 1.79086 0 4 0L 346 0C 348.209 0 350 1.79086 350 4L 350 196C 350 198.209 348.209 200 346 200L 4 200C 1.79086 200 0 198.209 0 196L 0 4Z"/>
<path id="path1_stroke_2x" d="M 4 1L 346 1L 346 -1L 4 -1L 4 1ZM 349 4L 349 196L 351 196L 351 4L 349 4ZM 346 199L 4 199L 4 201L 346 201L 346 199ZM 1 196L 1 4L -1 4L -1 196L 1 196ZM 4 -1C 1.23858 -1 -1 1.23858 -1 4L 1 4C 1 2.34315 2.34315 1 4 1L 4 -1ZM 346 1C 347.657 1 349 2.34315 349 4L 351 4C 351 1.23858 348.761 -1 346 -1L 346 1ZM 349 196C 349 197.657 347.657 199 346 199L 346 201C 348.761 201 351 198.761 351 196L 349 196ZM 4 199C 2.34315 199 1 197.657 1 196L -1 196C -1 198.761 1.23858 201 4 201L 4 199Z"/>
<path id="path2_fill" d="M 3.17285 14.9902L 3.17285 20L 1.48535 20L 1.48535 7.20312L 6.20508 7.20312C 7.60547 7.20312 8.70117 7.56055 9.49219 8.27539C 10.2891 8.99023 10.6875 9.93652 10.6875 11.1143C 10.6875 12.3564 10.2979 13.3145 9.51855 13.9883C 8.74512 14.6562 7.63477 14.9902 6.1875 14.9902L 3.17285 14.9902ZM 3.17285 13.6104L 6.20508 13.6104C 7.10742 13.6104 7.79883 13.3994 8.2793 12.9775C 8.75977 12.5498 9 11.9346 9 11.1318C 9 10.3701 8.75977 9.76074 8.2793 9.30371C 7.79883 8.84668 7.13965 8.60938 6.30176 8.5918L 3.17285 8.5918L 3.17285 13.6104ZM 17.1826 11.9492C 16.9365 11.9082 16.6699 11.8877 16.3828 11.8877C 15.3164 11.8877 14.5928 12.3418 14.2119 13.25L 14.2119 20L 12.5859 20L 12.5859 10.4902L 14.168 10.4902L 14.1943 11.5889C 14.7275 10.7393 15.4834 10.3145 16.4619 10.3145C 16.7783 10.3145 17.0186 10.3555 17.1826 10.4375L 17.1826 11.9492ZM 20.4521 20L 18.8262 20L 18.8262 10.4902L 20.4521 10.4902L 20.4521 20ZM 18.6943 7.96777C 18.6943 7.7041 18.7734 7.48144 18.9316 7.2998C 19.0957 7.11816 19.3359 7.02734 19.6523 7.02734C 19.9688 7.02734 20.209 7.11816 20.373 7.2998C 20.5371 7.48144 20.6191 7.7041 20.6191 7.96777C 20.6191 8.23145 20.5371 8.45117 20.373 8.62695C 20.209 8.80273 19.9688 8.89062 19.6523 8.89062C 19.3359 8.89062 19.0957 8.80273 18.9316 8.62695C 18.7734 8.45117 18.6943 8.23145 18.6943 7.96777ZM 26.877 18.8486C 27.457 18.8486 27.9639 18.6729 28.3975 18.3213C 28.8311 17.9697 29.0713 17.5303 29.1182 17.0029L 30.6562 17.0029C 30.627 17.5479 30.4395 18.0664 30.0938 18.5586C 29.748 19.0508 29.2852 19.4434 28.7051 19.7363C 28.1309 20.0293 27.5215 20.1758 26.877 20.1758C 25.582 20.1758 24.5508 19.7451 23.7832 18.8838C 23.0215 18.0166 22.6406 16.833 22.6406 15.333L 22.6406 15.0605C 22.6406 14.1348 22.8105 13.3115 23.1504 12.5908C 23.4902 11.8701 23.9766 11.3105 24.6094 10.9121C 25.248 10.5137 26.001 10.3145 26.8682 10.3145C 27.9346 10.3145 28.8193 10.6338 29.5225 11.2725C 30.2314 11.9111 30.6094 12.7402 30.6562 13.7598L 29.1182 13.7598C 29.0713 13.1445 28.8369 12.6406 28.415 12.248C 27.999 11.8496 27.4834 11.6504 26.8682 11.6504C 26.042 11.6504 25.4004 11.9492 24.9434 12.5469C 24.4922 13.1387 24.2666 13.9971 24.2666 15.1221L 24.2666 15.4297C 24.2666 16.5254 24.4922 17.3691 24.9434 17.9609C 25.3945 18.5527 26.0391 18.8486 26.877 18.8486ZM 36.4307 20.1758C 35.1416 20.1758 34.0928 19.7539 33.2842 18.9102C 32.4756 18.0605 32.0713 16.9268 32.0713 15.5088L 32.0713 15.21C 32.0713 14.2666 32.25 13.4258 32.6074 12.6875C 32.9707 11.9434 33.4746 11.3633 34.1191 10.9473C 34.7695 10.5254 35.4727 10.3145 36.2285 10.3145C 37.4648 10.3145 38.4258 10.7217 39.1113 11.5361C 39.7969 12.3506 40.1396 13.5166 40.1396 15.0342L 40.1396 15.7109L 33.6973 15.7109C 33.7207 16.6484 33.9932 17.4072 34.5146 17.9873C 35.042 18.5615 35.71 18.8486 36.5186 18.8486C 37.0928 18.8486 37.5791 18.7314 37.9775 18.4971C 38.376 18.2627 38.7246 17.9521 39.0234 17.5654L 40.0166 18.3389C 39.2197 19.5635 38.0244 20.1758 36.4307 20.1758ZM 36.2285 11.6504C 35.5723 11.6504 35.0215 11.8906 34.5762 12.3711C 34.1309 12.8457 33.8555 13.5137 33.75 14.375L 38.5137 14.375L 38.5137 14.252C 38.4668 13.4258 38.2441 12.7871 37.8457 12.3359C 37.4473 11.8789 36.9082 11.6504 36.2285 11.6504ZM 54.5273 15.3506C 54.5273 16.7979 54.1963 17.9639 53.5342 18.8486C 52.8721 19.7334 51.9756 20.1758 50.8447 20.1758C 49.6904 20.1758 48.7822 19.8096 48.1201 19.0771L 48.1201 23.6562L 46.4941 23.6562L 46.4941 10.4902L 47.9795 10.4902L 48.0586 11.5449C 48.7207 10.7246 49.6406 10.3145 50.8184 10.3145C 51.9609 10.3145 52.8633 10.7451 53.5254 11.6064C 54.1934 12.4678 54.5273 13.666 54.5273 15.2012L 54.5273 15.3506ZM 52.9014 15.166C 52.9014 14.0938 52.6729 13.2471 52.2158 12.626C 51.7588 12.0049 51.1318 11.6943 50.335 11.6943C 49.3506 11.6943 48.6123 12.1309 48.1201 13.0039L 48.1201 17.5479C 48.6064 18.415 49.3506 18.8486 50.3525 18.8486C 51.1318 18.8486 51.75 18.541 52.207 17.9258C 52.6699 17.3047 52.9014 16.3848 52.9014 15.166ZM 60.5479 20.1758C 59.2588 20.1758 58.21 19.7539 57.4014 18.9102C 56.5928 18.0605 56.1885 16.9268 56.1885 15.5088L 56.1885 15.21C 56.1885 14.2666 56.3672 13.4258 56.7246 12.6875C 57.0879 11.9434 57.5918 11.3633 58.2363 10.9473C 58.8867 10.5254 59.5898 10.3145 60.3457 10.3145C 61.582 10.3145 62.543 10.7217 63.2285 11.5361C 63.9141 12.3506 64.2568 13.5166 64.2568 15.0342L 64.2568 15.7109L 57.8145 15.7109C 57.8379 16.6484 58.1104 17.4072 58.6318 17.9873C 59.1592 18.5615 59.8271 18.8486 60.6357 18.8486C 61.21 18.8486 61.6963 18.7314 62.0947 18.4971C 62.4932 18.2627 62.8418 17.9521 63.1406 17.5654L 64.1338 18.3389C 63.3369 19.5635 62.1416 20.1758 60.5479 20.1758ZM 60.3457 11.6504C 59.6895 11.6504 59.1387 11.8906 58.6934 12.3711C 58.248 12.8457 57.9727 13.5137 57.8672 14.375L 62.6309 14.375L 62.6309 14.252C 62.584 13.4258 62.3613 12.7871 61.9629 12.3359C 61.5645 11.8789 61.0254 11.6504 60.3457 11.6504ZM 70.7432 11.9492C 70.4971 11.9082 70.2305 11.8877 69.9434 11.8877C 68.877 11.8877 68.1533 12.3418 67.7725 13.25L 67.7725 20L 66.1465 20L 66.1465 10.4902L 67.7285 10.4902L 67.7549 11.5889C 68.2881 10.7393 69.0439 10.3145 70.0225 10.3145C 70.3389 10.3145 70.5791 10.3555 70.7432 10.4375L 70.7432 11.9492Z"/>
<path id="path3_fill" d="M 2.82031 14.5469L 2.82031 19L 1.32031 19L 1.32031 7.625L 5.51562 7.625C 6.76042 7.625 7.73438 7.94271 8.4375 8.57812C 9.14583 9.21354 9.5 10.0547 9.5 11.1016C 9.5 12.2057 9.15365 13.0573 8.46094 13.6562C 7.77344 14.25 6.78646 14.5469 5.5 14.5469L 2.82031 14.5469ZM 2.82031 13.3203L 5.51562 13.3203C 6.31771 13.3203 6.93229 13.1328 7.35938 12.7578C 7.78646 12.3776 8 11.8307 8 11.1172C 8 10.4401 7.78646 9.89844 7.35938 9.49219C 6.93229 9.08594 6.34635 8.875 5.60156 8.85938L 2.82031 8.85938L 2.82031 13.3203ZM 16.3125 19C 16.2292 18.8333 16.1615 18.5365 16.1094 18.1094C 15.4375 18.8073 14.6354 19.1562 13.7031 19.1562C 12.8698 19.1562 12.1849 18.9219 11.6484 18.4531C 11.1172 17.9792 10.8516 17.3802 10.8516 16.6562C 10.8516 15.776 11.1849 15.0938 11.8516 14.6094C 12.5234 14.1198 13.4661 13.875 14.6797 13.875L 16.0859 13.875L 16.0859 13.2109C 16.0859 12.7057 15.9349 12.3047 15.6328 12.0078C 15.3307 11.7057 14.8854 11.5547 14.2969 11.5547C 13.7812 11.5547 13.349 11.6849 13 11.9453C 12.651 12.2057 12.4766 12.5208 12.4766 12.8906L 11.0234 12.8906C 11.0234 12.4688 11.1719 12.0625 11.4688 11.6719C 11.7708 11.276 12.1771 10.9635 12.6875 10.7344C 13.2031 10.5052 13.7682 10.3906 14.3828 10.3906C 15.3568 10.3906 16.1198 10.6354 16.6719 11.125C 17.224 11.6094 17.5104 12.2786 17.5312 13.1328L 17.5312 17.0234C 17.5312 17.7995 17.6302 18.4167 17.8281 18.875L 17.8281 19L 16.3125 19ZM 13.9141 17.8984C 14.3672 17.8984 14.7969 17.7812 15.2031 17.5469C 15.6094 17.3125 15.9036 17.0078 16.0859 16.6328L 16.0859 14.8984L 14.9531 14.8984C 13.1823 14.8984 12.2969 15.4167 12.2969 16.4531C 12.2969 16.9062 12.4479 17.2604 12.75 17.5156C 13.0521 17.7708 13.4401 17.8984 13.9141 17.8984ZM 24.7188 16.7578C 24.7188 16.3672 24.5703 16.0651 24.2734 15.8516C 23.9818 15.6328 23.4688 15.4453 22.7344 15.2891C 22.0052 15.1328 21.4245 14.9453 20.9922 14.7266C 20.5651 14.5078 20.2474 14.2474 20.0391 13.9453C 19.8359 13.6432 19.7344 13.2839 19.7344 12.8672C 19.7344 12.1745 20.026 11.5885 20.6094 11.1094C 21.1979 10.6302 21.9479 10.3906 22.8594 10.3906C 23.8177 10.3906 24.5938 10.638 25.1875 11.1328C 25.7865 11.6276 26.0859 12.2604 26.0859 13.0312L 24.6328 13.0312C 24.6328 12.6354 24.4635 12.2943 24.125 12.0078C 23.7917 11.7214 23.3698 11.5781 22.8594 11.5781C 22.3333 11.5781 21.9219 11.6927 21.625 11.9219C 21.3281 12.151 21.1797 12.4505 21.1797 12.8203C 21.1797 13.1693 21.3177 13.4323 21.5938 13.6094C 21.8698 13.7865 22.3672 13.9557 23.0859 14.1172C 23.8099 14.2786 24.3958 14.4714 24.8438 14.6953C 25.2917 14.9193 25.6224 15.1901 25.8359 15.5078C 26.0547 15.8203 26.1641 16.2031 26.1641 16.6562C 26.1641 17.4115 25.862 18.0182 25.2578 18.4766C 24.6536 18.9297 23.8698 19.1562 22.9062 19.1562C 22.2292 19.1562 21.6302 19.0365 21.1094 18.7969C 20.5885 18.5573 20.1797 18.224 19.8828 17.7969C 19.5911 17.3646 19.4453 16.8984 19.4453 16.3984L 20.8906 16.3984C 20.9167 16.8828 21.1094 17.2682 21.4688 17.5547C 21.8333 17.8359 22.3125 17.9766 22.9062 17.9766C 23.4531 17.9766 23.8906 17.8672 24.2188 17.6484C 24.5521 17.4245 24.7188 17.1276 24.7188 16.7578ZM 32.9688 16.7578C 32.9688 16.3672 32.8203 16.0651 32.5234 15.8516C 32.2318 15.6328 31.7188 15.4453 30.9844 15.2891C 30.2552 15.1328 29.6745 14.9453 29.2422 14.7266C 28.8151 14.5078 28.4974 14.2474 28.2891 13.9453C 28.0859 13.6432 27.9844 13.2839 27.9844 12.8672C 27.9844 12.1745 28.276 11.5885 28.8594 11.1094C 29.4479 10.6302 30.1979 10.3906 31.1094 10.3906C 32.0677 10.3906 32.8438 10.638 33.4375 11.1328C 34.0365 11.6276 34.3359 12.2604 34.3359 13.0312L 32.8828 13.0312C 32.8828 12.6354 32.7135 12.2943 32.375 12.0078C 32.0417 11.7214 31.6198 11.5781 31.1094 11.5781C 30.5833 11.5781 30.1719 11.6927 29.875 11.9219C 29.5781 12.151 29.4297 12.4505 29.4297 12.8203C 29.4297 13.1693 29.5677 13.4323 29.8438 13.6094C 30.1198 13.7865 30.6172 13.9557 31.3359 14.1172C 32.0599 14.2786 32.6458 14.4714 33.0938 14.6953C 33.5417 14.9193 33.8724 15.1901 34.0859 15.5078C 34.3047 15.8203 34.4141 16.2031 34.4141 16.6562C 34.4141 17.4115 34.112 18.0182 33.5078 18.4766C 32.9036 18.9297 32.1198 19.1562 31.1562 19.1562C 30.4792 19.1562 29.8802 19.0365 29.3594 18.7969C 28.8385 18.5573 28.4297 18.224 28.1328 17.7969C 27.8411 17.3646 27.6953 16.8984 27.6953 16.3984L 29.1406 16.3984C 29.1667 16.8828 29.3594 17.2682 29.7188 17.5547C 30.0833 17.8359 30.5625 17.9766 31.1562 17.9766C 31.7031 17.9766 32.1406 17.8672 32.4688 17.6484C 32.8021 17.4245 32.9688 17.1276 32.9688 16.7578ZM 39.8047 19.1562C 38.6589 19.1562 37.7266 18.7812 37.0078 18.0312C 36.2891 17.276 35.9297 16.2682 35.9297 15.0078L 35.9297 14.7422C 35.9297 13.9036 36.0885 13.1562 36.4062 12.5C 36.7292 11.8385 37.1771 11.3229 37.75 10.9531C 38.3281 10.5781 38.9531 10.3906 39.625 10.3906C 40.724 10.3906 41.5781 10.7526 42.1875 11.4766C 42.7969 12.2005 43.1016 13.237 43.1016 14.5859L 43.1016 15.1875L 37.375 15.1875C 37.3958 16.0208 37.638 16.6953 38.1016 17.2109C 38.5703 17.7214 39.1641 17.9766 39.8828 17.9766C 40.3932 17.9766 40.8255 17.8724 41.1797 17.6641C 41.5339 17.4557 41.8438 17.1797 42.1094 16.8359L 42.9922 17.5234C 42.2839 18.612 41.2214 19.1562 39.8047 19.1562ZM 39.625 11.5781C 39.0417 11.5781 38.5521 11.7917 38.1562 12.2188C 37.7604 12.6406 37.5156 13.2344 37.4219 14L 41.6562 14L 41.6562 13.8906C 41.6146 13.1562 41.4167 12.5885 41.0625 12.1875C 40.7083 11.7812 40.2292 11.5781 39.625 11.5781ZM 46.1484 10.5469L 46.1953 11.6094C 46.8411 10.7969 47.6849 10.3906 48.7266 10.3906C 50.513 10.3906 51.4141 11.3984 51.4297 13.4141L 51.4297 19L 49.9844 19L 49.9844 13.4062C 49.9792 12.7969 49.8385 12.3464 49.5625 12.0547C 49.2917 11.763 48.8672 11.6172 48.2891 11.6172C 47.8203 11.6172 47.4089 11.7422 47.0547 11.9922C 46.7005 12.2422 46.4245 12.5703 46.2266 12.9766L 46.2266 19L 44.7812 19L 44.7812 10.5469L 46.1484 10.5469ZM 53.2656 14.7031C 53.2656 13.3854 53.5703 12.3385 54.1797 11.5625C 54.7891 10.7812 55.5964 10.3906 56.6016 10.3906C 57.6328 10.3906 58.4375 10.7552 59.0156 11.4844L 59.0859 10.5469L 60.4062 10.5469L 60.4062 18.7969C 60.4062 19.8906 60.0807 20.7526 59.4297 21.3828C 58.7839 22.013 57.9141 22.3281 56.8203 22.3281C 56.2109 22.3281 55.6146 22.1979 55.0312 21.9375C 54.4479 21.6771 54.0026 21.3203 53.6953 20.8672L 54.4453 20C 55.0651 20.7656 55.8229 21.1484 56.7188 21.1484C 57.4219 21.1484 57.9688 20.9505 58.3594 20.5547C 58.7552 20.1589 58.9531 19.6016 58.9531 18.8828L 58.9531 18.1562C 58.375 18.8229 57.5859 19.1562 56.5859 19.1562C 55.5964 19.1562 54.7943 18.7578 54.1797 17.9609C 53.5703 17.1641 53.2656 16.0781 53.2656 14.7031ZM 54.7188 14.8672C 54.7188 15.8203 54.9141 16.5703 55.3047 17.1172C 55.6953 17.6589 56.2422 17.9297 56.9453 17.9297C 57.8568 17.9297 58.526 17.5156 58.9531 16.6875L 58.9531 12.8281C 58.5104 12.0208 57.8464 11.6172 56.9609 11.6172C 56.2578 11.6172 55.7083 11.8906 55.3125 12.4375C 54.9167 12.9844 54.7188 13.7943 54.7188 14.8672ZM 66.1016 19.1562C 64.9557 19.1562 64.0234 18.7812 63.3047 18.0312C 62.5859 17.276 62.2266 16.2682 62.2266 15.0078L 62.2266 14.7422C 62.2266 13.9036 62.3854 13.1562 62.7031 12.5C 63.026 11.8385 63.474 11.3229 64.0469 10.9531C 64.625 10.5781 65.25 10.3906 65.9219 10.3906C 67.0208 10.3906 67.875 10.7526 68.4844 11.4766C 69.0938 12.2005 69.3984 13.237 69.3984 14.5859L 69.3984 15.1875L 63.6719 15.1875C 63.6927 16.0208 63.9349 16.6953 64.3984 17.2109C 64.8672 17.7214 65.4609 17.9766 66.1797 17.9766C 66.6901 17.9766 67.1224 17.8724 67.4766 17.6641C 67.8307 17.4557 68.1406 17.1797 68.4062 16.8359L 69.2891 17.5234C 68.5807 18.612 67.5182 19.1562 66.1016 19.1562ZM 65.9219 11.5781C 65.3385 11.5781 64.849 11.7917 64.4531 12.2188C 64.0573 12.6406 63.8125 13.2344 63.7188 14L 67.9531 14L 67.9531 13.8906C 67.9115 13.1562 67.7135 12.5885 67.3594 12.1875C 67.0052 11.7812 66.526 11.5781 65.9219 11.5781ZM 75.1641 11.8438C 74.9453 11.8073 74.7083 11.7891 74.4531 11.7891C 73.5052 11.7891 72.862 12.1927 72.5234 13L 72.5234 19L 71.0781 19L 71.0781 10.5469L 72.4844 10.5469L 72.5078 11.5234C 72.9818 10.7682 73.6536 10.3906 74.5234 10.3906C 74.8047 10.3906 75.0182 10.4271 75.1641 10.5L 75.1641 11.8438Z"/>
<path id="path4_fill" d="M 1.32031 19L 1.32031 7.625L 5.03906 7.625C 6.27344 7.625 7.20052 7.88021 7.82031 8.39062C 8.44531 8.90104 8.75781 9.65625 8.75781 10.6562C 8.75781 11.1875 8.60677 11.6589 8.30469 12.0703C 8.0026 12.4766 7.59115 12.7917 7.07031 13.0156C 7.6849 13.1875 8.16927 13.5156 8.52344 14C 8.88281 14.4792 9.0625 15.0521 9.0625 15.7188C 9.0625 16.7396 8.73177 17.5417 8.07031 18.125C 7.40885 18.7083 6.47396 19 5.26562 19L 1.32031 19ZM 2.82031 13.6797L 2.82031 17.7734L 5.29688 17.7734C 5.99479 17.7734 6.54427 17.5938 6.94531 17.2344C 7.35156 16.8698 7.55469 16.3698 7.55469 15.7344C 7.55469 14.3646 6.8099 13.6797 5.32031 13.6797L 2.82031 13.6797ZM 2.82031 12.4766L 5.08594 12.4766C 5.74219 12.4766 6.26562 12.3125 6.65625 11.9844C 7.05208 11.6562 7.25 11.2109 7.25 10.6484C 7.25 10.0234 7.06771 9.57031 6.70312 9.28906C 6.33854 9.0026 5.78385 8.85938 5.03906 8.85938L 2.82031 8.85938L 2.82031 12.4766ZM 10.6797 14.6953C 10.6797 13.8672 10.8411 13.1224 11.1641 12.4609C 11.4922 11.7995 11.9453 11.2891 12.5234 10.9297C 13.1068 10.5703 13.7708 10.3906 14.5156 10.3906C 15.6667 10.3906 16.5964 10.7891 17.3047 11.5859C 18.0182 12.3828 18.375 13.4427 18.375 14.7656L 18.375 14.8672C 18.375 15.6901 18.2161 16.4297 17.8984 17.0859C 17.5859 17.737 17.1354 18.2448 16.5469 18.6094C 15.9635 18.974 15.2917 19.1562 14.5312 19.1562C 13.3854 19.1562 12.4557 18.7578 11.7422 17.9609C 11.0339 17.1641 10.6797 16.1094 10.6797 14.7969L 10.6797 14.6953ZM 12.1328 14.8672C 12.1328 15.8047 12.349 16.5573 12.7812 17.125C 13.2188 17.6927 13.8021 17.9766 14.5312 17.9766C 15.2656 17.9766 15.849 17.6901 16.2812 17.1172C 16.7135 16.5391 16.9297 15.7318 16.9297 14.6953C 16.9297 13.7682 16.7083 13.0182 16.2656 12.4453C 15.8281 11.8672 15.2448 11.5781 14.5156 11.5781C 13.8021 11.5781 13.2266 11.862 12.7891 12.4297C 12.3516 12.9974 12.1328 13.8099 12.1328 14.8672ZM 25.4062 19C 25.3229 18.8333 25.2552 18.5365 25.2031 18.1094C 24.5312 18.8073 23.7292 19.1562 22.7969 19.1562C 21.9635 19.1562 21.2786 18.9219 20.7422 18.4531C 20.2109 17.9792 19.9453 17.3802 19.9453 16.6562C 19.9453 15.776 20.2786 15.0938 20.9453 14.6094C 21.6172 14.1198 22.5599 13.875 23.7734 13.875L 25.1797 13.875L 25.1797 13.2109C 25.1797 12.7057 25.0286 12.3047 24.7266 12.0078C 24.4245 11.7057 23.9792 11.5547 23.3906 11.5547C 22.875 11.5547 22.4427 11.6849 22.0938 11.9453C 21.7448 12.2057 21.5703 12.5208 21.5703 12.8906L 20.1172 12.8906C 20.1172 12.4688 20.2656 12.0625 20.5625 11.6719C 20.8646 11.276 21.2708 10.9635 21.7812 10.7344C 22.2969 10.5052 22.862 10.3906 23.4766 10.3906C 24.4505 10.3906 25.2135 10.6354 25.7656 11.125C 26.3177 11.6094 26.6042 12.2786 26.625 13.1328L 26.625 17.0234C 26.625 17.7995 26.724 18.4167 26.9219 18.875L 26.9219 19L 25.4062 19ZM 23.0078 17.8984C 23.4609 17.8984 23.8906 17.7812 24.2969 17.5469C 24.7031 17.3125 24.9974 17.0078 25.1797 16.6328L 25.1797 14.8984L 24.0469 14.8984C 22.276 14.8984 21.3906 15.4167 21.3906 16.4531C 21.3906 16.9062 21.5417 17.2604 21.8438 17.5156C 22.1458 17.7708 22.5339 17.8984 23.0078 17.8984ZM 30.8516 8.5L 30.8516 10.5469L 32.4297 10.5469L 32.4297 11.6641L 30.8516 11.6641L 30.8516 16.9062C 30.8516 17.2448 30.9219 17.5 31.0625 17.6719C 31.2031 17.8385 31.4427 17.9219 31.7812 17.9219C 31.9479 17.9219 32.1771 17.8906 32.4688 17.8281L 32.4688 19C 32.0885 19.1042 31.7188 19.1562 31.3594 19.1562C 30.7135 19.1562 30.2266 18.9609 29.8984 18.5703C 29.5703 18.1797 29.4062 17.625 29.4062 16.9062L 29.4062 11.6641L 27.8672 11.6641L 27.8672 10.5469L 29.4062 10.5469L 29.4062 8.5L 30.8516 8.5Z"/>
<path id="path5_fill" fill-rule="evenodd" d="M 0 1C 0 0.447715 0.447715 0 1 0L 319 0C 319.552 0 320 0.447716 320 1C 320 1.55228 319.552 2 319 2L 1 2C 0.447715 2 0 1.55228 0 1Z"/>
<path id="path6_fill" fill-rule="evenodd" d="M 0 0L 204 0L 204 2L 0 2L 0 0Z"/>
<path id="path7_fill" fill-rule="evenodd" d="M 10 20C 15.5228 20 20 15.5228 20 10C 20 4.47715 15.5228 0 10 0C 4.47715 0 0 4.47715 0 10C 0 15.5228 4.47715 20 10 20Z"/>
<path id="path8_stroke_2x" d="M 10 21C 16.0751 21 21 16.0751 21 10L 19 10C 19 14.9706 14.9706 19 10 19L 10 21ZM 21 10C 21 3.92487 16.0751 -1 10 -1L 10 1C 14.9706 1 19 5.02944 19 10L 21 10ZM 10 -1C 3.92487 -1 -1 3.92487 -1 10L 1 10C 1 5.02944 5.02944 1 10 1L 10 -1ZM -1 10C -1 16.0751 3.92487 21 10 21L 10 19C 5.02944 19 1 14.9706 1 10L -1 10Z"/>
<path id="path9_fill" fill-rule="evenodd" d="M 0 4C 0 1.79086 1.79086 0 4 0L 48 0C 50.2091 0 52 1.79086 52 4L 52 32C 52 34.2091 50.2091 36 48 36L 4 36C 1.79086 36 0 34.2091 0 32L 0 4Z"/>
<path id="path10_stroke_2x" d="M 4 1L 48 1L 48 -1L 4 -1L 4 1ZM 51 4L 51 32L 53 32L 53 4L 51 4ZM 48 35L 4 35L 4 37L 48 37L 48 35ZM 1 32L 1 4L -1 4L -1 32L 1 32ZM 4 -1C 1.23858 -1 -1 1.23858 -1 4L 1 4C 1 2.34315 2.34315 1 4 1L 4 -1ZM 48 1C 49.6569 1 51 2.34315 51 4L 53 4C 53 1.23858 50.7614 -1 48 -1L 48 1ZM 51 32C 51 33.6569 49.6569 35 48 35L 48 37C 50.7614 37 53 34.7614 53 32L 51 32ZM 4 35C 2.34315 35 1 33.6569 1 32L -1 32C -1 34.7614 1.23858 37 4 37L 4 35Z"/>
<path id="path11_fill" d="M 1.50879 13.6533L 2.05078 8.33594L 7.51465 8.33594L 7.51465 9.58838L 3.20068 9.58838L 2.87842 12.4961C 3.40088 12.1885 3.99414 12.0347 4.6582 12.0347C 5.62988 12.0347 6.40137 12.3569 6.97266 13.0015C 7.54395 13.6411 7.82959 14.5078 7.82959 15.6016C 7.82959 16.7002 7.53174 17.5669 6.93604 18.2017C 6.34521 18.8315 5.51758 19.1465 4.45312 19.1465C 3.51074 19.1465 2.7417 18.8853 2.146 18.3628C 1.55029 17.8403 1.21094 17.1177 1.12793 16.1948L 2.40967 16.1948C 2.49268 16.8052 2.70996 17.2666 3.06152 17.5791C 3.41309 17.8867 3.87695 18.0405 4.45312 18.0405C 5.08301 18.0405 5.57617 17.8257 5.93262 17.396C 6.29395 16.9663 6.47461 16.373 6.47461 15.6162C 6.47461 14.9033 6.2793 14.332 5.88867 13.9023C 5.50293 13.4678 4.98779 13.2505 4.34326 13.2505C 3.75244 13.2505 3.28857 13.3799 2.95166 13.6387L 2.59277 13.9316L 1.50879 13.6533ZM 15.0293 15.4185L 16.5088 15.4185L 16.5088 16.5244L 15.0293 16.5244L 15.0293 19L 13.667 19L 13.667 16.5244L 8.81104 16.5244L 8.81104 15.7261L 13.5864 8.33594L 15.0293 8.33594L 15.0293 15.4185ZM 10.3491 15.4185L 13.667 15.4185L 13.667 10.189L 13.5059 10.4819L 10.3491 15.4185ZM 18.3545 13.6533L 18.8965 8.33594L 24.3604 8.33594L 24.3604 9.58838L 20.0464 9.58838L 19.7241 12.4961C 20.2466 12.1885 20.8398 12.0347 21.5039 12.0347C 22.4756 12.0347 23.2471 12.3569 23.8184 13.0015C 24.3896 13.6411 24.6753 14.5078 24.6753 15.6016C 24.6753 16.7002 24.3774 17.5669 23.7817 18.2017C 23.1909 18.8315 22.3633 19.1465 21.2988 19.1465C 20.3564 19.1465 19.5874 18.8853 18.9917 18.3628C 18.396 17.8403 18.0566 17.1177 17.9736 16.1948L 19.2554 16.1948C 19.3384 16.8052 19.5557 17.2666 19.9072 17.5791C 20.2588 17.8867 20.7227 18.0405 21.2988 18.0405C 21.9287 18.0405 22.4219 17.8257 22.7783 17.396C 23.1396 16.9663 23.3203 16.373 23.3203 15.6162C 23.3203 14.9033 23.125 14.332 22.7344 13.9023C 22.3486 13.4678 21.8335 13.2505 21.189 13.2505C 20.5981 13.2505 20.1343 13.3799 19.7974 13.6387L 19.4385 13.9316L 18.3545 13.6533ZM 31.4722 8.32861L 31.4722 9.47852L 31.2231 9.47852C 30.1685 9.49805 29.3286 9.81055 28.7036 10.416C 28.0786 11.0215 27.7173 11.8735 27.6196 12.9722C 28.1812 12.3276 28.9478 12.0054 29.9194 12.0054C 30.8472 12.0054 31.5869 12.3325 32.1387 12.9868C 32.6953 13.6411 32.9736 14.4858 32.9736 15.521C 32.9736 16.6196 32.6733 17.4985 32.0728 18.1577C 31.4771 18.8169 30.6763 19.1465 29.6704 19.1465C 28.6499 19.1465 27.8223 18.7559 27.1875 17.9746C 26.5527 17.1885 26.2354 16.1777 26.2354 14.9424L 26.2354 14.4224C 26.2354 12.4595 26.6528 10.9604 27.4878 9.92529C 28.3276 8.88525 29.5752 8.35303 31.2305 8.32861L 31.4722 8.32861ZM 29.6924 13.1333C 29.2285 13.1333 28.8013 13.2725 28.4106 13.5508C 28.02 13.8291 27.749 14.1782 27.5977 14.5981L 27.5977 15.0962C 27.5977 15.9751 27.7954 16.6831 28.1909 17.2202C 28.5864 17.7573 29.0796 18.0259 29.6704 18.0259C 30.2808 18.0259 30.7593 17.8013 31.106 17.3521C 31.4575 16.9028 31.6333 16.3145 31.6333 15.5869C 31.6333 14.8545 31.4551 14.2637 31.0986 13.8145C 30.7471 13.3604 30.2783 13.1333 29.6924 13.1333Z"/>
<path id="path12_fill" d="M 8.53271 14.2319L 1.19385 14.2319L 1.19385 13.126L 8.53271 13.126L 8.53271 14.2319Z"/>
<path id="path13_fill" d="M 6.60645 15.4185L 8.08594 15.4185L 8.08594 16.5244L 6.60645 16.5244L 6.60645 19L 5.24414 19L 5.24414 16.5244L 0.388184 16.5244L 0.388184 15.7261L 5.16357 8.33594L 6.60645 8.33594L 6.60645 15.4185ZM 1.92627 15.4185L 5.24414 15.4185L 5.24414 10.189L 5.08301 10.4819L 1.92627 15.4185ZM 9.93164 13.6533L 10.4736 8.33594L 15.9375 8.33594L 15.9375 9.58838L 11.6235 9.58838L 11.3013 12.4961C 11.8237 12.1885 12.417 12.0347 13.0811 12.0347C 14.0527 12.0347 14.8242 12.3569 15.3955 13.0015C 15.9668 13.6411 16.2524 14.5078 16.2524 15.6016C 16.2524 16.7002 15.9546 17.5669 15.3589 18.2017C 14.7681 18.8315 13.9404 19.1465 12.876 19.1465C 11.9336 19.1465 11.1646 18.8853 10.5688 18.3628C 9.97314 17.8403 9.63379 17.1177 9.55078 16.1948L 10.8325 16.1948C 10.9155 16.8052 11.1328 17.2666 11.4844 17.5791C 11.8359 17.8867 12.2998 18.0405 12.876 18.0405C 13.5059 18.0405 13.999 17.8257 14.3555 17.396C 14.7168 16.9663 14.8975 16.373 14.8975 15.6162C 14.8975 14.9033 14.7021 14.332 14.3115 13.9023C 13.9258 13.4678 13.4106 13.2505 12.7661 13.2505C 12.1753 13.2505 11.7114 13.3799 11.3745 13.6387L 11.0156 13.9316L 9.93164 13.6533ZM 23.0493 8.32861L 23.0493 9.47852L 22.8003 9.47852C 21.7456 9.49805 20.9058 9.81055 20.2808 10.416C 19.6558 11.0215 19.2944 11.8735 19.1968 12.9722C 19.7583 12.3276 20.5249 12.0054 21.4966 12.0054C 22.4243 12.0054 23.1641 12.3325 23.7158 12.9868C 24.2725 13.6411 24.5508 14.4858 24.5508 15.521C 24.5508 16.6196 24.2505 17.4985 23.6499 18.1577C 23.0542 18.8169 22.2534 19.1465 21.2476 19.1465C 20.2271 19.1465 19.3994 18.7559 18.7646 17.9746C 18.1299 17.1885 17.8125 16.1777 17.8125 14.9424L 17.8125 14.4224C 17.8125 12.4595 18.23 10.9604 19.0649 9.92529C 19.9048 8.88525 21.1523 8.35303 22.8076 8.32861L 23.0493 8.32861ZM 21.2695 13.1333C 20.8057 13.1333 20.3784 13.2725 19.9878 13.5508C 19.5972 13.8291 19.3262 14.1782 19.1748 14.5981L 19.1748 15.0962C 19.1748 15.9751 19.3726 16.6831 19.7681 17.2202C 20.1636 17.7573 20.6567 18.0259 21.2476 18.0259C 21.8579 18.0259 22.3364 17.8013 22.6831 17.3521C 23.0347 16.9028 23.2104 16.3145 23.2104 15.5869C 23.2104 14.8545 23.0322 14.2637 22.6758 13.8145C 22.3242 13.3604 21.8555 13.1333 21.2695 13.1333Z"/>
<path id="path14_fill" d="M 1.50879 13.6533L 2.05078 8.33594L 7.51465 8.33594L 7.51465 9.58838L 3.20068 9.58838L 2.87842 12.4961C 3.40088 12.1885 3.99414 12.0347 4.6582 12.0347C 5.62988 12.0347 6.40137 12.3569 6.97266 13.0015C 7.54395 13.6411 7.82959 14.5078 7.82959 15.6016C 7.82959 16.7002 7.53174 17.5669 6.93604 18.2017C 6.34521 18.8315 5.51758 19.1465 4.45312 19.1465C 3.51074 19.1465 2.7417 18.8853 2.146 18.3628C 1.55029 17.8403 1.21094 17.1177 1.12793 16.1948L 2.40967 16.1948C 2.49268 16.8052 2.70996 17.2666 3.06152 17.5791C 3.41309 17.8867 3.87695 18.0405 4.45312 18.0405C 5.08301 18.0405 5.57617 17.8257 5.93262 17.396C 6.29395 16.9663 6.47461 16.373 6.47461 15.6162C 6.47461 14.9033 6.2793 14.332 5.88867 13.9023C 5.50293 13.4678 4.98779 13.2505 4.34326 13.2505C 3.75244 13.2505 3.28857 13.3799 2.95166 13.6387L 2.59277 13.9316L 1.50879 13.6533ZM 15.0293 15.4185L 16.5088 15.4185L 16.5088 16.5244L 15.0293 16.5244L 15.0293 19L 13.667 19L 13.667 16.5244L 8.81104 16.5244L 8.81104 15.7261L 13.5864 8.33594L 15.0293 8.33594L 15.0293 15.4185ZM 10.3491 15.4185L 13.667 15.4185L 13.667 10.189L 13.5059 10.4819L 10.3491 15.4185ZM 18.3545 13.6533L 18.8965 8.33594L 24.3604 8.33594L 24.3604 9.58838L 20.0464 9.58838L 19.7241 12.4961C 20.2466 12.1885 20.8398 12.0347 21.5039 12.0347C 22.4756 12.0347 23.2471 12.3569 23.8184 13.0015C 24.3896 13.6411 24.6753 14.5078 24.6753 15.6016C 24.6753 16.7002 24.3774 17.5669 23.7817 18.2017C 23.1909 18.8315 22.3633 19.1465 21.2988 19.1465C 20.3564 19.1465 19.5874 18.8853 18.9917 18.3628C 18.396 17.8403 18.0566 17.1177 17.9736 16.1948L 19.2554 16.1948C 19.3384 16.8052 19.5557 17.2666 19.9072 17.5791C 20.2588 17.8867 20.7227 18.0405 21.2988 18.0405C 21.9287 18.0405 22.4219 17.8257 22.7783 17.396C 23.1396 16.9663 23.3203 16.373 23.3203 15.6162C 23.3203 14.9033 23.125 14.332 22.7344 13.9023C 22.3486 13.4678 21.8335 13.2505 21.189 13.2505C 20.5981 13.2505 20.1343 13.3799 19.7974 13.6387L 19.4385 13.9316L 18.3545 13.6533Z"/>
<path id="path15_fill" fill-rule="evenodd" d="M 0 4C 0 1.79086 1.79086 0 4 0L 156 0C 158.209 0 160 1.79086 160 4L 160 32C 160 34.2091 158.209 36 156 36L 4 36C 1.79086 36 0 34.2091 0 32L 0 4Z"/>
<path id="path16_fill" fill-rule="evenodd" d="M 0 4C 0 1.79086 1.79086 0 4 0L 80 0L 80 36L 4 36C 1.79086 36 0 34.2091 0 32L 0 4Z"/>
<path id="path17_fill" d="M 8.57812 17.0078L 10.2031 10.5469L 11.6484 10.5469L 9.1875 19L 8.01562 19L 5.96094 12.5938L 3.96094 19L 2.78906 19L 0.335938 10.5469L 1.77344 10.5469L 3.4375 16.875L 5.40625 10.5469L 6.57031 10.5469L 8.57812 17.0078ZM 16.6328 19.1562C 15.487 19.1562 14.5547 18.7812 13.8359 18.0312C 13.1172 17.276 12.7578 16.2682 12.7578 15.0078L 12.7578 14.7422C 12.7578 13.9036 12.9167 13.1562 13.2344 12.5C 13.5573 11.8385 14.0052 11.3229 14.5781 10.9531C 15.1562 10.5781 15.7812 10.3906 16.4531 10.3906C 17.5521 10.3906 18.4062 10.7526 19.0156 11.4766C 19.625 12.2005 19.9297 13.237 19.9297 14.5859L 19.9297 15.1875L 14.2031 15.1875C 14.224 16.0208 14.4661 16.6953 14.9297 17.2109C 15.3984 17.7214 15.9922 17.9766 16.7109 17.9766C 17.2214 17.9766 17.6536 17.8724 18.0078 17.6641C 18.362 17.4557 18.6719 17.1797 18.9375 16.8359L 19.8203 17.5234C 19.112 18.612 18.0495 19.1562 16.6328 19.1562ZM 16.4531 11.5781C 15.8698 11.5781 15.3802 11.7917 14.9844 12.2188C 14.5885 12.6406 14.3438 13.2344 14.25 14L 18.4844 14L 18.4844 13.8906C 18.4427 13.1562 18.2448 12.5885 17.8906 12.1875C 17.5365 11.7812 17.0573 11.5781 16.4531 11.5781ZM 25.1172 19.1562C 23.9714 19.1562 23.0391 18.7812 22.3203 18.0312C 21.6016 17.276 21.2422 16.2682 21.2422 15.0078L 21.2422 14.7422C 21.2422 13.9036 21.401 13.1562 21.7188 12.5C 22.0417 11.8385 22.4896 11.3229 23.0625 10.9531C 23.6406 10.5781 24.2656 10.3906 24.9375 10.3906C 26.0365 10.3906 26.8906 10.7526 27.5 11.4766C 28.1094 12.2005 28.4141 13.237 28.4141 14.5859L 28.4141 15.1875L 22.6875 15.1875C 22.7083 16.0208 22.9505 16.6953 23.4141 17.2109C 23.8828 17.7214 24.4766 17.9766 25.1953 17.9766C 25.7057 17.9766 26.138 17.8724 26.4922 17.6641C 26.8464 17.4557 27.1562 17.1797 27.4219 16.8359L 28.3047 17.5234C 27.5964 18.612 26.5339 19.1562 25.1172 19.1562ZM 24.9375 11.5781C 24.3542 11.5781 23.8646 11.7917 23.4688 12.2188C 23.0729 12.6406 22.8281 13.2344 22.7344 14L 26.9688 14L 26.9688 13.8906C 26.9271 13.1562 26.7292 12.5885 26.375 12.1875C 26.0208 11.7812 25.5417 11.5781 24.9375 11.5781ZM 32.4531 15.0859L 31.5469 16.0312L 31.5469 19L 30.1016 19L 30.1016 7L 31.5469 7L 31.5469 14.2578L 32.3203 13.3281L 34.9531 10.5469L 36.7109 10.5469L 33.4219 14.0781L 37.0938 19L 35.3984 19L 32.4531 15.0859Z"/>
<path id="path18_fill" d="M 0.742188 14.7031C 0.742188 13.4062 1.04948 12.3646 1.66406 11.5781C 2.27865 10.7865 3.08333 10.3906 4.07812 10.3906C 5.06771 10.3906 5.85156 10.7292 6.42969 11.4062L 6.42969 7L 7.875 7L 7.875 19L 6.54688 19L 6.47656 18.0938C 5.89844 18.8021 5.09375 19.1562 4.0625 19.1562C 3.08333 19.1562 2.28385 18.7552 1.66406 17.9531C 1.04948 17.151 0.742188 16.1042 0.742188 14.8125L 0.742188 14.7031ZM 2.1875 14.8672C 2.1875 15.8255 2.38542 16.5755 2.78125 17.1172C 3.17708 17.6589 3.72396 17.9297 4.42188 17.9297C 5.33854 17.9297 6.00781 17.5182 6.42969 16.6953L 6.42969 12.8125C 5.9974 12.0156 5.33333 11.6172 4.4375 11.6172C 3.72917 11.6172 3.17708 11.8906 2.78125 12.4375C 2.38542 12.9844 2.1875 13.7943 2.1875 14.8672ZM 15.3438 19C 15.2604 18.8333 15.1927 18.5365 15.1406 18.1094C 14.4688 18.8073 13.6667 19.1562 12.7344 19.1562C 11.901 19.1562 11.2161 18.9219 10.6797 18.4531C 10.1484 17.9792 9.88281 17.3802 9.88281 16.6562C 9.88281 15.776 10.2161 15.0938 10.8828 14.6094C 11.5547 14.1198 12.4974 13.875 13.7109 13.875L 15.1172 13.875L 15.1172 13.2109C 15.1172 12.7057 14.9661 12.3047 14.6641 12.0078C 14.362 11.7057 13.9167 11.5547 13.3281 11.5547C 12.8125 11.5547 12.3802 11.6849 12.0312 11.9453C 11.6823 12.2057 11.5078 12.5208 11.5078 12.8906L 10.0547 12.8906C 10.0547 12.4688 10.2031 12.0625 10.5 11.6719C 10.8021 11.276 11.2083 10.9635 11.7188 10.7344C 12.2344 10.5052 12.7995 10.3906 13.4141 10.3906C 14.388 10.3906 15.151 10.6354 15.7031 11.125C 16.2552 11.6094 16.5417 12.2786 16.5625 13.1328L 16.5625 17.0234C 16.5625 17.7995 16.6615 18.4167 16.8594 18.875L 16.8594 19L 15.3438 19ZM 12.9453 17.8984C 13.3984 17.8984 13.8281 17.7812 14.2344 17.5469C 14.6406 17.3125 14.9349 17.0078 15.1172 16.6328L 15.1172 14.8984L 13.9844 14.8984C 12.2135 14.8984 11.3281 15.4167 11.3281 16.4531C 11.3281 16.9062 11.4792 17.2604 11.7812 17.5156C 12.0833 17.7708 12.4714 17.8984 12.9453 17.8984ZM 21.4688 16.8828L 23.4375 10.5469L 24.9844 10.5469L 21.5859 20.3047C 21.0599 21.7109 20.224 22.4141 19.0781 22.4141L 18.8047 22.3906L 18.2656 22.2891L 18.2656 21.1172L 18.6562 21.1484C 19.1458 21.1484 19.526 21.0495 19.7969 20.8516C 20.0729 20.6536 20.2995 20.2917 20.4766 19.7656L 20.7969 18.9062L 17.7812 10.5469L 19.3594 10.5469L 21.4688 16.8828Z"/>
</defs>
</svg>
