<svg width="350" height="307" viewBox="0 0 350 307" version="1.1" xmlns="http://www.w3.org/2000/svg" xmlns:xlink="http://www.w3.org/1999/xlink">
<title>Group</title>
<desc>Created using Figma</desc>
<g id="Canvas" transform="translate(-3810 -11172)">
<g id="Group">
<g id="input field copy 22">
<use xlink:href="#path0_fill" transform="translate(3810 11172)" fill="#FFFFFF"/>
<mask id="mask0_outline_ins">
<use xlink:href="#path0_fill" fill="white" transform="translate(3810 11172)"/>
</mask>
<g mask="url(#mask0_outline_ins)">
<use xlink:href="#path1_stroke_2x" transform="translate(3810 11172)" fill="#E0E6ED"/>
</g>
</g>
<g id="Fill 1">
<mask id="mask1_outline_ins">
<use xlink:href="#path2_fill" fill="white" transform="translate(3824 11189)"/>
</mask>
<g mask="url(#mask1_outline_ins)">
<use xlink:href="#path3_stroke_2x" transform="translate(3824 11189)" fill="#818FA4"/>
</g>
</g>
<g id="input field copy 20">
<use xlink:href="#path4_fill" transform="translate(3810 11219)" fill="#FFFFFF"/>
</g>
<g id="Icon : thick-check Copy 2">
<g id="Stroke 23">
<use xlink:href="#path5_stroke" transform="translate(4122.01 11245.3)" fill="#71A2EA"/>
</g>
<g id="Stroke 25">
<use xlink:href="#path6_stroke" transform="translate(4127.01 11240)" fill="#71A2EA"/>
</g>
</g>
<g id="Icon : thick-check Copy 3">
<g id="Stroke 23">
<use xlink:href="#path5_stroke" transform="translate(4122.01 11295.3)" fill="#71A2EA"/>
</g>
<g id="Stroke 25">
<use xlink:href="#path6_stroke" transform="translate(4127.01 11290)" fill="#71A2EA"/>
</g>
</g>
<g id="Built in">
<use xlink:href="#path7_fill" transform="translate(3849 11183)" fill="#34495E"/>
</g>
<g id="2016 and younger">
<use xlink:href="#path8_fill" transform="translate(3833 11234)" fill="#34495E"/>
</g>
<g id="2013 to 2015">
<use xlink:href="#path9_fill" transform="translate(3833 11285)" fill="#34495E"/>
</g>
<g id="2010 to 2012">
<use xlink:href="#path10_fill" transform="translate(3833 11338)" fill="#34495E"/>
</g>
<g id="2007 to 2009">
<use xlink:href="#path11_fill" transform="translate(3833 11389)" fill="#34495E"/>
</g>
<g id="2006 and before">
<use xlink:href="#path12_fill" transform="translate(3833 11441)" fill="#34495E"/>
</g>
<g id="Rectangle 9 Copy 5" opacity="0.4">
<use xlink:href="#path13_fill" transform="translate(3830 11269)" fill="#D8D8D8"/>
</g>
<g id="Rectangle 9 Copy 4" opacity="0.4">
<use xlink:href="#path13_fill" transform="translate(3830 11320)" fill="#D8D8D8"/>
</g>
<g id="Rectangle 9 Copy 3" opacity="0.4">
<use xlink:href="#path13_fill" transform="translate(3830 11372)" fill="#D8D8D8"/>
</g>
<g id="Rectangle 9 Copy 6" opacity="0.4">
<use xlink:href="#path13_fill" transform="translate(3830 11424)" fill="#D8D8D8"/>
</g>
<g id="Triangle Copy">
<use xlink:href="#path14_fill" transform="matrix(-1 -1.22465e-16 -1.22465e-16 1 4139 11195)" fill="#34495E"/>
</g>
</g>
</g>
<defs>
<path id="path0_fill" fill-rule="evenodd" d="M 0 4C 0 1.79086 1.79086 0 4 0L 346 0C 348.209 0 350 1.79086 350 4L 350 48L 0 48L 0 4Z"/>
<path id="path1_stroke_2x" d="M 350 48L 350 49L 351 49L 351 48L 350 48ZM 0 48L -1 48L -1 49L 0 49L 0 48ZM 4 1L 346 1L 346 -1L 4 -1L 4 1ZM 349 4L 349 48L 351 48L 351 4L 349 4ZM 350 47L 0 47L 0 49L 350 49L 350 47ZM 1 48L 1 4L -1 4L -1 48L 1 48ZM 4 -1C 1.23858 -1 -1 1.23858 -1 4L 1 4C 1 2.34315 2.34315 1 4 1L 4 -1ZM 346 1C 347.657 1 349 2.34315 349 4L 351 4C 351 1.23858 348.761 -1 346 -1L 346 1Z"/>
<path id="path2_fill" fill-rule="evenodd" d="M 14.695 10.5968L 11.7473 6L 14.7219 1.35938C 14.7823 1.26562 14.785 1.14975 14.7312 1.0545C 14.6769 0.959625 14.5735 0.89925 14.4623 0.89925L 0.616154 0.89925L 0.616154 0.300375C 0.616154 0.134625 0.477692 0 0.308077 0C 0.138077 0 0 0.134625 0 0.300375L 0 17.6996C 0 17.8654 0.138077 18 0.308077 18C 0.477692 18 0.616154 17.8654 0.616154 17.6996L 0.616154 11.1007L 14.4623 11.1007C 14.4635 11.1007 14.4665 11.1007 14.4681 11.1007C 14.6381 11.1007 14.7746 10.9657 14.7746 10.8004C 14.7746 10.7212 14.7446 10.6508 14.695 10.5968Z"/>
<path id="path3_stroke_2x" d="M 14.695 10.5968L 13.8532 11.1366L 13.9 11.2095L 13.9586 11.2733L 14.695 10.5968ZM 11.7473 6L 10.9054 5.46035L 10.5594 6.00011L 10.9055 6.5398L 11.7473 6ZM 14.7219 1.35938L 13.8812 0.817875L 13.88 0.819727L 14.7219 1.35938ZM 14.7312 1.0545L 15.6017 0.562373L 15.5993 0.558247L 14.7312 1.0545ZM 0.616154 0.89925L -0.383846 0.89925L -0.383846 1.89925L 0.616154 1.89925L 0.616154 0.89925ZM 0.616154 11.1007L 0.616154 10.1007L -0.383846 10.1007L -0.383846 11.1007L 0.616154 11.1007ZM 15.5368 10.0569L 12.5891 5.4602L 10.9055 6.5398L 13.8532 11.1366L 15.5368 10.0569ZM 12.5892 6.53965L 15.5638 1.89902L 13.88 0.819727L 10.9054 5.46035L 12.5892 6.53965ZM 15.5626 1.90087C 15.8246 1.49418 15.8379 0.980268 15.6017 0.562379L 13.8606 1.54662C 13.7321 1.31923 13.74 1.03707 13.8812 0.817877L 15.5626 1.90087ZM 15.5993 0.558247C 15.3664 0.150785 14.931 -0.10075 14.4623 -0.10075L 14.4623 1.89925C 14.2159 1.89925 13.9874 1.76846 13.863 1.55075L 15.5993 0.558247ZM 14.4623 -0.10075L 0.616154 -0.10075L 0.616154 1.89925L 14.4623 1.89925L 14.4623 -0.10075ZM 1.61615 0.89925L 1.61615 0.300375L -0.383846 0.300375L -0.383846 0.89925L 1.61615 0.89925ZM 1.61615 0.300375C 1.61615 -0.442177 1.00514 -1 0.308077 -1L 0.308077 1C -0.0497523 1 -0.383846 0.711427 -0.383846 0.300375L 1.61615 0.300375ZM 0.308077 -1C -0.39019 -1 -1 -0.441375 -1 0.300375L 1 0.300375C 1 0.710625 0.666344 1 0.308077 1L 0.308077 -1ZM -1 0.300375L -1 17.6996L 1 17.6996L 1 0.300375L -1 0.300375ZM -1 17.6996C -1 18.4414 -0.39019 19 0.308077 19L 0.308077 17C 0.666344 17 1 17.2894 1 17.6996L -1 17.6996ZM 0.308077 19C 1.00514 19 1.61615 18.4422 1.61615 17.6996L -0.383846 17.6996C -0.383846 17.2886 -0.0497522 17 0.308077 17L 0.308077 19ZM 1.61615 17.6996L 1.61615 11.1007L -0.383846 11.1007L -0.383846 17.6996L 1.61615 17.6996ZM 0.616154 12.1007L 14.4623 12.1007L 14.4623 10.1007L 0.616154 10.1007L 0.616154 12.1007ZM 14.4623 12.1007C 14.4635 12.1007 14.4665 12.1007 14.4681 12.1007L 14.4681 10.1007C 14.4665 10.1007 14.4635 10.1007 14.4623 10.1007L 14.4623 12.1007ZM 14.4681 12.1007C 15.1738 12.1007 15.7746 11.5345 15.7746 10.8004L 13.7746 10.8004C 13.7746 10.397 14.1024 10.1007 14.4681 10.1007L 14.4681 12.1007ZM 15.7746 10.8004C 15.7544 10.5214 15.585 10.1088 15.4314 9.92017L 13.9586 11.2733C 13.8474 11.1522 13.7746 10.9844 13.7746 10.8004L 15.7746 10.8004Z"/>
<path id="path4_fill" fill-rule="evenodd" d="M 0 0L 350 0L 350 256C 350 258.209 348.209 260 346 260L 4 260C 1.79086 260 0 258.209 0 256L 0 0Z"/>
<path id="path5_stroke" d="M 1.26493 -0.907078C 0.693699 -1.50707 -0.255762 -1.53039 -0.855755 -0.959162C -1.45575 -0.387934 -1.47907 0.561527 -0.907838 1.16152L 1.26493 -0.907078ZM 3.86832 6.17819C 4.43955 6.77818 5.38901 6.8015 5.989 6.23027C 6.589 5.65905 6.61231 4.70959 6.04109 4.10959L 3.86832 6.17819ZM -0.907838 1.16152L 3.86832 6.17819L 6.04109 4.10959L 1.26493 -0.907078L -0.907838 1.16152Z"/>
<path id="path6_stroke" d="M 11.0459 1.03743C 11.6188 0.43909 11.5983 -0.510434 10.9999 -1.08339C 10.4016 -1.65635 9.45206 -1.63577 8.8791 -1.03743L 11.0459 1.03743ZM -1.08339 9.36642C -1.65635 9.96476 -1.63577 10.9143 -1.03743 11.4872C -0.43909 12.0602 0.510434 12.0396 1.08339 11.4413L -1.08339 9.36642ZM 8.8791 -1.03743L -1.08339 9.36642L 1.08339 11.4413L 11.0459 1.03743L 8.8791 -1.03743Z"/>
<path id="path7_fill" d="M 1.32031 19L 1.32031 7.625L 5.03906 7.625C 6.27344 7.625 7.20052 7.88021 7.82031 8.39062C 8.44531 8.90104 8.75781 9.65625 8.75781 10.6562C 8.75781 11.1875 8.60677 11.6589 8.30469 12.0703C 8.0026 12.4766 7.59115 12.7917 7.07031 13.0156C 7.6849 13.1875 8.16927 13.5156 8.52344 14C 8.88281 14.4792 9.0625 15.0521 9.0625 15.7188C 9.0625 16.7396 8.73177 17.5417 8.07031 18.125C 7.40885 18.7083 6.47396 19 5.26562 19L 1.32031 19ZM 2.82031 13.6797L 2.82031 17.7734L 5.29688 17.7734C 5.99479 17.7734 6.54427 17.5938 6.94531 17.2344C 7.35156 16.8698 7.55469 16.3698 7.55469 15.7344C 7.55469 14.3646 6.8099 13.6797 5.32031 13.6797L 2.82031 13.6797ZM 2.82031 12.4766L 5.08594 12.4766C 5.74219 12.4766 6.26562 12.3125 6.65625 11.9844C 7.05208 11.6562 7.25 11.2109 7.25 10.6484C 7.25 10.0234 7.06771 9.57031 6.70312 9.28906C 6.33854 9.0026 5.78385 8.85938 5.03906 8.85938L 2.82031 8.85938L 2.82031 12.4766ZM 16.2812 18.1641C 15.7188 18.8255 14.8932 19.1562 13.8047 19.1562C 12.9036 19.1562 12.2161 18.8958 11.7422 18.375C 11.2734 17.849 11.0365 17.0729 11.0312 16.0469L 11.0312 10.5469L 12.4766 10.5469L 12.4766 16.0078C 12.4766 17.2891 12.9974 17.9297 14.0391 17.9297C 15.1432 17.9297 15.8776 17.5182 16.2422 16.6953L 16.2422 10.5469L 17.6875 10.5469L 17.6875 19L 16.3125 19L 16.2812 18.1641ZM 21.4609 19L 20.0156 19L 20.0156 10.5469L 21.4609 10.5469L 21.4609 19ZM 19.8984 8.30469C 19.8984 8.07031 19.9688 7.8724 20.1094 7.71094C 20.2552 7.54948 20.4688 7.46875 20.75 7.46875C 21.0312 7.46875 21.2448 7.54948 21.3906 7.71094C 21.5365 7.8724 21.6094 8.07031 21.6094 8.30469C 21.6094 8.53906 21.5365 8.73438 21.3906 8.89062C 21.2448 9.04688 21.0312 9.125 20.75 9.125C 20.4688 9.125 20.2552 9.04688 20.1094 8.89062C 19.9688 8.73438 19.8984 8.53906 19.8984 8.30469ZM 25.3516 19L 23.9062 19L 23.9062 7L 25.3516 7L 25.3516 19ZM 29.6328 8.5L 29.6328 10.5469L 31.2109 10.5469L 31.2109 11.6641L 29.6328 11.6641L 29.6328 16.9062C 29.6328 17.2448 29.7031 17.5 29.8438 17.6719C 29.9844 17.8385 30.224 17.9219 30.5625 17.9219C 30.7292 17.9219 30.9583 17.8906 31.25 17.8281L 31.25 19C 30.8698 19.1042 30.5 19.1562 30.1406 19.1562C 29.4948 19.1562 29.0078 18.9609 28.6797 18.5703C 28.3516 18.1797 28.1875 17.625 28.1875 16.9062L 28.1875 11.6641L 26.6484 11.6641L 26.6484 10.5469L 28.1875 10.5469L 28.1875 8.5L 29.6328 8.5ZM 38.4453 19L 37 19L 37 10.5469L 38.4453 10.5469L 38.4453 19ZM 36.8828 8.30469C 36.8828 8.07031 36.9531 7.8724 37.0938 7.71094C 37.2396 7.54948 37.4531 7.46875 37.7344 7.46875C 38.0156 7.46875 38.2292 7.54948 38.375 7.71094C 38.5208 7.8724 38.5938 8.07031 38.5938 8.30469C 38.5938 8.53906 38.5208 8.73438 38.375 8.89062C 38.2292 9.04688 38.0156 9.125 37.7344 9.125C 37.4531 9.125 37.2396 9.04688 37.0938 8.89062C 36.9531 8.73438 36.8828 8.53906 36.8828 8.30469ZM 42.1328 10.5469L 42.1797 11.6094C 42.8255 10.7969 43.6693 10.3906 44.7109 10.3906C 46.4974 10.3906 47.3984 11.3984 47.4141 13.4141L 47.4141 19L 45.9688 19L 45.9688 13.4062C 45.9635 12.7969 45.8229 12.3464 45.5469 12.0547C 45.276 11.763 44.8516 11.6172 44.2734 11.6172C 43.8047 11.6172 43.3932 11.7422 43.0391 11.9922C 42.6849 12.2422 42.4089 12.5703 42.2109 12.9766L 42.2109 19L 40.7656 19L 40.7656 10.5469L 42.1328 10.5469Z"/>
<path id="path8_fill" d="M 8.39844 15L 0.945312 15L 0.945312 13.9609L 4.88281 9.58594C 5.46615 8.92448 5.86719 8.38802 6.08594 7.97656C 6.3099 7.5599 6.42188 7.13021 6.42188 6.6875C 6.42188 6.09375 6.24219 5.60677 5.88281 5.22656C 5.52344 4.84635 5.04427 4.65625 4.44531 4.65625C 3.72656 4.65625 3.16667 4.86198 2.76562 5.27344C 2.36979 5.67969 2.17188 6.2474 2.17188 6.97656L 0.726562 6.97656C 0.726562 5.92969 1.0625 5.08333 1.73438 4.4375C 2.41146 3.79167 3.3151 3.46875 4.44531 3.46875C 5.5026 3.46875 6.33854 3.7474 6.95312 4.30469C 7.56771 4.85677 7.875 5.59375 7.875 6.51562C 7.875 7.63542 7.16146 8.96875 5.73438 10.5156L 2.6875 13.8203L 8.39844 13.8203L 8.39844 15ZM 17.0625 10.1484C 17.0625 11.8411 16.7734 13.099 16.1953 13.9219C 15.6172 14.7448 14.7135 15.1562 13.4844 15.1562C 12.2708 15.1562 11.3724 14.7552 10.7891 13.9531C 10.2057 13.1458 9.90365 11.9427 9.88281 10.3438L 9.88281 8.41406C 9.88281 6.74219 10.1719 5.5 10.75 4.6875C 11.3281 3.875 12.2344 3.46875 13.4688 3.46875C 14.6927 3.46875 15.5938 3.86198 16.1719 4.64844C 16.75 5.42969 17.0469 6.63802 17.0625 8.27344L 17.0625 10.1484ZM 15.6172 8.17188C 15.6172 6.94792 15.4453 6.05729 15.1016 5.5C 14.7578 4.9375 14.2135 4.65625 13.4688 4.65625C 12.7292 4.65625 12.1901 4.9349 11.8516 5.49219C 11.513 6.04948 11.3385 6.90625 11.3281 8.0625L 11.3281 10.375C 11.3281 11.6042 11.5052 12.513 11.8594 13.1016C 12.2188 13.6849 12.7604 13.9766 13.4844 13.9766C 14.1979 13.9766 14.7266 13.7005 15.0703 13.1484C 15.4193 12.5964 15.6016 11.7266 15.6172 10.5391L 15.6172 8.17188ZM 23.6641 15L 22.2109 15L 22.2109 5.36719L 19.2969 6.4375L 19.2969 5.125L 23.4375 3.57031L 23.6641 3.57031L 23.6641 15ZM 33.5703 3.61719L 33.5703 4.84375L 33.3047 4.84375C 32.1797 4.86458 31.2839 5.19792 30.6172 5.84375C 29.9505 6.48958 29.5651 7.39844 29.4609 8.57031C 30.0599 7.88281 30.8776 7.53906 31.9141 7.53906C 32.9036 7.53906 33.6927 7.88802 34.2812 8.58594C 34.875 9.28385 35.1719 10.1849 35.1719 11.2891C 35.1719 12.4609 34.8516 13.3984 34.2109 14.1016C 33.5755 14.8047 32.7214 15.1562 31.6484 15.1562C 30.5599 15.1562 29.6771 14.7396 29 13.9062C 28.3229 13.0677 27.9844 11.9896 27.9844 10.6719L 27.9844 10.1172C 27.9844 8.02344 28.4297 6.42448 29.3203 5.32031C 30.2161 4.21094 31.5469 3.64323 33.3125 3.61719L 33.5703 3.61719ZM 31.6719 8.74219C 31.1771 8.74219 30.7214 8.89062 30.3047 9.1875C 29.888 9.48438 29.599 9.85677 29.4375 10.3047L 29.4375 10.8359C 29.4375 11.7734 29.6484 12.5286 30.0703 13.1016C 30.4922 13.6745 31.0182 13.9609 31.6484 13.9609C 32.2995 13.9609 32.8099 13.7214 33.1797 13.2422C 33.5547 12.763 33.7422 12.1354 33.7422 11.3594C 33.7422 10.5781 33.5521 9.94792 33.1719 9.46875C 32.7969 8.98438 32.2969 8.74219 31.6719 8.74219ZM 46.2188 15C 46.1354 14.8333 46.0677 14.5365 46.0156 14.1094C 45.3438 14.8073 44.5417 15.1562 43.6094 15.1562C 42.776 15.1562 42.0911 14.9219 41.5547 14.4531C 41.0234 13.9792 40.7578 13.3802 40.7578 12.6562C 40.7578 11.776 41.0911 11.0938 41.7578 10.6094C 42.4297 10.1198 43.3724 9.875 44.5859 9.875L 45.9922 9.875L 45.9922 9.21094C 45.9922 8.70573 45.8411 8.30469 45.5391 8.00781C 45.237 7.70573 44.7917 7.55469 44.2031 7.55469C 43.6875 7.55469 43.2552 7.6849 42.9062 7.94531C 42.5573 8.20573 42.3828 8.52083 42.3828 8.89062L 40.9297 8.89062C 40.9297 8.46875 41.0781 8.0625 41.375 7.67188C 41.6771 7.27604 42.0833 6.96354 42.5938 6.73438C 43.1094 6.50521 43.6745 6.39062 44.2891 6.39062C 45.263 6.39062 46.026 6.63542 46.5781 7.125C 47.1302 7.60938 47.4167 8.27865 47.4375 9.13281L 47.4375 13.0234C 47.4375 13.7995 47.5365 14.4167 47.7344 14.875L 47.7344 15L 46.2188 15ZM 43.8203 13.8984C 44.2734 13.8984 44.7031 13.7812 45.1094 13.5469C 45.5156 13.3125 45.8099 13.0078 45.9922 12.6328L 45.9922 10.8984L 44.8594 10.8984C 43.0885 10.8984 42.2031 11.4167 42.2031 12.4531C 42.2031 12.9062 42.3542 13.2604 42.6562 13.5156C 42.9583 13.7708 43.3464 13.8984 43.8203 13.8984ZM 51.0703 6.54688L 51.1172 7.60938C 51.763 6.79688 52.6068 6.39062 53.6484 6.39062C 55.4349 6.39062 56.3359 7.39844 56.3516 9.41406L 56.3516 15L 54.9062 15L 54.9062 9.40625C 54.901 8.79688 54.7604 8.34635 54.4844 8.05469C 54.2135 7.76302 53.7891 7.61719 53.2109 7.61719C 52.7422 7.61719 52.3307 7.74219 51.9766 7.99219C 51.6224 8.24219 51.3464 8.57031 51.1484 8.97656L 51.1484 15L 49.7031 15L 49.7031 6.54688L 51.0703 6.54688ZM 58.1797 10.7031C 58.1797 9.40625 58.487 8.36458 59.1016 7.57812C 59.7161 6.78646 60.5208 6.39062 61.5156 6.39062C 62.5052 6.39062 63.2891 6.72917 63.8672 7.40625L 63.8672 3L 65.3125 3L 65.3125 15L 63.9844 15L 63.9141 14.0938C 63.3359 14.8021 62.5312 15.1562 61.5 15.1562C 60.5208 15.1562 59.7214 14.7552 59.1016 13.9531C 58.487 13.151 58.1797 12.1042 58.1797 10.8125L 58.1797 10.7031ZM 59.625 10.8672C 59.625 11.8255 59.8229 12.5755 60.2188 13.1172C 60.6146 13.6589 61.1615 13.9297 61.8594 13.9297C 62.776 13.9297 63.4453 13.5182 63.8672 12.6953L 63.8672 8.8125C 63.4349 8.01562 62.7708 7.61719 61.875 7.61719C 61.1667 7.61719 60.6146 7.89062 60.2188 8.4375C 59.8229 8.98438 59.625 9.79427 59.625 10.8672ZM 74.2969 12.8828L 76.2656 6.54688L 77.8125 6.54688L 74.4141 16.3047C 73.888 17.7109 73.0521 18.4141 71.9062 18.4141L 71.6328 18.3906L 71.0938 18.2891L 71.0938 17.1172L 71.4844 17.1484C 71.974 17.1484 72.3542 17.0495 72.625 16.8516C 72.901 16.6536 73.1276 16.2917 73.3047 15.7656L 73.625 14.9062L 70.6094 6.54688L 72.1875 6.54688L 74.2969 12.8828ZM 78.6016 10.6953C 78.6016 9.86719 78.763 9.1224 79.0859 8.46094C 79.4141 7.79948 79.8672 7.28906 80.4453 6.92969C 81.0286 6.57031 81.6927 6.39062 82.4375 6.39062C 83.5885 6.39062 84.5182 6.78906 85.2266 7.58594C 85.9401 8.38281 86.2969 9.44271 86.2969 10.7656L 86.2969 10.8672C 86.2969 11.6901 86.138 12.4297 85.8203 13.0859C 85.5078 13.737 85.0573 14.2448 84.4688 14.6094C 83.8854 14.974 83.2135 15.1562 82.4531 15.1562C 81.3073 15.1562 80.3776 14.7578 79.6641 13.9609C 78.9557 13.1641 78.6016 12.1094 78.6016 10.7969L 78.6016 10.6953ZM 80.0547 10.8672C 80.0547 11.8047 80.2708 12.5573 80.7031 13.125C 81.1406 13.6927 81.724 13.9766 82.4531 13.9766C 83.1875 13.9766 83.7708 13.6901 84.2031 13.1172C 84.6354 12.5391 84.8516 11.7318 84.8516 10.6953C 84.8516 9.76823 84.6302 9.01823 84.1875 8.44531C 83.75 7.86719 83.1667 7.57812 82.4375 7.57812C 81.724 7.57812 81.1484 7.86198 80.7109 8.42969C 80.2734 8.9974 80.0547 9.8099 80.0547 10.8672ZM 93.3281 14.1641C 92.7656 14.8255 91.9401 15.1562 90.8516 15.1562C 89.9505 15.1562 89.263 14.8958 88.7891 14.375C 88.3203 13.849 88.0833 13.0729 88.0781 12.0469L 88.0781 6.54688L 89.5234 6.54688L 89.5234 12.0078C 89.5234 13.2891 90.0443 13.9297 91.0859 13.9297C 92.1901 13.9297 92.9245 13.5182 93.2891 12.6953L 93.2891 6.54688L 94.7344 6.54688L 94.7344 15L 93.3594 15L 93.3281 14.1641ZM 98.3047 6.54688L 98.3516 7.60938C 98.9974 6.79688 99.8411 6.39062 100.883 6.39062C 102.669 6.39062 103.57 7.39844 103.586 9.41406L 103.586 15L 102.141 15L 102.141 9.40625C 102.135 8.79688 101.995 8.34635 101.719 8.05469C 101.448 7.76302 101.023 7.61719 100.445 7.61719C 99.9766 7.61719 99.5651 7.74219 99.2109 7.99219C 98.8568 8.24219 98.5807 8.57031 98.3828 8.97656L 98.3828 15L 96.9375 15L 96.9375 6.54688L 98.3047 6.54688ZM 105.422 10.7031C 105.422 9.38542 105.727 8.33854 106.336 7.5625C 106.945 6.78125 107.753 6.39062 108.758 6.39062C 109.789 6.39062 110.594 6.75521 111.172 7.48438L 111.242 6.54688L 112.562 6.54688L 112.562 14.7969C 112.562 15.8906 112.237 16.7526 111.586 17.3828C 110.94 18.013 110.07 18.3281 108.977 18.3281C 108.367 18.3281 107.771 18.1979 107.188 17.9375C 106.604 17.6771 106.159 17.3203 105.852 16.8672L 106.602 16C 107.221 16.7656 107.979 17.1484 108.875 17.1484C 109.578 17.1484 110.125 16.9505 110.516 16.5547C 110.911 16.1589 111.109 15.6016 111.109 14.8828L 111.109 14.1562C 110.531 14.8229 109.742 15.1562 108.742 15.1562C 107.753 15.1562 106.951 14.7578 106.336 13.9609C 105.727 13.1641 105.422 12.0781 105.422 10.7031ZM 106.875 10.8672C 106.875 11.8203 107.07 12.5703 107.461 13.1172C 107.852 13.6589 108.398 13.9297 109.102 13.9297C 110.013 13.9297 110.682 13.5156 111.109 12.6875L 111.109 8.82812C 110.667 8.02083 110.003 7.61719 109.117 7.61719C 108.414 7.61719 107.865 7.89062 107.469 8.4375C 107.073 8.98438 106.875 9.79427 106.875 10.8672ZM 118.258 15.1562C 117.112 15.1562 116.18 14.7812 115.461 14.0312C 114.742 13.276 114.383 12.2682 114.383 11.0078L 114.383 10.7422C 114.383 9.90365 114.542 9.15625 114.859 8.5C 115.182 7.83854 115.63 7.32292 116.203 6.95312C 116.781 6.57812 117.406 6.39062 118.078 6.39062C 119.177 6.39062 120.031 6.7526 120.641 7.47656C 121.25 8.20052 121.555 9.23698 121.555 10.5859L 121.555 11.1875L 115.828 11.1875C 115.849 12.0208 116.091 12.6953 116.555 13.2109C 117.023 13.7214 117.617 13.9766 118.336 13.9766C 118.846 13.9766 119.279 13.8724 119.633 13.6641C 119.987 13.4557 120.297 13.1797 120.562 12.8359L 121.445 13.5234C 120.737 14.612 119.674 15.1562 118.258 15.1562ZM 118.078 7.57812C 117.495 7.57812 117.005 7.79167 116.609 8.21875C 116.214 8.64062 115.969 9.23438 115.875 10L 120.109 10L 120.109 9.89062C 120.068 9.15625 119.87 8.58854 119.516 8.1875C 119.161 7.78125 118.682 7.57812 118.078 7.57812ZM 127.32 7.84375C 127.102 7.80729 126.865 7.78906 126.609 7.78906C 125.661 7.78906 125.018 8.19271 124.68 9L 124.68 15L 123.234 15L 123.234 6.54688L 124.641 6.54688L 124.664 7.52344C 125.138 6.76823 125.81 6.39062 126.68 6.39062C 126.961 6.39062 127.174 6.42708 127.32 6.5L 127.32 7.84375Z"/>
<path id="path9_fill" d="M 8.39844 15L 0.945312 15L 0.945312 13.9609L 4.88281 9.58594C 5.46615 8.92448 5.86719 8.38802 6.08594 7.97656C 6.3099 7.5599 6.42188 7.13021 6.42188 6.6875C 6.42188 6.09375 6.24219 5.60677 5.88281 5.22656C 5.52344 4.84635 5.04427 4.65625 4.44531 4.65625C 3.72656 4.65625 3.16667 4.86198 2.76562 5.27344C 2.36979 5.67969 2.17188 6.2474 2.17188 6.97656L 0.726562 6.97656C 0.726562 5.92969 1.0625 5.08333 1.73438 4.4375C 2.41146 3.79167 3.3151 3.46875 4.44531 3.46875C 5.5026 3.46875 6.33854 3.7474 6.95312 4.30469C 7.56771 4.85677 7.875 5.59375 7.875 6.51562C 7.875 7.63542 7.16146 8.96875 5.73438 10.5156L 2.6875 13.8203L 8.39844 13.8203L 8.39844 15ZM 17.0625 10.1484C 17.0625 11.8411 16.7734 13.099 16.1953 13.9219C 15.6172 14.7448 14.7135 15.1562 13.4844 15.1562C 12.2708 15.1562 11.3724 14.7552 10.7891 13.9531C 10.2057 13.1458 9.90365 11.9427 9.88281 10.3438L 9.88281 8.41406C 9.88281 6.74219 10.1719 5.5 10.75 4.6875C 11.3281 3.875 12.2344 3.46875 13.4688 3.46875C 14.6927 3.46875 15.5938 3.86198 16.1719 4.64844C 16.75 5.42969 17.0469 6.63802 17.0625 8.27344L 17.0625 10.1484ZM 15.6172 8.17188C 15.6172 6.94792 15.4453 6.05729 15.1016 5.5C 14.7578 4.9375 14.2135 4.65625 13.4688 4.65625C 12.7292 4.65625 12.1901 4.9349 11.8516 5.49219C 11.513 6.04948 11.3385 6.90625 11.3281 8.0625L 11.3281 10.375C 11.3281 11.6042 11.5052 12.513 11.8594 13.1016C 12.2188 13.6849 12.7604 13.9766 13.4844 13.9766C 14.1979 13.9766 14.7266 13.7005 15.0703 13.1484C 15.4193 12.5964 15.6016 11.7266 15.6172 10.5391L 15.6172 8.17188ZM 23.6641 15L 22.2109 15L 22.2109 5.36719L 19.2969 6.4375L 19.2969 5.125L 23.4375 3.57031L 23.6641 3.57031L 23.6641 15ZM 30 8.60938L 31.0859 8.60938C 31.7682 8.59896 32.3047 8.41927 32.6953 8.07031C 33.0859 7.72135 33.2812 7.25 33.2812 6.65625C 33.2812 5.32292 32.6172 4.65625 31.2891 4.65625C 30.6641 4.65625 30.1641 4.83594 29.7891 5.19531C 29.4193 5.54948 29.2344 6.02083 29.2344 6.60938L 27.7891 6.60938C 27.7891 5.70833 28.1172 4.96094 28.7734 4.36719C 29.4349 3.76823 30.2734 3.46875 31.2891 3.46875C 32.362 3.46875 33.2031 3.7526 33.8125 4.32031C 34.4219 4.88802 34.7266 5.67708 34.7266 6.6875C 34.7266 7.18229 34.5651 7.66146 34.2422 8.125C 33.9245 8.58854 33.4896 8.9349 32.9375 9.16406C 33.5625 9.36198 34.0443 9.6901 34.3828 10.1484C 34.7266 10.6068 34.8984 11.1667 34.8984 11.8281C 34.8984 12.849 34.5651 13.6589 33.8984 14.2578C 33.2318 14.8568 32.3646 15.1562 31.2969 15.1562C 30.2292 15.1562 29.3594 14.8672 28.6875 14.2891C 28.0208 13.7109 27.6875 12.9479 27.6875 12L 29.1406 12C 29.1406 12.599 29.3359 13.0781 29.7266 13.4375C 30.1172 13.7969 30.6406 13.9766 31.2969 13.9766C 31.9948 13.9766 32.5286 13.7943 32.8984 13.4297C 33.2682 13.0651 33.4531 12.5417 33.4531 11.8594C 33.4531 11.1979 33.25 10.6901 32.8438 10.3359C 32.4375 9.98177 31.8516 9.79948 31.0859 9.78906L 30 9.78906L 30 8.60938ZM 42.9609 4.5L 42.9609 6.54688L 44.5391 6.54688L 44.5391 7.66406L 42.9609 7.66406L 42.9609 12.9062C 42.9609 13.2448 43.0312 13.5 43.1719 13.6719C 43.3125 13.8385 43.5521 13.9219 43.8906 13.9219C 44.0573 13.9219 44.2865 13.8906 44.5781 13.8281L 44.5781 15C 44.1979 15.1042 43.8281 15.1562 43.4688 15.1562C 42.8229 15.1562 42.3359 14.9609 42.0078 14.5703C 41.6797 14.1797 41.5156 13.625 41.5156 12.9062L 41.5156 7.66406L 39.9766 7.66406L 39.9766 6.54688L 41.5156 6.54688L 41.5156 4.5L 42.9609 4.5ZM 45.6953 10.6953C 45.6953 9.86719 45.8568 9.1224 46.1797 8.46094C 46.5078 7.79948 46.9609 7.28906 47.5391 6.92969C 48.1224 6.57031 48.7865 6.39062 49.5312 6.39062C 50.6823 6.39062 51.612 6.78906 52.3203 7.58594C 53.0339 8.38281 53.3906 9.44271 53.3906 10.7656L 53.3906 10.8672C 53.3906 11.6901 53.2318 12.4297 52.9141 13.0859C 52.6016 13.737 52.151 14.2448 51.5625 14.6094C 50.9792 14.974 50.3073 15.1562 49.5469 15.1562C 48.401 15.1562 47.4714 14.7578 46.7578 13.9609C 46.0495 13.1641 45.6953 12.1094 45.6953 10.7969L 45.6953 10.6953ZM 47.1484 10.8672C 47.1484 11.8047 47.3646 12.5573 47.7969 13.125C 48.2344 13.6927 48.8177 13.9766 49.5469 13.9766C 50.2812 13.9766 50.8646 13.6901 51.2969 13.1172C 51.7292 12.5391 51.9453 11.7318 51.9453 10.6953C 51.9453 9.76823 51.724 9.01823 51.2812 8.44531C 50.8438 7.86719 50.2604 7.57812 49.5312 7.57812C 48.8177 7.57812 48.2422 7.86198 47.8047 8.42969C 47.3672 8.9974 47.1484 9.8099 47.1484 10.8672ZM 66.4766 15L 59.0234 15L 59.0234 13.9609L 62.9609 9.58594C 63.5443 8.92448 63.9453 8.38802 64.1641 7.97656C 64.388 7.5599 64.5 7.13021 64.5 6.6875C 64.5 6.09375 64.3203 5.60677 63.9609 5.22656C 63.6016 4.84635 63.1224 4.65625 62.5234 4.65625C 61.8047 4.65625 61.2448 4.86198 60.8438 5.27344C 60.4479 5.67969 60.25 6.2474 60.25 6.97656L 58.8047 6.97656C 58.8047 5.92969 59.1406 5.08333 59.8125 4.4375C 60.4896 3.79167 61.3932 3.46875 62.5234 3.46875C 63.5807 3.46875 64.4167 3.7474 65.0312 4.30469C 65.6458 4.85677 65.9531 5.59375 65.9531 6.51562C 65.9531 7.63542 65.2396 8.96875 63.8125 10.5156L 60.7656 13.8203L 66.4766 13.8203L 66.4766 15ZM 75.1406 10.1484C 75.1406 11.8411 74.8516 13.099 74.2734 13.9219C 73.6953 14.7448 72.7917 15.1562 71.5625 15.1562C 70.349 15.1562 69.4505 14.7552 68.8672 13.9531C 68.2839 13.1458 67.9818 11.9427 67.9609 10.3438L 67.9609 8.41406C 67.9609 6.74219 68.25 5.5 68.8281 4.6875C 69.4062 3.875 70.3125 3.46875 71.5469 3.46875C 72.7708 3.46875 73.6719 3.86198 74.25 4.64844C 74.8281 5.42969 75.125 6.63802 75.1406 8.27344L 75.1406 10.1484ZM 73.6953 8.17188C 73.6953 6.94792 73.5234 6.05729 73.1797 5.5C 72.8359 4.9375 72.2917 4.65625 71.5469 4.65625C 70.8073 4.65625 70.2682 4.9349 69.9297 5.49219C 69.5911 6.04948 69.4167 6.90625 69.4062 8.0625L 69.4062 10.375C 69.4062 11.6042 69.5833 12.513 69.9375 13.1016C 70.2969 13.6849 70.8385 13.9766 71.5625 13.9766C 72.276 13.9766 72.8047 13.7005 73.1484 13.1484C 73.4974 12.5964 73.6797 11.7266 73.6953 10.5391L 73.6953 8.17188ZM 81.7422 15L 80.2891 15L 80.2891 5.36719L 77.375 6.4375L 77.375 5.125L 81.5156 3.57031L 81.7422 3.57031L 81.7422 15ZM 86.6406 9.29688L 87.2188 3.625L 93.0469 3.625L 93.0469 4.96094L 88.4453 4.96094L 88.1016 8.0625C 88.6589 7.73438 89.2917 7.57031 90 7.57031C 91.0365 7.57031 91.8594 7.91406 92.4688 8.60156C 93.0781 9.28385 93.3828 10.2083 93.3828 11.375C 93.3828 12.5469 93.0651 13.4714 92.4297 14.1484C 91.7995 14.8203 90.9167 15.1562 89.7812 15.1562C 88.776 15.1562 87.9557 14.8776 87.3203 14.3203C 86.6849 13.763 86.3229 12.9922 86.2344 12.0078L 87.6016 12.0078C 87.6901 12.6589 87.9219 13.151 88.2969 13.4844C 88.6719 13.8125 89.1667 13.9766 89.7812 13.9766C 90.4531 13.9766 90.9792 13.7474 91.3594 13.2891C 91.7448 12.8307 91.9375 12.1979 91.9375 11.3906C 91.9375 10.6302 91.7292 10.0208 91.3125 9.5625C 90.901 9.09896 90.3516 8.86719 89.6641 8.86719C 89.0339 8.86719 88.5391 9.00521 88.1797 9.28125L 87.7969 9.59375L 86.6406 9.29688Z"/>
<path id="path10_fill" d="M 8.39844 15L 0.945312 15L 0.945312 13.9609L 4.88281 9.58594C 5.46615 8.92448 5.86719 8.38802 6.08594 7.97656C 6.3099 7.5599 6.42188 7.13021 6.42188 6.6875C 6.42188 6.09375 6.24219 5.60677 5.88281 5.22656C 5.52344 4.84635 5.04427 4.65625 4.44531 4.65625C 3.72656 4.65625 3.16667 4.86198 2.76562 5.27344C 2.36979 5.67969 2.17188 6.2474 2.17188 6.97656L 0.726562 6.97656C 0.726562 5.92969 1.0625 5.08333 1.73438 4.4375C 2.41146 3.79167 3.3151 3.46875 4.44531 3.46875C 5.5026 3.46875 6.33854 3.7474 6.95312 4.30469C 7.56771 4.85677 7.875 5.59375 7.875 6.51562C 7.875 7.63542 7.16146 8.96875 5.73438 10.5156L 2.6875 13.8203L 8.39844 13.8203L 8.39844 15ZM 17.0625 10.1484C 17.0625 11.8411 16.7734 13.099 16.1953 13.9219C 15.6172 14.7448 14.7135 15.1562 13.4844 15.1562C 12.2708 15.1562 11.3724 14.7552 10.7891 13.9531C 10.2057 13.1458 9.90365 11.9427 9.88281 10.3438L 9.88281 8.41406C 9.88281 6.74219 10.1719 5.5 10.75 4.6875C 11.3281 3.875 12.2344 3.46875 13.4688 3.46875C 14.6927 3.46875 15.5938 3.86198 16.1719 4.64844C 16.75 5.42969 17.0469 6.63802 17.0625 8.27344L 17.0625 10.1484ZM 15.6172 8.17188C 15.6172 6.94792 15.4453 6.05729 15.1016 5.5C 14.7578 4.9375 14.2135 4.65625 13.4688 4.65625C 12.7292 4.65625 12.1901 4.9349 11.8516 5.49219C 11.513 6.04948 11.3385 6.90625 11.3281 8.0625L 11.3281 10.375C 11.3281 11.6042 11.5052 12.513 11.8594 13.1016C 12.2188 13.6849 12.7604 13.9766 13.4844 13.9766C 14.1979 13.9766 14.7266 13.7005 15.0703 13.1484C 15.4193 12.5964 15.6016 11.7266 15.6172 10.5391L 15.6172 8.17188ZM 23.6641 15L 22.2109 15L 22.2109 5.36719L 19.2969 6.4375L 19.2969 5.125L 23.4375 3.57031L 23.6641 3.57031L 23.6641 15ZM 35.0312 10.1484C 35.0312 11.8411 34.7422 13.099 34.1641 13.9219C 33.5859 14.7448 32.6823 15.1562 31.4531 15.1562C 30.2396 15.1562 29.3411 14.7552 28.7578 13.9531C 28.1745 13.1458 27.8724 11.9427 27.8516 10.3438L 27.8516 8.41406C 27.8516 6.74219 28.1406 5.5 28.7188 4.6875C 29.2969 3.875 30.2031 3.46875 31.4375 3.46875C 32.6615 3.46875 33.5625 3.86198 34.1406 4.64844C 34.7188 5.42969 35.0156 6.63802 35.0312 8.27344L 35.0312 10.1484ZM 33.5859 8.17188C 33.5859 6.94792 33.4141 6.05729 33.0703 5.5C 32.7266 4.9375 32.1823 4.65625 31.4375 4.65625C 30.6979 4.65625 30.1589 4.9349 29.8203 5.49219C 29.4818 6.04948 29.3073 6.90625 29.2969 8.0625L 29.2969 10.375C 29.2969 11.6042 29.474 12.513 29.8281 13.1016C 30.1875 13.6849 30.7292 13.9766 31.4531 13.9766C 32.1667 13.9766 32.6953 13.7005 33.0391 13.1484C 33.388 12.5964 33.5703 11.7266 33.5859 10.5391L 33.5859 8.17188ZM 42.9609 4.5L 42.9609 6.54688L 44.5391 6.54688L 44.5391 7.66406L 42.9609 7.66406L 42.9609 12.9062C 42.9609 13.2448 43.0312 13.5 43.1719 13.6719C 43.3125 13.8385 43.5521 13.9219 43.8906 13.9219C 44.0573 13.9219 44.2865 13.8906 44.5781 13.8281L 44.5781 15C 44.1979 15.1042 43.8281 15.1562 43.4688 15.1562C 42.8229 15.1562 42.3359 14.9609 42.0078 14.5703C 41.6797 14.1797 41.5156 13.625 41.5156 12.9062L 41.5156 7.66406L 39.9766 7.66406L 39.9766 6.54688L 41.5156 6.54688L 41.5156 4.5L 42.9609 4.5ZM 45.6953 10.6953C 45.6953 9.86719 45.8568 9.1224 46.1797 8.46094C 46.5078 7.79948 46.9609 7.28906 47.5391 6.92969C 48.1224 6.57031 48.7865 6.39062 49.5312 6.39062C 50.6823 6.39062 51.612 6.78906 52.3203 7.58594C 53.0339 8.38281 53.3906 9.44271 53.3906 10.7656L 53.3906 10.8672C 53.3906 11.6901 53.2318 12.4297 52.9141 13.0859C 52.6016 13.737 52.151 14.2448 51.5625 14.6094C 50.9792 14.974 50.3073 15.1562 49.5469 15.1562C 48.401 15.1562 47.4714 14.7578 46.7578 13.9609C 46.0495 13.1641 45.6953 12.1094 45.6953 10.7969L 45.6953 10.6953ZM 47.1484 10.8672C 47.1484 11.8047 47.3646 12.5573 47.7969 13.125C 48.2344 13.6927 48.8177 13.9766 49.5469 13.9766C 50.2812 13.9766 50.8646 13.6901 51.2969 13.1172C 51.7292 12.5391 51.9453 11.7318 51.9453 10.6953C 51.9453 9.76823 51.724 9.01823 51.2812 8.44531C 50.8438 7.86719 50.2604 7.57812 49.5312 7.57812C 48.8177 7.57812 48.2422 7.86198 47.8047 8.42969C 47.3672 8.9974 47.1484 9.8099 47.1484 10.8672ZM 66.4766 15L 59.0234 15L 59.0234 13.9609L 62.9609 9.58594C 63.5443 8.92448 63.9453 8.38802 64.1641 7.97656C 64.388 7.5599 64.5 7.13021 64.5 6.6875C 64.5 6.09375 64.3203 5.60677 63.9609 5.22656C 63.6016 4.84635 63.1224 4.65625 62.5234 4.65625C 61.8047 4.65625 61.2448 4.86198 60.8438 5.27344C 60.4479 5.67969 60.25 6.2474 60.25 6.97656L 58.8047 6.97656C 58.8047 5.92969 59.1406 5.08333 59.8125 4.4375C 60.4896 3.79167 61.3932 3.46875 62.5234 3.46875C 63.5807 3.46875 64.4167 3.7474 65.0312 4.30469C 65.6458 4.85677 65.9531 5.59375 65.9531 6.51562C 65.9531 7.63542 65.2396 8.96875 63.8125 10.5156L 60.7656 13.8203L 66.4766 13.8203L 66.4766 15ZM 75.1406 10.1484C 75.1406 11.8411 74.8516 13.099 74.2734 13.9219C 73.6953 14.7448 72.7917 15.1562 71.5625 15.1562C 70.349 15.1562 69.4505 14.7552 68.8672 13.9531C 68.2839 13.1458 67.9818 11.9427 67.9609 10.3438L 67.9609 8.41406C 67.9609 6.74219 68.25 5.5 68.8281 4.6875C 69.4062 3.875 70.3125 3.46875 71.5469 3.46875C 72.7708 3.46875 73.6719 3.86198 74.25 4.64844C 74.8281 5.42969 75.125 6.63802 75.1406 8.27344L 75.1406 10.1484ZM 73.6953 8.17188C 73.6953 6.94792 73.5234 6.05729 73.1797 5.5C 72.8359 4.9375 72.2917 4.65625 71.5469 4.65625C 70.8073 4.65625 70.2682 4.9349 69.9297 5.49219C 69.5911 6.04948 69.4167 6.90625 69.4062 8.0625L 69.4062 10.375C 69.4062 11.6042 69.5833 12.513 69.9375 13.1016C 70.2969 13.6849 70.8385 13.9766 71.5625 13.9766C 72.276 13.9766 72.8047 13.7005 73.1484 13.1484C 73.4974 12.5964 73.6797 11.7266 73.6953 10.5391L 73.6953 8.17188ZM 81.7422 15L 80.2891 15L 80.2891 5.36719L 77.375 6.4375L 77.375 5.125L 81.5156 3.57031L 81.7422 3.57031L 81.7422 15ZM 93.4297 15L 85.9766 15L 85.9766 13.9609L 89.9141 9.58594C 90.4974 8.92448 90.8984 8.38802 91.1172 7.97656C 91.3411 7.5599 91.4531 7.13021 91.4531 6.6875C 91.4531 6.09375 91.2734 5.60677 90.9141 5.22656C 90.5547 4.84635 90.0755 4.65625 89.4766 4.65625C 88.7578 4.65625 88.1979 4.86198 87.7969 5.27344C 87.401 5.67969 87.2031 6.2474 87.2031 6.97656L 85.7578 6.97656C 85.7578 5.92969 86.0938 5.08333 86.7656 4.4375C 87.4427 3.79167 88.3464 3.46875 89.4766 3.46875C 90.5339 3.46875 91.3698 3.7474 91.9844 4.30469C 92.599 4.85677 92.9062 5.59375 92.9062 6.51562C 92.9062 7.63542 92.1927 8.96875 90.7656 10.5156L 87.7188 13.8203L 93.4297 13.8203L 93.4297 15Z"/>
<path id="path11_fill" d="M 8.39844 15L 0.945312 15L 0.945312 13.9609L 4.88281 9.58594C 5.46615 8.92448 5.86719 8.38802 6.08594 7.97656C 6.3099 7.5599 6.42188 7.13021 6.42188 6.6875C 6.42188 6.09375 6.24219 5.60677 5.88281 5.22656C 5.52344 4.84635 5.04427 4.65625 4.44531 4.65625C 3.72656 4.65625 3.16667 4.86198 2.76562 5.27344C 2.36979 5.67969 2.17188 6.2474 2.17188 6.97656L 0.726562 6.97656C 0.726562 5.92969 1.0625 5.08333 1.73438 4.4375C 2.41146 3.79167 3.3151 3.46875 4.44531 3.46875C 5.5026 3.46875 6.33854 3.7474 6.95312 4.30469C 7.56771 4.85677 7.875 5.59375 7.875 6.51562C 7.875 7.63542 7.16146 8.96875 5.73438 10.5156L 2.6875 13.8203L 8.39844 13.8203L 8.39844 15ZM 17.0625 10.1484C 17.0625 11.8411 16.7734 13.099 16.1953 13.9219C 15.6172 14.7448 14.7135 15.1562 13.4844 15.1562C 12.2708 15.1562 11.3724 14.7552 10.7891 13.9531C 10.2057 13.1458 9.90365 11.9427 9.88281 10.3438L 9.88281 8.41406C 9.88281 6.74219 10.1719 5.5 10.75 4.6875C 11.3281 3.875 12.2344 3.46875 13.4688 3.46875C 14.6927 3.46875 15.5938 3.86198 16.1719 4.64844C 16.75 5.42969 17.0469 6.63802 17.0625 8.27344L 17.0625 10.1484ZM 15.6172 8.17188C 15.6172 6.94792 15.4453 6.05729 15.1016 5.5C 14.7578 4.9375 14.2135 4.65625 13.4688 4.65625C 12.7292 4.65625 12.1901 4.9349 11.8516 5.49219C 11.513 6.04948 11.3385 6.90625 11.3281 8.0625L 11.3281 10.375C 11.3281 11.6042 11.5052 12.513 11.8594 13.1016C 12.2188 13.6849 12.7604 13.9766 13.4844 13.9766C 14.1979 13.9766 14.7266 13.7005 15.0703 13.1484C 15.4193 12.5964 15.6016 11.7266 15.6172 10.5391L 15.6172 8.17188ZM 26.0469 10.1484C 26.0469 11.8411 25.7578 13.099 25.1797 13.9219C 24.6016 14.7448 23.6979 15.1562 22.4688 15.1562C 21.2552 15.1562 20.3568 14.7552 19.7734 13.9531C 19.1901 13.1458 18.888 11.9427 18.8672 10.3438L 18.8672 8.41406C 18.8672 6.74219 19.1562 5.5 19.7344 4.6875C 20.3125 3.875 21.2188 3.46875 22.4531 3.46875C 23.6771 3.46875 24.5781 3.86198 25.1562 4.64844C 25.7344 5.42969 26.0312 6.63802 26.0469 8.27344L 26.0469 10.1484ZM 24.6016 8.17188C 24.6016 6.94792 24.4297 6.05729 24.0859 5.5C 23.7422 4.9375 23.1979 4.65625 22.4531 4.65625C 21.7135 4.65625 21.1745 4.9349 20.8359 5.49219C 20.4974 6.04948 20.3229 6.90625 20.3125 8.0625L 20.3125 10.375C 20.3125 11.6042 20.4896 12.513 20.8438 13.1016C 21.2031 13.6849 21.7448 13.9766 22.4688 13.9766C 23.1823 13.9766 23.7109 13.7005 24.0547 13.1484C 24.4036 12.5964 24.5859 11.7266 24.6016 10.5391L 24.6016 8.17188ZM 35.2422 4.4375L 30.5312 15L 29.0156 15L 33.7109 4.8125L 27.5547 4.8125L 27.5547 3.625L 35.2422 3.625L 35.2422 4.4375ZM 42.9609 4.5L 42.9609 6.54688L 44.5391 6.54688L 44.5391 7.66406L 42.9609 7.66406L 42.9609 12.9062C 42.9609 13.2448 43.0312 13.5 43.1719 13.6719C 43.3125 13.8385 43.5521 13.9219 43.8906 13.9219C 44.0573 13.9219 44.2865 13.8906 44.5781 13.8281L 44.5781 15C 44.1979 15.1042 43.8281 15.1562 43.4688 15.1562C 42.8229 15.1562 42.3359 14.9609 42.0078 14.5703C 41.6797 14.1797 41.5156 13.625 41.5156 12.9062L 41.5156 7.66406L 39.9766 7.66406L 39.9766 6.54688L 41.5156 6.54688L 41.5156 4.5L 42.9609 4.5ZM 45.6953 10.6953C 45.6953 9.86719 45.8568 9.1224 46.1797 8.46094C 46.5078 7.79948 46.9609 7.28906 47.5391 6.92969C 48.1224 6.57031 48.7865 6.39062 49.5312 6.39062C 50.6823 6.39062 51.612 6.78906 52.3203 7.58594C 53.0339 8.38281 53.3906 9.44271 53.3906 10.7656L 53.3906 10.8672C 53.3906 11.6901 53.2318 12.4297 52.9141 13.0859C 52.6016 13.737 52.151 14.2448 51.5625 14.6094C 50.9792 14.974 50.3073 15.1562 49.5469 15.1562C 48.401 15.1562 47.4714 14.7578 46.7578 13.9609C 46.0495 13.1641 45.6953 12.1094 45.6953 10.7969L 45.6953 10.6953ZM 47.1484 10.8672C 47.1484 11.8047 47.3646 12.5573 47.7969 13.125C 48.2344 13.6927 48.8177 13.9766 49.5469 13.9766C 50.2812 13.9766 50.8646 13.6901 51.2969 13.1172C 51.7292 12.5391 51.9453 11.7318 51.9453 10.6953C 51.9453 9.76823 51.724 9.01823 51.2812 8.44531C 50.8438 7.86719 50.2604 7.57812 49.5312 7.57812C 48.8177 7.57812 48.2422 7.86198 47.8047 8.42969C 47.3672 8.9974 47.1484 9.8099 47.1484 10.8672ZM 66.4766 15L 59.0234 15L 59.0234 13.9609L 62.9609 9.58594C 63.5443 8.92448 63.9453 8.38802 64.1641 7.97656C 64.388 7.5599 64.5 7.13021 64.5 6.6875C 64.5 6.09375 64.3203 5.60677 63.9609 5.22656C 63.6016 4.84635 63.1224 4.65625 62.5234 4.65625C 61.8047 4.65625 61.2448 4.86198 60.8438 5.27344C 60.4479 5.67969 60.25 6.2474 60.25 6.97656L 58.8047 6.97656C 58.8047 5.92969 59.1406 5.08333 59.8125 4.4375C 60.4896 3.79167 61.3932 3.46875 62.5234 3.46875C 63.5807 3.46875 64.4167 3.7474 65.0312 4.30469C 65.6458 4.85677 65.9531 5.59375 65.9531 6.51562C 65.9531 7.63542 65.2396 8.96875 63.8125 10.5156L 60.7656 13.8203L 66.4766 13.8203L 66.4766 15ZM 75.1406 10.1484C 75.1406 11.8411 74.8516 13.099 74.2734 13.9219C 73.6953 14.7448 72.7917 15.1562 71.5625 15.1562C 70.349 15.1562 69.4505 14.7552 68.8672 13.9531C 68.2839 13.1458 67.9818 11.9427 67.9609 10.3438L 67.9609 8.41406C 67.9609 6.74219 68.25 5.5 68.8281 4.6875C 69.4062 3.875 70.3125 3.46875 71.5469 3.46875C 72.7708 3.46875 73.6719 3.86198 74.25 4.64844C 74.8281 5.42969 75.125 6.63802 75.1406 8.27344L 75.1406 10.1484ZM 73.6953 8.17188C 73.6953 6.94792 73.5234 6.05729 73.1797 5.5C 72.8359 4.9375 72.2917 4.65625 71.5469 4.65625C 70.8073 4.65625 70.2682 4.9349 69.9297 5.49219C 69.5911 6.04948 69.4167 6.90625 69.4062 8.0625L 69.4062 10.375C 69.4062 11.6042 69.5833 12.513 69.9375 13.1016C 70.2969 13.6849 70.8385 13.9766 71.5625 13.9766C 72.276 13.9766 72.8047 13.7005 73.1484 13.1484C 73.4974 12.5964 73.6797 11.7266 73.6953 10.5391L 73.6953 8.17188ZM 84.125 10.1484C 84.125 11.8411 83.8359 13.099 83.2578 13.9219C 82.6797 14.7448 81.776 15.1562 80.5469 15.1562C 79.3333 15.1562 78.4349 14.7552 77.8516 13.9531C 77.2682 13.1458 76.9661 11.9427 76.9453 10.3438L 76.9453 8.41406C 76.9453 6.74219 77.2344 5.5 77.8125 4.6875C 78.3906 3.875 79.2969 3.46875 80.5312 3.46875C 81.7552 3.46875 82.6562 3.86198 83.2344 4.64844C 83.8125 5.42969 84.1094 6.63802 84.125 8.27344L 84.125 10.1484ZM 82.6797 8.17188C 82.6797 6.94792 82.5078 6.05729 82.1641 5.5C 81.8203 4.9375 81.276 4.65625 80.5312 4.65625C 79.7917 4.65625 79.2526 4.9349 78.9141 5.49219C 78.5755 6.04948 78.401 6.90625 78.3906 8.0625L 78.3906 10.375C 78.3906 11.6042 78.5677 12.513 78.9219 13.1016C 79.2812 13.6849 79.8229 13.9766 80.5469 13.9766C 81.2604 13.9766 81.7891 13.7005 82.1328 13.1484C 82.4818 12.5964 82.6641 11.7266 82.6797 10.5391L 82.6797 8.17188ZM 91.5156 10C 91.2135 10.3594 90.8516 10.6484 90.4297 10.8672C 90.013 11.0859 89.5547 11.1953 89.0547 11.1953C 88.3984 11.1953 87.8255 11.0339 87.3359 10.7109C 86.8516 10.388 86.4766 9.9349 86.2109 9.35156C 85.9453 8.76302 85.8125 8.11458 85.8125 7.40625C 85.8125 6.64583 85.9557 5.96094 86.2422 5.35156C 86.5339 4.74219 86.9453 4.27604 87.4766 3.95312C 88.0078 3.63021 88.6276 3.46875 89.3359 3.46875C 90.4609 3.46875 91.3464 3.89062 91.9922 4.73438C 92.6432 5.57292 92.9688 6.71875 92.9688 8.17188L 92.9688 8.59375C 92.9688 10.8073 92.5312 12.4245 91.6562 13.4453C 90.7812 14.4609 89.4609 14.9818 87.6953 15.0078L 87.4141 15.0078L 87.4141 13.7891L 87.7188 13.7891C 88.9115 13.7682 89.8281 13.4583 90.4688 12.8594C 91.1094 12.2552 91.4583 11.3021 91.5156 10ZM 89.2891 10C 89.7734 10 90.2188 9.85156 90.625 9.55469C 91.0365 9.25781 91.3359 8.89062 91.5234 8.45312L 91.5234 7.875C 91.5234 6.92708 91.3177 6.15625 90.9062 5.5625C 90.4948 4.96875 89.974 4.67188 89.3438 4.67188C 88.7083 4.67188 88.1979 4.91667 87.8125 5.40625C 87.4271 5.89062 87.2344 6.53125 87.2344 7.32812C 87.2344 8.10417 87.4193 8.74479 87.7891 9.25C 88.1641 9.75 88.6641 10 89.2891 10Z"/>
<path id="path12_fill" d="M 8.39844 15L 0.945312 15L 0.945312 13.9609L 4.88281 9.58594C 5.46615 8.92448 5.86719 8.38802 6.08594 7.97656C 6.3099 7.5599 6.42188 7.13021 6.42188 6.6875C 6.42188 6.09375 6.24219 5.60677 5.88281 5.22656C 5.52344 4.84635 5.04427 4.65625 4.44531 4.65625C 3.72656 4.65625 3.16667 4.86198 2.76562 5.27344C 2.36979 5.67969 2.17188 6.2474 2.17188 6.97656L 0.726562 6.97656C 0.726562 5.92969 1.0625 5.08333 1.73438 4.4375C 2.41146 3.79167 3.3151 3.46875 4.44531 3.46875C 5.5026 3.46875 6.33854 3.7474 6.95312 4.30469C 7.56771 4.85677 7.875 5.59375 7.875 6.51562C 7.875 7.63542 7.16146 8.96875 5.73438 10.5156L 2.6875 13.8203L 8.39844 13.8203L 8.39844 15ZM 17.0625 10.1484C 17.0625 11.8411 16.7734 13.099 16.1953 13.9219C 15.6172 14.7448 14.7135 15.1562 13.4844 15.1562C 12.2708 15.1562 11.3724 14.7552 10.7891 13.9531C 10.2057 13.1458 9.90365 11.9427 9.88281 10.3438L 9.88281 8.41406C 9.88281 6.74219 10.1719 5.5 10.75 4.6875C 11.3281 3.875 12.2344 3.46875 13.4688 3.46875C 14.6927 3.46875 15.5938 3.86198 16.1719 4.64844C 16.75 5.42969 17.0469 6.63802 17.0625 8.27344L 17.0625 10.1484ZM 15.6172 8.17188C 15.6172 6.94792 15.4453 6.05729 15.1016 5.5C 14.7578 4.9375 14.2135 4.65625 13.4688 4.65625C 12.7292 4.65625 12.1901 4.9349 11.8516 5.49219C 11.513 6.04948 11.3385 6.90625 11.3281 8.0625L 11.3281 10.375C 11.3281 11.6042 11.5052 12.513 11.8594 13.1016C 12.2188 13.6849 12.7604 13.9766 13.4844 13.9766C 14.1979 13.9766 14.7266 13.7005 15.0703 13.1484C 15.4193 12.5964 15.6016 11.7266 15.6172 10.5391L 15.6172 8.17188ZM 26.0469 10.1484C 26.0469 11.8411 25.7578 13.099 25.1797 13.9219C 24.6016 14.7448 23.6979 15.1562 22.4688 15.1562C 21.2552 15.1562 20.3568 14.7552 19.7734 13.9531C 19.1901 13.1458 18.888 11.9427 18.8672 10.3438L 18.8672 8.41406C 18.8672 6.74219 19.1562 5.5 19.7344 4.6875C 20.3125 3.875 21.2188 3.46875 22.4531 3.46875C 23.6771 3.46875 24.5781 3.86198 25.1562 4.64844C 25.7344 5.42969 26.0312 6.63802 26.0469 8.27344L 26.0469 10.1484ZM 24.6016 8.17188C 24.6016 6.94792 24.4297 6.05729 24.0859 5.5C 23.7422 4.9375 23.1979 4.65625 22.4531 4.65625C 21.7135 4.65625 21.1745 4.9349 20.8359 5.49219C 20.4974 6.04948 20.3229 6.90625 20.3125 8.0625L 20.3125 10.375C 20.3125 11.6042 20.4896 12.513 20.8438 13.1016C 21.2031 13.6849 21.7448 13.9766 22.4688 13.9766C 23.1823 13.9766 23.7109 13.7005 24.0547 13.1484C 24.4036 12.5964 24.5859 11.7266 24.6016 10.5391L 24.6016 8.17188ZM 33.5703 3.61719L 33.5703 4.84375L 33.3047 4.84375C 32.1797 4.86458 31.2839 5.19792 30.6172 5.84375C 29.9505 6.48958 29.5651 7.39844 29.4609 8.57031C 30.0599 7.88281 30.8776 7.53906 31.9141 7.53906C 32.9036 7.53906 33.6927 7.88802 34.2812 8.58594C 34.875 9.28385 35.1719 10.1849 35.1719 11.2891C 35.1719 12.4609 34.8516 13.3984 34.2109 14.1016C 33.5755 14.8047 32.7214 15.1562 31.6484 15.1562C 30.5599 15.1562 29.6771 14.7396 29 13.9062C 28.3229 13.0677 27.9844 11.9896 27.9844 10.6719L 27.9844 10.1172C 27.9844 8.02344 28.4297 6.42448 29.3203 5.32031C 30.2161 4.21094 31.5469 3.64323 33.3125 3.61719L 33.5703 3.61719ZM 31.6719 8.74219C 31.1771 8.74219 30.7214 8.89062 30.3047 9.1875C 29.888 9.48438 29.599 9.85677 29.4375 10.3047L 29.4375 10.8359C 29.4375 11.7734 29.6484 12.5286 30.0703 13.1016C 30.4922 13.6745 31.0182 13.9609 31.6484 13.9609C 32.2995 13.9609 32.8099 13.7214 33.1797 13.2422C 33.5547 12.763 33.7422 12.1354 33.7422 11.3594C 33.7422 10.5781 33.5521 9.94792 33.1719 9.46875C 32.7969 8.98438 32.2969 8.74219 31.6719 8.74219ZM 46.2188 15C 46.1354 14.8333 46.0677 14.5365 46.0156 14.1094C 45.3438 14.8073 44.5417 15.1562 43.6094 15.1562C 42.776 15.1562 42.0911 14.9219 41.5547 14.4531C 41.0234 13.9792 40.7578 13.3802 40.7578 12.6562C 40.7578 11.776 41.0911 11.0938 41.7578 10.6094C 42.4297 10.1198 43.3724 9.875 44.5859 9.875L 45.9922 9.875L 45.9922 9.21094C 45.9922 8.70573 45.8411 8.30469 45.5391 8.00781C 45.237 7.70573 44.7917 7.55469 44.2031 7.55469C 43.6875 7.55469 43.2552 7.6849 42.9062 7.94531C 42.5573 8.20573 42.3828 8.52083 42.3828 8.89062L 40.9297 8.89062C 40.9297 8.46875 41.0781 8.0625 41.375 7.67188C 41.6771 7.27604 42.0833 6.96354 42.5938 6.73438C 43.1094 6.50521 43.6745 6.39062 44.2891 6.39062C 45.263 6.39062 46.026 6.63542 46.5781 7.125C 47.1302 7.60938 47.4167 8.27865 47.4375 9.13281L 47.4375 13.0234C 47.4375 13.7995 47.5365 14.4167 47.7344 14.875L 47.7344 15L 46.2188 15ZM 43.8203 13.8984C 44.2734 13.8984 44.7031 13.7812 45.1094 13.5469C 45.5156 13.3125 45.8099 13.0078 45.9922 12.6328L 45.9922 10.8984L 44.8594 10.8984C 43.0885 10.8984 42.2031 11.4167 42.2031 12.4531C 42.2031 12.9062 42.3542 13.2604 42.6562 13.5156C 42.9583 13.7708 43.3464 13.8984 43.8203 13.8984ZM 51.0703 6.54688L 51.1172 7.60938C 51.763 6.79688 52.6068 6.39062 53.6484 6.39062C 55.4349 6.39062 56.3359 7.39844 56.3516 9.41406L 56.3516 15L 54.9062 15L 54.9062 9.40625C 54.901 8.79688 54.7604 8.34635 54.4844 8.05469C 54.2135 7.76302 53.7891 7.61719 53.2109 7.61719C 52.7422 7.61719 52.3307 7.74219 51.9766 7.99219C 51.6224 8.24219 51.3464 8.57031 51.1484 8.97656L 51.1484 15L 49.7031 15L 49.7031 6.54688L 51.0703 6.54688ZM 58.1797 10.7031C 58.1797 9.40625 58.487 8.36458 59.1016 7.57812C 59.7161 6.78646 60.5208 6.39062 61.5156 6.39062C 62.5052 6.39062 63.2891 6.72917 63.8672 7.40625L 63.8672 3L 65.3125 3L 65.3125 15L 63.9844 15L 63.9141 14.0938C 63.3359 14.8021 62.5312 15.1562 61.5 15.1562C 60.5208 15.1562 59.7214 14.7552 59.1016 13.9531C 58.487 13.151 58.1797 12.1042 58.1797 10.8125L 58.1797 10.7031ZM 59.625 10.8672C 59.625 11.8255 59.8229 12.5755 60.2188 13.1172C 60.6146 13.6589 61.1615 13.9297 61.8594 13.9297C 62.776 13.9297 63.4453 13.5182 63.8672 12.6953L 63.8672 8.8125C 63.4349 8.01562 62.7708 7.61719 61.875 7.61719C 61.1667 7.61719 60.6146 7.89062 60.2188 8.4375C 59.8229 8.98438 59.625 9.79427 59.625 10.8672ZM 78.6875 10.8672C 78.6875 12.1589 78.3906 13.1979 77.7969 13.9844C 77.2031 14.7656 76.4062 15.1562 75.4062 15.1562C 74.3385 15.1562 73.513 14.7786 72.9297 14.0234L 72.8594 15L 71.5312 15L 71.5312 3L 72.9766 3L 72.9766 7.47656C 73.5599 6.7526 74.3646 6.39062 75.3906 6.39062C 76.4167 6.39062 77.2214 6.77865 77.8047 7.55469C 78.3932 8.33073 78.6875 9.39323 78.6875 10.7422L 78.6875 10.8672ZM 77.2422 10.7031C 77.2422 9.71875 77.0521 8.95833 76.6719 8.42188C 76.2917 7.88542 75.7448 7.61719 75.0312 7.61719C 74.0781 7.61719 73.3932 8.0599 72.9766 8.94531L 72.9766 12.6016C 73.4193 13.487 74.1094 13.9297 75.0469 13.9297C 75.7396 13.9297 76.2786 13.6615 76.6641 13.125C 77.0495 12.5885 77.2422 11.7812 77.2422 10.7031ZM 84.0234 15.1562C 82.8776 15.1562 81.9453 14.7812 81.2266 14.0312C 80.5078 13.276 80.1484 12.2682 80.1484 11.0078L 80.1484 10.7422C 80.1484 9.90365 80.3073 9.15625 80.625 8.5C 80.9479 7.83854 81.3958 7.32292 81.9688 6.95312C 82.5469 6.57812 83.1719 6.39062 83.8438 6.39062C 84.9427 6.39062 85.7969 6.7526 86.4062 7.47656C 87.0156 8.20052 87.3203 9.23698 87.3203 10.5859L 87.3203 11.1875L 81.5938 11.1875C 81.6146 12.0208 81.8568 12.6953 82.3203 13.2109C 82.7891 13.7214 83.3828 13.9766 84.1016 13.9766C 84.612 13.9766 85.0443 13.8724 85.3984 13.6641C 85.7526 13.4557 86.0625 13.1797 86.3281 12.8359L 87.2109 13.5234C 86.5026 14.612 85.4401 15.1562 84.0234 15.1562ZM 83.8438 7.57812C 83.2604 7.57812 82.7708 7.79167 82.375 8.21875C 81.9792 8.64062 81.7344 9.23438 81.6406 10L 85.875 10L 85.875 9.89062C 85.8333 9.15625 85.6354 8.58854 85.2812 8.1875C 84.9271 7.78125 84.4479 7.57812 83.8438 7.57812ZM 89.7109 15L 89.7109 7.66406L 88.375 7.66406L 88.375 6.54688L 89.7109 6.54688L 89.7109 5.67969C 89.7109 4.77344 89.9531 4.07292 90.4375 3.57812C 90.9219 3.08333 91.6068 2.83594 92.4922 2.83594C 92.8255 2.83594 93.1562 2.88021 93.4844 2.96875L 93.4062 4.14062C 93.1615 4.09375 92.901 4.07031 92.625 4.07031C 92.1562 4.07031 91.7943 4.20833 91.5391 4.48438C 91.2839 4.75521 91.1562 5.14583 91.1562 5.65625L 91.1562 6.54688L 92.9609 6.54688L 92.9609 7.66406L 91.1562 7.66406L 91.1562 15L 89.7109 15ZM 94.1797 10.6953C 94.1797 9.86719 94.3411 9.1224 94.6641 8.46094C 94.9922 7.79948 95.4453 7.28906 96.0234 6.92969C 96.6068 6.57031 97.2708 6.39062 98.0156 6.39062C 99.1667 6.39062 100.096 6.78906 100.805 7.58594C 101.518 8.38281 101.875 9.44271 101.875 10.7656L 101.875 10.8672C 101.875 11.6901 101.716 12.4297 101.398 13.0859C 101.086 13.737 100.635 14.2448 100.047 14.6094C 99.4635 14.974 98.7917 15.1562 98.0312 15.1562C 96.8854 15.1562 95.9557 14.7578 95.2422 13.9609C 94.5339 13.1641 94.1797 12.1094 94.1797 10.7969L 94.1797 10.6953ZM 95.6328 10.8672C 95.6328 11.8047 95.849 12.5573 96.2812 13.125C 96.7188 13.6927 97.3021 13.9766 98.0312 13.9766C 98.7656 13.9766 99.349 13.6901 99.7812 13.1172C 100.214 12.5391 100.43 11.7318 100.43 10.6953C 100.43 9.76823 100.208 9.01823 99.7656 8.44531C 99.3281 7.86719 98.7448 7.57812 98.0156 7.57812C 97.3021 7.57812 96.7266 7.86198 96.2891 8.42969C 95.8516 8.9974 95.6328 9.8099 95.6328 10.8672ZM 107.773 7.84375C 107.555 7.80729 107.318 7.78906 107.062 7.78906C 106.115 7.78906 105.471 8.19271 105.133 9L 105.133 15L 103.688 15L 103.688 6.54688L 105.094 6.54688L 105.117 7.52344C 105.591 6.76823 106.263 6.39062 107.133 6.39062C 107.414 6.39062 107.628 6.42708 107.773 6.5L 107.773 7.84375ZM 112.461 15.1562C 111.315 15.1562 110.383 14.7812 109.664 14.0312C 108.945 13.276 108.586 12.2682 108.586 11.0078L 108.586 10.7422C 108.586 9.90365 108.745 9.15625 109.062 8.5C 109.385 7.83854 109.833 7.32292 110.406 6.95312C 110.984 6.57812 111.609 6.39062 112.281 6.39062C 113.38 6.39062 114.234 6.7526 114.844 7.47656C 115.453 8.20052 115.758 9.23698 115.758 10.5859L 115.758 11.1875L 110.031 11.1875C 110.052 12.0208 110.294 12.6953 110.758 13.2109C 111.227 13.7214 111.82 13.9766 112.539 13.9766C 113.049 13.9766 113.482 13.8724 113.836 13.6641C 114.19 13.4557 114.5 13.1797 114.766 12.8359L 115.648 13.5234C 114.94 14.612 113.878 15.1562 112.461 15.1562ZM 112.281 7.57812C 111.698 7.57812 111.208 7.79167 110.812 8.21875C 110.417 8.64062 110.172 9.23438 110.078 10L 114.312 10L 114.312 9.89062C 114.271 9.15625 114.073 8.58854 113.719 8.1875C 113.365 7.78125 112.885 7.57812 112.281 7.57812Z"/>
<path id="path13_fill" fill-rule="evenodd" d="M 0 0L 310 0L 310 1L 0 1L 0 0Z"/>
<path id="path14_fill" fill-rule="evenodd" d="M 6 0L 12 6L 0 6L 6 0Z"/>
</defs>
</svg>
