<svg width="335" height="230" viewBox="0 0 335 230" version="1.1" xmlns="http://www.w3.org/2000/svg" xmlns:xlink="http://www.w3.org/1999/xlink">
<title>Component</title>
<desc>Created using Figma</desc>
<g id="Canvas" transform="translate(-2948 -11441)">
<g id="Component">
<g id="input field copy 26">
<use xlink:href="#path0_fill" transform="translate(2948 11441)" fill="#FFFFFF"/>
<mask id="mask0_outline_ins">
<use xlink:href="#path0_fill" fill="white" transform="translate(2948 11441)"/>
</mask>
<g mask="url(#mask0_outline_ins)">
<use xlink:href="#path1_stroke_2x" transform="translate(2948 11441)" fill="#E0E6ED"/>
</g>
</g>
<g id="Rectangle 5 Copy 28" opacity="0.5">
<use xlink:href="#path2_fill" transform="translate(2962 11629)" fill="#DDDDDD"/>
</g>
<g id="Rectangle 5 Copy 27">
<use xlink:href="#path3_fill" transform="translate(3022 11629)" fill="#71A2EA"/>
</g>
<g id="Oval Copy 20">
<use xlink:href="#path4_fill" transform="translate(3016 11620)" fill="#C8DCF9"/>
<mask id="mask1_outline_ins">
<use xlink:href="#path4_fill" fill="white" transform="translate(3016 11620)"/>
</mask>
<g mask="url(#mask1_outline_ins)">
<use xlink:href="#path5_stroke_2x" transform="translate(3016 11620)" fill="#71A2EA"/>
</g>
</g>
<g id="Oval Copy 19">
<use xlink:href="#path4_fill" transform="translate(3216 11620)" fill="#C8DCF9"/>
<mask id="mask2_outline_ins">
<use xlink:href="#path4_fill" fill="white" transform="translate(3216 11620)"/>
</mask>
<g mask="url(#mask2_outline_ins)">
<use xlink:href="#path5_stroke_2x" transform="translate(3216 11620)" fill="#71A2EA"/>
</g>
</g>
<g id="input field copy 25">
<use xlink:href="#path6_fill" transform="translate(3113 11528)" fill="#FFFFFF"/>
<mask id="mask3_outline_ins">
<use xlink:href="#path6_fill" fill="white" transform="translate(3113 11528)"/>
</mask>
<g mask="url(#mask3_outline_ins)">
<use xlink:href="#path7_stroke_2x" transform="translate(3113 11528)" fill="#DDDDDD"/>
</g>
</g>
<g id="&#226;&#130;&#172;2315 copy">
<use xlink:href="#path8_fill" transform="translate(3121 11535)" fill="#34495E"/>
</g>
<g id="&#226;&#130;&#172;305 copy" opacity="0.6">
<use xlink:href="#path9_fill" transform="translate(3121 11571)" fill="#34495E"/>
</g>
<g id="For boat">
<use xlink:href="#path10_fill" transform="translate(2964 11535)" fill="#34495E"/>
</g>
<g id="For passenger" opacity="0.6">
<use xlink:href="#path11_fill" transform="translate(2964 11571)" fill="#34495E"/>
</g>
<g id="input field copy 21">
<use xlink:href="#path6_fill" transform="translate(3197 11528)" fill="#FFFFFF"/>
<mask id="mask4_outline_ins">
<use xlink:href="#path6_fill" fill="white" transform="translate(3197 11528)"/>
</mask>
<g mask="url(#mask4_outline_ins)">
<use xlink:href="#path7_stroke_2x" transform="translate(3197 11528)" fill="#DDDDDD"/>
</g>
</g>
<g id="&#226;&#130;&#172;5455 copy">
<use xlink:href="#path12_fill" transform="translate(3205 11535)" fill="#34495E"/>
</g>
<g id="&#226;&#130;&#172;610 copy" opacity="0.6">
<use xlink:href="#path13_fill" transform="translate(3205 11571)" fill="#34495E"/>
</g>
<g id="input field copy 20" opacity="0.3">
<use xlink:href="#path14_fill" transform="translate(3107 11457)" fill="#B8D0F4"/>
</g>
<g id="Rectangle 8 Copy 6">
<use xlink:href="#path15_fill" transform="translate(2964 11457)" fill="#71A2EA"/>
</g>
<g id="Price per week">
<use xlink:href="#path16_fill" transform="translate(2987 11464)" fill="#FFFFFF"/>
</g>
<g id="Price per day">
<use xlink:href="#path17_fill" transform="translate(3144 11464)" fill="#34495E"/>
</g>
</g>
</g>
<defs>
<path id="path0_fill" fill-rule="evenodd" d="M 0 4C 0 1.79086 1.79086 0 4 0L 331 0C 333.209 0 335 1.79086 335 4L 335 226C 335 228.209 333.209 230 331 230L 4 230C 1.79086 230 0 228.209 0 226L 0 4Z"/>
<path id="path1_stroke_2x" d="M 4 1L 331 1L 331 -1L 4 -1L 4 1ZM 334 4L 334 226L 336 226L 336 4L 334 4ZM 331 229L 4 229L 4 231L 331 231L 331 229ZM 1 226L 1 4L -1 4L -1 226L 1 226ZM 4 -1C 1.23858 -1 -1 1.23858 -1 4L 1 4C 1 2.34315 2.34315 1 4 1L 4 -1ZM 331 1C 332.657 1 334 2.34315 334 4L 336 4C 336 1.23858 333.761 -1 331 -1L 331 1ZM 334 226C 334 227.657 332.657 229 331 229L 331 231C 333.761 231 336 228.761 336 226L 334 226ZM 4 229C 2.34315 229 1 227.657 1 226L -1 226C -1 228.761 1.23858 231 4 231L 4 229Z"/>
<path id="path2_fill" fill-rule="evenodd" d="M 0 1C 0 0.447715 0.447715 0 1 0L 299 0C 299.552 0 300 0.447716 300 1L 300 1C 300 1.55228 299.552 2 299 2L 1 2C 0.447715 2 0 1.55228 0 1L 0 1Z"/>
<path id="path3_fill" fill-rule="evenodd" d="M 0 0L 204 0L 204 2L 0 2L 0 0Z"/>
<path id="path4_fill" fill-rule="evenodd" d="M 10 20C 15.5228 20 20 15.5228 20 10C 20 4.47715 15.5228 0 10 0C 4.47715 0 0 4.47715 0 10C 0 15.5228 4.47715 20 10 20Z"/>
<path id="path5_stroke_2x" d="M 10 21C 16.0751 21 21 16.0751 21 10L 19 10C 19 14.9706 14.9706 19 10 19L 10 21ZM 21 10C 21 3.92487 16.0751 -1 10 -1L 10 1C 14.9706 1 19 5.02944 19 10L 21 10ZM 10 -1C 3.92487 -1 -1 3.92487 -1 10L 1 10C 1 5.02944 5.02944 1 10 1L 10 -1ZM -1 10C -1 16.0751 3.92487 21 10 21L 10 19C 5.02944 19 1 14.9706 1 10L -1 10Z"/>
<path id="path6_fill" fill-rule="evenodd" d="M 0 4C 0 1.79086 1.79086 0 4 0L 66 0C 68.2091 0 70 1.79086 70 4L 70 38C 70 40.2091 68.2091 42 66 42L 4 42C 1.79086 42 0 40.2091 0 38L 0 4Z"/>
<path id="path7_stroke_2x" d="M 4 1L 66 1L 66 -1L 4 -1L 4 1ZM 69 4L 69 38L 71 38L 71 4L 69 4ZM 66 41L 4 41L 4 43L 66 43L 66 41ZM 1 38L 1 4L -1 4L -1 38L 1 38ZM 4 -1C 1.23858 -1 -1 1.23858 -1 4L 1 4C 1 2.34315 2.34315 1 4 1L 4 -1ZM 66 1C 67.6569 1 69 2.34315 69 4L 71 4C 71 1.23858 68.7614 -1 66 -1L 66 1ZM 69 38C 69 39.6569 67.6569 41 66 41L 66 43C 68.7614 43 71 40.7614 71 38L 69 38ZM 4 41C 2.34315 41 1 39.6569 1 38L -1 38C -1 40.7614 1.23858 43 4 43L 4 41Z"/>
<path id="path8_fill" d="M 6.63281 14.7734L 3.63281 14.7734C 3.65365 15.7891 3.89844 16.5703 4.36719 17.1172C 4.83594 17.6641 5.5 17.9375 6.35938 17.9375C 6.96354 17.9375 7.53125 17.849 8.0625 17.6719L 8.21875 18.9219C 7.59375 19.0781 6.96875 19.1562 6.34375 19.1562C 5.05208 19.1562 4.03385 18.776 3.28906 18.0156C 2.54948 17.25 2.16406 16.1693 2.13281 14.7734L 0.742188 14.7734L 0.742188 13.8047L 2.13281 13.8047L 2.13281 12.7344L 0.742188 12.7344L 0.742188 11.7578L 2.13281 11.7578C 2.1849 10.3932 2.58073 9.33854 3.32031 8.59375C 4.0651 7.84375 5.07031 7.46875 6.33594 7.46875C 6.88802 7.46875 7.51562 7.54948 8.21875 7.71094L 8.0625 8.97656C 7.49479 8.79427 6.92448 8.70312 6.35156 8.70312C 5.4974 8.70312 4.83854 8.96875 4.375 9.5C 3.91667 10.026 3.67188 10.7786 3.64062 11.7578L 6.63281 11.7578L 6.63281 12.7344L 3.63281 12.7344L 3.63281 13.8047L 6.63281 13.8047L 6.63281 14.7734ZM 17.3828 19L 9.92969 19L 9.92969 17.9609L 13.8672 13.5859C 14.4505 12.9245 14.8516 12.388 15.0703 11.9766C 15.2943 11.5599 15.4062 11.1302 15.4062 10.6875C 15.4062 10.0938 15.2266 9.60677 14.8672 9.22656C 14.5078 8.84635 14.0286 8.65625 13.4297 8.65625C 12.7109 8.65625 12.151 8.86198 11.75 9.27344C 11.3542 9.67969 11.1562 10.2474 11.1562 10.9766L 9.71094 10.9766C 9.71094 9.92969 10.0469 9.08333 10.7188 8.4375C 11.3958 7.79167 12.2995 7.46875 13.4297 7.46875C 14.487 7.46875 15.3229 7.7474 15.9375 8.30469C 16.5521 8.85677 16.8594 9.59375 16.8594 10.5156C 16.8594 11.6354 16.1458 12.9688 14.7188 14.5156L 11.6719 17.8203L 17.3828 17.8203L 17.3828 19ZM 21.0156 12.6094L 22.1016 12.6094C 22.7839 12.599 23.3203 12.4193 23.7109 12.0703C 24.1016 11.7214 24.2969 11.25 24.2969 10.6562C 24.2969 9.32292 23.6328 8.65625 22.3047 8.65625C 21.6797 8.65625 21.1797 8.83594 20.8047 9.19531C 20.4349 9.54948 20.25 10.0208 20.25 10.6094L 18.8047 10.6094C 18.8047 9.70833 19.1328 8.96094 19.7891 8.36719C 20.4505 7.76823 21.2891 7.46875 22.3047 7.46875C 23.3776 7.46875 24.2188 7.7526 24.8281 8.32031C 25.4375 8.88802 25.7422 9.67708 25.7422 10.6875C 25.7422 11.1823 25.5807 11.6615 25.2578 12.125C 24.9401 12.5885 24.5052 12.9349 23.9531 13.1641C 24.5781 13.362 25.0599 13.6901 25.3984 14.1484C 25.7422 14.6068 25.9141 15.1667 25.9141 15.8281C 25.9141 16.849 25.5807 17.6589 24.9141 18.2578C 24.2474 18.8568 23.3802 19.1562 22.3125 19.1562C 21.2448 19.1562 20.375 18.8672 19.7031 18.2891C 19.0365 17.7109 18.7031 16.9479 18.7031 16L 20.1562 16C 20.1562 16.599 20.3516 17.0781 20.7422 17.4375C 21.1328 17.7969 21.6562 17.9766 22.3125 17.9766C 23.0104 17.9766 23.5443 17.7943 23.9141 17.4297C 24.2839 17.0651 24.4688 16.5417 24.4688 15.8594C 24.4688 15.1979 24.2656 14.6901 23.8594 14.3359C 23.4531 13.9818 22.8672 13.7995 22.1016 13.7891L 21.0156 13.7891L 21.0156 12.6094ZM 32.6484 19L 31.1953 19L 31.1953 9.36719L 28.2812 10.4375L 28.2812 9.125L 32.4219 7.57031L 32.6484 7.57031L 32.6484 19ZM 37.5469 13.2969L 38.125 7.625L 43.9531 7.625L 43.9531 8.96094L 39.3516 8.96094L 39.0078 12.0625C 39.5651 11.7344 40.1979 11.5703 40.9062 11.5703C 41.9427 11.5703 42.7656 11.9141 43.375 12.6016C 43.9844 13.2839 44.2891 14.2083 44.2891 15.375C 44.2891 16.5469 43.9714 17.4714 43.3359 18.1484C 42.7057 18.8203 41.8229 19.1562 40.6875 19.1562C 39.6823 19.1562 38.862 18.8776 38.2266 18.3203C 37.5911 17.763 37.2292 16.9922 37.1406 16.0078L 38.5078 16.0078C 38.5964 16.6589 38.8281 17.151 39.2031 17.4844C 39.5781 17.8125 40.0729 17.9766 40.6875 17.9766C 41.3594 17.9766 41.8854 17.7474 42.2656 17.2891C 42.651 16.8307 42.8438 16.1979 42.8438 15.3906C 42.8438 14.6302 42.6354 14.0208 42.2188 13.5625C 41.8073 13.099 41.2578 12.8672 40.5703 12.8672C 39.9401 12.8672 39.4453 13.0052 39.0859 13.2812L 38.7031 13.5938L 37.5469 13.2969Z"/>
<path id="path9_fill" d="M 6.63281 14.7734L 3.63281 14.7734C 3.65365 15.7891 3.89844 16.5703 4.36719 17.1172C 4.83594 17.6641 5.5 17.9375 6.35938 17.9375C 6.96354 17.9375 7.53125 17.849 8.0625 17.6719L 8.21875 18.9219C 7.59375 19.0781 6.96875 19.1562 6.34375 19.1562C 5.05208 19.1562 4.03385 18.776 3.28906 18.0156C 2.54948 17.25 2.16406 16.1693 2.13281 14.7734L 0.742188 14.7734L 0.742188 13.8047L 2.13281 13.8047L 2.13281 12.7344L 0.742188 12.7344L 0.742188 11.7578L 2.13281 11.7578C 2.1849 10.3932 2.58073 9.33854 3.32031 8.59375C 4.0651 7.84375 5.07031 7.46875 6.33594 7.46875C 6.88802 7.46875 7.51562 7.54948 8.21875 7.71094L 8.0625 8.97656C 7.49479 8.79427 6.92448 8.70312 6.35156 8.70312C 5.4974 8.70312 4.83854 8.96875 4.375 9.5C 3.91667 10.026 3.67188 10.7786 3.64062 11.7578L 6.63281 11.7578L 6.63281 12.7344L 3.63281 12.7344L 3.63281 13.8047L 6.63281 13.8047L 6.63281 14.7734ZM 12.0312 12.6094L 13.1172 12.6094C 13.7995 12.599 14.3359 12.4193 14.7266 12.0703C 15.1172 11.7214 15.3125 11.25 15.3125 10.6562C 15.3125 9.32292 14.6484 8.65625 13.3203 8.65625C 12.6953 8.65625 12.1953 8.83594 11.8203 9.19531C 11.4505 9.54948 11.2656 10.0208 11.2656 10.6094L 9.82031 10.6094C 9.82031 9.70833 10.1484 8.96094 10.8047 8.36719C 11.4661 7.76823 12.3047 7.46875 13.3203 7.46875C 14.3932 7.46875 15.2344 7.7526 15.8438 8.32031C 16.4531 8.88802 16.7578 9.67708 16.7578 10.6875C 16.7578 11.1823 16.5964 11.6615 16.2734 12.125C 15.9557 12.5885 15.5208 12.9349 14.9688 13.1641C 15.5938 13.362 16.0755 13.6901 16.4141 14.1484C 16.7578 14.6068 16.9297 15.1667 16.9297 15.8281C 16.9297 16.849 16.5964 17.6589 15.9297 18.2578C 15.263 18.8568 14.3958 19.1562 13.3281 19.1562C 12.2604 19.1562 11.3906 18.8672 10.7188 18.2891C 10.0521 17.7109 9.71875 16.9479 9.71875 16L 11.1719 16C 11.1719 16.599 11.3672 17.0781 11.7578 17.4375C 12.1484 17.7969 12.6719 17.9766 13.3281 17.9766C 14.026 17.9766 14.5599 17.7943 14.9297 17.4297C 15.2995 17.0651 15.4844 16.5417 15.4844 15.8594C 15.4844 15.1979 15.2812 14.6901 14.875 14.3359C 14.4688 13.9818 13.8828 13.7995 13.1172 13.7891L 12.0312 13.7891L 12.0312 12.6094ZM 26.0469 14.1484C 26.0469 15.8411 25.7578 17.099 25.1797 17.9219C 24.6016 18.7448 23.6979 19.1562 22.4688 19.1562C 21.2552 19.1562 20.3568 18.7552 19.7734 17.9531C 19.1901 17.1458 18.888 15.9427 18.8672 14.3438L 18.8672 12.4141C 18.8672 10.7422 19.1562 9.5 19.7344 8.6875C 20.3125 7.875 21.2188 7.46875 22.4531 7.46875C 23.6771 7.46875 24.5781 7.86198 25.1562 8.64844C 25.7344 9.42969 26.0312 10.638 26.0469 12.2734L 26.0469 14.1484ZM 24.6016 12.1719C 24.6016 10.9479 24.4297 10.0573 24.0859 9.5C 23.7422 8.9375 23.1979 8.65625 22.4531 8.65625C 21.7135 8.65625 21.1745 8.9349 20.8359 9.49219C 20.4974 10.0495 20.3229 10.9062 20.3125 12.0625L 20.3125 14.375C 20.3125 15.6042 20.4896 16.513 20.8438 17.1016C 21.2031 17.6849 21.7448 17.9766 22.4688 17.9766C 23.1823 17.9766 23.7109 17.7005 24.0547 17.1484C 24.4036 16.5964 24.5859 15.7266 24.6016 14.5391L 24.6016 12.1719ZM 28.5625 13.2969L 29.1406 7.625L 34.9688 7.625L 34.9688 8.96094L 30.3672 8.96094L 30.0234 12.0625C 30.5807 11.7344 31.2135 11.5703 31.9219 11.5703C 32.9583 11.5703 33.7812 11.9141 34.3906 12.6016C 35 13.2839 35.3047 14.2083 35.3047 15.375C 35.3047 16.5469 34.987 17.4714 34.3516 18.1484C 33.7214 18.8203 32.8385 19.1562 31.7031 19.1562C 30.6979 19.1562 29.8776 18.8776 29.2422 18.3203C 28.6068 17.763 28.2448 16.9922 28.1562 16.0078L 29.5234 16.0078C 29.612 16.6589 29.8438 17.151 30.2188 17.4844C 30.5938 17.8125 31.0885 17.9766 31.7031 17.9766C 32.375 17.9766 32.901 17.7474 33.2812 17.2891C 33.6667 16.8307 33.8594 16.1979 33.8594 15.3906C 33.8594 14.6302 33.651 14.0208 33.2344 13.5625C 32.8229 13.099 32.2734 12.8672 31.5859 12.8672C 30.9557 12.8672 30.4609 13.0052 30.1016 13.2812L 29.7188 13.5938L 28.5625 13.2969Z"/>
<path id="path10_fill" d="M 7.59375 13.9766L 2.82031 13.9766L 2.82031 19L 1.32031 19L 1.32031 7.625L 8.36719 7.625L 8.36719 8.85938L 2.82031 8.85938L 2.82031 12.75L 7.59375 12.75L 7.59375 13.9766ZM 9.38281 14.6953C 9.38281 13.8672 9.54427 13.1224 9.86719 12.4609C 10.1953 11.7995 10.6484 11.2891 11.2266 10.9297C 11.8099 10.5703 12.474 10.3906 13.2188 10.3906C 14.3698 10.3906 15.2995 10.7891 16.0078 11.5859C 16.7214 12.3828 17.0781 13.4427 17.0781 14.7656L 17.0781 14.8672C 17.0781 15.6901 16.9193 16.4297 16.6016 17.0859C 16.2891 17.737 15.8385 18.2448 15.25 18.6094C 14.6667 18.974 13.9948 19.1562 13.2344 19.1562C 12.0885 19.1562 11.1589 18.7578 10.4453 17.9609C 9.73698 17.1641 9.38281 16.1094 9.38281 14.7969L 9.38281 14.6953ZM 10.8359 14.8672C 10.8359 15.8047 11.0521 16.5573 11.4844 17.125C 11.9219 17.6927 12.5052 17.9766 13.2344 17.9766C 13.9688 17.9766 14.5521 17.6901 14.9844 17.1172C 15.4167 16.5391 15.6328 15.7318 15.6328 14.6953C 15.6328 13.7682 15.4115 13.0182 14.9688 12.4453C 14.5312 11.8672 13.9479 11.5781 13.2188 11.5781C 12.5052 11.5781 11.9297 11.862 11.4922 12.4297C 11.0547 12.9974 10.8359 13.8099 10.8359 14.8672ZM 22.9766 11.8438C 22.7578 11.8073 22.5208 11.7891 22.2656 11.7891C 21.3177 11.7891 20.6745 12.1927 20.3359 13L 20.3359 19L 18.8906 19L 18.8906 10.5469L 20.2969 10.5469L 20.3203 11.5234C 20.7943 10.7682 21.4661 10.3906 22.3359 10.3906C 22.6172 10.3906 22.8307 10.4271 22.9766 10.5L 22.9766 11.8438ZM 35.4375 14.8672C 35.4375 16.1589 35.1406 17.1979 34.5469 17.9844C 33.9531 18.7656 33.1562 19.1562 32.1562 19.1562C 31.0885 19.1562 30.263 18.7786 29.6797 18.0234L 29.6094 19L 28.2812 19L 28.2812 7L 29.7266 7L 29.7266 11.4766C 30.3099 10.7526 31.1146 10.3906 32.1406 10.3906C 33.1667 10.3906 33.9714 10.7786 34.5547 11.5547C 35.1432 12.3307 35.4375 13.3932 35.4375 14.7422L 35.4375 14.8672ZM 33.9922 14.7031C 33.9922 13.7188 33.8021 12.9583 33.4219 12.4219C 33.0417 11.8854 32.4948 11.6172 31.7812 11.6172C 30.8281 11.6172 30.1432 12.0599 29.7266 12.9453L 29.7266 16.6016C 30.1693 17.487 30.8594 17.9297 31.7969 17.9297C 32.4896 17.9297 33.0286 17.6615 33.4141 17.125C 33.7995 16.5885 33.9922 15.7812 33.9922 14.7031ZM 36.8828 14.6953C 36.8828 13.8672 37.0443 13.1224 37.3672 12.4609C 37.6953 11.7995 38.1484 11.2891 38.7266 10.9297C 39.3099 10.5703 39.974 10.3906 40.7188 10.3906C 41.8698 10.3906 42.7995 10.7891 43.5078 11.5859C 44.2214 12.3828 44.5781 13.4427 44.5781 14.7656L 44.5781 14.8672C 44.5781 15.6901 44.4193 16.4297 44.1016 17.0859C 43.7891 17.737 43.3385 18.2448 42.75 18.6094C 42.1667 18.974 41.4948 19.1562 40.7344 19.1562C 39.5885 19.1562 38.6589 18.7578 37.9453 17.9609C 37.237 17.1641 36.8828 16.1094 36.8828 14.7969L 36.8828 14.6953ZM 38.3359 14.8672C 38.3359 15.8047 38.5521 16.5573 38.9844 17.125C 39.4219 17.6927 40.0052 17.9766 40.7344 17.9766C 41.4688 17.9766 42.0521 17.6901 42.4844 17.1172C 42.9167 16.5391 43.1328 15.7318 43.1328 14.6953C 43.1328 13.7682 42.9115 13.0182 42.4688 12.4453C 42.0312 11.8672 41.4479 11.5781 40.7188 11.5781C 40.0052 11.5781 39.4297 11.862 38.9922 12.4297C 38.5547 12.9974 38.3359 13.8099 38.3359 14.8672ZM 51.6094 19C 51.526 18.8333 51.4583 18.5365 51.4062 18.1094C 50.7344 18.8073 49.9323 19.1562 49 19.1562C 48.1667 19.1562 47.4818 18.9219 46.9453 18.4531C 46.4141 17.9792 46.1484 17.3802 46.1484 16.6562C 46.1484 15.776 46.4818 15.0938 47.1484 14.6094C 47.8203 14.1198 48.763 13.875 49.9766 13.875L 51.3828 13.875L 51.3828 13.2109C 51.3828 12.7057 51.2318 12.3047 50.9297 12.0078C 50.6276 11.7057 50.1823 11.5547 49.5938 11.5547C 49.0781 11.5547 48.6458 11.6849 48.2969 11.9453C 47.9479 12.2057 47.7734 12.5208 47.7734 12.8906L 46.3203 12.8906C 46.3203 12.4688 46.4688 12.0625 46.7656 11.6719C 47.0677 11.276 47.474 10.9635 47.9844 10.7344C 48.5 10.5052 49.0651 10.3906 49.6797 10.3906C 50.6536 10.3906 51.4167 10.6354 51.9688 11.125C 52.5208 11.6094 52.8073 12.2786 52.8281 13.1328L 52.8281 17.0234C 52.8281 17.7995 52.9271 18.4167 53.125 18.875L 53.125 19L 51.6094 19ZM 49.2109 17.8984C 49.6641 17.8984 50.0938 17.7812 50.5 17.5469C 50.9062 17.3125 51.2005 17.0078 51.3828 16.6328L 51.3828 14.8984L 50.25 14.8984C 48.4792 14.8984 47.5938 15.4167 47.5938 16.4531C 47.5938 16.9062 47.7448 17.2604 48.0469 17.5156C 48.349 17.7708 48.737 17.8984 49.2109 17.8984ZM 57.0547 8.5L 57.0547 10.5469L 58.6328 10.5469L 58.6328 11.6641L 57.0547 11.6641L 57.0547 16.9062C 57.0547 17.2448 57.125 17.5 57.2656 17.6719C 57.4062 17.8385 57.6458 17.9219 57.9844 17.9219C 58.151 17.9219 58.3802 17.8906 58.6719 17.8281L 58.6719 19C 58.2917 19.1042 57.9219 19.1562 57.5625 19.1562C 56.9167 19.1562 56.4297 18.9609 56.1016 18.5703C 55.7734 18.1797 55.6094 17.625 55.6094 16.9062L 55.6094 11.6641L 54.0703 11.6641L 54.0703 10.5469L 55.6094 10.5469L 55.6094 8.5L 57.0547 8.5Z"/>
<path id="path11_fill" d="M 7.59375 13.9766L 2.82031 13.9766L 2.82031 19L 1.32031 19L 1.32031 7.625L 8.36719 7.625L 8.36719 8.85938L 2.82031 8.85938L 2.82031 12.75L 7.59375 12.75L 7.59375 13.9766ZM 9.38281 14.6953C 9.38281 13.8672 9.54427 13.1224 9.86719 12.4609C 10.1953 11.7995 10.6484 11.2891 11.2266 10.9297C 11.8099 10.5703 12.474 10.3906 13.2188 10.3906C 14.3698 10.3906 15.2995 10.7891 16.0078 11.5859C 16.7214 12.3828 17.0781 13.4427 17.0781 14.7656L 17.0781 14.8672C 17.0781 15.6901 16.9193 16.4297 16.6016 17.0859C 16.2891 17.737 15.8385 18.2448 15.25 18.6094C 14.6667 18.974 13.9948 19.1562 13.2344 19.1562C 12.0885 19.1562 11.1589 18.7578 10.4453 17.9609C 9.73698 17.1641 9.38281 16.1094 9.38281 14.7969L 9.38281 14.6953ZM 10.8359 14.8672C 10.8359 15.8047 11.0521 16.5573 11.4844 17.125C 11.9219 17.6927 12.5052 17.9766 13.2344 17.9766C 13.9688 17.9766 14.5521 17.6901 14.9844 17.1172C 15.4167 16.5391 15.6328 15.7318 15.6328 14.6953C 15.6328 13.7682 15.4115 13.0182 14.9688 12.4453C 14.5312 11.8672 13.9479 11.5781 13.2188 11.5781C 12.5052 11.5781 11.9297 11.862 11.4922 12.4297C 11.0547 12.9974 10.8359 13.8099 10.8359 14.8672ZM 22.9766 11.8438C 22.7578 11.8073 22.5208 11.7891 22.2656 11.7891C 21.3177 11.7891 20.6745 12.1927 20.3359 13L 20.3359 19L 18.8906 19L 18.8906 10.5469L 20.2969 10.5469L 20.3203 11.5234C 20.7943 10.7682 21.4661 10.3906 22.3359 10.3906C 22.6172 10.3906 22.8307 10.4271 22.9766 10.5L 22.9766 11.8438ZM 35.4219 14.8672C 35.4219 16.1536 35.1276 17.1901 34.5391 17.9766C 33.9505 18.763 33.1536 19.1562 32.1484 19.1562C 31.1224 19.1562 30.3151 18.8307 29.7266 18.1797L 29.7266 22.25L 28.2812 22.25L 28.2812 10.5469L 29.6016 10.5469L 29.6719 11.4844C 30.2604 10.7552 31.0781 10.3906 32.125 10.3906C 33.1406 10.3906 33.9427 10.7734 34.5312 11.5391C 35.125 12.3047 35.4219 13.3698 35.4219 14.7344L 35.4219 14.8672ZM 33.9766 14.7031C 33.9766 13.75 33.7734 12.9974 33.3672 12.4453C 32.9609 11.8932 32.4036 11.6172 31.6953 11.6172C 30.8203 11.6172 30.1641 12.0052 29.7266 12.7812L 29.7266 16.8203C 30.1589 17.5911 30.8203 17.9766 31.7109 17.9766C 32.4036 17.9766 32.9531 17.7031 33.3594 17.1562C 33.7708 16.6042 33.9766 15.7865 33.9766 14.7031ZM 42.4844 19C 42.401 18.8333 42.3333 18.5365 42.2812 18.1094C 41.6094 18.8073 40.8073 19.1562 39.875 19.1562C 39.0417 19.1562 38.3568 18.9219 37.8203 18.4531C 37.2891 17.9792 37.0234 17.3802 37.0234 16.6562C 37.0234 15.776 37.3568 15.0938 38.0234 14.6094C 38.6953 14.1198 39.638 13.875 40.8516 13.875L 42.2578 13.875L 42.2578 13.2109C 42.2578 12.7057 42.1068 12.3047 41.8047 12.0078C 41.5026 11.7057 41.0573 11.5547 40.4688 11.5547C 39.9531 11.5547 39.5208 11.6849 39.1719 11.9453C 38.8229 12.2057 38.6484 12.5208 38.6484 12.8906L 37.1953 12.8906C 37.1953 12.4688 37.3438 12.0625 37.6406 11.6719C 37.9427 11.276 38.349 10.9635 38.8594 10.7344C 39.375 10.5052 39.9401 10.3906 40.5547 10.3906C 41.5286 10.3906 42.2917 10.6354 42.8438 11.125C 43.3958 11.6094 43.6823 12.2786 43.7031 13.1328L 43.7031 17.0234C 43.7031 17.7995 43.8021 18.4167 44 18.875L 44 19L 42.4844 19ZM 40.0859 17.8984C 40.5391 17.8984 40.9688 17.7812 41.375 17.5469C 41.7812 17.3125 42.0755 17.0078 42.2578 16.6328L 42.2578 14.8984L 41.125 14.8984C 39.3542 14.8984 38.4688 15.4167 38.4688 16.4531C 38.4688 16.9062 38.6198 17.2604 38.9219 17.5156C 39.224 17.7708 39.612 17.8984 40.0859 17.8984ZM 50.8906 16.7578C 50.8906 16.3672 50.7422 16.0651 50.4453 15.8516C 50.1536 15.6328 49.6406 15.4453 48.9062 15.2891C 48.1771 15.1328 47.5964 14.9453 47.1641 14.7266C 46.737 14.5078 46.4193 14.2474 46.2109 13.9453C 46.0078 13.6432 45.9062 13.2839 45.9062 12.8672C 45.9062 12.1745 46.1979 11.5885 46.7812 11.1094C 47.3698 10.6302 48.1198 10.3906 49.0312 10.3906C 49.9896 10.3906 50.7656 10.638 51.3594 11.1328C 51.9583 11.6276 52.2578 12.2604 52.2578 13.0312L 50.8047 13.0312C 50.8047 12.6354 50.6354 12.2943 50.2969 12.0078C 49.9635 11.7214 49.5417 11.5781 49.0312 11.5781C 48.5052 11.5781 48.0938 11.6927 47.7969 11.9219C 47.5 12.151 47.3516 12.4505 47.3516 12.8203C 47.3516 13.1693 47.4896 13.4323 47.7656 13.6094C 48.0417 13.7865 48.5391 13.9557 49.2578 14.1172C 49.9818 14.2786 50.5677 14.4714 51.0156 14.6953C 51.4635 14.9193 51.7943 15.1901 52.0078 15.5078C 52.2266 15.8203 52.3359 16.2031 52.3359 16.6562C 52.3359 17.4115 52.0339 18.0182 51.4297 18.4766C 50.8255 18.9297 50.0417 19.1562 49.0781 19.1562C 48.401 19.1562 47.8021 19.0365 47.2812 18.7969C 46.7604 18.5573 46.3516 18.224 46.0547 17.7969C 45.763 17.3646 45.6172 16.8984 45.6172 16.3984L 47.0625 16.3984C 47.0885 16.8828 47.2812 17.2682 47.6406 17.5547C 48.0052 17.8359 48.4844 17.9766 49.0781 17.9766C 49.625 17.9766 50.0625 17.8672 50.3906 17.6484C 50.724 17.4245 50.8906 17.1276 50.8906 16.7578ZM 59.1406 16.7578C 59.1406 16.3672 58.9922 16.0651 58.6953 15.8516C 58.4036 15.6328 57.8906 15.4453 57.1562 15.2891C 56.4271 15.1328 55.8464 14.9453 55.4141 14.7266C 54.987 14.5078 54.6693 14.2474 54.4609 13.9453C 54.2578 13.6432 54.1562 13.2839 54.1562 12.8672C 54.1562 12.1745 54.4479 11.5885 55.0312 11.1094C 55.6198 10.6302 56.3698 10.3906 57.2812 10.3906C 58.2396 10.3906 59.0156 10.638 59.6094 11.1328C 60.2083 11.6276 60.5078 12.2604 60.5078 13.0312L 59.0547 13.0312C 59.0547 12.6354 58.8854 12.2943 58.5469 12.0078C 58.2135 11.7214 57.7917 11.5781 57.2812 11.5781C 56.7552 11.5781 56.3438 11.6927 56.0469 11.9219C 55.75 12.151 55.6016 12.4505 55.6016 12.8203C 55.6016 13.1693 55.7396 13.4323 56.0156 13.6094C 56.2917 13.7865 56.7891 13.9557 57.5078 14.1172C 58.2318 14.2786 58.8177 14.4714 59.2656 14.6953C 59.7135 14.9193 60.0443 15.1901 60.2578 15.5078C 60.4766 15.8203 60.5859 16.2031 60.5859 16.6562C 60.5859 17.4115 60.2839 18.0182 59.6797 18.4766C 59.0755 18.9297 58.2917 19.1562 57.3281 19.1562C 56.651 19.1562 56.0521 19.0365 55.5312 18.7969C 55.0104 18.5573 54.6016 18.224 54.3047 17.7969C 54.013 17.3646 53.8672 16.8984 53.8672 16.3984L 55.3125 16.3984C 55.3385 16.8828 55.5312 17.2682 55.8906 17.5547C 56.2552 17.8359 56.7344 17.9766 57.3281 17.9766C 57.875 17.9766 58.3125 17.8672 58.6406 17.6484C 58.974 17.4245 59.1406 17.1276 59.1406 16.7578ZM 65.9766 19.1562C 64.8307 19.1562 63.8984 18.7812 63.1797 18.0312C 62.4609 17.276 62.1016 16.2682 62.1016 15.0078L 62.1016 14.7422C 62.1016 13.9036 62.2604 13.1562 62.5781 12.5C 62.901 11.8385 63.349 11.3229 63.9219 10.9531C 64.5 10.5781 65.125 10.3906 65.7969 10.3906C 66.8958 10.3906 67.75 10.7526 68.3594 11.4766C 68.9688 12.2005 69.2734 13.237 69.2734 14.5859L 69.2734 15.1875L 63.5469 15.1875C 63.5677 16.0208 63.8099 16.6953 64.2734 17.2109C 64.7422 17.7214 65.3359 17.9766 66.0547 17.9766C 66.5651 17.9766 66.9974 17.8724 67.3516 17.6641C 67.7057 17.4557 68.0156 17.1797 68.2812 16.8359L 69.1641 17.5234C 68.4557 18.612 67.3932 19.1562 65.9766 19.1562ZM 65.7969 11.5781C 65.2135 11.5781 64.724 11.7917 64.3281 12.2188C 63.9323 12.6406 63.6875 13.2344 63.5938 14L 67.8281 14L 67.8281 13.8906C 67.7865 13.1562 67.5885 12.5885 67.2344 12.1875C 66.8802 11.7812 66.401 11.5781 65.7969 11.5781ZM 72.3203 10.5469L 72.3672 11.6094C 73.013 10.7969 73.8568 10.3906 74.8984 10.3906C 76.6849 10.3906 77.5859 11.3984 77.6016 13.4141L 77.6016 19L 76.1562 19L 76.1562 13.4062C 76.151 12.7969 76.0104 12.3464 75.7344 12.0547C 75.4635 11.763 75.0391 11.6172 74.4609 11.6172C 73.9922 11.6172 73.5807 11.7422 73.2266 11.9922C 72.8724 12.2422 72.5964 12.5703 72.3984 12.9766L 72.3984 19L 70.9531 19L 70.9531 10.5469L 72.3203 10.5469ZM 79.4375 14.7031C 79.4375 13.3854 79.7422 12.3385 80.3516 11.5625C 80.9609 10.7812 81.7682 10.3906 82.7734 10.3906C 83.8047 10.3906 84.6094 10.7552 85.1875 11.4844L 85.2578 10.5469L 86.5781 10.5469L 86.5781 18.7969C 86.5781 19.8906 86.2526 20.7526 85.6016 21.3828C 84.9557 22.013 84.0859 22.3281 82.9922 22.3281C 82.3828 22.3281 81.7865 22.1979 81.2031 21.9375C 80.6198 21.6771 80.1745 21.3203 79.8672 20.8672L 80.6172 20C 81.237 20.7656 81.9948 21.1484 82.8906 21.1484C 83.5938 21.1484 84.1406 20.9505 84.5312 20.5547C 84.9271 20.1589 85.125 19.6016 85.125 18.8828L 85.125 18.1562C 84.5469 18.8229 83.7578 19.1562 82.7578 19.1562C 81.7682 19.1562 80.9661 18.7578 80.3516 17.9609C 79.7422 17.1641 79.4375 16.0781 79.4375 14.7031ZM 80.8906 14.8672C 80.8906 15.8203 81.0859 16.5703 81.4766 17.1172C 81.8672 17.6589 82.4141 17.9297 83.1172 17.9297C 84.0286 17.9297 84.6979 17.5156 85.125 16.6875L 85.125 12.8281C 84.6823 12.0208 84.0182 11.6172 83.1328 11.6172C 82.4297 11.6172 81.8802 11.8906 81.4844 12.4375C 81.0885 12.9844 80.8906 13.7943 80.8906 14.8672ZM 92.2734 19.1562C 91.1276 19.1562 90.1953 18.7812 89.4766 18.0312C 88.7578 17.276 88.3984 16.2682 88.3984 15.0078L 88.3984 14.7422C 88.3984 13.9036 88.5573 13.1562 88.875 12.5C 89.1979 11.8385 89.6458 11.3229 90.2188 10.9531C 90.7969 10.5781 91.4219 10.3906 92.0938 10.3906C 93.1927 10.3906 94.0469 10.7526 94.6562 11.4766C 95.2656 12.2005 95.5703 13.237 95.5703 14.5859L 95.5703 15.1875L 89.8438 15.1875C 89.8646 16.0208 90.1068 16.6953 90.5703 17.2109C 91.0391 17.7214 91.6328 17.9766 92.3516 17.9766C 92.862 17.9766 93.2943 17.8724 93.6484 17.6641C 94.0026 17.4557 94.3125 17.1797 94.5781 16.8359L 95.4609 17.5234C 94.7526 18.612 93.6901 19.1562 92.2734 19.1562ZM 92.0938 11.5781C 91.5104 11.5781 91.0208 11.7917 90.625 12.2188C 90.2292 12.6406 89.9844 13.2344 89.8906 14L 94.125 14L 94.125 13.8906C 94.0833 13.1562 93.8854 12.5885 93.5312 12.1875C 93.1771 11.7812 92.6979 11.5781 92.0938 11.5781ZM 101.336 11.8438C 101.117 11.8073 100.88 11.7891 100.625 11.7891C 99.6771 11.7891 99.0339 12.1927 98.6953 13L 98.6953 19L 97.25 19L 97.25 10.5469L 98.6562 10.5469L 98.6797 11.5234C 99.1536 10.7682 99.8255 10.3906 100.695 10.3906C 100.977 10.3906 101.19 10.4271 101.336 10.5L 101.336 11.8438Z"/>
<path id="path12_fill" d="M 6.63281 14.7734L 3.63281 14.7734C 3.65365 15.7891 3.89844 16.5703 4.36719 17.1172C 4.83594 17.6641 5.5 17.9375 6.35938 17.9375C 6.96354 17.9375 7.53125 17.849 8.0625 17.6719L 8.21875 18.9219C 7.59375 19.0781 6.96875 19.1562 6.34375 19.1562C 5.05208 19.1562 4.03385 18.776 3.28906 18.0156C 2.54948 17.25 2.16406 16.1693 2.13281 14.7734L 0.742188 14.7734L 0.742188 13.8047L 2.13281 13.8047L 2.13281 12.7344L 0.742188 12.7344L 0.742188 11.7578L 2.13281 11.7578C 2.1849 10.3932 2.58073 9.33854 3.32031 8.59375C 4.0651 7.84375 5.07031 7.46875 6.33594 7.46875C 6.88802 7.46875 7.51562 7.54948 8.21875 7.71094L 8.0625 8.97656C 7.49479 8.79427 6.92448 8.70312 6.35156 8.70312C 5.4974 8.70312 4.83854 8.96875 4.375 9.5C 3.91667 10.026 3.67188 10.7786 3.64062 11.7578L 6.63281 11.7578L 6.63281 12.7344L 3.63281 12.7344L 3.63281 13.8047L 6.63281 13.8047L 6.63281 14.7734ZM 10.5938 13.2969L 11.1719 7.625L 17 7.625L 17 8.96094L 12.3984 8.96094L 12.0547 12.0625C 12.612 11.7344 13.2448 11.5703 13.9531 11.5703C 14.9896 11.5703 15.8125 11.9141 16.4219 12.6016C 17.0312 13.2839 17.3359 14.2083 17.3359 15.375C 17.3359 16.5469 17.0182 17.4714 16.3828 18.1484C 15.7526 18.8203 14.8698 19.1562 13.7344 19.1562C 12.7292 19.1562 11.9089 18.8776 11.2734 18.3203C 10.638 17.763 10.276 16.9922 10.1875 16.0078L 11.5547 16.0078C 11.6432 16.6589 11.875 17.151 12.25 17.4844C 12.625 17.8125 13.1198 17.9766 13.7344 17.9766C 14.4062 17.9766 14.9323 17.7474 15.3125 17.2891C 15.6979 16.8307 15.8906 16.1979 15.8906 15.3906C 15.8906 14.6302 15.6823 14.0208 15.2656 13.5625C 14.8542 13.099 14.3047 12.8672 13.6172 12.8672C 12.987 12.8672 12.4922 13.0052 12.1328 13.2812L 11.75 13.5938L 10.5938 13.2969ZM 25.0156 15.1797L 26.5938 15.1797L 26.5938 16.3594L 25.0156 16.3594L 25.0156 19L 23.5625 19L 23.5625 16.3594L 18.3828 16.3594L 18.3828 15.5078L 23.4766 7.625L 25.0156 7.625L 25.0156 15.1797ZM 20.0234 15.1797L 23.5625 15.1797L 23.5625 9.60156L 23.3906 9.91406L 20.0234 15.1797ZM 28.5625 13.2969L 29.1406 7.625L 34.9688 7.625L 34.9688 8.96094L 30.3672 8.96094L 30.0234 12.0625C 30.5807 11.7344 31.2135 11.5703 31.9219 11.5703C 32.9583 11.5703 33.7812 11.9141 34.3906 12.6016C 35 13.2839 35.3047 14.2083 35.3047 15.375C 35.3047 16.5469 34.987 17.4714 34.3516 18.1484C 33.7214 18.8203 32.8385 19.1562 31.7031 19.1562C 30.6979 19.1562 29.8776 18.8776 29.2422 18.3203C 28.6068 17.763 28.2448 16.9922 28.1562 16.0078L 29.5234 16.0078C 29.612 16.6589 29.8438 17.151 30.2188 17.4844C 30.5938 17.8125 31.0885 17.9766 31.7031 17.9766C 32.375 17.9766 32.901 17.7474 33.2812 17.2891C 33.6667 16.8307 33.8594 16.1979 33.8594 15.3906C 33.8594 14.6302 33.651 14.0208 33.2344 13.5625C 32.8229 13.099 32.2734 12.8672 31.5859 12.8672C 30.9557 12.8672 30.4609 13.0052 30.1016 13.2812L 29.7188 13.5938L 28.5625 13.2969ZM 37.5469 13.2969L 38.125 7.625L 43.9531 7.625L 43.9531 8.96094L 39.3516 8.96094L 39.0078 12.0625C 39.5651 11.7344 40.1979 11.5703 40.9062 11.5703C 41.9427 11.5703 42.7656 11.9141 43.375 12.6016C 43.9844 13.2839 44.2891 14.2083 44.2891 15.375C 44.2891 16.5469 43.9714 17.4714 43.3359 18.1484C 42.7057 18.8203 41.8229 19.1562 40.6875 19.1562C 39.6823 19.1562 38.862 18.8776 38.2266 18.3203C 37.5911 17.763 37.2292 16.9922 37.1406 16.0078L 38.5078 16.0078C 38.5964 16.6589 38.8281 17.151 39.2031 17.4844C 39.5781 17.8125 40.0729 17.9766 40.6875 17.9766C 41.3594 17.9766 41.8854 17.7474 42.2656 17.2891C 42.651 16.8307 42.8438 16.1979 42.8438 15.3906C 42.8438 14.6302 42.6354 14.0208 42.2188 13.5625C 41.8073 13.099 41.2578 12.8672 40.5703 12.8672C 39.9401 12.8672 39.4453 13.0052 39.0859 13.2812L 38.7031 13.5938L 37.5469 13.2969Z"/>
<path id="path13_fill" d="M 6.63281 14.7734L 3.63281 14.7734C 3.65365 15.7891 3.89844 16.5703 4.36719 17.1172C 4.83594 17.6641 5.5 17.9375 6.35938 17.9375C 6.96354 17.9375 7.53125 17.849 8.0625 17.6719L 8.21875 18.9219C 7.59375 19.0781 6.96875 19.1562 6.34375 19.1562C 5.05208 19.1562 4.03385 18.776 3.28906 18.0156C 2.54948 17.25 2.16406 16.1693 2.13281 14.7734L 0.742188 14.7734L 0.742188 13.8047L 2.13281 13.8047L 2.13281 12.7344L 0.742188 12.7344L 0.742188 11.7578L 2.13281 11.7578C 2.1849 10.3932 2.58073 9.33854 3.32031 8.59375C 4.0651 7.84375 5.07031 7.46875 6.33594 7.46875C 6.88802 7.46875 7.51562 7.54948 8.21875 7.71094L 8.0625 8.97656C 7.49479 8.79427 6.92448 8.70312 6.35156 8.70312C 5.4974 8.70312 4.83854 8.96875 4.375 9.5C 3.91667 10.026 3.67188 10.7786 3.64062 11.7578L 6.63281 11.7578L 6.63281 12.7344L 3.63281 12.7344L 3.63281 13.8047L 6.63281 13.8047L 6.63281 14.7734ZM 15.6016 7.61719L 15.6016 8.84375L 15.3359 8.84375C 14.2109 8.86458 13.3151 9.19792 12.6484 9.84375C 11.9818 10.4896 11.5964 11.3984 11.4922 12.5703C 12.0911 11.8828 12.9089 11.5391 13.9453 11.5391C 14.9349 11.5391 15.724 11.888 16.3125 12.5859C 16.9062 13.2839 17.2031 14.1849 17.2031 15.2891C 17.2031 16.4609 16.8828 17.3984 16.2422 18.1016C 15.6068 18.8047 14.7526 19.1562 13.6797 19.1562C 12.5911 19.1562 11.7083 18.7396 11.0312 17.9062C 10.3542 17.0677 10.0156 15.9896 10.0156 14.6719L 10.0156 14.1172C 10.0156 12.0234 10.4609 10.4245 11.3516 9.32031C 12.2474 8.21094 13.5781 7.64323 15.3438 7.61719L 15.6016 7.61719ZM 13.7031 12.7422C 13.2083 12.7422 12.7526 12.8906 12.3359 13.1875C 11.9193 13.4844 11.6302 13.8568 11.4688 14.3047L 11.4688 14.8359C 11.4688 15.7734 11.6797 16.5286 12.1016 17.1016C 12.5234 17.6745 13.0495 17.9609 13.6797 17.9609C 14.3307 17.9609 14.8411 17.7214 15.2109 17.2422C 15.5859 16.763 15.7734 16.1354 15.7734 15.3594C 15.7734 14.5781 15.5833 13.9479 15.2031 13.4688C 14.8281 12.9844 14.3281 12.7422 13.7031 12.7422ZM 23.6641 19L 22.2109 19L 22.2109 9.36719L 19.2969 10.4375L 19.2969 9.125L 23.4375 7.57031L 23.6641 7.57031L 23.6641 19ZM 35.0312 14.1484C 35.0312 15.8411 34.7422 17.099 34.1641 17.9219C 33.5859 18.7448 32.6823 19.1562 31.4531 19.1562C 30.2396 19.1562 29.3411 18.7552 28.7578 17.9531C 28.1745 17.1458 27.8724 15.9427 27.8516 14.3438L 27.8516 12.4141C 27.8516 10.7422 28.1406 9.5 28.7188 8.6875C 29.2969 7.875 30.2031 7.46875 31.4375 7.46875C 32.6615 7.46875 33.5625 7.86198 34.1406 8.64844C 34.7188 9.42969 35.0156 10.638 35.0312 12.2734L 35.0312 14.1484ZM 33.5859 12.1719C 33.5859 10.9479 33.4141 10.0573 33.0703 9.5C 32.7266 8.9375 32.1823 8.65625 31.4375 8.65625C 30.6979 8.65625 30.1589 8.9349 29.8203 9.49219C 29.4818 10.0495 29.3073 10.9062 29.2969 12.0625L 29.2969 14.375C 29.2969 15.6042 29.474 16.513 29.8281 17.1016C 30.1875 17.6849 30.7292 17.9766 31.4531 17.9766C 32.1667 17.9766 32.6953 17.7005 33.0391 17.1484C 33.388 16.5964 33.5703 15.7266 33.5859 14.5391L 33.5859 12.1719Z"/>
<path id="path14_fill" fill-rule="evenodd" d="M 0 4C 0 1.79086 1.79086 0 4 0L 156 0C 158.209 0 160 1.79086 160 4L 160 38C 160 40.2091 158.209 42 156 42L 4 42C 1.79086 42 0 40.2091 0 38L 0 4Z"/>
<path id="path15_fill" fill-rule="evenodd" d="M 0 4C 0 1.79086 1.79086 0 4 0L 151 0L 151 42L 4 42C 1.79086 42 0 40.2091 0 38L 0 4Z"/>
<path id="path16_fill" d="M 3.21875 14.5469L 3.21875 19L 1.71875 19L 1.71875 7.625L 5.91406 7.625C 7.15885 7.625 8.13281 7.94271 8.83594 8.57812C 9.54427 9.21354 9.89844 10.0547 9.89844 11.1016C 9.89844 12.2057 9.55208 13.0573 8.85938 13.6562C 8.17188 14.25 7.1849 14.5469 5.89844 14.5469L 3.21875 14.5469ZM 3.21875 13.3203L 5.91406 13.3203C 6.71615 13.3203 7.33073 13.1328 7.75781 12.7578C 8.1849 12.3776 8.39844 11.8307 8.39844 11.1172C 8.39844 10.4401 8.1849 9.89844 7.75781 9.49219C 7.33073 9.08594 6.74479 8.875 6 8.85938L 3.21875 8.85938L 3.21875 13.3203ZM 15.6719 11.8438C 15.4531 11.8073 15.2161 11.7891 14.9609 11.7891C 14.013 11.7891 13.3698 12.1927 13.0312 13L 13.0312 19L 11.5859 19L 11.5859 10.5469L 12.9922 10.5469L 13.0156 11.5234C 13.4896 10.7682 14.1615 10.3906 15.0312 10.3906C 15.3125 10.3906 15.526 10.4271 15.6719 10.5L 15.6719 11.8438ZM 18.5781 19L 17.1328 19L 17.1328 10.5469L 18.5781 10.5469L 18.5781 19ZM 17.0156 8.30469C 17.0156 8.07031 17.0859 7.8724 17.2266 7.71094C 17.3724 7.54948 17.5859 7.46875 17.8672 7.46875C 18.1484 7.46875 18.362 7.54948 18.5078 7.71094C 18.6536 7.8724 18.7266 8.07031 18.7266 8.30469C 18.7266 8.53906 18.6536 8.73438 18.5078 8.89062C 18.362 9.04688 18.1484 9.125 17.8672 9.125C 17.5859 9.125 17.3724 9.04688 17.2266 8.89062C 17.0859 8.73438 17.0156 8.53906 17.0156 8.30469ZM 24.2891 17.9766C 24.8047 17.9766 25.2552 17.8203 25.6406 17.5078C 26.026 17.1953 26.2396 16.8047 26.2812 16.3359L 27.6484 16.3359C 27.6224 16.8203 27.4557 17.2812 27.1484 17.7188C 26.8411 18.1562 26.4297 18.5052 25.9141 18.7656C 25.4036 19.026 24.862 19.1562 24.2891 19.1562C 23.138 19.1562 22.2214 18.7734 21.5391 18.0078C 20.862 17.237 20.5234 16.1849 20.5234 14.8516L 20.5234 14.6094C 20.5234 13.7865 20.6745 13.0547 20.9766 12.4141C 21.2786 11.7734 21.7109 11.276 22.2734 10.9219C 22.8411 10.5677 23.5104 10.3906 24.2812 10.3906C 25.2292 10.3906 26.0156 10.6745 26.6406 11.2422C 27.2708 11.8099 27.6068 12.5469 27.6484 13.4531L 26.2812 13.4531C 26.2396 12.9062 26.0312 12.4583 25.6562 12.1094C 25.2865 11.7552 24.8281 11.5781 24.2812 11.5781C 23.5469 11.5781 22.9766 11.8438 22.5703 12.375C 22.1693 12.901 21.9688 13.6641 21.9688 14.6641L 21.9688 14.9375C 21.9688 15.9115 22.1693 16.6615 22.5703 17.1875C 22.9714 17.7135 23.5443 17.9766 24.2891 17.9766ZM 32.7812 19.1562C 31.6354 19.1562 30.7031 18.7812 29.9844 18.0312C 29.2656 17.276 28.9062 16.2682 28.9062 15.0078L 28.9062 14.7422C 28.9062 13.9036 29.0651 13.1562 29.3828 12.5C 29.7057 11.8385 30.1536 11.3229 30.7266 10.9531C 31.3047 10.5781 31.9297 10.3906 32.6016 10.3906C 33.7005 10.3906 34.5547 10.7526 35.1641 11.4766C 35.7734 12.2005 36.0781 13.237 36.0781 14.5859L 36.0781 15.1875L 30.3516 15.1875C 30.3724 16.0208 30.6146 16.6953 31.0781 17.2109C 31.5469 17.7214 32.1406 17.9766 32.8594 17.9766C 33.3698 17.9766 33.8021 17.8724 34.1562 17.6641C 34.5104 17.4557 34.8203 17.1797 35.0859 16.8359L 35.9688 17.5234C 35.2604 18.612 34.1979 19.1562 32.7812 19.1562ZM 32.6016 11.5781C 32.0182 11.5781 31.5286 11.7917 31.1328 12.2188C 30.737 12.6406 30.4922 13.2344 30.3984 14L 34.6328 14L 34.6328 13.8906C 34.5911 13.1562 34.3932 12.5885 34.0391 12.1875C 33.6849 11.7812 33.2057 11.5781 32.6016 11.5781ZM 48.8672 14.8672C 48.8672 16.1536 48.5729 17.1901 47.9844 17.9766C 47.3958 18.763 46.599 19.1562 45.5938 19.1562C 44.5677 19.1562 43.7604 18.8307 43.1719 18.1797L 43.1719 22.25L 41.7266 22.25L 41.7266 10.5469L 43.0469 10.5469L 43.1172 11.4844C 43.7057 10.7552 44.5234 10.3906 45.5703 10.3906C 46.5859 10.3906 47.388 10.7734 47.9766 11.5391C 48.5703 12.3047 48.8672 13.3698 48.8672 14.7344L 48.8672 14.8672ZM 47.4219 14.7031C 47.4219 13.75 47.2188 12.9974 46.8125 12.4453C 46.4062 11.8932 45.849 11.6172 45.1406 11.6172C 44.2656 11.6172 43.6094 12.0052 43.1719 12.7812L 43.1719 16.8203C 43.6042 17.5911 44.2656 17.9766 45.1562 17.9766C 45.849 17.9766 46.3984 17.7031 46.8047 17.1562C 47.2161 16.6042 47.4219 15.7865 47.4219 14.7031ZM 54.2188 19.1562C 53.0729 19.1562 52.1406 18.7812 51.4219 18.0312C 50.7031 17.276 50.3438 16.2682 50.3438 15.0078L 50.3438 14.7422C 50.3438 13.9036 50.5026 13.1562 50.8203 12.5C 51.1432 11.8385 51.5911 11.3229 52.1641 10.9531C 52.7422 10.5781 53.3672 10.3906 54.0391 10.3906C 55.138 10.3906 55.9922 10.7526 56.6016 11.4766C 57.2109 12.2005 57.5156 13.237 57.5156 14.5859L 57.5156 15.1875L 51.7891 15.1875C 51.8099 16.0208 52.0521 16.6953 52.5156 17.2109C 52.9844 17.7214 53.5781 17.9766 54.2969 17.9766C 54.8073 17.9766 55.2396 17.8724 55.5938 17.6641C 55.9479 17.4557 56.2578 17.1797 56.5234 16.8359L 57.4062 17.5234C 56.6979 18.612 55.6354 19.1562 54.2188 19.1562ZM 54.0391 11.5781C 53.4557 11.5781 52.9661 11.7917 52.5703 12.2188C 52.1745 12.6406 51.9297 13.2344 51.8359 14L 56.0703 14L 56.0703 13.8906C 56.0286 13.1562 55.8307 12.5885 55.4766 12.1875C 55.1224 11.7812 54.6432 11.5781 54.0391 11.5781ZM 63.2812 11.8438C 63.0625 11.8073 62.8255 11.7891 62.5703 11.7891C 61.6224 11.7891 60.9792 12.1927 60.6406 13L 60.6406 19L 59.1953 19L 59.1953 10.5469L 60.6016 10.5469L 60.625 11.5234C 61.099 10.7682 61.7708 10.3906 62.6406 10.3906C 62.9219 10.3906 63.1354 10.4271 63.2812 10.5L 63.2812 11.8438ZM 76.0703 17.0078L 77.6953 10.5469L 79.1406 10.5469L 76.6797 19L 75.5078 19L 73.4531 12.5938L 71.4531 19L 70.2812 19L 67.8281 10.5469L 69.2656 10.5469L 70.9297 16.875L 72.8984 10.5469L 74.0625 10.5469L 76.0703 17.0078ZM 84.125 19.1562C 82.9792 19.1562 82.0469 18.7812 81.3281 18.0312C 80.6094 17.276 80.25 16.2682 80.25 15.0078L 80.25 14.7422C 80.25 13.9036 80.4089 13.1562 80.7266 12.5C 81.0495 11.8385 81.4974 11.3229 82.0703 10.9531C 82.6484 10.5781 83.2734 10.3906 83.9453 10.3906C 85.0443 10.3906 85.8984 10.7526 86.5078 11.4766C 87.1172 12.2005 87.4219 13.237 87.4219 14.5859L 87.4219 15.1875L 81.6953 15.1875C 81.7161 16.0208 81.9583 16.6953 82.4219 17.2109C 82.8906 17.7214 83.4844 17.9766 84.2031 17.9766C 84.7135 17.9766 85.1458 17.8724 85.5 17.6641C 85.8542 17.4557 86.1641 17.1797 86.4297 16.8359L 87.3125 17.5234C 86.6042 18.612 85.5417 19.1562 84.125 19.1562ZM 83.9453 11.5781C 83.362 11.5781 82.8724 11.7917 82.4766 12.2188C 82.0807 12.6406 81.8359 13.2344 81.7422 14L 85.9766 14L 85.9766 13.8906C 85.9349 13.1562 85.737 12.5885 85.3828 12.1875C 85.0286 11.7812 84.5495 11.5781 83.9453 11.5781ZM 92.6094 19.1562C 91.4635 19.1562 90.5312 18.7812 89.8125 18.0312C 89.0938 17.276 88.7344 16.2682 88.7344 15.0078L 88.7344 14.7422C 88.7344 13.9036 88.8932 13.1562 89.2109 12.5C 89.5339 11.8385 89.9818 11.3229 90.5547 10.9531C 91.1328 10.5781 91.7578 10.3906 92.4297 10.3906C 93.5286 10.3906 94.3828 10.7526 94.9922 11.4766C 95.6016 12.2005 95.9062 13.237 95.9062 14.5859L 95.9062 15.1875L 90.1797 15.1875C 90.2005 16.0208 90.4427 16.6953 90.9062 17.2109C 91.375 17.7214 91.9688 17.9766 92.6875 17.9766C 93.1979 17.9766 93.6302 17.8724 93.9844 17.6641C 94.3385 17.4557 94.6484 17.1797 94.9141 16.8359L 95.7969 17.5234C 95.0885 18.612 94.026 19.1562 92.6094 19.1562ZM 92.4297 11.5781C 91.8464 11.5781 91.3568 11.7917 90.9609 12.2188C 90.5651 12.6406 90.3203 13.2344 90.2266 14L 94.4609 14L 94.4609 13.8906C 94.4193 13.1562 94.2214 12.5885 93.8672 12.1875C 93.513 11.7812 93.0339 11.5781 92.4297 11.5781ZM 99.9453 15.0859L 99.0391 16.0312L 99.0391 19L 97.5938 19L 97.5938 7L 99.0391 7L 99.0391 14.2578L 99.8125 13.3281L 102.445 10.5469L 104.203 10.5469L 100.914 14.0781L 104.586 19L 102.891 19L 99.9453 15.0859Z"/>
<path id="path17_fill" d="M 3.17969 14.5469L 3.17969 19L 1.67969 19L 1.67969 7.625L 5.875 7.625C 7.11979 7.625 8.09375 7.94271 8.79688 8.57812C 9.50521 9.21354 9.85938 10.0547 9.85938 11.1016C 9.85938 12.2057 9.51302 13.0573 8.82031 13.6562C 8.13281 14.25 7.14583 14.5469 5.85938 14.5469L 3.17969 14.5469ZM 3.17969 13.3203L 5.875 13.3203C 6.67708 13.3203 7.29167 13.1328 7.71875 12.7578C 8.14583 12.3776 8.35938 11.8307 8.35938 11.1172C 8.35938 10.4401 8.14583 9.89844 7.71875 9.49219C 7.29167 9.08594 6.70573 8.875 5.96094 8.85938L 3.17969 8.85938L 3.17969 13.3203ZM 15.6328 11.8438C 15.4141 11.8073 15.1771 11.7891 14.9219 11.7891C 13.974 11.7891 13.3307 12.1927 12.9922 13L 12.9922 19L 11.5469 19L 11.5469 10.5469L 12.9531 10.5469L 12.9766 11.5234C 13.4505 10.7682 14.1224 10.3906 14.9922 10.3906C 15.2734 10.3906 15.487 10.4271 15.6328 10.5L 15.6328 11.8438ZM 18.5391 19L 17.0938 19L 17.0938 10.5469L 18.5391 10.5469L 18.5391 19ZM 16.9766 8.30469C 16.9766 8.07031 17.0469 7.8724 17.1875 7.71094C 17.3333 7.54948 17.5469 7.46875 17.8281 7.46875C 18.1094 7.46875 18.3229 7.54948 18.4688 7.71094C 18.6146 7.8724 18.6875 8.07031 18.6875 8.30469C 18.6875 8.53906 18.6146 8.73438 18.4688 8.89062C 18.3229 9.04688 18.1094 9.125 17.8281 9.125C 17.5469 9.125 17.3333 9.04688 17.1875 8.89062C 17.0469 8.73438 16.9766 8.53906 16.9766 8.30469ZM 24.25 17.9766C 24.7656 17.9766 25.2161 17.8203 25.6016 17.5078C 25.987 17.1953 26.2005 16.8047 26.2422 16.3359L 27.6094 16.3359C 27.5833 16.8203 27.4167 17.2812 27.1094 17.7188C 26.8021 18.1562 26.3906 18.5052 25.875 18.7656C 25.3646 19.026 24.8229 19.1562 24.25 19.1562C 23.099 19.1562 22.1823 18.7734 21.5 18.0078C 20.8229 17.237 20.4844 16.1849 20.4844 14.8516L 20.4844 14.6094C 20.4844 13.7865 20.6354 13.0547 20.9375 12.4141C 21.2396 11.7734 21.6719 11.276 22.2344 10.9219C 22.8021 10.5677 23.4714 10.3906 24.2422 10.3906C 25.1901 10.3906 25.9766 10.6745 26.6016 11.2422C 27.2318 11.8099 27.5677 12.5469 27.6094 13.4531L 26.2422 13.4531C 26.2005 12.9062 25.9922 12.4583 25.6172 12.1094C 25.2474 11.7552 24.7891 11.5781 24.2422 11.5781C 23.5078 11.5781 22.9375 11.8438 22.5312 12.375C 22.1302 12.901 21.9297 13.6641 21.9297 14.6641L 21.9297 14.9375C 21.9297 15.9115 22.1302 16.6615 22.5312 17.1875C 22.9323 17.7135 23.5052 17.9766 24.25 17.9766ZM 32.7422 19.1562C 31.5964 19.1562 30.6641 18.7812 29.9453 18.0312C 29.2266 17.276 28.8672 16.2682 28.8672 15.0078L 28.8672 14.7422C 28.8672 13.9036 29.026 13.1562 29.3438 12.5C 29.6667 11.8385 30.1146 11.3229 30.6875 10.9531C 31.2656 10.5781 31.8906 10.3906 32.5625 10.3906C 33.6615 10.3906 34.5156 10.7526 35.125 11.4766C 35.7344 12.2005 36.0391 13.237 36.0391 14.5859L 36.0391 15.1875L 30.3125 15.1875C 30.3333 16.0208 30.5755 16.6953 31.0391 17.2109C 31.5078 17.7214 32.1016 17.9766 32.8203 17.9766C 33.3307 17.9766 33.763 17.8724 34.1172 17.6641C 34.4714 17.4557 34.7812 17.1797 35.0469 16.8359L 35.9297 17.5234C 35.2214 18.612 34.1589 19.1562 32.7422 19.1562ZM 32.5625 11.5781C 31.9792 11.5781 31.4896 11.7917 31.0938 12.2188C 30.6979 12.6406 30.4531 13.2344 30.3594 14L 34.5938 14L 34.5938 13.8906C 34.5521 13.1562 34.3542 12.5885 34 12.1875C 33.6458 11.7812 33.1667 11.5781 32.5625 11.5781ZM 48.8281 14.8672C 48.8281 16.1536 48.5339 17.1901 47.9453 17.9766C 47.3568 18.763 46.5599 19.1562 45.5547 19.1562C 44.5286 19.1562 43.7214 18.8307 43.1328 18.1797L 43.1328 22.25L 41.6875 22.25L 41.6875 10.5469L 43.0078 10.5469L 43.0781 11.4844C 43.6667 10.7552 44.4844 10.3906 45.5312 10.3906C 46.5469 10.3906 47.349 10.7734 47.9375 11.5391C 48.5312 12.3047 48.8281 13.3698 48.8281 14.7344L 48.8281 14.8672ZM 47.3828 14.7031C 47.3828 13.75 47.1797 12.9974 46.7734 12.4453C 46.3672 11.8932 45.8099 11.6172 45.1016 11.6172C 44.2266 11.6172 43.5703 12.0052 43.1328 12.7812L 43.1328 16.8203C 43.5651 17.5911 44.2266 17.9766 45.1172 17.9766C 45.8099 17.9766 46.3594 17.7031 46.7656 17.1562C 47.1771 16.6042 47.3828 15.7865 47.3828 14.7031ZM 54.1797 19.1562C 53.0339 19.1562 52.1016 18.7812 51.3828 18.0312C 50.6641 17.276 50.3047 16.2682 50.3047 15.0078L 50.3047 14.7422C 50.3047 13.9036 50.4635 13.1562 50.7812 12.5C 51.1042 11.8385 51.5521 11.3229 52.125 10.9531C 52.7031 10.5781 53.3281 10.3906 54 10.3906C 55.099 10.3906 55.9531 10.7526 56.5625 11.4766C 57.1719 12.2005 57.4766 13.237 57.4766 14.5859L 57.4766 15.1875L 51.75 15.1875C 51.7708 16.0208 52.013 16.6953 52.4766 17.2109C 52.9453 17.7214 53.5391 17.9766 54.2578 17.9766C 54.7682 17.9766 55.2005 17.8724 55.5547 17.6641C 55.9089 17.4557 56.2188 17.1797 56.4844 16.8359L 57.3672 17.5234C 56.6589 18.612 55.5964 19.1562 54.1797 19.1562ZM 54 11.5781C 53.4167 11.5781 52.9271 11.7917 52.5312 12.2188C 52.1354 12.6406 51.8906 13.2344 51.7969 14L 56.0312 14L 56.0312 13.8906C 55.9896 13.1562 55.7917 12.5885 55.4375 12.1875C 55.0833 11.7812 54.6042 11.5781 54 11.5781ZM 63.2422 11.8438C 63.0234 11.8073 62.7865 11.7891 62.5312 11.7891C 61.5833 11.7891 60.9401 12.1927 60.6016 13L 60.6016 19L 59.1562 19L 59.1562 10.5469L 60.5625 10.5469L 60.5859 11.5234C 61.0599 10.7682 61.7318 10.3906 62.6016 10.3906C 62.8828 10.3906 63.0964 10.4271 63.2422 10.5L 63.2422 11.8438ZM 68.1953 14.7031C 68.1953 13.4062 68.5026 12.3646 69.1172 11.5781C 69.7318 10.7865 70.5365 10.3906 71.5312 10.3906C 72.5208 10.3906 73.3047 10.7292 73.8828 11.4062L 73.8828 7L 75.3281 7L 75.3281 19L 74 19L 73.9297 18.0938C 73.3516 18.8021 72.5469 19.1562 71.5156 19.1562C 70.5365 19.1562 69.737 18.7552 69.1172 17.9531C 68.5026 17.151 68.1953 16.1042 68.1953 14.8125L 68.1953 14.7031ZM 69.6406 14.8672C 69.6406 15.8255 69.8385 16.5755 70.2344 17.1172C 70.6302 17.6589 71.1771 17.9297 71.875 17.9297C 72.7917 17.9297 73.4609 17.5182 73.8828 16.6953L 73.8828 12.8125C 73.4505 12.0156 72.7865 11.6172 71.8906 11.6172C 71.1823 11.6172 70.6302 11.8906 70.2344 12.4375C 69.8385 12.9844 69.6406 13.7943 69.6406 14.8672ZM 82.7969 19C 82.7135 18.8333 82.6458 18.5365 82.5938 18.1094C 81.9219 18.8073 81.1198 19.1562 80.1875 19.1562C 79.3542 19.1562 78.6693 18.9219 78.1328 18.4531C 77.6016 17.9792 77.3359 17.3802 77.3359 16.6562C 77.3359 15.776 77.6693 15.0938 78.3359 14.6094C 79.0078 14.1198 79.9505 13.875 81.1641 13.875L 82.5703 13.875L 82.5703 13.2109C 82.5703 12.7057 82.4193 12.3047 82.1172 12.0078C 81.8151 11.7057 81.3698 11.5547 80.7812 11.5547C 80.2656 11.5547 79.8333 11.6849 79.4844 11.9453C 79.1354 12.2057 78.9609 12.5208 78.9609 12.8906L 77.5078 12.8906C 77.5078 12.4688 77.6562 12.0625 77.9531 11.6719C 78.2552 11.276 78.6615 10.9635 79.1719 10.7344C 79.6875 10.5052 80.2526 10.3906 80.8672 10.3906C 81.8411 10.3906 82.6042 10.6354 83.1562 11.125C 83.7083 11.6094 83.9948 12.2786 84.0156 13.1328L 84.0156 17.0234C 84.0156 17.7995 84.1146 18.4167 84.3125 18.875L 84.3125 19L 82.7969 19ZM 80.3984 17.8984C 80.8516 17.8984 81.2812 17.7812 81.6875 17.5469C 82.0938 17.3125 82.388 17.0078 82.5703 16.6328L 82.5703 14.8984L 81.4375 14.8984C 79.6667 14.8984 78.7812 15.4167 78.7812 16.4531C 78.7812 16.9062 78.9323 17.2604 79.2344 17.5156C 79.5365 17.7708 79.9245 17.8984 80.3984 17.8984ZM 88.9219 16.8828L 90.8906 10.5469L 92.4375 10.5469L 89.0391 20.3047C 88.513 21.7109 87.6771 22.4141 86.5312 22.4141L 86.2578 22.3906L 85.7188 22.2891L 85.7188 21.1172L 86.1094 21.1484C 86.599 21.1484 86.9792 21.0495 87.25 20.8516C 87.526 20.6536 87.7526 20.2917 87.9297 19.7656L 88.25 18.9062L 85.2344 10.5469L 86.8125 10.5469L 88.9219 16.8828Z"/>
</defs>
</svg>
