<svg width="335" height="68" viewBox="0 0 335 68" version="1.1" xmlns="http://www.w3.org/2000/svg" xmlns:xlink="http://www.w3.org/1999/xlink">
<title>Component</title>
<desc>Created using Figma</desc>
<g id="Canvas" transform="translate(-3403 -11549)">
<g id="Component">
<g id="input field copy 10">
<use xlink:href="#path0_fill" transform="translate(3558 11549)" fill="#FFFFFF"/>
<mask id="mask0_outline_ins">
<use xlink:href="#path0_fill" fill="white" transform="translate(3558 11549)"/>
</mask>
<g mask="url(#mask0_outline_ins)">
<use xlink:href="#path1_stroke_2x" transform="translate(3558 11549)" fill="#E0E6ED"/>
</g>
</g>
<g id="input field copy 9">
<use xlink:href="#path2_fill" transform="translate(3403 11549)" fill="#FFFFFF"/>
<mask id="mask1_outline_ins">
<use xlink:href="#path2_fill" fill="white" transform="translate(3403 11549)"/>
</mask>
<g mask="url(#mask1_outline_ins)">
<use xlink:href="#path3_stroke_2x" transform="translate(3403 11549)" fill="#E0E6ED"/>
</g>
</g>
<g id="Bareboat">
<use xlink:href="#path4_fill" transform="translate(3469 11569)" fill="#34495E"/>
</g>
<g id="Captained">
<use xlink:href="#path5_fill" transform="translate(3634 11569)" fill="#34495E"/>
</g>
<g id="Rectangle 4">
<use xlink:href="#path6_fill" transform="translate(3448 11571)" fill="#818FA4"/>
</g>
<g id="Rectangle 4 Copy 3">
<use xlink:href="#path6_fill" transform="matrix(0.707107 -0.707107 0.707107 0.707107 3440 11575.4)" fill="#818FA4"/>
</g>
<g id="Rectangle 4 Copy">
<use xlink:href="#path6_fill" transform="matrix(0.707107 0.707107 -0.707107 0.707107 3456.97 11574)" fill="#818FA4"/>
</g>
<g id="Rectangle 4 Copy 2">
<use xlink:href="#path6_fill" transform="matrix(6.12323e-17 1 -1 6.12323e-17 3461 11582)" fill="#818FA4"/>
</g>
<g id="Oval">
<mask id="mask2_outline_out">
<rect id="mask2_outline_inv" fill="white" x="-2" y="-2" width="18" height="18" transform="translate(3442 11576)"/>
<use xlink:href="#path7_fill" fill="black" transform="translate(3442 11576)"/>
</mask>
<g mask="url(#mask2_outline_out)">
<use xlink:href="#path8_stroke_2x" transform="translate(3442 11576)" fill="#818FA4"/>
</g>
</g>
<g id="Oval 2">
<use xlink:href="#path9_fill" transform="translate(3448 11582)" fill="#FFFFFF"/>
</g>
<g id="Group">
<g id="Fill 7">
<use xlink:href="#path10_fill" transform="translate(3610.59 11577.6)" fill="#818FA4"/>
</g>
<g id="Fill 8">
<use xlink:href="#path11_fill" transform="translate(3601.02 11575)" fill="#818FA4"/>
</g>
</g>
</g>
</g>
<defs>
<path id="path0_fill" fill-rule="evenodd" d="M 0 4C 0 1.79086 1.79086 0 4 0L 176 0C 178.209 0 180 1.79086 180 4L 180 64C 180 66.2091 178.209 68 176 68L 4 68C 1.79086 68 0 66.2091 0 64L 0 4Z"/>
<path id="path1_stroke_2x" d="M 4 1L 176 1L 176 -1L 4 -1L 4 1ZM 179 4L 179 64L 181 64L 181 4L 179 4ZM 176 67L 4 67L 4 69L 176 69L 176 67ZM 1 64L 1 4L -1 4L -1 64L 1 64ZM 4 -1C 1.23858 -1 -1 1.23858 -1 4L 1 4C 1 2.34315 2.34315 1 4 1L 4 -1ZM 176 1C 177.657 1 179 2.34315 179 4L 181 4C 181 1.23858 178.761 -1 176 -1L 176 1ZM 179 64C 179 65.6569 177.657 67 176 67L 176 69C 178.761 69 181 66.7614 181 64L 179 64ZM 4 67C 2.34315 67 1 65.6569 1 64L -1 64C -1 66.7614 1.23858 69 4 69L 4 67Z"/>
<path id="path2_fill" fill-rule="evenodd" d="M 0 4C 0 1.79086 1.79086 0 4 0L 167 0C 167.552 0 168 0.447715 168 1L 168 67C 168 67.5523 167.552 68 167 68L 4 68C 1.79086 68 0 66.2091 0 64L 0 4Z"/>
<path id="path3_stroke_2x" d="M 4 1L 167 1L 167 -1L 4 -1L 4 1ZM 167 1L 167 67L 169 67L 169 1L 167 1ZM 167 67L 4 67L 4 69L 167 69L 167 67ZM 1 64L 1 4L -1 4L -1 64L 1 64ZM 4 -1C 1.23858 -1 -1 1.23858 -1 4L 1 4C 1 2.34315 2.34315 1 4 1L 4 -1ZM 167 1L 169 1C 169 -0.10457 168.105 -1 167 -1L 167 1ZM 167 67L 167 69C 168.105 69 169 68.1046 169 67L 167 67ZM 4 67C 2.34315 67 1 65.6569 1 64L -1 64C -1 66.7614 1.23858 69 4 69L 4 67Z"/>
<path id="path4_fill" d="M 1.32031 19L 1.32031 7.625L 5.03906 7.625C 6.27344 7.625 7.20052 7.88021 7.82031 8.39062C 8.44531 8.90104 8.75781 9.65625 8.75781 10.6562C 8.75781 11.1875 8.60677 11.6589 8.30469 12.0703C 8.0026 12.4766 7.59115 12.7917 7.07031 13.0156C 7.6849 13.1875 8.16927 13.5156 8.52344 14C 8.88281 14.4792 9.0625 15.0521 9.0625 15.7188C 9.0625 16.7396 8.73177 17.5417 8.07031 18.125C 7.40885 18.7083 6.47396 19 5.26562 19L 1.32031 19ZM 2.82031 13.6797L 2.82031 17.7734L 5.29688 17.7734C 5.99479 17.7734 6.54427 17.5938 6.94531 17.2344C 7.35156 16.8698 7.55469 16.3698 7.55469 15.7344C 7.55469 14.3646 6.8099 13.6797 5.32031 13.6797L 2.82031 13.6797ZM 2.82031 12.4766L 5.08594 12.4766C 5.74219 12.4766 6.26562 12.3125 6.65625 11.9844C 7.05208 11.6562 7.25 11.2109 7.25 10.6484C 7.25 10.0234 7.06771 9.57031 6.70312 9.28906C 6.33854 9.0026 5.78385 8.85938 5.03906 8.85938L 2.82031 8.85938L 2.82031 12.4766ZM 16.2812 19C 16.1979 18.8333 16.1302 18.5365 16.0781 18.1094C 15.4062 18.8073 14.6042 19.1562 13.6719 19.1562C 12.8385 19.1562 12.1536 18.9219 11.6172 18.4531C 11.0859 17.9792 10.8203 17.3802 10.8203 16.6562C 10.8203 15.776 11.1536 15.0938 11.8203 14.6094C 12.4922 14.1198 13.4349 13.875 14.6484 13.875L 16.0547 13.875L 16.0547 13.2109C 16.0547 12.7057 15.9036 12.3047 15.6016 12.0078C 15.2995 11.7057 14.8542 11.5547 14.2656 11.5547C 13.75 11.5547 13.3177 11.6849 12.9688 11.9453C 12.6198 12.2057 12.4453 12.5208 12.4453 12.8906L 10.9922 12.8906C 10.9922 12.4688 11.1406 12.0625 11.4375 11.6719C 11.7396 11.276 12.1458 10.9635 12.6562 10.7344C 13.1719 10.5052 13.737 10.3906 14.3516 10.3906C 15.3255 10.3906 16.0885 10.6354 16.6406 11.125C 17.1927 11.6094 17.4792 12.2786 17.5 13.1328L 17.5 17.0234C 17.5 17.7995 17.599 18.4167 17.7969 18.875L 17.7969 19L 16.2812 19ZM 13.8828 17.8984C 14.3359 17.8984 14.7656 17.7812 15.1719 17.5469C 15.5781 17.3125 15.8724 17.0078 16.0547 16.6328L 16.0547 14.8984L 14.9219 14.8984C 13.151 14.8984 12.2656 15.4167 12.2656 16.4531C 12.2656 16.9062 12.4167 17.2604 12.7188 17.5156C 13.0208 17.7708 13.4089 17.8984 13.8828 17.8984ZM 23.8516 11.8438C 23.6328 11.8073 23.3958 11.7891 23.1406 11.7891C 22.1927 11.7891 21.5495 12.1927 21.2109 13L 21.2109 19L 19.7656 19L 19.7656 10.5469L 21.1719 10.5469L 21.1953 11.5234C 21.6693 10.7682 22.3411 10.3906 23.2109 10.3906C 23.4922 10.3906 23.7057 10.4271 23.8516 10.5L 23.8516 11.8438ZM 28.5391 19.1562C 27.3932 19.1562 26.4609 18.7812 25.7422 18.0312C 25.0234 17.276 24.6641 16.2682 24.6641 15.0078L 24.6641 14.7422C 24.6641 13.9036 24.8229 13.1562 25.1406 12.5C 25.4635 11.8385 25.9115 11.3229 26.4844 10.9531C 27.0625 10.5781 27.6875 10.3906 28.3594 10.3906C 29.4583 10.3906 30.3125 10.7526 30.9219 11.4766C 31.5312 12.2005 31.8359 13.237 31.8359 14.5859L 31.8359 15.1875L 26.1094 15.1875C 26.1302 16.0208 26.3724 16.6953 26.8359 17.2109C 27.3047 17.7214 27.8984 17.9766 28.6172 17.9766C 29.1276 17.9766 29.5599 17.8724 29.9141 17.6641C 30.2682 17.4557 30.5781 17.1797 30.8438 16.8359L 31.7266 17.5234C 31.0182 18.612 29.9557 19.1562 28.5391 19.1562ZM 28.3594 11.5781C 27.776 11.5781 27.2865 11.7917 26.8906 12.2188C 26.4948 12.6406 26.25 13.2344 26.1562 14L 30.3906 14L 30.3906 13.8906C 30.349 13.1562 30.151 12.5885 29.7969 12.1875C 29.4427 11.7812 28.9635 11.5781 28.3594 11.5781ZM 40.6719 14.8672C 40.6719 16.1589 40.375 17.1979 39.7812 17.9844C 39.1875 18.7656 38.3906 19.1562 37.3906 19.1562C 36.3229 19.1562 35.4974 18.7786 34.9141 18.0234L 34.8438 19L 33.5156 19L 33.5156 7L 34.9609 7L 34.9609 11.4766C 35.5443 10.7526 36.349 10.3906 37.375 10.3906C 38.401 10.3906 39.2057 10.7786 39.7891 11.5547C 40.3776 12.3307 40.6719 13.3932 40.6719 14.7422L 40.6719 14.8672ZM 39.2266 14.7031C 39.2266 13.7188 39.0365 12.9583 38.6562 12.4219C 38.276 11.8854 37.7292 11.6172 37.0156 11.6172C 36.0625 11.6172 35.3776 12.0599 34.9609 12.9453L 34.9609 16.6016C 35.4036 17.487 36.0938 17.9297 37.0312 17.9297C 37.724 17.9297 38.263 17.6615 38.6484 17.125C 39.0339 16.5885 39.2266 15.7812 39.2266 14.7031ZM 42.1172 14.6953C 42.1172 13.8672 42.2786 13.1224 42.6016 12.4609C 42.9297 11.7995 43.3828 11.2891 43.9609 10.9297C 44.5443 10.5703 45.2083 10.3906 45.9531 10.3906C 47.1042 10.3906 48.0339 10.7891 48.7422 11.5859C 49.4557 12.3828 49.8125 13.4427 49.8125 14.7656L 49.8125 14.8672C 49.8125 15.6901 49.6536 16.4297 49.3359 17.0859C 49.0234 17.737 48.5729 18.2448 47.9844 18.6094C 47.401 18.974 46.7292 19.1562 45.9688 19.1562C 44.8229 19.1562 43.8932 18.7578 43.1797 17.9609C 42.4714 17.1641 42.1172 16.1094 42.1172 14.7969L 42.1172 14.6953ZM 43.5703 14.8672C 43.5703 15.8047 43.7865 16.5573 44.2188 17.125C 44.6562 17.6927 45.2396 17.9766 45.9688 17.9766C 46.7031 17.9766 47.2865 17.6901 47.7188 17.1172C 48.151 16.5391 48.3672 15.7318 48.3672 14.6953C 48.3672 13.7682 48.1458 13.0182 47.7031 12.4453C 47.2656 11.8672 46.6823 11.5781 45.9531 11.5781C 45.2396 11.5781 44.6641 11.862 44.2266 12.4297C 43.7891 12.9974 43.5703 13.8099 43.5703 14.8672ZM 56.8438 19C 56.7604 18.8333 56.6927 18.5365 56.6406 18.1094C 55.9688 18.8073 55.1667 19.1562 54.2344 19.1562C 53.401 19.1562 52.7161 18.9219 52.1797 18.4531C 51.6484 17.9792 51.3828 17.3802 51.3828 16.6562C 51.3828 15.776 51.7161 15.0938 52.3828 14.6094C 53.0547 14.1198 53.9974 13.875 55.2109 13.875L 56.6172 13.875L 56.6172 13.2109C 56.6172 12.7057 56.4661 12.3047 56.1641 12.0078C 55.862 11.7057 55.4167 11.5547 54.8281 11.5547C 54.3125 11.5547 53.8802 11.6849 53.5312 11.9453C 53.1823 12.2057 53.0078 12.5208 53.0078 12.8906L 51.5547 12.8906C 51.5547 12.4688 51.7031 12.0625 52 11.6719C 52.3021 11.276 52.7083 10.9635 53.2188 10.7344C 53.7344 10.5052 54.2995 10.3906 54.9141 10.3906C 55.888 10.3906 56.651 10.6354 57.2031 11.125C 57.7552 11.6094 58.0417 12.2786 58.0625 13.1328L 58.0625 17.0234C 58.0625 17.7995 58.1615 18.4167 58.3594 18.875L 58.3594 19L 56.8438 19ZM 54.4453 17.8984C 54.8984 17.8984 55.3281 17.7812 55.7344 17.5469C 56.1406 17.3125 56.4349 17.0078 56.6172 16.6328L 56.6172 14.8984L 55.4844 14.8984C 53.7135 14.8984 52.8281 15.4167 52.8281 16.4531C 52.8281 16.9062 52.9792 17.2604 53.2812 17.5156C 53.5833 17.7708 53.9714 17.8984 54.4453 17.8984ZM 62.2891 8.5L 62.2891 10.5469L 63.8672 10.5469L 63.8672 11.6641L 62.2891 11.6641L 62.2891 16.9062C 62.2891 17.2448 62.3594 17.5 62.5 17.6719C 62.6406 17.8385 62.8802 17.9219 63.2188 17.9219C 63.3854 17.9219 63.6146 17.8906 63.9062 17.8281L 63.9062 19C 63.526 19.1042 63.1562 19.1562 62.7969 19.1562C 62.151 19.1562 61.6641 18.9609 61.3359 18.5703C 61.0078 18.1797 60.8438 17.625 60.8438 16.9062L 60.8438 11.6641L 59.3047 11.6641L 59.3047 10.5469L 60.8438 10.5469L 60.8438 8.5L 62.2891 8.5Z"/>
<path id="path5_fill" d="M 9.6875 15.3906C 9.54688 16.5938 9.10156 17.5234 8.35156 18.1797C 7.60677 18.8307 6.61458 19.1562 5.375 19.1562C 4.03125 19.1562 2.95312 18.6745 2.14062 17.7109C 1.33333 16.7474 0.929688 15.4583 0.929688 13.8438L 0.929688 12.75C 0.929688 11.6927 1.11719 10.763 1.49219 9.96094C 1.8724 9.15885 2.40885 8.54427 3.10156 8.11719C 3.79427 7.6849 4.59635 7.46875 5.50781 7.46875C 6.71615 7.46875 7.6849 7.80729 8.41406 8.48438C 9.14323 9.15625 9.56771 10.0885 9.6875 11.2812L 8.17969 11.2812C 8.04948 10.375 7.76562 9.71875 7.32812 9.3125C 6.89583 8.90625 6.28906 8.70312 5.50781 8.70312C 4.54948 8.70312 3.79688 9.05729 3.25 9.76562C 2.70833 10.474 2.4375 11.4818 2.4375 12.7891L 2.4375 13.8906C 2.4375 15.125 2.69531 16.1068 3.21094 16.8359C 3.72656 17.5651 4.44792 17.9297 5.375 17.9297C 6.20833 17.9297 6.84635 17.7422 7.28906 17.3672C 7.73698 16.987 8.03385 16.3281 8.17969 15.3906L 9.6875 15.3906ZM 16.7344 19C 16.651 18.8333 16.5833 18.5365 16.5312 18.1094C 15.8594 18.8073 15.0573 19.1562 14.125 19.1562C 13.2917 19.1562 12.6068 18.9219 12.0703 18.4531C 11.5391 17.9792 11.2734 17.3802 11.2734 16.6562C 11.2734 15.776 11.6068 15.0938 12.2734 14.6094C 12.9453 14.1198 13.888 13.875 15.1016 13.875L 16.5078 13.875L 16.5078 13.2109C 16.5078 12.7057 16.3568 12.3047 16.0547 12.0078C 15.7526 11.7057 15.3073 11.5547 14.7188 11.5547C 14.2031 11.5547 13.7708 11.6849 13.4219 11.9453C 13.0729 12.2057 12.8984 12.5208 12.8984 12.8906L 11.4453 12.8906C 11.4453 12.4688 11.5938 12.0625 11.8906 11.6719C 12.1927 11.276 12.599 10.9635 13.1094 10.7344C 13.625 10.5052 14.1901 10.3906 14.8047 10.3906C 15.7786 10.3906 16.5417 10.6354 17.0938 11.125C 17.6458 11.6094 17.9323 12.2786 17.9531 13.1328L 17.9531 17.0234C 17.9531 17.7995 18.0521 18.4167 18.25 18.875L 18.25 19L 16.7344 19ZM 14.3359 17.8984C 14.7891 17.8984 15.2188 17.7812 15.625 17.5469C 16.0312 17.3125 16.3255 17.0078 16.5078 16.6328L 16.5078 14.8984L 15.375 14.8984C 13.6042 14.8984 12.7188 15.4167 12.7188 16.4531C 12.7188 16.9062 12.8698 17.2604 13.1719 17.5156C 13.474 17.7708 13.862 17.8984 14.3359 17.8984ZM 27.3594 14.8672C 27.3594 16.1536 27.0651 17.1901 26.4766 17.9766C 25.888 18.763 25.0911 19.1562 24.0859 19.1562C 23.0599 19.1562 22.2526 18.8307 21.6641 18.1797L 21.6641 22.25L 20.2188 22.25L 20.2188 10.5469L 21.5391 10.5469L 21.6094 11.4844C 22.1979 10.7552 23.0156 10.3906 24.0625 10.3906C 25.0781 10.3906 25.8802 10.7734 26.4688 11.5391C 27.0625 12.3047 27.3594 13.3698 27.3594 14.7344L 27.3594 14.8672ZM 25.9141 14.7031C 25.9141 13.75 25.7109 12.9974 25.3047 12.4453C 24.8984 11.8932 24.3411 11.6172 23.6328 11.6172C 22.7578 11.6172 22.1016 12.0052 21.6641 12.7812L 21.6641 16.8203C 22.0964 17.5911 22.7578 17.9766 23.6484 17.9766C 24.3411 17.9766 24.8906 17.7031 25.2969 17.1562C 25.7083 16.6042 25.9141 15.7865 25.9141 14.7031ZM 31.1641 8.5L 31.1641 10.5469L 32.7422 10.5469L 32.7422 11.6641L 31.1641 11.6641L 31.1641 16.9062C 31.1641 17.2448 31.2344 17.5 31.375 17.6719C 31.5156 17.8385 31.7552 17.9219 32.0938 17.9219C 32.2604 17.9219 32.4896 17.8906 32.7812 17.8281L 32.7812 19C 32.401 19.1042 32.0312 19.1562 31.6719 19.1562C 31.026 19.1562 30.5391 18.9609 30.2109 18.5703C 29.8828 18.1797 29.7188 17.625 29.7188 16.9062L 29.7188 11.6641L 28.1797 11.6641L 28.1797 10.5469L 29.7188 10.5469L 29.7188 8.5L 31.1641 8.5ZM 39.6562 19C 39.5729 18.8333 39.5052 18.5365 39.4531 18.1094C 38.7812 18.8073 37.9792 19.1562 37.0469 19.1562C 36.2135 19.1562 35.5286 18.9219 34.9922 18.4531C 34.4609 17.9792 34.1953 17.3802 34.1953 16.6562C 34.1953 15.776 34.5286 15.0938 35.1953 14.6094C 35.8672 14.1198 36.8099 13.875 38.0234 13.875L 39.4297 13.875L 39.4297 13.2109C 39.4297 12.7057 39.2786 12.3047 38.9766 12.0078C 38.6745 11.7057 38.2292 11.5547 37.6406 11.5547C 37.125 11.5547 36.6927 11.6849 36.3438 11.9453C 35.9948 12.2057 35.8203 12.5208 35.8203 12.8906L 34.3672 12.8906C 34.3672 12.4688 34.5156 12.0625 34.8125 11.6719C 35.1146 11.276 35.5208 10.9635 36.0312 10.7344C 36.5469 10.5052 37.112 10.3906 37.7266 10.3906C 38.7005 10.3906 39.4635 10.6354 40.0156 11.125C 40.5677 11.6094 40.8542 12.2786 40.875 13.1328L 40.875 17.0234C 40.875 17.7995 40.974 18.4167 41.1719 18.875L 41.1719 19L 39.6562 19ZM 37.2578 17.8984C 37.7109 17.8984 38.1406 17.7812 38.5469 17.5469C 38.9531 17.3125 39.2474 17.0078 39.4297 16.6328L 39.4297 14.8984L 38.2969 14.8984C 36.526 14.8984 35.6406 15.4167 35.6406 16.4531C 35.6406 16.9062 35.7917 17.2604 36.0938 17.5156C 36.3958 17.7708 36.7839 17.8984 37.2578 17.8984ZM 44.7109 19L 43.2656 19L 43.2656 10.5469L 44.7109 10.5469L 44.7109 19ZM 43.1484 8.30469C 43.1484 8.07031 43.2188 7.8724 43.3594 7.71094C 43.5052 7.54948 43.7188 7.46875 44 7.46875C 44.2812 7.46875 44.4948 7.54948 44.6406 7.71094C 44.7865 7.8724 44.8594 8.07031 44.8594 8.30469C 44.8594 8.53906 44.7865 8.73438 44.6406 8.89062C 44.4948 9.04688 44.2812 9.125 44 9.125C 43.7188 9.125 43.5052 9.04688 43.3594 8.89062C 43.2188 8.73438 43.1484 8.53906 43.1484 8.30469ZM 48.3984 10.5469L 48.4453 11.6094C 49.0911 10.7969 49.9349 10.3906 50.9766 10.3906C 52.763 10.3906 53.6641 11.3984 53.6797 13.4141L 53.6797 19L 52.2344 19L 52.2344 13.4062C 52.2292 12.7969 52.0885 12.3464 51.8125 12.0547C 51.5417 11.763 51.1172 11.6172 50.5391 11.6172C 50.0703 11.6172 49.6589 11.7422 49.3047 11.9922C 48.9505 12.2422 48.6745 12.5703 48.4766 12.9766L 48.4766 19L 47.0312 19L 47.0312 10.5469L 48.3984 10.5469ZM 59.3672 19.1562C 58.2214 19.1562 57.2891 18.7812 56.5703 18.0312C 55.8516 17.276 55.4922 16.2682 55.4922 15.0078L 55.4922 14.7422C 55.4922 13.9036 55.651 13.1562 55.9688 12.5C 56.2917 11.8385 56.7396 11.3229 57.3125 10.9531C 57.8906 10.5781 58.5156 10.3906 59.1875 10.3906C 60.2865 10.3906 61.1406 10.7526 61.75 11.4766C 62.3594 12.2005 62.6641 13.237 62.6641 14.5859L 62.6641 15.1875L 56.9375 15.1875C 56.9583 16.0208 57.2005 16.6953 57.6641 17.2109C 58.1328 17.7214 58.7266 17.9766 59.4453 17.9766C 59.9557 17.9766 60.388 17.8724 60.7422 17.6641C 61.0964 17.4557 61.4062 17.1797 61.6719 16.8359L 62.5547 17.5234C 61.8464 18.612 60.7839 19.1562 59.3672 19.1562ZM 59.1875 11.5781C 58.6042 11.5781 58.1146 11.7917 57.7188 12.2188C 57.3229 12.6406 57.0781 13.2344 56.9844 14L 61.2188 14L 61.2188 13.8906C 61.1771 13.1562 60.9792 12.5885 60.625 12.1875C 60.2708 11.7812 59.7917 11.5781 59.1875 11.5781ZM 63.9922 14.7031C 63.9922 13.4062 64.2995 12.3646 64.9141 11.5781C 65.5286 10.7865 66.3333 10.3906 67.3281 10.3906C 68.3177 10.3906 69.1016 10.7292 69.6797 11.4062L 69.6797 7L 71.125 7L 71.125 19L 69.7969 19L 69.7266 18.0938C 69.1484 18.8021 68.3438 19.1562 67.3125 19.1562C 66.3333 19.1562 65.5339 18.7552 64.9141 17.9531C 64.2995 17.151 63.9922 16.1042 63.9922 14.8125L 63.9922 14.7031ZM 65.4375 14.8672C 65.4375 15.8255 65.6354 16.5755 66.0312 17.1172C 66.4271 17.6589 66.974 17.9297 67.6719 17.9297C 68.5885 17.9297 69.2578 17.5182 69.6797 16.6953L 69.6797 12.8125C 69.2474 12.0156 68.5833 11.6172 67.6875 11.6172C 66.9792 11.6172 66.4271 11.8906 66.0312 12.4375C 65.6354 12.9844 65.4375 13.7943 65.4375 14.8672Z"/>
<path id="path6_fill" fill-rule="evenodd" d="M 0 1C 0 0.447715 0.447715 0 1 0C 1.55228 0 2 0.447715 2 1L 2 23C 2 23.5523 1.55228 24 1 24C 0.447715 24 0 23.5523 0 23L 0 1Z"/>
<path id="path7_fill" fill-rule="evenodd" d="M 7 14C 10.866 14 14 10.866 14 7C 14 3.13401 10.866 0 7 0C 3.13401 0 0 3.13401 0 7C 0 10.866 3.13401 14 7 14Z"/>
<path id="path8_stroke_2x" d="M 7 16C 11.9706 16 16 11.9706 16 7L 12 7C 12 9.76142 9.76142 12 7 12L 7 16ZM 16 7C 16 2.02944 11.9706 -2 7 -2L 7 2C 9.76142 2 12 4.23858 12 7L 16 7ZM 7 -2C 2.02944 -2 -2 2.02944 -2 7L 2 7C 2 4.23858 4.23858 2 7 2L 7 -2ZM -2 7C -2 11.9706 2.02944 16 7 16L 7 12C 4.23858 12 2 9.76142 2 7L -2 7Z"/>
<path id="path9_fill" fill-rule="evenodd" d="M 1 2C 1.55228 2 2 1.55228 2 1C 2 0.447715 1.55228 0 1 0C 0.447715 0 0 0.447715 0 1C 0 1.55228 0.447715 2 1 2Z"/>
<path id="path10_fill" fill-rule="evenodd" d="M 2.39203 3.79771C 3.7955 3.79771 4.52978 3.06285 4.60844 2.97922C 4.83942 2.7351 4.83872 2.34393 4.61159 2.09592C 4.38508 1.84781 4.00835 1.84058 3.76984 2.07738C 3.75583 2.09156 3.49953 2.33893 2.9901 2.46279L 2.9901 0.63306C 2.9901 0.283616 2.72216 0 2.39203 0C 2.06181 0 1.79396 0.283616 1.79396 0.63306L 1.79396 2.46242C 1.29469 2.34069 1.03778 2.10019 1.01483 2.07812C 0.781139 1.83697 0.406861 1.83947 0.175533 2.08433C -0.0585109 2.33197 -0.0585109 2.73185 0.175533 2.97922C 0.25419 3.06285 0.988467 3.79771 2.39203 3.79771Z"/>
<path id="path11_fill" fill-rule="evenodd" d="M 3.00015 14L 20.9998 14C 21.2003 14 21.3874 13.8936 21.499 13.7167L 23.8992 9.89847C 24.0029 9.73311 24.0283 9.52635 23.9675 9.33843C 23.9071 9.15162 23.7671 9.00453 23.5895 8.94151C 23.513 8.91495 22.5269 8.57666 20.5518 8.25115C 20.9786 7.46496 20.9998 6.49355 20.9998 6.36352C 20.9998 3.19565 18.2172 0 12 0C 5.78276 0 3.00015 3.19565 3.00015 6.36352C 3.00015 6.49355 3.02142 7.46496 3.44821 8.25115C 1.47306 8.57666 0.48675 8.91457 0.410461 8.94151C 0.232659 9.00453 0.0929134 9.15162 0.0325328 9.33843C -0.0282873 9.52635 -0.00288703 9.73311 0.100824 9.89847C 0.100824 9.89847 2.79897 14 3.00015 14ZM 12.0001 1.27246C 16.6655 1.27246 19.8 3.31847 19.8 6.36152C 19.799 6.62551 19.7179 7.45971 19.376 7.82269C 19.3111 7.89121 19.2679 7.97342 19.239 8.05937C 17.4259 7.82493 15.032 7.63589 12.0001 7.63589C 8.96825 7.63589 6.5735 7.82493 4.76111 8.05937C 4.73228 7.97342 4.68904 7.89121 4.62418 7.82269C 4.2822 7.45971 4.20116 6.62551 4.2002 6.36329C 4.2002 3.31847 7.33436 1.27246 12.0001 1.27246Z"/>
</defs>
</svg>
