<svg width="335" height="48" viewBox="0 0 335 48" version="1.1" xmlns="http://www.w3.org/2000/svg" xmlns:xlink="http://www.w3.org/1999/xlink">
<title>Component</title>
<desc>Created using Figma</desc>
<g id="Canvas" transform="translate(-2591 -11493)">
<g id="Component">
<g id="input field copy 15">
<use xlink:href="#path0_fill" transform="translate(2591 11493)" fill="#FFFFFF"/>
<mask id="mask0_outline_ins">
<use xlink:href="#path0_fill" fill="white" transform="translate(2591 11493)"/>
</mask>
<g mask="url(#mask0_outline_ins)">
<use xlink:href="#path1_stroke_2x" transform="translate(2591 11493)" fill="#E0E6ED"/>
</g>
</g>
<g id="Beneteau, AMEL, Cant">
<use xlink:href="#path2_fill" transform="translate(2606 11506)" fill="#34495E"/>
</g>
<g id="chevron copy 4">
<use xlink:href="#path3_fill" transform="matrix(-6.12323e-17 -1 -1 6.12323e-17 2910.33 11520.5)" fill="#48495B"/>
<use xlink:href="#path4_stroke" transform="matrix(-6.12323e-17 -1 -1 6.12323e-17 2910.33 11520.5)" fill="#808FA3"/>
</g>
</g>
</g>
<defs>
<path id="path0_fill" fill-rule="evenodd" d="M 0 4C 0 1.79086 1.79086 0 4 0L 331 0C 333.209 0 335 1.79086 335 4L 335 44C 335 46.2091 333.209 48 331 48L 4 48C 1.79086 48 0 46.2091 0 44L 0 4Z"/>
<path id="path1_stroke_2x" d="M 4 1L 331 1L 331 -1L 4 -1L 4 1ZM 334 4L 334 44L 336 44L 336 4L 334 4ZM 331 47L 4 47L 4 49L 331 49L 331 47ZM 1 44L 1 4L -1 4L -1 44L 1 44ZM 4 -1C 1.23858 -1 -1 1.23858 -1 4L 1 4C 1 2.34315 2.34315 1 4 1L 4 -1ZM 331 1C 332.657 1 334 2.34315 334 4L 336 4C 336 1.23858 333.761 -1 331 -1L 331 1ZM 334 44C 334 45.6569 332.657 47 331 47L 331 49C 333.761 49 336 46.7614 336 44L 334 44ZM 4 47C 2.34315 47 1 45.6569 1 44L -1 44C -1 46.7614 1.23858 49 4 49L 4 47Z"/>
<path id="path2_fill" d="M 1.32031 15L 1.32031 3.625L 5.03906 3.625C 6.27344 3.625 7.20052 3.88021 7.82031 4.39062C 8.44531 4.90104 8.75781 5.65625 8.75781 6.65625C 8.75781 7.1875 8.60677 7.65885 8.30469 8.07031C 8.0026 8.47656 7.59115 8.79167 7.07031 9.01562C 7.6849 9.1875 8.16927 9.51562 8.52344 10C 8.88281 10.4792 9.0625 11.0521 9.0625 11.7188C 9.0625 12.7396 8.73177 13.5417 8.07031 14.125C 7.40885 14.7083 6.47396 15 5.26562 15L 1.32031 15ZM 2.82031 9.67969L 2.82031 13.7734L 5.29688 13.7734C 5.99479 13.7734 6.54427 13.5938 6.94531 13.2344C 7.35156 12.8698 7.55469 12.3698 7.55469 11.7344C 7.55469 10.3646 6.8099 9.67969 5.32031 9.67969L 2.82031 9.67969ZM 2.82031 8.47656L 5.08594 8.47656C 5.74219 8.47656 6.26562 8.3125 6.65625 7.98438C 7.05208 7.65625 7.25 7.21094 7.25 6.64844C 7.25 6.02344 7.06771 5.57031 6.70312 5.28906C 6.33854 5.0026 5.78385 4.85938 5.03906 4.85938L 2.82031 4.85938L 2.82031 8.47656ZM 14.5703 15.1562C 13.4245 15.1562 12.4922 14.7812 11.7734 14.0312C 11.0547 13.276 10.6953 12.2682 10.6953 11.0078L 10.6953 10.7422C 10.6953 9.90365 10.8542 9.15625 11.1719 8.5C 11.4948 7.83854 11.9427 7.32292 12.5156 6.95312C 13.0938 6.57812 13.7188 6.39062 14.3906 6.39062C 15.4896 6.39062 16.3438 6.7526 16.9531 7.47656C 17.5625 8.20052 17.8672 9.23698 17.8672 10.5859L 17.8672 11.1875L 12.1406 11.1875C 12.1615 12.0208 12.4036 12.6953 12.8672 13.2109C 13.3359 13.7214 13.9297 13.9766 14.6484 13.9766C 15.1589 13.9766 15.5911 13.8724 15.9453 13.6641C 16.2995 13.4557 16.6094 13.1797 16.875 12.8359L 17.7578 13.5234C 17.0495 14.612 15.987 15.1562 14.5703 15.1562ZM 14.3906 7.57812C 13.8073 7.57812 13.3177 7.79167 12.9219 8.21875C 12.526 8.64062 12.2812 9.23438 12.1875 10L 16.4219 10L 16.4219 9.89062C 16.3802 9.15625 16.1823 8.58854 15.8281 8.1875C 15.474 7.78125 14.9948 7.57812 14.3906 7.57812ZM 20.9141 6.54688L 20.9609 7.60938C 21.6068 6.79688 22.4505 6.39062 23.4922 6.39062C 25.2786 6.39062 26.1797 7.39844 26.1953 9.41406L 26.1953 15L 24.75 15L 24.75 9.40625C 24.7448 8.79688 24.6042 8.34635 24.3281 8.05469C 24.0573 7.76302 23.6328 7.61719 23.0547 7.61719C 22.5859 7.61719 22.1745 7.74219 21.8203 7.99219C 21.4661 8.24219 21.1901 8.57031 20.9922 8.97656L 20.9922 15L 19.5469 15L 19.5469 6.54688L 20.9141 6.54688ZM 31.8828 15.1562C 30.737 15.1562 29.8047 14.7812 29.0859 14.0312C 28.3672 13.276 28.0078 12.2682 28.0078 11.0078L 28.0078 10.7422C 28.0078 9.90365 28.1667 9.15625 28.4844 8.5C 28.8073 7.83854 29.2552 7.32292 29.8281 6.95312C 30.4062 6.57812 31.0312 6.39062 31.7031 6.39062C 32.8021 6.39062 33.6562 6.7526 34.2656 7.47656C 34.875 8.20052 35.1797 9.23698 35.1797 10.5859L 35.1797 11.1875L 29.4531 11.1875C 29.474 12.0208 29.7161 12.6953 30.1797 13.2109C 30.6484 13.7214 31.2422 13.9766 31.9609 13.9766C 32.4714 13.9766 32.9036 13.8724 33.2578 13.6641C 33.612 13.4557 33.9219 13.1797 34.1875 12.8359L 35.0703 13.5234C 34.362 14.612 33.2995 15.1562 31.8828 15.1562ZM 31.7031 7.57812C 31.1198 7.57812 30.6302 7.79167 30.2344 8.21875C 29.8385 8.64062 29.5938 9.23438 29.5 10L 33.7344 10L 33.7344 9.89062C 33.6927 9.15625 33.4948 8.58854 33.1406 8.1875C 32.7865 7.78125 32.3073 7.57812 31.7031 7.57812ZM 38.8203 4.5L 38.8203 6.54688L 40.3984 6.54688L 40.3984 7.66406L 38.8203 7.66406L 38.8203 12.9062C 38.8203 13.2448 38.8906 13.5 39.0312 13.6719C 39.1719 13.8385 39.4115 13.9219 39.75 13.9219C 39.9167 13.9219 40.1458 13.8906 40.4375 13.8281L 40.4375 15C 40.0573 15.1042 39.6875 15.1562 39.3281 15.1562C 38.6823 15.1562 38.1953 14.9609 37.8672 14.5703C 37.5391 14.1797 37.375 13.625 37.375 12.9062L 37.375 7.66406L 35.8359 7.66406L 35.8359 6.54688L 37.375 6.54688L 37.375 4.5L 38.8203 4.5ZM 45.6016 15.1562C 44.4557 15.1562 43.5234 14.7812 42.8047 14.0312C 42.0859 13.276 41.7266 12.2682 41.7266 11.0078L 41.7266 10.7422C 41.7266 9.90365 41.8854 9.15625 42.2031 8.5C 42.526 7.83854 42.974 7.32292 43.5469 6.95312C 44.125 6.57812 44.75 6.39062 45.4219 6.39062C 46.5208 6.39062 47.375 6.7526 47.9844 7.47656C 48.5938 8.20052 48.8984 9.23698 48.8984 10.5859L 48.8984 11.1875L 43.1719 11.1875C 43.1927 12.0208 43.4349 12.6953 43.8984 13.2109C 44.3672 13.7214 44.9609 13.9766 45.6797 13.9766C 46.1901 13.9766 46.6224 13.8724 46.9766 13.6641C 47.3307 13.4557 47.6406 13.1797 47.9062 12.8359L 48.7891 13.5234C 48.0807 14.612 47.0182 15.1562 45.6016 15.1562ZM 45.4219 7.57812C 44.8385 7.57812 44.349 7.79167 43.9531 8.21875C 43.5573 8.64062 43.3125 9.23438 43.2188 10L 47.4531 10L 47.4531 9.89062C 47.4115 9.15625 47.2135 8.58854 46.8594 8.1875C 46.5052 7.78125 46.026 7.57812 45.4219 7.57812ZM 55.7969 15C 55.7135 14.8333 55.6458 14.5365 55.5938 14.1094C 54.9219 14.8073 54.1198 15.1562 53.1875 15.1562C 52.3542 15.1562 51.6693 14.9219 51.1328 14.4531C 50.6016 13.9792 50.3359 13.3802 50.3359 12.6562C 50.3359 11.776 50.6693 11.0938 51.3359 10.6094C 52.0078 10.1198 52.9505 9.875 54.1641 9.875L 55.5703 9.875L 55.5703 9.21094C 55.5703 8.70573 55.4193 8.30469 55.1172 8.00781C 54.8151 7.70573 54.3698 7.55469 53.7812 7.55469C 53.2656 7.55469 52.8333 7.6849 52.4844 7.94531C 52.1354 8.20573 51.9609 8.52083 51.9609 8.89062L 50.5078 8.89062C 50.5078 8.46875 50.6562 8.0625 50.9531 7.67188C 51.2552 7.27604 51.6615 6.96354 52.1719 6.73438C 52.6875 6.50521 53.2526 6.39062 53.8672 6.39062C 54.8411 6.39062 55.6042 6.63542 56.1562 7.125C 56.7083 7.60938 56.9948 8.27865 57.0156 9.13281L 57.0156 13.0234C 57.0156 13.7995 57.1146 14.4167 57.3125 14.875L 57.3125 15L 55.7969 15ZM 53.3984 13.8984C 53.8516 13.8984 54.2812 13.7812 54.6875 13.5469C 55.0938 13.3125 55.388 13.0078 55.5703 12.6328L 55.5703 10.8984L 54.4375 10.8984C 52.6667 10.8984 51.7812 11.4167 51.7812 12.4531C 51.7812 12.9062 51.9323 13.2604 52.2344 13.5156C 52.5365 13.7708 52.9245 13.8984 53.3984 13.8984ZM 64.5 14.1641C 63.9375 14.8255 63.112 15.1562 62.0234 15.1562C 61.1224 15.1562 60.4349 14.8958 59.9609 14.375C 59.4922 13.849 59.2552 13.0729 59.25 12.0469L 59.25 6.54688L 60.6953 6.54688L 60.6953 12.0078C 60.6953 13.2891 61.2161 13.9297 62.2578 13.9297C 63.362 13.9297 64.0964 13.5182 64.4609 12.6953L 64.4609 6.54688L 65.9062 6.54688L 65.9062 15L 64.5312 15L 64.5 14.1641ZM 68.0625 17.2656L 67.2422 16.7031C 67.7318 16.0208 67.987 15.3177 68.0078 14.5938L 68.0078 13.2891L 69.4219 13.2891L 69.4219 14.4219C 69.4219 14.9479 69.2917 15.474 69.0312 16C 68.776 16.526 68.4531 16.9479 68.0625 17.2656ZM 81.7266 12.0312L 76.9609 12.0312L 75.8906 15L 74.3438 15L 78.6875 3.625L 80 3.625L 84.3516 15L 82.8125 15L 81.7266 12.0312ZM 77.4141 10.7969L 81.2812 10.7969L 79.3438 5.47656L 77.4141 10.7969ZM 87.8203 3.625L 91.5391 12.9062L 95.2578 3.625L 97.2031 3.625L 97.2031 15L 95.7031 15L 95.7031 10.5703L 95.8438 5.78906L 92.1094 15L 90.9609 15L 87.2344 5.8125L 87.3828 10.5703L 87.3828 15L 85.8828 15L 85.8828 3.625L 87.8203 3.625ZM 106.281 9.74219L 101.352 9.74219L 101.352 13.7734L 107.078 13.7734L 107.078 15L 99.8516 15L 99.8516 3.625L 107 3.625L 107 4.85938L 101.352 4.85938L 101.352 8.51562L 106.281 8.51562L 106.281 9.74219ZM 110.453 13.7734L 115.844 13.7734L 115.844 15L 108.945 15L 108.945 3.625L 110.453 3.625L 110.453 13.7734ZM 117.281 17.2656L 116.461 16.7031C 116.951 16.0208 117.206 15.3177 117.227 14.5938L 117.227 13.2891L 118.641 13.2891L 118.641 14.4219C 118.641 14.9479 118.51 15.474 118.25 16C 117.995 16.526 117.672 16.9479 117.281 17.2656ZM 133.031 11.3906C 132.891 12.5938 132.445 13.5234 131.695 14.1797C 130.951 14.8307 129.958 15.1562 128.719 15.1562C 127.375 15.1562 126.297 14.6745 125.484 13.7109C 124.677 12.7474 124.273 11.4583 124.273 9.84375L 124.273 8.75C 124.273 7.69271 124.461 6.76302 124.836 5.96094C 125.216 5.15885 125.753 4.54427 126.445 4.11719C 127.138 3.6849 127.94 3.46875 128.852 3.46875C 130.06 3.46875 131.029 3.80729 131.758 4.48438C 132.487 5.15625 132.911 6.08854 133.031 7.28125L 131.523 7.28125C 131.393 6.375 131.109 5.71875 130.672 5.3125C 130.24 4.90625 129.633 4.70312 128.852 4.70312C 127.893 4.70312 127.141 5.05729 126.594 5.76562C 126.052 6.47396 125.781 7.48177 125.781 8.78906L 125.781 9.89062C 125.781 11.125 126.039 12.1068 126.555 12.8359C 127.07 13.5651 127.792 13.9297 128.719 13.9297C 129.552 13.9297 130.19 13.7422 130.633 13.3672C 131.081 12.987 131.378 12.3281 131.523 11.3906L 133.031 11.3906ZM 140.078 15C 139.995 14.8333 139.927 14.5365 139.875 14.1094C 139.203 14.8073 138.401 15.1562 137.469 15.1562C 136.635 15.1562 135.951 14.9219 135.414 14.4531C 134.883 13.9792 134.617 13.3802 134.617 12.6562C 134.617 11.776 134.951 11.0938 135.617 10.6094C 136.289 10.1198 137.232 9.875 138.445 9.875L 139.852 9.875L 139.852 9.21094C 139.852 8.70573 139.701 8.30469 139.398 8.00781C 139.096 7.70573 138.651 7.55469 138.062 7.55469C 137.547 7.55469 137.115 7.6849 136.766 7.94531C 136.417 8.20573 136.242 8.52083 136.242 8.89062L 134.789 8.89062C 134.789 8.46875 134.938 8.0625 135.234 7.67188C 135.536 7.27604 135.943 6.96354 136.453 6.73438C 136.969 6.50521 137.534 6.39062 138.148 6.39062C 139.122 6.39062 139.885 6.63542 140.438 7.125C 140.99 7.60938 141.276 8.27865 141.297 9.13281L 141.297 13.0234C 141.297 13.7995 141.396 14.4167 141.594 14.875L 141.594 15L 140.078 15ZM 137.68 13.8984C 138.133 13.8984 138.562 13.7812 138.969 13.5469C 139.375 13.3125 139.669 13.0078 139.852 12.6328L 139.852 10.8984L 138.719 10.8984C 136.948 10.8984 136.062 11.4167 136.062 12.4531C 136.062 12.9062 136.214 13.2604 136.516 13.5156C 136.818 13.7708 137.206 13.8984 137.68 13.8984ZM 144.93 6.54688L 144.977 7.60938C 145.622 6.79688 146.466 6.39062 147.508 6.39062C 149.294 6.39062 150.195 7.39844 150.211 9.41406L 150.211 15L 148.766 15L 148.766 9.40625C 148.76 8.79688 148.62 8.34635 148.344 8.05469C 148.073 7.76302 147.648 7.61719 147.07 7.61719C 146.602 7.61719 146.19 7.74219 145.836 7.99219C 145.482 8.24219 145.206 8.57031 145.008 8.97656L 145.008 15L 143.562 15L 143.562 6.54688L 144.93 6.54688ZM 154.352 4.5L 154.352 6.54688L 155.93 6.54688L 155.93 7.66406L 154.352 7.66406L 154.352 12.9062C 154.352 13.2448 154.422 13.5 154.562 13.6719C 154.703 13.8385 154.943 13.9219 155.281 13.9219C 155.448 13.9219 155.677 13.8906 155.969 13.8281L 155.969 15C 155.589 15.1042 155.219 15.1562 154.859 15.1562C 154.214 15.1562 153.727 14.9609 153.398 14.5703C 153.07 14.1797 152.906 13.625 152.906 12.9062L 152.906 7.66406L 151.367 7.66406L 151.367 6.54688L 152.906 6.54688L 152.906 4.5L 154.352 4.5ZM 159.195 15L 157.75 15L 157.75 6.54688L 159.195 6.54688L 159.195 15ZM 157.633 4.30469C 157.633 4.07031 157.703 3.8724 157.844 3.71094C 157.99 3.54948 158.203 3.46875 158.484 3.46875C 158.766 3.46875 158.979 3.54948 159.125 3.71094C 159.271 3.8724 159.344 4.07031 159.344 4.30469C 159.344 4.53906 159.271 4.73438 159.125 4.89062C 158.979 5.04688 158.766 5.125 158.484 5.125C 158.203 5.125 157.99 5.04688 157.844 4.89062C 157.703 4.73438 157.633 4.53906 157.633 4.30469ZM 165.023 15.1562C 163.878 15.1562 162.945 14.7812 162.227 14.0312C 161.508 13.276 161.148 12.2682 161.148 11.0078L 161.148 10.7422C 161.148 9.90365 161.307 9.15625 161.625 8.5C 161.948 7.83854 162.396 7.32292 162.969 6.95312C 163.547 6.57812 164.172 6.39062 164.844 6.39062C 165.943 6.39062 166.797 6.7526 167.406 7.47656C 168.016 8.20052 168.32 9.23698 168.32 10.5859L 168.32 11.1875L 162.594 11.1875C 162.615 12.0208 162.857 12.6953 163.32 13.2109C 163.789 13.7214 164.383 13.9766 165.102 13.9766C 165.612 13.9766 166.044 13.8724 166.398 13.6641C 166.753 13.4557 167.062 13.1797 167.328 12.8359L 168.211 13.5234C 167.503 14.612 166.44 15.1562 165.023 15.1562ZM 164.844 7.57812C 164.26 7.57812 163.771 7.79167 163.375 8.21875C 162.979 8.64062 162.734 9.23438 162.641 10L 166.875 10L 166.875 9.89062C 166.833 9.15625 166.635 8.58854 166.281 8.1875C 165.927 7.78125 165.448 7.57812 164.844 7.57812ZM 174.086 7.84375C 173.867 7.80729 173.63 7.78906 173.375 7.78906C 172.427 7.78906 171.784 8.19271 171.445 9L 171.445 15L 170 15L 170 6.54688L 171.406 6.54688L 171.43 7.52344C 171.904 6.76823 172.576 6.39062 173.445 6.39062C 173.727 6.39062 173.94 6.42708 174.086 6.5L 174.086 7.84375ZM 178.773 15.1562C 177.628 15.1562 176.695 14.7812 175.977 14.0312C 175.258 13.276 174.898 12.2682 174.898 11.0078L 174.898 10.7422C 174.898 9.90365 175.057 9.15625 175.375 8.5C 175.698 7.83854 176.146 7.32292 176.719 6.95312C 177.297 6.57812 177.922 6.39062 178.594 6.39062C 179.693 6.39062 180.547 6.7526 181.156 7.47656C 181.766 8.20052 182.07 9.23698 182.07 10.5859L 182.07 11.1875L 176.344 11.1875C 176.365 12.0208 176.607 12.6953 177.07 13.2109C 177.539 13.7214 178.133 13.9766 178.852 13.9766C 179.362 13.9766 179.794 13.8724 180.148 13.6641C 180.503 13.4557 180.812 13.1797 181.078 12.8359L 181.961 13.5234C 181.253 14.612 180.19 15.1562 178.773 15.1562ZM 178.594 7.57812C 178.01 7.57812 177.521 7.79167 177.125 8.21875C 176.729 8.64062 176.484 9.23438 176.391 10L 180.625 10L 180.625 9.89062C 180.583 9.15625 180.385 8.58854 180.031 8.1875C 179.677 7.78125 179.198 7.57812 178.594 7.57812ZM 187.367 10.7031C 187.367 9.40625 187.674 8.36458 188.289 7.57812C 188.904 6.78646 189.708 6.39062 190.703 6.39062C 191.693 6.39062 192.477 6.72917 193.055 7.40625L 193.055 3L 194.5 3L 194.5 15L 193.172 15L 193.102 14.0938C 192.523 14.8021 191.719 15.1562 190.688 15.1562C 189.708 15.1562 188.909 14.7552 188.289 13.9531C 187.674 13.151 187.367 12.1042 187.367 10.8125L 187.367 10.7031ZM 188.812 10.8672C 188.812 11.8255 189.01 12.5755 189.406 13.1172C 189.802 13.6589 190.349 13.9297 191.047 13.9297C 191.964 13.9297 192.633 13.5182 193.055 12.6953L 193.055 8.8125C 192.622 8.01562 191.958 7.61719 191.062 7.61719C 190.354 7.61719 189.802 7.89062 189.406 8.4375C 189.01 8.98438 188.812 9.79427 188.812 10.8672ZM 200.258 15.1562C 199.112 15.1562 198.18 14.7812 197.461 14.0312C 196.742 13.276 196.383 12.2682 196.383 11.0078L 196.383 10.7422C 196.383 9.90365 196.542 9.15625 196.859 8.5C 197.182 7.83854 197.63 7.32292 198.203 6.95312C 198.781 6.57812 199.406 6.39062 200.078 6.39062C 201.177 6.39062 202.031 6.7526 202.641 7.47656C 203.25 8.20052 203.555 9.23698 203.555 10.5859L 203.555 11.1875L 197.828 11.1875C 197.849 12.0208 198.091 12.6953 198.555 13.2109C 199.023 13.7214 199.617 13.9766 200.336 13.9766C 200.846 13.9766 201.279 13.8724 201.633 13.6641C 201.987 13.4557 202.297 13.1797 202.562 12.8359L 203.445 13.5234C 202.737 14.612 201.674 15.1562 200.258 15.1562ZM 200.078 7.57812C 199.495 7.57812 199.005 7.79167 198.609 8.21875C 198.214 8.64062 197.969 9.23438 197.875 10L 202.109 10L 202.109 9.89062C 202.068 9.15625 201.87 8.58854 201.516 8.1875C 201.161 7.78125 200.682 7.57812 200.078 7.57812ZM 206.805 15L 205.359 15L 205.359 3L 206.805 3L 206.805 15ZM 214.82 10.5469L 214.82 15L 213.32 15L 213.32 3.625L 217.516 3.625C 218.76 3.625 219.734 3.94271 220.438 4.57812C 221.146 5.21354 221.5 6.05469 221.5 7.10156C 221.5 8.20573 221.154 9.05729 220.461 9.65625C 219.773 10.25 218.786 10.5469 217.5 10.5469L 214.82 10.5469ZM 214.82 9.32031L 217.516 9.32031C 218.318 9.32031 218.932 9.13281 219.359 8.75781C 219.786 8.3776 220 7.83073 220 7.11719C 220 6.4401 219.786 5.89844 219.359 5.49219C 218.932 5.08594 218.346 4.875 217.602 4.85938L 214.82 4.85938L 214.82 9.32031ZM 228.312 15C 228.229 14.8333 228.161 14.5365 228.109 14.1094C 227.438 14.8073 226.635 15.1562 225.703 15.1562C 224.87 15.1562 224.185 14.9219 223.648 14.4531C 223.117 13.9792 222.852 13.3802 222.852 12.6562C 222.852 11.776 223.185 11.0938 223.852 10.6094C 224.523 10.1198 225.466 9.875 226.68 9.875L 228.086 9.875L 228.086 9.21094C 228.086 8.70573 227.935 8.30469 227.633 8.00781C 227.331 7.70573 226.885 7.55469 226.297 7.55469C 225.781 7.55469 225.349 7.6849 225 7.94531C 224.651 8.20573 224.477 8.52083 224.477 8.89062L 223.023 8.89062C 223.023 8.46875 223.172 8.0625 223.469 7.67188C 223.771 7.27604 224.177 6.96354 224.688 6.73438C 225.203 6.50521 225.768 6.39062 226.383 6.39062C 227.357 6.39062 228.12 6.63542 228.672 7.125C 229.224 7.60938 229.51 8.27865 229.531 9.13281L 229.531 13.0234C 229.531 13.7995 229.63 14.4167 229.828 14.875L 229.828 15L 228.312 15ZM 225.914 13.8984C 226.367 13.8984 226.797 13.7812 227.203 13.5469C 227.609 13.3125 227.904 13.0078 228.086 12.6328L 228.086 10.8984L 226.953 10.8984C 225.182 10.8984 224.297 11.4167 224.297 12.4531C 224.297 12.9062 224.448 13.2604 224.75 13.5156C 225.052 13.7708 225.44 13.8984 225.914 13.8984ZM 235.883 7.84375C 235.664 7.80729 235.427 7.78906 235.172 7.78906C 234.224 7.78906 233.581 8.19271 233.242 9L 233.242 15L 231.797 15L 231.797 6.54688L 233.203 6.54688L 233.227 7.52344C 233.701 6.76823 234.372 6.39062 235.242 6.39062C 235.523 6.39062 235.737 6.42708 235.883 6.5L 235.883 7.84375ZM 236.711 10.7031C 236.711 9.40625 237.018 8.36458 237.633 7.57812C 238.247 6.78646 239.052 6.39062 240.047 6.39062C 241.036 6.39062 241.82 6.72917 242.398 7.40625L 242.398 3L 243.844 3L 243.844 15L 242.516 15L 242.445 14.0938C 241.867 14.8021 241.062 15.1562 240.031 15.1562C 239.052 15.1562 238.253 14.7552 237.633 13.9531C 237.018 13.151 236.711 12.1042 236.711 10.8125L 236.711 10.7031ZM 238.156 10.8672C 238.156 11.8255 238.354 12.5755 238.75 13.1172C 239.146 13.6589 239.693 13.9297 240.391 13.9297C 241.307 13.9297 241.977 13.5182 242.398 12.6953L 242.398 8.8125C 241.966 8.01562 241.302 7.61719 240.406 7.61719C 239.698 7.61719 239.146 7.89062 238.75 8.4375C 238.354 8.98438 238.156 9.79427 238.156 10.8672ZM 245.711 10.6953C 245.711 9.86719 245.872 9.1224 246.195 8.46094C 246.523 7.79948 246.977 7.28906 247.555 6.92969C 248.138 6.57031 248.802 6.39062 249.547 6.39062C 250.698 6.39062 251.628 6.78906 252.336 7.58594C 253.049 8.38281 253.406 9.44271 253.406 10.7656L 253.406 10.8672C 253.406 11.6901 253.247 12.4297 252.93 13.0859C 252.617 13.737 252.167 14.2448 251.578 14.6094C 250.995 14.974 250.323 15.1562 249.562 15.1562C 248.417 15.1562 247.487 14.7578 246.773 13.9609C 246.065 13.1641 245.711 12.1094 245.711 10.7969L 245.711 10.6953ZM 247.164 10.8672C 247.164 11.8047 247.38 12.5573 247.812 13.125C 248.25 13.6927 248.833 13.9766 249.562 13.9766C 250.297 13.9766 250.88 13.6901 251.312 13.1172C 251.745 12.5391 251.961 11.7318 251.961 10.6953C 251.961 9.76823 251.74 9.01823 251.297 8.44531C 250.859 7.86719 250.276 7.57812 249.547 7.57812C 248.833 7.57812 248.258 7.86198 247.82 8.42969C 247.383 8.9974 247.164 9.8099 247.164 10.8672ZM 255.25 14.2422C 255.25 13.9922 255.323 13.7839 255.469 13.6172C 255.62 13.4505 255.844 13.3672 256.141 13.3672C 256.438 13.3672 256.661 13.4505 256.812 13.6172C 256.969 13.7839 257.047 13.9922 257.047 14.2422C 257.047 14.4818 256.969 14.6823 256.812 14.8438C 256.661 15.0052 256.438 15.0859 256.141 15.0859C 255.844 15.0859 255.62 15.0052 255.469 14.8438C 255.323 14.6823 255.25 14.4818 255.25 14.2422ZM 259.469 14.2422C 259.469 13.9922 259.542 13.7839 259.688 13.6172C 259.839 13.4505 260.062 13.3672 260.359 13.3672C 260.656 13.3672 260.88 13.4505 261.031 13.6172C 261.188 13.7839 261.266 13.9922 261.266 14.2422C 261.266 14.4818 261.188 14.6823 261.031 14.8438C 260.88 15.0052 260.656 15.0859 260.359 15.0859C 260.062 15.0859 259.839 15.0052 259.688 14.8438C 259.542 14.6823 259.469 14.4818 259.469 14.2422ZM 263.688 14.2422C 263.688 13.9922 263.76 13.7839 263.906 13.6172C 264.057 13.4505 264.281 13.3672 264.578 13.3672C 264.875 13.3672 265.099 13.4505 265.25 13.6172C 265.406 13.7839 265.484 13.9922 265.484 14.2422C 265.484 14.4818 265.406 14.6823 265.25 14.8438C 265.099 15.0052 264.875 15.0859 264.578 15.0859C 264.281 15.0859 264.057 15.0052 263.906 14.8438C 263.76 14.6823 263.688 14.4818 263.688 14.2422Z"/>
<path id="path3_fill" fill-rule="evenodd" d="M 5.27253 8.22393C 5.52866 8.47025 5.5367 8.87761 5.29039 9.1339C 5.16409 9.26518 4.99532 9.3313 4.82639 9.3313C 4.66583 9.3313 4.50527 9.27177 4.38042 9.15175L 0.197406 5.12963C 0.0712721 5.00832 0 4.84068 0 4.66563C 0 4.49075 0.0712721 4.32311 0.197406 4.2018L 4.38042 0.179671C 4.63655 -0.0666438 5.04407 -0.0587604 5.29039 0.19753C 5.5367 0.45382 5.52866 0.861181 5.27253 1.1075L 1.57201 4.66563L 5.27253 8.22393Z"/>
<path id="path4_stroke" d="M 5.27253 8.22393L 5.3765 8.11581L 5.3765 8.11581L 5.27253 8.22393ZM 5.29039 9.1339L 5.39849 9.23789L 5.39854 9.23784L 5.29039 9.1339ZM 4.38042 9.15175L 4.27645 9.25988L 4.27647 9.25989L 4.38042 9.15175ZM 0.197406 5.12963L 0.0934288 5.23774L 0.0934398 5.23775L 0.197406 5.12963ZM 0.197406 4.2018L 0.0934398 4.09368L 0.0934288 4.09369L 0.197406 4.2018ZM 4.38042 0.179671L 4.48439 0.287796L 4.4844 0.287789L 4.38042 0.179671ZM 5.27253 1.1075L 5.37649 1.21562L 5.3765 1.21561L 5.27253 1.1075ZM 1.57201 4.66563L 1.46804 4.55751L 1.35559 4.66563L 1.46804 4.77376L 1.57201 4.66563ZM 5.16855 8.33205C 5.36498 8.52095 5.37117 8.83338 5.18224 9.02996L 5.39854 9.23784C 5.70224 8.92184 5.69234 8.41954 5.3765 8.11581L 5.16855 8.33205ZM 5.18229 9.0299C 5.08543 9.13059 4.95623 9.1813 4.82639 9.1813L 4.82639 9.4813C 5.03441 9.4813 5.24276 9.39977 5.39849 9.23789L 5.18229 9.0299ZM 4.82639 9.1813C 4.70298 9.1813 4.58014 9.13568 4.48438 9.04362L 4.27647 9.25989C 4.43039 9.40786 4.62868 9.4813 4.82639 9.4813L 4.82639 9.1813ZM 4.48439 9.04363L 0.301372 5.0215L 0.0934398 5.23775L 4.27645 9.25988L 4.48439 9.04363ZM 0.301383 5.02151C 0.204696 4.92852 0.15 4.79994 0.15 4.66563L -0.15 4.66563C -0.15 4.88141 -0.0621522 5.08811 0.0934288 5.23774L 0.301383 5.02151ZM 0.15 4.66563C 0.15 4.53151 0.204682 4.40292 0.301383 4.30992L 0.0934288 4.09369C -0.0621378 4.2433 -0.15 4.44999 -0.15 4.66563L 0.15 4.66563ZM 0.301372 4.30993L 4.48439 0.287796L 4.27645 0.0715465L 0.0934398 4.09368L 0.301372 4.30993ZM 4.4844 0.287789C 4.68083 0.09888 4.99337 0.104954 5.18224 0.30147L 5.39854 0.0935892C 5.09477 -0.222474 4.59227 -0.232168 4.27645 0.0715543L 4.4844 0.287789ZM 5.18224 0.30147C 5.37117 0.498049 5.36498 0.81048 5.16855 0.999379L 5.3765 1.21561C 5.69234 0.911882 5.70224 0.40959 5.39854 0.0935892L 5.18224 0.30147ZM 5.16856 0.999371L 1.46804 4.55751L 1.67597 4.77376L 5.37649 1.21562L 5.16856 0.999371ZM 1.46804 4.77376L 5.16856 8.33205L 5.3765 8.11581L 1.67598 4.55751L 1.46804 4.77376Z"/>
</defs>
</svg>
