<svg width="394" height="85" viewBox="0 0 394 85" version="1.1" xmlns="http://www.w3.org/2000/svg" xmlns:xlink="http://www.w3.org/1999/xlink">
<title>Component</title>
<desc>Created using Figma</desc>
<g id="Canvas" transform="translate(-2566 -11562)">
<g id="Component">
<g id="Group">
<g id="Rectangle 5" filter="url(#filter0_d)">
<use xlink:href="#path0_fill" transform="translate(2590 11580)" fill="#FFFFFF"/>
</g>
</g>
<g id="Rectangle 9 Copy 4" opacity="0.4">
<use xlink:href="#path1_fill" transform="translate(2600 11624)" fill="#D8D8D8"/>
</g>
<g id="Found 349 boats">
<use xlink:href="#path2_fill" transform="translate(2599 11595)" fill="#34495E"/>
</g>
<g id="Group">
<g id="Rectangle 5" filter="url(#filter1_d)">
<use xlink:href="#path3_fill" transform="translate(2765 11579)" fill="#FFFFFF"/>
<mask id="mask0_outline_ins">
<use xlink:href="#path3_fill" fill="white" transform="translate(2765 11579)"/>
</mask>
<g mask="url(#mask0_outline_ins)">
<use xlink:href="#path4_stroke_2x" transform="translate(2765 11579)" fill="#E0E6ED"/>
</g>
</g>
</g>
<g id="Rectangle 9 Copy 4">
<use xlink:href="#path5_fill" transform="translate(2765 11620)" fill="#F0F0F0"/>
</g>
<g id="Found 349 boats">
<use xlink:href="#path2_fill" transform="translate(2785 11592)" fill="#34495E"/>
</g>
<g id="Rectangle 8">
<use xlink:href="#path6_fill" transform="translate(2785 11637)" fill="url(#paint7_linear)"/>
</g>
</g>
</g>
<defs>
<filter id="filter0_d" filterUnits="userSpaceOnUse" x="2566" y="11562" width="208" height="85" color-interpolation-filters="sRGB">
<feFlood flood-opacity="0" result="BackgroundImageFix"/>
<feColorMatrix in="SourceAlpha" type="matrix" values="0 0 0 0 0 0 0 0 0 0 0 0 0 0 0 0 0 0 255 0"/>
<feOffset dx="-4" dy="2"/>
<feGaussianBlur stdDeviation="10"/>
<feColorMatrix type="matrix" values="0 0 0 0 0.894118 0 0 0 0 0.901961 0 0 0 0 0.913725 0 0 0 1 0"/>
<feBlend mode="normal" in2="BackgroundImageFix" result="effect1_dropShadow"/>
<feBlend mode="normal" in="SourceGraphic" in2="effect1_dropShadow" result="shape"/>
</filter>
<filter id="filter1_d" filterUnits="userSpaceOnUse" x="2752" y="11571" width="208" height="76" color-interpolation-filters="sRGB">
<feFlood flood-opacity="0" result="BackgroundImageFix"/>
<feColorMatrix in="SourceAlpha" type="matrix" values="0 0 0 0 0 0 0 0 0 0 0 0 0 0 0 0 0 0 255 0"/>
<feOffset dx="-3" dy="2"/>
<feGaussianBlur stdDeviation="5"/>
<feColorMatrix type="matrix" values="0 0 0 0 0.942708 0 0 0 0 0.942708 0 0 0 0 0.942708 0 0 0 1 0"/>
<feBlend mode="normal" in2="BackgroundImageFix" result="effect1_dropShadow"/>
<feBlend mode="normal" in="SourceGraphic" in2="effect1_dropShadow" result="shape"/>
</filter>
<linearGradient id="paint7_linear" x1="0" y1="0" x2="1" y2="0" gradientUnits="userSpaceOnUse" gradientTransform="matrix(0.822517 139.676 -514.594 0.223255 69.1775 -101.676)">
<stop offset="0" stop-color="#0EE9B3"/>
<stop offset="1" stop-color="#2399F5"/>
</linearGradient>
<path id="path0_fill" fill-rule="evenodd" d="M 4 0C 1.79077 0 0 1.79102 0 4L 0 143C 0 145.209 1.79077 147 4 147L 156 147C 158.209 147 160 145.209 160 143L 160 28.709C 161.47 29.6084 163.494 29.5732 164.934 28.1338L 166.913 26.1543C 167.694 25.373 167.694 24.1074 166.913 23.3262L 164.934 21.3467C 163.494 19.9072 161.47 19.8721 160 20.7715L 160 4C 160 1.79102 158.209 0 156 0L 4 0Z"/>
<path id="path1_fill" fill-rule="evenodd" d="M 0 0L 138 0L 138 1L 0 1L 0 0Z"/>
<path id="path2_fill" d="M 6.64453 8.60449L 2.46777 8.60449L 2.46777 13L 1.15527 13L 1.15527 3.04688L 7.32129 3.04688L 7.32129 4.12695L 2.46777 4.12695L 2.46777 7.53125L 6.64453 7.53125L 6.64453 8.60449ZM 8.20996 9.2334C 8.20996 8.50879 8.35124 7.8571 8.63379 7.27832C 8.9209 6.69954 9.31738 6.25293 9.82324 5.93848C 10.3337 5.62402 10.9147 5.4668 11.5664 5.4668C 12.5736 5.4668 13.387 5.81543 14.0068 6.5127C 14.6312 7.20996 14.9434 8.13737 14.9434 9.29492L 14.9434 9.38379C 14.9434 10.1038 14.8044 10.751 14.5264 11.3252C 14.2529 11.8949 13.8587 12.3392 13.3438 12.6582C 12.8333 12.9772 12.2454 13.1367 11.5801 13.1367C 10.5775 13.1367 9.764 12.7881 9.13965 12.0908C 8.51986 11.3936 8.20996 10.4707 8.20996 9.32227L 8.20996 9.2334ZM 9.48145 9.38379C 9.48145 10.2041 9.67057 10.8626 10.0488 11.3594C 10.4316 11.8561 10.9421 12.1045 11.5801 12.1045C 12.2227 12.1045 12.7331 11.8538 13.1113 11.3525C 13.4896 10.8467 13.6787 10.1403 13.6787 9.2334C 13.6787 8.4222 13.485 7.76595 13.0977 7.26465C 12.7148 6.75879 12.2044 6.50586 11.5664 6.50586C 10.9421 6.50586 10.4385 6.75423 10.0557 7.25098C 9.67285 7.74772 9.48145 8.45866 9.48145 9.38379ZM 21.0957 12.2686C 20.6035 12.8473 19.8812 13.1367 18.9287 13.1367C 18.1403 13.1367 17.5387 12.9089 17.124 12.4531C 16.7139 11.9928 16.5065 11.3138 16.502 10.416L 16.502 5.60352L 17.7666 5.60352L 17.7666 10.3818C 17.7666 11.5029 18.2223 12.0635 19.1338 12.0635C 20.0999 12.0635 20.7425 11.7035 21.0615 10.9834L 21.0615 5.60352L 22.3262 5.60352L 22.3262 13L 21.123 13L 21.0957 12.2686ZM 25.4502 5.60352L 25.4912 6.5332C 26.0563 5.82227 26.7946 5.4668 27.7061 5.4668C 29.2692 5.4668 30.0576 6.34863 30.0713 8.1123L 30.0713 13L 28.8066 13L 28.8066 8.10547C 28.8021 7.57227 28.679 7.17806 28.4375 6.92285C 28.2005 6.66764 27.8291 6.54004 27.3232 6.54004C 26.9131 6.54004 26.5531 6.64941 26.2432 6.86816C 25.9333 7.08691 25.6917 7.37402 25.5186 7.72949L 25.5186 13L 24.2539 13L 24.2539 5.60352L 25.4502 5.60352ZM 31.6709 9.24023C 31.6709 8.10547 31.9398 7.19401 32.4775 6.50586C 33.0153 5.81315 33.7194 5.4668 34.5898 5.4668C 35.4557 5.4668 36.1416 5.76302 36.6475 6.35547L 36.6475 2.5L 37.9121 2.5L 37.9121 13L 36.75 13L 36.6885 12.207C 36.1826 12.8268 35.4785 13.1367 34.5762 13.1367C 33.7194 13.1367 33.0199 12.7858 32.4775 12.084C 31.9398 11.3822 31.6709 10.4661 31.6709 9.33594L 31.6709 9.24023ZM 32.9355 9.38379C 32.9355 10.2223 33.1087 10.8786 33.4551 11.3525C 33.8014 11.8265 34.2799 12.0635 34.8906 12.0635C 35.6927 12.0635 36.2783 11.7035 36.6475 10.9834L 36.6475 7.58594C 36.2692 6.88867 35.6882 6.54004 34.9043 6.54004C 34.2845 6.54004 33.8014 6.7793 33.4551 7.25781C 33.1087 7.73633 32.9355 8.44499 32.9355 9.38379ZM 45.0625 7.4082L 46.0127 7.4082C 46.6097 7.39909 47.0791 7.24186 47.4209 6.93652C 47.7627 6.63118 47.9336 6.21875 47.9336 5.69922C 47.9336 4.53255 47.3525 3.94922 46.1904 3.94922C 45.6436 3.94922 45.2061 4.10645 44.8779 4.4209C 44.5544 4.73079 44.3926 5.14323 44.3926 5.6582L 43.1279 5.6582C 43.1279 4.86979 43.415 4.21582 43.9893 3.69629C 44.568 3.1722 45.3018 2.91016 46.1904 2.91016C 47.1292 2.91016 47.8652 3.15853 48.3984 3.65527C 48.9316 4.15202 49.1982 4.84245 49.1982 5.72656C 49.1982 6.15951 49.057 6.57878 48.7744 6.98438C 48.4964 7.38997 48.1159 7.69303 47.6328 7.89355C 48.1797 8.06673 48.6012 8.35384 48.8975 8.75488C 49.1982 9.15592 49.3486 9.64583 49.3486 10.2246C 49.3486 11.1178 49.057 11.8265 48.4736 12.3506C 47.8903 12.8747 47.1315 13.1367 46.1973 13.1367C 45.263 13.1367 44.502 12.8838 43.9141 12.3779C 43.3307 11.8721 43.0391 11.2044 43.0391 10.375L 44.3105 10.375C 44.3105 10.8991 44.4814 11.3184 44.8232 11.6328C 45.165 11.9473 45.623 12.1045 46.1973 12.1045C 46.8079 12.1045 47.2751 11.945 47.5986 11.626C 47.9222 11.307 48.084 10.849 48.084 10.252C 48.084 9.67318 47.9062 9.22884 47.5508 8.91895C 47.1953 8.60905 46.6826 8.44954 46.0127 8.44043L 45.0625 8.44043L 45.0625 7.4082ZM 56.4238 9.65723L 57.8047 9.65723L 57.8047 10.6895L 56.4238 10.6895L 56.4238 13L 55.1523 13L 55.1523 10.6895L 50.6201 10.6895L 50.6201 9.94434L 55.0771 3.04688L 56.4238 3.04688L 56.4238 9.65723ZM 52.0557 9.65723L 55.1523 9.65723L 55.1523 4.77637L 55.002 5.0498L 52.0557 9.65723ZM 63.793 8.625C 63.5286 8.93945 63.2119 9.19238 62.8428 9.38379C 62.4782 9.5752 62.0771 9.6709 61.6396 9.6709C 61.0654 9.6709 60.5641 9.52962 60.1357 9.24707C 59.7119 8.96452 59.3838 8.56803 59.1514 8.05762C 58.9189 7.54264 58.8027 6.97526 58.8027 6.35547C 58.8027 5.6901 58.9281 5.09082 59.1787 4.55762C 59.4339 4.02441 59.7939 3.61654 60.2588 3.33398C 60.7236 3.05143 61.266 2.91016 61.8857 2.91016C 62.8701 2.91016 63.6449 3.2793 64.21 4.01758C 64.7796 4.7513 65.0645 5.75391 65.0645 7.02539L 65.0645 7.39453C 65.0645 9.33138 64.6816 10.7464 63.916 11.6396C 63.1504 12.5283 61.9951 12.984 60.4502 13.0068L 60.2041 13.0068L 60.2041 11.9404L 60.4707 11.9404C 61.5143 11.9222 62.3164 11.651 62.877 11.127C 63.4375 10.5983 63.7428 9.76432 63.793 8.625ZM 61.8447 8.625C 62.2686 8.625 62.6582 8.49512 63.0137 8.23535C 63.3737 7.97559 63.6357 7.6543 63.7998 7.27148L 63.7998 6.76562C 63.7998 5.9362 63.6198 5.26172 63.2598 4.74219C 62.8997 4.22266 62.444 3.96289 61.8926 3.96289C 61.3366 3.96289 60.89 4.17708 60.5527 4.60547C 60.2155 5.0293 60.0469 5.58984 60.0469 6.28711C 60.0469 6.96615 60.2087 7.52669 60.5322 7.96875C 60.8604 8.40625 61.2979 8.625 61.8447 8.625ZM 76.6719 9.38379C 76.6719 10.514 76.4121 11.4232 75.8926 12.1113C 75.373 12.7949 74.6758 13.1367 73.8008 13.1367C 72.8665 13.1367 72.1442 12.8063 71.6338 12.1455L 71.5723 13L 70.4102 13L 70.4102 2.5L 71.6748 2.5L 71.6748 6.41699C 72.1852 5.78353 72.8893 5.4668 73.7871 5.4668C 74.6849 5.4668 75.389 5.80631 75.8994 6.48535C 76.4144 7.16439 76.6719 8.09408 76.6719 9.27441L 76.6719 9.38379ZM 75.4072 9.24023C 75.4072 8.37891 75.2409 7.71354 74.9082 7.24414C 74.5755 6.77474 74.097 6.54004 73.4727 6.54004C 72.6387 6.54004 72.0394 6.92741 71.6748 7.70215L 71.6748 10.9014C 72.0622 11.6761 72.666 12.0635 73.4863 12.0635C 74.0924 12.0635 74.5641 11.8288 74.9014 11.3594C 75.2386 10.89 75.4072 10.1836 75.4072 9.24023ZM 77.9365 9.2334C 77.9365 8.50879 78.0778 7.8571 78.3604 7.27832C 78.6475 6.69954 79.0439 6.25293 79.5498 5.93848C 80.0602 5.62402 80.6413 5.4668 81.293 5.4668C 82.3001 5.4668 83.1136 5.81543 83.7334 6.5127C 84.3577 7.20996 84.6699 8.13737 84.6699 9.29492L 84.6699 9.38379C 84.6699 10.1038 84.5309 10.751 84.2529 11.3252C 83.9795 11.8949 83.5853 12.3392 83.0703 12.6582C 82.5599 12.9772 81.972 13.1367 81.3066 13.1367C 80.304 13.1367 79.4906 12.7881 78.8662 12.0908C 78.2464 11.3936 77.9365 10.4707 77.9365 9.32227L 77.9365 9.2334ZM 79.208 9.38379C 79.208 10.2041 79.3971 10.8626 79.7754 11.3594C 80.1582 11.8561 80.6686 12.1045 81.3066 12.1045C 81.9492 12.1045 82.4596 11.8538 82.8379 11.3525C 83.2161 10.8467 83.4053 10.1403 83.4053 9.2334C 83.4053 8.4222 83.2116 7.76595 82.8242 7.26465C 82.4414 6.75879 81.931 6.50586 81.293 6.50586C 80.6686 6.50586 80.165 6.75423 79.7822 7.25098C 79.3994 7.74772 79.208 8.45866 79.208 9.38379ZM 90.8223 13C 90.7493 12.8542 90.6901 12.5944 90.6445 12.2207C 90.0566 12.8314 89.3548 13.1367 88.5391 13.1367C 87.8099 13.1367 87.2106 12.9316 86.7412 12.5215C 86.2764 12.1068 86.0439 11.5827 86.0439 10.9492C 86.0439 10.179 86.3356 9.58203 86.9189 9.1582C 87.5068 8.72982 88.3317 8.51562 89.3936 8.51562L 90.624 8.51562L 90.624 7.93457C 90.624 7.49251 90.4919 7.1416 90.2275 6.88184C 89.9632 6.61751 89.5736 6.48535 89.0586 6.48535C 88.6074 6.48535 88.2292 6.59928 87.9238 6.82715C 87.6185 7.05501 87.4658 7.33073 87.4658 7.6543L 86.1943 7.6543C 86.1943 7.28516 86.3242 6.92969 86.584 6.58789C 86.8483 6.24154 87.2038 5.9681 87.6504 5.76758C 88.1016 5.56706 88.596 5.4668 89.1338 5.4668C 89.986 5.4668 90.6536 5.68099 91.1367 6.10938C 91.6198 6.5332 91.8704 7.11882 91.8887 7.86621L 91.8887 11.2705C 91.8887 11.9495 91.9753 12.4896 92.1484 12.8906L 92.1484 13L 90.8223 13ZM 88.7236 12.0361C 89.1201 12.0361 89.4961 11.9336 89.8516 11.7285C 90.207 11.5234 90.4645 11.2568 90.624 10.9287L 90.624 9.41113L 89.6328 9.41113C 88.0833 9.41113 87.3086 9.86458 87.3086 10.7715C 87.3086 11.168 87.4408 11.4779 87.7051 11.7012C 87.9694 11.9245 88.3089 12.0361 88.7236 12.0361ZM 95.5869 3.8125L 95.5869 5.60352L 96.9678 5.60352L 96.9678 6.58105L 95.5869 6.58105L 95.5869 11.168C 95.5869 11.4642 95.6484 11.6875 95.7715 11.8379C 95.8945 11.9837 96.1042 12.0566 96.4004 12.0566C 96.5462 12.0566 96.7467 12.0293 97.002 11.9746L 97.002 13C 96.6693 13.0911 96.3457 13.1367 96.0312 13.1367C 95.4661 13.1367 95.04 12.9658 94.7529 12.624C 94.4658 12.2822 94.3223 11.7969 94.3223 11.168L 94.3223 6.58105L 92.9756 6.58105L 92.9756 5.60352L 94.3223 5.60352L 94.3223 3.8125L 95.5869 3.8125ZM 102.758 11.0381C 102.758 10.6963 102.628 10.432 102.368 10.2451C 102.113 10.0537 101.664 9.88965 101.021 9.75293C 100.383 9.61621 99.8753 9.45215 99.4971 9.26074C 99.1234 9.06934 98.8454 8.84147 98.6631 8.57715C 98.4854 8.31283 98.3965 7.99837 98.3965 7.63379C 98.3965 7.02767 98.6517 6.51497 99.1621 6.0957C 99.6771 5.67643 100.333 5.4668 101.131 5.4668C 101.969 5.4668 102.648 5.68327 103.168 6.11621C 103.692 6.54915 103.954 7.10286 103.954 7.77734L 102.683 7.77734C 102.683 7.43099 102.535 7.13249 102.238 6.88184C 101.947 6.63118 101.577 6.50586 101.131 6.50586C 100.671 6.50586 100.311 6.60612 100.051 6.80664C 99.791 7.00716 99.6611 7.26921 99.6611 7.59277C 99.6611 7.89811 99.7819 8.12826 100.023 8.2832C 100.265 8.43815 100.7 8.58626 101.329 8.72754C 101.963 8.86882 102.475 9.03743 102.867 9.2334C 103.259 9.42936 103.549 9.66634 103.735 9.94434C 103.927 10.2178 104.022 10.5527 104.022 10.9492C 104.022 11.61 103.758 12.141 103.229 12.542C 102.701 12.9385 102.015 13.1367 101.172 13.1367C 100.579 13.1367 100.055 13.0319 99.5996 12.8223C 99.1439 12.6126 98.7861 12.321 98.5264 11.9473C 98.2712 11.569 98.1436 11.1611 98.1436 10.7236L 99.4082 10.7236C 99.431 11.1475 99.5996 11.4847 99.9141 11.7354C 100.233 11.9814 100.652 12.1045 101.172 12.1045C 101.65 12.1045 102.033 12.0088 102.32 11.8174C 102.612 11.6214 102.758 11.3617 102.758 11.0381Z"/>
<path id="path3_fill" fill-rule="evenodd" d="M 4 0C 1.79077 0 0 1.79102 0 4L 0 113C 0 115.209 1.79077 117 4 117L 176 117C 178.209 117 180 115.209 180 113L 180 24.709C 181.47 25.6084 183.494 25.5732 184.934 24.1338L 186.913 22.1543C 187.694 21.373 187.694 20.1074 186.913 19.3262L 184.934 17.3467C 183.494 15.9072 181.47 15.8721 180 16.7715L 180 4C 180 1.79102 178.209 0 176 0L 4 0Z"/>
<path id="path4_stroke_2x" d="M 180 24.709L 180.522 23.8559L 179 22.9249L 179 24.709L 180 24.709ZM 184.934 24.1338L 185.641 24.841L 185.641 24.8409L 184.934 24.1338ZM 186.913 22.1543L 186.206 21.4472L 186.206 21.4472L 186.913 22.1543ZM 186.913 19.3262L 186.206 20.0332L 186.206 20.0333L 186.913 19.3262ZM 184.934 17.3467L 185.641 16.6396L 185.641 16.6395L 184.934 17.3467ZM 180 16.7715L 179 16.7715L 179 18.5555L 180.522 17.6245L 180 16.7715ZM 1 4C 1 2.34326 2.3431 1 4 1L 4 -1C 1.23845 -1 -1 1.23877 -1 4L 1 4ZM 1 113L 1 4L -1 4L -1 113L 1 113ZM 4 116C 2.3431 116 1 114.657 1 113L -1 113C -1 115.761 1.23845 118 4 118L 4 116ZM 176 116L 4 116L 4 118L 176 118L 176 116ZM 179 113C 179 114.657 177.657 116 176 116L 176 118C 178.762 118 181 115.761 181 113L 179 113ZM 179 24.709L 179 113L 181 113L 181 24.709L 179 24.709ZM 179.478 25.562C 181.297 26.6749 183.838 26.6431 185.641 24.841L 184.227 23.4266C 183.15 24.5033 181.643 24.5419 180.522 23.8559L 179.478 25.562ZM 185.641 24.8409L 187.62 22.8614L 186.206 21.4472L 184.226 23.4267L 185.641 24.8409ZM 187.62 22.8614C 188.792 21.6896 188.792 19.7908 187.62 18.6191L 186.206 20.0333C 186.596 20.424 186.596 21.0565 186.206 21.4472L 187.62 22.8614ZM 187.62 18.6191L 185.641 16.6396L 184.226 18.0537L 186.206 20.0332L 187.62 18.6191ZM 185.641 16.6395C 183.838 14.8373 181.297 14.8056 179.478 15.9184L 180.522 17.6245C 181.643 16.9386 183.15 16.9771 184.227 18.0538L 185.641 16.6395ZM 179 4L 179 16.7715L 181 16.7715L 181 4L 179 4ZM 176 1C 177.657 1 179 2.34326 179 4L 181 4C 181 1.23877 178.762 -1 176 -1L 176 1ZM 4 1L 176 1L 176 -1L 4 -1L 4 1Z"/>
<path id="path5_fill" fill-rule="evenodd" d="M 0 0L 180 0L 180 1L 0 1L 0 0Z"/>
<path id="path6_fill" fill-rule="evenodd" d="M 0 6C 0 2.68629 2.68629 0 6 0L 134 0C 137.314 0 140 2.68629 140 6L 140 32C 140 35.3137 137.314 38 134 38L 6 38C 2.68629 38 0 35.3137 0 32L 0 6Z"/>
</defs>
</svg>
