<svg width="350" height="130" viewBox="0 0 350 130" version="1.1" xmlns="http://www.w3.org/2000/svg" xmlns:xlink="http://www.w3.org/1999/xlink">
<title>Component</title>
<desc>Created using Figma</desc>
<g id="Canvas" transform="translate(-2535 -11304)">
<g id="Component">
<g id="input field copy 19">
<use xlink:href="#path0_fill" transform="translate(2535 11304)" fill="#FFFFFF"/>
<mask id="mask0_outline_ins">
<use xlink:href="#path0_fill" fill="white" transform="translate(2535 11304)"/>
</mask>
<g mask="url(#mask0_outline_ins)">
<use xlink:href="#path1_stroke_2x" transform="translate(2535 11304)" fill="#E0E6ED"/>
</g>
</g>
<g id="Day">
<use xlink:href="#path2_fill" transform="translate(2679 11323)" fill="#34495E"/>
</g>
<g id="Week">
<use xlink:href="#path3_fill" transform="translate(2549 11323)" fill="#34495E"/>
</g>
<g id="Passenger">
<use xlink:href="#path4_fill" transform="translate(2787 11323)" fill="#34495E"/>
</g>
<g id="Rectangle 5 Copy 18" opacity="0.5">
<use xlink:href="#path5_fill" transform="translate(2549 11392)" fill="#DDDDDD"/>
</g>
<g id="Rectangle 5 Copy 17">
<use xlink:href="#path6_fill" transform="translate(2609 11392)" fill="#71A2EA"/>
</g>
<g id="Oval Copy 10">
<use xlink:href="#path7_fill" transform="translate(2603 11383)" fill="#C8DCF9"/>
<mask id="mask1_outline_ins">
<use xlink:href="#path7_fill" fill="white" transform="translate(2603 11383)"/>
</mask>
<g mask="url(#mask1_outline_ins)">
<use xlink:href="#path8_stroke_2x" transform="translate(2603 11383)" fill="#71A2EA"/>
</g>
</g>
<g id="Oval Copy 9">
<use xlink:href="#path7_fill" transform="translate(2803 11383)" fill="#C8DCF9"/>
<mask id="mask2_outline_ins">
<use xlink:href="#path7_fill" fill="white" transform="translate(2803 11383)"/>
</mask>
<g mask="url(#mask2_outline_ins)">
<use xlink:href="#path8_stroke_2x" transform="translate(2803 11383)" fill="#71A2EA"/>
</g>
</g>
<g id="125&#226;&#128;&#147;268">
<use xlink:href="#path9_fill" transform="translate(2787 11343)" fill="#34495E"/>
</g>
<g id="356&#226;&#128;&#147;896">
<use xlink:href="#path10_fill" transform="translate(2679 11343)" fill="#34495E"/>
</g>
<g id="5456&#226;&#128;&#147;5896">
<use xlink:href="#path11_fill" transform="translate(2549 11343)" fill="#34495E"/>
</g>
</g>
</g>
<defs>
<path id="path0_fill" fill-rule="evenodd" d="M 0 4C 0 1.79086 1.79086 0 4 0L 346 0C 348.209 0 350 1.79086 350 4L 350 126C 350 128.209 348.209 130 346 130L 4 130C 1.79086 130 0 128.209 0 126L 0 4Z"/>
<path id="path1_stroke_2x" d="M 4 1L 346 1L 346 -1L 4 -1L 4 1ZM 349 4L 349 126L 351 126L 351 4L 349 4ZM 346 129L 4 129L 4 131L 346 131L 346 129ZM 1 126L 1 4L -1 4L -1 126L 1 126ZM 4 -1C 1.23858 -1 -1 1.23858 -1 4L 1 4C 1 2.34315 2.34315 1 4 1L 4 -1ZM 346 1C 347.657 1 349 2.34315 349 4L 351 4C 351 1.23858 348.761 -1 346 -1L 346 1ZM 349 126C 349 127.657 347.657 129 346 129L 346 131C 348.761 131 351 128.761 351 126L 349 126ZM 4 129C 2.34315 129 1 127.657 1 126L -1 126C -1 128.761 1.23858 131 4 131L 4 129Z"/>
<path id="path2_fill" d="M 1.32031 19L 1.32031 7.625L 4.53125 7.625C 5.52083 7.625 6.39583 7.84375 7.15625 8.28125C 7.91667 8.71875 8.5026 9.34115 8.91406 10.1484C 9.33073 10.9557 9.54167 11.8828 9.54688 12.9297L 9.54688 13.6562C 9.54688 14.7292 9.33854 15.6693 8.92188 16.4766C 8.51042 17.2839 7.91927 17.9036 7.14844 18.3359C 6.38281 18.7682 5.48958 18.9896 4.46875 19L 1.32031 19ZM 2.82031 8.85938L 2.82031 17.7734L 4.39844 17.7734C 5.55469 17.7734 6.45312 17.4141 7.09375 16.6953C 7.73958 15.9766 8.0625 14.9531 8.0625 13.625L 8.0625 12.9609C 8.0625 11.6693 7.75781 10.6667 7.14844 9.95312C 6.54427 9.23438 5.6849 8.86979 4.57031 8.85938L 2.82031 8.85938ZM 16.8125 19C 16.7292 18.8333 16.6615 18.5365 16.6094 18.1094C 15.9375 18.8073 15.1354 19.1562 14.2031 19.1562C 13.3698 19.1562 12.6849 18.9219 12.1484 18.4531C 11.6172 17.9792 11.3516 17.3802 11.3516 16.6562C 11.3516 15.776 11.6849 15.0938 12.3516 14.6094C 13.0234 14.1198 13.9661 13.875 15.1797 13.875L 16.5859 13.875L 16.5859 13.2109C 16.5859 12.7057 16.4349 12.3047 16.1328 12.0078C 15.8307 11.7057 15.3854 11.5547 14.7969 11.5547C 14.2812 11.5547 13.849 11.6849 13.5 11.9453C 13.151 12.2057 12.9766 12.5208 12.9766 12.8906L 11.5234 12.8906C 11.5234 12.4688 11.6719 12.0625 11.9688 11.6719C 12.2708 11.276 12.6771 10.9635 13.1875 10.7344C 13.7031 10.5052 14.2682 10.3906 14.8828 10.3906C 15.8568 10.3906 16.6198 10.6354 17.1719 11.125C 17.724 11.6094 18.0104 12.2786 18.0312 13.1328L 18.0312 17.0234C 18.0312 17.7995 18.1302 18.4167 18.3281 18.875L 18.3281 19L 16.8125 19ZM 14.4141 17.8984C 14.8672 17.8984 15.2969 17.7812 15.7031 17.5469C 16.1094 17.3125 16.4036 17.0078 16.5859 16.6328L 16.5859 14.8984L 15.4531 14.8984C 13.6823 14.8984 12.7969 15.4167 12.7969 16.4531C 12.7969 16.9062 12.9479 17.2604 13.25 17.5156C 13.5521 17.7708 13.9401 17.8984 14.4141 17.8984ZM 22.9375 16.8828L 24.9062 10.5469L 26.4531 10.5469L 23.0547 20.3047C 22.5286 21.7109 21.6927 22.4141 20.5469 22.4141L 20.2734 22.3906L 19.7344 22.2891L 19.7344 21.1172L 20.125 21.1484C 20.6146 21.1484 20.9948 21.0495 21.2656 20.8516C 21.5417 20.6536 21.7682 20.2917 21.9453 19.7656L 22.2656 18.9062L 19.25 10.5469L 20.8281 10.5469L 22.9375 16.8828Z"/>
<path id="path3_fill" d="M 3.77344 15.4141L 3.99219 16.9141L 4.3125 15.5625L 6.5625 7.625L 7.82812 7.625L 10.0234 15.5625L 10.3359 16.9375L 10.5781 15.4062L 12.3438 7.625L 13.8516 7.625L 11.0938 19L 9.72656 19L 7.38281 10.7109L 7.20312 9.84375L 7.02344 10.7109L 4.59375 19L 3.22656 19L 0.476562 7.625L 1.97656 7.625L 3.77344 15.4141ZM 18.5547 19.1562C 17.4089 19.1562 16.4766 18.7812 15.7578 18.0312C 15.0391 17.276 14.6797 16.2682 14.6797 15.0078L 14.6797 14.7422C 14.6797 13.9036 14.8385 13.1562 15.1562 12.5C 15.4792 11.8385 15.9271 11.3229 16.5 10.9531C 17.0781 10.5781 17.7031 10.3906 18.375 10.3906C 19.474 10.3906 20.3281 10.7526 20.9375 11.4766C 21.5469 12.2005 21.8516 13.237 21.8516 14.5859L 21.8516 15.1875L 16.125 15.1875C 16.1458 16.0208 16.388 16.6953 16.8516 17.2109C 17.3203 17.7214 17.9141 17.9766 18.6328 17.9766C 19.1432 17.9766 19.5755 17.8724 19.9297 17.6641C 20.2839 17.4557 20.5938 17.1797 20.8594 16.8359L 21.7422 17.5234C 21.0339 18.612 19.9714 19.1562 18.5547 19.1562ZM 18.375 11.5781C 17.7917 11.5781 17.3021 11.7917 16.9062 12.2188C 16.5104 12.6406 16.2656 13.2344 16.1719 14L 20.4062 14L 20.4062 13.8906C 20.3646 13.1562 20.1667 12.5885 19.8125 12.1875C 19.4583 11.7812 18.9792 11.5781 18.375 11.5781ZM 27.0391 19.1562C 25.8932 19.1562 24.9609 18.7812 24.2422 18.0312C 23.5234 17.276 23.1641 16.2682 23.1641 15.0078L 23.1641 14.7422C 23.1641 13.9036 23.3229 13.1562 23.6406 12.5C 23.9635 11.8385 24.4115 11.3229 24.9844 10.9531C 25.5625 10.5781 26.1875 10.3906 26.8594 10.3906C 27.9583 10.3906 28.8125 10.7526 29.4219 11.4766C 30.0312 12.2005 30.3359 13.237 30.3359 14.5859L 30.3359 15.1875L 24.6094 15.1875C 24.6302 16.0208 24.8724 16.6953 25.3359 17.2109C 25.8047 17.7214 26.3984 17.9766 27.1172 17.9766C 27.6276 17.9766 28.0599 17.8724 28.4141 17.6641C 28.7682 17.4557 29.0781 17.1797 29.3438 16.8359L 30.2266 17.5234C 29.5182 18.612 28.4557 19.1562 27.0391 19.1562ZM 26.8594 11.5781C 26.276 11.5781 25.7865 11.7917 25.3906 12.2188C 24.9948 12.6406 24.75 13.2344 24.6562 14L 28.8906 14L 28.8906 13.8906C 28.849 13.1562 28.651 12.5885 28.2969 12.1875C 27.9427 11.7812 27.4635 11.5781 26.8594 11.5781ZM 34.375 15.0859L 33.4688 16.0312L 33.4688 19L 32.0234 19L 32.0234 7L 33.4688 7L 33.4688 14.2578L 34.2422 13.3281L 36.875 10.5469L 38.6328 10.5469L 35.3438 14.0781L 39.0156 19L 37.3203 19L 34.375 15.0859Z"/>
<path id="path4_fill" d="M 2.82031 14.5469L 2.82031 19L 1.32031 19L 1.32031 7.625L 5.51562 7.625C 6.76042 7.625 7.73438 7.94271 8.4375 8.57812C 9.14583 9.21354 9.5 10.0547 9.5 11.1016C 9.5 12.2057 9.15365 13.0573 8.46094 13.6562C 7.77344 14.25 6.78646 14.5469 5.5 14.5469L 2.82031 14.5469ZM 2.82031 13.3203L 5.51562 13.3203C 6.31771 13.3203 6.93229 13.1328 7.35938 12.7578C 7.78646 12.3776 8 11.8307 8 11.1172C 8 10.4401 7.78646 9.89844 7.35938 9.49219C 6.93229 9.08594 6.34635 8.875 5.60156 8.85938L 2.82031 8.85938L 2.82031 13.3203ZM 16.3125 19C 16.2292 18.8333 16.1615 18.5365 16.1094 18.1094C 15.4375 18.8073 14.6354 19.1562 13.7031 19.1562C 12.8698 19.1562 12.1849 18.9219 11.6484 18.4531C 11.1172 17.9792 10.8516 17.3802 10.8516 16.6562C 10.8516 15.776 11.1849 15.0938 11.8516 14.6094C 12.5234 14.1198 13.4661 13.875 14.6797 13.875L 16.0859 13.875L 16.0859 13.2109C 16.0859 12.7057 15.9349 12.3047 15.6328 12.0078C 15.3307 11.7057 14.8854 11.5547 14.2969 11.5547C 13.7812 11.5547 13.349 11.6849 13 11.9453C 12.651 12.2057 12.4766 12.5208 12.4766 12.8906L 11.0234 12.8906C 11.0234 12.4688 11.1719 12.0625 11.4688 11.6719C 11.7708 11.276 12.1771 10.9635 12.6875 10.7344C 13.2031 10.5052 13.7682 10.3906 14.3828 10.3906C 15.3568 10.3906 16.1198 10.6354 16.6719 11.125C 17.224 11.6094 17.5104 12.2786 17.5312 13.1328L 17.5312 17.0234C 17.5312 17.7995 17.6302 18.4167 17.8281 18.875L 17.8281 19L 16.3125 19ZM 13.9141 17.8984C 14.3672 17.8984 14.7969 17.7812 15.2031 17.5469C 15.6094 17.3125 15.9036 17.0078 16.0859 16.6328L 16.0859 14.8984L 14.9531 14.8984C 13.1823 14.8984 12.2969 15.4167 12.2969 16.4531C 12.2969 16.9062 12.4479 17.2604 12.75 17.5156C 13.0521 17.7708 13.4401 17.8984 13.9141 17.8984ZM 24.7188 16.7578C 24.7188 16.3672 24.5703 16.0651 24.2734 15.8516C 23.9818 15.6328 23.4688 15.4453 22.7344 15.2891C 22.0052 15.1328 21.4245 14.9453 20.9922 14.7266C 20.5651 14.5078 20.2474 14.2474 20.0391 13.9453C 19.8359 13.6432 19.7344 13.2839 19.7344 12.8672C 19.7344 12.1745 20.026 11.5885 20.6094 11.1094C 21.1979 10.6302 21.9479 10.3906 22.8594 10.3906C 23.8177 10.3906 24.5938 10.638 25.1875 11.1328C 25.7865 11.6276 26.0859 12.2604 26.0859 13.0312L 24.6328 13.0312C 24.6328 12.6354 24.4635 12.2943 24.125 12.0078C 23.7917 11.7214 23.3698 11.5781 22.8594 11.5781C 22.3333 11.5781 21.9219 11.6927 21.625 11.9219C 21.3281 12.151 21.1797 12.4505 21.1797 12.8203C 21.1797 13.1693 21.3177 13.4323 21.5938 13.6094C 21.8698 13.7865 22.3672 13.9557 23.0859 14.1172C 23.8099 14.2786 24.3958 14.4714 24.8438 14.6953C 25.2917 14.9193 25.6224 15.1901 25.8359 15.5078C 26.0547 15.8203 26.1641 16.2031 26.1641 16.6562C 26.1641 17.4115 25.862 18.0182 25.2578 18.4766C 24.6536 18.9297 23.8698 19.1562 22.9062 19.1562C 22.2292 19.1562 21.6302 19.0365 21.1094 18.7969C 20.5885 18.5573 20.1797 18.224 19.8828 17.7969C 19.5911 17.3646 19.4453 16.8984 19.4453 16.3984L 20.8906 16.3984C 20.9167 16.8828 21.1094 17.2682 21.4688 17.5547C 21.8333 17.8359 22.3125 17.9766 22.9062 17.9766C 23.4531 17.9766 23.8906 17.8672 24.2188 17.6484C 24.5521 17.4245 24.7188 17.1276 24.7188 16.7578ZM 32.9688 16.7578C 32.9688 16.3672 32.8203 16.0651 32.5234 15.8516C 32.2318 15.6328 31.7188 15.4453 30.9844 15.2891C 30.2552 15.1328 29.6745 14.9453 29.2422 14.7266C 28.8151 14.5078 28.4974 14.2474 28.2891 13.9453C 28.0859 13.6432 27.9844 13.2839 27.9844 12.8672C 27.9844 12.1745 28.276 11.5885 28.8594 11.1094C 29.4479 10.6302 30.1979 10.3906 31.1094 10.3906C 32.0677 10.3906 32.8438 10.638 33.4375 11.1328C 34.0365 11.6276 34.3359 12.2604 34.3359 13.0312L 32.8828 13.0312C 32.8828 12.6354 32.7135 12.2943 32.375 12.0078C 32.0417 11.7214 31.6198 11.5781 31.1094 11.5781C 30.5833 11.5781 30.1719 11.6927 29.875 11.9219C 29.5781 12.151 29.4297 12.4505 29.4297 12.8203C 29.4297 13.1693 29.5677 13.4323 29.8438 13.6094C 30.1198 13.7865 30.6172 13.9557 31.3359 14.1172C 32.0599 14.2786 32.6458 14.4714 33.0938 14.6953C 33.5417 14.9193 33.8724 15.1901 34.0859 15.5078C 34.3047 15.8203 34.4141 16.2031 34.4141 16.6562C 34.4141 17.4115 34.112 18.0182 33.5078 18.4766C 32.9036 18.9297 32.1198 19.1562 31.1562 19.1562C 30.4792 19.1562 29.8802 19.0365 29.3594 18.7969C 28.8385 18.5573 28.4297 18.224 28.1328 17.7969C 27.8411 17.3646 27.6953 16.8984 27.6953 16.3984L 29.1406 16.3984C 29.1667 16.8828 29.3594 17.2682 29.7188 17.5547C 30.0833 17.8359 30.5625 17.9766 31.1562 17.9766C 31.7031 17.9766 32.1406 17.8672 32.4688 17.6484C 32.8021 17.4245 32.9688 17.1276 32.9688 16.7578ZM 39.8047 19.1562C 38.6589 19.1562 37.7266 18.7812 37.0078 18.0312C 36.2891 17.276 35.9297 16.2682 35.9297 15.0078L 35.9297 14.7422C 35.9297 13.9036 36.0885 13.1562 36.4062 12.5C 36.7292 11.8385 37.1771 11.3229 37.75 10.9531C 38.3281 10.5781 38.9531 10.3906 39.625 10.3906C 40.724 10.3906 41.5781 10.7526 42.1875 11.4766C 42.7969 12.2005 43.1016 13.237 43.1016 14.5859L 43.1016 15.1875L 37.375 15.1875C 37.3958 16.0208 37.638 16.6953 38.1016 17.2109C 38.5703 17.7214 39.1641 17.9766 39.8828 17.9766C 40.3932 17.9766 40.8255 17.8724 41.1797 17.6641C 41.5339 17.4557 41.8438 17.1797 42.1094 16.8359L 42.9922 17.5234C 42.2839 18.612 41.2214 19.1562 39.8047 19.1562ZM 39.625 11.5781C 39.0417 11.5781 38.5521 11.7917 38.1562 12.2188C 37.7604 12.6406 37.5156 13.2344 37.4219 14L 41.6562 14L 41.6562 13.8906C 41.6146 13.1562 41.4167 12.5885 41.0625 12.1875C 40.7083 11.7812 40.2292 11.5781 39.625 11.5781ZM 46.1484 10.5469L 46.1953 11.6094C 46.8411 10.7969 47.6849 10.3906 48.7266 10.3906C 50.513 10.3906 51.4141 11.3984 51.4297 13.4141L 51.4297 19L 49.9844 19L 49.9844 13.4062C 49.9792 12.7969 49.8385 12.3464 49.5625 12.0547C 49.2917 11.763 48.8672 11.6172 48.2891 11.6172C 47.8203 11.6172 47.4089 11.7422 47.0547 11.9922C 46.7005 12.2422 46.4245 12.5703 46.2266 12.9766L 46.2266 19L 44.7812 19L 44.7812 10.5469L 46.1484 10.5469ZM 53.2656 14.7031C 53.2656 13.3854 53.5703 12.3385 54.1797 11.5625C 54.7891 10.7812 55.5964 10.3906 56.6016 10.3906C 57.6328 10.3906 58.4375 10.7552 59.0156 11.4844L 59.0859 10.5469L 60.4062 10.5469L 60.4062 18.7969C 60.4062 19.8906 60.0807 20.7526 59.4297 21.3828C 58.7839 22.013 57.9141 22.3281 56.8203 22.3281C 56.2109 22.3281 55.6146 22.1979 55.0312 21.9375C 54.4479 21.6771 54.0026 21.3203 53.6953 20.8672L 54.4453 20C 55.0651 20.7656 55.8229 21.1484 56.7188 21.1484C 57.4219 21.1484 57.9688 20.9505 58.3594 20.5547C 58.7552 20.1589 58.9531 19.6016 58.9531 18.8828L 58.9531 18.1562C 58.375 18.8229 57.5859 19.1562 56.5859 19.1562C 55.5964 19.1562 54.7943 18.7578 54.1797 17.9609C 53.5703 17.1641 53.2656 16.0781 53.2656 14.7031ZM 54.7188 14.8672C 54.7188 15.8203 54.9141 16.5703 55.3047 17.1172C 55.6953 17.6589 56.2422 17.9297 56.9453 17.9297C 57.8568 17.9297 58.526 17.5156 58.9531 16.6875L 58.9531 12.8281C 58.5104 12.0208 57.8464 11.6172 56.9609 11.6172C 56.2578 11.6172 55.7083 11.8906 55.3125 12.4375C 54.9167 12.9844 54.7188 13.7943 54.7188 14.8672ZM 66.1016 19.1562C 64.9557 19.1562 64.0234 18.7812 63.3047 18.0312C 62.5859 17.276 62.2266 16.2682 62.2266 15.0078L 62.2266 14.7422C 62.2266 13.9036 62.3854 13.1562 62.7031 12.5C 63.026 11.8385 63.474 11.3229 64.0469 10.9531C 64.625 10.5781 65.25 10.3906 65.9219 10.3906C 67.0208 10.3906 67.875 10.7526 68.4844 11.4766C 69.0938 12.2005 69.3984 13.237 69.3984 14.5859L 69.3984 15.1875L 63.6719 15.1875C 63.6927 16.0208 63.9349 16.6953 64.3984 17.2109C 64.8672 17.7214 65.4609 17.9766 66.1797 17.9766C 66.6901 17.9766 67.1224 17.8724 67.4766 17.6641C 67.8307 17.4557 68.1406 17.1797 68.4062 16.8359L 69.2891 17.5234C 68.5807 18.612 67.5182 19.1562 66.1016 19.1562ZM 65.9219 11.5781C 65.3385 11.5781 64.849 11.7917 64.4531 12.2188C 64.0573 12.6406 63.8125 13.2344 63.7188 14L 67.9531 14L 67.9531 13.8906C 67.9115 13.1562 67.7135 12.5885 67.3594 12.1875C 67.0052 11.7812 66.526 11.5781 65.9219 11.5781ZM 75.1641 11.8438C 74.9453 11.8073 74.7083 11.7891 74.4531 11.7891C 73.5052 11.7891 72.862 12.1927 72.5234 13L 72.5234 19L 71.0781 19L 71.0781 10.5469L 72.4844 10.5469L 72.5078 11.5234C 72.9818 10.7682 73.6536 10.3906 74.5234 10.3906C 74.8047 10.3906 75.0182 10.4271 75.1641 10.5L 75.1641 11.8438Z"/>
<path id="path5_fill" fill-rule="evenodd" d="M 0 1C 0 0.447715 0.447715 0 1 0L 319 0C 319.552 0 320 0.447716 320 1L 320 1C 320 1.55228 319.552 2 319 2L 1 2C 0.447715 2 0 1.55228 0 1L 0 1Z"/>
<path id="path6_fill" fill-rule="evenodd" d="M 0 0L 204 0L 204 2L 0 2L 0 0Z"/>
<path id="path7_fill" fill-rule="evenodd" d="M 10 20C 15.5228 20 20 15.5228 20 10C 20 4.47715 15.5228 0 10 0C 4.47715 0 0 4.47715 0 10C 0 15.5228 4.47715 20 10 20Z"/>
<path id="path8_stroke_2x" d="M 10 21C 16.0751 21 21 16.0751 21 10L 19 10C 19 14.9706 14.9706 19 10 19L 10 21ZM 21 10C 21 3.92487 16.0751 -1 10 -1L 10 1C 14.9706 1 19 5.02944 19 10L 21 10ZM 10 -1C 3.92487 -1 -1 3.92487 -1 10L 1 10C 1 5.02944 5.02944 1 10 1L 10 -1ZM -1 10C -1 16.0751 3.92487 21 10 21L 10 19C 5.02944 19 1 14.9706 1 10L -1 10Z"/>
<path id="path9_fill" d="M 5.33936 19L 3.97705 19L 3.97705 9.96924L 1.24512 10.9727L 1.24512 9.74219L 5.12695 8.28467L 5.33936 8.28467L 5.33936 19ZM 16.2964 19L 9.30908 19L 9.30908 18.0259L 13.0005 13.9243C 13.5474 13.3042 13.9233 12.8013 14.1284 12.4155C 14.3384 12.0249 14.4434 11.6221 14.4434 11.207C 14.4434 10.6504 14.2749 10.1938 13.938 9.8374C 13.6011 9.48096 13.1519 9.30273 12.5903 9.30273C 11.9165 9.30273 11.3916 9.49561 11.0156 9.88135C 10.6445 10.2622 10.459 10.7944 10.459 11.478L 9.104 11.478C 9.104 10.4966 9.41895 9.70312 10.0488 9.09766C 10.6836 8.49219 11.5308 8.18945 12.5903 8.18945C 13.5815 8.18945 14.3652 8.45068 14.9414 8.97314C 15.5176 9.49072 15.8057 10.1816 15.8057 11.0459C 15.8057 12.0957 15.1367 13.3457 13.7988 14.7959L 10.9424 17.894L 16.2964 17.894L 16.2964 19ZM 18.3545 13.6533L 18.8965 8.33594L 24.3604 8.33594L 24.3604 9.58838L 20.0464 9.58838L 19.7241 12.4961C 20.2466 12.1885 20.8398 12.0347 21.5039 12.0347C 22.4756 12.0347 23.2471 12.3569 23.8184 13.0015C 24.3896 13.6411 24.6753 14.5078 24.6753 15.6016C 24.6753 16.7002 24.3774 17.5669 23.7817 18.2017C 23.1909 18.8315 22.3633 19.1465 21.2988 19.1465C 20.3564 19.1465 19.5874 18.8853 18.9917 18.3628C 18.396 17.8403 18.0566 17.1177 17.9736 16.1948L 19.2554 16.1948C 19.3384 16.8052 19.5557 17.2666 19.9072 17.5791C 20.2588 17.8867 20.7227 18.0405 21.2988 18.0405C 21.9287 18.0405 22.4219 17.8257 22.7783 17.396C 23.1396 16.9663 23.3203 16.373 23.3203 15.6162C 23.3203 14.9033 23.125 14.332 22.7344 13.9023C 22.3486 13.4678 21.8335 13.2505 21.189 13.2505C 20.5981 13.2505 20.1343 13.3799 19.7974 13.6387L 19.4385 13.9316L 18.3545 13.6533ZM 33.8013 14.2319L 26.4624 14.2319L 26.4624 13.126L 33.8013 13.126L 33.8013 14.2319ZM 42.9858 19L 35.9985 19L 35.9985 18.0259L 39.6899 13.9243C 40.2368 13.3042 40.6128 12.8013 40.8179 12.4155C 41.0278 12.0249 41.1328 11.6221 41.1328 11.207C 41.1328 10.6504 40.9644 10.1938 40.6274 9.8374C 40.2905 9.48096 39.8413 9.30273 39.2798 9.30273C 38.606 9.30273 38.0811 9.49561 37.7051 9.88135C 37.334 10.2622 37.1484 10.7944 37.1484 11.478L 35.7935 11.478C 35.7935 10.4966 36.1084 9.70312 36.7383 9.09766C 37.373 8.49219 38.2202 8.18945 39.2798 8.18945C 40.271 8.18945 41.0547 8.45068 41.6309 8.97314C 42.207 9.49072 42.4951 10.1816 42.4951 11.0459C 42.4951 12.0957 41.8262 13.3457 40.4883 14.7959L 37.6318 17.894L 42.9858 17.894L 42.9858 19ZM 49.7388 8.32861L 49.7388 9.47852L 49.4897 9.47852C 48.4351 9.49805 47.5952 9.81055 46.9702 10.416C 46.3452 11.0215 45.9839 11.8735 45.8862 12.9722C 46.4478 12.3276 47.2144 12.0054 48.186 12.0054C 49.1138 12.0054 49.8535 12.3325 50.4053 12.9868C 50.9619 13.6411 51.2402 14.4858 51.2402 15.521C 51.2402 16.6196 50.9399 17.4985 50.3394 18.1577C 49.7437 18.8169 48.9429 19.1465 47.937 19.1465C 46.9165 19.1465 46.0889 18.7559 45.4541 17.9746C 44.8193 17.1885 44.502 16.1777 44.502 14.9424L 44.502 14.4224C 44.502 12.4595 44.9194 10.9604 45.7544 9.92529C 46.5942 8.88525 47.8418 8.35303 49.4971 8.32861L 49.7388 8.32861ZM 47.959 13.1333C 47.4951 13.1333 47.0679 13.2725 46.6772 13.5508C 46.2866 13.8291 46.0156 14.1782 45.8643 14.5981L 45.8643 15.0962C 45.8643 15.9751 46.062 16.6831 46.4575 17.2202C 46.853 17.7573 47.3462 18.0259 47.937 18.0259C 48.5474 18.0259 49.0259 17.8013 49.3726 17.3521C 49.7241 16.9028 49.8999 16.3145 49.8999 15.5869C 49.8999 14.8545 49.7217 14.2637 49.3652 13.8145C 49.0137 13.3604 48.5449 13.1333 47.959 13.1333ZM 59.3115 11.1191C 59.3115 11.6514 59.1699 12.125 58.8867 12.54C 58.6084 12.9551 58.23 13.2798 57.7515 13.5142C 58.3081 13.7534 58.7476 14.1025 59.0698 14.5615C 59.397 15.0205 59.5605 15.5405 59.5605 16.1216C 59.5605 17.0444 59.248 17.7793 58.623 18.3262C 58.0029 18.873 57.1851 19.1465 56.1694 19.1465C 55.144 19.1465 54.3213 18.873 53.7012 18.3262C 53.0859 17.7744 52.7783 17.0396 52.7783 16.1216C 52.7783 15.5454 52.9346 15.0254 53.2471 14.5615C 53.5645 14.0977 54.0015 13.7461 54.5581 13.5068C 54.0845 13.2725 53.7109 12.9478 53.4375 12.5327C 53.1641 12.1177 53.0273 11.6465 53.0273 11.1191C 53.0273 10.2207 53.3154 9.50781 53.8916 8.98047C 54.4678 8.45312 55.2271 8.18945 56.1694 8.18945C 57.1069 8.18945 57.8638 8.45312 58.4399 8.98047C 59.021 9.50781 59.3115 10.2207 59.3115 11.1191ZM 58.2056 16.0923C 58.2056 15.4966 58.0151 15.0107 57.6343 14.6348C 57.2583 14.2588 56.7651 14.0708 56.1548 14.0708C 55.5444 14.0708 55.0537 14.2563 54.6826 14.6274C 54.3164 14.9985 54.1333 15.4868 54.1333 16.0923C 54.1333 16.6978 54.3115 17.1738 54.668 17.5205C 55.0293 17.8672 55.5298 18.0405 56.1694 18.0405C 56.8042 18.0405 57.3022 17.8672 57.6636 17.5205C 58.0249 17.1689 58.2056 16.6929 58.2056 16.0923ZM 56.1694 9.30273C 55.6372 9.30273 55.2051 9.46875 54.873 9.80078C 54.5459 10.1279 54.3823 10.5747 54.3823 11.1411C 54.3823 11.6831 54.5435 12.1226 54.8657 12.4595C 55.1929 12.7915 55.6274 12.9575 56.1694 12.9575C 56.7114 12.9575 57.1436 12.7915 57.4658 12.4595C 57.793 12.1226 57.9565 11.6831 57.9565 11.1411C 57.9565 10.5991 57.7881 10.1572 57.4512 9.81543C 57.1143 9.47363 56.687 9.30273 56.1694 9.30273Z"/>
<path id="path10_fill" d="M 2.85645 13.0088L 3.87451 13.0088C 4.51416 12.999 5.01709 12.8306 5.3833 12.5034C 5.74951 12.1763 5.93262 11.7344 5.93262 11.1777C 5.93262 9.92773 5.31006 9.30273 4.06494 9.30273C 3.479 9.30273 3.01025 9.47119 2.65869 9.80811C 2.31201 10.1401 2.13867 10.582 2.13867 11.1338L 0.783691 11.1338C 0.783691 10.2891 1.09131 9.58838 1.70654 9.03174C 2.32666 8.47021 3.11279 8.18945 4.06494 8.18945C 5.0708 8.18945 5.85938 8.45557 6.43066 8.98779C 7.00195 9.52002 7.2876 10.2598 7.2876 11.207C 7.2876 11.6709 7.13623 12.1201 6.8335 12.5547C 6.53564 12.9893 6.12793 13.314 5.61035 13.5288C 6.19629 13.7144 6.64795 14.022 6.96533 14.4517C 7.2876 14.8813 7.44873 15.4062 7.44873 16.0264C 7.44873 16.9834 7.13623 17.7427 6.51123 18.3042C 5.88623 18.8657 5.07324 19.1465 4.07227 19.1465C 3.07129 19.1465 2.25586 18.8755 1.62598 18.3335C 1.00098 17.7915 0.688477 17.0762 0.688477 16.1875L 2.05078 16.1875C 2.05078 16.749 2.23389 17.1982 2.6001 17.5352C 2.96631 17.8721 3.45703 18.0405 4.07227 18.0405C 4.72656 18.0405 5.22705 17.8696 5.57373 17.5278C 5.92041 17.186 6.09375 16.6953 6.09375 16.0557C 6.09375 15.4355 5.90332 14.9595 5.52246 14.6274C 5.1416 14.2954 4.59229 14.1245 3.87451 14.1147L 2.85645 14.1147L 2.85645 13.0088ZM 9.93164 13.6533L 10.4736 8.33594L 15.9375 8.33594L 15.9375 9.58838L 11.6235 9.58838L 11.3013 12.4961C 11.8237 12.1885 12.417 12.0347 13.0811 12.0347C 14.0527 12.0347 14.8242 12.3569 15.3955 13.0015C 15.9668 13.6411 16.2524 14.5078 16.2524 15.6016C 16.2524 16.7002 15.9546 17.5669 15.3589 18.2017C 14.7681 18.8315 13.9404 19.1465 12.876 19.1465C 11.9336 19.1465 11.1646 18.8853 10.5688 18.3628C 9.97314 17.8403 9.63379 17.1177 9.55078 16.1948L 10.8325 16.1948C 10.9155 16.8052 11.1328 17.2666 11.4844 17.5791C 11.8359 17.8867 12.2998 18.0405 12.876 18.0405C 13.5059 18.0405 13.999 17.8257 14.3555 17.396C 14.7168 16.9663 14.8975 16.373 14.8975 15.6162C 14.8975 14.9033 14.7021 14.332 14.3115 13.9023C 13.9258 13.4678 13.4106 13.2505 12.7661 13.2505C 12.1753 13.2505 11.7114 13.3799 11.3745 13.6387L 11.0156 13.9316L 9.93164 13.6533ZM 23.0493 8.32861L 23.0493 9.47852L 22.8003 9.47852C 21.7456 9.49805 20.9058 9.81055 20.2808 10.416C 19.6558 11.0215 19.2944 11.8735 19.1968 12.9722C 19.7583 12.3276 20.5249 12.0054 21.4966 12.0054C 22.4243 12.0054 23.1641 12.3325 23.7158 12.9868C 24.2725 13.6411 24.5508 14.4858 24.5508 15.521C 24.5508 16.6196 24.2505 17.4985 23.6499 18.1577C 23.0542 18.8169 22.2534 19.1465 21.2476 19.1465C 20.2271 19.1465 19.3994 18.7559 18.7646 17.9746C 18.1299 17.1885 17.8125 16.1777 17.8125 14.9424L 17.8125 14.4224C 17.8125 12.4595 18.23 10.9604 19.0649 9.92529C 19.9048 8.88525 21.1523 8.35303 22.8076 8.32861L 23.0493 8.32861ZM 21.2695 13.1333C 20.8057 13.1333 20.3784 13.2725 19.9878 13.5508C 19.5972 13.8291 19.3262 14.1782 19.1748 14.5981L 19.1748 15.0962C 19.1748 15.9751 19.3726 16.6831 19.7681 17.2202C 20.1636 17.7573 20.6567 18.0259 21.2476 18.0259C 21.8579 18.0259 22.3364 17.8013 22.6831 17.3521C 23.0347 16.9028 23.2104 16.3145 23.2104 15.5869C 23.2104 14.8545 23.0322 14.2637 22.6758 13.8145C 22.3242 13.3604 21.8555 13.1333 21.2695 13.1333ZM 33.8013 14.2319L 26.4624 14.2319L 26.4624 13.126L 33.8013 13.126L 33.8013 14.2319ZM 42.4658 11.1191C 42.4658 11.6514 42.3242 12.125 42.041 12.54C 41.7627 12.9551 41.3843 13.2798 40.9058 13.5142C 41.4624 13.7534 41.9019 14.1025 42.2241 14.5615C 42.5513 15.0205 42.7148 15.5405 42.7148 16.1216C 42.7148 17.0444 42.4023 17.7793 41.7773 18.3262C 41.1572 18.873 40.3394 19.1465 39.3237 19.1465C 38.2983 19.1465 37.4756 18.873 36.8555 18.3262C 36.2402 17.7744 35.9326 17.0396 35.9326 16.1216C 35.9326 15.5454 36.0889 15.0254 36.4014 14.5615C 36.7188 14.0977 37.1558 13.7461 37.7124 13.5068C 37.2388 13.2725 36.8652 12.9478 36.5918 12.5327C 36.3184 12.1177 36.1816 11.6465 36.1816 11.1191C 36.1816 10.2207 36.4697 9.50781 37.0459 8.98047C 37.6221 8.45312 38.3813 8.18945 39.3237 8.18945C 40.2612 8.18945 41.0181 8.45312 41.5942 8.98047C 42.1753 9.50781 42.4658 10.2207 42.4658 11.1191ZM 41.3599 16.0923C 41.3599 15.4966 41.1694 15.0107 40.7886 14.6348C 40.4126 14.2588 39.9194 14.0708 39.3091 14.0708C 38.6987 14.0708 38.208 14.2563 37.8369 14.6274C 37.4707 14.9985 37.2876 15.4868 37.2876 16.0923C 37.2876 16.6978 37.4658 17.1738 37.8223 17.5205C 38.1836 17.8672 38.6841 18.0405 39.3237 18.0405C 39.9585 18.0405 40.4565 17.8672 40.8179 17.5205C 41.1792 17.1689 41.3599 16.6929 41.3599 16.0923ZM 39.3237 9.30273C 38.7915 9.30273 38.3594 9.46875 38.0273 9.80078C 37.7002 10.1279 37.5366 10.5747 37.5366 11.1411C 37.5366 11.6831 37.6978 12.1226 38.02 12.4595C 38.3472 12.7915 38.7817 12.9575 39.3237 12.9575C 39.8657 12.9575 40.2979 12.7915 40.6201 12.4595C 40.9473 12.1226 41.1108 11.6831 41.1108 11.1411C 41.1108 10.5991 40.9424 10.1572 40.6055 9.81543C 40.2686 9.47363 39.8413 9.30273 39.3237 9.30273ZM 49.6143 14.3125C 49.3311 14.6494 48.9917 14.9204 48.5962 15.1255C 48.2056 15.3306 47.7759 15.4331 47.3071 15.4331C 46.6919 15.4331 46.1548 15.2817 45.6958 14.979C 45.2417 14.6763 44.8901 14.2515 44.6411 13.7046C 44.3921 13.1528 44.2676 12.5449 44.2676 11.8809C 44.2676 11.168 44.4019 10.5259 44.6704 9.95459C 44.9438 9.3833 45.3296 8.94629 45.8276 8.64355C 46.3257 8.34082 46.9067 8.18945 47.5708 8.18945C 48.6255 8.18945 49.4556 8.58496 50.061 9.37598C 50.6714 10.1621 50.9766 11.2363 50.9766 12.5986L 50.9766 12.9941C 50.9766 15.0693 50.5664 16.5854 49.7461 17.5425C 48.9258 18.4946 47.688 18.9829 46.0327 19.0073L 45.769 19.0073L 45.769 17.8647L 46.0547 17.8647C 47.1729 17.8452 48.0322 17.5547 48.6328 16.9932C 49.2334 16.4268 49.5605 15.5332 49.6143 14.3125ZM 47.5269 14.3125C 47.981 14.3125 48.3984 14.1733 48.7793 13.895C 49.165 13.6167 49.4458 13.2725 49.6216 12.8623L 49.6216 12.3203C 49.6216 11.4316 49.4287 10.709 49.043 10.1523C 48.6572 9.5957 48.1689 9.31738 47.5781 9.31738C 46.9824 9.31738 46.5039 9.54688 46.1426 10.0059C 45.7812 10.46 45.6006 11.0605 45.6006 11.8076C 45.6006 12.5352 45.7739 13.1357 46.1206 13.6094C 46.4722 14.0781 46.9409 14.3125 47.5269 14.3125ZM 58.1616 8.32861L 58.1616 9.47852L 57.9126 9.47852C 56.8579 9.49805 56.0181 9.81055 55.3931 10.416C 54.7681 11.0215 54.4067 11.8735 54.3091 12.9722C 54.8706 12.3276 55.6372 12.0054 56.6089 12.0054C 57.5366 12.0054 58.2764 12.3325 58.8281 12.9868C 59.3848 13.6411 59.6631 14.4858 59.6631 15.521C 59.6631 16.6196 59.3628 17.4985 58.7622 18.1577C 58.1665 18.8169 57.3657 19.1465 56.3599 19.1465C 55.3394 19.1465 54.5117 18.7559 53.877 17.9746C 53.2422 17.1885 52.9248 16.1777 52.9248 14.9424L 52.9248 14.4224C 52.9248 12.4595 53.3423 10.9604 54.1772 9.92529C 55.0171 8.88525 56.2646 8.35303 57.9199 8.32861L 58.1616 8.32861ZM 56.3818 13.1333C 55.918 13.1333 55.4907 13.2725 55.1001 13.5508C 54.7095 13.8291 54.4385 14.1782 54.2871 14.5981L 54.2871 15.0962C 54.2871 15.9751 54.4849 16.6831 54.8804 17.2202C 55.2759 17.7573 55.769 18.0259 56.3599 18.0259C 56.9702 18.0259 57.4487 17.8013 57.7954 17.3521C 58.147 16.9028 58.3228 16.3145 58.3228 15.5869C 58.3228 14.8545 58.1445 14.2637 57.7881 13.8145C 57.4365 13.3604 56.9678 13.1333 56.3818 13.1333Z"/>
<path id="path11_fill" d="M 1.50879 13.6533L 2.05078 8.33594L 7.51465 8.33594L 7.51465 9.58838L 3.20068 9.58838L 2.87842 12.4961C 3.40088 12.1885 3.99414 12.0347 4.6582 12.0347C 5.62988 12.0347 6.40137 12.3569 6.97266 13.0015C 7.54395 13.6411 7.82959 14.5078 7.82959 15.6016C 7.82959 16.7002 7.53174 17.5669 6.93604 18.2017C 6.34521 18.8315 5.51758 19.1465 4.45312 19.1465C 3.51074 19.1465 2.7417 18.8853 2.146 18.3628C 1.55029 17.8403 1.21094 17.1177 1.12793 16.1948L 2.40967 16.1948C 2.49268 16.8052 2.70996 17.2666 3.06152 17.5791C 3.41309 17.8867 3.87695 18.0405 4.45312 18.0405C 5.08301 18.0405 5.57617 17.8257 5.93262 17.396C 6.29395 16.9663 6.47461 16.373 6.47461 15.6162C 6.47461 14.9033 6.2793 14.332 5.88867 13.9023C 5.50293 13.4678 4.98779 13.2505 4.34326 13.2505C 3.75244 13.2505 3.28857 13.3799 2.95166 13.6387L 2.59277 13.9316L 1.50879 13.6533ZM 15.0293 15.4185L 16.5088 15.4185L 16.5088 16.5244L 15.0293 16.5244L 15.0293 19L 13.667 19L 13.667 16.5244L 8.81104 16.5244L 8.81104 15.7261L 13.5864 8.33594L 15.0293 8.33594L 15.0293 15.4185ZM 10.3491 15.4185L 13.667 15.4185L 13.667 10.189L 13.5059 10.4819L 10.3491 15.4185ZM 18.3545 13.6533L 18.8965 8.33594L 24.3604 8.33594L 24.3604 9.58838L 20.0464 9.58838L 19.7241 12.4961C 20.2466 12.1885 20.8398 12.0347 21.5039 12.0347C 22.4756 12.0347 23.2471 12.3569 23.8184 13.0015C 24.3896 13.6411 24.6753 14.5078 24.6753 15.6016C 24.6753 16.7002 24.3774 17.5669 23.7817 18.2017C 23.1909 18.8315 22.3633 19.1465 21.2988 19.1465C 20.3564 19.1465 19.5874 18.8853 18.9917 18.3628C 18.396 17.8403 18.0566 17.1177 17.9736 16.1948L 19.2554 16.1948C 19.3384 16.8052 19.5557 17.2666 19.9072 17.5791C 20.2588 17.8867 20.7227 18.0405 21.2988 18.0405C 21.9287 18.0405 22.4219 17.8257 22.7783 17.396C 23.1396 16.9663 23.3203 16.373 23.3203 15.6162C 23.3203 14.9033 23.125 14.332 22.7344 13.9023C 22.3486 13.4678 21.8335 13.2505 21.189 13.2505C 20.5981 13.2505 20.1343 13.3799 19.7974 13.6387L 19.4385 13.9316L 18.3545 13.6533ZM 31.4722 8.32861L 31.4722 9.47852L 31.2231 9.47852C 30.1685 9.49805 29.3286 9.81055 28.7036 10.416C 28.0786 11.0215 27.7173 11.8735 27.6196 12.9722C 28.1812 12.3276 28.9478 12.0054 29.9194 12.0054C 30.8472 12.0054 31.5869 12.3325 32.1387 12.9868C 32.6953 13.6411 32.9736 14.4858 32.9736 15.521C 32.9736 16.6196 32.6733 17.4985 32.0728 18.1577C 31.4771 18.8169 30.6763 19.1465 29.6704 19.1465C 28.6499 19.1465 27.8223 18.7559 27.1875 17.9746C 26.5527 17.1885 26.2354 16.1777 26.2354 14.9424L 26.2354 14.4224C 26.2354 12.4595 26.6528 10.9604 27.4878 9.92529C 28.3276 8.88525 29.5752 8.35303 31.2305 8.32861L 31.4722 8.32861ZM 29.6924 13.1333C 29.2285 13.1333 28.8013 13.2725 28.4106 13.5508C 28.02 13.8291 27.749 14.1782 27.5977 14.5981L 27.5977 15.0962C 27.5977 15.9751 27.7954 16.6831 28.1909 17.2202C 28.5864 17.7573 29.0796 18.0259 29.6704 18.0259C 30.2808 18.0259 30.7593 17.8013 31.106 17.3521C 31.4575 16.9028 31.6333 16.3145 31.6333 15.5869C 31.6333 14.8545 31.4551 14.2637 31.0986 13.8145C 30.7471 13.3604 30.2783 13.1333 29.6924 13.1333ZM 42.2241 14.2319L 34.8853 14.2319L 34.8853 13.126L 42.2241 13.126L 42.2241 14.2319ZM 45.0439 13.6533L 45.5859 8.33594L 51.0498 8.33594L 51.0498 9.58838L 46.7358 9.58838L 46.4136 12.4961C 46.936 12.1885 47.5293 12.0347 48.1934 12.0347C 49.165 12.0347 49.9365 12.3569 50.5078 13.0015C 51.0791 13.6411 51.3647 14.5078 51.3647 15.6016C 51.3647 16.7002 51.0669 17.5669 50.4712 18.2017C 49.8804 18.8315 49.0527 19.1465 47.9883 19.1465C 47.0459 19.1465 46.2769 18.8853 45.6812 18.3628C 45.0854 17.8403 44.7461 17.1177 44.6631 16.1948L 45.9448 16.1948C 46.0278 16.8052 46.2451 17.2666 46.5967 17.5791C 46.9482 17.8867 47.4121 18.0405 47.9883 18.0405C 48.6182 18.0405 49.1113 17.8257 49.4678 17.396C 49.8291 16.9663 50.0098 16.373 50.0098 15.6162C 50.0098 14.9033 49.8145 14.332 49.4238 13.9023C 49.0381 13.4678 48.5229 13.2505 47.8784 13.2505C 47.2876 13.2505 46.8237 13.3799 46.4868 13.6387L 46.1279 13.9316L 45.0439 13.6533ZM 59.3115 11.1191C 59.3115 11.6514 59.1699 12.125 58.8867 12.54C 58.6084 12.9551 58.23 13.2798 57.7515 13.5142C 58.3081 13.7534 58.7476 14.1025 59.0698 14.5615C 59.397 15.0205 59.5605 15.5405 59.5605 16.1216C 59.5605 17.0444 59.248 17.7793 58.623 18.3262C 58.0029 18.873 57.1851 19.1465 56.1694 19.1465C 55.144 19.1465 54.3213 18.873 53.7012 18.3262C 53.0859 17.7744 52.7783 17.0396 52.7783 16.1216C 52.7783 15.5454 52.9346 15.0254 53.2471 14.5615C 53.5645 14.0977 54.0015 13.7461 54.5581 13.5068C 54.0845 13.2725 53.7109 12.9478 53.4375 12.5327C 53.1641 12.1177 53.0273 11.6465 53.0273 11.1191C 53.0273 10.2207 53.3154 9.50781 53.8916 8.98047C 54.4678 8.45312 55.2271 8.18945 56.1694 8.18945C 57.1069 8.18945 57.8638 8.45312 58.4399 8.98047C 59.021 9.50781 59.3115 10.2207 59.3115 11.1191ZM 58.2056 16.0923C 58.2056 15.4966 58.0151 15.0107 57.6343 14.6348C 57.2583 14.2588 56.7651 14.0708 56.1548 14.0708C 55.5444 14.0708 55.0537 14.2563 54.6826 14.6274C 54.3164 14.9985 54.1333 15.4868 54.1333 16.0923C 54.1333 16.6978 54.3115 17.1738 54.668 17.5205C 55.0293 17.8672 55.5298 18.0405 56.1694 18.0405C 56.8042 18.0405 57.3022 17.8672 57.6636 17.5205C 58.0249 17.1689 58.2056 16.6929 58.2056 16.0923ZM 56.1694 9.30273C 55.6372 9.30273 55.2051 9.46875 54.873 9.80078C 54.5459 10.1279 54.3823 10.5747 54.3823 11.1411C 54.3823 11.6831 54.5435 12.1226 54.8657 12.4595C 55.1929 12.7915 55.6274 12.9575 56.1694 12.9575C 56.7114 12.9575 57.1436 12.7915 57.4658 12.4595C 57.793 12.1226 57.9565 11.6831 57.9565 11.1411C 57.9565 10.5991 57.7881 10.1572 57.4512 9.81543C 57.1143 9.47363 56.687 9.30273 56.1694 9.30273ZM 66.46 14.3125C 66.1768 14.6494 65.8374 14.9204 65.4419 15.1255C 65.0513 15.3306 64.6216 15.4331 64.1528 15.4331C 63.5376 15.4331 63.0005 15.2817 62.5415 14.979C 62.0874 14.6763 61.7358 14.2515 61.4868 13.7046C 61.2378 13.1528 61.1133 12.5449 61.1133 11.8809C 61.1133 11.168 61.2476 10.5259 61.5161 9.95459C 61.7896 9.3833 62.1753 8.94629 62.6733 8.64355C 63.1714 8.34082 63.7524 8.18945 64.4165 8.18945C 65.4712 8.18945 66.3013 8.58496 66.9067 9.37598C 67.5171 10.1621 67.8223 11.2363 67.8223 12.5986L 67.8223 12.9941C 67.8223 15.0693 67.4121 16.5854 66.5918 17.5425C 65.7715 18.4946 64.5337 18.9829 62.8784 19.0073L 62.6147 19.0073L 62.6147 17.8647L 62.9004 17.8647C 64.0186 17.8452 64.8779 17.5547 65.4785 16.9932C 66.0791 16.4268 66.4062 15.5332 66.46 14.3125ZM 64.3726 14.3125C 64.8267 14.3125 65.2441 14.1733 65.625 13.895C 66.0107 13.6167 66.2915 13.2725 66.4673 12.8623L 66.4673 12.3203C 66.4673 11.4316 66.2744 10.709 65.8887 10.1523C 65.5029 9.5957 65.0146 9.31738 64.4238 9.31738C 63.8281 9.31738 63.3496 9.54688 62.9883 10.0059C 62.627 10.46 62.4463 11.0605 62.4463 11.8076C 62.4463 12.5352 62.6196 13.1357 62.9663 13.6094C 63.3179 14.0781 63.7866 14.3125 64.3726 14.3125ZM 75.0073 8.32861L 75.0073 9.47852L 74.7583 9.47852C 73.7036 9.49805 72.8638 9.81055 72.2388 10.416C 71.6138 11.0215 71.2524 11.8735 71.1548 12.9722C 71.7163 12.3276 72.4829 12.0054 73.4546 12.0054C 74.3823 12.0054 75.1221 12.3325 75.6738 12.9868C 76.2305 13.6411 76.5088 14.4858 76.5088 15.521C 76.5088 16.6196 76.2085 17.4985 75.6079 18.1577C 75.0122 18.8169 74.2114 19.1465 73.2056 19.1465C 72.1851 19.1465 71.3574 18.7559 70.7227 17.9746C 70.0879 17.1885 69.7705 16.1777 69.7705 14.9424L 69.7705 14.4224C 69.7705 12.4595 70.188 10.9604 71.0229 9.92529C 71.8628 8.88525 73.1104 8.35303 74.7656 8.32861L 75.0073 8.32861ZM 73.2275 13.1333C 72.7637 13.1333 72.3364 13.2725 71.9458 13.5508C 71.5552 13.8291 71.2842 14.1782 71.1328 14.5981L 71.1328 15.0962C 71.1328 15.9751 71.3306 16.6831 71.7261 17.2202C 72.1216 17.7573 72.6147 18.0259 73.2056 18.0259C 73.8159 18.0259 74.2944 17.8013 74.6411 17.3521C 74.9927 16.9028 75.1685 16.3145 75.1685 15.5869C 75.1685 14.8545 74.9902 14.2637 74.6338 13.8145C 74.2822 13.3604 73.8135 13.1333 73.2275 13.1333Z"/>
</defs>
</svg>
