<svg width="350" height="526" viewBox="0 0 350 526" version="1.1" xmlns="http://www.w3.org/2000/svg" xmlns:xlink="http://www.w3.org/1999/xlink">
<title>Component</title>
<desc>Created using Figma</desc>
<g id="Canvas" transform="translate(-3811 -10597)">
<g id="Component">
<g id="Component">
<g id="Group 6 Copy">
<g id="Rectangle 6">
<use xlink:href="#path0_fill" transform="translate(3811 10597)" fill="#FFFFFF"/>
</g>
<g id="Login with social ne Copy">
<use xlink:href="#path1_fill" transform="translate(3838 10985)" fill="#20354F"/>
</g>
<g id="Group 19">
<g id="Base_buttons">
<mask id="mask0_outline_ins">
<use xlink:href="#path2_fill" fill="white" transform="translate(3997 10901)"/>
</mask>
<g mask="url(#mask0_outline_ins)">
<use xlink:href="#path3_stroke_2x" transform="translate(3997 10901)" fill="url(#paint2_linear)"/>
</g>
</g>
<g id="Sign up">
<use xlink:href="#path4_fill" transform="translate(4039 10914)" fill="#3F83E7"/>
</g>
</g>
<g id="Group 23">
<g id="Rectangle 8" filter="url(#filter0_d)">
<use xlink:href="#path5_fill" transform="translate(3840 10901)" fill="url(#paint4_linear)"/>
</g>
<g id="login">
<use xlink:href="#path6_fill" transform="translate(3879 10916)" fill="#FFFFFF"/>
</g>
</g>
<g id="Group 26">
<g id="input field copy 18">
<use xlink:href="#path7_fill" transform="translate(3840 10711)" fill="#FFFFFF"/>
<mask id="mask1_outline_ins">
<use xlink:href="#path7_fill" fill="white" transform="translate(3840 10711)"/>
</mask>
<g mask="url(#mask1_outline_ins)">
<use xlink:href="#path8_stroke_2x" transform="translate(3840 10711)" fill="#E0E6ED"/>
</g>
</g>
<g id="Email">
<use xlink:href="#path9_fill" transform="translate(3839 10682)" fill="#20354F"/>
</g>
<g id="johnsnow@gmail.com" opacity="0.5">
<use xlink:href="#path10_fill" transform="translate(3851 10720)" fill="#818FA4"/>
</g>
</g>
<g id="Group 25">
<g id="input field copy 19">
<use xlink:href="#path7_fill" transform="translate(3840 10807)" fill="#FFFFFF"/>
<mask id="mask2_outline_ins">
<use xlink:href="#path7_fill" fill="white" transform="translate(3840 10807)"/>
</mask>
<g mask="url(#mask2_outline_ins)">
<use xlink:href="#path8_stroke_2x" transform="translate(3840 10807)" fill="#E0E6ED"/>
</g>
</g>
<g id="Fill 1" opacity="0.5">
<use xlink:href="#path11_fill" transform="translate(4096 10826)" fill="#3F83E7"/>
</g>
<g id="Password">
<use xlink:href="#path12_fill" transform="translate(3839 10778)" fill="#20354F"/>
</g>
<g id="Forgot password">
<use xlink:href="#path13_fill" transform="translate(4024 10856)" fill="#3F83E7"/>
</g>
<g id="passpass" opacity="0.5">
<use xlink:href="#path14_fill" transform="translate(3851 10817)" fill="#818FA4"/>
</g>
</g>
<g id="Login">
<use xlink:href="#path15_fill" transform="translate(3837 10631)" fill="url(#paint16_linear)"/>
</g>
</g>
<g id="Group 5 Copy">
<g id="Rectangle Copy 17" filter="url(#filter1_d)">
<use xlink:href="#path16_fill" transform="translate(3990 11014)" fill="#547AAB"/>
</g>
<g id="vk-social-network-logo copy 4">
<g id="Group 6">
<g id="Fill 1">
<use xlink:href="#path17_fill" transform="translate(4010.06 11031.5)" fill="#FFFFFF"/>
</g>
</g>
</g>
</g>
<g id="Group Copy">
<g id="Rectangle Copy 18" filter="url(#filter2_d)">
<use xlink:href="#path16_fill" transform="translate(4065 11014)" fill="#36A0E3"/>
</g>
<g id="Group 7 Copy 4">
<g id="twitter">
<g id="Fill 1">
<use xlink:href="#path18_fill" transform="translate(4087 11030)" fill="#FFFFFF"/>
</g>
</g>
</g>
</g>
<g id="Group 2 Copy">
<g id="Rectangle Copy 15" filter="url(#filter3_d)">
<use xlink:href="#path16_fill" transform="translate(3915 11014)" fill="#4885ED"/>
</g>
<g id="Group 5 Copy 4">
<g id="google-plus">
<g id="Group 3">
<g id="Fill 1">
<use xlink:href="#path19_fill" transform="translate(3936.12 11029.1)" fill="#FFFFFF"/>
</g>
</g>
</g>
</g>
</g>
<g id="Group 4 Copy">
<g id="Rectangle Copy 16" filter="url(#filter4_d)">
<use xlink:href="#path16_fill" transform="translate(3840 11014)" fill="#6374BD"/>
</g>
<g id="facebook-logo">
<use xlink:href="#path20_fill" transform="translate(3865.53 11029)" fill="#FFFFFF"/>
</g>
</g>
<g id="Rectangle 5">
<use xlink:href="#path21_fill" transform="translate(3840 10969)" fill="#E0E6ED"/>
</g>
</g>
</g>
</g>
<defs>
<filter id="filter0_d" filterUnits="userSpaceOnUse" x="3830" y="10895" width="145" height="68" color-interpolation-filters="sRGB">
<feFlood flood-opacity="0" result="BackgroundImageFix"/>
<feColorMatrix in="SourceAlpha" type="matrix" values="0 0 0 0 0 0 0 0 0 0 0 0 0 0 0 0 0 0 255 0"/>
<feOffset dx="0" dy="4"/>
<feGaussianBlur stdDeviation="5"/>
<feColorMatrix type="matrix" values="0 0 0 0 0.309804 0 0 0 0 0.682353 0 0 0 0 0.937255 0 0 0 0.25 0"/>
<feBlend mode="normal" in2="BackgroundImageFix" result="effect1_dropShadow"/>
<feBlend mode="normal" in="SourceGraphic" in2="effect1_dropShadow" result="shape"/>
</filter>
<filter id="filter1_d" filterUnits="userSpaceOnUse" x="3980" y="11008" width="80" height="68" color-interpolation-filters="sRGB">
<feFlood flood-opacity="0" result="BackgroundImageFix"/>
<feColorMatrix in="SourceAlpha" type="matrix" values="0 0 0 0 0 0 0 0 0 0 0 0 0 0 0 0 0 0 255 0"/>
<feOffset dx="0" dy="4"/>
<feGaussianBlur stdDeviation="5"/>
<feColorMatrix type="matrix" values="0 0 0 0 0.329412 0 0 0 0 0.478431 0 0 0 0 0.670588 0 0 0 0.25 0"/>
<feBlend mode="normal" in2="BackgroundImageFix" result="effect1_dropShadow"/>
<feBlend mode="normal" in="SourceGraphic" in2="effect1_dropShadow" result="shape"/>
</filter>
<filter id="filter2_d" filterUnits="userSpaceOnUse" x="4055" y="11008" width="80" height="68" color-interpolation-filters="sRGB">
<feFlood flood-opacity="0" result="BackgroundImageFix"/>
<feColorMatrix in="SourceAlpha" type="matrix" values="0 0 0 0 0 0 0 0 0 0 0 0 0 0 0 0 0 0 255 0"/>
<feOffset dx="0" dy="4"/>
<feGaussianBlur stdDeviation="5"/>
<feColorMatrix type="matrix" values="0 0 0 0 0.211765 0 0 0 0 0.627451 0 0 0 0 0.890196 0 0 0 0.25 0"/>
<feBlend mode="normal" in2="BackgroundImageFix" result="effect1_dropShadow"/>
<feBlend mode="normal" in="SourceGraphic" in2="effect1_dropShadow" result="shape"/>
</filter>
<filter id="filter3_d" filterUnits="userSpaceOnUse" x="3905" y="11008" width="80" height="68" color-interpolation-filters="sRGB">
<feFlood flood-opacity="0" result="BackgroundImageFix"/>
<feColorMatrix in="SourceAlpha" type="matrix" values="0 0 0 0 0 0 0 0 0 0 0 0 0 0 0 0 0 0 255 0"/>
<feOffset dx="0" dy="4"/>
<feGaussianBlur stdDeviation="5"/>
<feColorMatrix type="matrix" values="0 0 0 0 0.282353 0 0 0 0 0.521569 0 0 0 0 0.929412 0 0 0 0.25 0"/>
<feBlend mode="normal" in2="BackgroundImageFix" result="effect1_dropShadow"/>
<feBlend mode="normal" in="SourceGraphic" in2="effect1_dropShadow" result="shape"/>
</filter>
<filter id="filter4_d" filterUnits="userSpaceOnUse" x="3830" y="11008" width="80" height="68" color-interpolation-filters="sRGB">
<feFlood flood-opacity="0" result="BackgroundImageFix"/>
<feColorMatrix in="SourceAlpha" type="matrix" values="0 0 0 0 0 0 0 0 0 0 0 0 0 0 0 0 0 0 255 0"/>
<feOffset dx="0" dy="4"/>
<feGaussianBlur stdDeviation="5"/>
<feColorMatrix type="matrix" values="0 0 0 0 0.482353 0 0 0 0 0.533333 0 0 0 0 0.752941 0 0 0 0.25 0"/>
<feBlend mode="normal" in2="BackgroundImageFix" result="effect1_dropShadow"/>
<feBlend mode="normal" in="SourceGraphic" in2="effect1_dropShadow" result="shape"/>
</filter>
<linearGradient id="paint2_linear" x1="0" y1="0" x2="1" y2="0" gradientUnits="userSpaceOnUse" gradientTransform="matrix(-20.0116 56.7389 -153.668 -7.38888 85.0116 -8.73886)">
<stop offset="0" stop-color="#0FE4B7"/>
<stop offset="1" stop-color="#2399F5"/>
</linearGradient>
<linearGradient id="paint4_linear" x1="0" y1="0" x2="1" y2="0" gradientUnits="userSpaceOnUse" gradientTransform="matrix(0.734391 176.432 -459.459 0.282006 61.7656 -128.432)">
<stop offset="0" stop-color="#0EE9B3"/>
<stop offset="1" stop-color="#2399F5"/>
</linearGradient>
<linearGradient id="paint16_linear" x1="0" y1="0" x2="1" y2="0" gradientUnits="userSpaceOnUse" gradientTransform="matrix(0.996051 46.0146 -95.2395 0.481238 43.504 -3.0146)">
<stop offset="0" stop-color="#73B9F5"/>
<stop offset="1" stop-color="#3F83E7"/>
</linearGradient>
<path id="path0_fill" fill-rule="evenodd" d="M 325.104 5.71875L 319.385 0L 313.666 5.71875L 6 5.71875C 2.68628 5.71875 0 8.40527 0 11.7188L 0 519.719C 0 523.032 2.68628 525.719 6 525.719L 344 525.719C 347.313 525.719 350 523.032 350 519.719L 350 11.7188C 350 8.40527 347.313 5.71875 344 5.71875L 325.104 5.71875Z"/>
<path id="path1_fill" d="M 3.18164 9.62012L 9.24609 9.62012L 9.24609 11L 1.48535 11L 1.48535 -1.79688L 3.18164 -1.79688L 3.18164 9.62012ZM 10.7754 6.15723C 10.7754 5.22559 10.957 4.3877 11.3203 3.64355C 11.6894 2.89941 12.1992 2.3252 12.8496 1.9209C 13.5058 1.5166 14.2529 1.31445 15.0908 1.31445C 16.3857 1.31445 17.4316 1.7627 18.2285 2.65918C 19.0312 3.55566 19.4326 4.74805 19.4326 6.23633L 19.4326 6.35059C 19.4326 7.27637 19.2539 8.1084 18.8964 8.84668C 18.5449 9.5791 18.038 10.1504 17.3759 10.5605C 16.7197 10.9707 15.9638 11.1758 15.1084 11.1758C 13.8193 11.1758 12.7734 10.7275 11.9707 9.83105C 11.1738 8.93457 10.7754 7.74805 10.7754 6.27148L 10.7754 6.15723ZM 12.4101 6.35059C 12.4101 7.40527 12.6533 8.25195 13.1396 8.89062C 13.6318 9.5293 14.288 9.84863 15.1084 9.84863C 15.9345 9.84863 16.5908 9.52637 17.0771 8.88184C 17.5634 8.23145 17.8066 7.32324 17.8066 6.15723C 17.8066 5.11426 17.5576 4.27051 17.0595 3.62598C 16.5673 2.97559 15.9111 2.65039 15.0908 2.65039C 14.288 2.65039 13.6406 2.96973 13.1484 3.6084C 12.6562 4.24707 12.4101 5.16113 12.4101 6.35059ZM 21.3749 6.16602C 21.3749 4.68359 21.7177 3.50586 22.4032 2.63281C 23.0888 1.75391 23.997 1.31445 25.1279 1.31445C 26.288 1.31445 27.1933 1.72461 27.8437 2.54492L 27.9228 1.49023L 29.4081 1.49023L 29.4081 10.7715C 29.4081 12.002 29.0419 12.9717 28.3095 13.6807C 27.5829 14.3896 26.6044 14.7441 25.3739 14.7441C 24.6884 14.7441 24.0175 14.5977 23.3612 14.3047C 22.705 14.0117 22.204 13.6104 21.8583 13.1006L 22.7021 12.125C 23.3993 12.9863 24.2519 13.417 25.2597 13.417C 26.0507 13.417 26.6659 13.1943 27.1054 12.749C 27.5507 12.3037 27.7734 11.6768 27.7734 10.8682L 27.7734 10.0508C 27.123 10.8008 26.2353 11.1758 25.1103 11.1758C 23.997 11.1758 23.0946 10.7275 22.4032 9.83105C 21.7177 8.93457 21.3749 7.71289 21.3749 6.16602ZM 23.0097 6.35059C 23.0097 7.42285 23.2294 8.2666 23.6689 8.88184C 24.1083 9.49121 24.7236 9.7959 25.5146 9.7959C 26.54 9.7959 27.2929 9.33008 27.7734 8.39844L 27.7734 4.05664C 27.2753 3.14844 26.5282 2.69434 25.5321 2.69434C 24.7411 2.69434 24.123 3.00195 23.6777 3.61719C 23.2323 4.23242 23.0097 5.14355 23.0097 6.35059ZM 33.9257 11L 32.2997 11L 32.2997 1.49023L 33.9257 1.49023L 33.9257 11ZM 32.1679 -1.03223C 32.1679 -1.2959 32.247 -1.51856 32.4052 -1.7002C 32.5692 -1.88184 32.8095 -1.97266 33.1259 -1.97266C 33.4423 -1.97266 33.6825 -1.88184 33.8466 -1.7002C 34.0106 -1.51856 34.0927 -1.2959 34.0927 -1.03223C 34.0927 -0.768555 34.0106 -0.548828 33.8466 -0.373047C 33.6825 -0.197266 33.4423 -0.109375 33.1259 -0.109375C 32.8095 -0.109375 32.5692 -0.197266 32.4052 -0.373047C 32.247 -0.548828 32.1679 -0.768555 32.1679 -1.03223ZM 38.3641 1.49023L 38.4168 2.68555C 39.1434 1.77148 40.0926 1.31445 41.2645 1.31445C 43.2743 1.31445 44.2879 2.44824 44.3055 4.71582L 44.3055 11L 42.6795 11L 42.6795 4.70703C 42.6737 4.02148 42.5155 3.51465 42.2049 3.18652C 41.9002 2.8584 41.4227 2.69434 40.7723 2.69434C 40.245 2.69434 39.7821 2.83496 39.3836 3.11621C 38.9852 3.39746 38.6746 3.7666 38.452 4.22363L 38.452 11L 36.826 11L 36.826 1.49023L 38.3641 1.49023ZM 60.2224 8.75879L 62.0505 1.49023L 63.6765 1.49023L 60.908 11L 59.5896 11L 57.2781 3.79297L 55.0281 11L 53.7097 11L 50.95 1.49023L 52.5671 1.49023L 54.4392 8.60938L 56.6541 1.49023L 57.9636 1.49023L 60.2224 8.75879ZM 67.3943 11L 65.7683 11L 65.7683 1.49023L 67.3943 1.49023L 67.3943 11ZM 65.6364 -1.03223C 65.6364 -1.2959 65.7155 -1.51856 65.8737 -1.7002C 66.0378 -1.88184 66.278 -1.97266 66.5945 -1.97266C 66.9109 -1.97266 67.1511 -1.88184 67.3152 -1.7002C 67.4792 -1.51856 67.5612 -1.2959 67.5612 -1.03223C 67.5612 -0.768555 67.4792 -0.548828 67.3152 -0.373047C 67.1511 -0.197266 66.9109 -0.109375 66.5945 -0.109375C 66.278 -0.109375 66.0378 -0.197266 65.8737 -0.373047C 65.7155 -0.548828 65.6364 -0.768555 65.6364 -1.03223ZM 72.5007 -0.8125L 72.5007 1.49023L 74.2761 1.49023L 74.2761 2.74707L 72.5007 2.74707L 72.5007 8.64453C 72.5007 9.02539 72.5798 9.3125 72.738 9.50586C 72.8962 9.69336 73.1657 9.78711 73.5466 9.78711C 73.7341 9.78711 73.9919 9.75195 74.32 9.68164L 74.32 11C 73.8923 11.1172 73.4762 11.1758 73.072 11.1758C 72.3454 11.1758 71.7975 10.9561 71.4284 10.5166C 71.0593 10.0771 70.8747 9.45312 70.8747 8.64453L 70.8747 2.74707L 69.1432 2.74707L 69.1432 1.49023L 70.8747 1.49023L 70.8747 -0.8125L 72.5007 -0.8125ZM 78.0993 2.6416C 78.82 1.75684 79.7575 1.31445 80.9118 1.31445C 82.9215 1.31445 83.9352 2.44824 83.9528 4.71582L 83.9528 11L 82.3268 11L 82.3268 4.70703C 82.3209 4.02148 82.1627 3.51465 81.8522 3.18652C 81.5475 2.8584 81.07 2.69434 80.4196 2.69434C 79.8922 2.69434 79.4293 2.83496 79.0309 3.11621C 78.6325 3.39746 78.3219 3.7666 78.0993 4.22363L 78.0993 11L 76.4733 11L 76.4733 -2.5L 78.0993 -2.5L 78.0993 2.6416ZM 96.9693 8.47754C 96.9693 8.03809 96.8023 7.69824 96.4683 7.45801C 96.1402 7.21191 95.563 7.00098 94.7369 6.8252C 93.9166 6.64941 93.2632 6.43848 92.7769 6.19238C 92.2964 5.94629 91.939 5.65332 91.7047 5.31348C 91.4761 4.97363 91.3619 4.56934 91.3619 4.10059C 91.3619 3.32129 91.69 2.66211 92.3463 2.12305C 93.0084 1.58398 93.8521 1.31445 94.8775 1.31445C 95.9556 1.31445 96.8287 1.59277 97.4966 2.14941C 98.1705 2.70605 98.5074 3.41797 98.5074 4.28516L 96.8726 4.28516C 96.8726 3.83984 96.6822 3.45605 96.3013 3.13379C 95.9263 2.81152 95.4517 2.65039 94.8775 2.65039C 94.2857 2.65039 93.8228 2.7793 93.4888 3.03711C 93.1548 3.29492 92.9879 3.63184 92.9879 4.04785C 92.9879 4.44043 93.1431 4.73633 93.4537 4.93555C 93.7642 5.13477 94.3238 5.3252 95.1324 5.50684C 95.9468 5.68848 96.606 5.90527 97.1099 6.15723C 97.6138 6.40918 97.9859 6.71387 98.2261 7.07129C 98.4722 7.42285 98.5953 7.85352 98.5953 8.36328C 98.5953 9.21289 98.2554 9.89551 97.5757 10.4111C 96.8961 10.9209 96.0142 11.1758 94.9302 11.1758C 94.1685 11.1758 93.4947 11.041 92.9088 10.7715C 92.3228 10.502 91.8629 10.127 91.5289 9.64648C 91.2007 9.16016 91.0367 8.63574 91.0367 8.07324L 92.6627 8.07324C 92.692 8.61816 92.9088 9.05176 93.313 9.37402C 93.7232 9.69043 94.2623 9.84863 94.9302 9.84863C 95.5455 9.84863 96.0377 9.72559 96.4068 9.47949C 96.7818 9.22754 96.9693 8.89355 96.9693 8.47754ZM 100.573 6.15723C 100.573 5.22559 100.754 4.3877 101.118 3.64355C 101.487 2.89941 101.997 2.3252 102.647 1.9209C 103.303 1.5166 104.05 1.31445 104.888 1.31445C 106.183 1.31445 107.229 1.7627 108.026 2.65918C 108.829 3.55566 109.23 4.74805 109.23 6.23633L 109.23 6.35059C 109.23 7.27637 109.051 8.1084 108.694 8.84668C 108.342 9.5791 107.835 10.1504 107.173 10.5605C 106.517 10.9707 105.761 11.1758 104.906 11.1758C 103.617 11.1758 102.571 10.7275 101.768 9.83105C 100.971 8.93457 100.573 7.74805 100.573 6.27148L 100.573 6.15723ZM 102.208 6.35059C 102.208 7.40527 102.451 8.25195 102.937 8.89062C 103.429 9.5293 104.085 9.84863 104.906 9.84863C 105.732 9.84863 106.388 9.52637 106.875 8.88184C 107.361 8.23145 107.604 7.32324 107.604 6.15723C 107.604 5.11426 107.355 4.27051 106.857 3.62598C 106.365 2.97559 105.709 2.65039 104.888 2.65039C 104.085 2.65039 103.438 2.96973 102.946 3.6084C 102.454 4.24707 102.208 5.16113 102.208 6.35059ZM 115.374 9.84863C 115.954 9.84863 116.46 9.67285 116.894 9.32129C 117.328 8.96973 117.568 8.53027 117.615 8.00293L 119.153 8.00293C 119.124 8.54785 118.936 9.06641 118.59 9.55859C 118.245 10.0508 117.782 10.4434 117.202 10.7363C 116.627 11.0293 116.018 11.1758 115.374 11.1758C 114.079 11.1758 113.047 10.7451 112.28 9.88379C 111.518 9.0166 111.137 7.83301 111.137 6.33301L 111.137 6.06055C 111.137 5.13477 111.307 4.31152 111.647 3.59082C 111.987 2.87012 112.473 2.31055 113.106 1.91211C 113.745 1.51367 114.498 1.31445 115.365 1.31445C 116.431 1.31445 117.316 1.63379 118.019 2.27246C 118.728 2.91113 119.106 3.74023 119.153 4.75977L 117.615 4.75977C 117.568 4.14453 117.333 3.64063 116.912 3.24805C 116.496 2.84961 115.98 2.65039 115.365 2.65039C 114.539 2.65039 113.897 2.94922 113.44 3.54688C 112.989 4.13867 112.763 4.99707 112.763 6.12207L 112.763 6.42969C 112.763 7.52539 112.989 8.36914 113.44 8.96094C 113.891 9.55273 114.536 9.84863 115.374 9.84863ZM 123.038 11L 121.412 11L 121.412 1.49023L 123.038 1.49023L 123.038 11ZM 121.28 -1.03223C 121.28 -1.2959 121.359 -1.51856 121.517 -1.7002C 121.681 -1.88184 121.921 -1.97266 122.238 -1.97266C 122.554 -1.97266 122.794 -1.88184 122.958 -1.7002C 123.122 -1.51856 123.205 -1.2959 123.205 -1.03223C 123.205 -0.768555 123.122 -0.548828 122.958 -0.373047C 122.794 -0.197266 122.554 -0.109375 122.238 -0.109375C 121.921 -0.109375 121.681 -0.197266 121.517 -0.373047C 121.359 -0.548828 121.28 -0.768555 121.28 -1.03223ZM 131.809 11C 131.715 10.8125 131.639 10.4785 131.58 9.99805C 130.825 10.7832 129.922 11.1758 128.873 11.1758C 127.936 11.1758 127.165 10.9121 126.562 10.3848C 125.964 9.85156 125.665 9.17773 125.665 8.36328C 125.665 7.37305 126.04 6.60547 126.79 6.06055C 127.546 5.50977 128.607 5.23438 129.972 5.23438L 131.554 5.23438L 131.554 4.4873C 131.554 3.91895 131.384 3.46777 131.044 3.13379C 130.704 2.79395 130.204 2.62402 129.541 2.62402C 128.961 2.62402 128.475 2.77051 128.082 3.06348C 127.69 3.35645 127.494 3.71094 127.494 4.12695L 125.859 4.12695C 125.859 3.65234 126.026 3.19531 126.36 2.75586C 126.7 2.31055 127.157 1.95898 127.731 1.70117C 128.311 1.44336 128.947 1.31445 129.638 1.31445C 130.734 1.31445 131.592 1.58984 132.213 2.14062C 132.834 2.68555 133.157 3.43848 133.18 4.39941L 133.18 8.77637C 133.18 9.64941 133.291 10.3438 133.514 10.8594L 133.514 11L 131.809 11ZM 129.111 9.76074C 129.621 9.76074 130.104 9.62891 130.561 9.36523C 131.018 9.10156 131.349 8.75879 131.554 8.33691L 131.554 6.38574L 130.28 6.38574C 128.287 6.38574 127.291 6.96875 127.291 8.13477C 127.291 8.64453 127.461 9.04297 127.801 9.33008C 128.141 9.61719 128.578 9.76074 129.111 9.76074ZM 137.786 11L 136.16 11L 136.16 -2.5L 137.786 -2.5L 137.786 11ZM 146.979 1.49023L 147.032 2.68555C 147.758 1.77148 148.707 1.31445 149.879 1.31445C 151.889 1.31445 152.903 2.44824 152.92 4.71582L 152.92 11L 151.294 11L 151.294 4.70703C 151.288 4.02148 151.13 3.51465 150.82 3.18652C 150.515 2.8584 150.037 2.69434 149.387 2.69434C 148.86 2.69434 148.397 2.83496 147.998 3.11621C 147.6 3.39746 147.289 3.7666 147.067 4.22363L 147.067 11L 145.441 11L 145.441 1.49023L 146.979 1.49023ZM 159.609 11.1758C 158.32 11.1758 157.271 10.7539 156.462 9.91016C 155.654 9.06055 155.249 7.92676 155.249 6.50879L 155.249 6.20996C 155.249 5.2666 155.428 4.42578 155.785 3.6875C 156.149 2.94336 156.653 2.36328 157.297 1.94727C 157.947 1.52539 158.651 1.31445 159.406 1.31445C 160.643 1.31445 161.604 1.72168 162.289 2.53613C 162.975 3.35059 163.318 4.5166 163.318 6.03418L 163.318 6.71094L 156.875 6.71094C 156.899 7.64844 157.171 8.40723 157.693 8.9873C 158.22 9.56152 158.888 9.84863 159.697 9.84863C 160.271 9.84863 160.757 9.73145 161.156 9.49707C 161.554 9.2627 161.903 8.95215 162.201 8.56543L 163.195 9.33887C 162.398 10.5635 161.202 11.1758 159.609 11.1758ZM 159.406 2.65039C 158.75 2.65039 158.199 2.89062 157.754 3.37109C 157.309 3.8457 157.033 4.51367 156.928 5.375L 161.692 5.375L 161.692 5.25195C 161.645 4.42578 161.422 3.78711 161.024 3.33594C 160.625 2.87891 160.086 2.65039 159.406 2.65039ZM 167.703 -0.8125L 167.703 1.49023L 169.479 1.49023L 169.479 2.74707L 167.703 2.74707L 167.703 8.64453C 167.703 9.02539 167.782 9.3125 167.941 9.50586C 168.099 9.69336 168.368 9.78711 168.749 9.78711C 168.937 9.78711 169.195 9.75195 169.523 9.68164L 169.523 11C 169.095 11.1172 168.679 11.1758 168.275 11.1758C 167.548 11.1758 167 10.9561 166.631 10.5166C 166.262 10.0771 166.077 9.45312 166.077 8.64453L 166.077 2.74707L 164.346 2.74707L 164.346 1.49023L 166.077 1.49023L 166.077 -0.8125L 167.703 -0.8125ZM 180.096 8.75879L 181.924 1.49023L 183.55 1.49023L 180.781 11L 179.463 11L 177.152 3.79297L 174.902 11L 173.583 11L 170.823 1.49023L 172.441 1.49023L 174.313 8.60938L 176.527 1.49023L 177.837 1.49023L 180.096 8.75879ZM 185.07 6.15723C 185.07 5.22559 185.252 4.3877 185.615 3.64355C 185.984 2.89941 186.494 2.3252 187.145 1.9209C 187.801 1.5166 188.548 1.31445 189.386 1.31445C 190.681 1.31445 191.727 1.7627 192.524 2.65918C 193.326 3.55566 193.728 4.74805 193.728 6.23633L 193.728 6.35059C 193.728 7.27637 193.549 8.1084 193.192 8.84668C 192.84 9.5791 192.333 10.1504 191.671 10.5605C 191.015 10.9707 190.259 11.1758 189.403 11.1758C 188.114 11.1758 187.068 10.7275 186.266 9.83105C 185.469 8.93457 185.07 7.74805 185.07 6.27148L 185.07 6.15723ZM 186.705 6.35059C 186.705 7.40527 186.948 8.25195 187.435 8.89062C 187.927 9.5293 188.583 9.84863 189.403 9.84863C 190.23 9.84863 190.886 9.52637 191.372 8.88184C 191.859 8.23145 192.102 7.32324 192.102 6.15723C 192.102 5.11426 191.853 4.27051 191.355 3.62598C 190.862 2.97559 190.206 2.65039 189.386 2.65039C 188.583 2.65039 187.936 2.96973 187.443 3.6084C 186.951 4.24707 186.705 5.16113 186.705 6.35059ZM 200.653 2.94922C 200.407 2.9082 200.141 2.8877 199.854 2.8877C 198.787 2.8877 198.064 3.3418 197.683 4.25L 197.683 11L 196.057 11L 196.057 1.49023L 197.639 1.49023L 197.665 2.58887C 198.198 1.73926 198.954 1.31445 199.933 1.31445C 200.249 1.31445 200.489 1.35547 200.653 1.4375L 200.653 2.94922ZM 205.101 6.59668L 204.081 7.66016L 204.081 11L 202.455 11L 202.455 -2.5L 204.081 -2.5L 204.081 5.66504L 204.951 4.61914L 207.913 1.49023L 209.891 1.49023L 206.19 5.46289L 210.321 11L 208.414 11L 205.101 6.59668ZM 217.396 8.47754C 217.396 8.03809 217.229 7.69824 216.896 7.45801C 216.567 7.21191 215.99 7.00098 215.164 6.8252C 214.344 6.64941 213.69 6.43848 213.204 6.19238C 212.724 5.94629 212.366 5.65332 212.132 5.31348C 211.903 4.97363 211.789 4.56934 211.789 4.10059C 211.789 3.32129 212.117 2.66211 212.773 2.12305C 213.436 1.58398 214.279 1.31445 215.305 1.31445C 216.383 1.31445 217.256 1.59277 217.924 2.14941C 218.598 2.70605 218.935 3.41797 218.935 4.28516L 217.3 4.28516C 217.3 3.83984 217.109 3.45605 216.729 3.13379C 216.354 2.81152 215.879 2.65039 215.305 2.65039C 214.713 2.65039 214.25 2.7793 213.916 3.03711C 213.582 3.29492 213.415 3.63184 213.415 4.04785C 213.415 4.44043 213.57 4.73633 213.881 4.93555C 214.191 5.13477 214.751 5.3252 215.56 5.50684C 216.374 5.68848 217.033 5.90527 217.537 6.15723C 218.041 6.40918 218.413 6.71387 218.653 7.07129C 218.899 7.42285 219.022 7.85352 219.022 8.36328C 219.022 9.21289 218.683 9.89551 218.003 10.4111C 217.323 10.9209 216.441 11.1758 215.357 11.1758C 214.596 11.1758 213.922 11.041 213.336 10.7715C 212.75 10.502 212.29 10.127 211.956 9.64648C 211.628 9.16016 211.464 8.63574 211.464 8.07324L 213.09 8.07324C 213.119 8.61816 213.336 9.05176 213.74 9.37402C 214.15 9.69043 214.689 9.84863 215.357 9.84863C 215.973 9.84863 216.465 9.72559 216.834 9.47949C 217.209 9.22754 217.396 8.89355 217.396 8.47754Z"/>
<path id="path2_fill" fill-rule="evenodd" d="M 0 6C 0 2.68629 2.68629 0 6 0L 124 0C 127.314 0 130 2.68629 130 6L 130 42C 130 45.3137 127.314 48 124 48L 6 48C 2.68629 48 0 45.3137 0 42L 0 6Z"/>
<path id="path3_stroke_2x" d="M 6 1L 124 1L 124 -1L 6 -1L 6 1ZM 129 6L 129 42L 131 42L 131 6L 129 6ZM 124 47L 6 47L 6 49L 124 49L 124 47ZM 1 42L 1 6L -1 6L -1 42L 1 42ZM 6 -1C 2.13401 -1 -1 2.13401 -1 6L 1 6C 1 3.23858 3.23858 1 6 1L 6 -1ZM 124 1C 126.761 1 129 3.23858 129 6L 131 6C 131 2.13401 127.866 -1 124 -1L 124 1ZM 129 42C 129 44.7614 126.761 47 124 47L 124 49C 127.866 49 131 45.866 131 42L 129 42ZM 6 47C 3.23858 47 1 44.7614 1 42L -1 42C -1 45.866 2.13401 49 6 49L 6 47Z"/>
<path id="path4_fill" d="M 4.33723 11.5635C 3.21158 11.2399 2.39126 10.8434 1.87629 10.374C 1.36587 9.90007 1.11066 9.31673 1.11066 8.62402C 1.11066 7.84017 1.42284 7.19303 2.04719 6.68262C 2.67609 6.16764 3.49185 5.91016 4.49445 5.91016C 5.17805 5.91016 5.78645 6.04232 6.31965 6.30664C 6.85741 6.57096 7.27212 6.93555 7.56379 7.40039C 7.86001 7.86523 8.00813 8.37337 8.00813 8.9248L 6.68879 8.9248C 6.68879 8.32324 6.49738 7.85156 6.11457 7.50977C 5.73176 7.16341 5.19172 6.99023 4.49445 6.99023C 3.84732 6.99023 3.34146 7.13379 2.97688 7.4209C 2.61685 7.70345 2.43684 8.09766 2.43684 8.60352C 2.43684 9.00911 2.60773 9.35319 2.94953 9.63574C 3.29589 9.91374 3.8815 10.1689 4.70637 10.4014C 5.53579 10.6338 6.18293 10.8913 6.64777 11.1738C 7.11717 11.4518 7.46353 11.7777 7.68684 12.1514C 7.9147 12.5251 8.02863 12.9648 8.02863 13.4707C 8.02863 14.2773 7.71418 14.9245 7.08527 15.4121C 6.45637 15.8952 5.61555 16.1367 4.56281 16.1367C 3.87922 16.1367 3.2412 16.0068 2.64875 15.7471C 2.0563 15.4827 1.59829 15.1227 1.27473 14.667C 0.955716 14.2113 0.796211 13.694 0.796211 13.1152L 2.11555 13.1152C 2.11555 13.7168 2.33658 14.193 2.77863 14.5439C 3.22525 14.8903 3.81997 15.0635 4.56281 15.0635C 5.25552 15.0635 5.78645 14.9222 6.15559 14.6396C 6.52473 14.3571 6.7093 13.972 6.7093 13.4844C 6.7093 12.9967 6.5384 12.6208 6.1966 12.3564C 5.8548 12.0876 5.23501 11.8232 4.33723 11.5635ZM 11.0829 16L 9.81824 16L 9.81824 8.60352L 11.0829 8.60352L 11.0829 16ZM 9.7157 6.6416C 9.7157 6.43652 9.77723 6.26335 9.90027 6.12207C 10.0279 5.98079 10.2147 5.91016 10.4608 5.91016C 10.7069 5.91016 10.8938 5.98079 11.0214 6.12207C 11.149 6.26335 11.2128 6.43652 11.2128 6.6416C 11.2128 6.84668 11.149 7.01758 11.0214 7.1543C 10.8938 7.29102 10.7069 7.35938 10.4608 7.35938C 10.2147 7.35938 10.0279 7.29102 9.90027 7.1543C 9.77723 7.01758 9.7157 6.84668 9.7157 6.6416ZM 13.0024 12.2402C 13.0024 11.0872 13.269 10.1712 13.8022 9.49219C 14.3354 8.80859 15.0418 8.4668 15.9213 8.4668C 16.8237 8.4668 17.5278 8.78581 18.0336 9.42383L 18.0952 8.60352L 19.2504 8.60352L 19.2504 15.8223C 19.2504 16.7793 18.9656 17.5335 18.3959 18.085C 17.8308 18.6364 17.0698 18.9121 16.1127 18.9121C 15.5795 18.9121 15.0577 18.7982 14.5473 18.5703C 14.0369 18.3424 13.6472 18.0303 13.3784 17.6338L 14.0346 16.875C 14.5769 17.5449 15.24 17.8799 16.0239 17.8799C 16.6391 17.8799 17.1176 17.7067 17.4594 17.3604C 17.8058 17.014 17.9789 16.5264 17.9789 15.8975L 17.9789 15.2617C 17.4731 15.8451 16.7827 16.1367 15.9077 16.1367C 15.0418 16.1367 14.3399 15.7881 13.8022 15.0908C 13.269 14.3936 13.0024 13.4434 13.0024 12.2402ZM 14.2739 12.3838C 14.2739 13.2178 14.4448 13.874 14.7866 14.3525C 15.1284 14.8265 15.6069 15.0635 16.2221 15.0635C 17.0196 15.0635 17.6052 14.7012 17.9789 13.9766L 17.9789 10.5996C 17.5916 9.89323 17.0105 9.54004 16.2358 9.54004C 15.6205 9.54004 15.1398 9.7793 14.7934 10.2578C 14.447 10.7363 14.2739 11.445 14.2739 12.3838ZM 22.5508 8.60352L 22.5918 9.5332C 23.1569 8.82227 23.8952 8.4668 24.8066 8.4668C 26.3698 8.4668 27.1582 9.34863 27.1719 11.1123L 27.1719 16L 25.9072 16L 25.9072 11.1055C 25.9027 10.5723 25.7796 10.1781 25.5381 9.92285C 25.3011 9.66764 24.9297 9.54004 24.4238 9.54004C 24.0137 9.54004 23.6536 9.64941 23.3438 9.86816C 23.0339 10.0869 22.7923 10.374 22.6191 10.7295L 22.6191 16L 21.3545 16L 21.3545 8.60352L 22.5508 8.60352ZM 37.4982 15.2686C 37.006 15.8473 36.2836 16.1367 35.3312 16.1367C 34.5428 16.1367 33.9412 15.9089 33.5265 15.4531C 33.1163 14.9928 32.909 14.3138 32.9044 13.416L 32.9044 8.60352L 34.1691 8.60352L 34.1691 13.3818C 34.1691 14.5029 34.6248 15.0635 35.5362 15.0635C 36.5024 15.0635 37.145 14.7035 37.464 13.9834L 37.464 8.60352L 38.7286 8.60352L 38.7286 16L 37.5255 16L 37.4982 15.2686ZM 47.0944 12.3838C 47.0944 13.5094 46.8369 14.4163 46.322 15.1045C 45.807 15.7926 45.1097 16.1367 44.2302 16.1367C 43.3324 16.1367 42.626 15.8519 42.111 15.2822L 42.111 18.8438L 40.8464 18.8438L 40.8464 8.60352L 42.0016 8.60352L 42.0632 9.42383C 42.5781 8.78581 43.2936 8.4668 44.2096 8.4668C 45.0983 8.4668 45.8001 8.80176 46.3151 9.47168C 46.8346 10.1416 47.0944 11.0736 47.0944 12.2676L 47.0944 12.3838ZM 45.8298 12.2402C 45.8298 11.4062 45.652 10.7477 45.2966 10.2646C 44.9411 9.78158 44.4535 9.54004 43.8337 9.54004C 43.068 9.54004 42.4938 9.87956 42.111 10.5586L 42.111 14.0928C 42.4893 14.7673 43.068 15.1045 43.8473 15.1045C 44.4535 15.1045 44.9343 14.8652 45.2897 14.3867C 45.6498 13.9036 45.8298 13.1882 45.8298 12.2402Z"/>
<path id="path5_fill" fill-rule="evenodd" d="M 0 6C 0 2.68629 2.68629 0 6 0L 119 0C 122.314 0 125 2.68629 125 6L 125 42C 125 45.3137 122.314 48 119 48L 6 48C 2.68629 48 0 45.3137 0 42L 0 6Z"/>
<path id="path6_fill" d="M 2.70215 10.9268L 7.41895 10.9268L 7.41895 12L 1.38281 12L 1.38281 2.04688L 2.70215 2.04688L 2.70215 10.9268ZM 17.0211 7.34473C 17.0211 8.31999 16.857 9.1722 16.5289 9.90137C 16.2008 10.626 15.7359 11.1797 15.1344 11.5625C 14.5328 11.9453 13.831 12.1367 13.0289 12.1367C 12.2451 12.1367 11.5501 11.9453 10.9439 11.5625C 10.3378 11.1751 9.86615 10.626 9.52891 9.91504C 9.19622 9.19954 9.02533 8.3724 9.01621 7.43359L 9.01621 6.71582C 9.01621 5.75879 9.18255 4.91341 9.51523 4.17969C 9.84792 3.44596 10.3173 2.88542 10.9234 2.49805C 11.5341 2.10612 12.2314 1.91016 13.0152 1.91016C 13.8128 1.91016 14.5146 2.10384 15.1207 2.49121C 15.7314 2.87402 16.2008 3.43229 16.5289 4.16602C 16.857 4.89518 17.0211 5.74512 17.0211 6.71582L 17.0211 7.34473ZM 15.7154 6.70215C 15.7154 5.52181 15.4785 4.61719 15.0045 3.98828C 14.5305 3.35482 13.8674 3.03809 13.0152 3.03809C 12.1858 3.03809 11.5318 3.35482 11.0533 3.98828C 10.5794 4.61719 10.3355 5.49219 10.3219 6.61328L 10.3219 7.34473C 10.3219 8.48861 10.5611 9.38867 11.0396 10.0449C 11.5227 10.6966 12.1858 11.0225 13.0289 11.0225C 13.8766 11.0225 14.5328 10.7148 14.9977 10.0996C 15.4625 9.47982 15.7018 8.59342 15.7154 7.44043L 15.7154 6.70215ZM 27.2385 10.6943C 26.9012 11.1774 26.4296 11.5397 25.8234 11.7812C 25.2219 12.0182 24.5201 12.1367 23.718 12.1367C 22.9068 12.1367 22.1867 11.9476 21.5578 11.5693C 20.9289 11.1865 20.4413 10.6442 20.0949 9.94238C 19.7531 9.24056 19.5777 8.42708 19.5686 7.50195L 19.5686 6.63379C 19.5686 5.13444 19.9172 3.97233 20.6145 3.14746C 21.3163 2.32259 22.3007 1.91016 23.5676 1.91016C 24.6066 1.91016 25.4429 2.17676 26.0764 2.70996C 26.7098 3.23861 27.0972 3.99056 27.2385 4.96582L 25.926 4.96582C 25.6799 3.64876 24.896 2.99023 23.5744 2.99023C 22.6949 2.99023 22.0272 3.30013 21.5715 3.91992C 21.1203 4.53516 20.8924 5.42839 20.8879 6.59961L 20.8879 7.41309C 20.8879 8.52962 21.1431 9.41829 21.6535 10.0791C 22.1639 10.7354 22.8544 11.0635 23.7248 11.0635C 24.217 11.0635 24.6477 11.0088 25.0168 10.8994C 25.3859 10.79 25.6913 10.6055 25.9328 10.3457L 25.9328 8.11035L 23.6291 8.11035L 23.6291 7.04395L 27.2385 7.04395L 27.2385 10.6943ZM 31.741 12L 30.4285 12L 30.4285 2.04688L 31.741 2.04688L 31.741 12ZM 42.6967 12L 41.3773 12L 36.3666 4.33008L 36.3666 12L 35.0473 12L 35.0473 2.04688L 36.3666 2.04688L 41.391 9.75098L 41.391 2.04688L 42.6967 2.04688L 42.6967 12Z"/>
<path id="path7_fill" fill-rule="evenodd" d="M 0 4C 0 1.79086 1.79086 0 4 0L 283.243 0C 285.452 0 287.243 1.79086 287.243 4L 287.243 44C 287.243 46.2091 285.452 48 283.243 48L 4 48C 1.79086 48 0 46.2091 0 44L 0 4Z"/>
<path id="path8_stroke_2x" d="M 4 1L 283.243 1L 283.243 -1L 4 -1L 4 1ZM 286.243 4L 286.243 44L 288.243 44L 288.243 4L 286.243 4ZM 283.243 47L 4 47L 4 49L 283.243 49L 283.243 47ZM 1 44L 1 4L -1 4L -1 44L 1 44ZM 4 -1C 1.23858 -1 -1 1.23858 -1 4L 1 4C 1 2.34315 2.34315 1 4 1L 4 -1ZM 283.243 1C 284.9 1 286.243 2.34315 286.243 4L 288.243 4C 288.243 1.23858 286.005 -1 283.243 -1L 283.243 1ZM 286.243 44C 286.243 45.6569 284.9 47 283.243 47L 283.243 49C 286.005 49 288.243 46.7614 288.243 44L 286.243 44ZM 4 47C 2.34315 47 1 45.6569 1 44L -1 44C -1 46.7614 1.23858 49 4 49L 4 47Z"/>
<path id="path9_fill" d="M 7.75 13.7422L 2.82031 13.7422L 2.82031 17.7734L 8.54688 17.7734L 8.54688 19L 1.32031 19L 1.32031 7.625L 8.46875 7.625L 8.46875 8.85938L 2.82031 8.85938L 2.82031 12.5156L 7.75 12.5156L 7.75 13.7422ZM 11.3469 10.5469L 11.3859 11.4844C 12.0057 10.7552 12.8417 10.3906 13.8938 10.3906C 15.076 10.3906 15.8807 10.8438 16.3078 11.75C 16.5891 11.3438 16.9536 11.0156 17.4016 10.7656C 17.8547 10.5156 18.3885 10.3906 19.0031 10.3906C 20.8573 10.3906 21.8 11.3724 21.8313 13.3359L 21.8313 19L 20.3859 19L 20.3859 13.4219C 20.3859 12.8177 20.2479 12.3672 19.9719 12.0703C 19.6958 11.7682 19.2323 11.6172 18.5813 11.6172C 18.0448 11.6172 17.5995 11.7786 17.2453 12.1016C 16.8911 12.4193 16.6854 12.849 16.6281 13.3906L 16.6281 19L 15.175 19L 15.175 13.4609C 15.175 12.2318 14.5734 11.6172 13.3703 11.6172C 12.4224 11.6172 11.774 12.0208 11.425 12.8281L 11.425 19L 9.97969 19L 9.97969 10.5469L 11.3469 10.5469ZM 29.0375 19C 28.9542 18.8333 28.8865 18.5365 28.8344 18.1094C 28.1625 18.8073 27.3604 19.1562 26.4281 19.1562C 25.5948 19.1562 24.9099 18.9219 24.3734 18.4531C 23.8422 17.9792 23.5766 17.3802 23.5766 16.6562C 23.5766 15.776 23.9099 15.0938 24.5766 14.6094C 25.2484 14.1198 26.1911 13.875 27.4047 13.875L 28.8109 13.875L 28.8109 13.2109C 28.8109 12.7057 28.6599 12.3047 28.3578 12.0078C 28.0557 11.7057 27.6104 11.5547 27.0219 11.5547C 26.5063 11.5547 26.074 11.6849 25.725 11.9453C 25.376 12.2057 25.2016 12.5208 25.2016 12.8906L 23.7484 12.8906C 23.7484 12.4688 23.8969 12.0625 24.1938 11.6719C 24.4958 11.276 24.9021 10.9635 25.4125 10.7344C 25.9281 10.5052 26.4932 10.3906 27.1078 10.3906C 28.0818 10.3906 28.8448 10.6354 29.3969 11.125C 29.949 11.6094 30.2354 12.2786 30.2563 13.1328L 30.2563 17.0234C 30.2563 17.7995 30.3552 18.4167 30.5531 18.875L 30.5531 19L 29.0375 19ZM 26.6391 17.8984C 27.0922 17.8984 27.5219 17.7812 27.9281 17.5469C 28.3344 17.3125 28.6286 17.0078 28.8109 16.6328L 28.8109 14.8984L 27.6781 14.8984C 25.9073 14.8984 25.0219 15.4167 25.0219 16.4531C 25.0219 16.9062 25.1729 17.2604 25.475 17.5156C 25.7771 17.7708 26.1651 17.8984 26.6391 17.8984ZM 33.8922 19L 32.4469 19L 32.4469 10.5469L 33.8922 10.5469L 33.8922 19ZM 32.3297 8.30469C 32.3297 8.07031 32.4 7.8724 32.5406 7.71094C 32.6865 7.54948 32.9 7.46875 33.1813 7.46875C 33.4625 7.46875 33.676 7.54948 33.8219 7.71094C 33.9677 7.8724 34.0406 8.07031 34.0406 8.30469C 34.0406 8.53906 33.9677 8.73438 33.8219 8.89062C 33.676 9.04688 33.4625 9.125 33.1813 9.125C 32.9 9.125 32.6865 9.04688 32.5406 8.89062C 32.4 8.73438 32.3297 8.53906 32.3297 8.30469ZM 37.5828 19L 36.1375 19L 36.1375 7L 37.5828 7L 37.5828 19Z"/>
<path id="path10_fill" d="M 2.58594 10.5469L 2.58594 19.9766C 2.58594 21.6016 1.84896 22.4141 0.375 22.4141C 0.0572917 22.4141 -0.236979 22.3672 -0.507812 22.2734L -0.507812 21.1172C -0.341146 21.1589 -0.122396 21.1797 0.148438 21.1797C 0.471354 21.1797 0.716146 21.0911 0.882812 20.9141C 1.05469 20.7422 1.14062 20.4401 1.14062 20.0078L 1.14062 10.5469L 2.58594 10.5469ZM 0.992188 8.30469C 0.992188 8.07552 1.0625 7.88021 1.20312 7.71875C 1.34896 7.55208 1.5599 7.46875 1.83594 7.46875C 2.11719 7.46875 2.33073 7.54948 2.47656 7.71094C 2.6224 7.8724 2.69531 8.07031 2.69531 8.30469C 2.69531 8.53906 2.6224 8.73438 2.47656 8.89062C 2.33073 9.04688 2.11719 9.125 1.83594 9.125C 1.55469 9.125 1.34375 9.04688 1.20312 8.89062C 1.0625 8.73438 0.992188 8.53906 0.992188 8.30469ZM 4.33906 14.6953C 4.33906 13.8672 4.50052 13.1224 4.82344 12.4609C 5.15156 11.7995 5.60469 11.2891 6.18281 10.9297C 6.76615 10.5703 7.43021 10.3906 8.175 10.3906C 9.32604 10.3906 10.2557 10.7891 10.9641 11.5859C 11.6776 12.3828 12.0344 13.4427 12.0344 14.7656L 12.0344 14.8672C 12.0344 15.6901 11.8755 16.4297 11.5578 17.0859C 11.2453 17.737 10.7948 18.2448 10.2062 18.6094C 9.62292 18.974 8.95104 19.1562 8.19062 19.1562C 7.04479 19.1562 6.1151 18.7578 5.40156 17.9609C 4.69323 17.1641 4.33906 16.1094 4.33906 14.7969L 4.33906 14.6953ZM 5.79219 14.8672C 5.79219 15.8047 6.00833 16.5573 6.44062 17.125C 6.87812 17.6927 7.46146 17.9766 8.19062 17.9766C 8.925 17.9766 9.50833 17.6901 9.94062 17.1172C 10.3729 16.5391 10.5891 15.7318 10.5891 14.6953C 10.5891 13.7682 10.3677 13.0182 9.925 12.4453C 9.4875 11.8672 8.90417 11.5781 8.175 11.5781C 7.46146 11.5781 6.88594 11.862 6.44844 12.4297C 6.01094 12.9974 5.79219 13.8099 5.79219 14.8672ZM 15.0922 11.5703C 15.7328 10.7839 16.5661 10.3906 17.5922 10.3906C 19.3786 10.3906 20.2797 11.3984 20.2953 13.4141L 20.2953 19L 18.85 19L 18.85 13.4062C 18.8448 12.7969 18.7042 12.3464 18.4281 12.0547C 18.1573 11.763 17.7328 11.6172 17.1547 11.6172C 16.6859 11.6172 16.2745 11.7422 15.9203 11.9922C 15.5661 12.2422 15.2901 12.5703 15.0922 12.9766L 15.0922 19L 13.6469 19L 13.6469 7L 15.0922 7L 15.0922 11.5703ZM 23.6266 10.5469L 23.6734 11.6094C 24.3193 10.7969 25.163 10.3906 26.2047 10.3906C 27.9911 10.3906 28.8922 11.3984 28.9078 13.4141L 28.9078 19L 27.4625 19L 27.4625 13.4062C 27.4573 12.7969 27.3167 12.3464 27.0406 12.0547C 26.7698 11.763 26.3453 11.6172 25.7672 11.6172C 25.2984 11.6172 24.887 11.7422 24.5328 11.9922C 24.1786 12.2422 23.9026 12.5703 23.7047 12.9766L 23.7047 19L 22.2594 19L 22.2594 10.5469L 23.6266 10.5469ZM 35.8094 16.7578C 35.8094 16.3672 35.6609 16.0651 35.3641 15.8516C 35.0724 15.6328 34.5594 15.4453 33.825 15.2891C 33.0958 15.1328 32.5151 14.9453 32.0828 14.7266C 31.6557 14.5078 31.338 14.2474 31.1297 13.9453C 30.9266 13.6432 30.825 13.2839 30.825 12.8672C 30.825 12.1745 31.1167 11.5885 31.7 11.1094C 32.2885 10.6302 33.0385 10.3906 33.95 10.3906C 34.9083 10.3906 35.6844 10.638 36.2781 11.1328C 36.8771 11.6276 37.1766 12.2604 37.1766 13.0312L 35.7234 13.0312C 35.7234 12.6354 35.5542 12.2943 35.2156 12.0078C 34.8823 11.7214 34.4604 11.5781 33.95 11.5781C 33.424 11.5781 33.0125 11.6927 32.7156 11.9219C 32.4188 12.151 32.2703 12.4505 32.2703 12.8203C 32.2703 13.1693 32.4083 13.4323 32.6844 13.6094C 32.9604 13.7865 33.4578 13.9557 34.1766 14.1172C 34.9005 14.2786 35.4865 14.4714 35.9344 14.6953C 36.3823 14.9193 36.713 15.1901 36.9266 15.5078C 37.1453 15.8203 37.2547 16.2031 37.2547 16.6562C 37.2547 17.4115 36.9526 18.0182 36.3484 18.4766C 35.7443 18.9297 34.9604 19.1562 33.9969 19.1562C 33.3198 19.1562 32.7208 19.0365 32.2 18.7969C 31.6792 18.5573 31.2703 18.224 30.9734 17.7969C 30.6818 17.3646 30.5359 16.8984 30.5359 16.3984L 31.9813 16.3984C 32.0073 16.8828 32.2 17.2682 32.5594 17.5547C 32.924 17.8359 33.4031 17.9766 33.9969 17.9766C 34.5438 17.9766 34.9813 17.8672 35.3094 17.6484C 35.6427 17.4245 35.8094 17.1276 35.8094 16.7578ZM 40.3047 10.5469L 40.3516 11.6094C 40.9974 10.7969 41.8411 10.3906 42.8828 10.3906C 44.6693 10.3906 45.5703 11.3984 45.5859 13.4141L 45.5859 19L 44.1406 19L 44.1406 13.4062C 44.1354 12.7969 43.9948 12.3464 43.7188 12.0547C 43.4479 11.763 43.0234 11.6172 42.4453 11.6172C 41.9766 11.6172 41.5651 11.7422 41.2109 11.9922C 40.8568 12.2422 40.5807 12.5703 40.3828 12.9766L 40.3828 19L 38.9375 19L 38.9375 10.5469L 40.3047 10.5469ZM 47.1828 14.6953C 47.1828 13.8672 47.3443 13.1224 47.6672 12.4609C 47.9953 11.7995 48.4484 11.2891 49.0266 10.9297C 49.6099 10.5703 50.274 10.3906 51.0187 10.3906C 52.1698 10.3906 53.0995 10.7891 53.8078 11.5859C 54.5214 12.3828 54.8781 13.4427 54.8781 14.7656L 54.8781 14.8672C 54.8781 15.6901 54.7193 16.4297 54.4016 17.0859C 54.0891 17.737 53.6385 18.2448 53.05 18.6094C 52.4667 18.974 51.7948 19.1562 51.0344 19.1562C 49.8885 19.1562 48.9589 18.7578 48.2453 17.9609C 47.537 17.1641 47.1828 16.1094 47.1828 14.7969L 47.1828 14.6953ZM 48.6359 14.8672C 48.6359 15.8047 48.8521 16.5573 49.2844 17.125C 49.7219 17.6927 50.3052 17.9766 51.0344 17.9766C 51.7687 17.9766 52.3521 17.6901 52.7844 17.1172C 53.2167 16.5391 53.4328 15.7318 53.4328 14.6953C 53.4328 13.7682 53.2115 13.0182 52.7687 12.4453C 52.3312 11.8672 51.7479 11.5781 51.0187 11.5781C 50.3052 11.5781 49.7297 11.862 49.2922 12.4297C 48.8547 12.9974 48.6359 13.8099 48.6359 14.8672ZM 63.975 17.0078L 65.6 10.5469L 67.0453 10.5469L 64.5844 19L 63.4125 19L 61.3578 12.5938L 59.3578 19L 58.1859 19L 55.7328 10.5469L 57.1703 10.5469L 58.8344 16.875L 60.8031 10.5469L 61.9672 10.5469L 63.975 17.0078ZM 80.8063 15.0781C 80.7438 16.3385 80.4313 17.3333 79.8688 18.0625C 79.3063 18.7917 78.5536 19.1562 77.6109 19.1562C 76.637 19.1562 76.012 18.7188 75.7359 17.8438C 75.4547 18.2865 75.1318 18.6172 74.7672 18.8359C 74.4078 19.0495 74.0354 19.1562 73.65 19.1562C 72.9104 19.1562 72.3505 18.8542 71.9703 18.25C 71.5901 17.6458 71.4495 16.8099 71.5484 15.7422C 71.6266 14.8828 71.8219 14.1172 72.1344 13.4453C 72.4521 12.7682 72.8583 12.237 73.3531 11.8516C 73.8531 11.4661 74.3766 11.2734 74.9234 11.2734C 75.3453 11.2734 75.7229 11.3307 76.0563 11.4453C 76.3896 11.5547 76.7646 11.7734 77.1813 12.1016L 76.775 16.4297C 76.676 17.6328 77.0094 18.2344 77.775 18.2344C 78.3635 18.2344 78.8401 17.9427 79.2047 17.3594C 79.5693 16.776 79.7672 16.0156 79.7984 15.0781C 79.8974 13.0521 79.5198 11.5078 78.6656 10.4453C 77.8167 9.38281 76.5224 8.85156 74.7828 8.85156C 73.7359 8.85156 72.8063 9.11198 71.9938 9.63281C 71.1813 10.1484 70.5406 10.8958 70.0719 11.875C 69.6031 12.8542 69.3401 13.9844 69.2828 15.2656C 69.2203 16.5573 69.3766 17.6797 69.7516 18.6328C 70.1266 19.5807 70.6969 20.3047 71.4625 20.8047C 72.2333 21.3099 73.163 21.5625 74.2516 21.5625C 74.7203 21.5625 75.1891 21.5052 75.6578 21.3906C 76.1318 21.276 76.525 21.1276 76.8375 20.9453L 77.1266 21.8438C 76.8036 22.0469 76.374 22.2135 75.8375 22.3438C 75.3063 22.474 74.7672 22.5391 74.2203 22.5391C 72.9182 22.5391 71.7984 22.2448 70.8609 21.6562C 69.9234 21.0729 69.2203 20.2292 68.7516 19.125C 68.288 18.026 68.0875 16.7396 68.15 15.2656C 68.2125 13.8333 68.5328 12.5469 69.1109 11.4062C 69.6891 10.2604 70.4729 9.3776 71.4625 8.75781C 72.4521 8.13281 73.5693 7.82031 74.8141 7.82031C 76.1109 7.82031 77.2229 8.11198 78.15 8.69531C 79.0771 9.27865 79.7672 10.1198 80.2203 11.2188C 80.6734 12.3177 80.8688 13.6042 80.8063 15.0781ZM 72.7906 15.7422C 72.7177 16.4818 72.7854 17.0495 72.9938 17.4453C 73.2073 17.8411 73.5432 18.0391 74.0016 18.0391C 74.3141 18.0391 74.6135 17.9062 74.9 17.6406C 75.1917 17.375 75.4313 16.9948 75.6188 16.5L 75.6266 16.4297L 75.9859 12.5C 75.6943 12.349 75.3818 12.2734 75.0484 12.2734C 74.4391 12.2734 73.9339 12.5833 73.5328 13.2031C 73.137 13.8229 72.8896 14.6693 72.7906 15.7422ZM 82.1531 14.7031C 82.1531 13.3854 82.4578 12.3385 83.0672 11.5625C 83.6766 10.7812 84.4839 10.3906 85.4891 10.3906C 86.5203 10.3906 87.325 10.7552 87.9031 11.4844L 87.9734 10.5469L 89.2938 10.5469L 89.2938 18.7969C 89.2938 19.8906 88.9682 20.7526 88.3172 21.3828C 87.6714 22.013 86.8016 22.3281 85.7078 22.3281C 85.0984 22.3281 84.5021 22.1979 83.9188 21.9375C 83.3354 21.6771 82.8901 21.3203 82.5828 20.8672L 83.3328 20C 83.9526 20.7656 84.7104 21.1484 85.6063 21.1484C 86.3094 21.1484 86.8563 20.9505 87.2469 20.5547C 87.6427 20.1589 87.8406 19.6016 87.8406 18.8828L 87.8406 18.1562C 87.2625 18.8229 86.4734 19.1562 85.4734 19.1562C 84.4839 19.1562 83.6818 18.7578 83.0672 17.9609C 82.4578 17.1641 82.1531 16.0781 82.1531 14.7031ZM 83.6063 14.8672C 83.6063 15.8203 83.8016 16.5703 84.1922 17.1172C 84.5828 17.6589 85.1297 17.9297 85.8328 17.9297C 86.7443 17.9297 87.4135 17.5156 87.8406 16.6875L 87.8406 12.8281C 87.3979 12.0208 86.7339 11.6172 85.8484 11.6172C 85.1453 11.6172 84.5958 11.8906 84.2 12.4375C 83.8042 12.9844 83.6063 13.7943 83.6063 14.8672ZM 92.6406 10.5469L 92.6797 11.4844C 93.2995 10.7552 94.1354 10.3906 95.1875 10.3906C 96.3698 10.3906 97.1745 10.8438 97.6016 11.75C 97.8828 11.3438 98.2474 11.0156 98.6953 10.7656C 99.1484 10.5156 99.6823 10.3906 100.297 10.3906C 102.151 10.3906 103.094 11.3724 103.125 13.3359L 103.125 19L 101.68 19L 101.68 13.4219C 101.68 12.8177 101.542 12.3672 101.266 12.0703C 100.99 11.7682 100.526 11.6172 99.875 11.6172C 99.3385 11.6172 98.8932 11.7786 98.5391 12.1016C 98.1849 12.4193 97.9792 12.849 97.9219 13.3906L 97.9219 19L 96.4688 19L 96.4688 13.4609C 96.4688 12.2318 95.8672 11.6172 94.6641 11.6172C 93.7161 11.6172 93.0677 12.0208 92.7188 12.8281L 92.7188 19L 91.2734 19L 91.2734 10.5469L 92.6406 10.5469ZM 110.331 19C 110.248 18.8333 110.18 18.5365 110.128 18.1094C 109.456 18.8073 108.654 19.1562 107.722 19.1562C 106.889 19.1562 106.204 18.9219 105.667 18.4531C 105.136 17.9792 104.87 17.3802 104.87 16.6562C 104.87 15.776 105.204 15.0938 105.87 14.6094C 106.542 14.1198 107.485 13.875 108.698 13.875L 110.105 13.875L 110.105 13.2109C 110.105 12.7057 109.954 12.3047 109.652 12.0078C 109.349 11.7057 108.904 11.5547 108.316 11.5547C 107.8 11.5547 107.368 11.6849 107.019 11.9453C 106.67 12.2057 106.495 12.5208 106.495 12.8906L 105.042 12.8906C 105.042 12.4688 105.191 12.0625 105.488 11.6719C 105.79 11.276 106.196 10.9635 106.706 10.7344C 107.222 10.5052 107.787 10.3906 108.402 10.3906C 109.376 10.3906 110.139 10.6354 110.691 11.125C 111.243 11.6094 111.529 12.2786 111.55 13.1328L 111.55 17.0234C 111.55 17.7995 111.649 18.4167 111.847 18.875L 111.847 19L 110.331 19ZM 107.933 17.8984C 108.386 17.8984 108.816 17.7812 109.222 17.5469C 109.628 17.3125 109.922 17.0078 110.105 16.6328L 110.105 14.8984L 108.972 14.8984C 107.201 14.8984 106.316 15.4167 106.316 16.4531C 106.316 16.9062 106.467 17.2604 106.769 17.5156C 107.071 17.7708 107.459 17.8984 107.933 17.8984ZM 115.186 19L 113.741 19L 113.741 10.5469L 115.186 10.5469L 115.186 19ZM 113.623 8.30469C 113.623 8.07031 113.694 7.8724 113.834 7.71094C 113.98 7.54948 114.194 7.46875 114.475 7.46875C 114.756 7.46875 114.97 7.54948 115.116 7.71094C 115.261 7.8724 115.334 8.07031 115.334 8.30469C 115.334 8.53906 115.261 8.73438 115.116 8.89062C 114.97 9.04688 114.756 9.125 114.475 9.125C 114.194 9.125 113.98 9.04688 113.834 8.89062C 113.694 8.73438 113.623 8.53906 113.623 8.30469ZM 118.877 19L 117.431 19L 117.431 7L 118.877 7L 118.877 19ZM 121.028 18.2422C 121.028 17.9922 121.101 17.7839 121.247 17.6172C 121.398 17.4505 121.622 17.3672 121.919 17.3672C 122.216 17.3672 122.44 17.4505 122.591 17.6172C 122.747 17.7839 122.825 17.9922 122.825 18.2422C 122.825 18.4818 122.747 18.6823 122.591 18.8438C 122.44 19.0052 122.216 19.0859 121.919 19.0859C 121.622 19.0859 121.398 19.0052 121.247 18.8438C 121.101 18.6823 121.028 18.4818 121.028 18.2422ZM 128.406 17.9766C 128.922 17.9766 129.372 17.8203 129.758 17.5078C 130.143 17.1953 130.357 16.8047 130.398 16.3359L 131.766 16.3359C 131.74 16.8203 131.573 17.2812 131.266 17.7188C 130.958 18.1562 130.547 18.5052 130.031 18.7656C 129.521 19.026 128.979 19.1562 128.406 19.1562C 127.255 19.1562 126.339 18.7734 125.656 18.0078C 124.979 17.237 124.641 16.1849 124.641 14.8516L 124.641 14.6094C 124.641 13.7865 124.792 13.0547 125.094 12.4141C 125.396 11.7734 125.828 11.276 126.391 10.9219C 126.958 10.5677 127.628 10.3906 128.398 10.3906C 129.346 10.3906 130.133 10.6745 130.758 11.2422C 131.388 11.8099 131.724 12.5469 131.766 13.4531L 130.398 13.4531C 130.357 12.9062 130.148 12.4583 129.773 12.1094C 129.404 11.7552 128.945 11.5781 128.398 11.5781C 127.664 11.5781 127.094 11.8438 126.688 12.375C 126.286 12.901 126.086 13.6641 126.086 14.6641L 126.086 14.9375C 126.086 15.9115 126.286 16.6615 126.688 17.1875C 127.089 17.7135 127.661 17.9766 128.406 17.9766ZM 132.808 14.6953C 132.808 13.8672 132.969 13.1224 133.292 12.4609C 133.62 11.7995 134.073 11.2891 134.652 10.9297C 135.235 10.5703 135.899 10.3906 136.644 10.3906C 137.795 10.3906 138.724 10.7891 139.433 11.5859C 140.146 12.3828 140.503 13.4427 140.503 14.7656L 140.503 14.8672C 140.503 15.6901 140.344 16.4297 140.027 17.0859C 139.714 17.737 139.264 18.2448 138.675 18.6094C 138.092 18.974 137.42 19.1562 136.659 19.1562C 135.514 19.1562 134.584 18.7578 133.87 17.9609C 133.162 17.1641 132.808 16.1094 132.808 14.7969L 132.808 14.6953ZM 134.261 14.8672C 134.261 15.8047 134.477 16.5573 134.909 17.125C 135.347 17.6927 135.93 17.9766 136.659 17.9766C 137.394 17.9766 137.977 17.6901 138.409 17.1172C 138.842 16.5391 139.058 15.7318 139.058 14.6953C 139.058 13.7682 138.836 13.0182 138.394 12.4453C 137.956 11.8672 137.373 11.5781 136.644 11.5781C 135.93 11.5781 135.355 11.862 134.917 12.4297C 134.48 12.9974 134.261 13.8099 134.261 14.8672ZM 143.475 10.5469L 143.514 11.4844C 144.134 10.7552 144.97 10.3906 146.022 10.3906C 147.204 10.3906 148.009 10.8438 148.436 11.75C 148.717 11.3438 149.082 11.0156 149.53 10.7656C 149.983 10.5156 150.517 10.3906 151.131 10.3906C 152.985 10.3906 153.928 11.3724 153.959 13.3359L 153.959 19L 152.514 19L 152.514 13.4219C 152.514 12.8177 152.376 12.3672 152.1 12.0703C 151.824 11.7682 151.36 11.6172 150.709 11.6172C 150.173 11.6172 149.728 11.7786 149.373 12.1016C 149.019 12.4193 148.814 12.849 148.756 13.3906L 148.756 19L 147.303 19L 147.303 13.4609C 147.303 12.2318 146.702 11.6172 145.498 11.6172C 144.551 11.6172 143.902 12.0208 143.553 12.8281L 143.553 19L 142.108 19L 142.108 10.5469L 143.475 10.5469Z"/>
<path id="path11_fill" fill-rule="evenodd" d="M 8.801 0C 4.801 0 1.359 2.48 0 6C 1.359 9.52 4.801 12 8.801 12C 12.801 12 16.238 9.52 17.602 6C 16.238 2.48 12.801 0 8.801 0ZM 8.80078 10C 6.55878 10 4.80078 8.238 4.80078 6C 4.80078 3.762 6.55878 2 8.80078 2C 11.0388 2 12.8008 3.762 12.8008 6C 12.8008 8.238 11.0388 10 8.80078 10ZM 8.80095 3.60156C 7.44095 3.60156 6.39795 4.64056 6.39795 5.99956C 6.39795 7.35856 7.44095 8.39756 8.80095 8.39756C 10.1599 8.39756 11.1989 7.35856 11.1989 5.99956C 11.1989 4.64056 10.1599 3.60156 8.80095 3.60156Z"/>
<path id="path12_fill" d="M 2.82031 14.5469L 2.82031 19L 1.32031 19L 1.32031 7.625L 5.51562 7.625C 6.76042 7.625 7.73438 7.94271 8.4375 8.57812C 9.14583 9.21354 9.5 10.0547 9.5 11.1016C 9.5 12.2057 9.15365 13.0573 8.46094 13.6562C 7.77344 14.25 6.78646 14.5469 5.5 14.5469L 2.82031 14.5469ZM 2.82031 13.3203L 5.51562 13.3203C 6.31771 13.3203 6.93229 13.1328 7.35938 12.7578C 7.78646 12.3776 8 11.8307 8 11.1172C 8 10.4401 7.78646 9.89844 7.35938 9.49219C 6.93229 9.08594 6.34635 8.875 5.60156 8.85938L 2.82031 8.85938L 2.82031 13.3203ZM 16.1125 19C 16.0292 18.8333 15.9615 18.5365 15.9094 18.1094C 15.2375 18.8073 14.4354 19.1562 13.5031 19.1562C 12.6698 19.1562 11.9849 18.9219 11.4484 18.4531C 10.9172 17.9792 10.6516 17.3802 10.6516 16.6562C 10.6516 15.776 10.9849 15.0938 11.6516 14.6094C 12.3234 14.1198 13.2661 13.875 14.4797 13.875L 15.8859 13.875L 15.8859 13.2109C 15.8859 12.7057 15.7349 12.3047 15.4328 12.0078C 15.1307 11.7057 14.6854 11.5547 14.0969 11.5547C 13.5813 11.5547 13.149 11.6849 12.8 11.9453C 12.451 12.2057 12.2766 12.5208 12.2766 12.8906L 10.8234 12.8906C 10.8234 12.4688 10.9719 12.0625 11.2688 11.6719C 11.5708 11.276 11.9771 10.9635 12.4875 10.7344C 13.0031 10.5052 13.5682 10.3906 14.1828 10.3906C 15.1568 10.3906 15.9198 10.6354 16.4719 11.125C 17.024 11.6094 17.3104 12.2786 17.3313 13.1328L 17.3313 17.0234C 17.3313 17.7995 17.4302 18.4167 17.6281 18.875L 17.6281 19L 16.1125 19ZM 13.7141 17.8984C 14.1672 17.8984 14.5969 17.7812 15.0031 17.5469C 15.4094 17.3125 15.7036 17.0078 15.8859 16.6328L 15.8859 14.8984L 14.7531 14.8984C 12.9823 14.8984 12.0969 15.4167 12.0969 16.4531C 12.0969 16.9062 12.2479 17.2604 12.55 17.5156C 12.8521 17.7708 13.2401 17.8984 13.7141 17.8984ZM 24.3188 16.7578C 24.3188 16.3672 24.1703 16.0651 23.8734 15.8516C 23.5818 15.6328 23.0688 15.4453 22.3344 15.2891C 21.6052 15.1328 21.0245 14.9453 20.5922 14.7266C 20.1651 14.5078 19.8474 14.2474 19.6391 13.9453C 19.4359 13.6432 19.3344 13.2839 19.3344 12.8672C 19.3344 12.1745 19.626 11.5885 20.2094 11.1094C 20.7979 10.6302 21.5479 10.3906 22.4594 10.3906C 23.4177 10.3906 24.1938 10.638 24.7875 11.1328C 25.3865 11.6276 25.6859 12.2604 25.6859 13.0312L 24.2328 13.0312C 24.2328 12.6354 24.0635 12.2943 23.725 12.0078C 23.3917 11.7214 22.9698 11.5781 22.4594 11.5781C 21.9333 11.5781 21.5219 11.6927 21.225 11.9219C 20.9281 12.151 20.7797 12.4505 20.7797 12.8203C 20.7797 13.1693 20.9177 13.4323 21.1938 13.6094C 21.4698 13.7865 21.9672 13.9557 22.6859 14.1172C 23.4099 14.2786 23.9958 14.4714 24.4438 14.6953C 24.8917 14.9193 25.2224 15.1901 25.4359 15.5078C 25.6547 15.8203 25.7641 16.2031 25.7641 16.6562C 25.7641 17.4115 25.462 18.0182 24.8578 18.4766C 24.2536 18.9297 23.4698 19.1562 22.5063 19.1562C 21.8292 19.1562 21.2302 19.0365 20.7094 18.7969C 20.1885 18.5573 19.7797 18.224 19.4828 17.7969C 19.1911 17.3646 19.0453 16.8984 19.0453 16.3984L 20.4906 16.3984C 20.5167 16.8828 20.7094 17.2682 21.0688 17.5547C 21.4333 17.8359 21.9125 17.9766 22.5063 17.9766C 23.0531 17.9766 23.4906 17.8672 23.8188 17.6484C 24.1521 17.4245 24.3188 17.1276 24.3188 16.7578ZM 32.3688 16.7578C 32.3688 16.3672 32.2203 16.0651 31.9234 15.8516C 31.6318 15.6328 31.1188 15.4453 30.3844 15.2891C 29.6552 15.1328 29.0745 14.9453 28.6422 14.7266C 28.2151 14.5078 27.8974 14.2474 27.6891 13.9453C 27.4859 13.6432 27.3844 13.2839 27.3844 12.8672C 27.3844 12.1745 27.676 11.5885 28.2594 11.1094C 28.8479 10.6302 29.5979 10.3906 30.5094 10.3906C 31.4677 10.3906 32.2438 10.638 32.8375 11.1328C 33.4365 11.6276 33.7359 12.2604 33.7359 13.0312L 32.2828 13.0312C 32.2828 12.6354 32.1135 12.2943 31.775 12.0078C 31.4417 11.7214 31.0198 11.5781 30.5094 11.5781C 29.9833 11.5781 29.5719 11.6927 29.275 11.9219C 28.9781 12.151 28.8297 12.4505 28.8297 12.8203C 28.8297 13.1693 28.9677 13.4323 29.2438 13.6094C 29.5198 13.7865 30.0172 13.9557 30.7359 14.1172C 31.4599 14.2786 32.0458 14.4714 32.4938 14.6953C 32.9417 14.9193 33.2724 15.1901 33.4859 15.5078C 33.7047 15.8203 33.8141 16.2031 33.8141 16.6562C 33.8141 17.4115 33.512 18.0182 32.9078 18.4766C 32.3036 18.9297 31.5198 19.1562 30.5563 19.1562C 29.8792 19.1562 29.2802 19.0365 28.7594 18.7969C 28.2385 18.5573 27.8297 18.224 27.5328 17.7969C 27.2411 17.3646 27.0953 16.8984 27.0953 16.3984L 28.5406 16.3984C 28.5667 16.8828 28.7594 17.2682 29.1188 17.5547C 29.4833 17.8359 29.9625 17.9766 30.5563 17.9766C 31.1031 17.9766 31.5406 17.8672 31.8688 17.6484C 32.2021 17.4245 32.3688 17.1276 32.3688 16.7578ZM 42.9813 17.0078L 44.6063 10.5469L 46.0516 10.5469L 43.5906 19L 42.4188 19L 40.3641 12.5938L 38.3641 19L 37.1922 19L 34.7391 10.5469L 36.1766 10.5469L 37.8406 16.875L 39.8094 10.5469L 40.9734 10.5469L 42.9813 17.0078ZM 46.9453 14.6953C 46.9453 13.8672 47.1068 13.1224 47.4297 12.4609C 47.7578 11.7995 48.2109 11.2891 48.7891 10.9297C 49.3724 10.5703 50.0365 10.3906 50.7812 10.3906C 51.9323 10.3906 52.862 10.7891 53.5703 11.5859C 54.2839 12.3828 54.6406 13.4427 54.6406 14.7656L 54.6406 14.8672C 54.6406 15.6901 54.4818 16.4297 54.1641 17.0859C 53.8516 17.737 53.401 18.2448 52.8125 18.6094C 52.2292 18.974 51.5573 19.1562 50.7969 19.1562C 49.651 19.1562 48.7214 18.7578 48.0078 17.9609C 47.2995 17.1641 46.9453 16.1094 46.9453 14.7969L 46.9453 14.6953ZM 48.3984 14.8672C 48.3984 15.8047 48.6146 16.5573 49.0469 17.125C 49.4844 17.6927 50.0677 17.9766 50.7969 17.9766C 51.5312 17.9766 52.1146 17.6901 52.5469 17.1172C 52.9792 16.5391 53.1953 15.7318 53.1953 14.6953C 53.1953 13.7682 52.974 13.0182 52.5312 12.4453C 52.0938 11.8672 51.5104 11.5781 50.7812 11.5781C 50.0677 11.5781 49.4922 11.862 49.0547 12.4297C 48.6172 12.9974 48.3984 13.8099 48.3984 14.8672ZM 60.3391 11.8438C 60.1203 11.8073 59.8833 11.7891 59.6281 11.7891C 58.6802 11.7891 58.037 12.1927 57.6984 13L 57.6984 19L 56.2531 19L 56.2531 10.5469L 57.6594 10.5469L 57.6828 11.5234C 58.1568 10.7682 58.8286 10.3906 59.6984 10.3906C 59.9797 10.3906 60.1932 10.4271 60.3391 10.5L 60.3391 11.8438ZM 60.9672 14.7031C 60.9672 13.4062 61.2745 12.3646 61.8891 11.5781C 62.5036 10.7865 63.3083 10.3906 64.3031 10.3906C 65.2927 10.3906 66.0766 10.7292 66.6547 11.4062L 66.6547 7L 68.1 7L 68.1 19L 66.7719 19L 66.7016 18.0938C 66.1234 18.8021 65.3188 19.1562 64.2875 19.1562C 63.3083 19.1562 62.5089 18.7552 61.8891 17.9531C 61.2745 17.151 60.9672 16.1042 60.9672 14.8125L 60.9672 14.7031ZM 62.4125 14.8672C 62.4125 15.8255 62.6104 16.5755 63.0063 17.1172C 63.4021 17.6589 63.949 17.9297 64.6469 17.9297C 65.5635 17.9297 66.2328 17.5182 66.6547 16.6953L 66.6547 12.8125C 66.2224 12.0156 65.5583 11.6172 64.6625 11.6172C 63.9542 11.6172 63.4021 11.8906 63.0063 12.4375C 62.6104 12.9844 62.4125 13.7943 62.4125 14.8672Z"/>
<path id="path13_fill" d="M 6.64453 13.6045L 2.46777 13.6045L 2.46777 18L 1.15527 18L 1.15527 8.04688L 7.32129 8.04688L 7.32129 9.12695L 2.46777 9.12695L 2.46777 12.5312L 6.64453 12.5312L 6.64453 13.6045ZM 8.03496 14.2334C 8.03496 13.5088 8.17624 12.8571 8.45879 12.2783C 8.7459 11.6995 9.14238 11.2529 9.64824 10.9385C 10.1587 10.624 10.7397 10.4668 11.3914 10.4668C 12.3986 10.4668 13.212 10.8154 13.8318 11.5127C 14.4562 12.21 14.7684 13.1374 14.7684 14.2949L 14.7684 14.3838C 14.7684 15.1038 14.6294 15.751 14.3514 16.3252C 14.0779 16.8949 13.6837 17.3392 13.1687 17.6582C 12.6583 17.9772 12.0704 18.1367 11.4051 18.1367C 10.4025 18.1367 9.589 17.7881 8.96465 17.0908C 8.34486 16.3936 8.03496 15.4707 8.03496 14.3223L 8.03496 14.2334ZM 9.30645 14.3838C 9.30645 15.2041 9.49557 15.8626 9.87383 16.3594C 10.2566 16.8561 10.7671 17.1045 11.4051 17.1045C 12.0477 17.1045 12.5581 16.8538 12.9363 16.3525C 13.3146 15.8467 13.5037 15.1403 13.5037 14.2334C 13.5037 13.4222 13.31 12.766 12.9227 12.2646C 12.5398 11.7588 12.0294 11.5059 11.3914 11.5059C 10.7671 11.5059 10.2635 11.7542 9.88066 12.251C 9.49785 12.7477 9.30645 13.4587 9.30645 14.3838ZM 19.7545 11.7383C 19.5631 11.7064 19.3557 11.6904 19.1324 11.6904C 18.303 11.6904 17.7402 12.0436 17.4439 12.75L 17.4439 18L 16.1793 18L 16.1793 10.6035L 17.4098 10.6035L 17.4303 11.458C 17.845 10.7972 18.4329 10.4668 19.1939 10.4668C 19.44 10.4668 19.6269 10.4987 19.7545 10.5625L 19.7545 11.7383ZM 20.3109 14.2402C 20.3109 13.0872 20.5775 12.1712 21.1107 11.4922C 21.6439 10.8086 22.3503 10.4668 23.2299 10.4668C 24.1322 10.4668 24.8363 10.7858 25.3422 11.4238L 25.4037 10.6035L 26.559 10.6035L 26.559 17.8223C 26.559 18.7793 26.2742 19.5335 25.7045 20.085C 25.1394 20.6364 24.3783 20.9121 23.4213 20.9121C 22.8881 20.9121 22.3663 20.7982 21.8559 20.5703C 21.3454 20.3424 20.9558 20.0303 20.6869 19.6338L 21.3432 18.875C 21.8855 19.5449 22.5486 19.8799 23.3324 19.8799C 23.9477 19.8799 24.4262 19.7067 24.768 19.3604C 25.1143 19.014 25.2875 18.5264 25.2875 17.8975L 25.2875 17.2617C 24.7816 17.8451 24.0912 18.1367 23.2162 18.1367C 22.3503 18.1367 21.6485 17.7881 21.1107 17.0908C 20.5775 16.3936 20.3109 15.4434 20.3109 14.2402ZM 21.5824 14.3838C 21.5824 15.2178 21.7533 15.874 22.0951 16.3525C 22.4369 16.8265 22.9154 17.0635 23.5307 17.0635C 24.3282 17.0635 24.9138 16.7012 25.2875 15.9766L 25.2875 12.5996C 24.9001 11.8932 24.3191 11.54 23.5443 11.54C 22.9291 11.54 22.4483 11.7793 22.102 12.2578C 21.7556 12.7363 21.5824 13.445 21.5824 14.3838ZM 27.9631 14.2334C 27.9631 13.5088 28.1044 12.8571 28.3869 12.2783C 28.674 11.6995 29.0705 11.2529 29.5764 10.9385C 30.0868 10.624 30.6678 10.4668 31.3195 10.4668C 32.3267 10.4668 33.1402 10.8154 33.76 11.5127C 34.3843 12.21 34.6965 13.1374 34.6965 14.2949L 34.6965 14.3838C 34.6965 15.1038 34.5575 15.751 34.2795 16.3252C 34.0061 16.8949 33.6118 17.3392 33.0969 17.6582C 32.5865 17.9772 31.9986 18.1367 31.3332 18.1367C 30.3306 18.1367 29.5171 17.7881 28.8928 17.0908C 28.273 16.3936 27.9631 15.4707 27.9631 14.3223L 27.9631 14.2334ZM 29.2346 14.3838C 29.2346 15.2041 29.4237 15.8626 29.802 16.3594C 30.1848 16.8561 30.6952 17.1045 31.3332 17.1045C 31.9758 17.1045 32.4862 16.8538 32.8645 16.3525C 33.2427 15.8467 33.4318 15.1403 33.4318 14.2334C 33.4318 13.4222 33.2382 12.766 32.8508 12.2646C 32.468 11.7588 31.9576 11.5059 31.3195 11.5059C 30.6952 11.5059 30.1916 11.7542 29.8088 12.251C 29.426 12.7477 29.2346 13.4587 29.2346 14.3838ZM 37.8232 8.8125L 37.8232 10.6035L 39.2041 10.6035L 39.2041 11.5811L 37.8232 11.5811L 37.8232 16.168C 37.8232 16.4642 37.8848 16.6875 38.0078 16.8379C 38.1309 16.9837 38.3405 17.0566 38.6367 17.0566C 38.7826 17.0566 38.9831 17.0293 39.2383 16.9746L 39.2383 18C 38.9056 18.0911 38.582 18.1367 38.2676 18.1367C 37.7025 18.1367 37.2764 17.9658 36.9893 17.624C 36.7021 17.2822 36.5586 16.7969 36.5586 16.168L 36.5586 11.5811L 35.2119 11.5811L 35.2119 10.6035L 36.5586 10.6035L 36.5586 8.8125L 37.8232 8.8125ZM 50.0582 14.3838C 50.0582 15.5094 49.8007 16.4163 49.2857 17.1045C 48.7708 17.7926 48.0735 18.1367 47.1939 18.1367C 46.2962 18.1367 45.5898 17.8519 45.0748 17.2822L 45.0748 20.8438L 43.8102 20.8438L 43.8102 10.6035L 44.9654 10.6035L 45.027 11.4238C 45.5419 10.7858 46.2574 10.4668 47.1734 10.4668C 48.0621 10.4668 48.7639 10.8018 49.2789 11.4717C 49.7984 12.1416 50.0582 13.0736 50.0582 14.2676L 50.0582 14.3838ZM 48.7936 14.2402C 48.7936 13.4062 48.6158 12.7477 48.2603 12.2646C 47.9049 11.7816 47.4173 11.54 46.7975 11.54C 46.0318 11.54 45.4576 11.8796 45.0748 12.5586L 45.0748 16.0928C 45.4531 16.7673 46.0318 17.1045 46.8111 17.1045C 47.4173 17.1045 47.898 16.8652 48.2535 16.3867C 48.6135 15.9036 48.7936 15.1882 48.7936 14.2402ZM 56.0629 18C 55.99 17.8542 55.9307 17.5944 55.8852 17.2207C 55.2973 17.8314 54.5954 18.1367 53.7797 18.1367C 53.0505 18.1367 52.4512 17.9316 51.9818 17.5215C 51.517 17.1068 51.2846 16.5827 51.2846 15.9492C 51.2846 15.179 51.5762 14.582 52.1596 14.1582C 52.7475 13.7298 53.5723 13.5156 54.6342 13.5156L 55.8646 13.5156L 55.8646 12.9346C 55.8646 12.4925 55.7325 12.1416 55.4682 11.8818C 55.2038 11.6175 54.8142 11.4854 54.2992 11.4854C 53.848 11.4854 53.4698 11.5993 53.1645 11.8271C 52.8591 12.055 52.7064 12.3307 52.7064 12.6543L 51.435 12.6543C 51.435 12.2852 51.5648 11.9297 51.8246 11.5879C 52.0889 11.2415 52.4444 10.9681 52.891 10.7676C 53.3422 10.5671 53.8367 10.4668 54.3744 10.4668C 55.2266 10.4668 55.8943 10.681 56.3773 11.1094C 56.8604 11.5332 57.1111 12.1188 57.1293 12.8662L 57.1293 16.2705C 57.1293 16.9495 57.2159 17.4896 57.3891 17.8906L 57.3891 18L 56.0629 18ZM 53.9643 17.0361C 54.3607 17.0361 54.7367 16.9336 55.0922 16.7285C 55.4477 16.5234 55.7051 16.2568 55.8646 15.9287L 55.8646 14.4111L 54.8734 14.4111C 53.324 14.4111 52.5492 14.8646 52.5492 15.7715C 52.5492 16.168 52.6814 16.4779 52.9457 16.7012C 53.21 16.9245 53.5495 17.0361 53.9643 17.0361ZM 63.2434 16.0381C 63.2434 15.6963 63.1135 15.432 62.8537 15.2451C 62.5985 15.0537 62.1496 14.8896 61.507 14.7529C 60.869 14.6162 60.3609 14.4521 59.9826 14.2607C 59.6089 14.0693 59.3309 13.8415 59.1486 13.5771C 58.9709 13.3128 58.882 12.9984 58.882 12.6338C 58.882 12.0277 59.1372 11.515 59.6477 11.0957C 60.1626 10.6764 60.8189 10.4668 61.6164 10.4668C 62.4549 10.4668 63.134 10.6833 63.6535 11.1162C 64.1776 11.5492 64.4396 12.1029 64.4396 12.7773L 63.1682 12.7773C 63.1682 12.431 63.0201 12.1325 62.7238 11.8818C 62.4322 11.6312 62.063 11.5059 61.6164 11.5059C 61.1561 11.5059 60.7961 11.6061 60.5363 11.8066C 60.2766 12.0072 60.1467 12.2692 60.1467 12.5928C 60.1467 12.8981 60.2674 13.1283 60.509 13.2832C 60.7505 13.4382 61.1857 13.5863 61.8146 13.7275C 62.4481 13.8688 62.9608 14.0374 63.3527 14.2334C 63.7447 14.4294 64.034 14.6663 64.2209 14.9443C 64.4123 15.2178 64.508 15.5527 64.508 15.9492C 64.508 16.61 64.2437 17.141 63.715 17.542C 63.1864 17.9385 62.5005 18.1367 61.6574 18.1367C 61.065 18.1367 60.5409 18.0319 60.0852 17.8223C 59.6294 17.6126 59.2717 17.321 59.0119 16.9473C 58.7567 16.569 58.6291 16.1611 58.6291 15.7236L 59.8937 15.7236C 59.9165 16.1475 60.0852 16.4847 60.3996 16.7354C 60.7186 16.9814 61.1379 17.1045 61.6574 17.1045C 62.1359 17.1045 62.5187 17.0088 62.8059 16.8174C 63.0975 16.6214 63.2434 16.3617 63.2434 16.0381ZM 70.2871 16.0381C 70.2871 15.6963 70.1572 15.432 69.8975 15.2451C 69.6423 15.0537 69.1934 14.8896 68.5508 14.7529C 67.9128 14.6162 67.4046 14.4521 67.0264 14.2607C 66.6527 14.0693 66.3747 13.8415 66.1924 13.5771C 66.0146 13.3128 65.9258 12.9984 65.9258 12.6338C 65.9258 12.0277 66.181 11.515 66.6914 11.0957C 67.2064 10.6764 67.8626 10.4668 68.6602 10.4668C 69.4987 10.4668 70.1777 10.6833 70.6973 11.1162C 71.2214 11.5492 71.4834 12.1029 71.4834 12.7773L 70.2119 12.7773C 70.2119 12.431 70.0638 12.1325 69.7676 11.8818C 69.4759 11.6312 69.1068 11.5059 68.6602 11.5059C 68.1999 11.5059 67.8398 11.6061 67.5801 11.8066C 67.3203 12.0072 67.1904 12.2692 67.1904 12.5928C 67.1904 12.8981 67.3112 13.1283 67.5527 13.2832C 67.7943 13.4382 68.2295 13.5863 68.8584 13.7275C 69.4919 13.8688 70.0046 14.0374 70.3965 14.2334C 70.7884 14.4294 71.0778 14.6663 71.2646 14.9443C 71.4561 15.2178 71.5518 15.5527 71.5518 15.9492C 71.5518 16.61 71.2874 17.141 70.7588 17.542C 70.2301 17.9385 69.5443 18.1367 68.7012 18.1367C 68.1087 18.1367 67.5846 18.0319 67.1289 17.8223C 66.6732 17.6126 66.3154 17.321 66.0557 16.9473C 65.8005 16.569 65.6729 16.1611 65.6729 15.7236L 66.9375 15.7236C 66.9603 16.1475 67.1289 16.4847 67.4434 16.7354C 67.7624 16.9814 68.1816 17.1045 68.7012 17.1045C 69.1797 17.1045 69.5625 17.0088 69.8496 16.8174C 70.1413 16.6214 70.2871 16.3617 70.2871 16.0381ZM 79.573 16.2568L 80.9949 10.6035L 82.2596 10.6035L 80.1062 18L 79.0809 18L 77.283 12.3945L 75.533 18L 74.5076 18L 72.3611 10.6035L 73.6189 10.6035L 75.075 16.1406L 76.7977 10.6035L 77.8162 10.6035L 79.573 16.2568ZM 83.0416 14.2334C 83.0416 13.5088 83.1829 12.8571 83.4654 12.2783C 83.7525 11.6995 84.149 11.2529 84.6549 10.9385C 85.1653 10.624 85.7464 10.4668 86.398 10.4668C 87.4052 10.4668 88.2187 10.8154 88.8385 11.5127C 89.4628 12.21 89.775 13.1374 89.775 14.2949L 89.775 14.3838C 89.775 15.1038 89.636 15.751 89.358 16.3252C 89.0846 16.8949 88.6904 17.3392 88.1754 17.6582C 87.665 17.9772 87.0771 18.1367 86.4117 18.1367C 85.4091 18.1367 84.5956 17.7881 83.9713 17.0908C 83.3515 16.3936 83.0416 15.4707 83.0416 14.3223L 83.0416 14.2334ZM 84.3131 14.3838C 84.3131 15.2041 84.5022 15.8626 84.8805 16.3594C 85.2633 16.8561 85.7737 17.1045 86.4117 17.1045C 87.0543 17.1045 87.5647 16.8538 87.943 16.3525C 88.3212 15.8467 88.5104 15.1403 88.5104 14.2334C 88.5104 13.4222 88.3167 12.766 87.9293 12.2646C 87.5465 11.7588 87.0361 11.5059 86.398 11.5059C 85.7737 11.5059 85.2701 11.7542 84.8873 12.251C 84.5045 12.7477 84.3131 13.4587 84.3131 14.3838ZM 94.7611 11.7383C 94.5697 11.7064 94.3624 11.6904 94.1391 11.6904C 93.3096 11.6904 92.7468 12.0436 92.4506 12.75L 92.4506 18L 91.1859 18L 91.1859 10.6035L 92.4164 10.6035L 92.4369 11.458C 92.8516 10.7972 93.4395 10.4668 94.2006 10.4668C 94.4467 10.4668 94.6335 10.4987 94.7611 10.5625L 94.7611 11.7383ZM 95.3107 14.2402C 95.3107 13.1055 95.5796 12.194 96.1174 11.5059C 96.6551 10.8132 97.3592 10.4668 98.2297 10.4668C 99.0956 10.4668 99.7814 10.763 100.287 11.3555L 100.287 7.5L 101.552 7.5L 101.552 18L 100.39 18L 100.328 17.207C 99.8225 17.8268 99.1184 18.1367 98.216 18.1367C 97.3592 18.1367 96.6597 17.7858 96.1174 17.084C 95.5796 16.3822 95.3107 15.4661 95.3107 14.3359L 95.3107 14.2402ZM 96.5754 14.3838C 96.5754 15.2223 96.7486 15.8786 97.0949 16.3525C 97.4413 16.8265 97.9198 17.0635 98.5305 17.0635C 99.3325 17.0635 99.9182 16.7035 100.287 15.9834L 100.287 12.5859C 99.909 11.8887 99.328 11.54 98.5441 11.54C 97.9243 11.54 97.4413 11.7793 97.0949 12.2578C 96.7486 12.7363 96.5754 13.445 96.5754 14.3838Z"/>
<path id="path14_fill" d="M 8.23438 14.8672C 8.23438 16.1536 7.9401 17.1901 7.35156 17.9766C 6.76302 18.763 5.96615 19.1562 4.96094 19.1562C 3.9349 19.1562 3.1276 18.8307 2.53906 18.1797L 2.53906 22.25L 1.09375 22.25L 1.09375 10.5469L 2.41406 10.5469L 2.48438 11.4844C 3.07292 10.7552 3.89062 10.3906 4.9375 10.3906C 5.95312 10.3906 6.75521 10.7734 7.34375 11.5391C 7.9375 12.3047 8.23438 13.3698 8.23438 14.7344L 8.23438 14.8672ZM 6.78906 14.7031C 6.78906 13.75 6.58594 12.9974 6.17969 12.4453C 5.77344 11.8932 5.21615 11.6172 4.50781 11.6172C 3.63281 11.6172 2.97656 12.0052 2.53906 12.7812L 2.53906 16.8203C 2.97135 17.5911 3.63281 17.9766 4.52344 17.9766C 5.21615 17.9766 5.76562 17.7031 6.17188 17.1562C 6.58333 16.6042 6.78906 15.7865 6.78906 14.7031ZM 15.0969 19C 15.0135 18.8333 14.9458 18.5365 14.8938 18.1094C 14.2219 18.8073 13.4198 19.1562 12.4875 19.1562C 11.6542 19.1562 10.9693 18.9219 10.4328 18.4531C 9.90156 17.9792 9.63594 17.3802 9.63594 16.6562C 9.63594 15.776 9.96927 15.0938 10.6359 14.6094C 11.3078 14.1198 12.2505 13.875 13.4641 13.875L 14.8703 13.875L 14.8703 13.2109C 14.8703 12.7057 14.7193 12.3047 14.4172 12.0078C 14.1151 11.7057 13.6698 11.5547 13.0813 11.5547C 12.5656 11.5547 12.1333 11.6849 11.7844 11.9453C 11.4354 12.2057 11.2609 12.5208 11.2609 12.8906L 9.80781 12.8906C 9.80781 12.4688 9.95625 12.0625 10.2531 11.6719C 10.5552 11.276 10.9615 10.9635 11.4719 10.7344C 11.9875 10.5052 12.5526 10.3906 13.1672 10.3906C 14.1411 10.3906 14.9042 10.6354 15.4563 11.125C 16.0083 11.6094 16.2948 12.2786 16.3156 13.1328L 16.3156 17.0234C 16.3156 17.7995 16.4146 18.4167 16.6125 18.875L 16.6125 19L 15.0969 19ZM 12.6984 17.8984C 13.1516 17.8984 13.5813 17.7812 13.9875 17.5469C 14.3938 17.3125 14.688 17.0078 14.8703 16.6328L 14.8703 14.8984L 13.7375 14.8984C 11.9667 14.8984 11.0813 15.4167 11.0813 16.4531C 11.0813 16.9062 11.2323 17.2604 11.5344 17.5156C 11.8365 17.7708 12.2245 17.8984 12.6984 17.8984ZM 23.3031 16.7578C 23.3031 16.3672 23.1547 16.0651 22.8578 15.8516C 22.5661 15.6328 22.0531 15.4453 21.3188 15.2891C 20.5896 15.1328 20.0089 14.9453 19.5766 14.7266C 19.1495 14.5078 18.8318 14.2474 18.6234 13.9453C 18.4203 13.6432 18.3188 13.2839 18.3188 12.8672C 18.3188 12.1745 18.6104 11.5885 19.1938 11.1094C 19.7823 10.6302 20.5323 10.3906 21.4438 10.3906C 22.4021 10.3906 23.1781 10.638 23.7719 11.1328C 24.3708 11.6276 24.6703 12.2604 24.6703 13.0312L 23.2172 13.0312C 23.2172 12.6354 23.0479 12.2943 22.7094 12.0078C 22.376 11.7214 21.9542 11.5781 21.4438 11.5781C 20.9177 11.5781 20.5063 11.6927 20.2094 11.9219C 19.9125 12.151 19.7641 12.4505 19.7641 12.8203C 19.7641 13.1693 19.9021 13.4323 20.1781 13.6094C 20.4542 13.7865 20.9516 13.9557 21.6703 14.1172C 22.3943 14.2786 22.9802 14.4714 23.4281 14.6953C 23.876 14.9193 24.2068 15.1901 24.4203 15.5078C 24.6391 15.8203 24.7484 16.2031 24.7484 16.6562C 24.7484 17.4115 24.4464 18.0182 23.8422 18.4766C 23.238 18.9297 22.4542 19.1562 21.4906 19.1562C 20.8135 19.1562 20.2146 19.0365 19.6938 18.7969C 19.1729 18.5573 18.7641 18.224 18.4672 17.7969C 18.1755 17.3646 18.0297 16.8984 18.0297 16.3984L 19.475 16.3984C 19.501 16.8828 19.6938 17.2682 20.0531 17.5547C 20.4177 17.8359 20.8969 17.9766 21.4906 17.9766C 22.0375 17.9766 22.475 17.8672 22.8031 17.6484C 23.1365 17.4245 23.3031 17.1276 23.3031 16.7578ZM 31.3531 16.7578C 31.3531 16.3672 31.2047 16.0651 30.9078 15.8516C 30.6161 15.6328 30.1031 15.4453 29.3688 15.2891C 28.6396 15.1328 28.0589 14.9453 27.6266 14.7266C 27.1995 14.5078 26.8818 14.2474 26.6734 13.9453C 26.4703 13.6432 26.3688 13.2839 26.3688 12.8672C 26.3688 12.1745 26.6604 11.5885 27.2438 11.1094C 27.8323 10.6302 28.5823 10.3906 29.4938 10.3906C 30.4521 10.3906 31.2281 10.638 31.8219 11.1328C 32.4208 11.6276 32.7203 12.2604 32.7203 13.0312L 31.2672 13.0312C 31.2672 12.6354 31.0979 12.2943 30.7594 12.0078C 30.426 11.7214 30.0042 11.5781 29.4938 11.5781C 28.9677 11.5781 28.5563 11.6927 28.2594 11.9219C 27.9625 12.151 27.8141 12.4505 27.8141 12.8203C 27.8141 13.1693 27.9521 13.4323 28.2281 13.6094C 28.5042 13.7865 29.0016 13.9557 29.7203 14.1172C 30.4443 14.2786 31.0302 14.4714 31.4781 14.6953C 31.926 14.9193 32.2568 15.1901 32.4703 15.5078C 32.6891 15.8203 32.7984 16.2031 32.7984 16.6562C 32.7984 17.4115 32.4964 18.0182 31.8922 18.4766C 31.288 18.9297 30.5042 19.1562 29.5406 19.1562C 28.8635 19.1562 28.2646 19.0365 27.7438 18.7969C 27.2229 18.5573 26.8141 18.224 26.5172 17.7969C 26.2255 17.3646 26.0797 16.8984 26.0797 16.3984L 27.525 16.3984C 27.551 16.8828 27.7438 17.2682 28.1031 17.5547C 28.4677 17.8359 28.9469 17.9766 29.5406 17.9766C 30.0875 17.9766 30.525 17.8672 30.8531 17.6484C 31.1865 17.4245 31.3531 17.1276 31.3531 16.7578ZM 41.6219 14.8672C 41.6219 16.1536 41.3276 17.1901 40.7391 17.9766C 40.1505 18.763 39.3536 19.1562 38.3484 19.1562C 37.3224 19.1562 36.5151 18.8307 35.9266 18.1797L 35.9266 22.25L 34.4813 22.25L 34.4813 10.5469L 35.8016 10.5469L 35.8719 11.4844C 36.4604 10.7552 37.2781 10.3906 38.325 10.3906C 39.3406 10.3906 40.1427 10.7734 40.7313 11.5391C 41.325 12.3047 41.6219 13.3698 41.6219 14.7344L 41.6219 14.8672ZM 40.1766 14.7031C 40.1766 13.75 39.9734 12.9974 39.5672 12.4453C 39.1609 11.8932 38.6036 11.6172 37.8953 11.6172C 37.0203 11.6172 36.3641 12.0052 35.9266 12.7812L 35.9266 16.8203C 36.3589 17.5911 37.0203 17.9766 37.9109 17.9766C 38.6036 17.9766 39.1531 17.7031 39.5594 17.1562C 39.9708 16.6042 40.1766 15.7865 40.1766 14.7031ZM 48.4844 19C 48.401 18.8333 48.3333 18.5365 48.2812 18.1094C 47.6094 18.8073 46.8073 19.1562 45.875 19.1562C 45.0417 19.1562 44.3568 18.9219 43.8203 18.4531C 43.2891 17.9792 43.0234 17.3802 43.0234 16.6562C 43.0234 15.776 43.3568 15.0938 44.0234 14.6094C 44.6953 14.1198 45.638 13.875 46.8516 13.875L 48.2578 13.875L 48.2578 13.2109C 48.2578 12.7057 48.1068 12.3047 47.8047 12.0078C 47.5026 11.7057 47.0573 11.5547 46.4688 11.5547C 45.9531 11.5547 45.5208 11.6849 45.1719 11.9453C 44.8229 12.2057 44.6484 12.5208 44.6484 12.8906L 43.1953 12.8906C 43.1953 12.4688 43.3438 12.0625 43.6406 11.6719C 43.9427 11.276 44.349 10.9635 44.8594 10.7344C 45.375 10.5052 45.9401 10.3906 46.5547 10.3906C 47.5286 10.3906 48.2917 10.6354 48.8438 11.125C 49.3958 11.6094 49.6823 12.2786 49.7031 13.1328L 49.7031 17.0234C 49.7031 17.7995 49.8021 18.4167 50 18.875L 50 19L 48.4844 19ZM 46.0859 17.8984C 46.5391 17.8984 46.9688 17.7812 47.375 17.5469C 47.7812 17.3125 48.0755 17.0078 48.2578 16.6328L 48.2578 14.8984L 47.125 14.8984C 45.3542 14.8984 44.4688 15.4167 44.4688 16.4531C 44.4688 16.9062 44.6198 17.2604 44.9219 17.5156C 45.224 17.7708 45.612 17.8984 46.0859 17.8984ZM 56.6906 16.7578C 56.6906 16.3672 56.5422 16.0651 56.2453 15.8516C 55.9536 15.6328 55.4406 15.4453 54.7063 15.2891C 53.9771 15.1328 53.3964 14.9453 52.9641 14.7266C 52.537 14.5078 52.2193 14.2474 52.0109 13.9453C 51.8078 13.6432 51.7063 13.2839 51.7063 12.8672C 51.7063 12.1745 51.9979 11.5885 52.5813 11.1094C 53.1698 10.6302 53.9198 10.3906 54.8313 10.3906C 55.7896 10.3906 56.5656 10.638 57.1594 11.1328C 57.7583 11.6276 58.0578 12.2604 58.0578 13.0312L 56.6047 13.0312C 56.6047 12.6354 56.4354 12.2943 56.0969 12.0078C 55.7635 11.7214 55.3417 11.5781 54.8313 11.5781C 54.3052 11.5781 53.8938 11.6927 53.5969 11.9219C 53.3 12.151 53.1516 12.4505 53.1516 12.8203C 53.1516 13.1693 53.2896 13.4323 53.5656 13.6094C 53.8417 13.7865 54.3391 13.9557 55.0578 14.1172C 55.7818 14.2786 56.3677 14.4714 56.8156 14.6953C 57.2635 14.9193 57.5943 15.1901 57.8078 15.5078C 58.0266 15.8203 58.1359 16.2031 58.1359 16.6562C 58.1359 17.4115 57.8339 18.0182 57.2297 18.4766C 56.6255 18.9297 55.8417 19.1562 54.8781 19.1562C 54.201 19.1562 53.6021 19.0365 53.0813 18.7969C 52.5604 18.5573 52.1516 18.224 51.8547 17.7969C 51.563 17.3646 51.4172 16.8984 51.4172 16.3984L 52.8625 16.3984C 52.8885 16.8828 53.0813 17.2682 53.4406 17.5547C 53.8052 17.8359 54.2844 17.9766 54.8781 17.9766C 55.425 17.9766 55.8625 17.8672 56.1906 17.6484C 56.524 17.4245 56.6906 17.1276 56.6906 16.7578ZM 64.7406 16.7578C 64.7406 16.3672 64.5922 16.0651 64.2953 15.8516C 64.0036 15.6328 63.4906 15.4453 62.7563 15.2891C 62.0271 15.1328 61.4464 14.9453 61.0141 14.7266C 60.587 14.5078 60.2693 14.2474 60.0609 13.9453C 59.8578 13.6432 59.7563 13.2839 59.7563 12.8672C 59.7563 12.1745 60.0479 11.5885 60.6313 11.1094C 61.2198 10.6302 61.9698 10.3906 62.8813 10.3906C 63.8396 10.3906 64.6156 10.638 65.2094 11.1328C 65.8083 11.6276 66.1078 12.2604 66.1078 13.0312L 64.6547 13.0312C 64.6547 12.6354 64.4854 12.2943 64.1469 12.0078C 63.8135 11.7214 63.3917 11.5781 62.8813 11.5781C 62.3552 11.5781 61.9438 11.6927 61.6469 11.9219C 61.35 12.151 61.2016 12.4505 61.2016 12.8203C 61.2016 13.1693 61.3396 13.4323 61.6156 13.6094C 61.8917 13.7865 62.3891 13.9557 63.1078 14.1172C 63.8318 14.2786 64.4177 14.4714 64.8656 14.6953C 65.3135 14.9193 65.6443 15.1901 65.8578 15.5078C 66.0766 15.8203 66.1859 16.2031 66.1859 16.6562C 66.1859 17.4115 65.8839 18.0182 65.2797 18.4766C 64.6755 18.9297 63.8917 19.1562 62.9281 19.1562C 62.251 19.1562 61.6521 19.0365 61.1313 18.7969C 60.6104 18.5573 60.2016 18.224 59.9047 17.7969C 59.613 17.3646 59.4672 16.8984 59.4672 16.3984L 60.9125 16.3984C 60.9385 16.8828 61.1313 17.2682 61.4906 17.5547C 61.8552 17.8359 62.3344 17.9766 62.9281 17.9766C 63.475 17.9766 63.9125 17.8672 64.2406 17.6484C 64.574 17.4245 64.7406 17.1276 64.7406 16.7578Z"/>
<path id="path15_fill" d="M 6.36328 30.2402L 18.4922 30.2402L 18.4922 33L 2.9707 33L 2.9707 7.40625L 6.36328 7.40625L 6.36328 30.2402ZM 20.9743 23.3145C 20.9743 21.4512 21.3376 19.7754 22.0641 18.2871C 22.8024 16.7988 23.822 15.6504 25.1227 14.8418C 26.4352 14.0332 27.9294 13.6289 29.6052 13.6289C 32.195 13.6289 34.2868 14.5254 35.8806 16.3184C 37.486 18.1113 38.2888 20.4961 38.2888 23.4727L 38.2888 23.7012C 38.2888 25.5527 37.9313 27.2168 37.2165 28.6934C 36.5134 30.1582 35.4997 31.3008 34.1755 32.1211C 32.863 32.9414 31.3513 33.3516 29.6403 33.3516C 27.0622 33.3516 24.9704 32.4551 23.3649 30.6621C 21.7712 28.8691 20.9743 26.4961 20.9743 23.543L 20.9743 23.3145ZM 24.2438 23.7012C 24.2438 25.8105 24.7302 27.5039 25.7028 28.7812C 26.6872 30.0586 27.9997 30.6973 29.6403 30.6973C 31.2927 30.6973 32.6052 30.0527 33.5778 28.7637C 34.5505 27.4629 35.0368 25.6465 35.0368 23.3145C 35.0368 21.2285 34.5388 19.541 33.5427 18.252C 32.5583 16.9512 31.2458 16.3008 29.6052 16.3008C 27.9997 16.3008 26.7048 16.9395 25.7204 18.2168C 24.736 19.4941 24.2438 21.3223 24.2438 23.7012ZM 41.597 23.332C 41.597 20.3672 42.2826 18.0117 43.6537 16.2656C 45.0248 14.5078 46.8412 13.6289 49.1029 13.6289C 51.4232 13.6289 53.2338 14.4492 54.5345 16.0898L 54.6927 13.9805L 57.6634 13.9805L 57.6634 32.543C 57.6634 35.0039 56.931 36.9434 55.4662 38.3613C 54.0131 39.7793 52.056 40.4883 49.5951 40.4883C 48.224 40.4883 46.8822 40.1953 45.5697 39.6094C 44.2572 39.0234 43.2552 38.2207 42.5638 37.2012L 44.2513 35.25C 45.6459 36.9727 47.3509 37.834 49.3666 37.834C 50.9486 37.834 52.1791 37.3887 53.058 36.498C 53.9486 35.6074 54.3939 34.3535 54.3939 32.7363L 54.3939 31.1016C 53.0931 32.6016 51.3177 33.3516 49.0677 33.3516C 46.8412 33.3516 45.0365 32.4551 43.6537 30.6621C 42.2826 28.8691 41.597 26.4258 41.597 23.332ZM 44.8666 23.7012C 44.8666 25.8457 45.306 27.5332 46.1849 28.7637C 47.0638 29.9824 48.2943 30.5918 49.8763 30.5918C 51.9271 30.5918 53.433 29.6602 54.3939 27.7969L 54.3939 19.1133C 53.3978 17.2969 51.9037 16.3887 49.9115 16.3887C 48.3295 16.3887 47.0931 17.0039 46.2025 18.2344C 45.3119 19.4648 44.8666 21.2871 44.8666 23.7012ZM 66.1221 33L 62.8702 33L 62.8702 13.9805L 66.1221 13.9805L 66.1221 33ZM 62.6065 8.93555C 62.6065 8.4082 62.7647 7.96289 63.0811 7.59961C 63.4092 7.23633 63.8897 7.05469 64.5225 7.05469C 65.1553 7.05469 65.6358 7.23633 65.9639 7.59961C 66.292 7.96289 66.4561 8.4082 66.4561 8.93555C 66.4561 9.46289 66.292 9.90234 65.9639 10.2539C 65.6358 10.6055 65.1553 10.7812 64.5225 10.7812C 63.8897 10.7812 63.4092 10.6055 63.0811 10.2539C 62.7647 9.90234 62.6065 9.46289 62.6065 8.93555ZM 74.4226 13.9805L 74.5281 16.3711C 75.9812 14.543 77.8796 13.6289 80.2234 13.6289C 84.2429 13.6289 86.2703 15.8965 86.3054 20.4316L 86.3054 33L 83.0535 33L 83.0535 20.4141C 83.0417 19.043 82.7253 18.0293 82.1042 17.373C 81.4949 16.7168 80.5398 16.3887 79.239 16.3887C 78.1843 16.3887 77.2585 16.6699 76.4617 17.2324C 75.6648 17.7949 75.0437 18.5332 74.5984 19.4473L 74.5984 33L 71.3464 33L 71.3464 13.9805L 74.4226 13.9805Z"/>
<path id="path16_fill" fill-rule="evenodd" d="M 0 6C 0 2.68629 2.68629 0 6 0L 54 0C 57.3137 0 60 2.68629 60 6L 60 42C 60 45.3137 57.3137 48 54 48L 6 48C 2.68629 48 0 45.3137 0 42L 0 6Z"/>
<path id="path17_fill" fill-rule="evenodd" d="M 19.6634 10.2558C 19.6394 10.2036 19.6172 10.1608 19.5963 10.126C 19.2533 9.50437 18.5975 8.74105 17.6303 7.83623L 17.6101 7.81508L 17.5995 7.80507L 17.5891 7.79457L 17.5792 7.79457C 17.14 7.37293 16.8618 7.08961 16.7452 6.94492C 16.5324 6.6686 16.4844 6.38845 16.6009 6.10529C 16.6835 5.89097 16.9919 5.43896 17.5274 4.74766C 17.8086 4.38182 18.0319 4.08801 18.196 3.86701C 19.3834 2.27773 19.8979 1.26225 19.74 0.820093L 19.6789 0.716908C 19.6375 0.654901 19.5316 0.597664 19.3601 0.546151C 19.1886 0.494002 18.9689 0.485257 18.7013 0.520076L 15.7367 0.540586C 15.6891 0.523892 15.6201 0.525005 15.5312 0.546151C 15.4419 0.566661 15.3969 0.577154 15.3969 0.577154L 15.3457 0.603388L 15.3049 0.634391C 15.2704 0.654901 15.2328 0.690833 15.1914 0.742983C 15.1507 0.794655 15.1162 0.855389 15.0891 0.924392C 14.7658 1.76037 14.3995 2.53736 13.9873 3.25584C 13.7333 3.68433 13.5 4.05573 13.2873 4.37006C 13.0745 4.68422 12.8962 4.91603 12.7525 5.06437C 12.6082 5.21287 12.478 5.33211 12.3613 5.42147C 12.2442 5.51161 12.1554 5.54946 12.0937 5.53578C 12.0319 5.52147 11.9734 5.5078 11.9186 5.49413C 11.8222 5.43212 11.7452 5.34754 11.6872 5.24022C 11.6286 5.13337 11.5892 4.99855 11.5688 4.8359C 11.5484 4.67373 11.5361 4.53398 11.5323 4.41664C 11.5293 4.2993 11.5311 4.13284 11.5378 3.91916C 11.5446 3.70484 11.5484 3.55952 11.5484 3.48384C 11.5484 3.22102 11.5533 2.93595 11.5633 2.62862C 11.5737 2.32113 11.5824 2.07772 11.5892 1.89821C 11.596 1.71871 11.5996 1.52872 11.5996 1.32807C 11.5996 1.12806 11.5873 0.970976 11.5633 0.856661C 11.5397 0.742983 11.5034 0.632483 11.4553 0.525005C 11.4071 0.418163 11.3368 0.33501 11.2443 0.27666C 11.1518 0.217675 11.0371 0.17109 10.9 0.136271C 10.5362 0.0535953 10.0729 0.00891866 9.51044 0.00144606C 8.23421 -0.0122272 7.41435 0.0710844 7.05036 0.250586C 6.90603 0.326266 6.77592 0.430087 6.65938 0.561096C 6.53605 0.713251 6.51868 0.796404 6.60758 0.810077C 7.01957 0.872243 7.31076 1.02074 7.48288 1.25541L 7.54446 1.38022C 7.59263 1.46973 7.64079 1.62872 7.68832 1.85656C 7.73632 2.08455 7.76727 2.33671 7.7807 2.61304C 7.81528 3.11736 7.81528 3.54902 7.7807 3.90866C 7.7469 4.26751 7.71422 4.54765 7.68327 4.74766C 7.65247 4.94831 7.60621 5.11032 7.54446 5.23513C 7.48288 5.35946 7.44151 5.43514 7.4205 5.46312C 7.40013 5.49047 7.38292 5.5078 7.36934 5.51464C 7.27996 5.54946 7.18743 5.56678 7.0911 5.56678C 6.99557 5.56678 6.87887 5.51845 6.74133 5.42147C 6.60442 5.32464 6.46199 5.19172 6.3145 5.02208C 6.16717 4.85323 6.00058 4.61665 5.81488 4.31234C 5.62981 4.00851 5.4381 3.64967 5.23882 3.2347L 5.07412 2.9342C 4.971 2.74103 4.83047 2.45961 4.65218 2.08948C 4.4739 1.71999 4.31599 1.36289 4.17909 1.01692C 4.12413 0.872243 4.04155 0.761743 3.93164 0.685269L 3.88048 0.654265C 3.8459 0.626919 3.7911 0.597664 3.71578 0.566025C 3.63998 0.535022 3.56166 0.512604 3.47891 0.498931L 0.6588 0.51944C 0.370773 0.51944 0.175122 0.585263 0.0721648 0.716272L 0.0307924 0.778438C 0.0104221 0.813257 0 0.868427 0 0.944266C 0 1.02074 0.0203704 1.11375 0.0617428 1.22441C 0.47373 2.19823 0.920931 3.13787 1.40508 4.04269C 1.88876 4.94831 2.3088 5.67681 2.66536 6.22946C 3.02255 6.78228 3.38575 7.30393 3.75652 7.79394C 4.12729 8.28459 4.37268 8.59891 4.49238 8.73739C 4.61271 8.87587 4.70714 8.9789 4.77551 9.0479L 5.03275 9.29688C 5.19745 9.46271 5.43921 9.66145 5.75882 9.89247C 6.07764 10.1241 6.4312 10.3521 6.81855 10.5769C 7.20654 10.8011 7.65737 10.9843 8.17247 11.1259C 8.68694 11.2676 9.18783 11.3247 9.67514 11.2967L 10.8588 11.2967C 11.0987 11.2762 11.2808 11.1999 11.4041 11.0688L 11.4448 11.0173C 11.4725 10.9757 11.4984 10.9116 11.5219 10.8253C 11.5459 10.7391 11.5582 10.644 11.5582 10.5404C 11.5514 10.2434 11.5737 9.97578 11.6249 9.73729C 11.676 9.49944 11.7346 9.31994 11.8001 9.19879C 11.8655 9.07763 11.9388 8.97588 12.0215 8.89321C 12.1035 8.81005 12.1622 8.76029 12.1966 8.74296C 12.2306 8.72547 12.2578 8.7137 12.2788 8.70623C 12.4435 8.65106 12.6371 8.70512 12.8603 8.86713C 13.0832 9.02994 13.2922 9.22979 13.4884 9.46828C 13.6838 9.70677 13.919 9.97451 14.1928 10.2713C 14.4679 10.5682 14.7079 10.7893 14.9132 10.9347L 15.1192 11.0588C 15.2568 11.1421 15.4351 11.2178 15.6547 11.2868C 15.8742 11.3563 16.0661 11.3738 16.2308 11.339L 18.866 11.2973C 19.1262 11.2973 19.3291 11.2539 19.4728 11.1676C 19.6172 11.0812 19.7024 10.9862 19.7301 10.8831C 19.7578 10.7793 19.7591 10.662 19.7356 10.5303C 19.711 10.3993 19.6869 10.3074 19.6634 10.2558Z"/>
<path id="path18_fill" fill-rule="evenodd" d="M 17.9504 1.73293C 17.662 1.86057 17.3654 1.96861 17.0623 2.05617C 17.421 1.65085 17.6947 1.17395 17.8616 0.652309C 17.8993 0.535247 17.8605 0.407314 17.7641 0.330776C 17.6678 0.254239 17.5344 0.244995 17.4285 0.30763C 16.7846 0.688988 16.0903 0.962824 15.3621 1.12315C 14.6284 0.407314 13.6321 0 12.6023 0C 10.4283 0 8.6595 1.76614 8.6595 3.93693C 8.6595 4.10797 8.67016 4.27784 8.69157 4.44563C 5.99396 4.20906 3.48573 2.88492 1.76333 0.775361C 1.70194 0.700229 1.60736 0.659778 1.51072 0.667617C 1.41385 0.675086 1.32675 0.729661 1.27788 0.813445C 0.928391 1.41199 0.743835 2.09632 0.743835 2.79308C 0.743835 3.7417 1.08288 4.64152 1.68231 5.34493C 1.50005 5.28192 1.32327 5.20309 1.15434 5.10977C 1.06377 5.05919 0.953274 5.06007 0.863293 5.11147C 0.773311 5.16323 0.716952 5.25796 0.71436 5.36134C 0.714063 5.37894 0.714063 5.39632 0.714063 5.41392C 0.714063 6.82998 1.47717 8.10502 2.64419 8.7997C 2.54384 8.78965 2.44371 8.77515 2.34418 8.75607C 2.24153 8.73677 2.13592 8.77256 2.06675 8.85088C 1.99736 8.92882 1.97448 9.03775 2.00662 9.13714C 2.43853 10.4835 3.55031 11.474 4.89463 11.7759C 3.77967 12.4732 2.50474 12.8384 1.16619 12.8384C 0.886769 12.8384 0.606159 12.8222 0.33103 12.7895C 0.194464 12.7734 0.0639722 12.854 0.017389 12.9836C -0.0291942 13.1133 0.0202773 13.2578 0.136328 13.3323C 1.85591 14.4332 3.84417 15.0149 5.88628 15.0149C 9.90058 15.0149 12.4116 13.1249 13.8112 11.5393C 15.5568 9.56205 16.5578 6.9449 16.5578 4.35925C 16.5578 4.25121 16.5561 4.14206 16.5529 4.03343C 17.2414 3.51519 17.8344 2.8884 18.3167 2.16768C 18.3901 2.05816 18.3821 1.91374 18.2973 1.81295C 18.2125 1.71215 18.0711 1.67947 17.9504 1.73293Z"/>
<path id="path19_fill" fill-rule="evenodd" d="M 9.75395 10.729L 14.0974 10.729C 13.335 12.8845 11.2701 14.43 8.85267 14.4121C 5.91945 14.3905 3.49407 12.044 3.3802 9.11287C 3.25814 5.97095 5.77882 3.37595 8.89411 3.37595C 10.3185 3.37595 11.6184 3.91869 12.5984 4.80801C 12.8305 5.01871 13.1838 5.02005 13.4121 4.80516L 15.0074 3.3037C 15.2569 3.06885 15.2578 2.67227 15.009 2.43663C 13.4549 0.96429 11.3701 0.0465692 9.07114 0.00167506C 4.16761 -0.0940586 0.0343772 3.92633 0.000221251 8.83071C -0.034238 13.7719 3.96091 17.7882 8.89411 17.7882C 13.6383 17.7882 17.5138 14.0736 17.7734 9.39437C 17.7803 9.33571 17.7849 7.35302 17.7849 7.35302L 9.75395 7.35302C 9.42477 7.35302 9.15795 7.61984 9.15795 7.94902L 9.15795 10.133C 9.15795 10.4622 9.42483 10.729 9.75395 10.729Z"/>
<path id="path20_fill" fill-rule="evenodd" d="M 9.11101 0.00351114L 6.84009 0C 4.28909 0 2.64003 1.73895 2.64003 4.42989L 2.64003 6.47268L 0.356589 6.47268C 0.160078 6.47268 0 6.6363 0 6.83924L 0 9.79914C 0 10.0011 0.160078 10.1657 0.356589 10.1657L 2.64003 10.1657L 2.64003 17.6334C 2.64003 17.8354 2.80011 18 2.99753 18L 5.97548 18C 6.17291 18 6.33298 17.8354 6.33298 17.6334L 6.33298 10.1657L 9.00239 10.1657C 9.19981 10.1657 9.35921 10.0011 9.35921 9.79914L 9.3608 6.83924C 9.3608 6.74233 9.32255 6.64917 9.25583 6.57965C 9.18911 6.51107 9.09848 6.47268 9.0033 6.47268L 6.33298 6.47268L 6.33298 4.74098C 6.33298 3.90884 6.52608 3.48633 7.58013 3.48633L 9.1101 3.4854C 9.30752 3.4854 9.46669 3.32084 9.46669 3.11883L 9.46669 0.371245C 9.46669 0.168067 9.30752 0.00444745 9.11101 0.00351114Z"/>
<path id="path21_fill" fill-rule="evenodd" d="M 0 0L 286 0L 286 1L 0 1L 0 0Z"/>
</defs>
</svg>
