<svg width="700" height="812" viewBox="0 0 700 812" version="1.1" xmlns="http://www.w3.org/2000/svg" xmlns:xlink="http://www.w3.org/1999/xlink">
<title>sign up</title>
<desc>Created using Figma</desc>
<g id="Canvas" transform="matrix(2 0 0 2 -6804 -21660)">
<g id="sign up">
<g id="Rectangle 6">
<use xlink:href="#path0_fill" transform="translate(3402 10830.3)" fill="#FFFFFF"/>
</g>
<g id="Group 19">
<g id="Base_buttons">
<mask id="mask0_outline_ins">
<use xlink:href="#path1_fill" fill="white" transform="translate(3587 11108)"/>
</mask>
<g mask="url(#mask0_outline_ins)">
<use xlink:href="#path2_stroke_2x" transform="translate(3587 11108)" fill="url(#paint1_linear)"/>
</g>
</g>
<g id="Login">
<use xlink:href="#path3_fill" transform="translate(3635 11121)" fill="#3F83E7"/>
</g>
</g>
<g id="Group 23">
<g id="Rectangle 8" filter="url(#filter0_d)">
<use xlink:href="#path4_fill" transform="translate(3431 11108)" fill="url(#paint3_linear)"/>
</g>
<g id="Sign up">
<use xlink:href="#path5_fill" transform="translate(3462.5 11123)" fill="#FFFFFF"/>
</g>
</g>
<g id="Group 26">
<g id="input field copy 18">
<use xlink:href="#path6_fill" transform="translate(3431 10944)" fill="#FFFFFF"/>
<mask id="mask1_outline_ins">
<use xlink:href="#path6_fill" fill="white" transform="translate(3431 10944)"/>
</mask>
<g mask="url(#mask1_outline_ins)">
<use xlink:href="#path7_stroke_2x" transform="translate(3431 10944)" fill="#E0E6ED"/>
</g>
</g>
<g id="Name">
<use xlink:href="#path8_fill" transform="translate(3430 10915)" fill="#20354F"/>
</g>
<g id="johnsnow@gmail.com" opacity="0.5">
<use xlink:href="#path9_fill" transform="translate(3442 10953)" fill="#818FA4"/>
</g>
</g>
<g id="Group 25">
<g id="input field copy 19">
<use xlink:href="#path6_fill" transform="translate(3431 11040)" fill="#FFFFFF"/>
<mask id="mask2_outline_ins">
<use xlink:href="#path6_fill" fill="white" transform="translate(3431 11040)"/>
</mask>
<g mask="url(#mask2_outline_ins)">
<use xlink:href="#path7_stroke_2x" transform="translate(3431 11040)" fill="#E0E6ED"/>
</g>
</g>
<g id="Email">
<use xlink:href="#path10_fill" transform="translate(3430 11011)" fill="#20354F"/>
</g>
<g id="name@example.com" opacity="0.5">
<use xlink:href="#path11_fill" transform="translate(3442 11050)" fill="#818FA4"/>
</g>
</g>
<g id="Sign up">
<use xlink:href="#path12_fill" transform="translate(3428 10864)" fill="url(#paint13_linear)"/>
</g>
</g>
</g>
<defs>
<filter id="filter0_d" filterUnits="userSpaceOnUse" x="3421" y="11102" width="145" height="68" color-interpolation-filters="sRGB">
<feFlood flood-opacity="0" result="BackgroundImageFix"/>
<feColorMatrix in="SourceAlpha" type="matrix" values="0 0 0 0 0 0 0 0 0 0 0 0 0 0 0 0 0 0 255 0"/>
<feOffset dx="0" dy="4"/>
<feGaussianBlur stdDeviation="5"/>
<feColorMatrix type="matrix" values="0 0 0 0 0.309804 0 0 0 0 0.682353 0 0 0 0 0.937255 0 0 0 0.25 0"/>
<feBlend mode="normal" in2="BackgroundImageFix" result="effect1_dropShadow"/>
<feBlend mode="normal" in="SourceGraphic" in2="effect1_dropShadow" result="shape"/>
</filter>
<linearGradient id="paint1_linear" x1="0" y1="0" x2="1" y2="0" gradientUnits="userSpaceOnUse" gradientTransform="matrix(-20.0116 56.7389 -153.668 -7.38888 85.0116 -8.73886)">
<stop offset="0" stop-color="#0FE4B7"/>
<stop offset="1" stop-color="#2399F5"/>
</linearGradient>
<linearGradient id="paint3_linear" x1="0" y1="0" x2="1" y2="0" gradientUnits="userSpaceOnUse" gradientTransform="matrix(0.734391 176.432 -459.459 0.282006 61.7656 -128.432)">
<stop offset="0" stop-color="#0EE9B3"/>
<stop offset="1" stop-color="#2399F5"/>
</linearGradient>
<linearGradient id="paint13_linear" x1="0" y1="0" x2="1" y2="0" gradientUnits="userSpaceOnUse" gradientTransform="matrix(1.34299 46.0146 -128.413 0.481238 58.657 -3.0146)">
<stop offset="0" stop-color="#73B9F5"/>
<stop offset="1" stop-color="#3F83E7"/>
</linearGradient>
<path id="path0_fill" fill-rule="evenodd" d="M 325.104 5.71875L 319.385 0L 313.666 5.71875L 6 5.71875C 2.68628 5.71875 0 8.40527 0 11.7188L 0 399.719C 0 403.032 2.68628 405.719 6 405.719L 344 405.719C 347.314 405.719 350 403.032 350 399.719L 350 11.7188C 350 8.40527 347.314 5.71875 344 5.71875L 325.104 5.71875Z"/>
<path id="path1_fill" fill-rule="evenodd" d="M 0 6C 0 2.68629 2.68629 0 6 0L 124 0C 127.314 0 130 2.68629 130 6L 130 42C 130 45.3137 127.314 48 124 48L 6 48C 2.68629 48 0 45.3137 0 42L 0 6Z"/>
<path id="path2_stroke_2x" d="M 6 1L 124 1L 124 -1L 6 -1L 6 1ZM 129 6L 129 42L 131 42L 131 6L 129 6ZM 124 47L 6 47L 6 49L 124 49L 124 47ZM 1 42L 1 6L -1 6L -1 42L 1 42ZM 6 -1C 2.13401 -1 -1 2.13401 -1 6L 1 6C 1 3.23858 3.23858 1 6 1L 6 -1ZM 124 1C 126.761 1 129 3.23858 129 6L 131 6C 131 2.13401 127.866 -1 124 -1L 124 1ZM 129 42C 129 44.7614 126.761 47 124 47L 124 49C 127.866 49 131 45.866 131 42L 129 42ZM 6 47C 3.23858 47 1 44.7614 1 42L -1 42C -1 45.866 2.13401 49 6 49L 6 47Z"/>
<path id="path3_fill" d="M 2.7457 12.9268L 7.4625 12.9268L 7.4625 14L 1.42637 14L 1.42637 4.04688L 2.7457 4.04688L 2.7457 12.9268ZM 8.61637 10.2334C 8.61637 9.50879 8.75764 8.8571 9.04019 8.27832C 9.3273 7.69954 9.72379 7.25293 10.2296 6.93848C 10.7401 6.62402 11.3211 6.4668 11.9728 6.4668C 12.98 6.4668 13.7935 6.81543 14.4132 7.5127C 15.0376 8.20996 15.3498 9.13737 15.3498 10.2949L 15.3498 10.3838C 15.3498 11.1038 15.2108 11.751 14.9328 12.3252C 14.6593 12.8949 14.2651 13.3392 13.7502 13.6582C 13.2397 13.9772 12.6518 14.1367 11.9865 14.1367C 10.9839 14.1367 10.1704 13.7881 9.54605 13.0908C 8.92626 12.3936 8.61637 11.4707 8.61637 10.3223L 8.61637 10.2334ZM 9.88785 10.3838C 9.88785 11.2041 10.077 11.8626 10.4552 12.3594C 10.838 12.8561 11.3485 13.1045 11.9865 13.1045C 12.6291 13.1045 13.1395 12.8538 13.5177 12.3525C 13.896 11.8467 14.0851 11.1403 14.0851 10.2334C 14.0851 9.4222 13.8914 8.76595 13.5041 8.26465C 13.1212 7.75879 12.6108 7.50586 11.9728 7.50586C 11.3485 7.50586 10.8449 7.75423 10.4621 8.25098C 10.0793 8.74772 9.88785 9.45866 9.88785 10.3838ZM 16.8249 10.2402C 16.8249 9.08724 17.0915 8.17122 17.6247 7.49219C 18.1579 6.80859 18.8643 6.4668 19.7439 6.4668C 20.6462 6.4668 21.3503 6.78581 21.8562 7.42383L 21.9177 6.60352L 23.073 6.60352L 23.073 13.8223C 23.073 14.7793 22.7881 15.5335 22.2185 16.085C 21.6534 16.6364 20.8923 16.9121 19.9353 16.9121C 19.4021 16.9121 18.8803 16.7982 18.3698 16.5703C 17.8594 16.3424 17.4698 16.0303 17.2009 15.6338L 17.8571 14.875C 18.3995 15.5449 19.0626 15.8799 19.8464 15.8799C 20.4616 15.8799 20.9402 15.7067 21.282 15.3604C 21.6283 15.014 21.8015 14.5264 21.8015 13.8975L 21.8015 13.2617C 21.2956 13.8451 20.6052 14.1367 19.7302 14.1367C 18.8643 14.1367 18.1625 13.7881 17.6247 13.0908C 17.0915 12.3936 16.8249 11.4434 16.8249 10.2402ZM 18.0964 10.3838C 18.0964 11.2178 18.2673 11.874 18.6091 12.3525C 18.9509 12.8265 19.4294 13.0635 20.0446 13.0635C 20.8422 13.0635 21.4278 12.7012 21.8015 11.9766L 21.8015 8.59961C 21.4141 7.89323 20.8331 7.54004 20.0583 7.54004C 19.4431 7.54004 18.9623 7.7793 18.6159 8.25781C 18.2696 8.73633 18.0964 9.44499 18.0964 10.3838ZM 26.5511 14L 25.2864 14L 25.2864 6.60352L 26.5511 6.60352L 26.5511 14ZM 25.1839 4.6416C 25.1839 4.43652 25.2454 4.26335 25.3684 4.12207C 25.496 3.98079 25.6829 3.91016 25.929 3.91016C 26.1751 3.91016 26.3619 3.98079 26.4895 4.12207C 26.6171 4.26335 26.6809 4.43652 26.6809 4.6416C 26.6809 4.84668 26.6171 5.01758 26.4895 5.1543C 26.3619 5.29102 26.1751 5.35938 25.929 5.35938C 25.6829 5.35938 25.496 5.29102 25.3684 5.1543C 25.2454 5.01758 25.1839 4.84668 25.1839 4.6416ZM 29.9676 6.60352L 30.0086 7.5332C 30.5737 6.82227 31.312 6.4668 32.2235 6.4668C 33.7866 6.4668 34.575 7.34863 34.5887 9.1123L 34.5887 14L 33.3241 14L 33.3241 9.10547C 33.3195 8.57227 33.1965 8.17806 32.9549 7.92285C 32.7179 7.66764 32.3465 7.54004 31.8407 7.54004C 31.4305 7.54004 31.0705 7.64941 30.7606 7.86816C 30.4507 8.08691 30.2092 8.37402 30.036 8.72949L 30.036 14L 28.7713 14L 28.7713 6.60352L 29.9676 6.60352Z"/>
<path id="path4_fill" fill-rule="evenodd" d="M 0 6C 0 2.68629 2.68629 0 6 0L 119 0C 122.314 0 125 2.68629 125 6L 125 42C 125 45.3137 122.314 48 119 48L 6 48C 2.68629 48 0 45.3137 0 42L 0 6Z"/>
<path id="path5_fill" d="M 4.42129 7.56348C 3.29564 7.23991 2.47533 6.84342 1.96035 6.37402C 1.44994 5.90007 1.19473 5.31673 1.19473 4.62402C 1.19473 3.84017 1.5069 3.19303 2.13125 2.68262C 2.76016 2.16764 3.57591 1.91016 4.57852 1.91016C 5.26211 1.91016 5.87051 2.04232 6.40371 2.30664C 6.94147 2.57096 7.35619 2.93555 7.64785 3.40039C 7.94408 3.86523 8.09219 4.37337 8.09219 4.9248L 6.77285 4.9248C 6.77285 4.32324 6.58145 3.85156 6.19863 3.50977C 5.81582 3.16341 5.27578 2.99023 4.57852 2.99023C 3.93138 2.99023 3.42552 3.13379 3.06094 3.4209C 2.70091 3.70345 2.5209 4.09766 2.5209 4.60352C 2.5209 5.00911 2.6918 5.35319 3.03359 5.63574C 3.37995 5.91374 3.96556 6.16895 4.79043 6.40137C 5.61986 6.63379 6.26699 6.89128 6.73184 7.17383C 7.20124 7.45182 7.54759 7.77767 7.7709 8.15137C 7.99876 8.52507 8.1127 8.96484 8.1127 9.4707C 8.1127 10.2773 7.79824 10.9245 7.16934 11.4121C 6.54043 11.8952 5.69961 12.1367 4.64688 12.1367C 3.96328 12.1367 3.32526 12.0068 2.73281 11.7471C 2.14037 11.4827 1.68236 11.1227 1.35879 10.667C 1.03978 10.2113 0.880274 9.69401 0.880274 9.11523L 2.19961 9.11523C 2.19961 9.7168 2.42064 10.193 2.8627 10.5439C 3.30931 10.8903 3.90404 11.0635 4.64688 11.0635C 5.33958 11.0635 5.87051 10.9222 6.23965 10.6396C 6.60879 10.3571 6.79336 9.97201 6.79336 9.48438C 6.79336 8.99674 6.62246 8.62077 6.28066 8.35645C 5.93887 8.08757 5.31908 7.82324 4.42129 7.56348ZM 12.1094 12L 10.7969 12L 10.7969 2.04688L 12.1094 2.04688L 12.1094 12ZM 22.7643 10.6943C 22.427 11.1774 21.9553 11.5397 21.3492 11.7812C 20.7477 12.0182 20.0458 12.1367 19.2437 12.1367C 18.4326 12.1367 17.7125 11.9476 17.0836 11.5693C 16.4547 11.1865 15.9671 10.6442 15.6207 9.94238C 15.2789 9.24056 15.1035 8.42708 15.0943 7.50195L 15.0943 6.63379C 15.0943 5.13444 15.443 3.97233 16.1402 3.14746C 16.8421 2.32259 17.8264 1.91016 19.0934 1.91016C 20.1324 1.91016 20.9687 2.17676 21.6021 2.70996C 22.2356 3.23861 22.623 3.99056 22.7643 4.96582L 21.4518 4.96582C 21.2057 3.64876 20.4218 2.99023 19.1002 2.99023C 18.2206 2.99023 17.553 3.30013 17.0973 3.91992C 16.6461 4.53516 16.4182 5.42839 16.4137 6.59961L 16.4137 7.41309C 16.4137 8.52962 16.6689 9.41829 17.1793 10.0791C 17.6897 10.7354 18.3801 11.0635 19.2506 11.0635C 19.7428 11.0635 20.1734 11.0088 20.5426 10.8994C 20.9117 10.79 21.2171 10.6055 21.4586 10.3457L 21.4586 8.11035L 19.1549 8.11035L 19.1549 7.04395L 22.7643 7.04395L 22.7643 10.6943ZM 33.508 12L 32.1887 12L 27.1779 4.33008L 27.1779 12L 25.8586 12L 25.8586 2.04688L 27.1779 2.04688L 32.2023 9.75098L 32.2023 2.04688L 33.508 2.04688L 33.508 12ZM 48.1186 2.04688L 48.1186 8.81445C 48.114 9.75326 47.8178 10.5212 47.2299 11.1182C 46.6465 11.7152 45.8536 12.0501 44.851 12.123L 44.5023 12.1367C 43.4131 12.1367 42.545 11.8428 41.8979 11.2549C 41.2507 10.667 40.9226 9.85807 40.9135 8.82812L 40.9135 2.04688L 42.2123 2.04688L 42.2123 8.78711C 42.2123 9.50716 42.4105 10.0677 42.807 10.4688C 43.2035 10.8652 43.7686 11.0635 44.5023 11.0635C 45.2452 11.0635 45.8126 10.8652 46.2045 10.4688C 46.601 10.0723 46.7992 9.514 46.7992 8.79395L 46.7992 2.04688L 48.1186 2.04688ZM 52.4023 8.10352L 52.4023 12L 51.0898 12L 51.0898 2.04688L 54.7607 2.04688C 55.8499 2.04688 56.7021 2.32487 57.3174 2.88086C 57.9372 3.43685 58.2471 4.17285 58.2471 5.08887C 58.2471 6.05501 57.944 6.80013 57.3379 7.32422C 56.7363 7.84375 55.8727 8.10352 54.7471 8.10352L 52.4023 8.10352ZM 52.4023 7.03027L 54.7607 7.03027C 55.4626 7.03027 56.0003 6.86621 56.374 6.53809C 56.7477 6.2054 56.9346 5.72689 56.9346 5.10254C 56.9346 4.51009 56.7477 4.03613 56.374 3.68066C 56.0003 3.3252 55.4876 3.14062 54.8359 3.12695L 52.4023 3.12695L 52.4023 7.03027Z"/>
<path id="path6_fill" fill-rule="evenodd" d="M 0 4C 0 1.79086 1.79086 0 4 0L 283.243 0C 285.452 0 287.243 1.79086 287.243 4L 287.243 44C 287.243 46.2091 285.452 48 283.243 48L 4 48C 1.79086 48 0 46.2091 0 44L 0 4Z"/>
<path id="path7_stroke_2x" d="M 4 1L 283.243 1L 283.243 -1L 4 -1L 4 1ZM 286.243 4L 286.243 44L 288.243 44L 288.243 4L 286.243 4ZM 283.243 47L 4 47L 4 49L 283.243 49L 283.243 47ZM 1 44L 1 4L -1 4L -1 44L 1 44ZM 4 -1C 1.23858 -1 -1 1.23858 -1 4L 1 4C 1 2.34315 2.34315 1 4 1L 4 -1ZM 283.243 1C 284.9 1 286.243 2.34315 286.243 4L 288.243 4C 288.243 1.23858 286.005 -1 283.243 -1L 283.243 1ZM 286.243 44C 286.243 45.6569 284.9 47 283.243 47L 283.243 49C 286.005 49 288.243 46.7614 288.243 44L 286.243 44ZM 4 47C 2.34315 47 1 45.6569 1 44L -1 44C -1 46.7614 1.23858 49 4 49L 4 47Z"/>
<path id="path8_fill" d="M 10.0625 19L 8.55469 19L 2.82812 10.2344L 2.82812 19L 1.32031 19L 1.32031 7.625L 2.82812 7.625L 8.57031 16.4297L 8.57031 7.625L 10.0625 7.625L 10.0625 19ZM 17.5188 19C 17.4354 18.8333 17.3677 18.5365 17.3156 18.1094C 16.6438 18.8073 15.8417 19.1562 14.9094 19.1562C 14.076 19.1562 13.3911 18.9219 12.8547 18.4531C 12.3234 17.9792 12.0578 17.3802 12.0578 16.6562C 12.0578 15.776 12.3911 15.0938 13.0578 14.6094C 13.7297 14.1198 14.6724 13.875 15.8859 13.875L 17.2922 13.875L 17.2922 13.2109C 17.2922 12.7057 17.1411 12.3047 16.8391 12.0078C 16.537 11.7057 16.0917 11.5547 15.5031 11.5547C 14.9875 11.5547 14.5552 11.6849 14.2063 11.9453C 13.8573 12.2057 13.6828 12.5208 13.6828 12.8906L 12.2297 12.8906C 12.2297 12.4688 12.3781 12.0625 12.675 11.6719C 12.9771 11.276 13.3833 10.9635 13.8938 10.7344C 14.4094 10.5052 14.9745 10.3906 15.5891 10.3906C 16.563 10.3906 17.326 10.6354 17.8781 11.125C 18.4302 11.6094 18.7167 12.2786 18.7375 13.1328L 18.7375 17.0234C 18.7375 17.7995 18.8365 18.4167 19.0344 18.875L 19.0344 19L 17.5188 19ZM 15.1203 17.8984C 15.5734 17.8984 16.0031 17.7812 16.4094 17.5469C 16.8156 17.3125 17.1099 17.0078 17.2922 16.6328L 17.2922 14.8984L 16.1594 14.8984C 14.3885 14.8984 13.5031 15.4167 13.5031 16.4531C 13.5031 16.9062 13.6542 17.2604 13.9563 17.5156C 14.2583 17.7708 14.6464 17.8984 15.1203 17.8984ZM 22.1625 10.5469L 22.2016 11.4844C 22.8214 10.7552 23.6573 10.3906 24.7094 10.3906C 25.8917 10.3906 26.6964 10.8438 27.1234 11.75C 27.4047 11.3438 27.7693 11.0156 28.2172 10.7656C 28.6703 10.5156 29.2042 10.3906 29.8188 10.3906C 31.6729 10.3906 32.6156 11.3724 32.6469 13.3359L 32.6469 19L 31.2016 19L 31.2016 13.4219C 31.2016 12.8177 31.0635 12.3672 30.7875 12.0703C 30.5115 11.7682 30.0479 11.6172 29.3969 11.6172C 28.8604 11.6172 28.4151 11.7786 28.0609 12.1016C 27.7068 12.4193 27.501 12.849 27.4438 13.3906L 27.4438 19L 25.9906 19L 25.9906 13.4609C 25.9906 12.2318 25.3891 11.6172 24.1859 11.6172C 23.238 11.6172 22.5896 12.0208 22.2406 12.8281L 22.2406 19L 20.7953 19L 20.7953 10.5469L 22.1625 10.5469ZM 38.1422 19.1562C 36.9964 19.1562 36.0641 18.7812 35.3453 18.0312C 34.6266 17.276 34.2672 16.2682 34.2672 15.0078L 34.2672 14.7422C 34.2672 13.9036 34.426 13.1562 34.7438 12.5C 35.0667 11.8385 35.5146 11.3229 36.0875 10.9531C 36.6656 10.5781 37.2906 10.3906 37.9625 10.3906C 39.0615 10.3906 39.9156 10.7526 40.525 11.4766C 41.1344 12.2005 41.4391 13.237 41.4391 14.5859L 41.4391 15.1875L 35.7125 15.1875C 35.7333 16.0208 35.9755 16.6953 36.4391 17.2109C 36.9078 17.7214 37.5016 17.9766 38.2203 17.9766C 38.7307 17.9766 39.163 17.8724 39.5172 17.6641C 39.8714 17.4557 40.1813 17.1797 40.4469 16.8359L 41.3297 17.5234C 40.6214 18.612 39.5589 19.1562 38.1422 19.1562ZM 37.9625 11.5781C 37.3792 11.5781 36.8896 11.7917 36.4938 12.2188C 36.0979 12.6406 35.8531 13.2344 35.7594 14L 39.9938 14L 39.9938 13.8906C 39.9521 13.1562 39.7542 12.5885 39.4 12.1875C 39.0458 11.7812 38.5667 11.5781 37.9625 11.5781Z"/>
<path id="path9_fill" d="M 2.58594 10.5469L 2.58594 19.9766C 2.58594 21.6016 1.84896 22.4141 0.375 22.4141C 0.0572917 22.4141 -0.236979 22.3672 -0.507812 22.2734L -0.507812 21.1172C -0.341146 21.1589 -0.122396 21.1797 0.148438 21.1797C 0.471354 21.1797 0.716146 21.0911 0.882812 20.9141C 1.05469 20.7422 1.14062 20.4401 1.14062 20.0078L 1.14062 10.5469L 2.58594 10.5469ZM 0.992188 8.30469C 0.992188 8.07552 1.0625 7.88021 1.20312 7.71875C 1.34896 7.55208 1.5599 7.46875 1.83594 7.46875C 2.11719 7.46875 2.33073 7.54948 2.47656 7.71094C 2.6224 7.8724 2.69531 8.07031 2.69531 8.30469C 2.69531 8.53906 2.6224 8.73438 2.47656 8.89062C 2.33073 9.04688 2.11719 9.125 1.83594 9.125C 1.55469 9.125 1.34375 9.04688 1.20312 8.89062C 1.0625 8.73438 0.992188 8.53906 0.992188 8.30469ZM 4.33906 14.6953C 4.33906 13.8672 4.50052 13.1224 4.82344 12.4609C 5.15156 11.7995 5.60469 11.2891 6.18281 10.9297C 6.76615 10.5703 7.43021 10.3906 8.175 10.3906C 9.32604 10.3906 10.2557 10.7891 10.9641 11.5859C 11.6776 12.3828 12.0344 13.4427 12.0344 14.7656L 12.0344 14.8672C 12.0344 15.6901 11.8755 16.4297 11.5578 17.0859C 11.2453 17.737 10.7948 18.2448 10.2062 18.6094C 9.62292 18.974 8.95104 19.1562 8.19062 19.1562C 7.04479 19.1562 6.1151 18.7578 5.40156 17.9609C 4.69323 17.1641 4.33906 16.1094 4.33906 14.7969L 4.33906 14.6953ZM 5.79219 14.8672C 5.79219 15.8047 6.00833 16.5573 6.44062 17.125C 6.87812 17.6927 7.46146 17.9766 8.19062 17.9766C 8.925 17.9766 9.50833 17.6901 9.94062 17.1172C 10.3729 16.5391 10.5891 15.7318 10.5891 14.6953C 10.5891 13.7682 10.3677 13.0182 9.925 12.4453C 9.4875 11.8672 8.90417 11.5781 8.175 11.5781C 7.46146 11.5781 6.88594 11.862 6.44844 12.4297C 6.01094 12.9974 5.79219 13.8099 5.79219 14.8672ZM 15.0922 11.5703C 15.7328 10.7839 16.5661 10.3906 17.5922 10.3906C 19.3786 10.3906 20.2797 11.3984 20.2953 13.4141L 20.2953 19L 18.85 19L 18.85 13.4062C 18.8448 12.7969 18.7042 12.3464 18.4281 12.0547C 18.1573 11.763 17.7328 11.6172 17.1547 11.6172C 16.6859 11.6172 16.2745 11.7422 15.9203 11.9922C 15.5661 12.2422 15.2901 12.5703 15.0922 12.9766L 15.0922 19L 13.6469 19L 13.6469 7L 15.0922 7L 15.0922 11.5703ZM 23.6266 10.5469L 23.6734 11.6094C 24.3193 10.7969 25.163 10.3906 26.2047 10.3906C 27.9911 10.3906 28.8922 11.3984 28.9078 13.4141L 28.9078 19L 27.4625 19L 27.4625 13.4062C 27.4573 12.7969 27.3167 12.3464 27.0406 12.0547C 26.7698 11.763 26.3453 11.6172 25.7672 11.6172C 25.2984 11.6172 24.887 11.7422 24.5328 11.9922C 24.1786 12.2422 23.9026 12.5703 23.7047 12.9766L 23.7047 19L 22.2594 19L 22.2594 10.5469L 23.6266 10.5469ZM 35.8094 16.7578C 35.8094 16.3672 35.6609 16.0651 35.3641 15.8516C 35.0724 15.6328 34.5594 15.4453 33.825 15.2891C 33.0958 15.1328 32.5151 14.9453 32.0828 14.7266C 31.6557 14.5078 31.338 14.2474 31.1297 13.9453C 30.9266 13.6432 30.825 13.2839 30.825 12.8672C 30.825 12.1745 31.1167 11.5885 31.7 11.1094C 32.2885 10.6302 33.0385 10.3906 33.95 10.3906C 34.9083 10.3906 35.6844 10.638 36.2781 11.1328C 36.8771 11.6276 37.1766 12.2604 37.1766 13.0312L 35.7234 13.0312C 35.7234 12.6354 35.5542 12.2943 35.2156 12.0078C 34.8823 11.7214 34.4604 11.5781 33.95 11.5781C 33.424 11.5781 33.0125 11.6927 32.7156 11.9219C 32.4188 12.151 32.2703 12.4505 32.2703 12.8203C 32.2703 13.1693 32.4083 13.4323 32.6844 13.6094C 32.9604 13.7865 33.4578 13.9557 34.1766 14.1172C 34.9005 14.2786 35.4865 14.4714 35.9344 14.6953C 36.3823 14.9193 36.713 15.1901 36.9266 15.5078C 37.1453 15.8203 37.2547 16.2031 37.2547 16.6562C 37.2547 17.4115 36.9526 18.0182 36.3484 18.4766C 35.7443 18.9297 34.9604 19.1562 33.9969 19.1562C 33.3198 19.1562 32.7208 19.0365 32.2 18.7969C 31.6792 18.5573 31.2703 18.224 30.9734 17.7969C 30.6818 17.3646 30.5359 16.8984 30.5359 16.3984L 31.9813 16.3984C 32.0073 16.8828 32.2 17.2682 32.5594 17.5547C 32.924 17.8359 33.4031 17.9766 33.9969 17.9766C 34.5438 17.9766 34.9813 17.8672 35.3094 17.6484C 35.6427 17.4245 35.8094 17.1276 35.8094 16.7578ZM 40.3047 10.5469L 40.3516 11.6094C 40.9974 10.7969 41.8411 10.3906 42.8828 10.3906C 44.6693 10.3906 45.5703 11.3984 45.5859 13.4141L 45.5859 19L 44.1406 19L 44.1406 13.4062C 44.1354 12.7969 43.9948 12.3464 43.7188 12.0547C 43.4479 11.763 43.0234 11.6172 42.4453 11.6172C 41.9766 11.6172 41.5651 11.7422 41.2109 11.9922C 40.8568 12.2422 40.5807 12.5703 40.3828 12.9766L 40.3828 19L 38.9375 19L 38.9375 10.5469L 40.3047 10.5469ZM 47.1828 14.6953C 47.1828 13.8672 47.3443 13.1224 47.6672 12.4609C 47.9953 11.7995 48.4484 11.2891 49.0266 10.9297C 49.6099 10.5703 50.274 10.3906 51.0187 10.3906C 52.1698 10.3906 53.0995 10.7891 53.8078 11.5859C 54.5214 12.3828 54.8781 13.4427 54.8781 14.7656L 54.8781 14.8672C 54.8781 15.6901 54.7193 16.4297 54.4016 17.0859C 54.0891 17.737 53.6385 18.2448 53.05 18.6094C 52.4667 18.974 51.7948 19.1562 51.0344 19.1562C 49.8885 19.1562 48.9589 18.7578 48.2453 17.9609C 47.537 17.1641 47.1828 16.1094 47.1828 14.7969L 47.1828 14.6953ZM 48.6359 14.8672C 48.6359 15.8047 48.8521 16.5573 49.2844 17.125C 49.7219 17.6927 50.3052 17.9766 51.0344 17.9766C 51.7687 17.9766 52.3521 17.6901 52.7844 17.1172C 53.2167 16.5391 53.4328 15.7318 53.4328 14.6953C 53.4328 13.7682 53.2115 13.0182 52.7687 12.4453C 52.3312 11.8672 51.7479 11.5781 51.0187 11.5781C 50.3052 11.5781 49.7297 11.862 49.2922 12.4297C 48.8547 12.9974 48.6359 13.8099 48.6359 14.8672ZM 63.975 17.0078L 65.6 10.5469L 67.0453 10.5469L 64.5844 19L 63.4125 19L 61.3578 12.5938L 59.3578 19L 58.1859 19L 55.7328 10.5469L 57.1703 10.5469L 58.8344 16.875L 60.8031 10.5469L 61.9672 10.5469L 63.975 17.0078ZM 80.8063 15.0781C 80.7438 16.3385 80.4313 17.3333 79.8688 18.0625C 79.3063 18.7917 78.5536 19.1562 77.6109 19.1562C 76.637 19.1562 76.012 18.7188 75.7359 17.8438C 75.4547 18.2865 75.1318 18.6172 74.7672 18.8359C 74.4078 19.0495 74.0354 19.1562 73.65 19.1562C 72.9104 19.1562 72.3505 18.8542 71.9703 18.25C 71.5901 17.6458 71.4495 16.8099 71.5484 15.7422C 71.6266 14.8828 71.8219 14.1172 72.1344 13.4453C 72.4521 12.7682 72.8583 12.237 73.3531 11.8516C 73.8531 11.4661 74.3766 11.2734 74.9234 11.2734C 75.3453 11.2734 75.7229 11.3307 76.0563 11.4453C 76.3896 11.5547 76.7646 11.7734 77.1813 12.1016L 76.775 16.4297C 76.676 17.6328 77.0094 18.2344 77.775 18.2344C 78.3635 18.2344 78.8401 17.9427 79.2047 17.3594C 79.5693 16.776 79.7672 16.0156 79.7984 15.0781C 79.8974 13.0521 79.5198 11.5078 78.6656 10.4453C 77.8167 9.38281 76.5224 8.85156 74.7828 8.85156C 73.7359 8.85156 72.8063 9.11198 71.9938 9.63281C 71.1813 10.1484 70.5406 10.8958 70.0719 11.875C 69.6031 12.8542 69.3401 13.9844 69.2828 15.2656C 69.2203 16.5573 69.3766 17.6797 69.7516 18.6328C 70.1266 19.5807 70.6969 20.3047 71.4625 20.8047C 72.2333 21.3099 73.163 21.5625 74.2516 21.5625C 74.7203 21.5625 75.1891 21.5052 75.6578 21.3906C 76.1318 21.276 76.525 21.1276 76.8375 20.9453L 77.1266 21.8438C 76.8036 22.0469 76.374 22.2135 75.8375 22.3438C 75.3063 22.474 74.7672 22.5391 74.2203 22.5391C 72.9182 22.5391 71.7984 22.2448 70.8609 21.6562C 69.9234 21.0729 69.2203 20.2292 68.7516 19.125C 68.288 18.026 68.0875 16.7396 68.15 15.2656C 68.2125 13.8333 68.5328 12.5469 69.1109 11.4062C 69.6891 10.2604 70.4729 9.3776 71.4625 8.75781C 72.4521 8.13281 73.5693 7.82031 74.8141 7.82031C 76.1109 7.82031 77.2229 8.11198 78.15 8.69531C 79.0771 9.27865 79.7672 10.1198 80.2203 11.2188C 80.6734 12.3177 80.8688 13.6042 80.8063 15.0781ZM 72.7906 15.7422C 72.7177 16.4818 72.7854 17.0495 72.9938 17.4453C 73.2073 17.8411 73.5432 18.0391 74.0016 18.0391C 74.3141 18.0391 74.6135 17.9062 74.9 17.6406C 75.1917 17.375 75.4313 16.9948 75.6188 16.5L 75.6266 16.4297L 75.9859 12.5C 75.6943 12.349 75.3818 12.2734 75.0484 12.2734C 74.4391 12.2734 73.9339 12.5833 73.5328 13.2031C 73.137 13.8229 72.8896 14.6693 72.7906 15.7422ZM 82.1531 14.7031C 82.1531 13.3854 82.4578 12.3385 83.0672 11.5625C 83.6766 10.7812 84.4839 10.3906 85.4891 10.3906C 86.5203 10.3906 87.325 10.7552 87.9031 11.4844L 87.9734 10.5469L 89.2938 10.5469L 89.2938 18.7969C 89.2938 19.8906 88.9682 20.7526 88.3172 21.3828C 87.6714 22.013 86.8016 22.3281 85.7078 22.3281C 85.0984 22.3281 84.5021 22.1979 83.9188 21.9375C 83.3354 21.6771 82.8901 21.3203 82.5828 20.8672L 83.3328 20C 83.9526 20.7656 84.7104 21.1484 85.6063 21.1484C 86.3094 21.1484 86.8563 20.9505 87.2469 20.5547C 87.6427 20.1589 87.8406 19.6016 87.8406 18.8828L 87.8406 18.1562C 87.2625 18.8229 86.4734 19.1562 85.4734 19.1562C 84.4839 19.1562 83.6818 18.7578 83.0672 17.9609C 82.4578 17.1641 82.1531 16.0781 82.1531 14.7031ZM 83.6063 14.8672C 83.6063 15.8203 83.8016 16.5703 84.1922 17.1172C 84.5828 17.6589 85.1297 17.9297 85.8328 17.9297C 86.7443 17.9297 87.4135 17.5156 87.8406 16.6875L 87.8406 12.8281C 87.3979 12.0208 86.7339 11.6172 85.8484 11.6172C 85.1453 11.6172 84.5958 11.8906 84.2 12.4375C 83.8042 12.9844 83.6063 13.7943 83.6063 14.8672ZM 92.6406 10.5469L 92.6797 11.4844C 93.2995 10.7552 94.1354 10.3906 95.1875 10.3906C 96.3698 10.3906 97.1745 10.8438 97.6016 11.75C 97.8828 11.3438 98.2474 11.0156 98.6953 10.7656C 99.1484 10.5156 99.6823 10.3906 100.297 10.3906C 102.151 10.3906 103.094 11.3724 103.125 13.3359L 103.125 19L 101.68 19L 101.68 13.4219C 101.68 12.8177 101.542 12.3672 101.266 12.0703C 100.99 11.7682 100.526 11.6172 99.875 11.6172C 99.3385 11.6172 98.8932 11.7786 98.5391 12.1016C 98.1849 12.4193 97.9792 12.849 97.9219 13.3906L 97.9219 19L 96.4688 19L 96.4688 13.4609C 96.4688 12.2318 95.8672 11.6172 94.6641 11.6172C 93.7161 11.6172 93.0677 12.0208 92.7188 12.8281L 92.7188 19L 91.2734 19L 91.2734 10.5469L 92.6406 10.5469ZM 110.331 19C 110.248 18.8333 110.18 18.5365 110.128 18.1094C 109.456 18.8073 108.654 19.1562 107.722 19.1562C 106.889 19.1562 106.204 18.9219 105.667 18.4531C 105.136 17.9792 104.87 17.3802 104.87 16.6562C 104.87 15.776 105.204 15.0938 105.87 14.6094C 106.542 14.1198 107.485 13.875 108.698 13.875L 110.105 13.875L 110.105 13.2109C 110.105 12.7057 109.954 12.3047 109.652 12.0078C 109.349 11.7057 108.904 11.5547 108.316 11.5547C 107.8 11.5547 107.368 11.6849 107.019 11.9453C 106.67 12.2057 106.495 12.5208 106.495 12.8906L 105.042 12.8906C 105.042 12.4688 105.191 12.0625 105.488 11.6719C 105.79 11.276 106.196 10.9635 106.706 10.7344C 107.222 10.5052 107.787 10.3906 108.402 10.3906C 109.376 10.3906 110.139 10.6354 110.691 11.125C 111.243 11.6094 111.529 12.2786 111.55 13.1328L 111.55 17.0234C 111.55 17.7995 111.649 18.4167 111.847 18.875L 111.847 19L 110.331 19ZM 107.933 17.8984C 108.386 17.8984 108.816 17.7812 109.222 17.5469C 109.628 17.3125 109.922 17.0078 110.105 16.6328L 110.105 14.8984L 108.972 14.8984C 107.201 14.8984 106.316 15.4167 106.316 16.4531C 106.316 16.9062 106.467 17.2604 106.769 17.5156C 107.071 17.7708 107.459 17.8984 107.933 17.8984ZM 115.186 19L 113.741 19L 113.741 10.5469L 115.186 10.5469L 115.186 19ZM 113.623 8.30469C 113.623 8.07031 113.694 7.8724 113.834 7.71094C 113.98 7.54948 114.194 7.46875 114.475 7.46875C 114.756 7.46875 114.97 7.54948 115.116 7.71094C 115.261 7.8724 115.334 8.07031 115.334 8.30469C 115.334 8.53906 115.261 8.73438 115.116 8.89062C 114.97 9.04688 114.756 9.125 114.475 9.125C 114.194 9.125 113.98 9.04688 113.834 8.89062C 113.694 8.73438 113.623 8.53906 113.623 8.30469ZM 118.877 19L 117.431 19L 117.431 7L 118.877 7L 118.877 19ZM 121.028 18.2422C 121.028 17.9922 121.101 17.7839 121.247 17.6172C 121.398 17.4505 121.622 17.3672 121.919 17.3672C 122.216 17.3672 122.44 17.4505 122.591 17.6172C 122.747 17.7839 122.825 17.9922 122.825 18.2422C 122.825 18.4818 122.747 18.6823 122.591 18.8438C 122.44 19.0052 122.216 19.0859 121.919 19.0859C 121.622 19.0859 121.398 19.0052 121.247 18.8438C 121.101 18.6823 121.028 18.4818 121.028 18.2422ZM 128.406 17.9766C 128.922 17.9766 129.372 17.8203 129.758 17.5078C 130.143 17.1953 130.357 16.8047 130.398 16.3359L 131.766 16.3359C 131.74 16.8203 131.573 17.2812 131.266 17.7188C 130.958 18.1562 130.547 18.5052 130.031 18.7656C 129.521 19.026 128.979 19.1562 128.406 19.1562C 127.255 19.1562 126.339 18.7734 125.656 18.0078C 124.979 17.237 124.641 16.1849 124.641 14.8516L 124.641 14.6094C 124.641 13.7865 124.792 13.0547 125.094 12.4141C 125.396 11.7734 125.828 11.276 126.391 10.9219C 126.958 10.5677 127.628 10.3906 128.398 10.3906C 129.346 10.3906 130.133 10.6745 130.758 11.2422C 131.388 11.8099 131.724 12.5469 131.766 13.4531L 130.398 13.4531C 130.357 12.9062 130.148 12.4583 129.773 12.1094C 129.404 11.7552 128.945 11.5781 128.398 11.5781C 127.664 11.5781 127.094 11.8438 126.688 12.375C 126.286 12.901 126.086 13.6641 126.086 14.6641L 126.086 14.9375C 126.086 15.9115 126.286 16.6615 126.688 17.1875C 127.089 17.7135 127.661 17.9766 128.406 17.9766ZM 132.808 14.6953C 132.808 13.8672 132.969 13.1224 133.292 12.4609C 133.62 11.7995 134.073 11.2891 134.652 10.9297C 135.235 10.5703 135.899 10.3906 136.644 10.3906C 137.795 10.3906 138.724 10.7891 139.433 11.5859C 140.146 12.3828 140.503 13.4427 140.503 14.7656L 140.503 14.8672C 140.503 15.6901 140.344 16.4297 140.027 17.0859C 139.714 17.737 139.264 18.2448 138.675 18.6094C 138.092 18.974 137.42 19.1562 136.659 19.1562C 135.514 19.1562 134.584 18.7578 133.87 17.9609C 133.162 17.1641 132.808 16.1094 132.808 14.7969L 132.808 14.6953ZM 134.261 14.8672C 134.261 15.8047 134.477 16.5573 134.909 17.125C 135.347 17.6927 135.93 17.9766 136.659 17.9766C 137.394 17.9766 137.977 17.6901 138.409 17.1172C 138.842 16.5391 139.058 15.7318 139.058 14.6953C 139.058 13.7682 138.836 13.0182 138.394 12.4453C 137.956 11.8672 137.373 11.5781 136.644 11.5781C 135.93 11.5781 135.355 11.862 134.917 12.4297C 134.48 12.9974 134.261 13.8099 134.261 14.8672ZM 143.475 10.5469L 143.514 11.4844C 144.134 10.7552 144.97 10.3906 146.022 10.3906C 147.204 10.3906 148.009 10.8438 148.436 11.75C 148.717 11.3438 149.082 11.0156 149.53 10.7656C 149.983 10.5156 150.517 10.3906 151.131 10.3906C 152.985 10.3906 153.928 11.3724 153.959 13.3359L 153.959 19L 152.514 19L 152.514 13.4219C 152.514 12.8177 152.376 12.3672 152.1 12.0703C 151.824 11.7682 151.36 11.6172 150.709 11.6172C 150.173 11.6172 149.728 11.7786 149.373 12.1016C 149.019 12.4193 148.814 12.849 148.756 13.3906L 148.756 19L 147.303 19L 147.303 13.4609C 147.303 12.2318 146.702 11.6172 145.498 11.6172C 144.551 11.6172 143.902 12.0208 143.553 12.8281L 143.553 19L 142.108 19L 142.108 10.5469L 143.475 10.5469Z"/>
<path id="path10_fill" d="M 7.75 13.7422L 2.82031 13.7422L 2.82031 17.7734L 8.54688 17.7734L 8.54688 19L 1.32031 19L 1.32031 7.625L 8.46875 7.625L 8.46875 8.85938L 2.82031 8.85938L 2.82031 12.5156L 7.75 12.5156L 7.75 13.7422ZM 11.3469 10.5469L 11.3859 11.4844C 12.0057 10.7552 12.8417 10.3906 13.8938 10.3906C 15.076 10.3906 15.8807 10.8438 16.3078 11.75C 16.5891 11.3438 16.9536 11.0156 17.4016 10.7656C 17.8547 10.5156 18.3885 10.3906 19.0031 10.3906C 20.8573 10.3906 21.8 11.3724 21.8313 13.3359L 21.8313 19L 20.3859 19L 20.3859 13.4219C 20.3859 12.8177 20.2479 12.3672 19.9719 12.0703C 19.6958 11.7682 19.2323 11.6172 18.5813 11.6172C 18.0448 11.6172 17.5995 11.7786 17.2453 12.1016C 16.8911 12.4193 16.6854 12.849 16.6281 13.3906L 16.6281 19L 15.175 19L 15.175 13.4609C 15.175 12.2318 14.5734 11.6172 13.3703 11.6172C 12.4224 11.6172 11.774 12.0208 11.425 12.8281L 11.425 19L 9.97969 19L 9.97969 10.5469L 11.3469 10.5469ZM 29.0375 19C 28.9542 18.8333 28.8865 18.5365 28.8344 18.1094C 28.1625 18.8073 27.3604 19.1562 26.4281 19.1562C 25.5948 19.1562 24.9099 18.9219 24.3734 18.4531C 23.8422 17.9792 23.5766 17.3802 23.5766 16.6562C 23.5766 15.776 23.9099 15.0938 24.5766 14.6094C 25.2484 14.1198 26.1911 13.875 27.4047 13.875L 28.8109 13.875L 28.8109 13.2109C 28.8109 12.7057 28.6599 12.3047 28.3578 12.0078C 28.0557 11.7057 27.6104 11.5547 27.0219 11.5547C 26.5063 11.5547 26.074 11.6849 25.725 11.9453C 25.376 12.2057 25.2016 12.5208 25.2016 12.8906L 23.7484 12.8906C 23.7484 12.4688 23.8969 12.0625 24.1938 11.6719C 24.4958 11.276 24.9021 10.9635 25.4125 10.7344C 25.9281 10.5052 26.4932 10.3906 27.1078 10.3906C 28.0818 10.3906 28.8448 10.6354 29.3969 11.125C 29.949 11.6094 30.2354 12.2786 30.2563 13.1328L 30.2563 17.0234C 30.2563 17.7995 30.3552 18.4167 30.5531 18.875L 30.5531 19L 29.0375 19ZM 26.6391 17.8984C 27.0922 17.8984 27.5219 17.7812 27.9281 17.5469C 28.3344 17.3125 28.6286 17.0078 28.8109 16.6328L 28.8109 14.8984L 27.6781 14.8984C 25.9073 14.8984 25.0219 15.4167 25.0219 16.4531C 25.0219 16.9062 25.1729 17.2604 25.475 17.5156C 25.7771 17.7708 26.1651 17.8984 26.6391 17.8984ZM 33.8922 19L 32.4469 19L 32.4469 10.5469L 33.8922 10.5469L 33.8922 19ZM 32.3297 8.30469C 32.3297 8.07031 32.4 7.8724 32.5406 7.71094C 32.6865 7.54948 32.9 7.46875 33.1813 7.46875C 33.4625 7.46875 33.676 7.54948 33.8219 7.71094C 33.9677 7.8724 34.0406 8.07031 34.0406 8.30469C 34.0406 8.53906 33.9677 8.73438 33.8219 8.89062C 33.676 9.04688 33.4625 9.125 33.1813 9.125C 32.9 9.125 32.6865 9.04688 32.5406 8.89062C 32.4 8.73438 32.3297 8.53906 32.3297 8.30469ZM 37.5828 19L 36.1375 19L 36.1375 7L 37.5828 7L 37.5828 19Z"/>
<path id="path11_fill" d="M 2.46094 10.5469L 2.50781 11.6094C 3.15365 10.7969 3.9974 10.3906 5.03906 10.3906C 6.82552 10.3906 7.72656 11.3984 7.74219 13.4141L 7.74219 19L 6.29688 19L 6.29688 13.4062C 6.29167 12.7969 6.15104 12.3464 5.875 12.0547C 5.60417 11.763 5.17969 11.6172 4.60156 11.6172C 4.13281 11.6172 3.72135 11.7422 3.36719 11.9922C 3.01302 12.2422 2.73698 12.5703 2.53906 12.9766L 2.53906 19L 1.09375 19L 1.09375 10.5469L 2.46094 10.5469ZM 14.9406 19C 14.8573 18.8333 14.7896 18.5365 14.7375 18.1094C 14.0656 18.8073 13.2635 19.1562 12.3313 19.1562C 11.4979 19.1562 10.813 18.9219 10.2766 18.4531C 9.74531 17.9792 9.47969 17.3802 9.47969 16.6562C 9.47969 15.776 9.81302 15.0938 10.4797 14.6094C 11.1516 14.1198 12.0943 13.875 13.3078 13.875L 14.7141 13.875L 14.7141 13.2109C 14.7141 12.7057 14.563 12.3047 14.2609 12.0078C 13.9589 11.7057 13.5135 11.5547 12.925 11.5547C 12.4094 11.5547 11.9771 11.6849 11.6281 11.9453C 11.2792 12.2057 11.1047 12.5208 11.1047 12.8906L 9.65156 12.8906C 9.65156 12.4688 9.8 12.0625 10.0969 11.6719C 10.399 11.276 10.8052 10.9635 11.3156 10.7344C 11.8313 10.5052 12.3964 10.3906 13.0109 10.3906C 13.9849 10.3906 14.7479 10.6354 15.3 11.125C 15.8521 11.6094 16.1385 12.2786 16.1594 13.1328L 16.1594 17.0234C 16.1594 17.7995 16.2583 18.4167 16.4563 18.875L 16.4563 19L 14.9406 19ZM 12.5422 17.8984C 12.9953 17.8984 13.425 17.7812 13.8313 17.5469C 14.2375 17.3125 14.5318 17.0078 14.7141 16.6328L 14.7141 14.8984L 13.5813 14.8984C 11.8104 14.8984 10.925 15.4167 10.925 16.4531C 10.925 16.9062 11.076 17.2604 11.3781 17.5156C 11.6802 17.7708 12.0682 17.8984 12.5422 17.8984ZM 19.5844 10.5469L 19.6234 11.4844C 20.2432 10.7552 21.0792 10.3906 22.1313 10.3906C 23.3135 10.3906 24.1182 10.8438 24.5453 11.75C 24.8266 11.3438 25.1911 11.0156 25.6391 10.7656C 26.0922 10.5156 26.626 10.3906 27.2406 10.3906C 29.0948 10.3906 30.0375 11.3724 30.0688 13.3359L 30.0688 19L 28.6234 19L 28.6234 13.4219C 28.6234 12.8177 28.4854 12.3672 28.2094 12.0703C 27.9333 11.7682 27.4698 11.6172 26.8188 11.6172C 26.2823 11.6172 25.837 11.7786 25.4828 12.1016C 25.1286 12.4193 24.9229 12.849 24.8656 13.3906L 24.8656 19L 23.4125 19L 23.4125 13.4609C 23.4125 12.2318 22.8109 11.6172 21.6078 11.6172C 20.6599 11.6172 20.0115 12.0208 19.6625 12.8281L 19.6625 19L 18.2172 19L 18.2172 10.5469L 19.5844 10.5469ZM 35.5641 19.1562C 34.4182 19.1562 33.4859 18.7812 32.7672 18.0312C 32.0484 17.276 31.6891 16.2682 31.6891 15.0078L 31.6891 14.7422C 31.6891 13.9036 31.8479 13.1562 32.1656 12.5C 32.4885 11.8385 32.9365 11.3229 33.5094 10.9531C 34.0875 10.5781 34.7125 10.3906 35.3844 10.3906C 36.4833 10.3906 37.3375 10.7526 37.9469 11.4766C 38.5563 12.2005 38.8609 13.237 38.8609 14.5859L 38.8609 15.1875L 33.1344 15.1875C 33.1552 16.0208 33.3974 16.6953 33.8609 17.2109C 34.3297 17.7214 34.9234 17.9766 35.6422 17.9766C 36.1526 17.9766 36.5849 17.8724 36.9391 17.6641C 37.2932 17.4557 37.6031 17.1797 37.8688 16.8359L 38.7516 17.5234C 38.0432 18.612 36.9807 19.1562 35.5641 19.1562ZM 35.3844 11.5781C 34.801 11.5781 34.3115 11.7917 33.9156 12.2188C 33.5198 12.6406 33.275 13.2344 33.1813 14L 37.4156 14L 37.4156 13.8906C 37.374 13.1562 37.176 12.5885 36.8219 12.1875C 36.4677 11.7812 35.9885 11.5781 35.3844 11.5781ZM 52.825 15.0781C 52.7625 16.3385 52.45 17.3333 51.8875 18.0625C 51.325 18.7917 50.5724 19.1562 49.6297 19.1562C 48.6557 19.1562 48.0307 18.7188 47.7547 17.8438C 47.4734 18.2865 47.1505 18.6172 46.7859 18.8359C 46.4266 19.0495 46.0542 19.1562 45.6688 19.1562C 44.9292 19.1562 44.3693 18.8542 43.9891 18.25C 43.6089 17.6458 43.4682 16.8099 43.5672 15.7422C 43.6453 14.8828 43.8406 14.1172 44.1531 13.4453C 44.4708 12.7682 44.8771 12.237 45.3719 11.8516C 45.8719 11.4661 46.3953 11.2734 46.9422 11.2734C 47.3641 11.2734 47.7417 11.3307 48.075 11.4453C 48.4083 11.5547 48.7833 11.7734 49.2 12.1016L 48.7938 16.4297C 48.6948 17.6328 49.0281 18.2344 49.7938 18.2344C 50.3823 18.2344 50.8589 17.9427 51.2234 17.3594C 51.588 16.776 51.7859 16.0156 51.8172 15.0781C 51.9161 13.0521 51.5385 11.5078 50.6844 10.4453C 49.8354 9.38281 48.5411 8.85156 46.8016 8.85156C 45.7547 8.85156 44.825 9.11198 44.0125 9.63281C 43.2 10.1484 42.5594 10.8958 42.0906 11.875C 41.6219 12.8542 41.3589 13.9844 41.3016 15.2656C 41.2391 16.5573 41.3953 17.6797 41.7703 18.6328C 42.1453 19.5807 42.7156 20.3047 43.4813 20.8047C 44.2521 21.3099 45.1818 21.5625 46.2703 21.5625C 46.7391 21.5625 47.2078 21.5052 47.6766 21.3906C 48.1505 21.276 48.5438 21.1276 48.8563 20.9453L 49.1453 21.8438C 48.8224 22.0469 48.3927 22.2135 47.8563 22.3438C 47.325 22.474 46.7859 22.5391 46.2391 22.5391C 44.937 22.5391 43.8172 22.2448 42.8797 21.6562C 41.9422 21.0729 41.2391 20.2292 40.7703 19.125C 40.3068 18.026 40.1063 16.7396 40.1688 15.2656C 40.2313 13.8333 40.5516 12.5469 41.1297 11.4062C 41.7078 10.2604 42.4917 9.3776 43.4813 8.75781C 44.4708 8.13281 45.588 7.82031 46.8328 7.82031C 48.1297 7.82031 49.2417 8.11198 50.1688 8.69531C 51.0958 9.27865 51.7859 10.1198 52.2391 11.2188C 52.6922 12.3177 52.8875 13.6042 52.825 15.0781ZM 44.8094 15.7422C 44.7365 16.4818 44.8042 17.0495 45.0125 17.4453C 45.226 17.8411 45.562 18.0391 46.0203 18.0391C 46.3328 18.0391 46.6323 17.9062 46.9188 17.6406C 47.2104 17.375 47.45 16.9948 47.6375 16.5L 47.6453 16.4297L 48.0047 12.5C 47.713 12.349 47.4005 12.2734 47.0672 12.2734C 46.4578 12.2734 45.9526 12.5833 45.5516 13.2031C 45.1557 13.8229 44.9083 14.6693 44.8094 15.7422ZM 58.0234 19.1562C 56.8776 19.1562 55.9453 18.7812 55.2266 18.0312C 54.5078 17.276 54.1484 16.2682 54.1484 15.0078L 54.1484 14.7422C 54.1484 13.9036 54.3073 13.1562 54.625 12.5C 54.9479 11.8385 55.3958 11.3229 55.9688 10.9531C 56.5469 10.5781 57.1719 10.3906 57.8438 10.3906C 58.9427 10.3906 59.7969 10.7526 60.4062 11.4766C 61.0156 12.2005 61.3203 13.237 61.3203 14.5859L 61.3203 15.1875L 55.5938 15.1875C 55.6146 16.0208 55.8568 16.6953 56.3203 17.2109C 56.7891 17.7214 57.3828 17.9766 58.1016 17.9766C 58.612 17.9766 59.0443 17.8724 59.3984 17.6641C 59.7526 17.4557 60.0625 17.1797 60.3281 16.8359L 61.2109 17.5234C 60.5026 18.612 59.4401 19.1562 58.0234 19.1562ZM 57.8438 11.5781C 57.2604 11.5781 56.7708 11.7917 56.375 12.2188C 55.9792 12.6406 55.7344 13.2344 55.6406 14L 59.875 14L 59.875 13.8906C 59.8333 13.1562 59.6354 12.5885 59.2812 12.1875C 58.9271 11.7812 58.4479 11.5781 57.8438 11.5781ZM 65.6359 13.6328L 67.5109 10.5469L 69.1984 10.5469L 66.4328 14.7266L 69.2844 19L 67.6125 19L 65.6594 15.8359L 63.7063 19L 62.0266 19L 64.8781 14.7266L 62.1125 10.5469L 63.7844 10.5469L 65.6359 13.6328ZM 75.7562 19C 75.6729 18.8333 75.6052 18.5365 75.5531 18.1094C 74.8812 18.8073 74.0792 19.1562 73.1469 19.1562C 72.3135 19.1562 71.6286 18.9219 71.0922 18.4531C 70.5609 17.9792 70.2953 17.3802 70.2953 16.6562C 70.2953 15.776 70.6286 15.0938 71.2953 14.6094C 71.9672 14.1198 72.9099 13.875 74.1234 13.875L 75.5297 13.875L 75.5297 13.2109C 75.5297 12.7057 75.3786 12.3047 75.0766 12.0078C 74.7745 11.7057 74.3292 11.5547 73.7406 11.5547C 73.225 11.5547 72.7927 11.6849 72.4437 11.9453C 72.0948 12.2057 71.9203 12.5208 71.9203 12.8906L 70.4672 12.8906C 70.4672 12.4688 70.6156 12.0625 70.9125 11.6719C 71.2146 11.276 71.6208 10.9635 72.1312 10.7344C 72.6469 10.5052 73.212 10.3906 73.8266 10.3906C 74.8005 10.3906 75.5635 10.6354 76.1156 11.125C 76.6677 11.6094 76.9542 12.2786 76.975 13.1328L 76.975 17.0234C 76.975 17.7995 77.074 18.4167 77.2719 18.875L 77.2719 19L 75.7562 19ZM 73.3578 17.8984C 73.8109 17.8984 74.2406 17.7812 74.6469 17.5469C 75.0531 17.3125 75.3474 17.0078 75.5297 16.6328L 75.5297 14.8984L 74.3969 14.8984C 72.626 14.8984 71.7406 15.4167 71.7406 16.4531C 71.7406 16.9062 71.8917 17.2604 72.1937 17.5156C 72.4958 17.7708 72.8839 17.8984 73.3578 17.8984ZM 80.4 10.5469L 80.4391 11.4844C 81.0589 10.7552 81.8948 10.3906 82.9469 10.3906C 84.1292 10.3906 84.9339 10.8438 85.3609 11.75C 85.6422 11.3438 86.0068 11.0156 86.4547 10.7656C 86.9078 10.5156 87.4417 10.3906 88.0563 10.3906C 89.9104 10.3906 90.8531 11.3724 90.8844 13.3359L 90.8844 19L 89.4391 19L 89.4391 13.4219C 89.4391 12.8177 89.301 12.3672 89.025 12.0703C 88.749 11.7682 88.2854 11.6172 87.6344 11.6172C 87.0979 11.6172 86.6526 11.7786 86.2984 12.1016C 85.9443 12.4193 85.7385 12.849 85.6813 13.3906L 85.6813 19L 84.2281 19L 84.2281 13.4609C 84.2281 12.2318 83.6266 11.6172 82.4234 11.6172C 81.4755 11.6172 80.8271 12.0208 80.4781 12.8281L 80.4781 19L 79.0328 19L 79.0328 10.5469L 80.4 10.5469ZM 100.013 14.8672C 100.013 16.1536 99.7182 17.1901 99.1297 17.9766C 98.5412 18.763 97.7443 19.1562 96.7391 19.1562C 95.713 19.1562 94.9057 18.8307 94.3172 18.1797L 94.3172 22.25L 92.8719 22.25L 92.8719 10.5469L 94.1922 10.5469L 94.2625 11.4844C 94.851 10.7552 95.6688 10.3906 96.7156 10.3906C 97.7313 10.3906 98.5333 10.7734 99.1219 11.5391C 99.7156 12.3047 100.013 13.3698 100.013 14.7344L 100.013 14.8672ZM 98.5672 14.7031C 98.5672 13.75 98.3641 12.9974 97.9578 12.4453C 97.5516 11.8932 96.9943 11.6172 96.2859 11.6172C 95.4109 11.6172 94.7547 12.0052 94.3172 12.7812L 94.3172 16.8203C 94.7495 17.5911 95.4109 17.9766 96.3016 17.9766C 96.9943 17.9766 97.5438 17.7031 97.95 17.1562C 98.3615 16.6042 98.5672 15.7865 98.5672 14.7031ZM 103.227 19L 101.781 19L 101.781 7L 103.227 7L 103.227 19ZM 108.855 19.1562C 107.709 19.1562 106.777 18.7812 106.058 18.0312C 105.339 17.276 104.98 16.2682 104.98 15.0078L 104.98 14.7422C 104.98 13.9036 105.139 13.1562 105.456 12.5C 105.779 11.8385 106.227 11.3229 106.8 10.9531C 107.378 10.5781 108.003 10.3906 108.675 10.3906C 109.774 10.3906 110.628 10.7526 111.238 11.4766C 111.847 12.2005 112.152 13.237 112.152 14.5859L 112.152 15.1875L 106.425 15.1875C 106.446 16.0208 106.688 16.6953 107.152 17.2109C 107.62 17.7214 108.214 17.9766 108.933 17.9766C 109.443 17.9766 109.876 17.8724 110.23 17.6641C 110.584 17.4557 110.894 17.1797 111.159 16.8359L 112.042 17.5234C 111.334 18.612 110.271 19.1562 108.855 19.1562ZM 108.675 11.5781C 108.092 11.5781 107.602 11.7917 107.206 12.2188C 106.81 12.6406 106.566 13.2344 106.472 14L 110.706 14L 110.706 13.8906C 110.665 13.1562 110.467 12.5885 110.113 12.1875C 109.758 11.7812 109.279 11.5781 108.675 11.5781ZM 113.662 18.2422C 113.662 17.9922 113.735 17.7839 113.881 17.6172C 114.032 17.4505 114.256 17.3672 114.553 17.3672C 114.85 17.3672 115.074 17.4505 115.225 17.6172C 115.381 17.7839 115.459 17.9922 115.459 18.2422C 115.459 18.4818 115.381 18.6823 115.225 18.8438C 115.074 19.0052 114.85 19.0859 114.553 19.0859C 114.256 19.0859 114.032 19.0052 113.881 18.8438C 113.735 18.6823 113.662 18.4818 113.662 18.2422ZM 121.041 17.9766C 121.556 17.9766 122.007 17.8203 122.392 17.5078C 122.778 17.1953 122.991 16.8047 123.033 16.3359L 124.4 16.3359C 124.374 16.8203 124.207 17.2812 123.9 17.7188C 123.593 18.1562 123.181 18.5052 122.666 18.7656C 122.155 19.026 121.614 19.1562 121.041 19.1562C 119.89 19.1562 118.973 18.7734 118.291 18.0078C 117.614 17.237 117.275 16.1849 117.275 14.8516L 117.275 14.6094C 117.275 13.7865 117.426 13.0547 117.728 12.4141C 118.03 11.7734 118.463 11.276 119.025 10.9219C 119.593 10.5677 120.262 10.3906 121.033 10.3906C 121.981 10.3906 122.767 10.6745 123.392 11.2422C 124.022 11.8099 124.358 12.5469 124.4 13.4531L 123.033 13.4531C 122.991 12.9062 122.783 12.4583 122.408 12.1094C 122.038 11.7552 121.58 11.5781 121.033 11.5781C 120.298 11.5781 119.728 11.8438 119.322 12.375C 118.921 12.901 118.72 13.6641 118.72 14.6641L 118.72 14.9375C 118.72 15.9115 118.921 16.6615 119.322 17.1875C 119.723 17.7135 120.296 17.9766 121.041 17.9766ZM 125.442 14.6953C 125.442 13.8672 125.604 13.1224 125.927 12.4609C 126.255 11.7995 126.708 11.2891 127.286 10.9297C 127.869 10.5703 128.533 10.3906 129.278 10.3906C 130.429 10.3906 131.359 10.7891 132.067 11.5859C 132.781 12.3828 133.138 13.4427 133.138 14.7656L 133.138 14.8672C 133.138 15.6901 132.979 16.4297 132.661 17.0859C 132.348 17.737 131.898 18.2448 131.309 18.6094C 130.726 18.974 130.054 19.1562 129.294 19.1562C 128.148 19.1562 127.218 18.7578 126.505 17.9609C 125.796 17.1641 125.442 16.1094 125.442 14.7969L 125.442 14.6953ZM 126.895 14.8672C 126.895 15.8047 127.111 16.5573 127.544 17.125C 127.981 17.6927 128.565 17.9766 129.294 17.9766C 130.028 17.9766 130.611 17.6901 131.044 17.1172C 131.476 16.5391 131.692 15.7318 131.692 14.6953C 131.692 13.7682 131.471 13.0182 131.028 12.4453C 130.591 11.8672 130.007 11.5781 129.278 11.5781C 128.565 11.5781 127.989 11.862 127.552 12.4297C 127.114 12.9974 126.895 13.8099 126.895 14.8672ZM 136.109 10.5469L 136.148 11.4844C 136.768 10.7552 137.604 10.3906 138.656 10.3906C 139.839 10.3906 140.643 10.8438 141.07 11.75C 141.352 11.3438 141.716 11.0156 142.164 10.7656C 142.617 10.5156 143.151 10.3906 143.766 10.3906C 145.62 10.3906 146.562 11.3724 146.594 13.3359L 146.594 19L 145.148 19L 145.148 13.4219C 145.148 12.8177 145.01 12.3672 144.734 12.0703C 144.458 11.7682 143.995 11.6172 143.344 11.6172C 142.807 11.6172 142.362 11.7786 142.008 12.1016C 141.654 12.4193 141.448 12.849 141.391 13.3906L 141.391 19L 139.938 19L 139.938 13.4609C 139.938 12.2318 139.336 11.6172 138.133 11.6172C 137.185 11.6172 136.536 12.0208 136.188 12.8281L 136.188 19L 134.742 19L 134.742 10.5469L 136.109 10.5469Z"/>
<path id="path12_fill" d="M 10.5117 21.5918C 7.61719 20.7598 5.50781 19.7402 4.18359 18.5332C 2.87109 17.3145 2.21484 15.8145 2.21484 14.0332C 2.21484 12.0176 3.01758 10.3535 4.62305 9.04102C 6.24023 7.7168 8.33789 7.05469 10.916 7.05469C 12.6738 7.05469 14.2383 7.39453 15.6094 8.07422C 16.9922 8.75391 18.0586 9.69141 18.8086 10.8867C 19.5703 12.082 19.9512 13.3887 19.9512 14.8066L 16.5586 14.8066C 16.5586 13.2598 16.0664 12.0469 15.082 11.168C 14.0977 10.2773 12.709 9.83203 10.916 9.83203C 9.25195 9.83203 7.95117 10.2012 7.01367 10.9395C 6.08789 11.666 5.625 12.6797 5.625 13.9805C 5.625 15.0234 6.06445 15.9082 6.94336 16.6348C 7.83398 17.3496 9.33984 18.0059 11.4609 18.6035C 13.5937 19.2012 15.2578 19.8633 16.4531 20.5898C 17.6602 21.3047 18.5508 22.1426 19.125 23.1035C 19.7109 24.0645 20.0039 25.1953 20.0039 26.4961C 20.0039 28.5703 19.1953 30.2344 17.5781 31.4883C 15.9609 32.7305 13.7988 33.3516 11.0918 33.3516C 9.33398 33.3516 7.69336 33.0176 6.16992 32.3496C 4.64648 31.6699 3.46875 30.7441 2.63672 29.5723C 1.81641 28.4004 1.40625 27.0703 1.40625 25.582L 4.79883 25.582C 4.79883 27.1289 5.36719 28.3535 6.50391 29.2559C 7.65234 30.1465 9.18164 30.5918 11.0918 30.5918C 12.873 30.5918 14.2383 30.2285 15.1875 29.502C 16.1367 28.7754 16.6113 27.7852 16.6113 26.5312C 16.6113 25.2773 16.1719 24.3105 15.293 23.6309C 14.4141 22.9395 12.8203 22.2598 10.5117 21.5918ZM 27.3727 33L 24.1208 33L 24.1208 13.9805L 27.3727 13.9805L 27.3727 33ZM 23.8571 8.93555C 23.8571 8.4082 24.0153 7.96289 24.3317 7.59961C 24.6598 7.23633 25.1403 7.05469 25.7731 7.05469C 26.4059 7.05469 26.8864 7.23633 27.2145 7.59961C 27.5427 7.96289 27.7067 8.4082 27.7067 8.93555C 27.7067 9.46289 27.5427 9.90234 27.2145 10.2539C 26.8864 10.6055 26.4059 10.7812 25.7731 10.7812C 25.1403 10.7812 24.6598 10.6055 24.3317 10.2539C 24.0153 9.90234 23.8571 9.46289 23.8571 8.93555ZM 31.8236 23.332C 31.8236 20.3672 32.5092 18.0117 33.8802 16.2656C 35.2513 14.5078 37.0677 13.6289 39.3295 13.6289C 41.6498 13.6289 43.4603 14.4492 44.7611 16.0898L 44.9193 13.9805L 47.89 13.9805L 47.89 32.543C 47.89 35.0039 47.1576 36.9434 45.6927 38.3613C 44.2396 39.7793 42.2826 40.4883 39.8217 40.4883C 38.4506 40.4883 37.1088 40.1953 35.7963 39.6094C 34.4838 39.0234 33.4818 38.2207 32.7904 37.2012L 34.4779 35.25C 35.8724 36.9727 37.5775 37.834 39.5931 37.834C 41.1752 37.834 42.4056 37.3887 43.2845 36.498C 44.1752 35.6074 44.6205 34.3535 44.6205 32.7363L 44.6205 31.1016C 43.3197 32.6016 41.5443 33.3516 39.2943 33.3516C 37.0677 33.3516 35.2631 32.4551 33.8802 30.6621C 32.5092 28.8691 31.8236 26.4258 31.8236 23.332ZM 35.0931 23.7012C 35.0931 25.8457 35.5326 27.5332 36.4115 28.7637C 37.2904 29.9824 38.5209 30.5918 40.1029 30.5918C 42.1537 30.5918 43.6595 29.6602 44.6205 27.7969L 44.6205 19.1133C 43.6244 17.2969 42.1302 16.3887 40.1381 16.3887C 38.556 16.3887 37.3197 17.0039 36.4291 18.2344C 35.5384 19.4648 35.0931 21.2871 35.0931 23.7012ZM 55.8917 13.9805L 55.9971 16.3711C 57.4503 14.543 59.3487 13.6289 61.6924 13.6289C 65.712 13.6289 67.7393 15.8965 67.7745 20.4316L 67.7745 33L 64.5225 33L 64.5225 20.4141C 64.5108 19.043 64.1944 18.0293 63.5733 17.373C 62.9639 16.7168 62.0088 16.3887 60.7081 16.3887C 59.6534 16.3887 58.7276 16.6699 57.9307 17.2324C 57.1338 17.7949 56.5128 18.5332 56.0674 19.4473L 56.0674 33L 52.8155 33L 52.8155 13.9805L 55.8917 13.9805ZM 93.3578 31.1191C 92.0922 32.6074 90.2348 33.3516 87.7856 33.3516C 85.7582 33.3516 84.2114 32.7656 83.145 31.5938C 82.0903 30.4102 81.5571 28.6641 81.5453 26.3555L 81.5453 13.9805L 84.7973 13.9805L 84.7973 26.2676C 84.7973 29.1504 85.9692 30.5918 88.3129 30.5918C 90.7973 30.5918 92.4496 29.666 93.27 27.8145L 93.27 13.9805L 96.5219 13.9805L 96.5219 33L 93.4282 33L 93.3578 31.1191ZM 117.549 23.7012C 117.549 26.5957 116.887 28.9277 115.563 30.6973C 114.238 32.4668 112.445 33.3516 110.184 33.3516C 107.875 33.3516 106.059 32.6191 104.734 31.1543L 104.734 40.3125L 101.483 40.3125L 101.483 13.9805L 104.453 13.9805L 104.611 16.0898C 105.936 14.4492 107.776 13.6289 110.131 13.6289C 112.416 13.6289 114.221 14.4902 115.545 16.2129C 116.881 17.9355 117.549 20.332 117.549 23.4023L 117.549 23.7012ZM 114.297 23.332C 114.297 21.1875 113.84 19.4941 112.926 18.252C 112.012 17.0098 110.758 16.3887 109.164 16.3887C 107.195 16.3887 105.719 17.2617 104.734 19.0078L 104.734 28.0957C 105.707 29.8301 107.195 30.6973 109.199 30.6973C 110.758 30.6973 111.994 30.082 112.908 28.8516C 113.834 27.6094 114.297 25.7695 114.297 23.332Z"/>
</defs>
</svg>
