<svg width="1404" height="393" viewBox="0 0 1404 393" version="1.1" xmlns="http://www.w3.org/2000/svg" xmlns:xlink="http://www.w3.org/1999/xlink">
<title>logo_gettravel_02</title>
<desc>Created using Figma</desc>
<g id="Canvas" transform="translate(209 656)">
<g id="logo_gettravel_02">
<g id="Vector">
<use xlink:href="#path0_fill" transform="translate(-206 -489.3)" fill="#E2924D"/>
<use xlink:href="#path1_stroke" transform="translate(-206 -489.3)" fill="#E2924D"/>
</g>
<g id="Vector">
<use xlink:href="#path2_stroke" transform="translate(-127.2 -575.6)" fill="#E2924D"/>
</g>
<g id="Vector">
<use xlink:href="#path3_fill" transform="translate(-97.4 -545.4)" fill="#E2924D"/>
</g>
<g id="Vector">
<use xlink:href="#path4_stroke" transform="matrix(0.6166 -0.7873 0.7873 0.6166 -21.8907 -460.754)" fill="#E2924D"/>
</g>
<g id="Group">
<g id="Vector">
<use xlink:href="#path5_fill" transform="translate(257.7 -514.6)" fill="#131515"/>
</g>
<g id="Vector">
<use xlink:href="#path6_fill" transform="translate(372 -513.1)" fill="#131515"/>
</g>
<g id="Vector">
<use xlink:href="#path7_fill" transform="translate(461.8 -513.3)" fill="#131515"/>
</g>
<g id="Vector">
<use xlink:href="#path8_fill" transform="translate(606.2 -513.3)" fill="#131515"/>
</g>
<g id="Vector">
<use xlink:href="#path9_fill" transform="translate(715.3 -513.2)" fill="#131515"/>
</g>
<g id="Vector">
<use xlink:href="#path10_fill" transform="translate(918.296 -513.1)" fill="#131515"/>
</g>
<g id="Vector">
<use xlink:href="#path11_fill" transform="translate(1033.9 -513.1)" fill="#131515"/>
</g>
<g id="Vector">
<use xlink:href="#path12_fill" transform="translate(1128.8 -513.2)" fill="#131515"/>
</g>
</g>
<g id="Vector">
<use xlink:href="#path13_fill" transform="translate(-41.1 -653)" fill="#E2924D"/>
<use xlink:href="#path14_stroke" transform="translate(-41.1 -653)" fill="#E2924D"/>
</g>
<g id="Vector">
<use xlink:href="#path15_fill" transform="translate(123.2 -490.3)" fill="#E2924D"/>
<use xlink:href="#path16_stroke" transform="translate(123.2 -490.3)" fill="#E2924D"/>
</g>
<g id="Vector">
<use xlink:href="#path17_fill" transform="translate(-41.2 -324.6)" fill="#E2924D"/>
<use xlink:href="#path18_stroke" transform="translate(-41.2 -324.6)" fill="#E2924D"/>
</g>
<g id="Vector">
<use xlink:href="#path19_fill" transform="translate(-132.5 -568.6)" fill="#E2924D"/>
<use xlink:href="#path20_stroke" transform="translate(-132.5 -568.6)" fill="#E2924D"/>
</g>
<g id="Vector">
<use xlink:href="#path21_fill" transform="translate(82.9 -568.5)" fill="#E2924D"/>
<use xlink:href="#path22_stroke" transform="translate(82.9 -568.5)" fill="#E2924D"/>
</g>
<g id="Vector">
<use xlink:href="#path23_fill" transform="translate(84.5 -377)" fill="#E2924D"/>
<use xlink:href="#path24_stroke" transform="translate(84.5 -377)" fill="#E2924D"/>
</g>
<g id="Vector">
<use xlink:href="#path25_fill" transform="translate(-132.9 -376.5)" fill="#E2924D"/>
<use xlink:href="#path26_stroke" transform="translate(-132.9 -376.5)" fill="#E2924D"/>
</g>
<g id="Vector">
<use xlink:href="#path27_fill" transform="translate(816.736 -513.1)" fill="#131515"/>
</g>
</g>
</g>
<defs>
<path id="path0_fill" fill-rule="evenodd" d="M 58.4 56L 6.10352e-06 28L 58.4 0C 58.4 0 55.3 13.6 55.3 27.9C 55.3 42.3 58.4 56 58.4 56Z"/>
<path id="path1_stroke" d="M 58.4 56L 57.3192 58.2543C 58.1836 58.6688 59.209 58.5524 59.9586 57.9547C 60.7082 57.357 61.0499 56.3833 60.8384 55.4483L 58.4 56ZM 6.10352e-06 28L -1.08082 25.7457C -1.94815 26.1616 -2.49999 27.0381 -2.49999 28C -2.49999 28.9619 -1.94815 29.8384 -1.08082 30.2543L 6.10352e-06 28ZM 58.4 0L 60.8375 0.555603C 61.0507 -0.379813 60.7098 -1.35474 59.9601 -1.95346C 59.2105 -2.55218 58.1843 -2.66907 57.3192 -2.25429L 58.4 0ZM 59.4808 53.7457L 1.08083 25.7457L -1.08082 30.2543L 57.3192 58.2543L 59.4808 53.7457ZM 1.08083 30.2543L 59.4808 2.25429L 57.3192 -2.25429L -1.08082 25.7457L 1.08083 30.2543ZM 58.4 0C 55.9625 -0.555603 55.9624 -0.55528 55.9624 -0.554905C 55.9623 -0.554711 55.9622 -0.554283 55.9621 -0.553895C 55.962 -0.553299 55.9617 -0.552132 55.9615 -0.550941C 55.961 -0.548922 55.9602 -0.545346 55.9593 -0.541318C 55.9576 -0.53399 55.9549 -0.521905 55.9516 -0.507335C 55.9454 -0.479664 55.9357 -0.436053 55.9237 -0.381449C 55.9003 -0.275227 55.8649 -0.112575 55.8212 0.0937852C 55.735 0.500344 55.6095 1.1087 55.4614 1.87243C 55.1677 3.38683 54.7708 5.58697 54.3774 8.2181C 53.5959 13.4522 52.8038 20.6117 52.8 27.9L 57.8 27.9C 57.7962 20.8882 58.5541 14.0978 59.3226 8.95689C 59.7042 6.40052 60.0823 4.30692 60.3699 2.82445C 60.5123 2.08974 60.6291 1.52387 60.7124 1.13082C 60.7534 0.937379 60.7847 0.793879 60.8067 0.6939C 60.8174 0.645403 60.8251 0.610902 60.8306 0.586235C 60.8332 0.574636 60.8349 0.566996 60.8362 0.561141C 60.8368 0.558578 60.8371 0.557198 60.8374 0.555909C 60.8375 0.555446 60.8375 0.555371 60.8376 0.555138C 60.8376 0.555112 60.8376 0.555229 60.8376 0.555216C 60.8375 0.555384 60.8375 0.555603 58.4 0ZM 52.8 27.9C 52.8038 35.2373 53.5956 42.4455 54.3771 47.7168C 54.7703 50.3664 55.1671 52.5818 55.4607 54.1071C 55.6088 54.8762 55.7342 55.4887 55.8204 55.8981C 55.8641 56.1059 55.8995 56.2696 55.9229 56.3766C 55.9349 56.4315 55.9446 56.4754 55.9508 56.5032C 55.954 56.5179 55.9568 56.53 55.9584 56.5374C 55.9593 56.5415 55.9601 56.5451 55.9606 56.5471C 55.9609 56.5483 55.9611 56.5494 55.9613 56.55C 55.9613 56.5504 55.9614 56.5509 55.9615 56.551C 55.9616 56.5514 55.9616 56.5517 58.4 56C 60.8384 55.4483 60.8384 55.4485 60.8384 55.4486C 60.8384 55.4486 60.8385 55.4487 60.8385 55.4487C 60.8384 55.4485 60.8384 55.4484 60.8383 55.4479C 60.838 55.4466 60.8377 55.4452 60.8371 55.4426C 60.8358 55.4367 60.834 55.429 60.8314 55.4173C 60.8259 55.3924 60.8182 55.3576 60.8075 55.3087C 60.7855 55.2079 60.7542 55.0632 60.7132 54.8683C 60.6298 54.4723 60.513 53.902 60.3705 53.1617C 60.0829 51.6682 59.7047 49.5586 59.3229 46.9832C 58.5544 41.8045 57.7962 34.9627 57.8 27.9L 52.8 27.9Z"/>
<path id="path2_stroke" d="M 115.7 1.2207e-05L 115.7 9.00001L 115.7 1.2207e-05ZM 222.4 115.7C 222.4 174.629 174.629 222.4 115.7 222.4L 115.7 240.4C 184.571 240.4 240.4 184.571 240.4 115.7L 222.4 115.7ZM 115.7 222.4C 56.7706 222.4 8.99999 174.629 8.99999 115.7L -9.00001 115.7C -9.00001 184.571 46.8294 240.4 115.7 240.4L 115.7 222.4ZM 8.99999 115.7C 8.99999 56.7706 56.7706 9.00001 115.7 9.00001L 115.7 -8.99999C 46.8294 -8.99999 -9.00001 46.8294 -9.00001 115.7L 8.99999 115.7ZM 115.7 9.00001C 178.2 9.00001 222.4 60.9303 222.4 115.7L 240.4 115.7C 240.4 51.8697 189 -8.99999 115.7 -8.99999L 115.7 9.00001Z"/>
<path id="path3_fill" d="M 85.4 -6.10352e-06C 38.2 -6.10352e-06 1.2207e-05 38.2 1.2207e-05 85.4C 1.2207e-05 132.6 38.2 170.8 85.4 170.8C 132.6 170.8 170.8 132.6 170.8 85.4C 170.8 41.7 135.5 -6.10352e-06 85.4 -6.10352e-06ZM 105.1 104.7C 93.2 116.2 38.2 132.8 35.7 130.2C 33.2 127.6 51.8 73.5 63.9 61.9C 76 50.3 130.4 33.4 133.3 36.4C 136.2 39.4 117 93.3 105.1 104.7Z"/>
<path id="path4_stroke" d="M 10.5 6.49999C 10.5 8.70913 8.70913 10.5 6.49999 10.5L 6.49999 15.5C 11.4706 15.5 15.5 11.4706 15.5 6.49999L 10.5 6.49999ZM 6.49999 10.5C 4.29085 10.5 2.49999 8.70913 2.49999 6.49999L -2.50001 6.49999C -2.50001 11.4706 1.52942 15.5 6.49999 15.5L 6.49999 10.5ZM 2.49999 6.49999C 2.49999 4.29085 4.29085 2.49999 6.49999 2.49999L 6.49999 -2.50001C 1.52942 -2.50001 -2.50001 1.52943 -2.50001 6.49999L 2.49999 6.49999ZM 6.49999 2.49999C 8.70913 2.49999 10.5 4.29085 10.5 6.49999L 15.5 6.49999C 15.5 1.52943 11.4706 -2.50001 6.49999 -2.50001L 6.49999 2.49999Z"/>
<path id="path5_fill" d="M 83.1 89.7C 83.1 90.1 83 90.5 82.7 90.8C 79 95.1 73.8 98.4 67.1 100.8C 60.2 103.3 52.6 104.5 44.2 104.5C 35.4 104.5 27.7 102.6 21 98.7C 14.3 94.8 9.20002 89.3 5.60002 82C 2.00002 74.7 0.0999878 66.1 -1.2207e-05 56.2L -1.2207e-05 49.3C -1.2207e-05 39.1 1.70002 30.4 5.10002 22.9C 8.50002 15.5 13.5 9.80001 19.9 5.90001C 26.3 2.00001 33.9 1.2207e-05 42.6 1.2207e-05C 54.7 1.2207e-05 64.1 2.89999 70.9 8.59999C 77.3 14 81.3 21.8 82.7 31.8C 82.8 32.8 82.1 33.7 81.1 33.7L 64 33.7C 63.2 33.7 62.5 33.1 62.4 32.3C 61.4 27.2 59.4 23.4 56.5 20.9C 53.3 18.2 48.9 16.8 43.3 16.8C 36.2 16.8 30.7 19.5 27 24.8C 23.3 30.2 21.4 38.1 21.3 48.7L 21.3 55.2C 21.3 65.9 23.3 73.9 27.4 79.4C 31.5 84.8 37.4 87.6 45.2 87.6C 52.7 87.6 58.1 86.1 61.5 83.1C 61.8 82.8 62 82.3 62 81.9L 62 66.8C 62 65.9 61.3 65.1 60.3 65.1L 44.6 65.1C 43.7 65.1 42.9 64.4 42.9 63.4L 42.9 51.3C 42.9 50.4 43.6 49.6 44.6 49.6L 81.3 49.6C 82.2 49.6 83 50.3 83 51.3L 83 89.7L 83.1 89.7Z"/>
<path id="path6_fill" d="M 59.6 57.4L 22.7 57.4C 21.8 57.4 21 58.1 21 59.1L 21 83.2C 21 84.1 21.7 84.9 22.7 84.9L 66.6 84.9C 67.5 84.9 68.3 85.6 68.3 86.6L 68.3 100.1C 68.3 101 67.6 101.8 66.6 101.8L 1.69999 101.8C 0.799988 101.8 -2.44141e-05 101.1 -2.44141e-05 100.1L -2.44141e-05 1.69999C -2.44141e-05 0.799994 0.699988 1.2207e-05 1.69999 1.2207e-05L 66.4 1.2207e-05C 67.3 1.2207e-05 68.1 0.699994 68.1 1.69999L 68.1 15.3C 68.1 16.2 67.4 17 66.4 17L 22.6 17C 21.7 17 20.9 17.7 20.9 18.7L 20.9 39.6C 20.9 40.5 21.6 41.3 22.6 41.3L 59.5 41.3C 60.4 41.3 61.2 42 61.2 43L 61.2 56C 61.3 56.7 60.5 57.4 59.6 57.4Z"/>
<path id="path7_fill" d="M 81.2999 17.1L 53.5 17.1C 52.6 17.1 51.7999 17.8 51.7999 18.8L 51.7999 100.2C 51.7999 101.1 51.1 101.9 50.1 101.9L 32.5 101.9C 31.6 101.9 30.8 101.2 30.8 100.2L 30.8 18.8C 30.8 17.9 30.1 17.1 29.1 17.1L 1.69998 17.1C 0.799976 17.1 2.44141e-05 16.4 2.44141e-05 15.4L 2.44141e-05 1.70001C 2.44141e-05 0.800012 0.699976 -1.13687e-13 1.69998 -1.13687e-13L 81.2 -1.13687e-13C 82.1 -1.13687e-13 82.9 0.700012 82.9 1.70001L 82.9 15.5C 83 16.4 82.2999 17.1 81.2999 17.1Z"/>
<path id="path8_fill" d="M 81.3 17.1L 53.5 17.1C 52.6 17.1 51.8 17.8 51.8 18.8L 51.8 100.2C 51.8 101.1 51.1 101.9 50.1 101.9L 32.5 101.9C 31.6 101.9 30.8 101.2 30.8 100.2L 30.8 18.8C 30.8 17.9 30.1 17.1 29.1 17.1L 1.7 17.1C 0.8 17.1 4.88281e-05 16.4 4.88281e-05 15.4L 4.88281e-05 1.70001C 4.88281e-05 0.800012 0.7 -1.13687e-13 1.7 -1.13687e-13L 81.2 -1.13687e-13C 82.1 -1.13687e-13 82.8999 0.700012 82.8999 1.70001L 82.8999 15.5C 82.8999 16.4 82.2 17.1 81.3 17.1Z"/>
<path id="path9_fill" d="M 36.7 64.5L 22.7 64.5C 21.8 64.5 21 65.2 21 66.2L 21 100.1C 21 101 20.3 101.8 19.3 101.8L 1.69998 101.8C 0.799976 101.8 2.44141e-05 101.1 2.44141e-05 100.1L 2.44141e-05 1.69999C 2.44141e-05 0.799988 0.699976 6.10352e-06 1.69998 6.10352e-06L 37.7999 6.10352e-06C 49.7999 6.10352e-06 59.1 2.70001 65.6 8.00001C 72.1 13.4 75.4 20.9 75.4 30.7C 75.4 37.6 73.9 43.4 70.9 48.1C 68.1 52.3 64.0999 55.8 58.7999 58.5C 57.9999 58.9 57.7 59.9 58.1 60.7L 79.2999 100.7L 79.2999 101.7L 57.7999 101.7C 57.1999 101.7 56.5999 101.4 56.2999 100.8L 38.2 65.4C 37.9 64.9 37.4 64.5 36.7 64.5ZM 21.1 45.9C 21.1 46.8 21.8 47.6 22.8 47.6L 38 47.6C 43.3 47.6 47.3 46.3 50.2 43.6C 53.1 40.9 54.5 37.2 54.5 32.5C 54.5 27.7 53.1 23.9 50.4 21.2C 47.7 18.5 43.5 17.1 37.9 17.1L 22.7 17.1C 21.8 17.1 21 17.8 21 18.8L 21 45.9L 21.1 45.9Z"/>
<path id="path10_fill" d="M 47.1041 71.2L 68.204 1.19999C 68.404 0.499994 69.104 1.2207e-05 69.804 1.2207e-05L 89.604 1.2207e-05C 90.704 1.2207e-05 91.504 1.09999 91.204 2.19999L 56.9041 100.6C 56.7041 101.3 56.004 101.7 55.304 101.7L 35.804 101.7C 35.104 101.7 34.504 101.3 34.204 100.6L 0.104052 2.19999C -0.295948 1.09999 0.504027 1.2207e-05 1.70403 1.2207e-05L 21.4041 1.2207e-05C 22.1041 1.2207e-05 22.8041 0.499994 23.0041 1.19999L 44.0041 71.2C 44.3041 72.7 46.6041 72.7 47.1041 71.2Z"/>
<path id="path11_fill" d="M 59.6 57.4L 22.7 57.4C 21.8 57.4 21 58.1 21 59.1L 21 83.2C 21 84.1 21.7 84.9 22.7 84.9L 66.6 84.9C 67.5 84.9 68.3 85.6 68.3 86.6L 68.3 100.1C 68.3 101 67.6 101.8 66.6 101.8L 1.69995 101.8C 0.799951 101.8 2.27374e-13 101.1 2.27374e-13 100.1L 2.27374e-13 1.69999C 2.27374e-13 0.799994 0.699951 1.2207e-05 1.69995 1.2207e-05L 66.4 1.2207e-05C 67.3 1.2207e-05 68.1 0.699994 68.1 1.69999L 68.1 15.3C 68.1 16.2 67.4 17 66.4 17L 22.6 17C 21.7 17 20.9 17.7 20.9 18.7L 20.9 39.6C 20.9 40.5 21.6 41.3 22.6 41.3L 59.5 41.3C 60.4 41.3 61.2 42 61.2 43L 61.2 56C 61.3 56.7 60.6 57.4 59.6 57.4Z"/>
<path id="path12_fill" d="M 22.6 84.9L 63.7999 84.9C 64.6999 84.9 65.5 85.6 65.5 86.6L 65.5 100.1C 65.5 101 64.7999 101.8 63.7999 101.8L 1.69998 101.8C 0.799976 101.8 2.44141e-05 101.1 2.44141e-05 100.1L 2.44141e-05 1.69999C 2.44141e-05 0.799988 0.699976 6.10352e-06 1.69998 6.10352e-06L 19.3 6.10352e-06C 20.2 6.10352e-06 21 0.699988 21 1.69999L 21 83.2C 20.9 84.2 21.7 84.9 22.6 84.9Z"/>
<path id="path13_fill" fill-rule="evenodd" d="M 0 58.4L 28 -1.2207e-05L 56 58.4C 56 58.4 42.4 55.3 28.1 55.3C 13.7 55.3 0 58.4 0 58.4Z"/>
<path id="path14_stroke" d="M 0 58.4L -2.25429 57.3192C -2.66876 58.1837 -2.55237 59.209 -1.95469 59.9586C -1.35701 60.7082 -0.38331 61.05 0.551745 60.8384L 0 58.4ZM 28 -1.2207e-05L 30.2543 -1.08084C 29.8384 -1.94817 28.9619 -2.50001 28 -2.50001C 27.0381 -2.50001 26.1616 -1.94817 25.7457 -1.08084L 28 -1.2207e-05ZM 56 58.4L 55.4444 60.8375C 56.3798 61.0507 57.3547 60.7098 57.9535 59.9601C 58.5522 59.2105 58.6691 58.1843 58.2543 57.3192L 56 58.4ZM 28.1 55.3L 28.1 52.8L 28.1 55.3ZM 2.25429 59.4808L 30.2543 1.08081L 25.7457 -1.08084L -2.25429 57.3192L 2.25429 59.4808ZM 25.7457 1.08081L 53.7457 59.4808L 58.2543 57.3192L 30.2543 -1.08084L 25.7457 1.08081ZM 56 58.4C 56.5556 55.9625 56.5553 55.9625 56.5549 55.9624C 56.5547 55.9623 56.5543 55.9622 56.5539 55.9621C 56.5533 55.962 56.5521 55.9617 56.5509 55.9615C 56.5489 55.961 56.5453 55.9602 56.5413 55.9593C 56.534 55.9576 56.5219 55.9549 56.5073 55.9516C 56.4797 55.9454 56.4361 55.9357 56.3814 55.9237C 56.2752 55.9003 56.1126 55.8649 55.9062 55.8212C 55.4997 55.735 54.8913 55.6095 54.1276 55.4614C 52.6132 55.1677 50.413 54.7708 47.7819 54.3775C 42.5478 53.5959 35.3883 52.8038 28.1 52.8L 28.1 57.8C 35.1118 57.7962 41.9022 58.5541 47.0431 59.3226C 49.5995 59.7042 51.6931 60.0823 53.1756 60.3699C 53.9103 60.5124 54.4761 60.6291 54.8692 60.7124C 55.0626 60.7535 55.2061 60.7847 55.3061 60.8067C 55.3546 60.8174 55.3891 60.8251 55.4138 60.8306C 55.4254 60.8332 55.433 60.8349 55.4389 60.8362C 55.4414 60.8368 55.4428 60.8371 55.4441 60.8374C 55.4446 60.8375 55.4446 60.8375 55.4449 60.8376C 55.4449 60.8376 55.4448 60.8376 55.4448 60.8376C 55.4446 60.8375 55.4444 60.8375 56 58.4ZM 28.1 52.8C 20.7627 52.8038 13.5545 53.5956 8.2832 54.3771C 5.63358 54.7704 3.41817 55.1671 1.89294 55.4607C 1.12384 55.6089 0.511333 55.7342 0.10189 55.8204C -0.105892 55.8642 -0.269604 55.8995 -0.376562 55.9229C -0.431524 55.9349 -0.475392 55.9446 -0.503245 55.9508C -0.517901 55.9541 -0.530044 55.9568 -0.537416 55.9584C -0.541464 55.9593 -0.545051 55.9601 -0.547079 55.9606C -0.548274 55.9609 -0.549442 55.9611 -0.550039 55.9613C -0.550428 55.9614 -0.550855 55.9615 -0.551049 55.9615C -0.551424 55.9616 -0.551745 55.9617 0 58.4C 0.551745 60.8384 0.551528 60.8384 0.551363 60.8385C 0.551377 60.8385 0.551264 60.8385 0.551292 60.8385C 0.551529 60.8384 0.551613 60.8384 0.552084 60.8383C 0.553388 60.838 0.554793 60.8377 0.557385 60.8371C 0.563293 60.8358 0.57102 60.834 0.582725 60.8314C 0.607594 60.8259 0.642413 60.8182 0.691308 60.8075C 0.792065 60.7855 0.936752 60.7542 1.1317 60.7132C 1.52773 60.6298 2.09803 60.513 2.83831 60.3705C 4.33183 60.0829 6.44143 59.7047 9.0168 59.323C 14.1955 58.5544 21.0373 57.7962 28.1 57.8L 28.1 52.8Z"/>
<path id="path15_fill" fill-rule="evenodd" d="M -1.2207e-05 0L 58.4 28L -1.2207e-05 56C -1.2207e-05 56 3.10002 42.4 3.10002 28.1C 3.10002 13.8 -1.2207e-05 0 -1.2207e-05 0Z"/>
<path id="path16_stroke" d="M -1.2207e-05 0L 1.08081 -2.25429C 0.216974 -2.66846 -0.807575 -2.55257 -1.55707 -1.95591C -2.30657 -1.35924 -2.6492 -0.386753 -2.43922 0.547945L -1.2207e-05 0ZM 58.4 28L 59.4808 30.2543C 60.3482 29.8384 60.9 28.9619 60.9 28C 60.9 27.0381 60.3482 26.1616 59.4808 25.7457L 58.4 28ZM -1.2207e-05 56L -2.43749 55.4444C -2.65071 56.3798 -2.30981 57.3547 -1.56014 57.9535C -0.810477 58.5522 0.215696 58.6691 1.08081 58.2543L -1.2207e-05 56ZM -1.08084 2.25429L 57.3192 30.2543L 59.4808 25.7457L 1.08081 -2.25429L -1.08084 2.25429ZM 57.3192 25.7457L -1.08084 53.7457L 1.08081 58.2543L 59.4808 30.2543L 57.3192 25.7457ZM -1.2207e-05 56C 2.43747 56.5556 2.43754 56.5553 2.43762 56.5549C 2.43767 56.5547 2.43777 56.5543 2.43785 56.5539C 2.43799 56.5533 2.43826 56.5521 2.43853 56.5509C 2.43898 56.5489 2.43979 56.5454 2.44071 56.5413C 2.44236 56.534 2.44509 56.5219 2.44835 56.5073C 2.45455 56.4797 2.46427 56.4361 2.4763 56.3815C 2.49969 56.2752 2.53507 56.1126 2.57883 55.9062C 2.66502 55.4997 2.79046 54.8913 2.93863 54.1276C 3.2323 52.6132 3.62919 50.413 4.02256 47.7819C 4.80409 42.5478 5.5962 35.3883 5.60002 28.1L 0.600024 28.1C 0.60385 35.1118 -0.154057 41.9022 -0.922552 47.0431C -1.30418 49.5995 -1.68231 51.6931 -1.9699 53.1755C -2.11235 53.9103 -2.2291 54.4761 -2.31244 54.8692C -2.35345 55.0626 -2.38467 55.2061 -2.40669 55.3061C -2.41737 55.3546 -2.42506 55.3891 -2.43059 55.4138C -2.43319 55.4254 -2.43491 55.433 -2.43624 55.4389C -2.43682 55.4414 -2.43713 55.4428 -2.43742 55.4441C -2.43753 55.4445 -2.43754 55.4446 -2.4376 55.4449C -2.4376 55.4449 -2.43758 55.4448 -2.43758 55.4448C -2.43754 55.4446 -2.43749 55.4444 -1.2207e-05 56ZM 5.60002 28.1C 5.59625 20.8127 4.80444 13.6049 4.02308 8.32156C 3.62988 5.66618 3.23329 3.44214 2.93973 1.90935C 2.79166 1.13659 2.66637 0.520937 2.58024 0.109077C 2.53653 -0.0998538 2.50123 -0.26441 2.47787 -0.372016C 2.46587 -0.427273 2.45619 -0.471327 2.45001 -0.499337C 2.44675 -0.514057 2.44405 -0.526226 2.4424 -0.533631C 2.4415 -0.537688 2.44069 -0.541271 2.44024 -0.543305C 2.43997 -0.544498 2.43971 -0.545659 2.43958 -0.546256C 2.43949 -0.546643 2.4394 -0.547066 2.43935 -0.547259C 2.43927 -0.547628 2.4392 -0.547945 -1.2207e-05 0C -2.43922 0.547945 -2.43927 0.547734 -2.43931 0.547575C -2.4393 0.547592 -2.43933 0.547485 -2.43932 0.547518C -2.43927 0.547762 -2.43924 0.547861 -2.43913 0.548346C -2.43884 0.549669 -2.43852 0.551114 -2.43793 0.553745C -2.4366 0.559715 -2.43486 0.567557 -2.43224 0.579384C -2.4267 0.604469 -2.41897 0.639651 -2.40827 0.68896C -2.38622 0.790485 -2.35491 0.936378 -2.31385 1.13272C -2.23046 1.53141 -2.11355 2.1056 -1.97099 2.85003C -1.6833 4.35161 -1.30487 6.47133 -0.923065 9.05345C -0.154407 14.2451 0.603796 21.0873 0.600024 28.1L 5.60002 28.1Z"/>
<path id="path17_fill" fill-rule="evenodd" d="M 56 1.2207e-05L 28 58.4L -6.10352e-06 1.2207e-05C -6.10352e-06 1.2207e-05 13.6 3.09999 27.9 3.09999C 42.3 3.09999 56 1.2207e-05 56 1.2207e-05Z"/>
<path id="path18_stroke" d="M 56 1.2207e-05L 58.2543 1.08084C 58.6688 0.216368 58.5524 -0.808986 57.9547 -1.55857C 57.357 -2.30815 56.3833 -2.64992 55.4483 -2.43834L 56 1.2207e-05ZM 28 58.4L 25.7457 59.4808C 26.1616 60.3481 27.0381 60.9 28 60.9C 28.9619 60.9 29.8384 60.3481 30.2543 59.4808L 28 58.4ZM -6.10352e-06 1.2207e-05L 0.555592 -2.43747C -0.379824 -2.65069 -1.35475 -2.30978 -1.95347 -1.56011C -2.55219 -0.810448 -2.66908 0.215723 -2.2543 1.08084L -6.10352e-06 1.2207e-05ZM 27.9 3.09999L 27.9 5.59999L 27.9 3.09999ZM 53.7457 -1.08081L 25.7457 57.3191L 30.2543 59.4808L 58.2543 1.08084L 53.7457 -1.08081ZM 30.2543 57.3192L 2.25428 -1.08081L -2.2543 1.08084L 25.7457 59.4808L 30.2543 57.3192ZM -6.10352e-06 1.2207e-05C -0.555604 2.43749 -0.555281 2.43757 -0.554906 2.43765C -0.554711 2.4377 -0.554284 2.43779 -0.553895 2.43788C -0.5533 2.43802 -0.552133 2.43828 -0.550942 2.43855C -0.548923 2.43901 -0.545347 2.43982 -0.541319 2.44073C -0.533991 2.44239 -0.521906 2.44511 -0.507335 2.44838C -0.479665 2.45458 -0.436054 2.4643 -0.38145 2.47632C -0.275228 2.49971 -0.112576 2.53509 0.093784 2.57885C 0.500343 2.66504 1.1087 2.79048 1.87242 2.93865C 3.38683 3.23231 5.58697 3.62919 8.2181 4.02256C 13.4522 4.80407 20.6117 5.59616 27.9 5.59999L 27.9 0.599988C 20.8882 0.603813 14.0978 -0.15408 8.95688 -0.922559C 6.40051 -1.30418 4.30691 -1.6823 2.82444 -1.96988C 2.08972 -2.11234 1.52386 -2.22908 1.13081 -2.31242C 0.937368 -2.35343 0.793868 -2.38465 0.693888 -2.40667C 0.645392 -2.41735 0.61089 -2.42504 0.586223 -2.43057C 0.574625 -2.43317 0.566985 -2.43489 0.56113 -2.43621C 0.558567 -2.43679 0.557187 -2.43711 0.555898 -2.4374C 0.555435 -2.4375 0.55536 -2.43752 0.555127 -2.43757C 0.555101 -2.43758 0.555218 -2.43755 0.555205 -2.43756C 0.555372 -2.43752 0.555592 -2.43747 -6.10352e-06 1.2207e-05ZM 27.9 5.59999C 35.2373 5.59622 42.4455 4.80436 47.7168 4.02295C 50.3664 3.62966 52.5818 3.23291 54.1071 2.93929C 54.8762 2.79116 55.4887 2.66578 55.8981 2.57961C 56.1059 2.53587 56.2696 2.50053 56.3766 2.47714C 56.4315 2.46513 56.4754 2.45542 56.5033 2.44923C 56.5179 2.44597 56.5301 2.44325 56.5374 2.44159C 56.5415 2.44069 56.5451 2.43988 56.5471 2.43942C 56.5483 2.43915 56.5495 2.43889 56.5501 2.43875C 56.5504 2.43867 56.5509 2.43857 56.5511 2.43853C 56.5514 2.43844 56.5518 2.43837 56 1.2207e-05C 55.4483 -2.43834 55.4485 -2.43839 55.4487 -2.43843C 55.4487 -2.43843 55.4488 -2.43845 55.4487 -2.43845C 55.4485 -2.43839 55.4484 -2.43837 55.4479 -2.43827C 55.4466 -2.43797 55.4452 -2.43766 55.4426 -2.43708C 55.4367 -2.43575 55.429 -2.43402 55.4173 -2.43142C 55.3924 -2.42588 55.3576 -2.41818 55.3087 -2.40749C 55.208 -2.38546 55.0633 -2.35421 54.8683 -2.31319C 54.4723 -2.22982 53.902 -2.11302 53.1617 -1.97052C 51.6682 -1.6829 49.5586 -1.30465 46.9832 -0.922946C 41.8045 -0.154374 34.9627 0.603759 27.9 0.599988L 27.9 5.59999Z"/>
<path id="path19_fill" fill-rule="evenodd" d="M 10.8 25.5L 6.10352e-06 1.2207e-05L 26.7 7.59999C 26.7 7.59999 21.8 11.1 17.8 15.7C 13.7 20.2 10.8 25.5 10.8 25.5Z"/>
<path id="path20_stroke" d="M 10.8 25.5L 8.49795 26.475C 8.87182 27.3577 9.71754 27.949 10.675 27.9969C 11.6324 28.0448 12.533 27.541 12.9932 26.7L 10.8 25.5ZM 6.10352e-06 1.2207e-05L 0.684428 -2.40448C -0.241256 -2.66797 -1.236 -2.37667 -1.87333 -1.65547C -2.51066 -0.93427 -2.67739 0.0887501 -2.30204 0.974995L 6.10352e-06 1.2207e-05ZM 26.7 7.59999L 28.1531 9.63432C 28.9345 9.07614 29.3272 8.11966 29.1633 7.17341C 28.9995 6.22716 28.3081 5.45841 27.3844 5.1955L 26.7 7.59999ZM 17.8 15.7L 19.648 17.3837C 19.661 17.3694 19.6738 17.355 19.6865 17.3404L 17.8 15.7ZM 13.102 24.525L 2.30205 -0.97497L -2.30204 0.974995L 8.49795 26.475L 13.102 24.525ZM -0.684416 2.4045L 26.0156 10.0045L 27.3844 5.1955L 0.684428 -2.40448L -0.684416 2.4045ZM 26.7 7.59999C 25.2469 5.56566 25.2466 5.56584 25.2464 5.56603C 25.2462 5.56611 25.246 5.56632 25.2457 5.56649C 25.2454 5.56671 25.2447 5.5672 25.2441 5.56764C 25.2432 5.56829 25.2414 5.56961 25.2396 5.57091C 25.2365 5.57306 25.2311 5.57698 25.2251 5.58128C 25.2144 5.58898 25.1965 5.60191 25.1755 5.61719C 25.1359 5.64589 25.0731 5.69172 24.9967 5.74812C 24.8492 5.85706 24.6242 6.02524 24.351 6.23453C 23.8158 6.64485 23.0342 7.26115 22.1414 8.01128C 20.379 9.49332 18.0123 11.6523 15.9135 14.0595L 19.6865 17.3404C 21.5877 15.1476 23.671 13.2567 25.3586 11.8387C 26.1907 11.1388 26.8842 10.5926 27.3927 10.2029C 27.6414 10.0122 27.8305 9.87104 27.9665 9.77061C 28.0319 9.72232 28.0783 9.68846 28.1125 9.66365C 28.1283 9.65217 28.1384 9.64488 28.1465 9.63905C 28.1499 9.63659 28.1516 9.63542 28.1533 9.63418C 28.1538 9.63378 28.1544 9.63342 28.1541 9.63362C 28.1541 9.6336 28.1538 9.63382 28.1538 9.63381C 28.1537 9.63387 28.1535 9.634 28.1535 9.63403C 28.1533 9.63417 28.1531 9.63432 26.7 7.59999ZM 15.952 14.0163C 13.8054 16.3788 11.9371 18.9878 10.6718 20.9168C 10.0314 21.8941 9.51085 22.7457 9.16616 23.3276C 8.99033 23.6245 8.84966 23.8688 8.75878 24.0288C 8.71172 24.1117 8.67355 24.1797 8.64968 24.2226C 8.63697 24.2454 8.62622 24.2648 8.61983 24.2764C 8.61625 24.2828 8.61299 24.2888 8.61121 24.292C 8.61012 24.294 8.60903 24.296 8.60849 24.297C 8.60812 24.2976 8.60771 24.2984 8.60753 24.2987C 8.60739 24.299 8.60722 24.2993 8.60715 24.2994C 8.60699 24.2997 8.60684 24.3 10.8 25.5C 12.9932 26.7 12.993 26.7003 12.9929 26.7005C 12.9929 26.7005 12.9928 26.7007 12.9927 26.7008C 12.9927 26.7008 12.9926 26.7011 12.9926 26.7011C 12.9924 26.7014 12.9927 26.7009 12.993 26.7003C 12.994 26.6984 12.995 26.6967 12.997 26.693C 13.0019 26.6842 13.0079 26.6733 13.0174 26.6562C 13.0381 26.6192 13.0662 26.569 13.1064 26.4982C 13.1902 26.3507 13.3081 26.1458 13.4682 25.8756C 13.7954 25.3231 14.2561 24.5684 14.8532 23.6582C 16.0629 21.8122 17.6946 19.5212 19.648 17.3837L 15.952 14.0163Z"/>
<path id="path21_fill" fill-rule="evenodd" d="M 0 7.09999L 26.8 -1.2207e-05L 15.6 25.4C 15.6 25.4 12.8 20.1 8.90002 15.4C 4.80002 10.7 0 7.09999 0 7.09999Z"/>
<path id="path22_stroke" d="M 0 7.09999L -0.640228 4.68336C -1.56639 4.92873 -2.27086 5.68183 -2.45394 6.62229C -2.63701 7.56275 -2.26649 8.52512 -1.5 9.09999L 0 7.09999ZM 26.8 -1.2207e-05L 29.0875 1.00864C 29.4751 0.129515 29.3247 -0.893989 28.7004 -1.62435C 28.0761 -2.35472 27.0885 -2.6627 26.1598 -2.41664L 26.8 -1.2207e-05ZM 15.6 25.4L 13.3895 26.5678C 13.8373 27.4154 14.7303 27.9323 15.6884 27.8984C 16.6464 27.8646 17.5007 27.2858 17.8875 26.4087L 15.6 25.4ZM 8.90002 15.4L 10.8239 13.8036C 10.8108 13.7878 10.7975 13.7721 10.7839 13.7566L 8.90002 15.4ZM 0.640228 9.51663L 27.4402 2.41662L 26.1598 -2.41664L -0.640228 4.68336L 0.640228 9.51663ZM 24.5125 -1.00867L 13.3125 24.3914L 17.8875 26.4087L 29.0875 1.00864L 24.5125 -1.00867ZM 15.6 25.4C 17.8105 24.2322 17.8103 24.232 17.8102 24.2317C 17.8101 24.2316 17.81 24.2313 17.8099 24.2311C 17.8097 24.2308 17.8093 24.2301 17.809 24.2294C 17.8085 24.2285 17.8075 24.2266 17.8065 24.2247C 17.8048 24.2216 17.8018 24.2159 17.7984 24.2096C 17.7923 24.1981 17.7822 24.1792 17.7701 24.1567C 17.7473 24.1141 17.711 24.047 17.6661 23.9646C 17.5788 23.805 17.4446 23.5622 17.2762 23.2652C 16.9453 22.6819 16.4483 21.8297 15.8364 20.8438C 14.6257 18.8947 12.8531 16.2541 10.8239 13.8036L 6.97612 16.9964C 8.84699 19.246 10.4243 21.6054 11.5886 23.4813C 12.1642 24.4078 12.6109 25.1744 12.9269 25.7317C 13.082 26.0051 13.1969 26.213 13.278 26.3616C 13.3172 26.4333 13.3449 26.4846 13.365 26.522C 13.3744 26.5395 13.3805 26.5509 13.3852 26.5598C 13.3873 26.5636 13.3883 26.5656 13.3894 26.5676C 13.3897 26.5683 13.3897 26.5683 13.3899 26.5686C 13.3899 26.5687 13.3898 26.5685 13.3898 26.5685C 13.3898 26.5684 13.3897 26.5682 13.3897 26.5682C 13.3896 26.568 13.3895 26.5678 15.6 25.4ZM 10.7839 13.7566C 8.6469 11.3118 6.29752 9.11686 4.55194 7.6001C 3.66859 6.83315 2.90112 6.20375 2.37508 5.78318C 2.10708 5.569 1.88739 5.39734 1.74296 5.28571C 1.66836 5.22807 1.60741 5.18145 1.56884 5.1521C 1.5484 5.13654 1.53114 5.12347 1.52076 5.11563C 1.515 5.11128 1.5098 5.10736 1.5069 5.10518C 1.50517 5.10388 1.50344 5.10258 1.50258 5.10193C 1.502 5.10149 1.50136 5.10101 1.50107 5.10079C 1.50085 5.10063 1.50059 5.10043 1.50048 5.10035C 1.50023 5.10017 1.5 5.09999 0 7.09999C -1.5 9.09999 -1.50019 9.09985 -1.50037 9.09972C -1.5004 9.09969 -1.50056 9.09957 -1.50063 9.09952C -1.50063 9.09952 -1.50083 9.09937 -1.50082 9.09938C -1.50052 9.0996 -1.50051 9.09961 -1.49991 9.10006C -1.49817 9.10138 -1.49642 9.10269 -1.49297 9.1053C -1.48493 9.11137 -1.47474 9.11908 -1.45903 9.13104C -1.42528 9.15672 -1.3791 9.19203 -1.31444 9.24201C -1.18035 9.34562 -0.993015 9.49193 -0.746947 9.68869C -0.244856 10.09 0.443933 10.6544 1.27309 11.3749C 2.95251 12.8332 5.05315 14.7882 7.0161 17.0434L 10.7839 13.7566Z"/>
<path id="path23_fill" fill-rule="evenodd" d="M 16.2 -1.2207e-05L 26.6 25.7L -2.44141e-05 17.7C -2.44141e-05 17.7 4.89998 14.3 8.99998 9.79998C 13.1 5.29998 16.2 -1.2207e-05 16.2 -1.2207e-05Z"/>
<path id="path24_stroke" d="M 16.2 -1.2207e-05L 18.5174 -0.937811C 18.1599 -1.82124 17.3313 -2.42457 16.3807 -2.49347C 15.4302 -2.56237 14.5232 -2.08486 14.042 -1.26223L 16.2 -1.2207e-05ZM 26.6 25.7L 25.88 28.0941C 26.8011 28.3711 27.7995 28.0951 28.4475 27.3843C 29.0955 26.6734 29.2783 25.6538 28.9175 24.7622L 26.6 25.7ZM -2.44141e-05 17.7L -1.42524 15.646C -2.21379 16.1932 -2.61947 17.1435 -2.46919 18.0915C -2.3189 19.0394 -1.63917 19.8176 -0.720044 20.0941L -2.44141e-05 17.7ZM 13.8825 0.937787L 24.2826 26.6378L 28.9175 24.7622L 18.5174 -0.937811L 13.8825 0.937787ZM 27.32 23.3059L 0.719996 15.3059L -0.720044 20.0941L 25.88 28.0941L 27.32 23.3059ZM -2.44141e-05 17.7C 1.42519 19.754 1.42543 19.7538 1.4257 19.7536C 1.42581 19.7535 1.4261 19.7533 1.42633 19.7532C 1.42663 19.753 1.42731 19.7525 1.42792 19.7521C 1.42882 19.7514 1.43064 19.7502 1.43244 19.7489C 1.43543 19.7468 1.44085 19.7431 1.44679 19.7389C 1.45745 19.7315 1.47528 19.7189 1.49629 19.7041C 1.53579 19.6763 1.59843 19.6319 1.6748 19.5772C 1.82241 19.4714 2.0474 19.3082 2.32103 19.1049C 2.85751 18.7061 3.6411 18.1073 4.53949 17.3773C 6.31338 15.9347 8.7013 13.834 10.848 11.4837L 7.15198 8.11625C 5.19865 10.2659 3.08657 12.1153 1.38546 13.4976C 0.546349 14.1802 -0.151308 14.7127 -0.661704 15.092C -0.911509 15.2777 -1.10136 15.4153 -1.23774 15.5131C -1.30336 15.5601 -1.35 15.5931 -1.38428 15.6173C -1.40016 15.6285 -1.41034 15.6356 -1.41848 15.6413C -1.42193 15.6437 -1.4236 15.6449 -1.42535 15.6461C -1.42592 15.6465 -1.42646 15.6469 -1.42618 15.6467C -1.42619 15.6467 -1.42592 15.6465 -1.42593 15.6465C -1.42585 15.6465 -1.42568 15.6463 -1.42564 15.6463C -1.42545 15.6462 -1.42524 15.646 -2.44141e-05 17.7ZM 10.848 11.4837C 12.984 9.13413 14.8903 6.54468 16.2028 4.62125C 16.8659 3.64858 17.4086 2.80373 17.7712 2.22395C 17.9557 1.9289 18.1031 1.68744 18.1991 1.52835C 18.2486 1.44635 18.2885 1.37958 18.3137 1.33717C 18.327 1.31477 18.3381 1.29598 18.3448 1.28461C 18.3485 1.27834 18.3518 1.27272 18.3536 1.26957C 18.3547 1.2677 18.3558 1.26585 18.3564 1.26492C 18.3567 1.2643 18.3571 1.26362 18.3573 1.26332C 18.3574 1.26309 18.3576 1.26281 18.3577 1.2627C 18.3578 1.26244 18.358 1.2622 16.2 -1.2207e-05C 14.042 -1.26223 14.0421 -1.26242 14.0422 -1.2626C 14.0423 -1.26263 14.0424 -1.26279 14.0424 -1.26286C 14.0424 -1.26287 14.0425 -1.26304 14.0425 -1.26301C 14.0423 -1.26265 14.0422 -1.26257 14.0418 -1.26187C 14.0407 -1.2599 14.0394 -1.25784 14.0372 -1.25395C 14.0319 -1.24499 14.0251 -1.23348 14.0147 -1.21596C 13.9924 -1.17853 13.9617 -1.12704 13.9184 -1.05533C 13.8289 -0.906992 13.7021 -0.699242 13.5319 -0.427104C 13.1851 0.127494 12.6965 0.888885 12.0722 1.80371C 10.8097 3.65528 9.11595 5.96582 7.15198 8.11625L 10.848 11.4837Z"/>
<path id="path25_fill" fill-rule="evenodd" d="M 26.3 17.1L 1.2207e-05 26.1L 9.50001 -1.2207e-05C 9.50001 -1.2207e-05 12.6 5.09999 16.9 9.49999C 21.2 13.9 26.3 17.1 26.3 17.1Z"/>
<path id="path26_stroke" d="M 26.3 17.1L 27.1094 19.4654C 28.0212 19.1533 28.6725 18.345 28.7834 17.3877C 28.8943 16.4304 28.4451 15.4946 27.6287 14.9824L 26.3 17.1ZM 1.2207e-05 26.1L -2.34921 25.2449C -2.67853 26.1497 -2.459 27.1632 -1.78479 27.8506C -1.11058 28.538 -0.101534 28.7771 0.809444 28.4654L 1.2207e-05 26.1ZM 9.50001 -1.2207e-05L 11.6363 -1.29855C 11.137 -2.12007 10.2108 -2.58247 9.25405 -2.48788C 8.29734 -2.3933 7.47961 -1.75849 7.15079 -0.855091L 9.50001 -1.2207e-05ZM 25.4906 14.7347L -0.809419 23.7347L 0.809444 28.4654L 27.1094 19.4654L 25.4906 14.7347ZM 2.34923 26.9551L 11.8492 0.855067L 7.15079 -0.855091L -2.34921 25.2449L 2.34923 26.9551ZM 9.50001 -1.2207e-05C 7.36371 1.29852 7.36387 1.29879 7.36404 1.29907C 7.36411 1.29919 7.36429 1.29949 7.36444 1.29973C 7.36463 1.30005 7.36507 1.30077 7.36546 1.3014C 7.36604 1.30235 7.3672 1.30426 7.36835 1.30615C 7.37026 1.30928 7.37373 1.31495 7.37754 1.32117C 7.38436 1.33229 7.39582 1.35094 7.40938 1.37287C 7.43485 1.41407 7.47554 1.4795 7.5257 1.55924C 7.62263 1.71324 7.77244 1.94829 7.95957 2.23438C 8.3265 2.79509 8.87937 3.61568 9.55788 4.55965C 10.8987 6.42324 12.8669 8.94438 15.112 11.2473L 18.688 7.75266C 16.6331 5.65559 14.9013 3.42674 13.6171 1.64033C 12.9832 0.759296 12.4923 0.0298835 12.1436 -0.503153C 11.9729 -0.763941 11.8469 -0.961702 11.7575 -1.10379C 11.7145 -1.1721 11.6844 -1.22054 11.6624 -1.2562C 11.6522 -1.27269 11.6457 -1.28322 11.6405 -1.29167C 11.6383 -1.29523 11.6373 -1.29694 11.6362 -1.29875C 11.6358 -1.29933 11.6355 -1.29986 11.6357 -1.29957C 11.6357 -1.29958 11.6359 -1.29928 11.6359 -1.29929C 11.6359 -1.2992 11.636 -1.29902 11.6361 -1.29898C 11.6362 -1.29877 11.6363 -1.29855 9.50001 -1.2207e-05ZM 15.112 11.2473C 17.3672 13.5489 19.8671 15.5749 21.7191 16.955C 22.6576 17.6535 23.4761 18.2238 24.0355 18.6022C 24.3211 18.7953 24.5561 18.95 24.7101 19.0501C 24.7898 19.1019 24.8554 19.144 24.8966 19.1703C 24.9186 19.1844 24.9373 19.1962 24.9485 19.2033C 24.9547 19.2072 24.9604 19.2109 24.9636 19.2128C 24.9655 19.214 24.9674 19.2152 24.9683 19.2158C 24.969 19.2162 24.9697 19.2167 24.97 19.2169C 24.9703 19.2171 24.9706 19.2173 24.9707 19.2173C 24.971 19.2175 24.9713 19.2177 26.3 17.1C 27.6287 14.9824 27.629 14.9825 27.6292 14.9826C 27.6292 14.9827 27.6294 14.9828 27.6295 14.9828C 27.6295 14.9828 27.6298 14.9831 27.6298 14.983C 27.6301 14.9832 27.6296 14.9829 27.629 14.9825C 27.6272 14.9814 27.6256 14.9804 27.622 14.9781C 27.6136 14.9728 27.6032 14.9662 27.5867 14.9557C 27.5512 14.933 27.5029 14.902 27.4348 14.8578C 27.2931 14.7656 27.0961 14.636 26.8364 14.4603C 26.3052 14.1012 25.5799 13.5965 24.7059 12.945C 22.9329 11.6251 20.7328 9.85112 18.688 7.75266L 15.112 11.2473Z"/>
<path id="path27_fill" d="M 44.1636 30.5L 23.0636 100.5C 22.8636 101.2 22.1636 101.7 21.4636 101.7L 1.66356 101.7C 0.56356 101.7 -0.236416 100.6 0.0635844 99.5L 34.3635 1.09999C 34.5635 0.399988 35.2636 1.2207e-05 35.9636 1.2207e-05L 55.4636 1.2207e-05C 56.1636 1.2207e-05 56.7636 0.399988 57.0636 1.09999L 91.1636 99.5C 91.5636 100.6 90.7636 101.7 89.5636 101.7L 69.8635 101.7C 69.1635 101.7 68.4635 101.2 68.2635 100.5L 47.2635 30.5C 46.8635 28.9 44.6636 28.9 44.1636 30.5Z"/>
</defs>
</svg>
