<svg width="350" height="330" viewBox="0 0 350 330" version="1.1" xmlns="http://www.w3.org/2000/svg" xmlns:xlink="http://www.w3.org/1999/xlink">
<title>Component</title>
<desc>Created using Figma</desc>
<g id="Canvas" transform="translate(-2591 -10606)">
<g id="Component">
<g id="Rectangle 28">
<use xlink:href="#path0_fill" transform="translate(2591 10606)" fill="#FFFFFF"/>
</g>
<g id="JULY 2017">
<use xlink:href="#path1_fill" transform="translate(2621 10633)" fill="#6B7897"/>
</g>
<g id="Rectangle" opacity="0.688433">
<use xlink:href="#path2_fill" transform="translate(2834 10754)" fill="#E8F4FF"/>
</g>
<g id="Rectangle">
<use xlink:href="#path3_fill" transform="translate(2617 10787)" fill="#EFF7FF"/>
</g>
<g id="Oval 1">
<use xlink:href="#path4_fill" transform="translate(2830 10753)" fill="#2399F5"/>
</g>
<g id="Oval 1">
<use xlink:href="#path4_fill" transform="translate(2830 10786)" fill="#2399F5"/>
</g>
<g id="Rectangle 10">
<use xlink:href="#path5_fill" transform="translate(2851 10633)" fill="#F7F8FC"/>
</g>
<g id="Shape" opacity="0.254202">
<use xlink:href="#path6_fill" transform="matrix(0.0348995 -0.999391 -0.999391 -0.0348995 2864.4 10650.3)" fill="#34495E"/>
</g>
<g id="Rectangle 10">
<use xlink:href="#path5_fill" transform="translate(2885 10633)" fill="#F7F8FC"/>
</g>
<g id="Shape" opacity="0.254202">
<use xlink:href="#path6_fill" transform="matrix(-0.0348995 -0.999391 0.999391 -0.0348995 2893.42 10650.3)" fill="#34495E"/>
</g>
<g id="27" opacity="0.3">
<use xlink:href="#path7_fill" transform="translate(2625 10724)" fill="#34495E"/>
</g>
<g id="4" opacity="0.3">
<use xlink:href="#path8_fill" transform="translate(2629 10759)" fill="#34495E"/>
</g>
<g id="11">
<use xlink:href="#path9_fill" transform="translate(2625 10794)" fill="#34495E"/>
</g>
<g id="18">
<use xlink:href="#path10_fill" transform="translate(2625 10829)" fill="#34495E"/>
</g>
<g id="25">
<use xlink:href="#path11_fill" transform="translate(2625 10862)" fill="#34495E"/>
</g>
<g id="26">
<use xlink:href="#path12_fill" transform="translate(2667 10862)" fill="#34495E"/>
</g>
<g id="19">
<use xlink:href="#path13_fill" transform="translate(2667 10828)" fill="#34495E"/>
</g>
<g id="12">
<use xlink:href="#path14_fill" transform="translate(2667 10794)" fill="#34495E"/>
</g>
<g id="5" opacity="0.3">
<use xlink:href="#path15_fill" transform="translate(2671 10759)" fill="#34495E"/>
</g>
<g id="28" opacity="0.3">
<use xlink:href="#path16_fill" transform="translate(2667 10724)" fill="#34495E"/>
</g>
<g id="27">
<use xlink:href="#path7_fill" transform="translate(2710 10862)" fill="#34495E"/>
</g>
<g id="20">
<use xlink:href="#path17_fill" transform="translate(2709 10828)" fill="#34495E"/>
</g>
<g id="13">
<use xlink:href="#path18_fill" transform="translate(2710 10793)" fill="#34495E"/>
</g>
<g id="6" opacity="0.3">
<use xlink:href="#path19_fill" transform="translate(2714 10759)" fill="#34495E"/>
</g>
<g id="29" opacity="0.3">
<use xlink:href="#path20_fill" transform="translate(2711 10724)" fill="#34495E"/>
</g>
<g id="28">
<use xlink:href="#path16_fill" transform="translate(2753 10862)" fill="#34495E"/>
</g>
<g id="21">
<use xlink:href="#path21_fill" transform="translate(2753 10828)" fill="#34495E"/>
</g>
<g id="14">
<use xlink:href="#path22_fill" transform="translate(2753 10793)" fill="#34495E"/>
</g>
<g id="7" opacity="0.3">
<use xlink:href="#path23_fill" transform="translate(2753 10759)" fill="#34495E"/>
</g>
<g id="1" opacity="0.3">
<use xlink:href="#path24_fill" transform="translate(2750 10725)" fill="#34495E"/>
</g>
<g id="29">
<use xlink:href="#path20_fill" transform="translate(2795 10862)" fill="#34495E"/>
</g>
<g id="22">
<use xlink:href="#path25_fill" transform="translate(2795 10828)" fill="#34495E"/>
</g>
<g id="15">
<use xlink:href="#path26_fill" transform="translate(2795 10793)" fill="#34495E"/>
</g>
<g id="8" opacity="0.3">
<use xlink:href="#path27_fill" transform="translate(2795 10759)" fill="#34495E"/>
</g>
<g id="1" opacity="0.3">
<use xlink:href="#path28_fill" transform="translate(2799 10725)" fill="#34495E"/>
</g>
<g id="30">
<use xlink:href="#path24_fill" transform="translate(2835 10862)" fill="#2399F5"/>
</g>
<g id="23">
<use xlink:href="#path29_fill" transform="translate(2838 10828)" fill="#2399F5"/>
</g>
<g id="16">
<use xlink:href="#path30_fill" transform="translate(2837 10793)" fill="#FFFFFF"/>
</g>
<g id="9">
<use xlink:href="#path31_fill" transform="translate(2837 10759)" fill="#FFFFFF"/>
</g>
<g id="2" opacity="0.5">
<use xlink:href="#path32_fill" transform="translate(2841 10725)" fill="#2399F5"/>
</g>
<g id="31">
<use xlink:href="#path33_fill" transform="translate(2881 10862)" fill="#34495E"/>
</g>
<g id="24">
<use xlink:href="#path34_fill" transform="translate(2880 10828)" fill="#34495E"/>
</g>
<g id="17">
<use xlink:href="#path35_fill" transform="translate(2880 10793)" fill="#34495E"/>
</g>
<g id="10">
<use xlink:href="#path36_fill" transform="translate(2880 10759)" fill="#34495E"/>
</g>
<g id="3" opacity="0.3">
<use xlink:href="#path37_fill" transform="translate(2884 10725)" fill="#34495E"/>
</g>
<g id="M">
<use xlink:href="#path38_fill" transform="translate(2628 10681)" fill="#34495E"/>
</g>
<g id="T">
<use xlink:href="#path39_fill" transform="translate(2669 10681)" fill="#34495E"/>
</g>
<g id="W">
<use xlink:href="#path40_fill" transform="translate(2714 10681)" fill="#34495E"/>
</g>
<g id="T">
<use xlink:href="#path41_fill" transform="translate(2753 10681)" fill="#34495E"/>
</g>
<g id="F">
<use xlink:href="#path42_fill" transform="translate(2799 10681)" fill="#34495E"/>
</g>
<g id="S">
<use xlink:href="#path43_fill" transform="translate(2841 10681)" fill="#2399F5"/>
</g>
<g id="S">
<use xlink:href="#path44_fill" transform="translate(2884 10681)" fill="#34495E"/>
</g>
</g>
</g>
<defs>
<path id="path0_fill" fill-rule="evenodd" d="M 0 0L 350 0L 350 326C 350 328.209 348.209 330 346 330L 4 330C 1.79086 330 0 328.209 0 326L 0 0Z"/>
<path id="path1_fill" d="M 6.16504 3.33594L 7.57861 3.33594L 7.57861 10.8872C 7.57861 11.9077 7.271 12.7061 6.65576 13.2822C 6.04541 13.8584 5.22998 14.1465 4.20947 14.1465C 3.1499 14.1465 2.32471 13.8755 1.73389 13.3335C 1.14307 12.7915 0.847656 12.0322 0.847656 11.0557L 2.25391 11.0557C 2.25391 11.666 2.41992 12.1421 2.75195 12.4839C 3.08887 12.8257 3.57471 12.9966 4.20947 12.9966C 4.79053 12.9966 5.25928 12.8135 5.61572 12.4473C 5.97705 12.0811 6.16016 11.5684 6.16504 10.9092L 6.16504 3.33594ZM 18.0747 3.33594L 18.0747 10.5869C 18.0698 11.5928 17.7524 12.4155 17.1226 13.0552C 16.4976 13.6948 15.6479 14.0537 14.5737 14.1318L 14.2002 14.1465C 13.0332 14.1465 12.103 13.8315 11.4097 13.2017C 10.7163 12.5718 10.3647 11.7051 10.355 10.6016L 10.355 3.33594L 11.7466 3.33594L 11.7466 10.5576C 11.7466 11.3291 11.959 11.9297 12.3838 12.3594C 12.8086 12.7842 13.4141 12.9966 14.2002 12.9966C 14.9961 12.9966 15.604 12.7842 16.0239 12.3594C 16.4487 11.9346 16.6611 11.3364 16.6611 10.5649L 16.6611 3.33594L 18.0747 3.33594ZM 22.3013 12.8501L 27.355 12.8501L 27.355 14L 20.8877 14L 20.8877 3.33594L 22.3013 3.33594L 22.3013 12.8501ZM 31.0469 8.68994L 33.8301 3.33594L 35.4268 3.33594L 31.75 10.0229L 31.75 14L 30.3438 14L 30.3438 10.0229L 26.667 3.33594L 28.2783 3.33594L 31.0469 8.68994ZM 48.3477 14L 41.3604 14L 41.3604 13.0259L 45.0518 8.92432C 45.5986 8.3042 45.9746 7.80127 46.1797 7.41553C 46.3896 7.0249 46.4946 6.62207 46.4946 6.20703C 46.4946 5.65039 46.3262 5.19385 45.9893 4.8374C 45.6523 4.48096 45.2031 4.30273 44.6416 4.30273C 43.9678 4.30273 43.4429 4.49561 43.0669 4.88135C 42.6958 5.26221 42.5103 5.79443 42.5103 6.47803L 41.1553 6.47803C 41.1553 5.49658 41.4702 4.70312 42.1001 4.09766C 42.7349 3.49219 43.582 3.18945 44.6416 3.18945C 45.6328 3.18945 46.4165 3.45068 46.9927 3.97314C 47.5688 4.49072 47.8569 5.18164 47.8569 6.0459C 47.8569 7.0957 47.188 8.3457 45.8501 9.7959L 42.9937 12.894L 48.3477 12.894L 48.3477 14ZM 57.064 9.45166C 57.064 11.0386 56.793 12.2178 56.251 12.9893C 55.709 13.7607 54.8618 14.1465 53.7095 14.1465C 52.5718 14.1465 51.7295 13.7705 51.1826 13.0186C 50.6357 12.2617 50.3525 11.1338 50.333 9.63477L 50.333 7.82568C 50.333 6.2583 50.604 5.09375 51.146 4.33203C 51.688 3.57031 52.5376 3.18945 53.6948 3.18945C 54.8423 3.18945 55.687 3.55811 56.229 4.29541C 56.771 5.02783 57.0493 6.16064 57.064 7.69385L 57.064 9.45166ZM 55.709 7.59863C 55.709 6.45117 55.5479 5.61621 55.2256 5.09375C 54.9033 4.56641 54.3931 4.30273 53.6948 4.30273C 53.0015 4.30273 52.4961 4.56396 52.1787 5.08643C 51.8613 5.60889 51.6978 6.41211 51.688 7.49609L 51.688 9.66406C 51.688 10.8164 51.854 11.6685 52.186 12.2202C 52.5229 12.7671 53.0308 13.0405 53.7095 13.0405C 54.3784 13.0405 54.874 12.7817 55.1963 12.2642C 55.5234 11.7466 55.6943 10.9312 55.709 9.81787L 55.709 7.59863ZM 63.8467 14L 62.4844 14L 62.4844 4.96924L 59.7524 5.97266L 59.7524 4.74219L 63.6343 3.28467L 63.8467 3.28467L 63.8467 14ZM 75.2949 4.09766L 70.8784 14L 69.4575 14L 73.8594 4.44922L 68.0879 4.44922L 68.0879 3.33594L 75.2949 3.33594L 75.2949 4.09766Z"/>
<path id="path2_fill" fill-rule="evenodd" d="M 0 4C 0 1.79086 1.79086 0 4 0L 68 0C 70.2091 0 72 1.79086 72 4L 72 26C 72 28.2091 70.2091 30 68 30L 4 30C 1.79086 30 0 28.2091 0 26L 0 4Z"/>
<path id="path3_fill" fill-rule="evenodd" d="M 0 4C 0 1.79086 1.79086 0 4 0L 226 0C 228.209 0 230 1.79086 230 4L 230 26C 230 28.2091 228.209 30 226 30L 4 30C 1.79086 30 0 28.2091 0 26L 0 4Z"/>
<path id="path4_fill" fill-rule="evenodd" d="M 2.02197 23.7915C 4.75754 28.6886 9.99207 32 16 32C 24.8366 32 32 24.8366 32 16C 32 7.16344 24.8366 0 16 0C 7.16344 0 0 7.16344 0 16C 0 18.8286 0.734017 21.4858 2.02197 23.7915Z"/>
<path id="path5_fill" fill-rule="evenodd" d="M 0 11C 0 4.92487 4.92487 0 11 0C 17.0751 0 22 4.92487 22 11C 22 17.0751 17.0751 22 11 22C 4.92487 22 0 17.0751 0 11Z"/>
<path id="path6_fill" fill-rule="evenodd" d="M 10.6 0L 6 4.6L 1.4 0L 0 1.4L 6 7.4L 12 1.4L 10.6 0Z"/>
<path id="path7_fill" d="M 7.9873 13L 1.46582 13L 1.46582 12.0908L 4.91113 8.2627C 5.42155 7.68392 5.77246 7.21452 5.96387 6.85449C 6.15983 6.48991 6.25781 6.11393 6.25781 5.72656C 6.25781 5.20703 6.10059 4.78092 5.78613 4.44824C 5.47168 4.11556 5.05241 3.94922 4.52832 3.94922C 3.89941 3.94922 3.40951 4.12923 3.05859 4.48926C 2.71224 4.84473 2.53906 5.34147 2.53906 5.97949L 1.27441 5.97949C 1.27441 5.06348 1.56836 4.32292 2.15625 3.75781C 2.7487 3.19271 3.53939 2.91016 4.52832 2.91016C 5.45345 2.91016 6.1849 3.15397 6.72266 3.6416C 7.26042 4.12467 7.5293 4.76953 7.5293 5.57617C 7.5293 6.55599 6.90495 7.72266 5.65625 9.07617L 2.99023 11.9678L 7.9873 11.9678L 7.9873 13ZM 15.7529 3.75781L 11.6309 13L 10.3047 13L 14.4131 4.08594L 9.02637 4.08594L 9.02637 3.04688L 15.7529 3.04688L 15.7529 3.75781Z"/>
<path id="path8_fill" d="M 6.73535 9.65723L 8.11621 9.65723L 8.11621 10.6895L 6.73535 10.6895L 6.73535 13L 5.46387 13L 5.46387 10.6895L 0.931641 10.6895L 0.931641 9.94434L 5.38867 3.04688L 6.73535 3.04688L 6.73535 9.65723ZM 2.36719 9.65723L 5.46387 9.65723L 5.46387 4.77637L 5.31348 5.0498L 2.36719 9.65723Z"/>
<path id="path9_fill" d="M 5.62207 13L 4.35059 13L 4.35059 4.57129L 1.80078 5.50781L 1.80078 4.35938L 5.42383 2.99902L 5.62207 2.99902L 5.62207 13ZM 13.4834 13L 12.2119 13L 12.2119 4.57129L 9.66211 5.50781L 9.66211 4.35938L 13.2852 2.99902L 13.4834 2.99902L 13.4834 13Z"/>
<path id="path10_fill" d="M 5.62207 13L 4.35059 13L 4.35059 4.57129L 1.80078 5.50781L 1.80078 4.35938L 5.42383 2.99902L 5.62207 2.99902L 5.62207 13ZM 15.3633 5.64453C 15.3633 6.14128 15.2311 6.58333 14.9668 6.9707C 14.707 7.35807 14.3538 7.66113 13.9072 7.87988C 14.4268 8.10319 14.8369 8.42904 15.1377 8.85742C 15.443 9.28581 15.5957 9.77116 15.5957 10.3135C 15.5957 11.1748 15.304 11.8607 14.7207 12.3711C 14.1419 12.8815 13.3786 13.1367 12.4307 13.1367C 11.4736 13.1367 10.7057 12.8815 10.127 12.3711C 9.55273 11.8561 9.26562 11.1702 9.26562 10.3135C 9.26562 9.77572 9.41146 9.29036 9.70312 8.85742C 9.99935 8.42448 10.4072 8.09635 10.9268 7.87305C 10.4847 7.6543 10.1361 7.35124 9.88086 6.96387C 9.62565 6.5765 9.49805 6.13672 9.49805 5.64453C 9.49805 4.80599 9.76693 4.14062 10.3047 3.64844C 10.8424 3.15625 11.5511 2.91016 12.4307 2.91016C 13.3057 2.91016 14.012 3.15625 14.5498 3.64844C 15.0921 4.14062 15.3633 4.80599 15.3633 5.64453ZM 14.3311 10.2861C 14.3311 9.73014 14.1533 9.27669 13.7979 8.92578C 13.4469 8.57487 12.9867 8.39941 12.417 8.39941C 11.8473 8.39941 11.3893 8.57259 11.043 8.91895C 10.7012 9.2653 10.5303 9.72103 10.5303 10.2861C 10.5303 10.8512 10.6966 11.2956 11.0293 11.6191C 11.3665 11.9427 11.8337 12.1045 12.4307 12.1045C 13.0231 12.1045 13.488 11.9427 13.8252 11.6191C 14.1624 11.291 14.3311 10.8467 14.3311 10.2861ZM 12.4307 3.94922C 11.9339 3.94922 11.5306 4.10417 11.2207 4.41406C 10.9154 4.7194 10.7627 5.13639 10.7627 5.66504C 10.7627 6.1709 10.9131 6.58105 11.2139 6.89551C 11.5192 7.2054 11.9248 7.36035 12.4307 7.36035C 12.9365 7.36035 13.3398 7.2054 13.6406 6.89551C 13.946 6.58105 14.0986 6.1709 14.0986 5.66504C 14.0986 5.15918 13.9414 4.74674 13.627 4.42773C 13.3125 4.10872 12.9137 3.94922 12.4307 3.94922Z"/>
<path id="path11_fill" d="M 7.9873 13L 1.46582 13L 1.46582 12.0908L 4.91113 8.2627C 5.42155 7.68392 5.77246 7.21452 5.96387 6.85449C 6.15983 6.48991 6.25781 6.11393 6.25781 5.72656C 6.25781 5.20703 6.10059 4.78092 5.78613 4.44824C 5.47168 4.11556 5.05241 3.94922 4.52832 3.94922C 3.89941 3.94922 3.40951 4.12923 3.05859 4.48926C 2.71224 4.84473 2.53906 5.34147 2.53906 5.97949L 1.27441 5.97949C 1.27441 5.06348 1.56836 4.32292 2.15625 3.75781C 2.7487 3.19271 3.53939 2.91016 4.52832 2.91016C 5.45345 2.91016 6.1849 3.15397 6.72266 3.6416C 7.26042 4.12467 7.5293 4.76953 7.5293 5.57617C 7.5293 6.55599 6.90495 7.72266 5.65625 9.07617L 2.99023 11.9678L 7.9873 11.9678L 7.9873 13ZM 9.9082 8.00977L 10.4141 3.04688L 15.5137 3.04688L 15.5137 4.21582L 11.4873 4.21582L 11.1865 6.92969C 11.6742 6.64258 12.2279 6.49902 12.8477 6.49902C 13.7546 6.49902 14.4746 6.7998 15.0078 7.40137C 15.541 7.99837 15.8076 8.80729 15.8076 9.82812C 15.8076 10.8535 15.5296 11.6624 14.9736 12.2549C 14.4222 12.8428 13.6497 13.1367 12.6562 13.1367C 11.7767 13.1367 11.0589 12.8929 10.5029 12.4053C 9.94694 11.9176 9.63021 11.2432 9.55273 10.3818L 10.749 10.3818C 10.8265 10.9515 11.0293 11.3822 11.3574 11.6738C 11.6855 11.9609 12.1185 12.1045 12.6562 12.1045C 13.2441 12.1045 13.7044 11.904 14.0371 11.5029C 14.3743 11.1019 14.543 10.5482 14.543 9.8418C 14.543 9.17643 14.3607 8.64323 13.9961 8.24219C 13.6361 7.83659 13.1553 7.63379 12.5537 7.63379C 12.0023 7.63379 11.5693 7.75456 11.2549 7.99609L 10.9199 8.26953L 9.9082 8.00977Z"/>
<path id="path12_fill" d="M 7.9873 13L 1.46582 13L 1.46582 12.0908L 4.91113 8.2627C 5.42155 7.68392 5.77246 7.21452 5.96387 6.85449C 6.15983 6.48991 6.25781 6.11393 6.25781 5.72656C 6.25781 5.20703 6.10059 4.78092 5.78613 4.44824C 5.47168 4.11556 5.05241 3.94922 4.52832 3.94922C 3.89941 3.94922 3.40951 4.12923 3.05859 4.48926C 2.71224 4.84473 2.53906 5.34147 2.53906 5.97949L 1.27441 5.97949C 1.27441 5.06348 1.56836 4.32292 2.15625 3.75781C 2.7487 3.19271 3.53939 2.91016 4.52832 2.91016C 5.45345 2.91016 6.1849 3.15397 6.72266 3.6416C 7.26042 4.12467 7.5293 4.76953 7.5293 5.57617C 7.5293 6.55599 6.90495 7.72266 5.65625 9.07617L 2.99023 11.9678L 7.9873 11.9678L 7.9873 13ZM 14.29 3.04004L 14.29 4.11328L 14.0576 4.11328C 13.0732 4.13151 12.2894 4.42318 11.7061 4.98828C 11.1227 5.55339 10.7855 6.34863 10.6943 7.37402C 11.2184 6.77246 11.9339 6.47168 12.8408 6.47168C 13.7067 6.47168 14.3971 6.77702 14.9121 7.3877C 15.4316 7.99837 15.6914 8.78678 15.6914 9.75293C 15.6914 10.7783 15.4111 11.5986 14.8506 12.2139C 14.2946 12.8291 13.5472 13.1367 12.6084 13.1367C 11.6559 13.1367 10.8835 12.7721 10.291 12.043C 9.69857 11.3092 9.40234 10.3659 9.40234 9.21289L 9.40234 8.72754C 9.40234 6.89551 9.79199 5.49642 10.5713 4.53027C 11.3551 3.55957 12.5195 3.06283 14.0645 3.04004L 14.29 3.04004ZM 12.6289 7.52441C 12.196 7.52441 11.7972 7.6543 11.4326 7.91406C 11.068 8.17383 10.8151 8.49967 10.6738 8.8916L 10.6738 9.35645C 10.6738 10.1768 10.8584 10.8376 11.2275 11.3389C 11.5967 11.8402 12.057 12.0908 12.6084 12.0908C 13.1781 12.0908 13.6247 11.8812 13.9482 11.4619C 14.2764 11.0426 14.4404 10.4935 14.4404 9.81445C 14.4404 9.13086 14.2741 8.57943 13.9414 8.16016C 13.6133 7.73633 13.1758 7.52441 12.6289 7.52441Z"/>
<path id="path13_fill" d="M 5.62207 13L 4.35059 13L 4.35059 4.57129L 1.80078 5.50781L 1.80078 4.35938L 5.42383 2.99902L 5.62207 2.99902L 5.62207 13ZM 14.1738 8.625C 13.9095 8.93945 13.5928 9.19238 13.2236 9.38379C 12.859 9.5752 12.458 9.6709 12.0205 9.6709C 11.4463 9.6709 10.945 9.52962 10.5166 9.24707C 10.0928 8.96452 9.76465 8.56803 9.53223 8.05762C 9.2998 7.54264 9.18359 6.97526 9.18359 6.35547C 9.18359 5.6901 9.30892 5.09082 9.55957 4.55762C 9.81478 4.02441 10.1748 3.61654 10.6396 3.33398C 11.1045 3.05143 11.6468 2.91016 12.2666 2.91016C 13.251 2.91016 14.0257 3.2793 14.5908 4.01758C 15.1605 4.7513 15.4453 5.75391 15.4453 7.02539L 15.4453 7.39453C 15.4453 9.33138 15.0625 10.7464 14.2969 11.6396C 13.5312 12.5283 12.376 12.984 10.8311 13.0068L 10.585 13.0068L 10.585 11.9404L 10.8516 11.9404C 11.8952 11.9222 12.6973 11.651 13.2578 11.127C 13.8184 10.5983 14.1237 9.76432 14.1738 8.625ZM 12.2256 8.625C 12.6494 8.625 13.0391 8.49512 13.3945 8.23535C 13.7546 7.97559 14.0166 7.6543 14.1807 7.27148L 14.1807 6.76562C 14.1807 5.9362 14.0007 5.26172 13.6406 4.74219C 13.2806 4.22266 12.8249 3.96289 12.2734 3.96289C 11.7174 3.96289 11.2708 4.17708 10.9336 4.60547C 10.5964 5.0293 10.4277 5.58984 10.4277 6.28711C 10.4277 6.96615 10.5895 7.52669 10.9131 7.96875C 11.2412 8.40625 11.6787 8.625 12.2256 8.625Z"/>
<path id="path14_fill" d="M 5.62207 13L 4.35059 13L 4.35059 4.57129L 1.80078 5.50781L 1.80078 4.35938L 5.42383 2.99902L 5.62207 2.99902L 5.62207 13ZM 15.8486 13L 9.32715 13L 9.32715 12.0908L 12.7725 8.2627C 13.2829 7.68392 13.6338 7.21452 13.8252 6.85449C 14.0212 6.48991 14.1191 6.11393 14.1191 5.72656C 14.1191 5.20703 13.9619 4.78092 13.6475 4.44824C 13.333 4.11556 12.9137 3.94922 12.3896 3.94922C 11.7607 3.94922 11.2708 4.12923 10.9199 4.48926C 10.5736 4.84473 10.4004 5.34147 10.4004 5.97949L 9.13574 5.97949C 9.13574 5.06348 9.42969 4.32292 10.0176 3.75781C 10.61 3.19271 11.4007 2.91016 12.3896 2.91016C 13.3148 2.91016 14.0462 3.15397 14.584 3.6416C 15.1217 4.12467 15.3906 4.76953 15.3906 5.57617C 15.3906 6.55599 14.7663 7.72266 13.5176 9.07617L 10.8516 11.9678L 15.8486 11.9678L 15.8486 13Z"/>
<path id="path15_fill" d="M 1.97754 8.00977L 2.4834 3.04688L 7.58301 3.04688L 7.58301 4.21582L 3.55664 4.21582L 3.25586 6.92969C 3.74349 6.64258 4.2972 6.49902 4.91699 6.49902C 5.82389 6.49902 6.54395 6.7998 7.07715 7.40137C 7.61035 7.99837 7.87695 8.80729 7.87695 9.82812C 7.87695 10.8535 7.59896 11.6624 7.04297 12.2549C 6.49154 12.8428 5.71908 13.1367 4.72559 13.1367C 3.84603 13.1367 3.12826 12.8929 2.57227 12.4053C 2.01628 11.9176 1.69954 11.2432 1.62207 10.3818L 2.81836 10.3818C 2.89583 10.9515 3.09863 11.3822 3.42676 11.6738C 3.75488 11.9609 4.18783 12.1045 4.72559 12.1045C 5.31348 12.1045 5.77376 11.904 6.10645 11.5029C 6.44368 11.1019 6.6123 10.5482 6.6123 9.8418C 6.6123 9.17643 6.43001 8.64323 6.06543 8.24219C 5.7054 7.83659 5.22461 7.63379 4.62305 7.63379C 4.07161 7.63379 3.63867 7.75456 3.32422 7.99609L 2.98926 8.26953L 1.97754 8.00977Z"/>
<path id="path16_fill" d="M 7.9873 13L 1.46582 13L 1.46582 12.0908L 4.91113 8.2627C 5.42155 7.68392 5.77246 7.21452 5.96387 6.85449C 6.15983 6.48991 6.25781 6.11393 6.25781 5.72656C 6.25781 5.20703 6.10059 4.78092 5.78613 4.44824C 5.47168 4.11556 5.05241 3.94922 4.52832 3.94922C 3.89941 3.94922 3.40951 4.12923 3.05859 4.48926C 2.71224 4.84473 2.53906 5.34147 2.53906 5.97949L 1.27441 5.97949C 1.27441 5.06348 1.56836 4.32292 2.15625 3.75781C 2.7487 3.19271 3.53939 2.91016 4.52832 2.91016C 5.45345 2.91016 6.1849 3.15397 6.72266 3.6416C 7.26042 4.12467 7.5293 4.76953 7.5293 5.57617C 7.5293 6.55599 6.90495 7.72266 5.65625 9.07617L 2.99023 11.9678L 7.9873 11.9678L 7.9873 13ZM 15.3633 5.64453C 15.3633 6.14128 15.2311 6.58333 14.9668 6.9707C 14.707 7.35807 14.3538 7.66113 13.9072 7.87988C 14.4268 8.10319 14.8369 8.42904 15.1377 8.85742C 15.443 9.28581 15.5957 9.77116 15.5957 10.3135C 15.5957 11.1748 15.304 11.8607 14.7207 12.3711C 14.1419 12.8815 13.3786 13.1367 12.4307 13.1367C 11.4736 13.1367 10.7057 12.8815 10.127 12.3711C 9.55273 11.8561 9.26562 11.1702 9.26562 10.3135C 9.26562 9.77572 9.41146 9.29036 9.70312 8.85742C 9.99935 8.42448 10.4072 8.09635 10.9268 7.87305C 10.4847 7.6543 10.1361 7.35124 9.88086 6.96387C 9.62565 6.5765 9.49805 6.13672 9.49805 5.64453C 9.49805 4.80599 9.76693 4.14062 10.3047 3.64844C 10.8424 3.15625 11.5511 2.91016 12.4307 2.91016C 13.3057 2.91016 14.012 3.15625 14.5498 3.64844C 15.0921 4.14062 15.3633 4.80599 15.3633 5.64453ZM 14.3311 10.2861C 14.3311 9.73014 14.1533 9.27669 13.7979 8.92578C 13.4469 8.57487 12.9867 8.39941 12.417 8.39941C 11.8473 8.39941 11.3893 8.57259 11.043 8.91895C 10.7012 9.2653 10.5303 9.72103 10.5303 10.2861C 10.5303 10.8512 10.6966 11.2956 11.0293 11.6191C 11.3665 11.9427 11.8337 12.1045 12.4307 12.1045C 13.0231 12.1045 13.488 11.9427 13.8252 11.6191C 14.1624 11.291 14.3311 10.8467 14.3311 10.2861ZM 12.4307 3.94922C 11.9339 3.94922 11.5306 4.10417 11.2207 4.41406C 10.9154 4.7194 10.7627 5.13639 10.7627 5.66504C 10.7627 6.1709 10.9131 6.58105 11.2139 6.89551C 11.5192 7.2054 11.9248 7.36035 12.4307 7.36035C 12.9365 7.36035 13.3398 7.2054 13.6406 6.89551C 13.946 6.58105 14.0986 6.1709 14.0986 5.66504C 14.0986 5.15918 13.9414 4.74674 13.627 4.42773C 13.3125 4.10872 12.9137 3.94922 12.4307 3.94922Z"/>
<path id="path17_fill" d="M 10.4873 13L 3.96582 13L 3.96582 12.0908L 7.41113 8.2627C 7.92155 7.68392 8.27246 7.21452 8.46387 6.85449C 8.65983 6.48991 8.75781 6.11393 8.75781 5.72656C 8.75781 5.20703 8.60059 4.78092 8.28613 4.44824C 7.97168 4.11556 7.55241 3.94922 7.02832 3.94922C 6.39941 3.94922 5.90951 4.12923 5.55859 4.48926C 5.21224 4.84473 5.03906 5.34147 5.03906 5.97949L 3.77441 5.97949C 3.77441 5.06348 4.06836 4.32292 4.65625 3.75781C 5.2487 3.19271 6.03939 2.91016 7.02832 2.91016C 7.95345 2.91016 8.6849 3.15397 9.22266 3.6416C 9.76042 4.12467 10.0293 4.76953 10.0293 5.57617C 10.0293 6.55599 9.40495 7.72266 8.15625 9.07617L 5.49023 11.9678L 10.4873 11.9678L 10.4873 13ZM 18.0684 8.75488C 18.0684 10.236 17.8154 11.3366 17.3096 12.0566C 16.8037 12.7767 16.013 13.1367 14.9375 13.1367C 13.8757 13.1367 13.0895 12.7858 12.5791 12.084C 12.0687 11.3776 11.8044 10.3249 11.7861 8.92578L 11.7861 7.2373C 11.7861 5.77441 12.0391 4.6875 12.5449 3.97656C 13.0508 3.26562 13.8438 2.91016 14.9238 2.91016C 15.9948 2.91016 16.7832 3.25423 17.2891 3.94238C 17.7949 4.62598 18.0547 5.68327 18.0684 7.11426L 18.0684 8.75488ZM 16.8037 7.02539C 16.8037 5.95443 16.6533 5.17513 16.3525 4.6875C 16.0518 4.19531 15.5755 3.94922 14.9238 3.94922C 14.2767 3.94922 13.805 4.19303 13.5088 4.68066C 13.2126 5.16829 13.0599 5.91797 13.0508 6.92969L 13.0508 8.95312C 13.0508 10.0286 13.2057 10.8239 13.5156 11.3389C 13.8301 11.8493 14.304 12.1045 14.9375 12.1045C 15.5618 12.1045 16.0244 11.863 16.3252 11.3799C 16.6305 10.8968 16.79 10.1357 16.8037 9.09668L 16.8037 7.02539Z"/>
<path id="path18_fill" d="M 5.62207 13L 4.35059 13L 4.35059 4.57129L 1.80078 5.50781L 1.80078 4.35938L 5.42383 2.99902L 5.62207 2.99902L 5.62207 13ZM 11.166 7.4082L 12.1162 7.4082C 12.7132 7.39909 13.1826 7.24186 13.5244 6.93652C 13.8662 6.63118 14.0371 6.21875 14.0371 5.69922C 14.0371 4.53255 13.4561 3.94922 12.2939 3.94922C 11.7471 3.94922 11.3096 4.10645 10.9814 4.4209C 10.6579 4.73079 10.4961 5.14323 10.4961 5.6582L 9.23145 5.6582C 9.23145 4.86979 9.51855 4.21582 10.0928 3.69629C 10.6715 3.1722 11.4053 2.91016 12.2939 2.91016C 13.2327 2.91016 13.9688 3.15853 14.502 3.65527C 15.0352 4.15202 15.3018 4.84245 15.3018 5.72656C 15.3018 6.15951 15.1605 6.57878 14.8779 6.98438C 14.5999 7.38997 14.2194 7.69303 13.7363 7.89355C 14.2832 8.06673 14.7048 8.35384 15.001 8.75488C 15.3018 9.15592 15.4521 9.64583 15.4521 10.2246C 15.4521 11.1178 15.1605 11.8265 14.5771 12.3506C 13.9938 12.8747 13.235 13.1367 12.3008 13.1367C 11.3665 13.1367 10.6055 12.8838 10.0176 12.3779C 9.43424 11.8721 9.14258 11.2044 9.14258 10.375L 10.4141 10.375C 10.4141 10.8991 10.585 11.3184 10.9268 11.6328C 11.2686 11.9473 11.7266 12.1045 12.3008 12.1045C 12.9115 12.1045 13.3786 11.945 13.7021 11.626C 14.0257 11.307 14.1875 10.849 14.1875 10.252C 14.1875 9.67318 14.0098 9.22884 13.6543 8.91895C 13.2988 8.60905 12.7861 8.44954 12.1162 8.44043L 11.166 8.44043L 11.166 7.4082Z"/>
<path id="path19_fill" d="M 6.35938 3.04004L 6.35938 4.11328L 6.12695 4.11328C 5.14258 4.13151 4.35872 4.42318 3.77539 4.98828C 3.19206 5.55339 2.85482 6.34863 2.76367 7.37402C 3.28776 6.77246 4.00326 6.47168 4.91016 6.47168C 5.77604 6.47168 6.46647 6.77702 6.98145 7.3877C 7.50098 7.99837 7.76074 8.78678 7.76074 9.75293C 7.76074 10.7783 7.48047 11.5986 6.91992 12.2139C 6.36393 12.8291 5.61654 13.1367 4.67773 13.1367C 3.72526 13.1367 2.9528 12.7721 2.36035 12.043C 1.7679 11.3092 1.47168 10.3659 1.47168 9.21289L 1.47168 8.72754C 1.47168 6.89551 1.86133 5.49642 2.64062 4.53027C 3.42448 3.55957 4.58887 3.06283 6.13379 3.04004L 6.35938 3.04004ZM 4.69824 7.52441C 4.2653 7.52441 3.86654 7.6543 3.50195 7.91406C 3.13737 8.17383 2.88444 8.49967 2.74316 8.8916L 2.74316 9.35645C 2.74316 10.1768 2.92773 10.8376 3.29688 11.3389C 3.66602 11.8402 4.1263 12.0908 4.67773 12.0908C 5.2474 12.0908 5.69401 11.8812 6.01758 11.4619C 6.3457 11.0426 6.50977 10.4935 6.50977 9.81445C 6.50977 9.13086 6.34342 8.57943 6.01074 8.16016C 5.68262 7.73633 5.24512 7.52441 4.69824 7.52441Z"/>
<path id="path20_fill" d="M 7.9873 13L 1.46582 13L 1.46582 12.0908L 4.91113 8.2627C 5.42155 7.68392 5.77246 7.21452 5.96387 6.85449C 6.15983 6.48991 6.25781 6.11393 6.25781 5.72656C 6.25781 5.20703 6.10059 4.78092 5.78613 4.44824C 5.47168 4.11556 5.05241 3.94922 4.52832 3.94922C 3.89941 3.94922 3.40951 4.12923 3.05859 4.48926C 2.71224 4.84473 2.53906 5.34147 2.53906 5.97949L 1.27441 5.97949C 1.27441 5.06348 1.56836 4.32292 2.15625 3.75781C 2.7487 3.19271 3.53939 2.91016 4.52832 2.91016C 5.45345 2.91016 6.1849 3.15397 6.72266 3.6416C 7.26042 4.12467 7.5293 4.76953 7.5293 5.57617C 7.5293 6.55599 6.90495 7.72266 5.65625 9.07617L 2.99023 11.9678L 7.9873 11.9678L 7.9873 13ZM 14.1738 8.625C 13.9095 8.93945 13.5928 9.19238 13.2236 9.38379C 12.859 9.5752 12.458 9.6709 12.0205 9.6709C 11.4463 9.6709 10.945 9.52962 10.5166 9.24707C 10.0928 8.96452 9.76465 8.56803 9.53223 8.05762C 9.2998 7.54264 9.18359 6.97526 9.18359 6.35547C 9.18359 5.6901 9.30892 5.09082 9.55957 4.55762C 9.81478 4.02441 10.1748 3.61654 10.6396 3.33398C 11.1045 3.05143 11.6468 2.91016 12.2666 2.91016C 13.251 2.91016 14.0257 3.2793 14.5908 4.01758C 15.1605 4.7513 15.4453 5.75391 15.4453 7.02539L 15.4453 7.39453C 15.4453 9.33138 15.0625 10.7464 14.2969 11.6396C 13.5312 12.5283 12.376 12.984 10.8311 13.0068L 10.585 13.0068L 10.585 11.9404L 10.8516 11.9404C 11.8952 11.9222 12.6973 11.651 13.2578 11.127C 13.8184 10.5983 14.1237 9.76432 14.1738 8.625ZM 12.2256 8.625C 12.6494 8.625 13.0391 8.49512 13.3945 8.23535C 13.7546 7.97559 14.0166 7.6543 14.1807 7.27148L 14.1807 6.76562C 14.1807 5.9362 14.0007 5.26172 13.6406 4.74219C 13.2806 4.22266 12.8249 3.96289 12.2734 3.96289C 11.7174 3.96289 11.2708 4.17708 10.9336 4.60547C 10.5964 5.0293 10.4277 5.58984 10.4277 6.28711C 10.4277 6.96615 10.5895 7.52669 10.9131 7.96875C 11.2412 8.40625 11.6787 8.625 12.2256 8.625Z"/>
<path id="path21_fill" d="M 7.9873 13L 1.46582 13L 1.46582 12.0908L 4.91113 8.2627C 5.42155 7.68392 5.77246 7.21452 5.96387 6.85449C 6.15983 6.48991 6.25781 6.11393 6.25781 5.72656C 6.25781 5.20703 6.10059 4.78092 5.78613 4.44824C 5.47168 4.11556 5.05241 3.94922 4.52832 3.94922C 3.89941 3.94922 3.40951 4.12923 3.05859 4.48926C 2.71224 4.84473 2.53906 5.34147 2.53906 5.97949L 1.27441 5.97949C 1.27441 5.06348 1.56836 4.32292 2.15625 3.75781C 2.7487 3.19271 3.53939 2.91016 4.52832 2.91016C 5.45345 2.91016 6.1849 3.15397 6.72266 3.6416C 7.26042 4.12467 7.5293 4.76953 7.5293 5.57617C 7.5293 6.55599 6.90495 7.72266 5.65625 9.07617L 2.99023 11.9678L 7.9873 11.9678L 7.9873 13ZM 13.4834 13L 12.2119 13L 12.2119 4.57129L 9.66211 5.50781L 9.66211 4.35938L 13.2852 2.99902L 13.4834 2.99902L 13.4834 13Z"/>
<path id="path22_fill" d="M 5.62207 13L 4.35059 13L 4.35059 4.57129L 1.80078 5.50781L 1.80078 4.35938L 5.42383 2.99902L 5.62207 2.99902L 5.62207 13ZM 14.666 9.65723L 16.0469 9.65723L 16.0469 10.6895L 14.666 10.6895L 14.666 13L 13.3945 13L 13.3945 10.6895L 8.8623 10.6895L 8.8623 9.94434L 13.3193 3.04688L 14.666 3.04688L 14.666 9.65723ZM 10.2979 9.65723L 13.3945 9.65723L 13.3945 4.77637L 13.2441 5.0498L 10.2979 9.65723Z"/>
<path id="path23_fill" d="M 11.8223 3.75781L 7.7002 13L 6.37402 13L 10.4824 4.08594L 5.0957 4.08594L 5.0957 3.04688L 11.8223 3.04688L 11.8223 3.75781Z"/>
<path id="path24_fill" d="M 5.80469 7.4082L 6.75488 7.4082C 7.35189 7.39909 7.82129 7.24186 8.16309 6.93652C 8.50488 6.63118 8.67578 6.21875 8.67578 5.69922C 8.67578 4.53255 8.09473 3.94922 6.93262 3.94922C 6.38574 3.94922 5.94824 4.10645 5.62012 4.4209C 5.29655 4.73079 5.13477 5.14323 5.13477 5.6582L 3.87012 5.6582C 3.87012 4.86979 4.15723 4.21582 4.73145 3.69629C 5.31022 3.1722 6.04395 2.91016 6.93262 2.91016C 7.87142 2.91016 8.60742 3.15853 9.14062 3.65527C 9.67383 4.15202 9.94043 4.84245 9.94043 5.72656C 9.94043 6.15951 9.79915 6.57878 9.5166 6.98438C 9.23861 7.38997 8.85807 7.69303 8.375 7.89355C 8.92188 8.06673 9.34342 8.35384 9.63965 8.75488C 9.94043 9.15592 10.0908 9.64583 10.0908 10.2246C 10.0908 11.1178 9.79915 11.8265 9.21582 12.3506C 8.63249 12.8747 7.8737 13.1367 6.93945 13.1367C 6.00521 13.1367 5.24414 12.8838 4.65625 12.3779C 4.07292 11.8721 3.78125 11.2044 3.78125 10.375L 5.05273 10.375C 5.05273 10.8991 5.22363 11.3184 5.56543 11.6328C 5.90723 11.9473 6.36523 12.1045 6.93945 12.1045C 7.55013 12.1045 8.01725 11.945 8.34082 11.626C 8.66439 11.307 8.82617 10.849 8.82617 10.252C 8.82617 9.67318 8.64844 9.22884 8.29297 8.91895C 7.9375 8.60905 7.4248 8.44954 6.75488 8.44043L 5.80469 8.44043L 5.80469 7.4082ZM 18.0684 8.75488C 18.0684 10.236 17.8154 11.3366 17.3096 12.0566C 16.8037 12.7767 16.013 13.1367 14.9375 13.1367C 13.8757 13.1367 13.0895 12.7858 12.5791 12.084C 12.0687 11.3776 11.8044 10.3249 11.7861 8.92578L 11.7861 7.2373C 11.7861 5.77441 12.0391 4.6875 12.5449 3.97656C 13.0508 3.26562 13.8438 2.91016 14.9238 2.91016C 15.9948 2.91016 16.7832 3.25423 17.2891 3.94238C 17.7949 4.62598 18.0547 5.68327 18.0684 7.11426L 18.0684 8.75488ZM 16.8037 7.02539C 16.8037 5.95443 16.6533 5.17513 16.3525 4.6875C 16.0518 4.19531 15.5755 3.94922 14.9238 3.94922C 14.2767 3.94922 13.805 4.19303 13.5088 4.68066C 13.2126 5.16829 13.0599 5.91797 13.0508 6.92969L 13.0508 8.95312C 13.0508 10.0286 13.2057 10.8239 13.5156 11.3389C 13.8301 11.8493 14.304 12.1045 14.9375 12.1045C 15.5618 12.1045 16.0244 11.863 16.3252 11.3799C 16.6305 10.8968 16.79 10.1357 16.8037 9.09668L 16.8037 7.02539Z"/>
<path id="path25_fill" d="M 7.9873 13L 1.46582 13L 1.46582 12.0908L 4.91113 8.2627C 5.42155 7.68392 5.77246 7.21452 5.96387 6.85449C 6.15983 6.48991 6.25781 6.11393 6.25781 5.72656C 6.25781 5.20703 6.10059 4.78092 5.78613 4.44824C 5.47168 4.11556 5.05241 3.94922 4.52832 3.94922C 3.89941 3.94922 3.40951 4.12923 3.05859 4.48926C 2.71224 4.84473 2.53906 5.34147 2.53906 5.97949L 1.27441 5.97949C 1.27441 5.06348 1.56836 4.32292 2.15625 3.75781C 2.7487 3.19271 3.53939 2.91016 4.52832 2.91016C 5.45345 2.91016 6.1849 3.15397 6.72266 3.6416C 7.26042 4.12467 7.5293 4.76953 7.5293 5.57617C 7.5293 6.55599 6.90495 7.72266 5.65625 9.07617L 2.99023 11.9678L 7.9873 11.9678L 7.9873 13ZM 15.8486 13L 9.32715 13L 9.32715 12.0908L 12.7725 8.2627C 13.2829 7.68392 13.6338 7.21452 13.8252 6.85449C 14.0212 6.48991 14.1191 6.11393 14.1191 5.72656C 14.1191 5.20703 13.9619 4.78092 13.6475 4.44824C 13.333 4.11556 12.9137 3.94922 12.3896 3.94922C 11.7607 3.94922 11.2708 4.12923 10.9199 4.48926C 10.5736 4.84473 10.4004 5.34147 10.4004 5.97949L 9.13574 5.97949C 9.13574 5.06348 9.42969 4.32292 10.0176 3.75781C 10.61 3.19271 11.4007 2.91016 12.3896 2.91016C 13.3148 2.91016 14.0462 3.15397 14.584 3.6416C 15.1217 4.12467 15.3906 4.76953 15.3906 5.57617C 15.3906 6.55599 14.7663 7.72266 13.5176 9.07617L 10.8516 11.9678L 15.8486 11.9678L 15.8486 13Z"/>
<path id="path26_fill" d="M 5.62207 13L 4.35059 13L 4.35059 4.57129L 1.80078 5.50781L 1.80078 4.35938L 5.42383 2.99902L 5.62207 2.99902L 5.62207 13ZM 9.9082 8.00977L 10.4141 3.04688L 15.5137 3.04688L 15.5137 4.21582L 11.4873 4.21582L 11.1865 6.92969C 11.6742 6.64258 12.2279 6.49902 12.8477 6.49902C 13.7546 6.49902 14.4746 6.7998 15.0078 7.40137C 15.541 7.99837 15.8076 8.80729 15.8076 9.82812C 15.8076 10.8535 15.5296 11.6624 14.9736 12.2549C 14.4222 12.8428 13.6497 13.1367 12.6562 13.1367C 11.7767 13.1367 11.0589 12.8929 10.5029 12.4053C 9.94694 11.9176 9.63021 11.2432 9.55273 10.3818L 10.749 10.3818C 10.8265 10.9515 11.0293 11.3822 11.3574 11.6738C 11.6855 11.9609 12.1185 12.1045 12.6562 12.1045C 13.2441 12.1045 13.7044 11.904 14.0371 11.5029C 14.3743 11.1019 14.543 10.5482 14.543 9.8418C 14.543 9.17643 14.3607 8.64323 13.9961 8.24219C 13.6361 7.83659 13.1553 7.63379 12.5537 7.63379C 12.0023 7.63379 11.5693 7.75456 11.2549 7.99609L 10.9199 8.26953L 9.9082 8.00977Z"/>
<path id="path27_fill" d="M 11.4326 5.64453C 11.4326 6.14128 11.3005 6.58333 11.0361 6.9707C 10.7764 7.35807 10.4232 7.66113 9.97656 7.87988C 10.4961 8.10319 10.9062 8.42904 11.207 8.85742C 11.5124 9.28581 11.665 9.77116 11.665 10.3135C 11.665 11.1748 11.3734 11.8607 10.79 12.3711C 10.2113 12.8815 9.44792 13.1367 8.5 13.1367C 7.54297 13.1367 6.77507 12.8815 6.19629 12.3711C 5.62207 11.8561 5.33496 11.1702 5.33496 10.3135C 5.33496 9.77572 5.48079 9.29036 5.77246 8.85742C 6.06868 8.42448 6.47656 8.09635 6.99609 7.87305C 6.55404 7.6543 6.2054 7.35124 5.9502 6.96387C 5.69499 6.5765 5.56738 6.13672 5.56738 5.64453C 5.56738 4.80599 5.83626 4.14062 6.37402 3.64844C 6.91178 3.15625 7.62044 2.91016 8.5 2.91016C 9.375 2.91016 10.0814 3.15625 10.6191 3.64844C 11.1615 4.14062 11.4326 4.80599 11.4326 5.64453ZM 10.4004 10.2861C 10.4004 9.73014 10.2227 9.27669 9.86719 8.92578C 9.51628 8.57487 9.05599 8.39941 8.48633 8.39941C 7.91667 8.39941 7.45866 8.57259 7.1123 8.91895C 6.77051 9.2653 6.59961 9.72103 6.59961 10.2861C 6.59961 10.8512 6.76595 11.2956 7.09863 11.6191C 7.43587 11.9427 7.90299 12.1045 8.5 12.1045C 9.09245 12.1045 9.55729 11.9427 9.89453 11.6191C 10.2318 11.291 10.4004 10.8467 10.4004 10.2861ZM 8.5 3.94922C 8.00326 3.94922 7.59993 4.10417 7.29004 4.41406C 6.9847 4.7194 6.83203 5.13639 6.83203 5.66504C 6.83203 6.1709 6.98242 6.58105 7.2832 6.89551C 7.58854 7.2054 7.99414 7.36035 8.5 7.36035C 9.00586 7.36035 9.40918 7.2054 9.70996 6.89551C 10.0153 6.58105 10.168 6.1709 10.168 5.66504C 10.168 5.15918 10.0107 4.74674 9.69629 4.42773C 9.38184 4.10872 8.98307 3.94922 8.5 3.94922Z"/>
<path id="path28_fill" d="M 5.55273 13L 4.28125 13L 4.28125 4.57129L 1.73145 5.50781L 1.73145 4.35938L 5.35449 2.99902L 5.55273 2.99902L 5.55273 13Z"/>
<path id="path29_fill" d="M 7.9873 13L 1.46582 13L 1.46582 12.0908L 4.91113 8.2627C 5.42155 7.68392 5.77246 7.21452 5.96387 6.85449C 6.15983 6.48991 6.25781 6.11393 6.25781 5.72656C 6.25781 5.20703 6.10059 4.78092 5.78613 4.44824C 5.47168 4.11556 5.05241 3.94922 4.52832 3.94922C 3.89941 3.94922 3.40951 4.12923 3.05859 4.48926C 2.71224 4.84473 2.53906 5.34147 2.53906 5.97949L 1.27441 5.97949C 1.27441 5.06348 1.56836 4.32292 2.15625 3.75781C 2.7487 3.19271 3.53939 2.91016 4.52832 2.91016C 5.45345 2.91016 6.1849 3.15397 6.72266 3.6416C 7.26042 4.12467 7.5293 4.76953 7.5293 5.57617C 7.5293 6.55599 6.90495 7.72266 5.65625 9.07617L 2.99023 11.9678L 7.9873 11.9678L 7.9873 13ZM 11.166 7.4082L 12.1162 7.4082C 12.7132 7.39909 13.1826 7.24186 13.5244 6.93652C 13.8662 6.63118 14.0371 6.21875 14.0371 5.69922C 14.0371 4.53255 13.4561 3.94922 12.2939 3.94922C 11.7471 3.94922 11.3096 4.10645 10.9814 4.4209C 10.6579 4.73079 10.4961 5.14323 10.4961 5.6582L 9.23145 5.6582C 9.23145 4.86979 9.51855 4.21582 10.0928 3.69629C 10.6715 3.1722 11.4053 2.91016 12.2939 2.91016C 13.2327 2.91016 13.9688 3.15853 14.502 3.65527C 15.0352 4.15202 15.3018 4.84245 15.3018 5.72656C 15.3018 6.15951 15.1605 6.57878 14.8779 6.98438C 14.5999 7.38997 14.2194 7.69303 13.7363 7.89355C 14.2832 8.06673 14.7048 8.35384 15.001 8.75488C 15.3018 9.15592 15.4521 9.64583 15.4521 10.2246C 15.4521 11.1178 15.1605 11.8265 14.5771 12.3506C 13.9938 12.8747 13.235 13.1367 12.3008 13.1367C 11.3665 13.1367 10.6055 12.8838 10.0176 12.3779C 9.43424 11.8721 9.14258 11.2044 9.14258 10.375L 10.4141 10.375C 10.4141 10.8991 10.585 11.3184 10.9268 11.6328C 11.2686 11.9473 11.7266 12.1045 12.3008 12.1045C 12.9115 12.1045 13.3786 11.945 13.7021 11.626C 14.0257 11.307 14.1875 10.849 14.1875 10.252C 14.1875 9.67318 14.0098 9.22884 13.6543 8.91895C 13.2988 8.60905 12.7861 8.44954 12.1162 8.44043L 11.166 8.44043L 11.166 7.4082Z"/>
<path id="path30_fill" d="M 5.62207 13L 4.35059 13L 4.35059 4.57129L 1.80078 5.50781L 1.80078 4.35938L 5.42383 2.99902L 5.62207 2.99902L 5.62207 13ZM 14.29 3.04004L 14.29 4.11328L 14.0576 4.11328C 13.0732 4.13151 12.2894 4.42318 11.7061 4.98828C 11.1227 5.55339 10.7855 6.34863 10.6943 7.37402C 11.2184 6.77246 11.9339 6.47168 12.8408 6.47168C 13.7067 6.47168 14.3971 6.77702 14.9121 7.3877C 15.4316 7.99837 15.6914 8.78678 15.6914 9.75293C 15.6914 10.7783 15.4111 11.5986 14.8506 12.2139C 14.2946 12.8291 13.5472 13.1367 12.6084 13.1367C 11.6559 13.1367 10.8835 12.7721 10.291 12.043C 9.69857 11.3092 9.40234 10.3659 9.40234 9.21289L 9.40234 8.72754C 9.40234 6.89551 9.79199 5.49642 10.5713 4.53027C 11.3551 3.55957 12.5195 3.06283 14.0645 3.04004L 14.29 3.04004ZM 12.6289 7.52441C 12.196 7.52441 11.7972 7.6543 11.4326 7.91406C 11.068 8.17383 10.8151 8.49967 10.6738 8.8916L 10.6738 9.35645C 10.6738 10.1768 10.8584 10.8376 11.2275 11.3389C 11.5967 11.8402 12.057 12.0908 12.6084 12.0908C 13.1781 12.0908 13.6247 11.8812 13.9482 11.4619C 14.2764 11.0426 14.4404 10.4935 14.4404 9.81445C 14.4404 9.13086 14.2741 8.57943 13.9414 8.16016C 13.6133 7.73633 13.1758 7.52441 12.6289 7.52441Z"/>
<path id="path31_fill" d="M 10.2432 8.625C 9.97884 8.93945 9.66211 9.19238 9.29297 9.38379C 8.92839 9.5752 8.52734 9.6709 8.08984 9.6709C 7.51562 9.6709 7.01432 9.52962 6.58594 9.24707C 6.16211 8.96452 5.83398 8.56803 5.60156 8.05762C 5.36914 7.54264 5.25293 6.97526 5.25293 6.35547C 5.25293 5.6901 5.37826 5.09082 5.62891 4.55762C 5.88411 4.02441 6.24414 3.61654 6.70898 3.33398C 7.17383 3.05143 7.71615 2.91016 8.33594 2.91016C 9.32031 2.91016 10.0951 3.2793 10.6602 4.01758C 11.2298 4.7513 11.5146 5.75391 11.5146 7.02539L 11.5146 7.39453C 11.5146 9.33138 11.1318 10.7464 10.3662 11.6396C 9.60059 12.5283 8.44531 12.984 6.90039 13.0068L 6.6543 13.0068L 6.6543 11.9404L 6.9209 11.9404C 7.96452 11.9222 8.7666 11.651 9.32715 11.127C 9.8877 10.5983 10.193 9.76432 10.2432 8.625ZM 8.29492 8.625C 8.71875 8.625 9.1084 8.49512 9.46387 8.23535C 9.82389 7.97559 10.0859 7.6543 10.25 7.27148L 10.25 6.76562C 10.25 5.9362 10.07 5.26172 9.70996 4.74219C 9.34993 4.22266 8.89421 3.96289 8.34277 3.96289C 7.78678 3.96289 7.34017 4.17708 7.00293 4.60547C 6.66569 5.0293 6.49707 5.58984 6.49707 6.28711C 6.49707 6.96615 6.65885 7.52669 6.98242 7.96875C 7.31055 8.40625 7.74805 8.625 8.29492 8.625Z"/>
<path id="path32_fill" d="M 7.91797 13L 1.39648 13L 1.39648 12.0908L 4.8418 8.2627C 5.35221 7.68392 5.70312 7.21452 5.89453 6.85449C 6.09049 6.48991 6.18848 6.11393 6.18848 5.72656C 6.18848 5.20703 6.03125 4.78092 5.7168 4.44824C 5.40234 4.11556 4.98307 3.94922 4.45898 3.94922C 3.83008 3.94922 3.34017 4.12923 2.98926 4.48926C 2.6429 4.84473 2.46973 5.34147 2.46973 5.97949L 1.20508 5.97949C 1.20508 5.06348 1.49902 4.32292 2.08691 3.75781C 2.67936 3.19271 3.47005 2.91016 4.45898 2.91016C 5.38411 2.91016 6.11556 3.15397 6.65332 3.6416C 7.19108 4.12467 7.45996 4.76953 7.45996 5.57617C 7.45996 6.55599 6.83561 7.72266 5.58691 9.07617L 2.9209 11.9678L 7.91797 11.9678L 7.91797 13Z"/>
<path id="path33_fill" d="M 3.30469 7.4082L 4.25488 7.4082C 4.85189 7.39909 5.32129 7.24186 5.66309 6.93652C 6.00488 6.63118 6.17578 6.21875 6.17578 5.69922C 6.17578 4.53255 5.59473 3.94922 4.43262 3.94922C 3.88574 3.94922 3.44824 4.10645 3.12012 4.4209C 2.79655 4.73079 2.63477 5.14323 2.63477 5.6582L 1.37012 5.6582C 1.37012 4.86979 1.65723 4.21582 2.23145 3.69629C 2.81022 3.1722 3.54395 2.91016 4.43262 2.91016C 5.37142 2.91016 6.10742 3.15853 6.64062 3.65527C 7.17383 4.15202 7.44043 4.84245 7.44043 5.72656C 7.44043 6.15951 7.29915 6.57878 7.0166 6.98438C 6.73861 7.38997 6.35807 7.69303 5.875 7.89355C 6.42188 8.06673 6.84342 8.35384 7.13965 8.75488C 7.44043 9.15592 7.59082 9.64583 7.59082 10.2246C 7.59082 11.1178 7.29915 11.8265 6.71582 12.3506C 6.13249 12.8747 5.3737 13.1367 4.43945 13.1367C 3.50521 13.1367 2.74414 12.8838 2.15625 12.3779C 1.57292 11.8721 1.28125 11.2044 1.28125 10.375L 2.55273 10.375C 2.55273 10.8991 2.72363 11.3184 3.06543 11.6328C 3.40723 11.9473 3.86523 12.1045 4.43945 12.1045C 5.05013 12.1045 5.51725 11.945 5.84082 11.626C 6.16439 11.307 6.32617 10.849 6.32617 10.252C 6.32617 9.67318 6.14844 9.22884 5.79297 8.91895C 5.4375 8.60905 4.9248 8.44954 4.25488 8.44043L 3.30469 8.44043L 3.30469 7.4082ZM 13.4834 13L 12.2119 13L 12.2119 4.57129L 9.66211 5.50781L 9.66211 4.35938L 13.2852 2.99902L 13.4834 2.99902L 13.4834 13Z"/>
<path id="path34_fill" d="M 7.9873 13L 1.46582 13L 1.46582 12.0908L 4.91113 8.2627C 5.42155 7.68392 5.77246 7.21452 5.96387 6.85449C 6.15983 6.48991 6.25781 6.11393 6.25781 5.72656C 6.25781 5.20703 6.10059 4.78092 5.78613 4.44824C 5.47168 4.11556 5.05241 3.94922 4.52832 3.94922C 3.89941 3.94922 3.40951 4.12923 3.05859 4.48926C 2.71224 4.84473 2.53906 5.34147 2.53906 5.97949L 1.27441 5.97949C 1.27441 5.06348 1.56836 4.32292 2.15625 3.75781C 2.7487 3.19271 3.53939 2.91016 4.52832 2.91016C 5.45345 2.91016 6.1849 3.15397 6.72266 3.6416C 7.26042 4.12467 7.5293 4.76953 7.5293 5.57617C 7.5293 6.55599 6.90495 7.72266 5.65625 9.07617L 2.99023 11.9678L 7.9873 11.9678L 7.9873 13ZM 14.666 9.65723L 16.0469 9.65723L 16.0469 10.6895L 14.666 10.6895L 14.666 13L 13.3945 13L 13.3945 10.6895L 8.8623 10.6895L 8.8623 9.94434L 13.3193 3.04688L 14.666 3.04688L 14.666 9.65723ZM 10.2979 9.65723L 13.3945 9.65723L 13.3945 4.77637L 13.2441 5.0498L 10.2979 9.65723Z"/>
<path id="path35_fill" d="M 5.62207 13L 4.35059 13L 4.35059 4.57129L 1.80078 5.50781L 1.80078 4.35938L 5.42383 2.99902L 5.62207 2.99902L 5.62207 13ZM 15.7529 3.75781L 11.6309 13L 10.3047 13L 14.4131 4.08594L 9.02637 4.08594L 9.02637 3.04688L 15.7529 3.04688L 15.7529 3.75781Z"/>
<path id="path36_fill" d="M 5.62207 13L 4.35059 13L 4.35059 4.57129L 1.80078 5.50781L 1.80078 4.35938L 5.42383 2.99902L 5.62207 2.99902L 5.62207 13ZM 15.5684 8.75488C 15.5684 10.236 15.3154 11.3366 14.8096 12.0566C 14.3037 12.7767 13.513 13.1367 12.4375 13.1367C 11.3757 13.1367 10.5895 12.7858 10.0791 12.084C 9.56868 11.3776 9.30436 10.3249 9.28613 8.92578L 9.28613 7.2373C 9.28613 5.77441 9.53906 4.6875 10.0449 3.97656C 10.5508 3.26562 11.3438 2.91016 12.4238 2.91016C 13.4948 2.91016 14.2832 3.25423 14.7891 3.94238C 15.2949 4.62598 15.5547 5.68327 15.5684 7.11426L 15.5684 8.75488ZM 14.3037 7.02539C 14.3037 5.95443 14.1533 5.17513 13.8525 4.6875C 13.5518 4.19531 13.0755 3.94922 12.4238 3.94922C 11.7767 3.94922 11.305 4.19303 11.0088 4.68066C 10.7126 5.16829 10.5599 5.91797 10.5508 6.92969L 10.5508 8.95312C 10.5508 10.0286 10.7057 10.8239 11.0156 11.3389C 11.3301 11.8493 11.804 12.1045 12.4375 12.1045C 13.0618 12.1045 13.5244 11.863 13.8252 11.3799C 14.1305 10.8968 14.29 10.1357 14.3037 9.09668L 14.3037 7.02539Z"/>
<path id="path37_fill" d="M 3.23535 7.4082L 4.18555 7.4082C 4.78255 7.39909 5.25195 7.24186 5.59375 6.93652C 5.93555 6.63118 6.10645 6.21875 6.10645 5.69922C 6.10645 4.53255 5.52539 3.94922 4.36328 3.94922C 3.81641 3.94922 3.37891 4.10645 3.05078 4.4209C 2.72721 4.73079 2.56543 5.14323 2.56543 5.6582L 1.30078 5.6582C 1.30078 4.86979 1.58789 4.21582 2.16211 3.69629C 2.74089 3.1722 3.47461 2.91016 4.36328 2.91016C 5.30208 2.91016 6.03809 3.15853 6.57129 3.65527C 7.10449 4.15202 7.37109 4.84245 7.37109 5.72656C 7.37109 6.15951 7.22982 6.57878 6.94727 6.98438C 6.66927 7.38997 6.28874 7.69303 5.80566 7.89355C 6.35254 8.06673 6.77409 8.35384 7.07031 8.75488C 7.37109 9.15592 7.52148 9.64583 7.52148 10.2246C 7.52148 11.1178 7.22982 11.8265 6.64648 12.3506C 6.06315 12.8747 5.30436 13.1367 4.37012 13.1367C 3.43587 13.1367 2.6748 12.8838 2.08691 12.3779C 1.50358 11.8721 1.21191 11.2044 1.21191 10.375L 2.4834 10.375C 2.4834 10.8991 2.6543 11.3184 2.99609 11.6328C 3.33789 11.9473 3.7959 12.1045 4.37012 12.1045C 4.98079 12.1045 5.44792 11.945 5.77148 11.626C 6.09505 11.307 6.25684 10.849 6.25684 10.252C 6.25684 9.67318 6.0791 9.22884 5.72363 8.91895C 5.36816 8.60905 4.85547 8.44954 4.18555 8.44043L 3.23535 8.44043L 3.23535 7.4082Z"/>
<path id="path38_fill" d="M 2.23926 6.04688L 5.49316 14.168L 8.74707 6.04688L 10.4492 6.04688L 10.4492 16L 9.13672 16L 9.13672 12.124L 9.25977 7.94043L 5.99219 16L 4.9873 16L 1.72656 7.96094L 1.85645 12.124L 1.85645 16L 0.543945 16L 0.543945 6.04688L 2.23926 6.04688Z"/>
<path id="path39_fill" d="M 10.8555 7.12695L 7.65625 7.12695L 7.65625 16L 6.35059 16L 6.35059 7.12695L 3.1582 7.12695L 3.1582 6.04688L 10.8555 6.04688L 10.8555 7.12695Z"/>
<path id="path40_fill" d="M 2.08789 12.8623L 2.2793 14.1748L 2.55957 12.9922L 4.52832 6.04688L 5.63574 6.04688L 7.55664 12.9922L 7.83008 14.1953L 8.04199 12.8555L 9.58691 6.04688L 10.9062 6.04688L 8.49316 16L 7.29688 16L 5.24609 8.74707L 5.08887 7.98828L 4.93164 8.74707L 2.80566 16L 1.60938 16L -0.796875 6.04688L 0.515625 6.04688L 2.08789 12.8623Z"/>
<path id="path41_fill" d="M 11.3555 7.12695L 8.15625 7.12695L 8.15625 16L 6.85059 16L 6.85059 7.12695L 3.6582 7.12695L 3.6582 6.04688L 11.3555 6.04688L 11.3555 7.12695Z"/>
<path id="path42_fill" d="M 7.77539 11.6045L 3.59863 11.6045L 3.59863 16L 2.28613 16L 2.28613 6.04688L 8.45215 6.04688L 8.45215 7.12695L 3.59863 7.12695L 3.59863 10.5312L 7.77539 10.5312L 7.77539 11.6045Z"/>
<path id="path43_fill" d="M 4.93164 11.5635C 3.80599 11.2399 2.98568 10.8434 2.4707 10.374C 1.96029 9.90007 1.70508 9.31673 1.70508 8.62402C 1.70508 7.84017 2.01725 7.19303 2.6416 6.68262C 3.27051 6.16764 4.08626 5.91016 5.08887 5.91016C 5.77246 5.91016 6.38086 6.04232 6.91406 6.30664C 7.45182 6.57096 7.86654 6.93555 8.1582 7.40039C 8.45443 7.86523 8.60254 8.37337 8.60254 8.9248L 7.2832 8.9248C 7.2832 8.32324 7.0918 7.85156 6.70898 7.50977C 6.32617 7.16341 5.78613 6.99023 5.08887 6.99023C 4.44173 6.99023 3.93587 7.13379 3.57129 7.4209C 3.21126 7.70345 3.03125 8.09766 3.03125 8.60352C 3.03125 9.00911 3.20215 9.35319 3.54395 9.63574C 3.8903 9.91374 4.47591 10.1689 5.30078 10.4014C 6.13021 10.6338 6.77734 10.8913 7.24219 11.1738C 7.71159 11.4518 8.05794 11.7777 8.28125 12.1514C 8.50911 12.5251 8.62305 12.9648 8.62305 13.4707C 8.62305 14.2773 8.30859 14.9245 7.67969 15.4121C 7.05078 15.8952 6.20996 16.1367 5.15723 16.1367C 4.47363 16.1367 3.83561 16.0068 3.24316 15.7471C 2.65072 15.4827 2.19271 15.1227 1.86914 14.667C 1.55013 14.2113 1.39062 13.694 1.39062 13.1152L 2.70996 13.1152C 2.70996 13.7168 2.93099 14.193 3.37305 14.5439C 3.81966 14.8903 4.41439 15.0635 5.15723 15.0635C 5.84993 15.0635 6.38086 14.9222 6.75 14.6396C 7.11914 14.3571 7.30371 13.972 7.30371 13.4844C 7.30371 12.9967 7.13281 12.6208 6.79102 12.3564C 6.44922 12.0876 5.82943 11.8232 4.93164 11.5635Z"/>
<path id="path44_fill" d="M 5.43164 11.5635C 4.30599 11.2399 3.48568 10.8434 2.9707 10.374C 2.46029 9.90007 2.20508 9.31673 2.20508 8.62402C 2.20508 7.84017 2.51725 7.19303 3.1416 6.68262C 3.77051 6.16764 4.58626 5.91016 5.58887 5.91016C 6.27246 5.91016 6.88086 6.04232 7.41406 6.30664C 7.95182 6.57096 8.36654 6.93555 8.6582 7.40039C 8.95443 7.86523 9.10254 8.37337 9.10254 8.9248L 7.7832 8.9248C 7.7832 8.32324 7.5918 7.85156 7.20898 7.50977C 6.82617 7.16341 6.28613 6.99023 5.58887 6.99023C 4.94173 6.99023 4.43587 7.13379 4.07129 7.4209C 3.71126 7.70345 3.53125 8.09766 3.53125 8.60352C 3.53125 9.00911 3.70215 9.35319 4.04395 9.63574C 4.3903 9.91374 4.97591 10.1689 5.80078 10.4014C 6.63021 10.6338 7.27734 10.8913 7.74219 11.1738C 8.21159 11.4518 8.55794 11.7777 8.78125 12.1514C 9.00911 12.5251 9.12305 12.9648 9.12305 13.4707C 9.12305 14.2773 8.80859 14.9245 8.17969 15.4121C 7.55078 15.8952 6.70996 16.1367 5.65723 16.1367C 4.97363 16.1367 4.33561 16.0068 3.74316 15.7471C 3.15072 15.4827 2.69271 15.1227 2.36914 14.667C 2.05013 14.2113 1.89062 13.694 1.89062 13.1152L 3.20996 13.1152C 3.20996 13.7168 3.43099 14.193 3.87305 14.5439C 4.31966 14.8903 4.91439 15.0635 5.65723 15.0635C 6.34993 15.0635 6.88086 14.9222 7.25 14.6396C 7.61914 14.3571 7.80371 13.972 7.80371 13.4844C 7.80371 12.9967 7.63281 12.6208 7.29102 12.3564C 6.94922 12.0876 6.32943 11.8232 5.43164 11.5635Z"/>
</defs>
</svg>
