<svg width="335" height="48" viewBox="0 0 335 48" version="1.1" xmlns="http://www.w3.org/2000/svg" xmlns:xlink="http://www.w3.org/1999/xlink">
<title>Component</title>
<desc>Created using Figma</desc>
<g id="Canvas" transform="translate(-2591 -11415)">
<g id="Component">
<g id="input field copy 13">
<use xlink:href="#path0_fill" transform="translate(2591 11415)" fill="#FFFFFF"/>
<mask id="mask0_outline_ins">
<use xlink:href="#path0_fill" fill="white" transform="translate(2591 11415)"/>
</mask>
<g mask="url(#mask0_outline_ins)">
<use xlink:href="#path1_stroke_2x" transform="translate(2591 11415)" fill="#E0E6ED"/>
</g>
</g>
<g id="Built in">
<use xlink:href="#path2_fill" transform="translate(2606 11430)" fill="#34495E"/>
</g>
<g id="chevron copy 3">
<use xlink:href="#path3_fill" transform="matrix(-6.12323e-17 -1 -1 6.12323e-17 2910.33 11441.5)" fill="#48495B"/>
<use xlink:href="#path4_stroke" transform="matrix(-6.12323e-17 -1 -1 6.12323e-17 2910.33 11441.5)" fill="#808FA3"/>
</g>
</g>
</g>
<defs>
<path id="path0_fill" fill-rule="evenodd" d="M 0 4C 0 1.79086 1.79086 0 4 0L 331 0C 333.209 0 335 1.79086 335 4L 335 44C 335 46.2091 333.209 48 331 48L 4 48C 1.79086 48 0 46.2091 0 44L 0 4Z"/>
<path id="path1_stroke_2x" d="M 4 1L 331 1L 331 -1L 4 -1L 4 1ZM 334 4L 334 44L 336 44L 336 4L 334 4ZM 331 47L 4 47L 4 49L 331 49L 331 47ZM 1 44L 1 4L -1 4L -1 44L 1 44ZM 4 -1C 1.23858 -1 -1 1.23858 -1 4L 1 4C 1 2.34315 2.34315 1 4 1L 4 -1ZM 331 1C 332.657 1 334 2.34315 334 4L 336 4C 336 1.23858 333.761 -1 331 -1L 331 1ZM 334 44C 334 45.6569 332.657 47 331 47L 331 49C 333.761 49 336 46.7614 336 44L 334 44ZM 4 47C 2.34315 47 1 45.6569 1 44L -1 44C -1 46.7614 1.23858 49 4 49L 4 47Z"/>
<path id="path2_fill" d="M 1.32031 15L 1.32031 3.625L 5.03906 3.625C 6.27344 3.625 7.20052 3.88021 7.82031 4.39062C 8.44531 4.90104 8.75781 5.65625 8.75781 6.65625C 8.75781 7.1875 8.60677 7.65885 8.30469 8.07031C 8.0026 8.47656 7.59115 8.79167 7.07031 9.01562C 7.6849 9.1875 8.16927 9.51562 8.52344 10C 8.88281 10.4792 9.0625 11.0521 9.0625 11.7188C 9.0625 12.7396 8.73177 13.5417 8.07031 14.125C 7.40885 14.7083 6.47396 15 5.26562 15L 1.32031 15ZM 2.82031 9.67969L 2.82031 13.7734L 5.29688 13.7734C 5.99479 13.7734 6.54427 13.5938 6.94531 13.2344C 7.35156 12.8698 7.55469 12.3698 7.55469 11.7344C 7.55469 10.3646 6.8099 9.67969 5.32031 9.67969L 2.82031 9.67969ZM 2.82031 8.47656L 5.08594 8.47656C 5.74219 8.47656 6.26562 8.3125 6.65625 7.98438C 7.05208 7.65625 7.25 7.21094 7.25 6.64844C 7.25 6.02344 7.06771 5.57031 6.70312 5.28906C 6.33854 5.0026 5.78385 4.85938 5.03906 4.85938L 2.82031 4.85938L 2.82031 8.47656ZM 16.2812 14.1641C 15.7188 14.8255 14.8932 15.1562 13.8047 15.1562C 12.9036 15.1562 12.2161 14.8958 11.7422 14.375C 11.2734 13.849 11.0365 13.0729 11.0312 12.0469L 11.0312 6.54688L 12.4766 6.54688L 12.4766 12.0078C 12.4766 13.2891 12.9974 13.9297 14.0391 13.9297C 15.1432 13.9297 15.8776 13.5182 16.2422 12.6953L 16.2422 6.54688L 17.6875 6.54688L 17.6875 15L 16.3125 15L 16.2812 14.1641ZM 21.4609 15L 20.0156 15L 20.0156 6.54688L 21.4609 6.54688L 21.4609 15ZM 19.8984 4.30469C 19.8984 4.07031 19.9688 3.8724 20.1094 3.71094C 20.2552 3.54948 20.4688 3.46875 20.75 3.46875C 21.0312 3.46875 21.2448 3.54948 21.3906 3.71094C 21.5365 3.8724 21.6094 4.07031 21.6094 4.30469C 21.6094 4.53906 21.5365 4.73438 21.3906 4.89062C 21.2448 5.04688 21.0312 5.125 20.75 5.125C 20.4688 5.125 20.2552 5.04688 20.1094 4.89062C 19.9688 4.73438 19.8984 4.53906 19.8984 4.30469ZM 25.3516 15L 23.9062 15L 23.9062 3L 25.3516 3L 25.3516 15ZM 29.6328 4.5L 29.6328 6.54688L 31.2109 6.54688L 31.2109 7.66406L 29.6328 7.66406L 29.6328 12.9062C 29.6328 13.2448 29.7031 13.5 29.8438 13.6719C 29.9844 13.8385 30.224 13.9219 30.5625 13.9219C 30.7292 13.9219 30.9583 13.8906 31.25 13.8281L 31.25 15C 30.8698 15.1042 30.5 15.1562 30.1406 15.1562C 29.4948 15.1562 29.0078 14.9609 28.6797 14.5703C 28.3516 14.1797 28.1875 13.625 28.1875 12.9062L 28.1875 7.66406L 26.6484 7.66406L 26.6484 6.54688L 28.1875 6.54688L 28.1875 4.5L 29.6328 4.5ZM 38.4453 15L 37 15L 37 6.54688L 38.4453 6.54688L 38.4453 15ZM 36.8828 4.30469C 36.8828 4.07031 36.9531 3.8724 37.0938 3.71094C 37.2396 3.54948 37.4531 3.46875 37.7344 3.46875C 38.0156 3.46875 38.2292 3.54948 38.375 3.71094C 38.5208 3.8724 38.5938 4.07031 38.5938 4.30469C 38.5938 4.53906 38.5208 4.73438 38.375 4.89062C 38.2292 5.04688 38.0156 5.125 37.7344 5.125C 37.4531 5.125 37.2396 5.04688 37.0938 4.89062C 36.9531 4.73438 36.8828 4.53906 36.8828 4.30469ZM 42.1328 6.54688L 42.1797 7.60938C 42.8255 6.79688 43.6693 6.39062 44.7109 6.39062C 46.4974 6.39062 47.3984 7.39844 47.4141 9.41406L 47.4141 15L 45.9688 15L 45.9688 9.40625C 45.9635 8.79688 45.8229 8.34635 45.5469 8.05469C 45.276 7.76302 44.8516 7.61719 44.2734 7.61719C 43.8047 7.61719 43.3932 7.74219 43.0391 7.99219C 42.6849 8.24219 42.4089 8.57031 42.2109 8.97656L 42.2109 15L 40.7656 15L 40.7656 6.54688L 42.1328 6.54688Z"/>
<path id="path3_fill" fill-rule="evenodd" d="M 5.27253 8.22393C 5.52866 8.47025 5.5367 8.87761 5.29039 9.1339C 5.16409 9.26518 4.99532 9.3313 4.82639 9.3313C 4.66583 9.3313 4.50527 9.27177 4.38042 9.15175L 0.197406 5.12963C 0.0712721 5.00832 0 4.84068 0 4.66563C 0 4.49075 0.0712721 4.32311 0.197406 4.2018L 4.38042 0.179671C 4.63655 -0.0666438 5.04407 -0.0587604 5.29039 0.19753C 5.5367 0.45382 5.52866 0.861181 5.27253 1.1075L 1.57201 4.66563L 5.27253 8.22393Z"/>
<path id="path4_stroke" d="M 5.27253 8.22393L 5.3765 8.11581L 5.3765 8.11581L 5.27253 8.22393ZM 5.29039 9.1339L 5.39849 9.23789L 5.39854 9.23784L 5.29039 9.1339ZM 4.38042 9.15175L 4.27645 9.25988L 4.27647 9.25989L 4.38042 9.15175ZM 0.197406 5.12963L 0.0934288 5.23774L 0.0934398 5.23775L 0.197406 5.12963ZM 0.197406 4.2018L 0.0934398 4.09368L 0.0934288 4.09369L 0.197406 4.2018ZM 4.38042 0.179671L 4.48439 0.287796L 4.4844 0.287789L 4.38042 0.179671ZM 5.27253 1.1075L 5.37649 1.21562L 5.3765 1.21561L 5.27253 1.1075ZM 1.57201 4.66563L 1.46804 4.55751L 1.35559 4.66563L 1.46804 4.77376L 1.57201 4.66563ZM 5.16855 8.33205C 5.36498 8.52095 5.37117 8.83338 5.18224 9.02996L 5.39854 9.23784C 5.70224 8.92184 5.69234 8.41954 5.3765 8.11581L 5.16855 8.33205ZM 5.18229 9.0299C 5.08543 9.13059 4.95623 9.1813 4.82639 9.1813L 4.82639 9.4813C 5.03441 9.4813 5.24276 9.39977 5.39849 9.23789L 5.18229 9.0299ZM 4.82639 9.1813C 4.70298 9.1813 4.58014 9.13568 4.48438 9.04362L 4.27647 9.25989C 4.43039 9.40786 4.62868 9.4813 4.82639 9.4813L 4.82639 9.1813ZM 4.48439 9.04363L 0.301372 5.0215L 0.0934398 5.23775L 4.27645 9.25988L 4.48439 9.04363ZM 0.301383 5.02151C 0.204696 4.92852 0.15 4.79994 0.15 4.66563L -0.15 4.66563C -0.15 4.88141 -0.0621522 5.08811 0.0934288 5.23774L 0.301383 5.02151ZM 0.15 4.66563C 0.15 4.53151 0.204682 4.40292 0.301383 4.30992L 0.0934288 4.09369C -0.0621378 4.2433 -0.15 4.44999 -0.15 4.66563L 0.15 4.66563ZM 0.301372 4.30993L 4.48439 0.287796L 4.27645 0.0715465L 0.0934398 4.09368L 0.301372 4.30993ZM 4.4844 0.287789C 4.68083 0.09888 4.99337 0.104954 5.18224 0.30147L 5.39854 0.0935892C 5.09477 -0.222474 4.59227 -0.232168 4.27645 0.0715543L 4.4844 0.287789ZM 5.18224 0.30147C 5.37117 0.498049 5.36498 0.81048 5.16855 0.999379L 5.3765 1.21561C 5.69234 0.911882 5.70224 0.40959 5.39854 0.0935892L 5.18224 0.30147ZM 5.16856 0.999371L 1.46804 4.55751L 1.67597 4.77376L 5.37649 1.21562L 5.16856 0.999371ZM 1.46804 4.77376L 5.16856 8.33205L 5.3765 8.11581L 1.67598 4.55751L 1.46804 4.77376Z"/>
</defs>
</svg>
