<svg width="340" height="48" viewBox="0 0 340 48" version="1.1" xmlns="http://www.w3.org/2000/svg" xmlns:xlink="http://www.w3.org/1999/xlink">
<title>Component</title>
<desc>Created using Figma</desc>
<g id="Canvas" transform="translate(-3810 -11549)">
<g id="Component">
<g id="input field copy 10">
<use xlink:href="#path0_fill" transform="translate(3810 11549)" fill="#FFFFFF"/>
<mask id="mask0_outline_ins">
<use xlink:href="#path0_fill" fill="white" transform="translate(3810 11549)"/>
</mask>
<g mask="url(#mask0_outline_ins)">
<use xlink:href="#path1_stroke_2x" transform="translate(3810 11549)" fill="#DDDDDD"/>
</g>
</g>
<g id="Sport">
<use xlink:href="#path2_fill" transform="translate(3830 11559)" fill="#34495E"/>
</g>
<g id="Fun">
<use xlink:href="#path3_fill" transform="translate(4094 11559)" fill="#34495E"/>
</g>
<g id="Fishing">
<use xlink:href="#path4_fill" transform="translate(3997 11559)" fill="#34495E"/>
</g>
<g id="Party">
<use xlink:href="#path5_fill" transform="translate(3919 11559)" fill="#34495E"/>
</g>
<g id="Rectangle 18 Copy 14" opacity="0.5">
<use xlink:href="#path6_fill" transform="translate(4065 11550)" fill="#DDDDDD"/>
</g>
<g id="Rectangle 18 Copy 13" opacity="0.5">
<use xlink:href="#path6_fill" transform="translate(3980 11550)" fill="#DDDDDD"/>
</g>
<g id="Rectangle 18 Copy 12" opacity="0.5">
<use xlink:href="#path6_fill" transform="translate(3895 11550)" fill="#DDDDDD"/>
</g>
</g>
</g>
<defs>
<path id="path0_fill" fill-rule="evenodd" d="M 0 4C 0 1.79086 1.79086 0 4 0L 336 0C 338.209 0 340 1.79086 340 4L 340 44C 340 46.2091 338.209 48 336 48L 4 48C 1.79086 48 0 46.2091 0 44L 0 4Z"/>
<path id="path1_stroke_2x" d="M 4 1L 336 1L 336 -1L 4 -1L 4 1ZM 339 4L 339 44L 341 44L 341 4L 339 4ZM 336 47L 4 47L 4 49L 336 49L 336 47ZM 1 44L 1 4L -1 4L -1 44L 1 44ZM 4 -1C 1.23858 -1 -1 1.23858 -1 4L 1 4C 1 2.34315 2.34315 1 4 1L 4 -1ZM 336 1C 337.657 1 339 2.34315 339 4L 341 4C 341 1.23858 338.761 -1 336 -1L 336 1ZM 339 44C 339 45.6569 337.657 47 336 47L 336 49C 338.761 49 341 46.7614 341 44L 339 44ZM 4 47C 2.34315 47 1 45.6569 1 44L -1 44C -1 46.7614 1.23858 49 4 49L 4 47Z"/>
<path id="path2_fill" d="M 4.67188 13.9297C 3.38542 13.5599 2.44792 13.1068 1.85938 12.5703C 1.27604 12.0286 0.984375 11.362 0.984375 10.5703C 0.984375 9.67448 1.34115 8.9349 2.05469 8.35156C 2.77344 7.76302 3.70573 7.46875 4.85156 7.46875C 5.63281 7.46875 6.32812 7.61979 6.9375 7.92188C 7.55208 8.22396 8.02604 8.64062 8.35938 9.17188C 8.69792 9.70312 8.86719 10.2839 8.86719 10.9141L 7.35938 10.9141C 7.35938 10.2266 7.14062 9.6875 6.70312 9.29688C 6.26562 8.90104 5.64844 8.70312 4.85156 8.70312C 4.11198 8.70312 3.53385 8.86719 3.11719 9.19531C 2.70573 9.51823 2.5 9.96875 2.5 10.5469C 2.5 11.0104 2.69531 11.4036 3.08594 11.7266C 3.48177 12.0443 4.15104 12.3359 5.09375 12.6016C 6.04167 12.8672 6.78125 13.1615 7.3125 13.4844C 7.84896 13.8021 8.24479 14.1745 8.5 14.6016C 8.76042 15.0286 8.89062 15.5312 8.89062 16.1094C 8.89062 17.0312 8.53125 17.7708 7.8125 18.3281C 7.09375 18.8802 6.13281 19.1562 4.92969 19.1562C 4.14844 19.1562 3.41927 19.0078 2.74219 18.7109C 2.0651 18.4089 1.54167 17.9974 1.17188 17.4766C 0.807292 16.9557 0.625 16.3646 0.625 15.7031L 2.13281 15.7031C 2.13281 16.3906 2.38542 16.9349 2.89062 17.3359C 3.40104 17.7318 4.08073 17.9297 4.92969 17.9297C 5.72135 17.9297 6.32812 17.7682 6.75 17.4453C 7.17188 17.1224 7.38281 16.6823 7.38281 16.125C 7.38281 15.5677 7.1875 15.138 6.79688 14.8359C 6.40625 14.5286 5.69792 14.2266 4.67188 13.9297ZM 17.7344 14.8672C 17.7344 16.1536 17.4401 17.1901 16.8516 17.9766C 16.263 18.763 15.4661 19.1562 14.4609 19.1562C 13.4349 19.1562 12.6276 18.8307 12.0391 18.1797L 12.0391 22.25L 10.5938 22.25L 10.5938 10.5469L 11.9141 10.5469L 11.9844 11.4844C 12.5729 10.7552 13.3906 10.3906 14.4375 10.3906C 15.4531 10.3906 16.2552 10.7734 16.8438 11.5391C 17.4375 12.3047 17.7344 13.3698 17.7344 14.7344L 17.7344 14.8672ZM 16.2891 14.7031C 16.2891 13.75 16.0859 12.9974 15.6797 12.4453C 15.2734 11.8932 14.7161 11.6172 14.0078 11.6172C 13.1328 11.6172 12.4766 12.0052 12.0391 12.7812L 12.0391 16.8203C 12.4714 17.5911 13.1328 17.9766 14.0234 17.9766C 14.7161 17.9766 15.2656 17.7031 15.6719 17.1562C 16.0833 16.6042 16.2891 15.7865 16.2891 14.7031ZM 19.1953 14.6953C 19.1953 13.8672 19.3568 13.1224 19.6797 12.4609C 20.0078 11.7995 20.4609 11.2891 21.0391 10.9297C 21.6224 10.5703 22.2865 10.3906 23.0312 10.3906C 24.1823 10.3906 25.112 10.7891 25.8203 11.5859C 26.5339 12.3828 26.8906 13.4427 26.8906 14.7656L 26.8906 14.8672C 26.8906 15.6901 26.7318 16.4297 26.4141 17.0859C 26.1016 17.737 25.651 18.2448 25.0625 18.6094C 24.4792 18.974 23.8073 19.1562 23.0469 19.1562C 21.901 19.1562 20.9714 18.7578 20.2578 17.9609C 19.5495 17.1641 19.1953 16.1094 19.1953 14.7969L 19.1953 14.6953ZM 20.6484 14.8672C 20.6484 15.8047 20.8646 16.5573 21.2969 17.125C 21.7344 17.6927 22.3177 17.9766 23.0469 17.9766C 23.7812 17.9766 24.3646 17.6901 24.7969 17.1172C 25.2292 16.5391 25.4453 15.7318 25.4453 14.6953C 25.4453 13.7682 25.224 13.0182 24.7812 12.4453C 24.3438 11.8672 23.7604 11.5781 23.0312 11.5781C 22.3177 11.5781 21.7422 11.862 21.3047 12.4297C 20.8672 12.9974 20.6484 13.8099 20.6484 14.8672ZM 32.7891 11.8438C 32.5703 11.8073 32.3333 11.7891 32.0781 11.7891C 31.1302 11.7891 30.487 12.1927 30.1484 13L 30.1484 19L 28.7031 19L 28.7031 10.5469L 30.1094 10.5469L 30.1328 11.5234C 30.6068 10.7682 31.2786 10.3906 32.1484 10.3906C 32.4297 10.3906 32.6432 10.4271 32.7891 10.5L 32.7891 11.8438ZM 36.4766 8.5L 36.4766 10.5469L 38.0547 10.5469L 38.0547 11.6641L 36.4766 11.6641L 36.4766 16.9062C 36.4766 17.2448 36.5469 17.5 36.6875 17.6719C 36.8281 17.8385 37.0677 17.9219 37.4062 17.9219C 37.5729 17.9219 37.8021 17.8906 38.0938 17.8281L 38.0938 19C 37.7135 19.1042 37.3438 19.1562 36.9844 19.1562C 36.3385 19.1562 35.8516 18.9609 35.5234 18.5703C 35.1953 18.1797 35.0312 17.625 35.0312 16.9062L 35.0312 11.6641L 33.4922 11.6641L 33.4922 10.5469L 35.0312 10.5469L 35.0312 8.5L 36.4766 8.5Z"/>
<path id="path3_fill" d="M 7.59375 13.9766L 2.82031 13.9766L 2.82031 19L 1.32031 19L 1.32031 7.625L 8.36719 7.625L 8.36719 8.85938L 2.82031 8.85938L 2.82031 12.75L 7.59375 12.75L 7.59375 13.9766ZM 14.9844 18.1641C 14.4219 18.8255 13.5964 19.1562 12.5078 19.1562C 11.6068 19.1562 10.9193 18.8958 10.4453 18.375C 9.97656 17.849 9.73958 17.0729 9.73438 16.0469L 9.73438 10.5469L 11.1797 10.5469L 11.1797 16.0078C 11.1797 17.2891 11.7005 17.9297 12.7422 17.9297C 13.8464 17.9297 14.5807 17.5182 14.9453 16.6953L 14.9453 10.5469L 16.3906 10.5469L 16.3906 19L 15.0156 19L 14.9844 18.1641ZM 19.9609 10.5469L 20.0078 11.6094C 20.6536 10.7969 21.4974 10.3906 22.5391 10.3906C 24.3255 10.3906 25.2266 11.3984 25.2422 13.4141L 25.2422 19L 23.7969 19L 23.7969 13.4062C 23.7917 12.7969 23.651 12.3464 23.375 12.0547C 23.1042 11.763 22.6797 11.6172 22.1016 11.6172C 21.6328 11.6172 21.2214 11.7422 20.8672 11.9922C 20.513 12.2422 20.237 12.5703 20.0391 12.9766L 20.0391 19L 18.5938 19L 18.5938 10.5469L 19.9609 10.5469Z"/>
<path id="path4_fill" d="M 7.59375 13.9766L 2.82031 13.9766L 2.82031 19L 1.32031 19L 1.32031 7.625L 8.36719 7.625L 8.36719 8.85938L 2.82031 8.85938L 2.82031 12.75L 7.59375 12.75L 7.59375 13.9766ZM 11.5078 19L 10.0625 19L 10.0625 10.5469L 11.5078 10.5469L 11.5078 19ZM 9.94531 8.30469C 9.94531 8.07031 10.0156 7.8724 10.1562 7.71094C 10.3021 7.54948 10.5156 7.46875 10.7969 7.46875C 11.0781 7.46875 11.2917 7.54948 11.4375 7.71094C 11.5833 7.8724 11.6562 8.07031 11.6562 8.30469C 11.6562 8.53906 11.5833 8.73438 11.4375 8.89062C 11.2917 9.04688 11.0781 9.125 10.7969 9.125C 10.5156 9.125 10.3021 9.04688 10.1562 8.89062C 10.0156 8.73438 9.94531 8.53906 9.94531 8.30469ZM 18.75 16.7578C 18.75 16.3672 18.6016 16.0651 18.3047 15.8516C 18.013 15.6328 17.5 15.4453 16.7656 15.2891C 16.0365 15.1328 15.4557 14.9453 15.0234 14.7266C 14.5964 14.5078 14.2786 14.2474 14.0703 13.9453C 13.8672 13.6432 13.7656 13.2839 13.7656 12.8672C 13.7656 12.1745 14.0573 11.5885 14.6406 11.1094C 15.2292 10.6302 15.9792 10.3906 16.8906 10.3906C 17.849 10.3906 18.625 10.638 19.2188 11.1328C 19.8177 11.6276 20.1172 12.2604 20.1172 13.0312L 18.6641 13.0312C 18.6641 12.6354 18.4948 12.2943 18.1562 12.0078C 17.8229 11.7214 17.401 11.5781 16.8906 11.5781C 16.3646 11.5781 15.9531 11.6927 15.6562 11.9219C 15.3594 12.151 15.2109 12.4505 15.2109 12.8203C 15.2109 13.1693 15.349 13.4323 15.625 13.6094C 15.901 13.7865 16.3984 13.9557 17.1172 14.1172C 17.8411 14.2786 18.4271 14.4714 18.875 14.6953C 19.3229 14.9193 19.6536 15.1901 19.8672 15.5078C 20.0859 15.8203 20.1953 16.2031 20.1953 16.6562C 20.1953 17.4115 19.8932 18.0182 19.2891 18.4766C 18.6849 18.9297 17.901 19.1562 16.9375 19.1562C 16.2604 19.1562 15.6615 19.0365 15.1406 18.7969C 14.6198 18.5573 14.2109 18.224 13.9141 17.7969C 13.6224 17.3646 13.4766 16.8984 13.4766 16.3984L 14.9219 16.3984C 14.9479 16.8828 15.1406 17.2682 15.5 17.5547C 15.8646 17.8359 16.3438 17.9766 16.9375 17.9766C 17.4844 17.9766 17.9219 17.8672 18.25 17.6484C 18.5833 17.4245 18.75 17.1276 18.75 16.7578ZM 23.5234 11.5703C 24.1641 10.7839 24.9974 10.3906 26.0234 10.3906C 27.8099 10.3906 28.7109 11.3984 28.7266 13.4141L 28.7266 19L 27.2812 19L 27.2812 13.4062C 27.276 12.7969 27.1354 12.3464 26.8594 12.0547C 26.5885 11.763 26.1641 11.6172 25.5859 11.6172C 25.1172 11.6172 24.7057 11.7422 24.3516 11.9922C 23.9974 12.2422 23.7214 12.5703 23.5234 12.9766L 23.5234 19L 22.0781 19L 22.0781 7L 23.5234 7L 23.5234 11.5703ZM 32.4609 19L 31.0156 19L 31.0156 10.5469L 32.4609 10.5469L 32.4609 19ZM 30.8984 8.30469C 30.8984 8.07031 30.9688 7.8724 31.1094 7.71094C 31.2552 7.54948 31.4688 7.46875 31.75 7.46875C 32.0312 7.46875 32.2448 7.54948 32.3906 7.71094C 32.5365 7.8724 32.6094 8.07031 32.6094 8.30469C 32.6094 8.53906 32.5365 8.73438 32.3906 8.89062C 32.2448 9.04688 32.0312 9.125 31.75 9.125C 31.4688 9.125 31.2552 9.04688 31.1094 8.89062C 30.9688 8.73438 30.8984 8.53906 30.8984 8.30469ZM 36.1484 10.5469L 36.1953 11.6094C 36.8411 10.7969 37.6849 10.3906 38.7266 10.3906C 40.513 10.3906 41.4141 11.3984 41.4297 13.4141L 41.4297 19L 39.9844 19L 39.9844 13.4062C 39.9792 12.7969 39.8385 12.3464 39.5625 12.0547C 39.2917 11.763 38.8672 11.6172 38.2891 11.6172C 37.8203 11.6172 37.4089 11.7422 37.0547 11.9922C 36.7005 12.2422 36.4245 12.5703 36.2266 12.9766L 36.2266 19L 34.7812 19L 34.7812 10.5469L 36.1484 10.5469ZM 43.2656 14.7031C 43.2656 13.3854 43.5703 12.3385 44.1797 11.5625C 44.7891 10.7812 45.5964 10.3906 46.6016 10.3906C 47.6328 10.3906 48.4375 10.7552 49.0156 11.4844L 49.0859 10.5469L 50.4062 10.5469L 50.4062 18.7969C 50.4062 19.8906 50.0807 20.7526 49.4297 21.3828C 48.7839 22.013 47.9141 22.3281 46.8203 22.3281C 46.2109 22.3281 45.6146 22.1979 45.0312 21.9375C 44.4479 21.6771 44.0026 21.3203 43.6953 20.8672L 44.4453 20C 45.0651 20.7656 45.8229 21.1484 46.7188 21.1484C 47.4219 21.1484 47.9688 20.9505 48.3594 20.5547C 48.7552 20.1589 48.9531 19.6016 48.9531 18.8828L 48.9531 18.1562C 48.375 18.8229 47.5859 19.1562 46.5859 19.1562C 45.5964 19.1562 44.7943 18.7578 44.1797 17.9609C 43.5703 17.1641 43.2656 16.0781 43.2656 14.7031ZM 44.7188 14.8672C 44.7188 15.8203 44.9141 16.5703 45.3047 17.1172C 45.6953 17.6589 46.2422 17.9297 46.9453 17.9297C 47.8568 17.9297 48.526 17.5156 48.9531 16.6875L 48.9531 12.8281C 48.5104 12.0208 47.8464 11.6172 46.9609 11.6172C 46.2578 11.6172 45.7083 11.8906 45.3125 12.4375C 44.9167 12.9844 44.7188 13.7943 44.7188 14.8672Z"/>
<path id="path5_fill" d="M 2.82031 14.5469L 2.82031 19L 1.32031 19L 1.32031 7.625L 5.51562 7.625C 6.76042 7.625 7.73438 7.94271 8.4375 8.57812C 9.14583 9.21354 9.5 10.0547 9.5 11.1016C 9.5 12.2057 9.15365 13.0573 8.46094 13.6562C 7.77344 14.25 6.78646 14.5469 5.5 14.5469L 2.82031 14.5469ZM 2.82031 13.3203L 5.51562 13.3203C 6.31771 13.3203 6.93229 13.1328 7.35938 12.7578C 7.78646 12.3776 8 11.8307 8 11.1172C 8 10.4401 7.78646 9.89844 7.35938 9.49219C 6.93229 9.08594 6.34635 8.875 5.60156 8.85938L 2.82031 8.85938L 2.82031 13.3203ZM 16.3125 19C 16.2292 18.8333 16.1615 18.5365 16.1094 18.1094C 15.4375 18.8073 14.6354 19.1562 13.7031 19.1562C 12.8698 19.1562 12.1849 18.9219 11.6484 18.4531C 11.1172 17.9792 10.8516 17.3802 10.8516 16.6562C 10.8516 15.776 11.1849 15.0938 11.8516 14.6094C 12.5234 14.1198 13.4661 13.875 14.6797 13.875L 16.0859 13.875L 16.0859 13.2109C 16.0859 12.7057 15.9349 12.3047 15.6328 12.0078C 15.3307 11.7057 14.8854 11.5547 14.2969 11.5547C 13.7812 11.5547 13.349 11.6849 13 11.9453C 12.651 12.2057 12.4766 12.5208 12.4766 12.8906L 11.0234 12.8906C 11.0234 12.4688 11.1719 12.0625 11.4688 11.6719C 11.7708 11.276 12.1771 10.9635 12.6875 10.7344C 13.2031 10.5052 13.7682 10.3906 14.3828 10.3906C 15.3568 10.3906 16.1198 10.6354 16.6719 11.125C 17.224 11.6094 17.5104 12.2786 17.5312 13.1328L 17.5312 17.0234C 17.5312 17.7995 17.6302 18.4167 17.8281 18.875L 17.8281 19L 16.3125 19ZM 13.9141 17.8984C 14.3672 17.8984 14.7969 17.7812 15.2031 17.5469C 15.6094 17.3125 15.9036 17.0078 16.0859 16.6328L 16.0859 14.8984L 14.9531 14.8984C 13.1823 14.8984 12.2969 15.4167 12.2969 16.4531C 12.2969 16.9062 12.4479 17.2604 12.75 17.5156C 13.0521 17.7708 13.4401 17.8984 13.9141 17.8984ZM 23.8828 11.8438C 23.6641 11.8073 23.4271 11.7891 23.1719 11.7891C 22.224 11.7891 21.5807 12.1927 21.2422 13L 21.2422 19L 19.7969 19L 19.7969 10.5469L 21.2031 10.5469L 21.2266 11.5234C 21.7005 10.7682 22.3724 10.3906 23.2422 10.3906C 23.5234 10.3906 23.737 10.4271 23.8828 10.5L 23.8828 11.8438ZM 27.5703 8.5L 27.5703 10.5469L 29.1484 10.5469L 29.1484 11.6641L 27.5703 11.6641L 27.5703 16.9062C 27.5703 17.2448 27.6406 17.5 27.7812 17.6719C 27.9219 17.8385 28.1615 17.9219 28.5 17.9219C 28.6667 17.9219 28.8958 17.8906 29.1875 17.8281L 29.1875 19C 28.8073 19.1042 28.4375 19.1562 28.0781 19.1562C 27.4323 19.1562 26.9453 18.9609 26.6172 18.5703C 26.2891 18.1797 26.125 17.625 26.125 16.9062L 26.125 11.6641L 24.5859 11.6641L 24.5859 10.5469L 26.125 10.5469L 26.125 8.5L 27.5703 8.5ZM 33.6094 16.8828L 35.5781 10.5469L 37.125 10.5469L 33.7266 20.3047C 33.2005 21.7109 32.3646 22.4141 31.2188 22.4141L 30.9453 22.3906L 30.4062 22.2891L 30.4062 21.1172L 30.7969 21.1484C 31.2865 21.1484 31.6667 21.0495 31.9375 20.8516C 32.2135 20.6536 32.4401 20.2917 32.6172 19.7656L 32.9375 18.9062L 29.9219 10.5469L 31.5 10.5469L 33.6094 16.8828Z"/>
<path id="path6_fill" fill-rule="evenodd" d="M 0 0L 1 0L 1 47L 0 47L 0 0Z"/>
</defs>
</svg>
