<svg width="350" height="335" viewBox="0 0 350 335" version="1.1" xmlns="http://www.w3.org/2000/svg" xmlns:xlink="http://www.w3.org/1999/xlink">
<title>Component</title>
<desc>Created using Figma</desc>
<g id="Canvas" transform="translate(-3000 -10604)">
<g id="Component">
<g id="Find yacht">
<use xlink:href="#path0_fill" transform="translate(3013 10611)" fill="#FFFFFF"/>
</g>
<g id="input field copy 25">
<use xlink:href="#path1_fill" transform="translate(3000 10604)" fill="#FFFFFF"/>
<mask id="mask0_outline_ins">
<use xlink:href="#path1_fill" fill="white" transform="translate(3000 10604)"/>
</mask>
<g mask="url(#mask0_outline_ins)">
<use xlink:href="#path2_stroke_2x" transform="translate(3000 10604)" fill="#E0E6ED"/>
</g>
</g>
<g id="chevron">
<use xlink:href="#path3_fill" transform="matrix(-6.12323e-17 1 -1 -6.12323e-17 3332.33 10626)" fill="#48495B"/>
<use xlink:href="#path4_stroke" transform="matrix(-6.12323e-17 1 -1 -6.12323e-17 3332.33 10626)" fill="#808FA3"/>
</g>
<g id="Group">
<g id="input field copy 21">
<use xlink:href="#path5_fill" transform="translate(3000 10652)" fill="#FFFFFF"/>
</g>
<g id="Rectangle 9 Copy 8" opacity="0.2">
<use xlink:href="#path6_fill" transform="translate(3016 10699)" fill="#D8D8D8"/>
</g>
<g id="Rectangle 9 Copy 9" opacity="0.2">
<use xlink:href="#path6_fill" transform="translate(3016 10747)" fill="#D8D8D8"/>
</g>
<g id="Rectangle 9 Copy 10" opacity="0.2">
<use xlink:href="#path6_fill" transform="translate(3016 10795)" fill="#D8D8D8"/>
</g>
<g id="Rectangle 9 Copy 12" opacity="0.2">
<use xlink:href="#path6_fill" transform="translate(3016 10843)" fill="#D8D8D8"/>
</g>
<g id="Rectangle 9 Copy 11" opacity="0.2">
<use xlink:href="#path6_fill" transform="translate(3016 10891)" fill="#D8D8D8"/>
</g>
</g>
<g id="Icon : thick-check Copy 5">
<g id="Stroke 23">
<use xlink:href="#path7_stroke" transform="translate(3315.01 10676.3)" fill="#2399F5"/>
</g>
<g id="Stroke 25">
<use xlink:href="#path8_stroke" transform="translate(3320.01 10671)" fill="#2399F5"/>
</g>
</g>
<g id="Icon : thick-check Copy 4">
<g id="Stroke 23">
<use xlink:href="#path7_stroke" transform="translate(3315.01 10727.3)" fill="#2399F5"/>
</g>
<g id="Stroke 25">
<use xlink:href="#path8_stroke" transform="translate(3320.01 10722)" fill="#2399F5"/>
</g>
</g>
<g id="Icon : thick-check Copy 6">
<g id="Stroke 23">
<use xlink:href="#path7_stroke" transform="translate(3315.01 10819.3)" fill="#2399F5"/>
</g>
<g id="Stroke 25">
<use xlink:href="#path8_stroke" transform="translate(3320.01 10814)" fill="#2399F5"/>
</g>
</g>
<g id="Built in Copy">
<use xlink:href="#path9_fill" transform="translate(3015 10615)" fill="#34495E"/>
</g>
<g id="2016">
<use xlink:href="#path10_fill" transform="translate(3015 10666)" fill="#2399F5"/>
</g>
<g id="2015">
<use xlink:href="#path11_fill" transform="translate(3015 10713)" fill="#2399F5"/>
</g>
<g id="2014">
<use xlink:href="#path12_fill" transform="translate(3015 10761)" fill="#34495E"/>
</g>
<g id="2013">
<use xlink:href="#path13_fill" transform="translate(3015 10809)" fill="#2399F5"/>
</g>
<g id="2012">
<use xlink:href="#path14_fill" transform="translate(3015 10857)" fill="#34495E"/>
</g>
<g id="2011">
<use xlink:href="#path15_fill" transform="translate(3015 10904)" fill="#34495E"/>
</g>
<g id="Rectangle 6" opacity="0.1">
<use xlink:href="#path16_fill" transform="translate(3345 10652)" fill="#2399F5"/>
</g>
<g id="Rectangle 6 Copy">
<use xlink:href="#path17_fill" transform="translate(3346 10653)" fill="#2399F5"/>
</g>
</g>
</g>
<defs>
<path id="path0_fill" d="M 7.11309 8.60449L 2.93633 8.60449L 2.93633 13L 1.62383 13L 1.62383 3.04688L 7.78984 3.04688L 7.78984 4.12695L 2.93633 4.12695L 2.93633 7.53125L 7.11309 7.53125L 7.11309 8.60449ZM 11.1703 13L 9.85781 13L 9.85781 3.04688L 11.1703 3.04688L 11.1703 13ZM 21.626 13L 20.3066 13L 15.2959 5.33008L 15.2959 13L 13.9766 13L 13.9766 3.04688L 15.2959 3.04688L 20.3203 10.751L 20.3203 3.04688L 21.626 3.04688L 21.626 13ZM 24.357 13L 24.357 3.04688L 27.1666 3.04688C 28.0325 3.04688 28.7981 3.23828 29.4635 3.62109C 30.1288 4.00391 30.6415 4.5485 31.0016 5.25488C 31.3661 5.96126 31.5507 6.77246 31.5553 7.68848L 31.5553 8.32422C 31.5553 9.26302 31.373 10.0856 31.0084 10.792C 30.6484 11.4984 30.1311 12.0407 29.4566 12.4189C 28.7867 12.7972 28.0051 12.9909 27.1119 13L 24.357 13ZM 25.6695 4.12695L 25.6695 11.9268L 27.0504 11.9268C 28.0621 11.9268 28.8482 11.6123 29.4088 10.9834C 29.9739 10.3545 30.2564 9.45898 30.2564 8.29688L 30.2564 7.71582C 30.2564 6.58561 29.9898 5.70833 29.4566 5.08398C 28.928 4.45508 28.176 4.13607 27.2008 4.12695L 25.6695 4.12695ZM 40.8523 8.04395L 43.45 3.04688L 44.9402 3.04688L 41.5086 9.28809L 41.5086 13L 40.1961 13L 40.1961 9.28809L 36.7645 3.04688L 38.2684 3.04688L 40.8523 8.04395ZM 51.4789 10.4023L 47.309 10.4023L 46.3725 13L 45.0189 13L 48.8197 3.04688L 49.9682 3.04688L 53.7758 13L 52.4291 13L 51.4789 10.4023ZM 47.7055 9.32227L 51.0893 9.32227L 49.3939 4.66699L 47.7055 9.32227ZM 62.7549 9.8418C 62.6318 10.8945 62.2422 11.708 61.5859 12.2822C 60.9342 12.8519 60.0661 13.1367 58.9814 13.1367C 57.8057 13.1367 56.8623 12.7152 56.1514 11.8721C 55.445 11.029 55.0918 9.90104 55.0918 8.48828L 55.0918 7.53125C 55.0918 6.60612 55.2559 5.79264 55.584 5.09082C 55.9167 4.389 56.3861 3.85124 56.9922 3.47754C 57.5983 3.09928 58.3001 2.91016 59.0977 2.91016C 60.1549 2.91016 61.0026 3.20638 61.6406 3.79883C 62.2786 4.38672 62.6501 5.20247 62.7549 6.24609L 61.4355 6.24609C 61.3216 5.45312 61.0732 4.87891 60.6904 4.52344C 60.3122 4.16797 59.7812 3.99023 59.0977 3.99023C 58.2591 3.99023 57.6006 4.30013 57.1221 4.91992C 56.6481 5.53971 56.4111 6.42155 56.4111 7.56543L 56.4111 8.5293C 56.4111 9.60938 56.6367 10.4684 57.0879 11.1064C 57.5391 11.7445 58.1702 12.0635 58.9814 12.0635C 59.7106 12.0635 60.2689 11.8994 60.6562 11.5713C 61.0482 11.2386 61.3079 10.6621 61.4355 9.8418L 62.7549 9.8418ZM 72.6021 13L 71.2828 13L 71.2828 8.39941L 66.2652 8.39941L 66.2652 13L 64.9527 13L 64.9527 3.04688L 66.2652 3.04688L 66.2652 7.32617L 71.2828 7.32617L 71.2828 3.04688L 72.6021 3.04688L 72.6021 13ZM 82.2102 4.12695L 79.0109 4.12695L 79.0109 13L 77.7053 13L 77.7053 4.12695L 74.5129 4.12695L 74.5129 3.04688L 82.2102 3.04688L 82.2102 4.12695Z"/>
<path id="path1_fill" fill-rule="evenodd" d="M 0 4C 0 1.79086 1.79086 0 4 0L 346 0C 348.209 0 350 1.79086 350 4L 350 48L 0 48L 0 4Z"/>
<path id="path2_stroke_2x" d="M 350 48L 350 49L 351 49L 351 48L 350 48ZM 0 48L -1 48L -1 49L 0 49L 0 48ZM 4 1L 346 1L 346 -1L 4 -1L 4 1ZM 349 4L 349 48L 351 48L 351 4L 349 4ZM 350 47L 0 47L 0 49L 350 49L 350 47ZM 1 48L 1 4L -1 4L -1 48L 1 48ZM 4 -1C 1.23858 -1 -1 1.23858 -1 4L 1 4C 1 2.34315 2.34315 1 4 1L 4 -1ZM 346 1C 347.657 1 349 2.34315 349 4L 351 4C 351 1.23858 348.761 -1 346 -1L 346 1Z"/>
<path id="path3_fill" fill-rule="evenodd" d="M 5.27253 8.22393C 5.52866 8.47025 5.5367 8.87761 5.29039 9.1339C 5.16409 9.26518 4.99532 9.3313 4.82639 9.3313C 4.66583 9.3313 4.50527 9.27177 4.38042 9.15175L 0.197406 5.12963C 0.0712721 5.00832 0 4.84068 0 4.66563C 0 4.49075 0.0712721 4.32311 0.197406 4.2018L 4.38042 0.179671C 4.63655 -0.0666438 5.04407 -0.0587604 5.29039 0.19753C 5.5367 0.45382 5.52866 0.861181 5.27253 1.1075L 1.57201 4.66563L 5.27253 8.22393Z"/>
<path id="path4_stroke" d="M 5.27253 8.22393L 5.3765 8.11581L 5.3765 8.11581L 5.27253 8.22393ZM 5.29039 9.1339L 5.39849 9.23789L 5.39854 9.23784L 5.29039 9.1339ZM 4.38042 9.15175L 4.27645 9.25988L 4.27647 9.25989L 4.38042 9.15175ZM 0.197406 5.12963L 0.0934288 5.23774L 0.0934398 5.23775L 0.197406 5.12963ZM 0.197406 4.2018L 0.0934398 4.09368L 0.0934288 4.09369L 0.197406 4.2018ZM 4.38042 0.179671L 4.48439 0.287796L 4.4844 0.287789L 4.38042 0.179671ZM 5.27253 1.1075L 5.37649 1.21562L 5.3765 1.21561L 5.27253 1.1075ZM 1.57201 4.66563L 1.46804 4.55751L 1.35559 4.66563L 1.46804 4.77376L 1.57201 4.66563ZM 5.16855 8.33205C 5.36498 8.52095 5.37117 8.83338 5.18224 9.02996L 5.39854 9.23784C 5.70224 8.92184 5.69234 8.41954 5.3765 8.11581L 5.16855 8.33205ZM 5.18229 9.0299C 5.08543 9.13059 4.95623 9.1813 4.82639 9.1813L 4.82639 9.4813C 5.03441 9.4813 5.24276 9.39977 5.39849 9.23789L 5.18229 9.0299ZM 4.82639 9.1813C 4.70298 9.1813 4.58014 9.13568 4.48438 9.04362L 4.27647 9.25989C 4.43039 9.40786 4.62868 9.4813 4.82639 9.4813L 4.82639 9.1813ZM 4.48439 9.04363L 0.301372 5.0215L 0.0934398 5.23775L 4.27645 9.25988L 4.48439 9.04363ZM 0.301383 5.02151C 0.204696 4.92852 0.15 4.79994 0.15 4.66563L -0.15 4.66563C -0.15 4.88141 -0.0621522 5.08811 0.0934288 5.23774L 0.301383 5.02151ZM 0.15 4.66563C 0.15 4.53151 0.204682 4.40292 0.301383 4.30992L 0.0934288 4.09369C -0.0621378 4.2433 -0.15 4.44999 -0.15 4.66563L 0.15 4.66563ZM 0.301372 4.30993L 4.48439 0.287796L 4.27645 0.0715465L 0.0934398 4.09368L 0.301372 4.30993ZM 4.4844 0.287789C 4.68083 0.09888 4.99337 0.104954 5.18224 0.30147L 5.39854 0.0935892C 5.09477 -0.222474 4.59227 -0.232168 4.27645 0.0715543L 4.4844 0.287789ZM 5.18224 0.30147C 5.37117 0.498049 5.36498 0.81048 5.16855 0.999379L 5.3765 1.21561C 5.69234 0.911882 5.70224 0.40959 5.39854 0.0935892L 5.18224 0.30147ZM 5.16856 0.999371L 1.46804 4.55751L 1.67597 4.77376L 5.37649 1.21562L 5.16856 0.999371ZM 1.46804 4.77376L 5.16856 8.33205L 5.3765 8.11581L 1.67598 4.55751L 1.46804 4.77376Z"/>
<path id="path5_fill" fill-rule="evenodd" d="M 0 4C 0 1.79086 1.79086 0 4 0L 346 0C 348.209 0 350 1.79086 350 4L 350 283C 350 285.209 348.209 287 346 287L 4 287C 1.79086 287 0 285.209 0 283L 0 4Z"/>
<path id="path6_fill" fill-rule="evenodd" d="M 0 0L 315 0L 315 1L 0 1L 0 0Z"/>
<path id="path7_stroke" d="M 1.26493 -0.907078C 0.693699 -1.50707 -0.255762 -1.53039 -0.855755 -0.959162C -1.45575 -0.387934 -1.47907 0.561527 -0.907838 1.16152L 1.26493 -0.907078ZM 3.86832 6.17819C 4.43955 6.77818 5.38901 6.8015 5.989 6.23027C 6.589 5.65905 6.61231 4.70959 6.04109 4.10959L 3.86832 6.17819ZM -0.907838 1.16152L 3.86832 6.17819L 6.04109 4.10959L 1.26493 -0.907078L -0.907838 1.16152Z"/>
<path id="path8_stroke" d="M 11.0459 1.03743C 11.6188 0.43909 11.5983 -0.510434 10.9999 -1.08339C 10.4016 -1.65635 9.45206 -1.63577 8.8791 -1.03743L 11.0459 1.03743ZM -1.08339 9.36642C -1.65635 9.96476 -1.63577 10.9143 -1.03743 11.4872C -0.43909 12.0602 0.510434 12.0396 1.08339 11.4413L -1.08339 9.36642ZM 8.8791 -1.03743L -1.08339 9.36642L 1.08339 11.4413L 11.0459 1.03743L 8.8791 -1.03743Z"/>
<path id="path9_fill" d="M 1.32031 19L 1.32031 7.625L 5.03906 7.625C 6.27344 7.625 7.20052 7.88021 7.82031 8.39062C 8.44531 8.90104 8.75781 9.65625 8.75781 10.6562C 8.75781 11.1875 8.60677 11.6589 8.30469 12.0703C 8.0026 12.4766 7.59115 12.7917 7.07031 13.0156C 7.6849 13.1875 8.16927 13.5156 8.52344 14C 8.88281 14.4792 9.0625 15.0521 9.0625 15.7188C 9.0625 16.7396 8.73177 17.5417 8.07031 18.125C 7.40885 18.7083 6.47396 19 5.26562 19L 1.32031 19ZM 2.82031 13.6797L 2.82031 17.7734L 5.29688 17.7734C 5.99479 17.7734 6.54427 17.5938 6.94531 17.2344C 7.35156 16.8698 7.55469 16.3698 7.55469 15.7344C 7.55469 14.3646 6.8099 13.6797 5.32031 13.6797L 2.82031 13.6797ZM 2.82031 12.4766L 5.08594 12.4766C 5.74219 12.4766 6.26562 12.3125 6.65625 11.9844C 7.05208 11.6562 7.25 11.2109 7.25 10.6484C 7.25 10.0234 7.06771 9.57031 6.70312 9.28906C 6.33854 9.0026 5.78385 8.85938 5.03906 8.85938L 2.82031 8.85938L 2.82031 12.4766ZM 16.2812 18.1641C 15.7188 18.8255 14.8932 19.1562 13.8047 19.1562C 12.9036 19.1562 12.2161 18.8958 11.7422 18.375C 11.2734 17.849 11.0365 17.0729 11.0312 16.0469L 11.0312 10.5469L 12.4766 10.5469L 12.4766 16.0078C 12.4766 17.2891 12.9974 17.9297 14.0391 17.9297C 15.1432 17.9297 15.8776 17.5182 16.2422 16.6953L 16.2422 10.5469L 17.6875 10.5469L 17.6875 19L 16.3125 19L 16.2812 18.1641ZM 21.4609 19L 20.0156 19L 20.0156 10.5469L 21.4609 10.5469L 21.4609 19ZM 19.8984 8.30469C 19.8984 8.07031 19.9688 7.8724 20.1094 7.71094C 20.2552 7.54948 20.4688 7.46875 20.75 7.46875C 21.0312 7.46875 21.2448 7.54948 21.3906 7.71094C 21.5365 7.8724 21.6094 8.07031 21.6094 8.30469C 21.6094 8.53906 21.5365 8.73438 21.3906 8.89062C 21.2448 9.04688 21.0312 9.125 20.75 9.125C 20.4688 9.125 20.2552 9.04688 20.1094 8.89062C 19.9688 8.73438 19.8984 8.53906 19.8984 8.30469ZM 25.3516 19L 23.9062 19L 23.9062 7L 25.3516 7L 25.3516 19ZM 29.6328 8.5L 29.6328 10.5469L 31.2109 10.5469L 31.2109 11.6641L 29.6328 11.6641L 29.6328 16.9062C 29.6328 17.2448 29.7031 17.5 29.8438 17.6719C 29.9844 17.8385 30.224 17.9219 30.5625 17.9219C 30.7292 17.9219 30.9583 17.8906 31.25 17.8281L 31.25 19C 30.8698 19.1042 30.5 19.1562 30.1406 19.1562C 29.4948 19.1562 29.0078 18.9609 28.6797 18.5703C 28.3516 18.1797 28.1875 17.625 28.1875 16.9062L 28.1875 11.6641L 26.6484 11.6641L 26.6484 10.5469L 28.1875 10.5469L 28.1875 8.5L 29.6328 8.5ZM 38.4453 19L 37 19L 37 10.5469L 38.4453 10.5469L 38.4453 19ZM 36.8828 8.30469C 36.8828 8.07031 36.9531 7.8724 37.0938 7.71094C 37.2396 7.54948 37.4531 7.46875 37.7344 7.46875C 38.0156 7.46875 38.2292 7.54948 38.375 7.71094C 38.5208 7.8724 38.5938 8.07031 38.5938 8.30469C 38.5938 8.53906 38.5208 8.73438 38.375 8.89062C 38.2292 9.04688 38.0156 9.125 37.7344 9.125C 37.4531 9.125 37.2396 9.04688 37.0938 8.89062C 36.9531 8.73438 36.8828 8.53906 36.8828 8.30469ZM 42.1328 10.5469L 42.1797 11.6094C 42.8255 10.7969 43.6693 10.3906 44.7109 10.3906C 46.4974 10.3906 47.3984 11.3984 47.4141 13.4141L 47.4141 19L 45.9688 19L 45.9688 13.4062C 45.9635 12.7969 45.8229 12.3464 45.5469 12.0547C 45.276 11.763 44.8516 11.6172 44.2734 11.6172C 43.8047 11.6172 43.3932 11.7422 43.0391 11.9922C 42.6849 12.2422 42.4089 12.5703 42.2109 12.9766L 42.2109 19L 40.7656 19L 40.7656 10.5469L 42.1328 10.5469Z"/>
<path id="path10_fill" d="M 8.39844 15L 0.945312 15L 0.945312 13.9609L 4.88281 9.58594C 5.46615 8.92448 5.86719 8.38802 6.08594 7.97656C 6.3099 7.5599 6.42188 7.13021 6.42188 6.6875C 6.42188 6.09375 6.24219 5.60677 5.88281 5.22656C 5.52344 4.84635 5.04427 4.65625 4.44531 4.65625C 3.72656 4.65625 3.16667 4.86198 2.76562 5.27344C 2.36979 5.67969 2.17188 6.2474 2.17188 6.97656L 0.726562 6.97656C 0.726562 5.92969 1.0625 5.08333 1.73438 4.4375C 2.41146 3.79167 3.3151 3.46875 4.44531 3.46875C 5.5026 3.46875 6.33854 3.7474 6.95312 4.30469C 7.56771 4.85677 7.875 5.59375 7.875 6.51562C 7.875 7.63542 7.16146 8.96875 5.73438 10.5156L 2.6875 13.8203L 8.39844 13.8203L 8.39844 15ZM 17.0625 10.1484C 17.0625 11.8411 16.7734 13.099 16.1953 13.9219C 15.6172 14.7448 14.7135 15.1562 13.4844 15.1562C 12.2708 15.1562 11.3724 14.7552 10.7891 13.9531C 10.2057 13.1458 9.90365 11.9427 9.88281 10.3438L 9.88281 8.41406C 9.88281 6.74219 10.1719 5.5 10.75 4.6875C 11.3281 3.875 12.2344 3.46875 13.4688 3.46875C 14.6927 3.46875 15.5938 3.86198 16.1719 4.64844C 16.75 5.42969 17.0469 6.63802 17.0625 8.27344L 17.0625 10.1484ZM 15.6172 8.17188C 15.6172 6.94792 15.4453 6.05729 15.1016 5.5C 14.7578 4.9375 14.2135 4.65625 13.4688 4.65625C 12.7292 4.65625 12.1901 4.9349 11.8516 5.49219C 11.513 6.04948 11.3385 6.90625 11.3281 8.0625L 11.3281 10.375C 11.3281 11.6042 11.5052 12.513 11.8594 13.1016C 12.2188 13.6849 12.7604 13.9766 13.4844 13.9766C 14.1979 13.9766 14.7266 13.7005 15.0703 13.1484C 15.4193 12.5964 15.6016 11.7266 15.6172 10.5391L 15.6172 8.17188ZM 23.6641 15L 22.2109 15L 22.2109 5.36719L 19.2969 6.4375L 19.2969 5.125L 23.4375 3.57031L 23.6641 3.57031L 23.6641 15ZM 33.5703 3.61719L 33.5703 4.84375L 33.3047 4.84375C 32.1797 4.86458 31.2839 5.19792 30.6172 5.84375C 29.9505 6.48958 29.5651 7.39844 29.4609 8.57031C 30.0599 7.88281 30.8776 7.53906 31.9141 7.53906C 32.9036 7.53906 33.6927 7.88802 34.2812 8.58594C 34.875 9.28385 35.1719 10.1849 35.1719 11.2891C 35.1719 12.4609 34.8516 13.3984 34.2109 14.1016C 33.5755 14.8047 32.7214 15.1562 31.6484 15.1562C 30.5599 15.1562 29.6771 14.7396 29 13.9062C 28.3229 13.0677 27.9844 11.9896 27.9844 10.6719L 27.9844 10.1172C 27.9844 8.02344 28.4297 6.42448 29.3203 5.32031C 30.2161 4.21094 31.5469 3.64323 33.3125 3.61719L 33.5703 3.61719ZM 31.6719 8.74219C 31.1771 8.74219 30.7214 8.89062 30.3047 9.1875C 29.888 9.48438 29.599 9.85677 29.4375 10.3047L 29.4375 10.8359C 29.4375 11.7734 29.6484 12.5286 30.0703 13.1016C 30.4922 13.6745 31.0182 13.9609 31.6484 13.9609C 32.2995 13.9609 32.8099 13.7214 33.1797 13.2422C 33.5547 12.763 33.7422 12.1354 33.7422 11.3594C 33.7422 10.5781 33.5521 9.94792 33.1719 9.46875C 32.7969 8.98438 32.2969 8.74219 31.6719 8.74219Z"/>
<path id="path11_fill" d="M 8.39844 15L 0.945312 15L 0.945312 13.9609L 4.88281 9.58594C 5.46615 8.92448 5.86719 8.38802 6.08594 7.97656C 6.3099 7.5599 6.42188 7.13021 6.42188 6.6875C 6.42188 6.09375 6.24219 5.60677 5.88281 5.22656C 5.52344 4.84635 5.04427 4.65625 4.44531 4.65625C 3.72656 4.65625 3.16667 4.86198 2.76562 5.27344C 2.36979 5.67969 2.17188 6.2474 2.17188 6.97656L 0.726562 6.97656C 0.726562 5.92969 1.0625 5.08333 1.73438 4.4375C 2.41146 3.79167 3.3151 3.46875 4.44531 3.46875C 5.5026 3.46875 6.33854 3.7474 6.95312 4.30469C 7.56771 4.85677 7.875 5.59375 7.875 6.51562C 7.875 7.63542 7.16146 8.96875 5.73438 10.5156L 2.6875 13.8203L 8.39844 13.8203L 8.39844 15ZM 17.0625 10.1484C 17.0625 11.8411 16.7734 13.099 16.1953 13.9219C 15.6172 14.7448 14.7135 15.1562 13.4844 15.1562C 12.2708 15.1562 11.3724 14.7552 10.7891 13.9531C 10.2057 13.1458 9.90365 11.9427 9.88281 10.3438L 9.88281 8.41406C 9.88281 6.74219 10.1719 5.5 10.75 4.6875C 11.3281 3.875 12.2344 3.46875 13.4688 3.46875C 14.6927 3.46875 15.5938 3.86198 16.1719 4.64844C 16.75 5.42969 17.0469 6.63802 17.0625 8.27344L 17.0625 10.1484ZM 15.6172 8.17188C 15.6172 6.94792 15.4453 6.05729 15.1016 5.5C 14.7578 4.9375 14.2135 4.65625 13.4688 4.65625C 12.7292 4.65625 12.1901 4.9349 11.8516 5.49219C 11.513 6.04948 11.3385 6.90625 11.3281 8.0625L 11.3281 10.375C 11.3281 11.6042 11.5052 12.513 11.8594 13.1016C 12.2188 13.6849 12.7604 13.9766 13.4844 13.9766C 14.1979 13.9766 14.7266 13.7005 15.0703 13.1484C 15.4193 12.5964 15.6016 11.7266 15.6172 10.5391L 15.6172 8.17188ZM 23.6641 15L 22.2109 15L 22.2109 5.36719L 19.2969 6.4375L 19.2969 5.125L 23.4375 3.57031L 23.6641 3.57031L 23.6641 15ZM 28.5625 9.29688L 29.1406 3.625L 34.9688 3.625L 34.9688 4.96094L 30.3672 4.96094L 30.0234 8.0625C 30.5807 7.73438 31.2135 7.57031 31.9219 7.57031C 32.9583 7.57031 33.7812 7.91406 34.3906 8.60156C 35 9.28385 35.3047 10.2083 35.3047 11.375C 35.3047 12.5469 34.987 13.4714 34.3516 14.1484C 33.7214 14.8203 32.8385 15.1562 31.7031 15.1562C 30.6979 15.1562 29.8776 14.8776 29.2422 14.3203C 28.6068 13.763 28.2448 12.9922 28.1562 12.0078L 29.5234 12.0078C 29.612 12.6589 29.8438 13.151 30.2188 13.4844C 30.5938 13.8125 31.0885 13.9766 31.7031 13.9766C 32.375 13.9766 32.901 13.7474 33.2812 13.2891C 33.6667 12.8307 33.8594 12.1979 33.8594 11.3906C 33.8594 10.6302 33.651 10.0208 33.2344 9.5625C 32.8229 9.09896 32.2734 8.86719 31.5859 8.86719C 30.9557 8.86719 30.4609 9.00521 30.1016 9.28125L 29.7188 9.59375L 28.5625 9.29688Z"/>
<path id="path12_fill" d="M 8.39844 15L 0.945312 15L 0.945312 13.9609L 4.88281 9.58594C 5.46615 8.92448 5.86719 8.38802 6.08594 7.97656C 6.3099 7.5599 6.42188 7.13021 6.42188 6.6875C 6.42188 6.09375 6.24219 5.60677 5.88281 5.22656C 5.52344 4.84635 5.04427 4.65625 4.44531 4.65625C 3.72656 4.65625 3.16667 4.86198 2.76562 5.27344C 2.36979 5.67969 2.17188 6.2474 2.17188 6.97656L 0.726562 6.97656C 0.726562 5.92969 1.0625 5.08333 1.73438 4.4375C 2.41146 3.79167 3.3151 3.46875 4.44531 3.46875C 5.5026 3.46875 6.33854 3.7474 6.95312 4.30469C 7.56771 4.85677 7.875 5.59375 7.875 6.51562C 7.875 7.63542 7.16146 8.96875 5.73438 10.5156L 2.6875 13.8203L 8.39844 13.8203L 8.39844 15ZM 17.0625 10.1484C 17.0625 11.8411 16.7734 13.099 16.1953 13.9219C 15.6172 14.7448 14.7135 15.1562 13.4844 15.1562C 12.2708 15.1562 11.3724 14.7552 10.7891 13.9531C 10.2057 13.1458 9.90365 11.9427 9.88281 10.3438L 9.88281 8.41406C 9.88281 6.74219 10.1719 5.5 10.75 4.6875C 11.3281 3.875 12.2344 3.46875 13.4688 3.46875C 14.6927 3.46875 15.5938 3.86198 16.1719 4.64844C 16.75 5.42969 17.0469 6.63802 17.0625 8.27344L 17.0625 10.1484ZM 15.6172 8.17188C 15.6172 6.94792 15.4453 6.05729 15.1016 5.5C 14.7578 4.9375 14.2135 4.65625 13.4688 4.65625C 12.7292 4.65625 12.1901 4.9349 11.8516 5.49219C 11.513 6.04948 11.3385 6.90625 11.3281 8.0625L 11.3281 10.375C 11.3281 11.6042 11.5052 12.513 11.8594 13.1016C 12.2188 13.6849 12.7604 13.9766 13.4844 13.9766C 14.1979 13.9766 14.7266 13.7005 15.0703 13.1484C 15.4193 12.5964 15.6016 11.7266 15.6172 10.5391L 15.6172 8.17188ZM 23.6641 15L 22.2109 15L 22.2109 5.36719L 19.2969 6.4375L 19.2969 5.125L 23.4375 3.57031L 23.6641 3.57031L 23.6641 15ZM 34 11.1797L 35.5781 11.1797L 35.5781 12.3594L 34 12.3594L 34 15L 32.5469 15L 32.5469 12.3594L 27.3672 12.3594L 27.3672 11.5078L 32.4609 3.625L 34 3.625L 34 11.1797ZM 29.0078 11.1797L 32.5469 11.1797L 32.5469 5.60156L 32.375 5.91406L 29.0078 11.1797Z"/>
<path id="path13_fill" d="M 8.39844 15L 0.945312 15L 0.945312 13.9609L 4.88281 9.58594C 5.46615 8.92448 5.86719 8.38802 6.08594 7.97656C 6.3099 7.5599 6.42188 7.13021 6.42188 6.6875C 6.42188 6.09375 6.24219 5.60677 5.88281 5.22656C 5.52344 4.84635 5.04427 4.65625 4.44531 4.65625C 3.72656 4.65625 3.16667 4.86198 2.76562 5.27344C 2.36979 5.67969 2.17188 6.2474 2.17188 6.97656L 0.726562 6.97656C 0.726562 5.92969 1.0625 5.08333 1.73438 4.4375C 2.41146 3.79167 3.3151 3.46875 4.44531 3.46875C 5.5026 3.46875 6.33854 3.7474 6.95312 4.30469C 7.56771 4.85677 7.875 5.59375 7.875 6.51562C 7.875 7.63542 7.16146 8.96875 5.73438 10.5156L 2.6875 13.8203L 8.39844 13.8203L 8.39844 15ZM 17.0625 10.1484C 17.0625 11.8411 16.7734 13.099 16.1953 13.9219C 15.6172 14.7448 14.7135 15.1562 13.4844 15.1562C 12.2708 15.1562 11.3724 14.7552 10.7891 13.9531C 10.2057 13.1458 9.90365 11.9427 9.88281 10.3438L 9.88281 8.41406C 9.88281 6.74219 10.1719 5.5 10.75 4.6875C 11.3281 3.875 12.2344 3.46875 13.4688 3.46875C 14.6927 3.46875 15.5938 3.86198 16.1719 4.64844C 16.75 5.42969 17.0469 6.63802 17.0625 8.27344L 17.0625 10.1484ZM 15.6172 8.17188C 15.6172 6.94792 15.4453 6.05729 15.1016 5.5C 14.7578 4.9375 14.2135 4.65625 13.4688 4.65625C 12.7292 4.65625 12.1901 4.9349 11.8516 5.49219C 11.513 6.04948 11.3385 6.90625 11.3281 8.0625L 11.3281 10.375C 11.3281 11.6042 11.5052 12.513 11.8594 13.1016C 12.2188 13.6849 12.7604 13.9766 13.4844 13.9766C 14.1979 13.9766 14.7266 13.7005 15.0703 13.1484C 15.4193 12.5964 15.6016 11.7266 15.6172 10.5391L 15.6172 8.17188ZM 23.6641 15L 22.2109 15L 22.2109 5.36719L 19.2969 6.4375L 19.2969 5.125L 23.4375 3.57031L 23.6641 3.57031L 23.6641 15ZM 30 8.60938L 31.0859 8.60938C 31.7682 8.59896 32.3047 8.41927 32.6953 8.07031C 33.0859 7.72135 33.2812 7.25 33.2812 6.65625C 33.2812 5.32292 32.6172 4.65625 31.2891 4.65625C 30.6641 4.65625 30.1641 4.83594 29.7891 5.19531C 29.4193 5.54948 29.2344 6.02083 29.2344 6.60938L 27.7891 6.60938C 27.7891 5.70833 28.1172 4.96094 28.7734 4.36719C 29.4349 3.76823 30.2734 3.46875 31.2891 3.46875C 32.362 3.46875 33.2031 3.7526 33.8125 4.32031C 34.4219 4.88802 34.7266 5.67708 34.7266 6.6875C 34.7266 7.18229 34.5651 7.66146 34.2422 8.125C 33.9245 8.58854 33.4896 8.9349 32.9375 9.16406C 33.5625 9.36198 34.0443 9.6901 34.3828 10.1484C 34.7266 10.6068 34.8984 11.1667 34.8984 11.8281C 34.8984 12.849 34.5651 13.6589 33.8984 14.2578C 33.2318 14.8568 32.3646 15.1562 31.2969 15.1562C 30.2292 15.1562 29.3594 14.8672 28.6875 14.2891C 28.0208 13.7109 27.6875 12.9479 27.6875 12L 29.1406 12C 29.1406 12.599 29.3359 13.0781 29.7266 13.4375C 30.1172 13.7969 30.6406 13.9766 31.2969 13.9766C 31.9948 13.9766 32.5286 13.7943 32.8984 13.4297C 33.2682 13.0651 33.4531 12.5417 33.4531 11.8594C 33.4531 11.1979 33.25 10.6901 32.8438 10.3359C 32.4375 9.98177 31.8516 9.79948 31.0859 9.78906L 30 9.78906L 30 8.60938Z"/>
<path id="path14_fill" d="M 8.39844 15L 0.945312 15L 0.945312 13.9609L 4.88281 9.58594C 5.46615 8.92448 5.86719 8.38802 6.08594 7.97656C 6.3099 7.5599 6.42188 7.13021 6.42188 6.6875C 6.42188 6.09375 6.24219 5.60677 5.88281 5.22656C 5.52344 4.84635 5.04427 4.65625 4.44531 4.65625C 3.72656 4.65625 3.16667 4.86198 2.76562 5.27344C 2.36979 5.67969 2.17188 6.2474 2.17188 6.97656L 0.726562 6.97656C 0.726562 5.92969 1.0625 5.08333 1.73438 4.4375C 2.41146 3.79167 3.3151 3.46875 4.44531 3.46875C 5.5026 3.46875 6.33854 3.7474 6.95312 4.30469C 7.56771 4.85677 7.875 5.59375 7.875 6.51562C 7.875 7.63542 7.16146 8.96875 5.73438 10.5156L 2.6875 13.8203L 8.39844 13.8203L 8.39844 15ZM 17.0625 10.1484C 17.0625 11.8411 16.7734 13.099 16.1953 13.9219C 15.6172 14.7448 14.7135 15.1562 13.4844 15.1562C 12.2708 15.1562 11.3724 14.7552 10.7891 13.9531C 10.2057 13.1458 9.90365 11.9427 9.88281 10.3438L 9.88281 8.41406C 9.88281 6.74219 10.1719 5.5 10.75 4.6875C 11.3281 3.875 12.2344 3.46875 13.4688 3.46875C 14.6927 3.46875 15.5938 3.86198 16.1719 4.64844C 16.75 5.42969 17.0469 6.63802 17.0625 8.27344L 17.0625 10.1484ZM 15.6172 8.17188C 15.6172 6.94792 15.4453 6.05729 15.1016 5.5C 14.7578 4.9375 14.2135 4.65625 13.4688 4.65625C 12.7292 4.65625 12.1901 4.9349 11.8516 5.49219C 11.513 6.04948 11.3385 6.90625 11.3281 8.0625L 11.3281 10.375C 11.3281 11.6042 11.5052 12.513 11.8594 13.1016C 12.2188 13.6849 12.7604 13.9766 13.4844 13.9766C 14.1979 13.9766 14.7266 13.7005 15.0703 13.1484C 15.4193 12.5964 15.6016 11.7266 15.6172 10.5391L 15.6172 8.17188ZM 23.6641 15L 22.2109 15L 22.2109 5.36719L 19.2969 6.4375L 19.2969 5.125L 23.4375 3.57031L 23.6641 3.57031L 23.6641 15ZM 35.3516 15L 27.8984 15L 27.8984 13.9609L 31.8359 9.58594C 32.4193 8.92448 32.8203 8.38802 33.0391 7.97656C 33.263 7.5599 33.375 7.13021 33.375 6.6875C 33.375 6.09375 33.1953 5.60677 32.8359 5.22656C 32.4766 4.84635 31.9974 4.65625 31.3984 4.65625C 30.6797 4.65625 30.1198 4.86198 29.7188 5.27344C 29.3229 5.67969 29.125 6.2474 29.125 6.97656L 27.6797 6.97656C 27.6797 5.92969 28.0156 5.08333 28.6875 4.4375C 29.3646 3.79167 30.2682 3.46875 31.3984 3.46875C 32.4557 3.46875 33.2917 3.7474 33.9062 4.30469C 34.5208 4.85677 34.8281 5.59375 34.8281 6.51562C 34.8281 7.63542 34.1146 8.96875 32.6875 10.5156L 29.6406 13.8203L 35.3516 13.8203L 35.3516 15Z"/>
<path id="path15_fill" d="M 8.39844 15L 0.945312 15L 0.945312 13.9609L 4.88281 9.58594C 5.46615 8.92448 5.86719 8.38802 6.08594 7.97656C 6.3099 7.5599 6.42188 7.13021 6.42188 6.6875C 6.42188 6.09375 6.24219 5.60677 5.88281 5.22656C 5.52344 4.84635 5.04427 4.65625 4.44531 4.65625C 3.72656 4.65625 3.16667 4.86198 2.76562 5.27344C 2.36979 5.67969 2.17188 6.2474 2.17188 6.97656L 0.726562 6.97656C 0.726562 5.92969 1.0625 5.08333 1.73438 4.4375C 2.41146 3.79167 3.3151 3.46875 4.44531 3.46875C 5.5026 3.46875 6.33854 3.7474 6.95312 4.30469C 7.56771 4.85677 7.875 5.59375 7.875 6.51562C 7.875 7.63542 7.16146 8.96875 5.73438 10.5156L 2.6875 13.8203L 8.39844 13.8203L 8.39844 15ZM 17.0625 10.1484C 17.0625 11.8411 16.7734 13.099 16.1953 13.9219C 15.6172 14.7448 14.7135 15.1562 13.4844 15.1562C 12.2708 15.1562 11.3724 14.7552 10.7891 13.9531C 10.2057 13.1458 9.90365 11.9427 9.88281 10.3438L 9.88281 8.41406C 9.88281 6.74219 10.1719 5.5 10.75 4.6875C 11.3281 3.875 12.2344 3.46875 13.4688 3.46875C 14.6927 3.46875 15.5938 3.86198 16.1719 4.64844C 16.75 5.42969 17.0469 6.63802 17.0625 8.27344L 17.0625 10.1484ZM 15.6172 8.17188C 15.6172 6.94792 15.4453 6.05729 15.1016 5.5C 14.7578 4.9375 14.2135 4.65625 13.4688 4.65625C 12.7292 4.65625 12.1901 4.9349 11.8516 5.49219C 11.513 6.04948 11.3385 6.90625 11.3281 8.0625L 11.3281 10.375C 11.3281 11.6042 11.5052 12.513 11.8594 13.1016C 12.2188 13.6849 12.7604 13.9766 13.4844 13.9766C 14.1979 13.9766 14.7266 13.7005 15.0703 13.1484C 15.4193 12.5964 15.6016 11.7266 15.6172 10.5391L 15.6172 8.17188ZM 23.6641 15L 22.2109 15L 22.2109 5.36719L 19.2969 6.4375L 19.2969 5.125L 23.4375 3.57031L 23.6641 3.57031L 23.6641 15ZM 32.6484 15L 31.1953 15L 31.1953 5.36719L 28.2812 6.4375L 28.2812 5.125L 32.4219 3.57031L 32.6484 3.57031L 32.6484 15Z"/>
<path id="path16_fill" fill-rule="evenodd" d="M 0 2C 0 0.895431 0.895431 0 2 0L 3 0C 4.10457 0 5 0.895431 5 2L 5 284C 5 285.105 4.10457 286 3 286L 2 286C 0.895431 286 0 285.105 0 284L 0 2Z"/>
<path id="path17_fill" fill-rule="evenodd" d="M 0 1.5C 0 0.671573 0.671573 0 1.5 0C 2.32843 0 3 0.671573 3 1.5L 3 52.5C 3 53.3284 2.32843 54 1.5 54C 0.671573 54 0 53.3284 0 52.5L 0 1.5Z"/>
</defs>
</svg>
