<svg width="335" height="175" viewBox="0 0 335 175" version="1.1" xmlns="http://www.w3.org/2000/svg" xmlns:xlink="http://www.w3.org/1999/xlink">
<title>Component</title>
<desc>Created using Figma</desc>
<g id="Canvas" transform="translate(-3402 -10603)">
<g id="Component">
<g id="input field copy 26">
<use xlink:href="#path0_fill" transform="translate(3402 10603)" fill="#FFFFFF"/>
<mask id="mask0_outline_ins">
<use xlink:href="#path0_fill" fill="white" transform="translate(3402 10603)"/>
</mask>
<g mask="url(#mask0_outline_ins)">
<use xlink:href="#path1_stroke_2x" transform="translate(3402 10603)" fill="#E0E6ED"/>
</g>
</g>
<g id="Rectangle 5 Copy 28" opacity="0.5">
<use xlink:href="#path2_fill" transform="translate(3418 10736)" fill="#DDDDDD"/>
</g>
<g id="Rectangle 5 Copy 27">
<use xlink:href="#path3_fill" transform="translate(3476 10736)" fill="#2399F5"/>
</g>
<g id="Oval Copy 20">
<use xlink:href="#path4_fill" transform="translate(3470 10726)" fill="url(#paint4_linear)"/>
</g>
<g id="Oval Copy 19">
<use xlink:href="#path4_fill" transform="translate(3670 10726)" fill="url(#paint5_linear)"/>
</g>
<g id="input field copy 25">
<use xlink:href="#path5_fill" transform="translate(3417 10668)" fill="#FFFFFF"/>
<mask id="mask1_outline_ins">
<use xlink:href="#path5_fill" fill="white" transform="translate(3417 10668)"/>
</mask>
<g mask="url(#mask1_outline_ins)">
<use xlink:href="#path6_stroke_2x" transform="translate(3417 10668)" fill="#DDDDDD"/>
</g>
</g>
<g id="&#226;&#130;&#172;2315 copy">
<use xlink:href="#path7_fill" transform="translate(3425 10675)" fill="#34495E"/>
</g>
<g id="input field copy 21">
<use xlink:href="#path5_fill" transform="translate(3651 10668)" fill="#FFFFFF"/>
<mask id="mask2_outline_ins">
<use xlink:href="#path5_fill" fill="white" transform="translate(3651 10668)"/>
</mask>
<g mask="url(#mask2_outline_ins)">
<use xlink:href="#path6_stroke_2x" transform="translate(3651 10668)" fill="#DDDDDD"/>
</g>
</g>
<g id="&#226;&#130;&#172;5455 copy">
<use xlink:href="#path8_fill" transform="translate(3659 10675)" fill="#34495E"/>
</g>
<g id="Boat per week">
<use xlink:href="#path9_fill" transform="translate(3436 10622)" fill="#34495E"/>
</g>
<g id="Passenger per day">
<use xlink:href="#path10_fill" transform="translate(3587 10622)" fill="#34495E"/>
</g>
<g id="Rectangle 3" opacity="0.5">
<use xlink:href="#path11_fill" transform="translate(3569 10626)" fill="#E0E6ED"/>
</g>
<g id="Rectangle 7" opacity="0.3">
<mask id="mask3_outline_ins">
<use xlink:href="#path12_fill" fill="white" transform="translate(3589 10646)"/>
</mask>
<g mask="url(#mask3_outline_ins)">
<use xlink:href="#path13_stroke_2x" transform="translate(3589 10646)" fill="#34495E"/>
</g>
</g>
</g>
</g>
<defs>
<linearGradient id="paint4_linear" x1="0" y1="0" x2="1" y2="0" gradientUnits="userSpaceOnUse" gradientTransform="matrix(0.117502 73.5135 -73.5135 0.117502 9.8825 -53.5135)">
<stop offset="0" stop-color="#0EE9B3"/>
<stop offset="1" stop-color="#2399F5"/>
</linearGradient>
<linearGradient id="paint5_linear" x1="0" y1="0" x2="1" y2="0" gradientUnits="userSpaceOnUse" gradientTransform="matrix(0.117502 73.5135 -73.5135 0.117502 9.8825 -53.5135)">
<stop offset="0" stop-color="#0EE9B3"/>
<stop offset="1" stop-color="#2399F5"/>
</linearGradient>
<path id="path0_fill" fill-rule="evenodd" d="M 0 4C 0 1.79086 1.79086 0 4 0L 331 0C 333.209 0 335 1.79086 335 4L 335 171C 335 173.209 333.209 175 331 175L 4 175C 1.79086 175 0 173.209 0 171L 0 4Z"/>
<path id="path1_stroke_2x" d="M 4 1L 331 1L 331 -1L 4 -1L 4 1ZM 334 4L 334 171L 336 171L 336 4L 334 4ZM 331 174L 4 174L 4 176L 331 176L 331 174ZM 1 171L 1 4L -1 4L -1 171L 1 171ZM 4 -1C 1.23858 -1 -1 1.23858 -1 4L 1 4C 1 2.34315 2.34315 1 4 1L 4 -1ZM 331 1C 332.657 1 334 2.34315 334 4L 336 4C 336 1.23858 333.761 -1 331 -1L 331 1ZM 334 171C 334 172.657 332.657 174 331 174L 331 176C 333.761 176 336 173.761 336 171L 334 171ZM 4 174C 2.34315 174 1 172.657 1 171L -1 171C -1 173.761 1.23858 176 4 176L 4 174Z"/>
<path id="path2_fill" fill-rule="evenodd" d="M 0 0.5C 0 0.223858 0.223858 0 0.5 0L 299.5 0C 299.776 0 300 0.223858 300 0.5C 300 0.776142 299.776 1 299.5 1L 0.5 1C 0.223858 1 0 0.776142 0 0.5Z"/>
<path id="path3_fill" fill-rule="evenodd" d="M 0 0L 204 0L 204 1L 0 1L 0 0Z"/>
<path id="path4_fill" fill-rule="evenodd" d="M 10 20C 15.5228 20 20 15.5228 20 10C 20 4.47715 15.5228 0 10 0C 4.47715 0 0 4.47715 0 10C 0 15.5228 4.47715 20 10 20Z"/>
<path id="path5_fill" fill-rule="evenodd" d="M 0 4C 0 1.79086 1.79086 0 4 0L 66 0C 68.2091 0 70 1.79086 70 4L 70 38C 70 40.2091 68.2091 42 66 42L 4 42C 1.79086 42 0 40.2091 0 38L 0 4Z"/>
<path id="path6_stroke_2x" d="M 4 1L 66 1L 66 -1L 4 -1L 4 1ZM 69 4L 69 38L 71 38L 71 4L 69 4ZM 66 41L 4 41L 4 43L 66 43L 66 41ZM 1 38L 1 4L -1 4L -1 38L 1 38ZM 4 -1C 1.23858 -1 -1 1.23858 -1 4L 1 4C 1 2.34315 2.34315 1 4 1L 4 -1ZM 66 1C 67.6569 1 69 2.34315 69 4L 71 4C 71 1.23858 68.7614 -1 66 -1L 66 1ZM 69 38C 69 39.6569 67.6569 41 66 41L 66 43C 68.7614 43 71 40.7614 71 38L 69 38ZM 4 41C 2.34315 41 1 39.6569 1 38L -1 38C -1 40.7614 1.23858 43 4 43L 4 41Z"/>
<path id="path7_fill" d="M 6.63281 14.7734L 3.63281 14.7734C 3.65365 15.7891 3.89844 16.5703 4.36719 17.1172C 4.83594 17.6641 5.5 17.9375 6.35938 17.9375C 6.96354 17.9375 7.53125 17.849 8.0625 17.6719L 8.21875 18.9219C 7.59375 19.0781 6.96875 19.1562 6.34375 19.1562C 5.05208 19.1562 4.03385 18.776 3.28906 18.0156C 2.54948 17.25 2.16406 16.1693 2.13281 14.7734L 0.742188 14.7734L 0.742188 13.8047L 2.13281 13.8047L 2.13281 12.7344L 0.742188 12.7344L 0.742188 11.7578L 2.13281 11.7578C 2.1849 10.3932 2.58073 9.33854 3.32031 8.59375C 4.0651 7.84375 5.07031 7.46875 6.33594 7.46875C 6.88802 7.46875 7.51562 7.54948 8.21875 7.71094L 8.0625 8.97656C 7.49479 8.79427 6.92448 8.70312 6.35156 8.70312C 5.4974 8.70312 4.83854 8.96875 4.375 9.5C 3.91667 10.026 3.67188 10.7786 3.64062 11.7578L 6.63281 11.7578L 6.63281 12.7344L 3.63281 12.7344L 3.63281 13.8047L 6.63281 13.8047L 6.63281 14.7734ZM 17.3828 19L 9.92969 19L 9.92969 17.9609L 13.8672 13.5859C 14.4505 12.9245 14.8516 12.388 15.0703 11.9766C 15.2943 11.5599 15.4062 11.1302 15.4062 10.6875C 15.4062 10.0938 15.2266 9.60677 14.8672 9.22656C 14.5078 8.84635 14.0286 8.65625 13.4297 8.65625C 12.7109 8.65625 12.151 8.86198 11.75 9.27344C 11.3542 9.67969 11.1562 10.2474 11.1562 10.9766L 9.71094 10.9766C 9.71094 9.92969 10.0469 9.08333 10.7188 8.4375C 11.3958 7.79167 12.2995 7.46875 13.4297 7.46875C 14.487 7.46875 15.3229 7.7474 15.9375 8.30469C 16.5521 8.85677 16.8594 9.59375 16.8594 10.5156C 16.8594 11.6354 16.1458 12.9688 14.7188 14.5156L 11.6719 17.8203L 17.3828 17.8203L 17.3828 19ZM 21.0156 12.6094L 22.1016 12.6094C 22.7839 12.599 23.3203 12.4193 23.7109 12.0703C 24.1016 11.7214 24.2969 11.25 24.2969 10.6562C 24.2969 9.32292 23.6328 8.65625 22.3047 8.65625C 21.6797 8.65625 21.1797 8.83594 20.8047 9.19531C 20.4349 9.54948 20.25 10.0208 20.25 10.6094L 18.8047 10.6094C 18.8047 9.70833 19.1328 8.96094 19.7891 8.36719C 20.4505 7.76823 21.2891 7.46875 22.3047 7.46875C 23.3776 7.46875 24.2188 7.7526 24.8281 8.32031C 25.4375 8.88802 25.7422 9.67708 25.7422 10.6875C 25.7422 11.1823 25.5807 11.6615 25.2578 12.125C 24.9401 12.5885 24.5052 12.9349 23.9531 13.1641C 24.5781 13.362 25.0599 13.6901 25.3984 14.1484C 25.7422 14.6068 25.9141 15.1667 25.9141 15.8281C 25.9141 16.849 25.5807 17.6589 24.9141 18.2578C 24.2474 18.8568 23.3802 19.1562 22.3125 19.1562C 21.2448 19.1562 20.375 18.8672 19.7031 18.2891C 19.0365 17.7109 18.7031 16.9479 18.7031 16L 20.1562 16C 20.1562 16.599 20.3516 17.0781 20.7422 17.4375C 21.1328 17.7969 21.6562 17.9766 22.3125 17.9766C 23.0104 17.9766 23.5443 17.7943 23.9141 17.4297C 24.2839 17.0651 24.4688 16.5417 24.4688 15.8594C 24.4688 15.1979 24.2656 14.6901 23.8594 14.3359C 23.4531 13.9818 22.8672 13.7995 22.1016 13.7891L 21.0156 13.7891L 21.0156 12.6094ZM 32.6484 19L 31.1953 19L 31.1953 9.36719L 28.2812 10.4375L 28.2812 9.125L 32.4219 7.57031L 32.6484 7.57031L 32.6484 19ZM 37.5469 13.2969L 38.125 7.625L 43.9531 7.625L 43.9531 8.96094L 39.3516 8.96094L 39.0078 12.0625C 39.5651 11.7344 40.1979 11.5703 40.9062 11.5703C 41.9427 11.5703 42.7656 11.9141 43.375 12.6016C 43.9844 13.2839 44.2891 14.2083 44.2891 15.375C 44.2891 16.5469 43.9714 17.4714 43.3359 18.1484C 42.7057 18.8203 41.8229 19.1562 40.6875 19.1562C 39.6823 19.1562 38.862 18.8776 38.2266 18.3203C 37.5911 17.763 37.2292 16.9922 37.1406 16.0078L 38.5078 16.0078C 38.5964 16.6589 38.8281 17.151 39.2031 17.4844C 39.5781 17.8125 40.0729 17.9766 40.6875 17.9766C 41.3594 17.9766 41.8854 17.7474 42.2656 17.2891C 42.651 16.8307 42.8438 16.1979 42.8438 15.3906C 42.8438 14.6302 42.6354 14.0208 42.2188 13.5625C 41.8073 13.099 41.2578 12.8672 40.5703 12.8672C 39.9401 12.8672 39.4453 13.0052 39.0859 13.2812L 38.7031 13.5938L 37.5469 13.2969Z"/>
<path id="path8_fill" d="M 6.63281 14.7734L 3.63281 14.7734C 3.65365 15.7891 3.89844 16.5703 4.36719 17.1172C 4.83594 17.6641 5.5 17.9375 6.35938 17.9375C 6.96354 17.9375 7.53125 17.849 8.0625 17.6719L 8.21875 18.9219C 7.59375 19.0781 6.96875 19.1562 6.34375 19.1562C 5.05208 19.1562 4.03385 18.776 3.28906 18.0156C 2.54948 17.25 2.16406 16.1693 2.13281 14.7734L 0.742188 14.7734L 0.742188 13.8047L 2.13281 13.8047L 2.13281 12.7344L 0.742188 12.7344L 0.742188 11.7578L 2.13281 11.7578C 2.1849 10.3932 2.58073 9.33854 3.32031 8.59375C 4.0651 7.84375 5.07031 7.46875 6.33594 7.46875C 6.88802 7.46875 7.51562 7.54948 8.21875 7.71094L 8.0625 8.97656C 7.49479 8.79427 6.92448 8.70312 6.35156 8.70312C 5.4974 8.70312 4.83854 8.96875 4.375 9.5C 3.91667 10.026 3.67188 10.7786 3.64062 11.7578L 6.63281 11.7578L 6.63281 12.7344L 3.63281 12.7344L 3.63281 13.8047L 6.63281 13.8047L 6.63281 14.7734ZM 10.5938 13.2969L 11.1719 7.625L 17 7.625L 17 8.96094L 12.3984 8.96094L 12.0547 12.0625C 12.612 11.7344 13.2448 11.5703 13.9531 11.5703C 14.9896 11.5703 15.8125 11.9141 16.4219 12.6016C 17.0312 13.2839 17.3359 14.2083 17.3359 15.375C 17.3359 16.5469 17.0182 17.4714 16.3828 18.1484C 15.7526 18.8203 14.8698 19.1562 13.7344 19.1562C 12.7292 19.1562 11.9089 18.8776 11.2734 18.3203C 10.638 17.763 10.276 16.9922 10.1875 16.0078L 11.5547 16.0078C 11.6432 16.6589 11.875 17.151 12.25 17.4844C 12.625 17.8125 13.1198 17.9766 13.7344 17.9766C 14.4062 17.9766 14.9323 17.7474 15.3125 17.2891C 15.6979 16.8307 15.8906 16.1979 15.8906 15.3906C 15.8906 14.6302 15.6823 14.0208 15.2656 13.5625C 14.8542 13.099 14.3047 12.8672 13.6172 12.8672C 12.987 12.8672 12.4922 13.0052 12.1328 13.2812L 11.75 13.5938L 10.5938 13.2969ZM 25.0156 15.1797L 26.5938 15.1797L 26.5938 16.3594L 25.0156 16.3594L 25.0156 19L 23.5625 19L 23.5625 16.3594L 18.3828 16.3594L 18.3828 15.5078L 23.4766 7.625L 25.0156 7.625L 25.0156 15.1797ZM 20.0234 15.1797L 23.5625 15.1797L 23.5625 9.60156L 23.3906 9.91406L 20.0234 15.1797ZM 28.5625 13.2969L 29.1406 7.625L 34.9688 7.625L 34.9688 8.96094L 30.3672 8.96094L 30.0234 12.0625C 30.5807 11.7344 31.2135 11.5703 31.9219 11.5703C 32.9583 11.5703 33.7812 11.9141 34.3906 12.6016C 35 13.2839 35.3047 14.2083 35.3047 15.375C 35.3047 16.5469 34.987 17.4714 34.3516 18.1484C 33.7214 18.8203 32.8385 19.1562 31.7031 19.1562C 30.6979 19.1562 29.8776 18.8776 29.2422 18.3203C 28.6068 17.763 28.2448 16.9922 28.1562 16.0078L 29.5234 16.0078C 29.612 16.6589 29.8438 17.151 30.2188 17.4844C 30.5938 17.8125 31.0885 17.9766 31.7031 17.9766C 32.375 17.9766 32.901 17.7474 33.2812 17.2891C 33.6667 16.8307 33.8594 16.1979 33.8594 15.3906C 33.8594 14.6302 33.651 14.0208 33.2344 13.5625C 32.8229 13.099 32.2734 12.8672 31.5859 12.8672C 30.9557 12.8672 30.4609 13.0052 30.1016 13.2812L 29.7188 13.5938L 28.5625 13.2969ZM 37.5469 13.2969L 38.125 7.625L 43.9531 7.625L 43.9531 8.96094L 39.3516 8.96094L 39.0078 12.0625C 39.5651 11.7344 40.1979 11.5703 40.9062 11.5703C 41.9427 11.5703 42.7656 11.9141 43.375 12.6016C 43.9844 13.2839 44.2891 14.2083 44.2891 15.375C 44.2891 16.5469 43.9714 17.4714 43.3359 18.1484C 42.7057 18.8203 41.8229 19.1562 40.6875 19.1562C 39.6823 19.1562 38.862 18.8776 38.2266 18.3203C 37.5911 17.763 37.2292 16.9922 37.1406 16.0078L 38.5078 16.0078C 38.5964 16.6589 38.8281 17.151 39.2031 17.4844C 39.5781 17.8125 40.0729 17.9766 40.6875 17.9766C 41.3594 17.9766 41.8854 17.7474 42.2656 17.2891C 42.651 16.8307 42.8438 16.1979 42.8438 15.3906C 42.8438 14.6302 42.6354 14.0208 42.2188 13.5625C 41.8073 13.099 41.2578 12.8672 40.5703 12.8672C 39.9401 12.8672 39.4453 13.0052 39.0859 13.2812L 38.7031 13.5938L 37.5469 13.2969Z"/>
<path id="path9_fill" d="M 1.33594 19L 1.33594 7.625L 5.05469 7.625C 6.28906 7.625 7.21615 7.88021 7.83594 8.39062C 8.46094 8.90104 8.77344 9.65625 8.77344 10.6562C 8.77344 11.1875 8.6224 11.6589 8.32031 12.0703C 8.01823 12.4766 7.60677 12.7917 7.08594 13.0156C 7.70052 13.1875 8.1849 13.5156 8.53906 14C 8.89844 14.4792 9.07812 15.0521 9.07812 15.7188C 9.07812 16.7396 8.7474 17.5417 8.08594 18.125C 7.42448 18.7083 6.48958 19 5.28125 19L 1.33594 19ZM 2.83594 13.6797L 2.83594 17.7734L 5.3125 17.7734C 6.01042 17.7734 6.5599 17.5938 6.96094 17.2344C 7.36719 16.8698 7.57031 16.3698 7.57031 15.7344C 7.57031 14.3646 6.82552 13.6797 5.33594 13.6797L 2.83594 13.6797ZM 2.83594 12.4766L 5.10156 12.4766C 5.75781 12.4766 6.28125 12.3125 6.67188 11.9844C 7.06771 11.6562 7.26562 11.2109 7.26562 10.6484C 7.26562 10.0234 7.08333 9.57031 6.71875 9.28906C 6.35417 9.0026 5.79948 8.85938 5.05469 8.85938L 2.83594 8.85938L 2.83594 12.4766ZM 10.6953 14.6953C 10.6953 13.8672 10.8568 13.1224 11.1797 12.4609C 11.5078 11.7995 11.9609 11.2891 12.5391 10.9297C 13.1224 10.5703 13.7865 10.3906 14.5312 10.3906C 15.6823 10.3906 16.612 10.7891 17.3203 11.5859C 18.0339 12.3828 18.3906 13.4427 18.3906 14.7656L 18.3906 14.8672C 18.3906 15.6901 18.2318 16.4297 17.9141 17.0859C 17.6016 17.737 17.151 18.2448 16.5625 18.6094C 15.9792 18.974 15.3073 19.1562 14.5469 19.1562C 13.401 19.1562 12.4714 18.7578 11.7578 17.9609C 11.0495 17.1641 10.6953 16.1094 10.6953 14.7969L 10.6953 14.6953ZM 12.1484 14.8672C 12.1484 15.8047 12.3646 16.5573 12.7969 17.125C 13.2344 17.6927 13.8177 17.9766 14.5469 17.9766C 15.2812 17.9766 15.8646 17.6901 16.2969 17.1172C 16.7292 16.5391 16.9453 15.7318 16.9453 14.6953C 16.9453 13.7682 16.724 13.0182 16.2812 12.4453C 15.8438 11.8672 15.2604 11.5781 14.5312 11.5781C 13.8177 11.5781 13.2422 11.862 12.8047 12.4297C 12.3672 12.9974 12.1484 13.8099 12.1484 14.8672ZM 25.4219 19C 25.3385 18.8333 25.2708 18.5365 25.2188 18.1094C 24.5469 18.8073 23.7448 19.1562 22.8125 19.1562C 21.9792 19.1562 21.2943 18.9219 20.7578 18.4531C 20.2266 17.9792 19.9609 17.3802 19.9609 16.6562C 19.9609 15.776 20.2943 15.0938 20.9609 14.6094C 21.6328 14.1198 22.5755 13.875 23.7891 13.875L 25.1953 13.875L 25.1953 13.2109C 25.1953 12.7057 25.0443 12.3047 24.7422 12.0078C 24.4401 11.7057 23.9948 11.5547 23.4062 11.5547C 22.8906 11.5547 22.4583 11.6849 22.1094 11.9453C 21.7604 12.2057 21.5859 12.5208 21.5859 12.8906L 20.1328 12.8906C 20.1328 12.4688 20.2812 12.0625 20.5781 11.6719C 20.8802 11.276 21.2865 10.9635 21.7969 10.7344C 22.3125 10.5052 22.8776 10.3906 23.4922 10.3906C 24.4661 10.3906 25.2292 10.6354 25.7812 11.125C 26.3333 11.6094 26.6198 12.2786 26.6406 13.1328L 26.6406 17.0234C 26.6406 17.7995 26.7396 18.4167 26.9375 18.875L 26.9375 19L 25.4219 19ZM 23.0234 17.8984C 23.4766 17.8984 23.9062 17.7812 24.3125 17.5469C 24.7188 17.3125 25.013 17.0078 25.1953 16.6328L 25.1953 14.8984L 24.0625 14.8984C 22.2917 14.8984 21.4062 15.4167 21.4062 16.4531C 21.4062 16.9062 21.5573 17.2604 21.8594 17.5156C 22.1615 17.7708 22.5495 17.8984 23.0234 17.8984ZM 30.8672 8.5L 30.8672 10.5469L 32.4453 10.5469L 32.4453 11.6641L 30.8672 11.6641L 30.8672 16.9062C 30.8672 17.2448 30.9375 17.5 31.0781 17.6719C 31.2188 17.8385 31.4583 17.9219 31.7969 17.9219C 31.9635 17.9219 32.1927 17.8906 32.4844 17.8281L 32.4844 19C 32.1042 19.1042 31.7344 19.1562 31.375 19.1562C 30.7292 19.1562 30.2422 18.9609 29.9141 18.5703C 29.5859 18.1797 29.4219 17.625 29.4219 16.9062L 29.4219 11.6641L 27.8828 11.6641L 27.8828 10.5469L 29.4219 10.5469L 29.4219 8.5L 30.8672 8.5ZM 45.25 14.8672C 45.25 16.1536 44.9557 17.1901 44.3672 17.9766C 43.7786 18.763 42.9818 19.1562 41.9766 19.1562C 40.9505 19.1562 40.1432 18.8307 39.5547 18.1797L 39.5547 22.25L 38.1094 22.25L 38.1094 10.5469L 39.4297 10.5469L 39.5 11.4844C 40.0885 10.7552 40.9062 10.3906 41.9531 10.3906C 42.9688 10.3906 43.7708 10.7734 44.3594 11.5391C 44.9531 12.3047 45.25 13.3698 45.25 14.7344L 45.25 14.8672ZM 43.8047 14.7031C 43.8047 13.75 43.6016 12.9974 43.1953 12.4453C 42.7891 11.8932 42.2318 11.6172 41.5234 11.6172C 40.6484 11.6172 39.9922 12.0052 39.5547 12.7812L 39.5547 16.8203C 39.987 17.5911 40.6484 17.9766 41.5391 17.9766C 42.2318 17.9766 42.7812 17.7031 43.1875 17.1562C 43.599 16.6042 43.8047 15.7865 43.8047 14.7031ZM 50.6016 19.1562C 49.4557 19.1562 48.5234 18.7812 47.8047 18.0312C 47.0859 17.276 46.7266 16.2682 46.7266 15.0078L 46.7266 14.7422C 46.7266 13.9036 46.8854 13.1562 47.2031 12.5C 47.526 11.8385 47.974 11.3229 48.5469 10.9531C 49.125 10.5781 49.75 10.3906 50.4219 10.3906C 51.5208 10.3906 52.375 10.7526 52.9844 11.4766C 53.5938 12.2005 53.8984 13.237 53.8984 14.5859L 53.8984 15.1875L 48.1719 15.1875C 48.1927 16.0208 48.4349 16.6953 48.8984 17.2109C 49.3672 17.7214 49.9609 17.9766 50.6797 17.9766C 51.1901 17.9766 51.6224 17.8724 51.9766 17.6641C 52.3307 17.4557 52.6406 17.1797 52.9062 16.8359L 53.7891 17.5234C 53.0807 18.612 52.0182 19.1562 50.6016 19.1562ZM 50.4219 11.5781C 49.8385 11.5781 49.349 11.7917 48.9531 12.2188C 48.5573 12.6406 48.3125 13.2344 48.2188 14L 52.4531 14L 52.4531 13.8906C 52.4115 13.1562 52.2135 12.5885 51.8594 12.1875C 51.5052 11.7812 51.026 11.5781 50.4219 11.5781ZM 59.6641 11.8438C 59.4453 11.8073 59.2083 11.7891 58.9531 11.7891C 58.0052 11.7891 57.362 12.1927 57.0234 13L 57.0234 19L 55.5781 19L 55.5781 10.5469L 56.9844 10.5469L 57.0078 11.5234C 57.4818 10.7682 58.1536 10.3906 59.0234 10.3906C 59.3047 10.3906 59.5182 10.4271 59.6641 10.5L 59.6641 11.8438ZM 72.4531 17.0078L 74.0781 10.5469L 75.5234 10.5469L 73.0625 19L 71.8906 19L 69.8359 12.5938L 67.8359 19L 66.6641 19L 64.2109 10.5469L 65.6484 10.5469L 67.3125 16.875L 69.2812 10.5469L 70.4453 10.5469L 72.4531 17.0078ZM 80.5078 19.1562C 79.362 19.1562 78.4297 18.7812 77.7109 18.0312C 76.9922 17.276 76.6328 16.2682 76.6328 15.0078L 76.6328 14.7422C 76.6328 13.9036 76.7917 13.1562 77.1094 12.5C 77.4323 11.8385 77.8802 11.3229 78.4531 10.9531C 79.0312 10.5781 79.6562 10.3906 80.3281 10.3906C 81.4271 10.3906 82.2812 10.7526 82.8906 11.4766C 83.5 12.2005 83.8047 13.237 83.8047 14.5859L 83.8047 15.1875L 78.0781 15.1875C 78.099 16.0208 78.3411 16.6953 78.8047 17.2109C 79.2734 17.7214 79.8672 17.9766 80.5859 17.9766C 81.0964 17.9766 81.5286 17.8724 81.8828 17.6641C 82.237 17.4557 82.5469 17.1797 82.8125 16.8359L 83.6953 17.5234C 82.987 18.612 81.9245 19.1562 80.5078 19.1562ZM 80.3281 11.5781C 79.7448 11.5781 79.2552 11.7917 78.8594 12.2188C 78.4635 12.6406 78.2188 13.2344 78.125 14L 82.3594 14L 82.3594 13.8906C 82.3177 13.1562 82.1198 12.5885 81.7656 12.1875C 81.4115 11.7812 80.9323 11.5781 80.3281 11.5781ZM 88.9922 19.1562C 87.8464 19.1562 86.9141 18.7812 86.1953 18.0312C 85.4766 17.276 85.1172 16.2682 85.1172 15.0078L 85.1172 14.7422C 85.1172 13.9036 85.276 13.1562 85.5938 12.5C 85.9167 11.8385 86.3646 11.3229 86.9375 10.9531C 87.5156 10.5781 88.1406 10.3906 88.8125 10.3906C 89.9115 10.3906 90.7656 10.7526 91.375 11.4766C 91.9844 12.2005 92.2891 13.237 92.2891 14.5859L 92.2891 15.1875L 86.5625 15.1875C 86.5833 16.0208 86.8255 16.6953 87.2891 17.2109C 87.7578 17.7214 88.3516 17.9766 89.0703 17.9766C 89.5807 17.9766 90.013 17.8724 90.3672 17.6641C 90.7214 17.4557 91.0312 17.1797 91.2969 16.8359L 92.1797 17.5234C 91.4714 18.612 90.4089 19.1562 88.9922 19.1562ZM 88.8125 11.5781C 88.2292 11.5781 87.7396 11.7917 87.3438 12.2188C 86.9479 12.6406 86.7031 13.2344 86.6094 14L 90.8438 14L 90.8438 13.8906C 90.8021 13.1562 90.6042 12.5885 90.25 12.1875C 89.8958 11.7812 89.4167 11.5781 88.8125 11.5781ZM 96.3281 15.0859L 95.4219 16.0312L 95.4219 19L 93.9766 19L 93.9766 7L 95.4219 7L 95.4219 14.2578L 96.1953 13.3281L 98.8281 10.5469L 100.586 10.5469L 97.2969 14.0781L 100.969 19L 99.2734 19L 96.3281 15.0859Z"/>
<path id="path10_fill" d="M 3.10938 14.5469L 3.10938 19L 1.60938 19L 1.60938 7.625L 5.80469 7.625C 7.04948 7.625 8.02344 7.94271 8.72656 8.57812C 9.4349 9.21354 9.78906 10.0547 9.78906 11.1016C 9.78906 12.2057 9.44271 13.0573 8.75 13.6562C 8.0625 14.25 7.07552 14.5469 5.78906 14.5469L 3.10938 14.5469ZM 3.10938 13.3203L 5.80469 13.3203C 6.60677 13.3203 7.22135 13.1328 7.64844 12.7578C 8.07552 12.3776 8.28906 11.8307 8.28906 11.1172C 8.28906 10.4401 8.07552 9.89844 7.64844 9.49219C 7.22135 9.08594 6.63542 8.875 5.89062 8.85938L 3.10938 8.85938L 3.10938 13.3203ZM 16.6016 19C 16.5182 18.8333 16.4505 18.5365 16.3984 18.1094C 15.7266 18.8073 14.9245 19.1562 13.9922 19.1562C 13.1589 19.1562 12.474 18.9219 11.9375 18.4531C 11.4062 17.9792 11.1406 17.3802 11.1406 16.6562C 11.1406 15.776 11.474 15.0938 12.1406 14.6094C 12.8125 14.1198 13.7552 13.875 14.9688 13.875L 16.375 13.875L 16.375 13.2109C 16.375 12.7057 16.224 12.3047 15.9219 12.0078C 15.6198 11.7057 15.1745 11.5547 14.5859 11.5547C 14.0703 11.5547 13.638 11.6849 13.2891 11.9453C 12.9401 12.2057 12.7656 12.5208 12.7656 12.8906L 11.3125 12.8906C 11.3125 12.4688 11.4609 12.0625 11.7578 11.6719C 12.0599 11.276 12.4661 10.9635 12.9766 10.7344C 13.4922 10.5052 14.0573 10.3906 14.6719 10.3906C 15.6458 10.3906 16.4089 10.6354 16.9609 11.125C 17.513 11.6094 17.7995 12.2786 17.8203 13.1328L 17.8203 17.0234C 17.8203 17.7995 17.9193 18.4167 18.1172 18.875L 18.1172 19L 16.6016 19ZM 14.2031 17.8984C 14.6562 17.8984 15.0859 17.7812 15.4922 17.5469C 15.8984 17.3125 16.1927 17.0078 16.375 16.6328L 16.375 14.8984L 15.2422 14.8984C 13.4714 14.8984 12.5859 15.4167 12.5859 16.4531C 12.5859 16.9062 12.737 17.2604 13.0391 17.5156C 13.3411 17.7708 13.7292 17.8984 14.2031 17.8984ZM 25.0078 16.7578C 25.0078 16.3672 24.8594 16.0651 24.5625 15.8516C 24.2708 15.6328 23.7578 15.4453 23.0234 15.2891C 22.2943 15.1328 21.7135 14.9453 21.2812 14.7266C 20.8542 14.5078 20.5365 14.2474 20.3281 13.9453C 20.125 13.6432 20.0234 13.2839 20.0234 12.8672C 20.0234 12.1745 20.3151 11.5885 20.8984 11.1094C 21.487 10.6302 22.237 10.3906 23.1484 10.3906C 24.1068 10.3906 24.8828 10.638 25.4766 11.1328C 26.0755 11.6276 26.375 12.2604 26.375 13.0312L 24.9219 13.0312C 24.9219 12.6354 24.7526 12.2943 24.4141 12.0078C 24.0807 11.7214 23.6589 11.5781 23.1484 11.5781C 22.6224 11.5781 22.2109 11.6927 21.9141 11.9219C 21.6172 12.151 21.4688 12.4505 21.4688 12.8203C 21.4688 13.1693 21.6068 13.4323 21.8828 13.6094C 22.1589 13.7865 22.6562 13.9557 23.375 14.1172C 24.099 14.2786 24.6849 14.4714 25.1328 14.6953C 25.5807 14.9193 25.9115 15.1901 26.125 15.5078C 26.3438 15.8203 26.4531 16.2031 26.4531 16.6562C 26.4531 17.4115 26.151 18.0182 25.5469 18.4766C 24.9427 18.9297 24.1589 19.1562 23.1953 19.1562C 22.5182 19.1562 21.9193 19.0365 21.3984 18.7969C 20.8776 18.5573 20.4688 18.224 20.1719 17.7969C 19.8802 17.3646 19.7344 16.8984 19.7344 16.3984L 21.1797 16.3984C 21.2057 16.8828 21.3984 17.2682 21.7578 17.5547C 22.1224 17.8359 22.6016 17.9766 23.1953 17.9766C 23.7422 17.9766 24.1797 17.8672 24.5078 17.6484C 24.8411 17.4245 25.0078 17.1276 25.0078 16.7578ZM 33.2578 16.7578C 33.2578 16.3672 33.1094 16.0651 32.8125 15.8516C 32.5208 15.6328 32.0078 15.4453 31.2734 15.2891C 30.5443 15.1328 29.9635 14.9453 29.5312 14.7266C 29.1042 14.5078 28.7865 14.2474 28.5781 13.9453C 28.375 13.6432 28.2734 13.2839 28.2734 12.8672C 28.2734 12.1745 28.5651 11.5885 29.1484 11.1094C 29.737 10.6302 30.487 10.3906 31.3984 10.3906C 32.3568 10.3906 33.1328 10.638 33.7266 11.1328C 34.3255 11.6276 34.625 12.2604 34.625 13.0312L 33.1719 13.0312C 33.1719 12.6354 33.0026 12.2943 32.6641 12.0078C 32.3307 11.7214 31.9089 11.5781 31.3984 11.5781C 30.8724 11.5781 30.4609 11.6927 30.1641 11.9219C 29.8672 12.151 29.7188 12.4505 29.7188 12.8203C 29.7188 13.1693 29.8568 13.4323 30.1328 13.6094C 30.4089 13.7865 30.9062 13.9557 31.625 14.1172C 32.349 14.2786 32.9349 14.4714 33.3828 14.6953C 33.8307 14.9193 34.1615 15.1901 34.375 15.5078C 34.5938 15.8203 34.7031 16.2031 34.7031 16.6562C 34.7031 17.4115 34.401 18.0182 33.7969 18.4766C 33.1927 18.9297 32.4089 19.1562 31.4453 19.1562C 30.7682 19.1562 30.1693 19.0365 29.6484 18.7969C 29.1276 18.5573 28.7188 18.224 28.4219 17.7969C 28.1302 17.3646 27.9844 16.8984 27.9844 16.3984L 29.4297 16.3984C 29.4557 16.8828 29.6484 17.2682 30.0078 17.5547C 30.3724 17.8359 30.8516 17.9766 31.4453 17.9766C 31.9922 17.9766 32.4297 17.8672 32.7578 17.6484C 33.0911 17.4245 33.2578 17.1276 33.2578 16.7578ZM 40.0938 19.1562C 38.9479 19.1562 38.0156 18.7812 37.2969 18.0312C 36.5781 17.276 36.2188 16.2682 36.2188 15.0078L 36.2188 14.7422C 36.2188 13.9036 36.3776 13.1562 36.6953 12.5C 37.0182 11.8385 37.4661 11.3229 38.0391 10.9531C 38.6172 10.5781 39.2422 10.3906 39.9141 10.3906C 41.013 10.3906 41.8672 10.7526 42.4766 11.4766C 43.0859 12.2005 43.3906 13.237 43.3906 14.5859L 43.3906 15.1875L 37.6641 15.1875C 37.6849 16.0208 37.9271 16.6953 38.3906 17.2109C 38.8594 17.7214 39.4531 17.9766 40.1719 17.9766C 40.6823 17.9766 41.1146 17.8724 41.4688 17.6641C 41.8229 17.4557 42.1328 17.1797 42.3984 16.8359L 43.2812 17.5234C 42.5729 18.612 41.5104 19.1562 40.0938 19.1562ZM 39.9141 11.5781C 39.3307 11.5781 38.8411 11.7917 38.4453 12.2188C 38.0495 12.6406 37.8047 13.2344 37.7109 14L 41.9453 14L 41.9453 13.8906C 41.9036 13.1562 41.7057 12.5885 41.3516 12.1875C 40.9974 11.7812 40.5182 11.5781 39.9141 11.5781ZM 46.4375 10.5469L 46.4844 11.6094C 47.1302 10.7969 47.974 10.3906 49.0156 10.3906C 50.8021 10.3906 51.7031 11.3984 51.7188 13.4141L 51.7188 19L 50.2734 19L 50.2734 13.4062C 50.2682 12.7969 50.1276 12.3464 49.8516 12.0547C 49.5807 11.763 49.1562 11.6172 48.5781 11.6172C 48.1094 11.6172 47.6979 11.7422 47.3438 11.9922C 46.9896 12.2422 46.7135 12.5703 46.5156 12.9766L 46.5156 19L 45.0703 19L 45.0703 10.5469L 46.4375 10.5469ZM 53.5547 14.7031C 53.5547 13.3854 53.8594 12.3385 54.4688 11.5625C 55.0781 10.7812 55.8854 10.3906 56.8906 10.3906C 57.9219 10.3906 58.7266 10.7552 59.3047 11.4844L 59.375 10.5469L 60.6953 10.5469L 60.6953 18.7969C 60.6953 19.8906 60.3698 20.7526 59.7188 21.3828C 59.0729 22.013 58.2031 22.3281 57.1094 22.3281C 56.5 22.3281 55.9036 22.1979 55.3203 21.9375C 54.737 21.6771 54.2917 21.3203 53.9844 20.8672L 54.7344 20C 55.3542 20.7656 56.112 21.1484 57.0078 21.1484C 57.7109 21.1484 58.2578 20.9505 58.6484 20.5547C 59.0443 20.1589 59.2422 19.6016 59.2422 18.8828L 59.2422 18.1562C 58.6641 18.8229 57.875 19.1562 56.875 19.1562C 55.8854 19.1562 55.0833 18.7578 54.4688 17.9609C 53.8594 17.1641 53.5547 16.0781 53.5547 14.7031ZM 55.0078 14.8672C 55.0078 15.8203 55.2031 16.5703 55.5938 17.1172C 55.9844 17.6589 56.5312 17.9297 57.2344 17.9297C 58.1458 17.9297 58.8151 17.5156 59.2422 16.6875L 59.2422 12.8281C 58.7995 12.0208 58.1354 11.6172 57.25 11.6172C 56.5469 11.6172 55.9974 11.8906 55.6016 12.4375C 55.2057 12.9844 55.0078 13.7943 55.0078 14.8672ZM 66.3906 19.1562C 65.2448 19.1562 64.3125 18.7812 63.5938 18.0312C 62.875 17.276 62.5156 16.2682 62.5156 15.0078L 62.5156 14.7422C 62.5156 13.9036 62.6745 13.1562 62.9922 12.5C 63.3151 11.8385 63.763 11.3229 64.3359 10.9531C 64.9141 10.5781 65.5391 10.3906 66.2109 10.3906C 67.3099 10.3906 68.1641 10.7526 68.7734 11.4766C 69.3828 12.2005 69.6875 13.237 69.6875 14.5859L 69.6875 15.1875L 63.9609 15.1875C 63.9818 16.0208 64.224 16.6953 64.6875 17.2109C 65.1562 17.7214 65.75 17.9766 66.4688 17.9766C 66.9792 17.9766 67.4115 17.8724 67.7656 17.6641C 68.1198 17.4557 68.4297 17.1797 68.6953 16.8359L 69.5781 17.5234C 68.8698 18.612 67.8073 19.1562 66.3906 19.1562ZM 66.2109 11.5781C 65.6276 11.5781 65.138 11.7917 64.7422 12.2188C 64.3464 12.6406 64.1016 13.2344 64.0078 14L 68.2422 14L 68.2422 13.8906C 68.2005 13.1562 68.0026 12.5885 67.6484 12.1875C 67.2943 11.7812 66.8151 11.5781 66.2109 11.5781ZM 75.4531 11.8438C 75.2344 11.8073 74.9974 11.7891 74.7422 11.7891C 73.7943 11.7891 73.151 12.1927 72.8125 13L 72.8125 19L 71.3672 19L 71.3672 10.5469L 72.7734 10.5469L 72.7969 11.5234C 73.2708 10.7682 73.9427 10.3906 74.8125 10.3906C 75.0938 10.3906 75.3073 10.4271 75.4531 10.5L 75.4531 11.8438ZM 87.8984 14.8672C 87.8984 16.1536 87.6042 17.1901 87.0156 17.9766C 86.4271 18.763 85.6302 19.1562 84.625 19.1562C 83.599 19.1562 82.7917 18.8307 82.2031 18.1797L 82.2031 22.25L 80.7578 22.25L 80.7578 10.5469L 82.0781 10.5469L 82.1484 11.4844C 82.737 10.7552 83.5547 10.3906 84.6016 10.3906C 85.6172 10.3906 86.4193 10.7734 87.0078 11.5391C 87.6016 12.3047 87.8984 13.3698 87.8984 14.7344L 87.8984 14.8672ZM 86.4531 14.7031C 86.4531 13.75 86.25 12.9974 85.8438 12.4453C 85.4375 11.8932 84.8802 11.6172 84.1719 11.6172C 83.2969 11.6172 82.6406 12.0052 82.2031 12.7812L 82.2031 16.8203C 82.6354 17.5911 83.2969 17.9766 84.1875 17.9766C 84.8802 17.9766 85.4297 17.7031 85.8359 17.1562C 86.2474 16.6042 86.4531 15.7865 86.4531 14.7031ZM 93.25 19.1562C 92.1042 19.1562 91.1719 18.7812 90.4531 18.0312C 89.7344 17.276 89.375 16.2682 89.375 15.0078L 89.375 14.7422C 89.375 13.9036 89.5339 13.1562 89.8516 12.5C 90.1745 11.8385 90.6224 11.3229 91.1953 10.9531C 91.7734 10.5781 92.3984 10.3906 93.0703 10.3906C 94.1693 10.3906 95.0234 10.7526 95.6328 11.4766C 96.2422 12.2005 96.5469 13.237 96.5469 14.5859L 96.5469 15.1875L 90.8203 15.1875C 90.8411 16.0208 91.0833 16.6953 91.5469 17.2109C 92.0156 17.7214 92.6094 17.9766 93.3281 17.9766C 93.8385 17.9766 94.2708 17.8724 94.625 17.6641C 94.9792 17.4557 95.2891 17.1797 95.5547 16.8359L 96.4375 17.5234C 95.7292 18.612 94.6667 19.1562 93.25 19.1562ZM 93.0703 11.5781C 92.487 11.5781 91.9974 11.7917 91.6016 12.2188C 91.2057 12.6406 90.9609 13.2344 90.8672 14L 95.1016 14L 95.1016 13.8906C 95.0599 13.1562 94.862 12.5885 94.5078 12.1875C 94.1536 11.7812 93.6745 11.5781 93.0703 11.5781ZM 102.312 11.8438C 102.094 11.8073 101.857 11.7891 101.602 11.7891C 100.654 11.7891 100.01 12.1927 99.6719 13L 99.6719 19L 98.2266 19L 98.2266 10.5469L 99.6328 10.5469L 99.6562 11.5234C 100.13 10.7682 100.802 10.3906 101.672 10.3906C 101.953 10.3906 102.167 10.4271 102.312 10.5L 102.312 11.8438ZM 107.266 14.7031C 107.266 13.4062 107.573 12.3646 108.188 11.5781C 108.802 10.7865 109.607 10.3906 110.602 10.3906C 111.591 10.3906 112.375 10.7292 112.953 11.4062L 112.953 7L 114.398 7L 114.398 19L 113.07 19L 113 18.0938C 112.422 18.8021 111.617 19.1562 110.586 19.1562C 109.607 19.1562 108.807 18.7552 108.188 17.9531C 107.573 17.151 107.266 16.1042 107.266 14.8125L 107.266 14.7031ZM 108.711 14.8672C 108.711 15.8255 108.909 16.5755 109.305 17.1172C 109.701 17.6589 110.247 17.9297 110.945 17.9297C 111.862 17.9297 112.531 17.5182 112.953 16.6953L 112.953 12.8125C 112.521 12.0156 111.857 11.6172 110.961 11.6172C 110.253 11.6172 109.701 11.8906 109.305 12.4375C 108.909 12.9844 108.711 13.7943 108.711 14.8672ZM 121.867 19C 121.784 18.8333 121.716 18.5365 121.664 18.1094C 120.992 18.8073 120.19 19.1562 119.258 19.1562C 118.424 19.1562 117.74 18.9219 117.203 18.4531C 116.672 17.9792 116.406 17.3802 116.406 16.6562C 116.406 15.776 116.74 15.0938 117.406 14.6094C 118.078 14.1198 119.021 13.875 120.234 13.875L 121.641 13.875L 121.641 13.2109C 121.641 12.7057 121.49 12.3047 121.188 12.0078C 120.885 11.7057 120.44 11.5547 119.852 11.5547C 119.336 11.5547 118.904 11.6849 118.555 11.9453C 118.206 12.2057 118.031 12.5208 118.031 12.8906L 116.578 12.8906C 116.578 12.4688 116.727 12.0625 117.023 11.6719C 117.326 11.276 117.732 10.9635 118.242 10.7344C 118.758 10.5052 119.323 10.3906 119.938 10.3906C 120.911 10.3906 121.674 10.6354 122.227 11.125C 122.779 11.6094 123.065 12.2786 123.086 13.1328L 123.086 17.0234C 123.086 17.7995 123.185 18.4167 123.383 18.875L 123.383 19L 121.867 19ZM 119.469 17.8984C 119.922 17.8984 120.352 17.7812 120.758 17.5469C 121.164 17.3125 121.458 17.0078 121.641 16.6328L 121.641 14.8984L 120.508 14.8984C 118.737 14.8984 117.852 15.4167 117.852 16.4531C 117.852 16.9062 118.003 17.2604 118.305 17.5156C 118.607 17.7708 118.995 17.8984 119.469 17.8984ZM 127.992 16.8828L 129.961 10.5469L 131.508 10.5469L 128.109 20.3047C 127.583 21.7109 126.747 22.4141 125.602 22.4141L 125.328 22.3906L 124.789 22.2891L 124.789 21.1172L 125.18 21.1484C 125.669 21.1484 126.049 21.0495 126.32 20.8516C 126.596 20.6536 126.823 20.2917 127 19.7656L 127.32 18.9062L 124.305 10.5469L 125.883 10.5469L 127.992 16.8828Z"/>
<path id="path11_fill" fill-rule="evenodd" d="M 0 0L 1 0L 1 23L 0 23L 0 0Z"/>
<path id="path12_fill" fill-rule="evenodd" d="M 0 0L 130 0L 130 1L 0 1L 0 0Z"/>
<path id="path13_stroke_2x" d="M -0.5 0L -0.5 0.5L 0.5 0.5L 0.5 0L -0.5 0ZM 0 1.5L 1.51163 1.5L 1.51163 0.5L 0 0.5L 0 1.5ZM 4.53488 1.5L 7.55814 1.5L 7.55814 0.5L 4.53488 0.5L 4.53488 1.5ZM 10.5814 1.5L 13.6047 1.5L 13.6047 0.5L 10.5814 0.5L 10.5814 1.5ZM 16.6279 1.5L 19.6512 1.5L 19.6512 0.5L 16.6279 0.5L 16.6279 1.5ZM 22.6744 1.5L 25.6977 1.5L 25.6977 0.5L 22.6744 0.5L 22.6744 1.5ZM 28.7209 1.5L 31.7442 1.5L 31.7442 0.5L 28.7209 0.5L 28.7209 1.5ZM 34.7674 1.5L 37.7907 1.5L 37.7907 0.5L 34.7674 0.5L 34.7674 1.5ZM 40.814 1.5L 43.8372 1.5L 43.8372 0.5L 40.814 0.5L 40.814 1.5ZM 46.8605 1.5L 49.8837 1.5L 49.8837 0.5L 46.8605 0.5L 46.8605 1.5ZM 52.907 1.5L 55.9302 1.5L 55.9302 0.5L 52.907 0.5L 52.907 1.5ZM 58.9535 1.5L 61.9767 1.5L 61.9767 0.5L 58.9535 0.5L 58.9535 1.5ZM 65 1.5L 68.0233 1.5L 68.0233 0.5L 65 0.5L 65 1.5ZM 71.0465 1.5L 74.0698 1.5L 74.0698 0.5L 71.0465 0.5L 71.0465 1.5ZM 77.093 1.5L 80.1163 1.5L 80.1163 0.5L 77.093 0.5L 77.093 1.5ZM 83.1395 1.5L 86.1628 1.5L 86.1628 0.5L 83.1395 0.5L 83.1395 1.5ZM 89.1861 1.5L 92.2093 1.5L 92.2093 0.5L 89.1861 0.5L 89.1861 1.5ZM 95.2326 1.5L 98.2558 1.5L 98.2558 0.5L 95.2326 0.5L 95.2326 1.5ZM 101.279 1.5L 104.302 1.5L 104.302 0.5L 101.279 0.5L 101.279 1.5ZM 107.326 1.5L 110.349 1.5L 110.349 0.5L 107.326 0.5L 107.326 1.5ZM 113.372 1.5L 116.395 1.5L 116.395 0.5L 113.372 0.5L 113.372 1.5ZM 119.419 1.5L 122.442 1.5L 122.442 0.5L 119.419 0.5L 119.419 1.5ZM 125.465 1.5L 128.488 1.5L 128.488 0.5L 125.465 0.5L 125.465 1.5ZM 130.5 1L 130.5 0.5L 129.5 0.5L 129.5 1L 130.5 1ZM 130 -0.5L 128.488 -0.5L 128.488 0.5L 130 0.5L 130 -0.5ZM 125.465 -0.5L 122.442 -0.5L 122.442 0.5L 125.465 0.5L 125.465 -0.5ZM 119.419 -0.5L 116.395 -0.5L 116.395 0.5L 119.419 0.5L 119.419 -0.5ZM 113.372 -0.5L 110.349 -0.5L 110.349 0.5L 113.372 0.5L 113.372 -0.5ZM 107.326 -0.5L 104.302 -0.5L 104.302 0.5L 107.326 0.5L 107.326 -0.5ZM 101.279 -0.5L 98.2558 -0.5L 98.2558 0.5L 101.279 0.5L 101.279 -0.5ZM 95.2326 -0.5L 92.2093 -0.5L 92.2093 0.5L 95.2326 0.5L 95.2326 -0.5ZM 89.186 -0.5L 86.1628 -0.5L 86.1628 0.5L 89.186 0.5L 89.186 -0.5ZM 83.1395 -0.5L 80.1163 -0.5L 80.1163 0.5L 83.1395 0.5L 83.1395 -0.5ZM 77.093 -0.5L 74.0698 -0.5L 74.0698 0.5L 77.093 0.5L 77.093 -0.5ZM 71.0465 -0.5L 68.0233 -0.5L 68.0233 0.5L 71.0465 0.5L 71.0465 -0.5ZM 65 -0.5L 61.9767 -0.5L 61.9767 0.5L 65 0.5L 65 -0.5ZM 58.9535 -0.5L 55.9302 -0.5L 55.9302 0.5L 58.9535 0.5L 58.9535 -0.5ZM 52.907 -0.5L 49.8837 -0.5L 49.8837 0.5L 52.907 0.5L 52.907 -0.5ZM 46.8605 -0.5L 43.8372 -0.5L 43.8372 0.5L 46.8605 0.5L 46.8605 -0.5ZM 40.814 -0.5L 37.7907 -0.5L 37.7907 0.5L 40.814 0.5L 40.814 -0.5ZM 34.7674 -0.5L 31.7442 -0.5L 31.7442 0.5L 34.7674 0.5L 34.7674 -0.5ZM 28.7209 -0.5L 25.6977 -0.5L 25.6977 0.5L 28.7209 0.5L 28.7209 -0.5ZM 22.6744 -0.5L 19.6512 -0.5L 19.6512 0.5L 22.6744 0.5L 22.6744 -0.5ZM 16.6279 -0.5L 13.6047 -0.5L 13.6047 0.5L 16.6279 0.5L 16.6279 -0.5ZM 10.5814 -0.5L 7.55814 -0.5L 7.55814 0.5L 10.5814 0.5L 10.5814 -0.5ZM 4.53488 -0.5L 1.51163 -0.5L 1.51163 0.5L 4.53488 0.5L 4.53488 -0.5ZM -1 0L -1 0.5L 1 0.5L 1 0L -1 0ZM 0 2L 1.51163 2L 1.51163 0L 0 0L 0 2ZM 4.53488 2L 7.55814 2L 7.55814 0L 4.53488 0L 4.53488 2ZM 10.5814 2L 13.6047 2L 13.6047 0L 10.5814 0L 10.5814 2ZM 16.6279 2L 19.6512 2L 19.6512 0L 16.6279 0L 16.6279 2ZM 22.6744 2L 25.6977 2L 25.6977 0L 22.6744 0L 22.6744 2ZM 28.7209 2L 31.7442 2L 31.7442 0L 28.7209 0L 28.7209 2ZM 34.7674 2L 37.7907 2L 37.7907 0L 34.7674 0L 34.7674 2ZM 40.814 2L 43.8372 2L 43.8372 0L 40.814 0L 40.814 2ZM 46.8605 2L 49.8837 2L 49.8837 0L 46.8605 0L 46.8605 2ZM 52.907 2L 55.9302 2L 55.9302 0L 52.907 0L 52.907 2ZM 58.9535 2L 61.9767 2L 61.9767 0L 58.9535 0L 58.9535 2ZM 65 2L 68.0233 2L 68.0233 0L 65 0L 65 2ZM 71.0465 2L 74.0698 2L 74.0698 0L 71.0465 0L 71.0465 2ZM 77.093 2L 80.1163 2L 80.1163 0L 77.093 0L 77.093 2ZM 83.1395 2L 86.1628 2L 86.1628 0L 83.1395 0L 83.1395 2ZM 89.1861 2L 92.2093 2L 92.2093 0L 89.1861 0L 89.1861 2ZM 95.2326 2L 98.2558 2L 98.2558 0L 95.2326 0L 95.2326 2ZM 101.279 2L 104.302 2L 104.302 0L 101.279 0L 101.279 2ZM 107.326 2L 110.349 2L 110.349 0L 107.326 0L 107.326 2ZM 113.372 2L 116.395 2L 116.395 0L 113.372 0L 113.372 2ZM 119.419 2L 122.442 2L 122.442 0L 119.419 0L 119.419 2ZM 125.465 2L 128.488 2L 128.488 0L 125.465 0L 125.465 2ZM 131 1L 131 0.5L 129 0.5L 129 1L 131 1ZM 130 -1L 128.488 -1L 128.488 1L 130 1L 130 -1ZM 125.465 -1L 122.442 -1L 122.442 1L 125.465 1L 125.465 -1ZM 119.419 -1L 116.395 -1L 116.395 1L 119.419 1L 119.419 -1ZM 113.372 -1L 110.349 -1L 110.349 1L 113.372 1L 113.372 -1ZM 107.326 -1L 104.302 -1L 104.302 1L 107.326 1L 107.326 -1ZM 101.279 -1L 98.2558 -1L 98.2558 1L 101.279 1L 101.279 -1ZM 95.2326 -1L 92.2093 -1L 92.2093 1L 95.2326 1L 95.2326 -1ZM 89.186 -1L 86.1628 -1L 86.1628 1L 89.186 1L 89.186 -1ZM 83.1395 -1L 80.1163 -1L 80.1163 1L 83.1395 1L 83.1395 -1ZM 77.093 -1L 74.0698 -1L 74.0698 1L 77.093 1L 77.093 -1ZM 71.0465 -1L 68.0233 -1L 68.0233 1L 71.0465 1L 71.0465 -1ZM 65 -1L 61.9767 -1L 61.9767 1L 65 1L 65 -1ZM 58.9535 -1L 55.9302 -1L 55.9302 1L 58.9535 1L 58.9535 -1ZM 52.907 -1L 49.8837 -1L 49.8837 1L 52.907 1L 52.907 -1ZM 46.8605 -1L 43.8372 -1L 43.8372 1L 46.8605 1L 46.8605 -1ZM 40.814 -1L 37.7907 -1L 37.7907 1L 40.814 1L 40.814 -1ZM 34.7674 -1L 31.7442 -1L 31.7442 1L 34.7674 1L 34.7674 -1ZM 28.7209 -1L 25.6977 -1L 25.6977 1L 28.7209 1L 28.7209 -1ZM 22.6744 -1L 19.6512 -1L 19.6512 1L 22.6744 1L 22.6744 -1ZM 16.6279 -1L 13.6047 -1L 13.6047 1L 16.6279 1L 16.6279 -1ZM 10.5814 -1L 7.55814 -1L 7.55814 1L 10.5814 1L 10.5814 -1ZM 4.53488 -1L 1.51163 -1L 1.51163 1L 4.53488 1L 4.53488 -1Z"/>
</defs>
</svg>
