<svg width="335" height="68" viewBox="0 0 335 68" version="1.1" xmlns="http://www.w3.org/2000/svg" xmlns:xlink="http://www.w3.org/1999/xlink">
<title>Component</title>
<desc>Created using Figma</desc>
<g id="Canvas" transform="translate(-2591 -11006)">
<g id="Component">
<g id="input field copy 8">
<use xlink:href="#path0_fill" transform="translate(2591 11006)" fill="#FFFFFF"/>
<mask id="mask0_outline_ins">
<use xlink:href="#path0_fill" fill="white" transform="translate(2591 11006)"/>
</mask>
<g mask="url(#mask0_outline_ins)">
<use xlink:href="#path1_stroke_2x" transform="translate(2591 11006)" fill="#E0E6ED"/>
</g>
</g>
<g id="Sail Copy">
<use xlink:href="#path2_fill" transform="translate(2622 11041)" fill="#34495E"/>
</g>
<g id="Motor Copy">
<use xlink:href="#path3_fill" transform="translate(2698 11041)" fill="#34495E"/>
</g>
<g id="Catamaran Copy">
<use xlink:href="#path4_fill" transform="translate(2767 11041)" fill="#34495E"/>
</g>
<g id="Mega Copy">
<use xlink:href="#path5_fill" transform="translate(2866 11041)" fill="#34495E"/>
</g>
<g id="Rectangle 18 Copy 20" opacity="0.5">
<use xlink:href="#path6_fill" transform="translate(2843 11007)" fill="#E0E6ED"/>
</g>
<g id="Rectangle 18 Copy 19" opacity="0.5">
<use xlink:href="#path6_fill" transform="translate(2759 11007)" fill="#E0E6ED"/>
</g>
<g id="Rectangle 18 Copy 18" opacity="0.5">
<use xlink:href="#path6_fill" transform="translate(2675 11007)" fill="#E0E6ED"/>
</g>
<g id="Page 1 Copy 4">
<g id="Stroke 1">
<use xlink:href="#path7_stroke" transform="matrix(-1 0 0 1 2733 11030)" fill="#818FA4"/>
</g>
<g id="Stroke 3">
<use xlink:href="#path8_stroke" transform="matrix(-1 0 0 1 2729 11026)" fill="#818FA4"/>
</g>
<g id="Stroke 5">
<use xlink:href="#path9_stroke" transform="matrix(-1 0 0 1 2711 11027)" fill="#818FA4"/>
</g>
</g>
<g id="Page 1 Copy 3">
<g id="Stroke 1">
<use xlink:href="#path10_stroke" transform="translate(2870 11031)" fill="#818FA4"/>
</g>
<g id="Group 6">
<g id="Stroke 2">
<use xlink:href="#path11_stroke" transform="translate(2876 11027)" fill="#818FA4"/>
</g>
<g id="Stroke 4">
<use xlink:href="#path12_stroke" transform="translate(2865 11034)" fill="#818FA4"/>
</g>
</g>
<g id="Fill 7">
<use xlink:href="#path13_fill" transform="translate(2875 11034)" fill="#858E97"/>
</g>
<g id="Stroke 8">
<use xlink:href="#path14_stroke" transform="translate(2875 11034)" fill="#858E97"/>
</g>
<g id="Fill 9">
<use xlink:href="#path13_fill" transform="translate(2883 11034)" fill="#858E97"/>
</g>
<g id="Stroke 10">
<use xlink:href="#path14_stroke" transform="translate(2883 11034)" fill="#858E97"/>
</g>
<g id="Fill 11">
<use xlink:href="#path13_fill" transform="translate(2879 11029)" fill="#858E97"/>
</g>
<g id="Stroke 12">
<use xlink:href="#path14_stroke" transform="translate(2879 11029)" fill="#858E97"/>
</g>
</g>
<g id="Page 1 Copy 2">
<g id="Stroke 1">
<use xlink:href="#path15_stroke" transform="translate(2791 11036)" fill="#818FA4"/>
</g>
<g id="Stroke 3">
<use xlink:href="#path16_stroke" transform="translate(2808 11034)" fill="#818FA4"/>
</g>
<g id="Stroke 5">
<use xlink:href="#path17_stroke" transform="translate(2789 11035)" fill="#818FA4"/>
</g>
<g id="Stroke 7">
<use xlink:href="#path18_stroke" transform="translate(2795 11034)" fill="#818FA4"/>
</g>
<g id="Stroke 9">
<use xlink:href="#path19_stroke" transform="translate(2802 11016)" fill="#818FA4"/>
</g>
<g id="Stroke 11">
<use xlink:href="#path20_stroke" transform="translate(2794 11016)" fill="#818FA4"/>
</g>
</g>
<g id="Page 1 Copy">
<g id="Fill 1">
<use xlink:href="#path21_fill" transform="translate(2633.48 11021.5)" fill="#818FA4"/>
</g>
<g id="Group 4">
<g id="Stroke 2">
<mask id="mask1_outline_ins">
<use xlink:href="#path22_fill" fill="white" transform="translate(2624.99 11020.1)"/>
</mask>
<g mask="url(#mask1_outline_ins)">
<use xlink:href="#path23_stroke_2x" transform="translate(2624.99 11020.1)" fill="#818FA4"/>
</g>
</g>
</g>
<g id="Group 7">
<g id="Stroke 5">
<mask id="mask2_outline_ins">
<use xlink:href="#path24_fill" fill="white" transform="translate(2622.28 11038.7)"/>
</mask>
<g mask="url(#mask2_outline_ins)">
<use xlink:href="#path25_stroke_2x" transform="translate(2622.28 11038.7)" fill="#818FA4"/>
</g>
</g>
</g>
</g>
</g>
</g>
<defs>
<path id="path0_fill" fill-rule="evenodd" d="M 0 4C 0 1.79086 1.79086 0 4 0L 331 0C 333.209 0 335 1.79086 335 4L 335 64C 335 66.2091 333.209 68 331 68L 4 68C 1.79086 68 0 66.2091 0 64L 0 4Z"/>
<path id="path1_stroke_2x" d="M 4 1L 331 1L 331 -1L 4 -1L 4 1ZM 334 4L 334 64L 336 64L 336 4L 334 4ZM 331 67L 4 67L 4 69L 331 69L 331 67ZM 1 64L 1 4L -1 4L -1 64L 1 64ZM 4 -1C 1.23858 -1 -1 1.23858 -1 4L 1 4C 1 2.34315 2.34315 1 4 1L 4 -1ZM 331 1C 332.657 1 334 2.34315 334 4L 336 4C 336 1.23858 333.761 -1 331 -1L 331 1ZM 334 64C 334 65.6569 332.657 67 331 67L 331 69C 333.761 69 336 66.7614 336 64L 334 64ZM 4 67C 2.34315 67 1 65.6569 1 64L -1 64C -1 66.7614 1.23858 69 4 69L 4 67Z"/>
<path id="path2_fill" d="M 4.08789 13.5635C 2.96224 13.2399 2.14193 12.8434 1.62695 12.374C 1.11654 11.9001 0.861328 11.3167 0.861328 10.624C 0.861328 9.84017 1.1735 9.19303 1.79785 8.68262C 2.42676 8.16764 3.24251 7.91016 4.24512 7.91016C 4.92871 7.91016 5.53711 8.04232 6.07031 8.30664C 6.60807 8.57096 7.02279 8.93555 7.31445 9.40039C 7.61068 9.86523 7.75879 10.3734 7.75879 10.9248L 6.43945 10.9248C 6.43945 10.3232 6.24805 9.85156 5.86523 9.50977C 5.48242 9.16341 4.94238 8.99023 4.24512 8.99023C 3.59798 8.99023 3.09212 9.13379 2.72754 9.4209C 2.36751 9.70345 2.1875 10.0977 2.1875 10.6035C 2.1875 11.0091 2.3584 11.3532 2.7002 11.6357C 3.04655 11.9137 3.63216 12.1689 4.45703 12.4014C 5.28646 12.6338 5.93359 12.8913 6.39844 13.1738C 6.86784 13.4518 7.21419 13.7777 7.4375 14.1514C 7.66536 14.5251 7.7793 14.9648 7.7793 15.4707C 7.7793 16.2773 7.46484 16.9245 6.83594 17.4121C 6.20703 17.8952 5.36621 18.1367 4.31348 18.1367C 3.62988 18.1367 2.99186 18.0068 2.39941 17.7471C 1.80697 17.4827 1.34896 17.1227 1.02539 16.667C 0.70638 16.2113 0.546875 15.694 0.546875 15.1152L 1.86621 15.1152C 1.86621 15.7168 2.08724 16.193 2.5293 16.5439C 2.97591 16.8903 3.57064 17.0635 4.31348 17.0635C 5.00618 17.0635 5.53711 16.9222 5.90625 16.6396C 6.27539 16.3571 6.45996 15.972 6.45996 15.4844C 6.45996 14.9967 6.28906 14.6208 5.94727 14.3564C 5.60547 14.0876 4.98568 13.8232 4.08789 13.5635ZM 13.8359 18C 13.763 17.8542 13.7038 17.5944 13.6582 17.2207C 13.0703 17.8314 12.3685 18.1367 11.5527 18.1367C 10.8236 18.1367 10.2243 17.9316 9.75488 17.5215C 9.29004 17.1068 9.05762 16.5827 9.05762 15.9492C 9.05762 15.179 9.34928 14.582 9.93262 14.1582C 10.5205 13.7298 11.3454 13.5156 12.4072 13.5156L 13.6377 13.5156L 13.6377 12.9346C 13.6377 12.4925 13.5055 12.1416 13.2412 11.8818C 12.9769 11.6175 12.5872 11.4854 12.0723 11.4854C 11.6211 11.4854 11.2428 11.5993 10.9375 11.8271C 10.6322 12.055 10.4795 12.3307 10.4795 12.6543L 9.20801 12.6543C 9.20801 12.2852 9.33789 11.9297 9.59766 11.5879C 9.86198 11.2415 10.2174 10.9681 10.6641 10.7676C 11.1152 10.5671 11.6097 10.4668 12.1475 10.4668C 12.9997 10.4668 13.6673 10.681 14.1504 11.1094C 14.6335 11.5332 14.8841 12.1188 14.9023 12.8662L 14.9023 16.2705C 14.9023 16.9495 14.9889 17.4896 15.1621 17.8906L 15.1621 18L 13.8359 18ZM 11.7373 17.0361C 12.1338 17.0361 12.5098 16.9336 12.8652 16.7285C 13.2207 16.5234 13.4782 16.2568 13.6377 15.9287L 13.6377 14.4111L 12.6465 14.4111C 11.097 14.4111 10.3223 14.8646 10.3223 15.7715C 10.3223 16.168 10.4544 16.4779 10.7188 16.7012C 10.9831 16.9245 11.3226 17.0361 11.7373 17.0361ZM 18.2588 18L 16.9941 18L 16.9941 10.6035L 18.2588 10.6035L 18.2588 18ZM 16.8916 8.6416C 16.8916 8.43652 16.9531 8.26335 17.0762 8.12207C 17.2038 7.98079 17.3906 7.91016 17.6367 7.91016C 17.8828 7.91016 18.0697 7.98079 18.1973 8.12207C 18.3249 8.26335 18.3887 8.43652 18.3887 8.6416C 18.3887 8.84668 18.3249 9.01758 18.1973 9.1543C 18.0697 9.29102 17.8828 9.35938 17.6367 9.35938C 17.3906 9.35938 17.2038 9.29102 17.0762 9.1543C 16.9531 9.01758 16.8916 8.84668 16.8916 8.6416ZM 21.6631 18L 20.3984 18L 20.3984 7.5L 21.6631 7.5L 21.6631 18Z"/>
<path id="path3_fill" d="M 2.85059 8.04688L 6.10449 16.168L 9.3584 8.04688L 11.0605 8.04688L 11.0605 18L 9.74805 18L 9.74805 14.124L 9.87109 9.94043L 6.60352 18L 5.59863 18L 2.33789 9.96094L 2.46777 14.124L 2.46777 18L 1.15527 18L 1.15527 8.04688L 2.85059 8.04688ZM 12.8447 14.2334C 12.8447 13.5088 12.986 12.8571 13.2686 12.2783C 13.5557 11.6995 13.9521 11.2529 14.458 10.9385C 14.9684 10.624 15.5495 10.4668 16.2012 10.4668C 17.2083 10.4668 18.0218 10.8154 18.6416 11.5127C 19.266 12.21 19.5781 13.1374 19.5781 14.2949L 19.5781 14.3838C 19.5781 15.1038 19.4391 15.751 19.1611 16.3252C 18.8877 16.8949 18.4935 17.3392 17.9785 17.6582C 17.4681 17.9772 16.8802 18.1367 16.2148 18.1367C 15.2122 18.1367 14.3988 17.7881 13.7744 17.0908C 13.1546 16.3936 12.8447 15.4707 12.8447 14.3223L 12.8447 14.2334ZM 14.1162 14.3838C 14.1162 15.2041 14.3053 15.8626 14.6836 16.3594C 15.0664 16.8561 15.5768 17.1045 16.2148 17.1045C 16.8574 17.1045 17.3678 16.8538 17.7461 16.3525C 18.1243 15.8467 18.3135 15.1403 18.3135 14.2334C 18.3135 13.4222 18.1198 12.766 17.7324 12.2646C 17.3496 11.7588 16.8392 11.5059 16.2012 11.5059C 15.5768 11.5059 15.0732 11.7542 14.6904 12.251C 14.3076 12.7477 14.1162 13.4587 14.1162 14.3838ZM 22.8799 8.8125L 22.8799 10.6035L 24.2607 10.6035L 24.2607 11.5811L 22.8799 11.5811L 22.8799 16.168C 22.8799 16.4642 22.9414 16.6875 23.0645 16.8379C 23.1875 16.9837 23.3971 17.0566 23.6934 17.0566C 23.8392 17.0566 24.0397 17.0293 24.2949 16.9746L 24.2949 18C 23.9622 18.0911 23.6387 18.1367 23.3242 18.1367C 22.7591 18.1367 22.333 17.9658 22.0459 17.624C 21.7588 17.2822 21.6152 16.7969 21.6152 16.168L 21.6152 11.5811L 20.2686 11.5811L 20.2686 10.6035L 21.6152 10.6035L 21.6152 8.8125L 22.8799 8.8125ZM 25.2725 14.2334C 25.2725 13.5088 25.4137 12.8571 25.6963 12.2783C 25.9834 11.6995 26.3799 11.2529 26.8857 10.9385C 27.3962 10.624 27.9772 10.4668 28.6289 10.4668C 29.6361 10.4668 30.4495 10.8154 31.0693 11.5127C 31.6937 12.21 32.0059 13.1374 32.0059 14.2949L 32.0059 14.3838C 32.0059 15.1038 31.8669 15.751 31.5889 16.3252C 31.3154 16.8949 30.9212 17.3392 30.4062 17.6582C 29.8958 17.9772 29.3079 18.1367 28.6426 18.1367C 27.64 18.1367 26.8265 17.7881 26.2021 17.0908C 25.5824 16.3936 25.2725 15.4707 25.2725 14.3223L 25.2725 14.2334ZM 26.5439 14.3838C 26.5439 15.2041 26.7331 15.8626 27.1113 16.3594C 27.4941 16.8561 28.0046 17.1045 28.6426 17.1045C 29.2852 17.1045 29.7956 16.8538 30.1738 16.3525C 30.5521 15.8467 30.7412 15.1403 30.7412 14.2334C 30.7412 13.4222 30.5475 12.766 30.1602 12.2646C 29.7773 11.7588 29.2669 11.5059 28.6289 11.5059C 28.0046 11.5059 27.501 11.7542 27.1182 12.251C 26.7354 12.7477 26.5439 13.4587 26.5439 14.3838ZM 37.167 11.7383C 36.9756 11.7064 36.7682 11.6904 36.5449 11.6904C 35.7155 11.6904 35.1527 12.0436 34.8564 12.75L 34.8564 18L 33.5918 18L 33.5918 10.6035L 34.8223 10.6035L 34.8428 11.458C 35.2575 10.7972 35.8454 10.4668 36.6064 10.4668C 36.8525 10.4668 37.0394 10.4987 37.167 10.5625L 37.167 11.7383Z"/>
<path id="path4_fill" d="M 8.47656 14.8418C 8.35352 15.8945 7.96387 16.708 7.30762 17.2822C 6.65592 17.8519 5.78776 18.1367 4.70312 18.1367C 3.52734 18.1367 2.58398 17.7152 1.87305 16.8721C 1.16667 16.029 0.813477 14.901 0.813477 13.4883L 0.813477 12.5312C 0.813477 11.6061 0.977539 10.7926 1.30566 10.0908C 1.63835 9.389 2.10775 8.85124 2.71387 8.47754C 3.31999 8.09928 4.02181 7.91016 4.81934 7.91016C 5.87663 7.91016 6.72428 8.20638 7.3623 8.79883C 8.00033 9.38672 8.37174 10.2025 8.47656 11.2461L 7.15723 11.2461C 7.04329 10.4531 6.79492 9.87891 6.41211 9.52344C 6.03385 9.16797 5.50293 8.99023 4.81934 8.99023C 3.98079 8.99023 3.32227 9.30013 2.84375 9.91992C 2.36979 10.5397 2.13281 11.4215 2.13281 12.5654L 2.13281 13.5293C 2.13281 14.6094 2.3584 15.4684 2.80957 16.1064C 3.26074 16.7445 3.89193 17.0635 4.70312 17.0635C 5.43229 17.0635 5.99056 16.8994 6.37793 16.5713C 6.76986 16.2386 7.02962 15.6621 7.15723 14.8418L 8.47656 14.8418ZM 14.6426 18C 14.5697 17.8542 14.5104 17.5944 14.4648 17.2207C 13.877 17.8314 13.1751 18.1367 12.3594 18.1367C 11.6302 18.1367 11.0309 17.9316 10.5615 17.5215C 10.0967 17.1068 9.86426 16.5827 9.86426 15.9492C 9.86426 15.179 10.1559 14.582 10.7393 14.1582C 11.3271 13.7298 12.152 13.5156 13.2139 13.5156L 14.4443 13.5156L 14.4443 12.9346C 14.4443 12.4925 14.3122 12.1416 14.0479 11.8818C 13.7835 11.6175 13.3939 11.4854 12.8789 11.4854C 12.4277 11.4854 12.0495 11.5993 11.7441 11.8271C 11.4388 12.055 11.2861 12.3307 11.2861 12.6543L 10.0146 12.6543C 10.0146 12.2852 10.1445 11.9297 10.4043 11.5879C 10.6686 11.2415 11.0241 10.9681 11.4707 10.7676C 11.9219 10.5671 12.4163 10.4668 12.9541 10.4668C 13.8063 10.4668 14.474 10.681 14.957 11.1094C 15.4401 11.5332 15.6908 12.1188 15.709 12.8662L 15.709 16.2705C 15.709 16.9495 15.7956 17.4896 15.9688 17.8906L 15.9688 18L 14.6426 18ZM 12.5439 17.0361C 12.9404 17.0361 13.3164 16.9336 13.6719 16.7285C 14.0273 16.5234 14.2848 16.2568 14.4443 15.9287L 14.4443 14.4111L 13.4531 14.4111C 11.9036 14.4111 11.1289 14.8646 11.1289 15.7715C 11.1289 16.168 11.2611 16.4779 11.5254 16.7012C 11.7897 16.9245 12.1292 17.0361 12.5439 17.0361ZM 19.4072 8.8125L 19.4072 10.6035L 20.7881 10.6035L 20.7881 11.5811L 19.4072 11.5811L 19.4072 16.168C 19.4072 16.4642 19.4688 16.6875 19.5918 16.8379C 19.7148 16.9837 19.9245 17.0566 20.2207 17.0566C 20.3665 17.0566 20.5671 17.0293 20.8223 16.9746L 20.8223 18C 20.4896 18.0911 20.166 18.1367 19.8516 18.1367C 19.2865 18.1367 18.8604 17.9658 18.5732 17.624C 18.2861 17.2822 18.1426 16.7969 18.1426 16.168L 18.1426 11.5811L 16.7959 11.5811L 16.7959 10.6035L 18.1426 10.6035L 18.1426 8.8125L 19.4072 8.8125ZM 26.8379 18C 26.765 17.8542 26.7057 17.5944 26.6602 17.2207C 26.0723 17.8314 25.3704 18.1367 24.5547 18.1367C 23.8255 18.1367 23.2262 17.9316 22.7568 17.5215C 22.292 17.1068 22.0596 16.5827 22.0596 15.9492C 22.0596 15.179 22.3512 14.582 22.9346 14.1582C 23.5225 13.7298 24.3473 13.5156 25.4092 13.5156L 26.6396 13.5156L 26.6396 12.9346C 26.6396 12.4925 26.5075 12.1416 26.2432 11.8818C 25.9788 11.6175 25.5892 11.4854 25.0742 11.4854C 24.623 11.4854 24.2448 11.5993 23.9395 11.8271C 23.6341 12.055 23.4814 12.3307 23.4814 12.6543L 22.21 12.6543C 22.21 12.2852 22.3398 11.9297 22.5996 11.5879C 22.8639 11.2415 23.2194 10.9681 23.666 10.7676C 24.1172 10.5671 24.6117 10.4668 25.1494 10.4668C 26.0016 10.4668 26.6693 10.681 27.1523 11.1094C 27.6354 11.5332 27.8861 12.1188 27.9043 12.8662L 27.9043 16.2705C 27.9043 16.9495 27.9909 17.4896 28.1641 17.8906L 28.1641 18L 26.8379 18ZM 24.7393 17.0361C 25.1357 17.0361 25.5117 16.9336 25.8672 16.7285C 26.2227 16.5234 26.4801 16.2568 26.6396 15.9287L 26.6396 14.4111L 25.6484 14.4111C 24.099 14.4111 23.3242 14.8646 23.3242 15.7715C 23.3242 16.168 23.4564 16.4779 23.7207 16.7012C 23.985 16.9245 24.3245 17.0361 24.7393 17.0361ZM 31.0762 10.6035L 31.1104 11.4238C 31.6527 10.7858 32.3841 10.4668 33.3047 10.4668C 34.3392 10.4668 35.0433 10.8633 35.417 11.6562C 35.6631 11.3008 35.9821 11.0137 36.374 10.7949C 36.7705 10.5762 37.2376 10.4668 37.7754 10.4668C 39.3978 10.4668 40.2227 11.3258 40.25 13.0439L 40.25 18L 38.9854 18L 38.9854 13.1191C 38.9854 12.5905 38.8646 12.1963 38.623 11.9365C 38.3815 11.6722 37.9759 11.54 37.4062 11.54C 36.9368 11.54 36.5472 11.6813 36.2373 11.9639C 35.9274 12.2419 35.7474 12.6178 35.6973 13.0918L 35.6973 18L 34.4258 18L 34.4258 13.1533C 34.4258 12.0778 33.8994 11.54 32.8467 11.54C 32.0173 11.54 31.4499 11.8932 31.1445 12.5996L 31.1445 18L 29.8799 18L 29.8799 10.6035L 31.0762 10.6035ZM 46.7305 18C 46.6576 17.8542 46.5983 17.5944 46.5527 17.2207C 45.9648 17.8314 45.263 18.1367 44.4473 18.1367C 43.7181 18.1367 43.1188 17.9316 42.6494 17.5215C 42.1846 17.1068 41.9521 16.5827 41.9521 15.9492C 41.9521 15.179 42.2438 14.582 42.8271 14.1582C 43.415 13.7298 44.2399 13.5156 45.3018 13.5156L 46.5322 13.5156L 46.5322 12.9346C 46.5322 12.4925 46.4001 12.1416 46.1357 11.8818C 45.8714 11.6175 45.4818 11.4854 44.9668 11.4854C 44.5156 11.4854 44.1374 11.5993 43.832 11.8271C 43.5267 12.055 43.374 12.3307 43.374 12.6543L 42.1025 12.6543C 42.1025 12.2852 42.2324 11.9297 42.4922 11.5879C 42.7565 11.2415 43.112 10.9681 43.5586 10.7676C 44.0098 10.5671 44.5042 10.4668 45.042 10.4668C 45.8942 10.4668 46.5618 10.681 47.0449 11.1094C 47.528 11.5332 47.7786 12.1188 47.7969 12.8662L 47.7969 16.2705C 47.7969 16.9495 47.8835 17.4896 48.0566 17.8906L 48.0566 18L 46.7305 18ZM 44.6318 17.0361C 45.0283 17.0361 45.4043 16.9336 45.7598 16.7285C 46.1152 16.5234 46.3727 16.2568 46.5322 15.9287L 46.5322 14.4111L 45.541 14.4111C 43.9915 14.4111 43.2168 14.8646 43.2168 15.7715C 43.2168 16.168 43.349 16.4779 43.6133 16.7012C 43.8776 16.9245 44.2171 17.0361 44.6318 17.0361ZM 53.3545 11.7383C 53.1631 11.7064 52.9557 11.6904 52.7324 11.6904C 51.903 11.6904 51.3402 12.0436 51.0439 12.75L 51.0439 18L 49.7793 18L 49.7793 10.6035L 51.0098 10.6035L 51.0303 11.458C 51.445 10.7972 52.0329 10.4668 52.7939 10.4668C 53.04 10.4668 53.2269 10.4987 53.3545 10.5625L 53.3545 11.7383ZM 58.8164 18C 58.7435 17.8542 58.6842 17.5944 58.6387 17.2207C 58.0508 17.8314 57.349 18.1367 56.5332 18.1367C 55.804 18.1367 55.2048 17.9316 54.7354 17.5215C 54.2705 17.1068 54.0381 16.5827 54.0381 15.9492C 54.0381 15.179 54.3298 14.582 54.9131 14.1582C 55.501 13.7298 56.3258 13.5156 57.3877 13.5156L 58.6182 13.5156L 58.6182 12.9346C 58.6182 12.4925 58.486 12.1416 58.2217 11.8818C 57.9574 11.6175 57.5677 11.4854 57.0527 11.4854C 56.6016 11.4854 56.2233 11.5993 55.918 11.8271C 55.6126 12.055 55.46 12.3307 55.46 12.6543L 54.1885 12.6543C 54.1885 12.2852 54.3184 11.9297 54.5781 11.5879C 54.8424 11.2415 55.1979 10.9681 55.6445 10.7676C 56.0957 10.5671 56.5902 10.4668 57.1279 10.4668C 57.9801 10.4668 58.6478 10.681 59.1309 11.1094C 59.6139 11.5332 59.8646 12.1188 59.8828 12.8662L 59.8828 16.2705C 59.8828 16.9495 59.9694 17.4896 60.1426 17.8906L 60.1426 18L 58.8164 18ZM 56.7178 17.0361C 57.1143 17.0361 57.4902 16.9336 57.8457 16.7285C 58.2012 16.5234 58.4587 16.2568 58.6182 15.9287L 58.6182 14.4111L 57.627 14.4111C 56.0775 14.4111 55.3027 14.8646 55.3027 15.7715C 55.3027 16.168 55.4349 16.4779 55.6992 16.7012C 55.9635 16.9245 56.3031 17.0361 56.7178 17.0361ZM 63.0615 10.6035L 63.1025 11.5332C 63.6676 10.8223 64.4059 10.4668 65.3174 10.4668C 66.8805 10.4668 67.6689 11.3486 67.6826 13.1123L 67.6826 18L 66.418 18L 66.418 13.1055C 66.4134 12.5723 66.2904 12.1781 66.0488 11.9229C 65.8118 11.6676 65.4404 11.54 64.9346 11.54C 64.5244 11.54 64.1644 11.6494 63.8545 11.8682C 63.5446 12.0869 63.3031 12.374 63.1299 12.7295L 63.1299 18L 61.8652 18L 61.8652 10.6035L 63.0615 10.6035Z"/>
<path id="path5_fill" d="M 2.85059 8.04688L 6.10449 16.168L 9.3584 8.04688L 11.0605 8.04688L 11.0605 18L 9.74805 18L 9.74805 14.124L 9.87109 9.94043L 6.60352 18L 5.59863 18L 2.33789 9.96094L 2.46777 14.124L 2.46777 18L 1.15527 18L 1.15527 8.04688L 2.85059 8.04688ZM 16.249 18.1367C 15.2464 18.1367 14.4307 17.8086 13.8018 17.1523C 13.1729 16.4915 12.8584 15.6097 12.8584 14.5068L 12.8584 14.2744C 12.8584 13.5407 12.9974 12.8867 13.2754 12.3125C 13.5579 11.7337 13.9499 11.2826 14.4512 10.959C 14.957 10.6309 15.5039 10.4668 16.0918 10.4668C 17.0534 10.4668 17.8008 10.7835 18.334 11.417C 18.8672 12.0505 19.1338 12.9574 19.1338 14.1377L 19.1338 14.6641L 14.123 14.6641C 14.1413 15.3932 14.3532 15.9834 14.7588 16.4346C 15.1689 16.8812 15.6885 17.1045 16.3174 17.1045C 16.764 17.1045 17.1423 17.0133 17.4521 16.8311C 17.762 16.6488 18.0332 16.4072 18.2656 16.1064L 19.0381 16.708C 18.4183 17.6605 17.4886 18.1367 16.249 18.1367ZM 16.0918 11.5059C 15.5814 11.5059 15.153 11.6927 14.8066 12.0664C 14.4603 12.4355 14.2461 12.9551 14.1641 13.625L 17.8691 13.625L 17.8691 13.5293C 17.8327 12.8867 17.6595 12.39 17.3496 12.0391C 17.0397 11.6836 16.6204 11.5059 16.0918 11.5059ZM 20.3027 14.2402C 20.3027 13.0872 20.5693 12.1712 21.1025 11.4922C 21.6357 10.8086 22.3421 10.4668 23.2217 10.4668C 24.124 10.4668 24.8281 10.7858 25.334 11.4238L 25.3955 10.6035L 26.5508 10.6035L 26.5508 17.8223C 26.5508 18.7793 26.266 19.5335 25.6963 20.085C 25.1312 20.6364 24.3701 20.9121 23.4131 20.9121C 22.8799 20.9121 22.3581 20.7982 21.8477 20.5703C 21.3372 20.3424 20.9476 20.0303 20.6787 19.6338L 21.335 18.875C 21.8773 19.5449 22.5404 19.8799 23.3242 19.8799C 23.9395 19.8799 24.418 19.7067 24.7598 19.3604C 25.1061 19.014 25.2793 18.5264 25.2793 17.8975L 25.2793 17.2617C 24.7734 17.8451 24.083 18.1367 23.208 18.1367C 22.3421 18.1367 21.6403 17.7881 21.1025 17.0908C 20.5693 16.3936 20.3027 15.4434 20.3027 14.2402ZM 21.5742 14.3838C 21.5742 15.2178 21.7451 15.874 22.0869 16.3525C 22.4287 16.8265 22.9072 17.0635 23.5225 17.0635C 24.32 17.0635 24.9056 16.7012 25.2793 15.9766L 25.2793 12.5996C 24.8919 11.8932 24.3109 11.54 23.5361 11.54C 22.9209 11.54 22.4401 11.7793 22.0938 12.2578C 21.7474 12.7363 21.5742 13.445 21.5742 14.3838ZM 33.0312 18C 32.9583 17.8542 32.8991 17.5944 32.8535 17.2207C 32.2656 17.8314 31.5638 18.1367 30.748 18.1367C 30.0189 18.1367 29.4196 17.9316 28.9502 17.5215C 28.4854 17.1068 28.2529 16.5827 28.2529 15.9492C 28.2529 15.179 28.5446 14.582 29.1279 14.1582C 29.7158 13.7298 30.5407 13.5156 31.6025 13.5156L 32.833 13.5156L 32.833 12.9346C 32.833 12.4925 32.7008 12.1416 32.4365 11.8818C 32.1722 11.6175 31.7826 11.4854 31.2676 11.4854C 30.8164 11.4854 30.4382 11.5993 30.1328 11.8271C 29.8275 12.055 29.6748 12.3307 29.6748 12.6543L 28.4033 12.6543C 28.4033 12.2852 28.5332 11.9297 28.793 11.5879C 29.0573 11.2415 29.4128 10.9681 29.8594 10.7676C 30.3105 10.5671 30.805 10.4668 31.3428 10.4668C 32.195 10.4668 32.8626 10.681 33.3457 11.1094C 33.8288 11.5332 34.0794 12.1188 34.0977 12.8662L 34.0977 16.2705C 34.0977 16.9495 34.1842 17.4896 34.3574 17.8906L 34.3574 18L 33.0312 18ZM 30.9326 17.0361C 31.3291 17.0361 31.7051 16.9336 32.0605 16.7285C 32.416 16.5234 32.6735 16.2568 32.833 15.9287L 32.833 14.4111L 31.8418 14.4111C 30.2923 14.4111 29.5176 14.8646 29.5176 15.7715C 29.5176 16.168 29.6497 16.4779 29.9141 16.7012C 30.1784 16.9245 30.5179 17.0361 30.9326 17.0361Z"/>
<path id="path6_fill" fill-rule="evenodd" d="M 0 0L 1 0L 1 66L 0 66L 0 0Z"/>
<path id="path7_stroke" d="M 25.8215 5.26642L 25.8273 4.76646L 25.311 4.76047L 25.3216 5.27668L 25.8215 5.26642ZM 25.8773 7.99042L 25.8773 8.49042L 26.3877 8.49042L 26.3772 7.98016L 25.8773 7.99042ZM 0 0L 0 -0.5L -0.5 -0.5L -0.5 0L 0 0ZM 30 0L 30.5 0L 30.5 -0.5L 30 -0.5L 30 0ZM 30 5.31488L 29.9942 5.81485L 30.5 5.82071L 30.5 5.31488L 30 5.31488ZM 25.3216 5.27668L 25.3774 8.00067L 26.3772 7.98016L 26.3214 5.25617L 25.3216 5.27668ZM 25.8773 7.49042L 15.8641 7.49042L 15.8641 8.49042L 25.8773 8.49042L 25.8773 7.49042ZM 15.8641 7.49042C 11.4295 7.49042 7.57425 7.63706 4.79943 6.74587C 3.42222 6.30766 2.39455 5.66916 1.65697 4.59276C 0.930307 3.54959 0.5 2.08504 0.5 0L -0.5 0C -0.5 2.21724 -0.0424639 3.90264 0.836427 5.16435C 1.70441 6.39283 3.00001 7.21415 4.49364 7.69797C 7.46052 8.65085 11.5373 8.49042 15.8641 8.49042L 15.8641 7.49042ZM 0 0.5L 30 0.5L 30 -0.5L 0 -0.5L 0 0.5ZM 29.5 0L 29.5 5.31488L 30.5 5.31488L 30.5 0L 29.5 0ZM 30.0058 4.81491L 25.8273 4.76646L 25.8157 5.76639L 29.9942 5.81485L 30.0058 4.81491Z"/>
<path id="path8_stroke" d="M 12.8859 4L 12.8859 4.5L 13.3859 4.5L 13.3859 4L 12.8859 4ZM 0 4L -0.341125 3.63444L -1.26868 4.5L 0 4.5L 0 4ZM 4.28651 0L 4.28651 -0.5L 4.08946 -0.5L 3.94538 -0.365559L 4.28651 0ZM 14 0L 14.4265 0.260883L 14.8919 -0.5L 14 -0.5L 14 0ZM 12.8859 1.82151L 12.4594 1.56063L 12.3859 1.68073L 12.3859 1.82151L 12.8859 1.82151ZM 12.8859 3.5L 0 3.5L 0 4.5L 12.8859 4.5L 12.8859 3.5ZM 0.341125 4.36556L 4.62764 0.365559L 3.94538 -0.365559L -0.341125 3.63444L 0.341125 4.36556ZM 4.28651 0.5L 14 0.5L 14 -0.5L 4.28651 -0.5L 4.28651 0.5ZM 13.5735 -0.260883L 12.4594 1.56063L 13.3125 2.08239L 14.4265 0.260883L 13.5735 -0.260883ZM 12.3859 1.82151L 12.3859 4L 13.3859 4L 13.3859 1.82151L 12.3859 1.82151Z"/>
<path id="path9_stroke" d="M 7 3L 7 3.5L 7.5 3.5L 7.5 3L 7 3ZM 0 3L -0.5 3L -0.5 3.5L 0 3.5L 0 3ZM 0 0L 0.117201 -0.48607L -0.5 -0.63489L -0.5 0L 0 0ZM 7 1.68784L 7.5 1.68784L 7.5 1.29408L 7.1172 1.20177L 7 1.68784ZM 7 2.5L 0 2.5L 0 3.5L 7 3.5L 7 2.5ZM 0.5 3L 0.5 0L -0.5 0L -0.5 3L 0.5 3ZM -0.117201 0.48607L 6.8828 2.17391L 7.1172 1.20177L 0.117201 -0.48607L -0.117201 0.48607ZM 6.5 1.68784L 6.5 3L 7.5 3L 7.5 1.68784L 6.5 1.68784Z"/>
<path id="path10_stroke" d="M 24.4884 5L 24.4884 5.5L 24.7341 5.5L 24.8842 5.30547L 24.4884 5ZM 0 5L -0.447781 4.77753L -0.806719 5.5L 0 5.5L 0 5ZM 2.48411 0L 2.48418 -0.5L 2.17424 -0.500045L 2.03633 -0.222468L 2.48411 0ZM 27.8264 0.00368505L 28.2053 -0.322616L 28.0557 -0.496282L 27.8265 -0.496315L 27.8264 0.00368505ZM 30 2.52733L 30.0034 3.02732L 31.0842 3.01999L 30.3789 2.20103L 30 2.52733ZM 26.3775 2.5519L 26.3742 2.05191L 26.1305 2.05356L 25.9817 2.24643L 26.3775 2.5519ZM 24.4884 4.5L 0 4.5L 0 5.5L 24.4884 5.5L 24.4884 4.5ZM 0.447781 5.22247L 2.93189 0.222468L 2.03633 -0.222468L -0.447781 4.77753L 0.447781 5.22247ZM 2.48404 0.5L 27.8263 0.503685L 27.8265 -0.496315L 2.48418 -0.5L 2.48404 0.5ZM 27.4476 0.329986L 29.6211 2.85363L 30.3789 2.20103L 28.2053 -0.322616L 27.4476 0.329986ZM 29.9966 2.02734L 26.3742 2.05191L 26.3809 3.05189L 30.0034 3.02732L 29.9966 2.02734ZM 25.9817 2.24643L 24.0925 4.69453L 24.8842 5.30547L 26.7734 2.85736L 25.9817 2.24643Z"/>
<path id="path11_stroke" d="M 18 4L 18 4.5L 19.1471 4.5L 18.3663 3.65965L 18 4ZM 0 4L -0.453449 3.78933L -0.783632 4.5L 0 4.5L 0 4ZM 1.85842 0L 1.85842 -0.5L 1.53939 -0.5L 1.40497 -0.210674L 1.85842 0ZM 14.2832 0L 14.6494 -0.340351L 14.5011 -0.5L 14.2832 -0.5L 14.2832 0ZM 18 3.5L 0 3.5L 0 4.5L 18 4.5L 18 3.5ZM 0.453449 4.21067L 2.31187 0.210674L 1.40497 -0.210674L -0.453449 3.78933L 0.453449 4.21067ZM 1.85842 0.5L 14.2832 0.5L 14.2832 -0.5L 1.85842 -0.5L 1.85842 0.5ZM 13.9169 0.340351L 17.6337 4.34035L 18.3663 3.65965L 14.6494 -0.340351L 13.9169 0.340351Z"/>
<path id="path12_stroke" d="M 35.5761 7L 35.5761 7.5L 35.8516 7.5L 35.9988 7.26712L 35.5761 7ZM 0 7L -0.437397 6.75775L -0.848483 7.5L 0 7.5L 0 7ZM 2.52793 2.43563L 2.52793 1.93563L 2.23328 1.93563L 2.09053 2.19338L 2.52793 2.43563ZM 29.9742 2.43563L 29.9742 2.93563L 30.2105 2.93563L 30.3605 2.75307L 29.9742 2.43563ZM 31.9757 0L 31.9757 -0.5L 31.7394 -0.5L 31.5894 -0.317445L 31.9757 0ZM 40 0L 40.4227 0.267118L 40.9075 -0.5L 40 -0.5L 40 0ZM 35.5761 6.5L 0 6.5L 0 7.5L 35.5761 7.5L 35.5761 6.5ZM 0.437397 7.24225L 2.96532 2.67788L 2.09053 2.19338L -0.437397 6.75775L 0.437397 7.24225ZM 2.52793 2.93563L 29.9742 2.93563L 29.9742 1.93563L 2.52793 1.93563L 2.52793 2.93563ZM 30.3605 2.75307L 32.362 0.317445L 31.5894 -0.317445L 29.5879 2.11819L 30.3605 2.75307ZM 31.9757 0.5L 40 0.5L 40 -0.5L 31.9757 -0.5L 31.9757 0.5ZM 39.5773 -0.267118L 35.1535 6.73288L 35.9988 7.26712L 40.4227 0.267118L 39.5773 -0.267118Z"/>
<path id="path13_fill" fill-rule="evenodd" d="M 0 0L 5 0L 0 0Z"/>
<path id="path14_stroke" d="M 5 -0.5L 0 -0.5L 0 0.5L 5 0.5L 5 -0.5Z"/>
<path id="path15_stroke" d="M 0.520494 0.992856L 0.498856 0.493325L 0.498728 0.49333L 0.520494 0.992856ZM 23.4283 0.000576085L 23.4499 0.500108L 23.4502 0.500095L 23.4283 0.000576085ZM 23.9367 0.773171L 24.3763 1.01152L 24.3763 1.01138L 23.9367 0.773171ZM 21.9668 4.4059L 22.4063 4.64428L 22.4064 4.64424L 21.9668 4.4059ZM 20.9499 4.5L 0.546738 4.5L 0.546738 5.5L 20.9499 5.5L 20.9499 4.5ZM 0.546738 4.5C 0.528314 4.5 0.515386 4.49319 0.507561 4.48564C 0.500034 4.47837 0.5 4.47378 0.5 4.47191L -0.5 4.47191C -0.5 5.05577 -0.0147069 5.5 0.546738 5.5L 0.546738 4.5ZM 0.5 4.47191L 0.5 1.51831L -0.5 1.51831L -0.5 4.47191L 0.5 4.47191ZM 0.5 1.51831C 0.5 1.51744 0.499723 1.51359 0.506401 1.50685C 0.513341 1.49984 0.525105 1.49313 0.542261 1.49238L 0.498728 0.49333C -0.0437224 0.516967 -0.5 0.954111 -0.5 1.51831L 0.5 1.51831ZM 0.542132 1.49239L 23.4499 0.500108L 23.4066 -0.498955L 0.498856 0.493325L 0.542132 1.49239ZM 23.4502 0.500095C 23.4664 0.499384 23.4755 0.502797 23.4807 0.505553C 23.4871 0.508927 23.4925 0.513929 23.4961 0.519437C 23.4979 0.52207 23.4989 0.524333 23.4994 0.525932C 23.5 0.527479 23.5 0.528253 23.5 0.528265C 23.5 0.528285 23.5 0.528229 23.5 0.528137C 23.5 0.528037 23.5 0.528057 23.5 0.528251C 23.4999 0.528381 23.4995 0.530566 23.4971 0.534959L 24.3763 1.01138C 24.7721 0.281042 24.184 -0.533087 23.4063 -0.498943L 23.4502 0.500095ZM 23.4972 0.534827L 21.5273 4.16755L 22.4064 4.64424L 24.3763 1.01152L 23.4972 0.534827ZM 21.5273 4.16752C 21.4198 4.36573 21.1998 4.5 20.9499 4.5L 20.9499 5.5C 21.554 5.5 22.118 5.17588 22.4063 4.64428L 21.5273 4.16752Z"/>
<path id="path16_stroke" d="M 4.42461 0.000482406L 4.40584 -0.499166L 4.40505 -0.499135L 4.42461 0.000482406ZM 4.93638 0.685398L 4.51057 0.423325L 4.51049 0.423451L 4.93638 0.685398ZM 0.0195595 0.673318L 4.44416 0.5001L 4.40505 -0.499135L -0.0195595 -0.325916L 0.0195595 0.673318ZM 4.44337 0.50013C 4.5007 0.497977 4.5171 0.52225 4.51269 0.51635C 4.51024 0.513069 4.50192 0.499787 4.50027 0.476235C 4.49843 0.450029 4.50631 0.43025 4.51057 0.423325L 5.3622 0.947471C 5.57844 0.596126 5.52375 0.198809 5.31376 -0.0822215C 5.11022 -0.354621 4.77234 -0.51293 4.40584 -0.499165L 4.44337 0.50013ZM 4.51049 0.423451L 4.317 0.738054L 5.16878 1.26195L 5.36228 0.947344L 4.51049 0.423451Z"/>
<path id="path17_stroke" d="M 0.553074 0.25284L 0.572221 0.752473L 0.572668 0.752455L 0.553074 0.25284ZM 1.10962 3.5L 0.579135 3.5L 0.579135 4.5L 1.10962 4.5L 1.10962 3.5ZM 0.579135 3.5C 0.533395 3.5 0.504849 3.48401 0.494106 3.47485C 0.489187 3.47065 0.490476 3.47014 0.493408 3.47605C 0.496721 3.48273 0.5 3.49356 0.5 3.50617L -0.5 3.50617C -0.5 4.12667 0.0609995 4.5 0.579135 4.5L 0.579135 3.5ZM 0.5 3.50617L 0.5 0.746173L -0.5 0.746173L -0.5 3.50617L 0.5 3.50617ZM 0.5 0.746173C 0.5 0.758325 0.496952 0.768865 0.493721 0.775599C 0.490815 0.781654 0.489265 0.781687 0.493341 0.778053C 0.502279 0.770082 0.528192 0.75416 0.572221 0.752473L 0.533926 -0.246794C 0.029463 -0.227461 -0.5 0.145536 -0.5 0.746173L 0.5 0.746173ZM 0.572668 0.752455L 7.01959 0.499616L 6.98041 -0.499616L 0.533479 -0.246776L 0.572668 0.752455Z"/>
<path id="path18_stroke" d="M 14 2.39847L 14.0215 2.89801L 15.5009 2.83445L 14.2857 1.98817L 14 2.39847ZM 0 3L -0.379896 2.67492L -1.12779 3.54892L 0.0214632 3.49954L 0 3ZM 2.19146 0.439036L 1.81163 0.113882L 1.81157 0.113952L 2.19146 0.439036ZM 2.72649 0.190558L 2.7138 -0.309281L 2.7134 -0.309271L 2.72649 0.190558ZM 10.219 0.000340404L 10.2317 0.500179L 10.232 0.500172L 10.219 0.000340404ZM 10.8054 0.173628L 10.5192 0.583623L 10.5196 0.58393L 10.8054 0.173628ZM 13.9785 1.89894L -0.0214632 2.50046L 0.0214632 3.49954L 14.0215 2.89801L 13.9785 1.89894ZM 0.379896 3.32508L 2.57136 0.764119L 1.81157 0.113952L -0.379896 2.67492L 0.379896 3.32508ZM 2.5713 0.76419C 2.60482 0.725025 2.66483 0.692344 2.73957 0.690387L 2.7134 -0.309271C 2.36975 -0.300273 2.03812 -0.150704 1.81163 0.113882L 2.5713 0.76419ZM 2.73918 0.690397L 10.2317 0.500179L 10.2063 -0.499499L 2.7138 -0.309281L 2.73918 0.690397ZM 10.232 0.500172C 10.3649 0.49064 10.4198 0.506325 10.5192 0.583623L 11.0916 -0.236368C 10.8528 -0.395099 10.4946 -0.500914 10.206 -0.499491L 10.232 0.500172ZM 10.5196 0.58393L 13.7143 2.80878L 14.2857 1.98817L 11.0911 -0.236675L 10.5196 0.58393Z"/>
<path id="path19_stroke" d="M -0.0828659 -0.0115802L -0.499866 17.9884L 0.499866 18.0116L 0.916866 0.0115802L -0.0828659 -0.0115802Z"/>
<path id="path20_stroke" d="M 15.942 15.1349L 15.4896 15.3478L 15.4932 15.3554L 15.497 15.3629L 15.942 15.1349ZM 9.01008 0.404604L 8.55562 0.613148L 8.55767 0.617503L 9.01008 0.404604ZM 7.69813 0.265628L 7.31635 -0.057236L 7.2793 -0.0134351L 7.25315 0.0376166L 7.69813 0.265628ZM 0.133389 15.0288L 0.515225 15.3516L 0.552233 15.3079L 0.578373 15.2569L 0.133389 15.0288ZM 0.818574 16.5L 15.1753 16.5L 15.1753 15.5L 0.818574 15.5L 0.818574 16.5ZM 15.1753 16.5C 15.5901 16.5 15.9781 16.3394 16.2303 16.0548C 16.4922 15.7594 16.6006 15.3238 16.387 14.9069L 15.497 15.3629C 15.5025 15.3736 15.499 15.3714 15.5002 15.3641C 15.5009 15.3601 15.5005 15.3707 15.482 15.3915C 15.4428 15.4357 15.3411 15.5 15.1753 15.5L 15.1753 16.5ZM 16.3944 14.922L 9.46249 0.191705L 8.55767 0.617503L 15.4896 15.3478L 16.3944 14.922ZM 9.46452 0.196069C 9.2653 -0.238054 8.84212 -0.451291 8.45597 -0.492172C 8.06831 -0.533213 7.61753 -0.413387 7.31635 -0.057236L 8.07991 0.588493C 8.12565 0.534415 8.22302 0.488754 8.35069 0.502271C 8.47987 0.515947 8.5392 0.577313 8.55564 0.613139L 9.46452 0.196069ZM 7.25315 0.0376166L -0.311595 14.8008L 0.578373 15.2569L 8.14311 0.49364L 7.25315 0.0376166ZM -0.248447 14.706C -0.581118 15.0996 -0.565703 15.5945 -0.308254 15.9594C -0.0664867 16.3021 0.357109 16.5 0.818574 16.5L 0.818574 15.5C 0.631638 15.5 0.535935 15.4213 0.508858 15.3829C 0.496434 15.3653 0.50024 15.3612 0.49999 15.3704C 0.49966 15.3827 0.493902 15.3769 0.515225 15.3516L -0.248447 14.706Z"/>
<path id="path21_fill" fill-rule="evenodd" d="M 0 18L 1.04452 18L 1.04452 0L 0 0L 0 18Z"/>
<path id="path22_fill" fill-rule="evenodd" d="M 8.40158 0.403463C 8.63115 -0.117312 9.04906 -0.135892 9.33341 0.359076L 17.9313 17.0595C 18.2162 17.556 17.983 17.958 17.4038 17.958L 0.708193 17.958C 0.131671 17.958 -0.149546 17.5369 0.0800192 17.0156L 8.40158 0.403463Z"/>
<path id="path23_stroke_2x" d="M 8.40158 0.403463L 9.29568 0.851344L 9.3067 0.829343L 9.31662 0.806826L 8.40158 0.403463ZM 9.33341 0.359076L 10.2225 -0.0986573L 10.212 -0.119109L 10.2005 -0.139055L 9.33341 0.359076ZM 17.9313 17.0595L 17.0422 17.5172L 17.0526 17.5374L 17.0639 17.5571L 17.9313 17.0595ZM 0.0800192 17.0156L -0.814074 16.5677L -0.825177 16.5899L -0.835168 16.6126L 0.0800192 17.0156ZM 9.31662 0.806826C 9.36432 0.698622 9.278 0.981344 8.89355 0.999279C 8.51482 1.01695 8.40497 0.750431 8.46631 0.857206L 10.2005 -0.139055C 9.9775 -0.527248 9.51652 -1.03196 8.80035 -0.998548C 8.07847 -0.96487 7.66841 -0.412471 7.48654 9.91469e-05L 9.31662 0.806826ZM 8.44432 0.816808L 17.0422 17.5172L 18.8204 16.6017L 10.2225 -0.0986573L 8.44432 0.816808ZM 17.0639 17.5571C 17.1015 17.6226 16.9787 17.446 17.1284 17.1901C 17.2768 16.9363 17.4868 16.958 17.4038 16.958L 17.4038 18.958C 17.9 18.958 18.5162 18.7787 18.8548 18.1998C 19.1946 17.6188 19.046 16.9929 18.7987 16.5618L 17.0639 17.5571ZM 17.4038 16.958L 0.708193 16.958L 0.708193 18.958L 17.4038 18.958L 17.4038 16.958ZM 0.708193 16.958C 0.656265 16.958 0.803518 16.9471 0.923785 17.1275C 1.04688 17.312 0.979792 17.4536 0.995206 17.4186L -0.835168 16.6126C -1.04932 17.0989 -1.09058 17.7117 -0.740138 18.2371C -0.392524 18.7584 0.183599 18.958 0.708193 18.958L 0.708193 16.958ZM 0.974112 17.4635L 9.29568 0.851344L 7.50749 -0.0444182L -0.814074 16.5677L 0.974112 17.4635Z"/>
<path id="path24_fill" fill-rule="evenodd" d="M 1.59536 1.46227C 1.91163 1.06918 2.26285 0.462126 3.14521 0.441046L 21.3867 0.000345822C 22.2591 -0.0207298 22.738 1.00748 22.1606 1.66175L 20.2986 3.77163C 19.9188 4.19898 19.1388 4.54582 18.5696 4.54582L 0.7626 4.54582C 0.187644 4.54582 -0.131139 4.10918 0.0514697 3.56879L 1.59536 1.46227Z"/>
<path id="path25_stroke_2x" d="M 1.59536 1.46227L 0.816229 0.835417L 0.802112 0.852964L 0.788798 0.871129L 1.59536 1.46227ZM 3.14521 0.441046L 3.16909 1.44076L 3.16936 1.44075L 3.14521 0.441046ZM 20.2986 3.77163L 21.0461 4.43595L 21.0484 4.43332L 20.2986 3.77163ZM 0.0514697 3.56879L -0.755097 2.97764L -0.846436 3.10227L -0.895901 3.24865L 0.0514697 3.56879ZM 22.1606 1.66175L 21.4108 1.00005L 22.1606 1.66175ZM 2.3745 2.08913C 2.60429 1.80352 2.66477 1.69477 2.80852 1.57165C 2.89442 1.49807 2.98707 1.44511 3.16909 1.44076L 3.12133 -0.558668C 1.67962 -0.524225 1.02784 0.572396 0.816229 0.835417L 2.3745 2.08913ZM 3.16936 1.44075L 21.4108 1.00005L 21.3625 -0.999362L 3.12106 -0.558662L 3.16936 1.44075ZM 21.4108 1.00005L 19.5488 3.10993L 21.0484 4.43332L 22.9104 2.32344L 21.4108 1.00005ZM 19.5512 3.10731C 19.363 3.31906 18.8559 3.54582 18.5696 3.54582L 18.5696 5.54582C 19.4216 5.54582 20.4746 5.07891 21.046 4.43595L 19.5512 3.10731ZM 18.5696 3.54582L 0.7626 3.54582L 0.7626 5.54582L 18.5696 5.54582L 18.5696 3.54582ZM 0.7626 3.54582C 0.730412 3.54582 0.836784 3.54152 0.931199 3.67111C 1.02727 3.80298 0.991757 3.90989 0.998841 3.88893L -0.895901 3.24865C -1.07143 3.76808 -1.03885 4.3635 -0.685303 4.84879C -0.33341 5.3318 0.219831 5.54582 0.7626 5.54582L 0.7626 3.54582ZM 0.858036 4.15993L 2.40193 2.05342L 0.788798 0.871129L -0.755097 2.97764L 0.858036 4.15993ZM 21.4108 1.00005L 22.9104 2.32344C 24.0652 1.01491 23.1073 -1.04151 21.3625 -0.999362L 21.4108 1.00005Z"/>
</defs>
</svg>
