<svg width="335" height="59" viewBox="0 0 335 59" version="1.1" xmlns="http://www.w3.org/2000/svg" xmlns:xlink="http://www.w3.org/1999/xlink">
<title>Component</title>
<desc>Created using Figma</desc>
<g id="Canvas" transform="translate(-3003 -11006)">
<g id="Component">
<g id="input field copy 11">
<use xlink:href="#path0_fill" transform="translate(3003 11006)" fill="#FFFFFF"/>
<mask id="mask0_outline_ins">
<use xlink:href="#path0_fill" fill="white" transform="translate(3003 11006)"/>
</mask>
<g mask="url(#mask0_outline_ins)">
<use xlink:href="#path1_stroke_2x" transform="translate(3003 11006)" fill="#E0E6ED"/>
</g>
</g>
<g id="30-42 ft">
<use xlink:href="#path2_fill" transform="translate(3019 11021)" fill="#34495E"/>
</g>
<g id="42-47 ft">
<use xlink:href="#path3_fill" transform="translate(3107 11021)" fill="#34495E"/>
</g>
<g id="47-56 ft">
<use xlink:href="#path4_fill" transform="translate(3194 11021)" fill="#34495E"/>
</g>
<g id="56ft +">
<use xlink:href="#path5_fill" transform="translate(3283 11021)" fill="#34495E"/>
</g>
<g id="Rectangle 18" opacity="0.5">
<use xlink:href="#path6_fill" transform="translate(3264 11007)" fill="#DDDDDD"/>
</g>
<g id="Rectangle 18 Copy 7" opacity="0.5">
<use xlink:href="#path7_fill" transform="translate(3177 11007)" fill="#DDDDDD"/>
</g>
<g id="Rectangle 18 Copy 8" opacity="0.5">
<use xlink:href="#path7_fill" transform="translate(3091 11007)" fill="#DDDDDD"/>
</g>
<g id="9&#226;&#128;&#147;12m" opacity="0.4">
<use xlink:href="#path8_fill" transform="translate(3029 11036)" fill="#34495E"/>
</g>
<g id="12&#226;&#128;&#147;14m" opacity="0.4">
<use xlink:href="#path9_fill" transform="translate(3113 11037)" fill="#34495E"/>
</g>
<g id="14&#226;&#128;&#147;17m" opacity="0.4">
<use xlink:href="#path10_fill" transform="translate(3201 11037)" fill="#34495E"/>
</g>
<g id="17m +" opacity="0.4">
<use xlink:href="#path11_fill" transform="translate(3286 11037)" fill="#34495E"/>
</g>
</g>
</g>
<defs>
<path id="path0_fill" fill-rule="evenodd" d="M 0 4C 0 1.79086 1.79086 0 4 0L 331 0C 333.209 0 335 1.79086 335 4L 335 55C 335 57.2091 333.209 59 331 59L 4 59C 1.79086 59 0 57.2091 0 55L 0 4Z"/>
<path id="path1_stroke_2x" d="M 4 1L 331 1L 331 -1L 4 -1L 4 1ZM 334 4L 334 55L 336 55L 336 4L 334 4ZM 331 58L 4 58L 4 60L 331 60L 331 58ZM 1 55L 1 4L -1 4L -1 55L 1 55ZM 4 -1C 1.23858 -1 -1 1.23858 -1 4L 1 4C 1 2.34315 2.34315 1 4 1L 4 -1ZM 331 1C 332.657 1 334 2.34315 334 4L 336 4C 336 1.23858 333.761 -1 331 -1L 331 1ZM 334 55C 334 56.6569 332.657 58 331 58L 331 60C 333.761 60 336 57.7614 336 55L 334 55ZM 4 58C 2.34315 58 1 56.6569 1 55L -1 55C -1 57.7614 1.23858 60 4 60L 4 58Z"/>
<path id="path2_fill" d="M 2.85645 8.00879L 3.87451 8.00879C 4.51416 7.99902 5.01709 7.83057 5.3833 7.50342C 5.74951 7.17627 5.93262 6.73438 5.93262 6.17773C 5.93262 4.92773 5.31006 4.30273 4.06494 4.30273C 3.479 4.30273 3.01025 4.47119 2.65869 4.80811C 2.31201 5.14014 2.13867 5.58203 2.13867 6.13379L 0.783691 6.13379C 0.783691 5.28906 1.09131 4.58838 1.70654 4.03174C 2.32666 3.47022 3.11279 3.18945 4.06494 3.18945C 5.0708 3.18945 5.85938 3.45557 6.43066 3.98779C 7.00195 4.52002 7.2876 5.25977 7.2876 6.20703C 7.2876 6.6709 7.13623 7.12012 6.8335 7.55469C 6.53564 7.98926 6.12793 8.31396 5.61035 8.52881C 6.19629 8.71436 6.64795 9.02197 6.96533 9.45166C 7.2876 9.88135 7.44873 10.4063 7.44873 11.0264C 7.44873 11.9834 7.13623 12.7427 6.51123 13.3042C 5.88623 13.8657 5.07324 14.1465 4.07227 14.1465C 3.07129 14.1465 2.25586 13.8755 1.62598 13.3335C 1.00098 12.7915 0.688477 12.0762 0.688477 11.1875L 2.05078 11.1875C 2.05078 11.749 2.23389 12.1982 2.6001 12.5352C 2.96631 12.8721 3.45703 13.0405 4.07227 13.0405C 4.72656 13.0405 5.22705 12.8696 5.57373 12.5278C 5.92041 12.186 6.09375 11.6953 6.09375 11.0557C 6.09375 10.4355 5.90332 9.95947 5.52246 9.62744C 5.1416 9.29541 4.59229 9.12451 3.87451 9.11475L 2.85645 9.11475L 2.85645 8.00879ZM 15.9961 9.45166C 15.9961 11.0386 15.7251 12.2178 15.1831 12.9893C 14.6411 13.7607 13.7939 14.1465 12.6416 14.1465C 11.5039 14.1465 10.6616 13.7705 10.1147 13.0186C 9.56787 12.2617 9.28467 11.1338 9.26514 9.63477L 9.26514 7.82568C 9.26514 6.2583 9.53613 5.09375 10.0781 4.33203C 10.6201 3.57031 11.4697 3.18945 12.627 3.18945C 13.7744 3.18945 14.6191 3.55811 15.1611 4.29541C 15.7031 5.02783 15.9814 6.16064 15.9961 7.69385L 15.9961 9.45166ZM 14.6411 7.59863C 14.6411 6.45117 14.48 5.61621 14.1577 5.09375C 13.8354 4.56641 13.3252 4.30273 12.627 4.30273C 11.9336 4.30273 11.4282 4.56396 11.1108 5.08643C 10.7935 5.60889 10.6299 6.41211 10.6201 7.49609L 10.6201 9.66406C 10.6201 10.8164 10.7861 11.6685 11.1182 12.2202C 11.4551 12.7671 11.9629 13.0405 12.6416 13.0405C 13.3105 13.0405 13.8062 12.7817 14.1284 12.2642C 14.4556 11.7466 14.6265 10.9312 14.6411 9.81787L 14.6411 7.59863ZM 20.6909 10.0229L 17.1167 10.0229L 17.1167 8.91699L 20.6909 8.91699L 20.6909 10.0229ZM 27.5977 10.4185L 29.0771 10.4185L 29.0771 11.5244L 27.5977 11.5244L 27.5977 14L 26.2354 14L 26.2354 11.5244L 21.3794 11.5244L 21.3794 10.7261L 26.1548 3.33594L 27.5977 3.33594L 27.5977 10.4185ZM 22.9175 10.4185L 26.2354 10.4185L 26.2354 5.18896L 26.0742 5.48193L 22.9175 10.4185ZM 37.2876 14L 30.3003 14L 30.3003 13.0259L 33.9917 8.92432C 34.5386 8.3042 34.9146 7.80127 35.1196 7.41553C 35.3296 7.0249 35.4346 6.62207 35.4346 6.20703C 35.4346 5.65039 35.2661 5.19385 34.9292 4.8374C 34.5923 4.48096 34.1431 4.30273 33.5815 4.30273C 32.9077 4.30273 32.3828 4.49561 32.0068 4.88135C 31.6357 5.26221 31.4502 5.79443 31.4502 6.47803L 30.0952 6.47803C 30.0952 5.49658 30.4102 4.70312 31.04 4.09766C 31.6748 3.49219 32.522 3.18945 33.5815 3.18945C 34.5728 3.18945 35.3564 3.45068 35.9326 3.97314C 36.5088 4.49072 36.7969 5.18164 36.7969 6.0459C 36.7969 7.0957 36.1279 8.3457 34.79 9.7959L 31.9336 12.894L 37.2876 12.894L 37.2876 14ZM 43.2495 14L 43.2495 7.12256L 41.9971 7.12256L 41.9971 6.0752L 43.2495 6.0752L 43.2495 5.26221C 43.2495 4.4126 43.4766 3.75586 43.9307 3.29199C 44.3848 2.82812 45.0269 2.59619 45.8569 2.59619C 46.1694 2.59619 46.4795 2.6377 46.7871 2.7207L 46.7139 3.81934C 46.4844 3.77539 46.2402 3.75342 45.9814 3.75342C 45.542 3.75342 45.2026 3.88281 44.9634 4.1416C 44.7241 4.39551 44.6045 4.76172 44.6045 5.24023L 44.6045 6.0752L 46.2964 6.0752L 46.2964 7.12256L 44.6045 7.12256L 44.6045 14L 43.2495 14ZM 49.6362 4.15625L 49.6362 6.0752L 51.1157 6.0752L 51.1157 7.12256L 49.6362 7.12256L 49.6362 12.0371C 49.6362 12.3545 49.7021 12.5938 49.834 12.7549C 49.9658 12.9111 50.1904 12.9893 50.5078 12.9893C 50.6641 12.9893 50.8789 12.96 51.1523 12.9014L 51.1523 14C 50.7959 14.0977 50.4492 14.1465 50.1123 14.1465C 49.5068 14.1465 49.0503 13.9634 48.7427 13.5972C 48.4351 13.231 48.2812 12.7109 48.2812 12.0371L 48.2812 7.12256L 46.8384 7.12256L 46.8384 6.0752L 48.2812 6.0752L 48.2812 4.15625L 49.6362 4.15625Z"/>
<path id="path3_fill" d="M 6.60645 10.4185L 8.08594 10.4185L 8.08594 11.5244L 6.60645 11.5244L 6.60645 14L 5.24414 14L 5.24414 11.5244L 0.388184 11.5244L 0.388184 10.7261L 5.16357 3.33594L 6.60645 3.33594L 6.60645 10.4185ZM 1.92627 10.4185L 5.24414 10.4185L 5.24414 5.18896L 5.08301 5.48193L 1.92627 10.4185ZM 16.2964 14L 9.30908 14L 9.30908 13.0259L 13.0005 8.92432C 13.5474 8.3042 13.9233 7.80127 14.1284 7.41553C 14.3384 7.0249 14.4434 6.62207 14.4434 6.20703C 14.4434 5.65039 14.2749 5.19385 13.938 4.8374C 13.6011 4.48096 13.1519 4.30273 12.5903 4.30273C 11.9165 4.30273 11.3916 4.49561 11.0156 4.88135C 10.6445 5.26221 10.459 5.79443 10.459 6.47803L 9.104 6.47803C 9.104 5.49658 9.41895 4.70312 10.0488 4.09766C 10.6836 3.49219 11.5308 3.18945 12.5903 3.18945C 13.5815 3.18945 14.3652 3.45068 14.9414 3.97314C 15.5176 4.49072 15.8057 5.18164 15.8057 6.0459C 15.8057 7.0957 15.1367 8.3457 13.7988 9.7959L 10.9424 12.894L 16.2964 12.894L 16.2964 14ZM 20.6909 10.0229L 17.1167 10.0229L 17.1167 8.91699L 20.6909 8.91699L 20.6909 10.0229ZM 27.5977 10.4185L 29.0771 10.4185L 29.0771 11.5244L 27.5977 11.5244L 27.5977 14L 26.2354 14L 26.2354 11.5244L 21.3794 11.5244L 21.3794 10.7261L 26.1548 3.33594L 27.5977 3.33594L 27.5977 10.4185ZM 22.9175 10.4185L 26.2354 10.4185L 26.2354 5.18896L 26.0742 5.48193L 22.9175 10.4185ZM 37.1851 4.09766L 32.7686 14L 31.3477 14L 35.7495 4.44922L 29.978 4.44922L 29.978 3.33594L 37.1851 3.33594L 37.1851 4.09766ZM 43.2495 14L 43.2495 7.12256L 41.9971 7.12256L 41.9971 6.0752L 43.2495 6.0752L 43.2495 5.26221C 43.2495 4.4126 43.4766 3.75586 43.9307 3.29199C 44.3848 2.82812 45.0269 2.59619 45.8569 2.59619C 46.1694 2.59619 46.4795 2.6377 46.7871 2.7207L 46.7139 3.81934C 46.4844 3.77539 46.2402 3.75342 45.9814 3.75342C 45.542 3.75342 45.2026 3.88281 44.9634 4.1416C 44.7241 4.39551 44.6045 4.76172 44.6045 5.24023L 44.6045 6.0752L 46.2964 6.0752L 46.2964 7.12256L 44.6045 7.12256L 44.6045 14L 43.2495 14ZM 49.6362 4.15625L 49.6362 6.0752L 51.1157 6.0752L 51.1157 7.12256L 49.6362 7.12256L 49.6362 12.0371C 49.6362 12.3545 49.7021 12.5938 49.834 12.7549C 49.9658 12.9111 50.1904 12.9893 50.5078 12.9893C 50.6641 12.9893 50.8789 12.96 51.1523 12.9014L 51.1523 14C 50.7959 14.0977 50.4492 14.1465 50.1123 14.1465C 49.5068 14.1465 49.0503 13.9634 48.7427 13.5972C 48.4351 13.231 48.2812 12.7109 48.2812 12.0371L 48.2812 7.12256L 46.8384 7.12256L 46.8384 6.0752L 48.2812 6.0752L 48.2812 4.15625L 49.6362 4.15625Z"/>
<path id="path4_fill" d="M 6.60645 10.4185L 8.08594 10.4185L 8.08594 11.5244L 6.60645 11.5244L 6.60645 14L 5.24414 14L 5.24414 11.5244L 0.388184 11.5244L 0.388184 10.7261L 5.16357 3.33594L 6.60645 3.33594L 6.60645 10.4185ZM 1.92627 10.4185L 5.24414 10.4185L 5.24414 5.18896L 5.08301 5.48193L 1.92627 10.4185ZM 16.1938 4.09766L 11.7773 14L 10.3564 14L 14.7583 4.44922L 8.98682 4.44922L 8.98682 3.33594L 16.1938 3.33594L 16.1938 4.09766ZM 20.6909 10.0229L 17.1167 10.0229L 17.1167 8.91699L 20.6909 8.91699L 20.6909 10.0229ZM 22.5 8.65332L 23.042 3.33594L 28.5059 3.33594L 28.5059 4.58838L 24.1919 4.58838L 23.8696 7.49609C 24.3921 7.18848 24.9854 7.03467 25.6494 7.03467C 26.6211 7.03467 27.3926 7.35693 27.9639 8.00146C 28.5352 8.64111 28.8208 9.50781 28.8208 10.6016C 28.8208 11.7002 28.5229 12.5669 27.9272 13.2017C 27.3364 13.8315 26.5088 14.1465 25.4443 14.1465C 24.502 14.1465 23.7329 13.8853 23.1372 13.3628C 22.5415 12.8403 22.2021 12.1177 22.1191 11.1948L 23.4009 11.1948C 23.4839 11.8052 23.7012 12.2666 24.0527 12.5791C 24.4043 12.8867 24.8682 13.0405 25.4443 13.0405C 26.0742 13.0405 26.5674 12.8257 26.9238 12.396C 27.2852 11.9663 27.4658 11.373 27.4658 10.6162C 27.4658 9.90332 27.2705 9.33203 26.8799 8.90234C 26.4941 8.46777 25.979 8.25049 25.3345 8.25049C 24.7437 8.25049 24.2798 8.37988 23.9429 8.63867L 23.584 8.93164L 22.5 8.65332ZM 35.6177 3.32861L 35.6177 4.47852L 35.3687 4.47852C 34.314 4.49805 33.4741 4.81055 32.8491 5.41602C 32.2241 6.02148 31.8628 6.87354 31.7651 7.97217C 32.3267 7.32764 33.0933 7.00537 34.0649 7.00537C 34.9927 7.00537 35.7324 7.33252 36.2842 7.98682C 36.8408 8.64111 37.1191 9.48584 37.1191 10.521C 37.1191 11.6196 36.8188 12.4985 36.2183 13.1577C 35.6226 13.8169 34.8218 14.1465 33.8159 14.1465C 32.7954 14.1465 31.9678 13.7559 31.333 12.9746C 30.6982 12.1885 30.3809 11.1777 30.3809 9.94238L 30.3809 9.42236C 30.3809 7.45947 30.7983 5.96045 31.6333 4.92529C 32.4731 3.88525 33.7207 3.35303 35.376 3.32861L 35.6177 3.32861ZM 33.8379 8.1333C 33.374 8.1333 32.9468 8.27246 32.5562 8.55078C 32.1655 8.8291 31.8945 9.17822 31.7432 9.59814L 31.7432 10.0962C 31.7432 10.9751 31.9409 11.6831 32.3364 12.2202C 32.7319 12.7573 33.2251 13.0259 33.8159 13.0259C 34.4263 13.0259 34.9048 12.8013 35.2515 12.3521C 35.603 11.9028 35.7788 11.3145 35.7788 10.5869C 35.7788 9.85449 35.6006 9.26367 35.2441 8.81445C 34.8926 8.36035 34.4238 8.1333 33.8379 8.1333ZM 43.2495 14L 43.2495 7.12256L 41.9971 7.12256L 41.9971 6.0752L 43.2495 6.0752L 43.2495 5.26221C 43.2495 4.4126 43.4766 3.75586 43.9307 3.29199C 44.3848 2.82812 45.0269 2.59619 45.8569 2.59619C 46.1694 2.59619 46.4795 2.6377 46.7871 2.7207L 46.7139 3.81934C 46.4844 3.77539 46.2402 3.75342 45.9814 3.75342C 45.542 3.75342 45.2026 3.88281 44.9634 4.1416C 44.7241 4.39551 44.6045 4.76172 44.6045 5.24023L 44.6045 6.0752L 46.2964 6.0752L 46.2964 7.12256L 44.6045 7.12256L 44.6045 14L 43.2495 14ZM 49.6362 4.15625L 49.6362 6.0752L 51.1157 6.0752L 51.1157 7.12256L 49.6362 7.12256L 49.6362 12.0371C 49.6362 12.3545 49.7021 12.5938 49.834 12.7549C 49.9658 12.9111 50.1904 12.9893 50.5078 12.9893C 50.6641 12.9893 50.8789 12.96 51.1523 12.9014L 51.1523 14C 50.7959 14.0977 50.4492 14.1465 50.1123 14.1465C 49.5068 14.1465 49.0503 13.9634 48.7427 13.5972C 48.4351 13.231 48.2812 12.7109 48.2812 12.0371L 48.2812 7.12256L 46.8384 7.12256L 46.8384 6.0752L 48.2812 6.0752L 48.2812 4.15625L 49.6362 4.15625Z"/>
<path id="path5_fill" d="M 1.50879 8.65332L 2.05078 3.33594L 7.51465 3.33594L 7.51465 4.58838L 3.20068 4.58838L 2.87842 7.49609C 3.40088 7.18848 3.99414 7.03467 4.6582 7.03467C 5.62988 7.03467 6.40137 7.35693 6.97266 8.00146C 7.54395 8.64111 7.82959 9.50781 7.82959 10.6016C 7.82959 11.7002 7.53174 12.5669 6.93604 13.2017C 6.34521 13.8315 5.51758 14.1465 4.45312 14.1465C 3.51074 14.1465 2.7417 13.8853 2.146 13.3628C 1.55029 12.8403 1.21094 12.1177 1.12793 11.1948L 2.40967 11.1948C 2.49268 11.8052 2.70996 12.2666 3.06152 12.5791C 3.41309 12.8867 3.87695 13.0405 4.45312 13.0405C 5.08301 13.0405 5.57617 12.8257 5.93262 12.396C 6.29395 11.9663 6.47461 11.373 6.47461 10.6162C 6.47461 9.90332 6.2793 9.33203 5.88867 8.90234C 5.50293 8.46777 4.98779 8.25049 4.34326 8.25049C 3.75244 8.25049 3.28857 8.37988 2.95166 8.63867L 2.59277 8.93164L 1.50879 8.65332ZM 14.6265 3.32861L 14.6265 4.47852L 14.3774 4.47852C 13.3228 4.49805 12.4829 4.81055 11.8579 5.41602C 11.2329 6.02148 10.8716 6.87354 10.7739 7.97217C 11.3354 7.32764 12.1021 7.00537 13.0737 7.00537C 14.0015 7.00537 14.7412 7.33252 15.293 7.98682C 15.8496 8.64111 16.1279 9.48584 16.1279 10.521C 16.1279 11.6196 15.8276 12.4985 15.2271 13.1577C 14.6313 13.8169 13.8306 14.1465 12.8247 14.1465C 11.8042 14.1465 10.9766 13.7559 10.3418 12.9746C 9.70703 12.1885 9.38965 11.1777 9.38965 9.94238L 9.38965 9.42236C 9.38965 7.45947 9.80713 5.96045 10.6421 4.92529C 11.4819 3.88525 12.7295 3.35303 14.3848 3.32861L 14.6265 3.32861ZM 12.8467 8.1333C 12.3828 8.1333 11.9556 8.27246 11.5649 8.55078C 11.1743 8.8291 10.9033 9.17822 10.752 9.59814L 10.752 10.0962C 10.752 10.9751 10.9497 11.6831 11.3452 12.2202C 11.7407 12.7573 12.2339 13.0259 12.8247 13.0259C 13.4351 13.0259 13.9136 12.8013 14.2603 12.3521C 14.6118 11.9028 14.7876 11.3145 14.7876 10.5869C 14.7876 9.85449 14.6094 9.26367 14.2529 8.81445C 13.9014 8.36035 13.4326 8.1333 12.8467 8.1333ZM 18.5376 14L 18.5376 7.12256L 17.2852 7.12256L 17.2852 6.0752L 18.5376 6.0752L 18.5376 5.26221C 18.5376 4.4126 18.7646 3.75586 19.2188 3.29199C 19.6729 2.82812 20.3149 2.59619 21.145 2.59619C 21.4575 2.59619 21.7676 2.6377 22.0752 2.7207L 22.002 3.81934C 21.7725 3.77539 21.5283 3.75342 21.2695 3.75342C 20.8301 3.75342 20.4907 3.88281 20.2515 4.1416C 20.0122 4.39551 19.8926 4.76172 19.8926 5.24023L 19.8926 6.0752L 21.5845 6.0752L 21.5845 7.12256L 19.8926 7.12256L 19.8926 14L 18.5376 14ZM 24.9243 4.15625L 24.9243 6.0752L 26.4038 6.0752L 26.4038 7.12256L 24.9243 7.12256L 24.9243 12.0371C 24.9243 12.3545 24.9902 12.5938 25.1221 12.7549C 25.2539 12.9111 25.4785 12.9893 25.7959 12.9893C 25.9521 12.9893 26.167 12.96 26.4404 12.9014L 26.4404 14C 26.084 14.0977 25.7373 14.1465 25.4004 14.1465C 24.7949 14.1465 24.3384 13.9634 24.0308 13.5972C 23.7231 13.231 23.5693 12.7109 23.5693 12.0371L 23.5693 7.12256L 22.1265 7.12256L 22.1265 6.0752L 23.5693 6.0752L 23.5693 4.15625L 24.9243 4.15625ZM 35.5957 8.27979L 38.5693 8.27979L 38.5693 9.56152L 35.5957 9.56152L 35.5957 12.9307L 34.2334 12.9307L 34.2334 9.56152L 31.2598 9.56152L 31.2598 8.27979L 34.2334 8.27979L 34.2334 5.16699L 35.5957 5.16699L 35.5957 8.27979Z"/>
<path id="path6_fill" fill-rule="evenodd" d="M 0 0L 1 0L 1 58L 0 58L 0 0Z"/>
<path id="path7_fill" fill-rule="evenodd" d="M 0 0L 1 0L 1 57L 0 57L 0 0Z"/>
<path id="path8_fill" d="M 4.86328 7.25C 4.63672 7.51953 4.36523 7.73633 4.04883 7.90039C 3.73633 8.06445 3.39258 8.14648 3.01758 8.14648C 2.52539 8.14648 2.0957 8.02539 1.72852 7.7832C 1.36523 7.54102 1.08398 7.20117 0.884766 6.76367C 0.685547 6.32227 0.585938 5.83594 0.585938 5.30469C 0.585938 4.73437 0.693359 4.2207 0.908203 3.76367C 1.12695 3.30664 1.43555 2.95703 1.83398 2.71484C 2.23242 2.47266 2.69727 2.35156 3.22852 2.35156C 4.07227 2.35156 4.73633 2.66797 5.2207 3.30078C 5.70898 3.92969 5.95312 4.78906 5.95312 5.87891L 5.95312 6.19531C 5.95312 7.85547 5.625 9.06836 4.96875 9.83398C 4.3125 10.5957 3.32227 10.9863 1.99805 11.0059L 1.78711 11.0059L 1.78711 10.0918L 2.01562 10.0918C 2.91016 10.0762 3.59766 9.84375 4.07812 9.39453C 4.55859 8.94141 4.82031 8.22656 4.86328 7.25ZM 3.19336 7.25C 3.55664 7.25 3.89062 7.13867 4.19531 6.91602C 4.50391 6.69336 4.72852 6.41797 4.86914 6.08984L 4.86914 5.65625C 4.86914 4.94531 4.71484 4.36719 4.40625 3.92188C 4.09766 3.47656 3.70703 3.25391 3.23438 3.25391C 2.75781 3.25391 2.375 3.4375 2.08594 3.80469C 1.79687 4.16797 1.65234 4.64844 1.65234 5.24609C 1.65234 5.82812 1.79102 6.30859 2.06836 6.6875C 2.34961 7.0625 2.72461 7.25 3.19336 7.25ZM 13.5645 7.18555L 7.69336 7.18555L 7.69336 6.30078L 13.5645 6.30078L 13.5645 7.18555ZM 18.8848 11L 17.7949 11L 17.7949 3.77539L 15.6094 4.57812L 15.6094 3.59375L 18.7148 2.42773L 18.8848 2.42773L 18.8848 11ZM 27.6504 11L 22.0605 11L 22.0605 10.2207L 25.0137 6.93945C 25.4512 6.44336 25.752 6.04102 25.916 5.73242C 26.084 5.41992 26.168 5.09766 26.168 4.76562C 26.168 4.32031 26.0332 3.95508 25.7637 3.66992C 25.4941 3.38477 25.1348 3.24219 24.6855 3.24219C 24.1465 3.24219 23.7266 3.39648 23.4258 3.70508C 23.1289 4.00977 22.9805 4.43555 22.9805 4.98242L 21.8965 4.98242C 21.8965 4.19727 22.1484 3.5625 22.6523 3.07812C 23.1602 2.59375 23.8379 2.35156 24.6855 2.35156C 25.4785 2.35156 26.1055 2.56055 26.5664 2.97852C 27.0273 3.39258 27.2578 3.94531 27.2578 4.63672C 27.2578 5.47656 26.7227 6.47656 25.6523 7.63672L 23.3672 10.1152L 27.6504 10.1152L 27.6504 11ZM 29.9297 4.66016L 29.959 5.36328C 30.4238 4.81641 31.0508 4.54297 31.8398 4.54297C 32.7266 4.54297 33.3301 4.88281 33.6504 5.5625C 33.8613 5.25781 34.1348 5.01172 34.4707 4.82422C 34.8105 4.63672 35.2109 4.54297 35.6719 4.54297C 37.0625 4.54297 37.7695 5.2793 37.793 6.75195L 37.793 11L 36.709 11L 36.709 6.81641C 36.709 6.36328 36.6055 6.02539 36.3984 5.80273C 36.1914 5.57617 35.8438 5.46289 35.3555 5.46289C 34.9531 5.46289 34.6191 5.58398 34.3535 5.82617C 34.0879 6.06445 33.9336 6.38672 33.8906 6.79297L 33.8906 11L 32.8008 11L 32.8008 6.8457C 32.8008 5.92383 32.3496 5.46289 31.4473 5.46289C 30.7363 5.46289 30.25 5.76563 29.9883 6.37109L 29.9883 11L 28.9043 11L 28.9043 4.66016L 29.9297 4.66016Z"/>
<path id="path9_fill" d="M 4.27148 11L 3.18164 11L 3.18164 3.77539L 0.996094 4.57812L 0.996094 3.59375L 4.10156 2.42773L 4.27148 2.42773L 4.27148 11ZM 13.0371 11L 7.44727 11L 7.44727 10.2207L 10.4004 6.93945C 10.8379 6.44336 11.1387 6.04102 11.3027 5.73242C 11.4707 5.41992 11.5547 5.09766 11.5547 4.76562C 11.5547 4.32031 11.4199 3.95508 11.1504 3.66992C 10.8809 3.38477 10.5215 3.24219 10.0723 3.24219C 9.5332 3.24219 9.11328 3.39648 8.8125 3.70508C 8.51563 4.00977 8.36719 4.43555 8.36719 4.98242L 7.2832 4.98242C 7.2832 4.19727 7.53516 3.5625 8.03906 3.07812C 8.54687 2.59375 9.22461 2.35156 10.0723 2.35156C 10.8652 2.35156 11.4922 2.56055 11.9531 2.97852C 12.4141 3.39258 12.6445 3.94531 12.6445 4.63672C 12.6445 5.47656 12.1094 6.47656 11.0391 7.63672L 8.75391 10.1152L 13.0371 10.1152L 13.0371 11ZM 20.3027 7.18555L 14.4316 7.18555L 14.4316 6.30078L 20.3027 6.30078L 20.3027 7.18555ZM 25.623 11L 24.5332 11L 24.5332 3.77539L 22.3477 4.57812L 22.3477 3.59375L 25.4531 2.42773L 25.623 2.42773L 25.623 11ZM 33.375 8.13477L 34.5586 8.13477L 34.5586 9.01953L 33.375 9.01953L 33.375 11L 32.2852 11L 32.2852 9.01953L 28.4004 9.01953L 28.4004 8.38086L 32.2207 2.46875L 33.375 2.46875L 33.375 8.13477ZM 29.6309 8.13477L 32.2852 8.13477L 32.2852 3.95117L 32.1562 4.18555L 29.6309 8.13477ZM 36.668 4.66016L 36.6973 5.36328C 37.1621 4.81641 37.7891 4.54297 38.5781 4.54297C 39.4648 4.54297 40.0684 4.88281 40.3887 5.5625C 40.5996 5.25781 40.873 5.01172 41.209 4.82422C 41.5488 4.63672 41.9492 4.54297 42.4102 4.54297C 43.8008 4.54297 44.5078 5.2793 44.5312 6.75195L 44.5312 11L 43.4473 11L 43.4473 6.81641C 43.4473 6.36328 43.3438 6.02539 43.1367 5.80273C 42.9297 5.57617 42.582 5.46289 42.0938 5.46289C 41.6914 5.46289 41.3574 5.58398 41.0918 5.82617C 40.8262 6.06445 40.6719 6.38672 40.6289 6.79297L 40.6289 11L 39.5391 11L 39.5391 6.8457C 39.5391 5.92383 39.0879 5.46289 38.1855 5.46289C 37.4746 5.46289 36.9883 5.76563 36.7266 6.37109L 36.7266 11L 35.6426 11L 35.6426 4.66016L 36.668 4.66016Z"/>
<path id="path10_fill" d="M 4.27148 11L 3.18164 11L 3.18164 3.77539L 0.996094 4.57812L 0.996094 3.59375L 4.10156 2.42773L 4.27148 2.42773L 4.27148 11ZM 12.0234 8.13477L 13.207 8.13477L 13.207 9.01953L 12.0234 9.01953L 12.0234 11L 10.9336 11L 10.9336 9.01953L 7.04883 9.01953L 7.04883 8.38086L 10.8691 2.46875L 12.0234 2.46875L 12.0234 8.13477ZM 8.2793 8.13477L 10.9336 8.13477L 10.9336 3.95117L 10.8047 4.18555L 8.2793 8.13477ZM 20.3027 7.18555L 14.4316 7.18555L 14.4316 6.30078L 20.3027 6.30078L 20.3027 7.18555ZM 25.623 11L 24.5332 11L 24.5332 3.77539L 22.3477 4.57812L 22.3477 3.59375L 25.4531 2.42773L 25.623 2.42773L 25.623 11ZM 34.3066 3.07812L 30.7734 11L 29.6367 11L 33.1582 3.35938L 28.541 3.35938L 28.541 2.46875L 34.3066 2.46875L 34.3066 3.07812ZM 36.668 4.66016L 36.6973 5.36328C 37.1621 4.81641 37.7891 4.54297 38.5781 4.54297C 39.4648 4.54297 40.0684 4.88281 40.3887 5.5625C 40.5996 5.25781 40.873 5.01172 41.209 4.82422C 41.5488 4.63672 41.9492 4.54297 42.4102 4.54297C 43.8008 4.54297 44.5078 5.2793 44.5312 6.75195L 44.5312 11L 43.4473 11L 43.4473 6.81641C 43.4473 6.36328 43.3438 6.02539 43.1367 5.80273C 42.9297 5.57617 42.582 5.46289 42.0938 5.46289C 41.6914 5.46289 41.3574 5.58398 41.0918 5.82617C 40.8262 6.06445 40.6719 6.38672 40.6289 6.79297L 40.6289 11L 39.5391 11L 39.5391 6.8457C 39.5391 5.92383 39.0879 5.46289 38.1855 5.46289C 37.4746 5.46289 36.9883 5.76563 36.7266 6.37109L 36.7266 11L 35.6426 11L 35.6426 4.66016L 36.668 4.66016Z"/>
<path id="path11_fill" d="M 4.27148 11L 3.18164 11L 3.18164 3.77539L 0.996094 4.57812L 0.996094 3.59375L 4.10156 2.42773L 4.27148 2.42773L 4.27148 11ZM 12.9551 3.07812L 9.42188 11L 8.28516 11L 11.8066 3.35938L 7.18945 3.35938L 7.18945 2.46875L 12.9551 2.46875L 12.9551 3.07812ZM 15.3164 4.66016L 15.3457 5.36328C 15.8105 4.81641 16.4375 4.54297 17.2266 4.54297C 18.1133 4.54297 18.7168 4.88281 19.0371 5.5625C 19.248 5.25781 19.5215 5.01172 19.8574 4.82422C 20.1973 4.63672 20.5977 4.54297 21.0586 4.54297C 22.4492 4.54297 23.1562 5.2793 23.1797 6.75195L 23.1797 11L 22.0957 11L 22.0957 6.81641C 22.0957 6.36328 21.9922 6.02539 21.7852 5.80273C 21.5781 5.57617 21.2305 5.46289 20.7422 5.46289C 20.3398 5.46289 20.0059 5.58398 19.7402 5.82617C 19.4746 6.06445 19.3203 6.38672 19.2773 6.79297L 19.2773 11L 18.1875 11L 18.1875 6.8457C 18.1875 5.92383 17.7363 5.46289 16.834 5.46289C 16.123 5.46289 15.6367 5.76563 15.375 6.37109L 15.375 11L 14.291 11L 14.291 4.66016L 15.3164 4.66016ZM 30.9023 6.42383L 33.2812 6.42383L 33.2812 7.44922L 30.9023 7.44922L 30.9023 10.1445L 29.8125 10.1445L 29.8125 7.44922L 27.4336 7.44922L 27.4336 6.42383L 29.8125 6.42383L 29.8125 3.93359L 30.9023 3.93359L 30.9023 6.42383Z"/>
</defs>
</svg>
