<svg width="330" height="48" viewBox="0 0 330 48" version="1.1" xmlns="http://www.w3.org/2000/svg" xmlns:xlink="http://www.w3.org/1999/xlink">
<title>Component</title>
<desc>Created using Figma</desc>
<g id="Canvas" transform="translate(-2591 -11135)">
<g id="Component">
<g id="input field copy 6">
<use xlink:href="#path0_fill" transform="translate(2591 11135)" fill="#FFFFFF"/>
<mask id="mask0_outline_ins">
<use xlink:href="#path0_fill" fill="white" transform="translate(2591 11135)"/>
</mask>
<g mask="url(#mask0_outline_ins)">
<use xlink:href="#path1_stroke_2x" transform="translate(2591 11135)" fill="#E0E6ED"/>
</g>
</g>
<g id="Captain included">
<use xlink:href="#path2_fill" transform="translate(2605 11146)" fill="#34495E"/>
</g>
<g id="Rectangle 2">
<use xlink:href="#path3_fill" transform="translate(2871 11152)" fill="#EAF1FC"/>
</g>
<g id="Oval Copy 6">
<use xlink:href="#path4_fill" transform="translate(2886 11149)" fill="#71A2EA"/>
<mask id="mask1_outline_ins">
<use xlink:href="#path4_fill" fill="white" transform="translate(2886 11149)"/>
</mask>
<g mask="url(#mask1_outline_ins)">
<use xlink:href="#path5_stroke_2x" transform="translate(2886 11149)" fill="#71A2EA"/>
</g>
</g>
</g>
</g>
<defs>
<path id="path0_fill" fill-rule="evenodd" d="M 0 4C 0 1.79086 1.79086 0 4 0L 326 0C 328.209 0 330 1.79086 330 4L 330 44C 330 46.2091 328.209 48 326 48L 4 48C 1.79086 48 0 46.2091 0 44L 0 4Z"/>
<path id="path1_stroke_2x" d="M 4 1L 326 1L 326 -1L 4 -1L 4 1ZM 329 4L 329 44L 331 44L 331 4L 329 4ZM 326 47L 4 47L 4 49L 326 49L 326 47ZM 1 44L 1 4L -1 4L -1 44L 1 44ZM 4 -1C 1.23858 -1 -1 1.23858 -1 4L 1 4C 1 2.34315 2.34315 1 4 1L 4 -1ZM 326 1C 327.657 1 329 2.34315 329 4L 331 4C 331 1.23858 328.761 -1 326 -1L 326 1ZM 329 44C 329 45.6569 327.657 47 326 47L 326 49C 328.761 49 331 46.7614 331 44L 329 44ZM 4 47C 2.34315 47 1 45.6569 1 44L -1 44C -1 46.7614 1.23858 49 4 49L 4 47Z"/>
<path id="path2_fill" d="M 9.6875 15.3906C 9.54688 16.5938 9.10156 17.5234 8.35156 18.1797C 7.60677 18.8307 6.61458 19.1562 5.375 19.1562C 4.03125 19.1562 2.95312 18.6745 2.14062 17.7109C 1.33333 16.7474 0.929688 15.4583 0.929688 13.8438L 0.929688 12.75C 0.929688 11.6927 1.11719 10.763 1.49219 9.96094C 1.8724 9.15885 2.40885 8.54427 3.10156 8.11719C 3.79427 7.6849 4.59635 7.46875 5.50781 7.46875C 6.71615 7.46875 7.6849 7.80729 8.41406 8.48438C 9.14323 9.15625 9.56771 10.0885 9.6875 11.2812L 8.17969 11.2812C 8.04948 10.375 7.76562 9.71875 7.32812 9.3125C 6.89583 8.90625 6.28906 8.70312 5.50781 8.70312C 4.54948 8.70312 3.79688 9.05729 3.25 9.76562C 2.70833 10.474 2.4375 11.4818 2.4375 12.7891L 2.4375 13.8906C 2.4375 15.125 2.69531 16.1068 3.21094 16.8359C 3.72656 17.5651 4.44792 17.9297 5.375 17.9297C 6.20833 17.9297 6.84635 17.7422 7.28906 17.3672C 7.73698 16.987 8.03385 16.3281 8.17969 15.3906L 9.6875 15.3906ZM 16.7344 19C 16.651 18.8333 16.5833 18.5365 16.5312 18.1094C 15.8594 18.8073 15.0573 19.1562 14.125 19.1562C 13.2917 19.1562 12.6068 18.9219 12.0703 18.4531C 11.5391 17.9792 11.2734 17.3802 11.2734 16.6562C 11.2734 15.776 11.6068 15.0938 12.2734 14.6094C 12.9453 14.1198 13.888 13.875 15.1016 13.875L 16.5078 13.875L 16.5078 13.2109C 16.5078 12.7057 16.3568 12.3047 16.0547 12.0078C 15.7526 11.7057 15.3073 11.5547 14.7188 11.5547C 14.2031 11.5547 13.7708 11.6849 13.4219 11.9453C 13.0729 12.2057 12.8984 12.5208 12.8984 12.8906L 11.4453 12.8906C 11.4453 12.4688 11.5938 12.0625 11.8906 11.6719C 12.1927 11.276 12.599 10.9635 13.1094 10.7344C 13.625 10.5052 14.1901 10.3906 14.8047 10.3906C 15.7786 10.3906 16.5417 10.6354 17.0938 11.125C 17.6458 11.6094 17.9323 12.2786 17.9531 13.1328L 17.9531 17.0234C 17.9531 17.7995 18.0521 18.4167 18.25 18.875L 18.25 19L 16.7344 19ZM 14.3359 17.8984C 14.7891 17.8984 15.2188 17.7812 15.625 17.5469C 16.0312 17.3125 16.3255 17.0078 16.5078 16.6328L 16.5078 14.8984L 15.375 14.8984C 13.6042 14.8984 12.7188 15.4167 12.7188 16.4531C 12.7188 16.9062 12.8698 17.2604 13.1719 17.5156C 13.474 17.7708 13.862 17.8984 14.3359 17.8984ZM 27.3594 14.8672C 27.3594 16.1536 27.0651 17.1901 26.4766 17.9766C 25.888 18.763 25.0911 19.1562 24.0859 19.1562C 23.0599 19.1562 22.2526 18.8307 21.6641 18.1797L 21.6641 22.25L 20.2188 22.25L 20.2188 10.5469L 21.5391 10.5469L 21.6094 11.4844C 22.1979 10.7552 23.0156 10.3906 24.0625 10.3906C 25.0781 10.3906 25.8802 10.7734 26.4688 11.5391C 27.0625 12.3047 27.3594 13.3698 27.3594 14.7344L 27.3594 14.8672ZM 25.9141 14.7031C 25.9141 13.75 25.7109 12.9974 25.3047 12.4453C 24.8984 11.8932 24.3411 11.6172 23.6328 11.6172C 22.7578 11.6172 22.1016 12.0052 21.6641 12.7812L 21.6641 16.8203C 22.0964 17.5911 22.7578 17.9766 23.6484 17.9766C 24.3411 17.9766 24.8906 17.7031 25.2969 17.1562C 25.7083 16.6042 25.9141 15.7865 25.9141 14.7031ZM 31.1641 8.5L 31.1641 10.5469L 32.7422 10.5469L 32.7422 11.6641L 31.1641 11.6641L 31.1641 16.9062C 31.1641 17.2448 31.2344 17.5 31.375 17.6719C 31.5156 17.8385 31.7552 17.9219 32.0938 17.9219C 32.2604 17.9219 32.4896 17.8906 32.7812 17.8281L 32.7812 19C 32.401 19.1042 32.0312 19.1562 31.6719 19.1562C 31.026 19.1562 30.5391 18.9609 30.2109 18.5703C 29.8828 18.1797 29.7188 17.625 29.7188 16.9062L 29.7188 11.6641L 28.1797 11.6641L 28.1797 10.5469L 29.7188 10.5469L 29.7188 8.5L 31.1641 8.5ZM 39.6562 19C 39.5729 18.8333 39.5052 18.5365 39.4531 18.1094C 38.7812 18.8073 37.9792 19.1562 37.0469 19.1562C 36.2135 19.1562 35.5286 18.9219 34.9922 18.4531C 34.4609 17.9792 34.1953 17.3802 34.1953 16.6562C 34.1953 15.776 34.5286 15.0938 35.1953 14.6094C 35.8672 14.1198 36.8099 13.875 38.0234 13.875L 39.4297 13.875L 39.4297 13.2109C 39.4297 12.7057 39.2786 12.3047 38.9766 12.0078C 38.6745 11.7057 38.2292 11.5547 37.6406 11.5547C 37.125 11.5547 36.6927 11.6849 36.3438 11.9453C 35.9948 12.2057 35.8203 12.5208 35.8203 12.8906L 34.3672 12.8906C 34.3672 12.4688 34.5156 12.0625 34.8125 11.6719C 35.1146 11.276 35.5208 10.9635 36.0312 10.7344C 36.5469 10.5052 37.112 10.3906 37.7266 10.3906C 38.7005 10.3906 39.4635 10.6354 40.0156 11.125C 40.5677 11.6094 40.8542 12.2786 40.875 13.1328L 40.875 17.0234C 40.875 17.7995 40.974 18.4167 41.1719 18.875L 41.1719 19L 39.6562 19ZM 37.2578 17.8984C 37.7109 17.8984 38.1406 17.7812 38.5469 17.5469C 38.9531 17.3125 39.2474 17.0078 39.4297 16.6328L 39.4297 14.8984L 38.2969 14.8984C 36.526 14.8984 35.6406 15.4167 35.6406 16.4531C 35.6406 16.9062 35.7917 17.2604 36.0938 17.5156C 36.3958 17.7708 36.7839 17.8984 37.2578 17.8984ZM 44.7109 19L 43.2656 19L 43.2656 10.5469L 44.7109 10.5469L 44.7109 19ZM 43.1484 8.30469C 43.1484 8.07031 43.2188 7.8724 43.3594 7.71094C 43.5052 7.54948 43.7188 7.46875 44 7.46875C 44.2812 7.46875 44.4948 7.54948 44.6406 7.71094C 44.7865 7.8724 44.8594 8.07031 44.8594 8.30469C 44.8594 8.53906 44.7865 8.73438 44.6406 8.89062C 44.4948 9.04688 44.2812 9.125 44 9.125C 43.7188 9.125 43.5052 9.04688 43.3594 8.89062C 43.2188 8.73438 43.1484 8.53906 43.1484 8.30469ZM 48.3984 10.5469L 48.4453 11.6094C 49.0911 10.7969 49.9349 10.3906 50.9766 10.3906C 52.763 10.3906 53.6641 11.3984 53.6797 13.4141L 53.6797 19L 52.2344 19L 52.2344 13.4062C 52.2292 12.7969 52.0885 12.3464 51.8125 12.0547C 51.5417 11.763 51.1172 11.6172 50.5391 11.6172C 50.0703 11.6172 49.6589 11.7422 49.3047 11.9922C 48.9505 12.2422 48.6745 12.5703 48.4766 12.9766L 48.4766 19L 47.0312 19L 47.0312 10.5469L 48.3984 10.5469ZM 61.3984 19L 59.9531 19L 59.9531 10.5469L 61.3984 10.5469L 61.3984 19ZM 59.8359 8.30469C 59.8359 8.07031 59.9062 7.8724 60.0469 7.71094C 60.1927 7.54948 60.4062 7.46875 60.6875 7.46875C 60.9688 7.46875 61.1823 7.54948 61.3281 7.71094C 61.474 7.8724 61.5469 8.07031 61.5469 8.30469C 61.5469 8.53906 61.474 8.73438 61.3281 8.89062C 61.1823 9.04688 60.9688 9.125 60.6875 9.125C 60.4062 9.125 60.1927 9.04688 60.0469 8.89062C 59.9062 8.73438 59.8359 8.53906 59.8359 8.30469ZM 65.0859 10.5469L 65.1328 11.6094C 65.7786 10.7969 66.6224 10.3906 67.6641 10.3906C 69.4505 10.3906 70.3516 11.3984 70.3672 13.4141L 70.3672 19L 68.9219 19L 68.9219 13.4062C 68.9167 12.7969 68.776 12.3464 68.5 12.0547C 68.2292 11.763 67.8047 11.6172 67.2266 11.6172C 66.7578 11.6172 66.3464 11.7422 65.9922 11.9922C 65.638 12.2422 65.362 12.5703 65.1641 12.9766L 65.1641 19L 63.7188 19L 63.7188 10.5469L 65.0859 10.5469ZM 75.9375 17.9766C 76.4531 17.9766 76.9036 17.8203 77.2891 17.5078C 77.6745 17.1953 77.888 16.8047 77.9297 16.3359L 79.2969 16.3359C 79.2708 16.8203 79.1042 17.2812 78.7969 17.7188C 78.4896 18.1562 78.0781 18.5052 77.5625 18.7656C 77.0521 19.026 76.5104 19.1562 75.9375 19.1562C 74.7865 19.1562 73.8698 18.7734 73.1875 18.0078C 72.5104 17.237 72.1719 16.1849 72.1719 14.8516L 72.1719 14.6094C 72.1719 13.7865 72.3229 13.0547 72.625 12.4141C 72.9271 11.7734 73.3594 11.276 73.9219 10.9219C 74.4896 10.5677 75.1589 10.3906 75.9297 10.3906C 76.8776 10.3906 77.6641 10.6745 78.2891 11.2422C 78.9193 11.8099 79.2552 12.5469 79.2969 13.4531L 77.9297 13.4531C 77.888 12.9062 77.6797 12.4583 77.3047 12.1094C 76.9349 11.7552 76.4766 11.5781 75.9297 11.5781C 75.1953 11.5781 74.625 11.8438 74.2188 12.375C 73.8177 12.901 73.6172 13.6641 73.6172 14.6641L 73.6172 14.9375C 73.6172 15.9115 73.8177 16.6615 74.2188 17.1875C 74.6198 17.7135 75.1927 17.9766 75.9375 17.9766ZM 82.4922 19L 81.0469 19L 81.0469 7L 82.4922 7L 82.4922 19ZM 90.0312 18.1641C 89.4688 18.8255 88.6432 19.1562 87.5547 19.1562C 86.6536 19.1562 85.9661 18.8958 85.4922 18.375C 85.0234 17.849 84.7865 17.0729 84.7812 16.0469L 84.7812 10.5469L 86.2266 10.5469L 86.2266 16.0078C 86.2266 17.2891 86.7474 17.9297 87.7891 17.9297C 88.8932 17.9297 89.6276 17.5182 89.9922 16.6953L 89.9922 10.5469L 91.4375 10.5469L 91.4375 19L 90.0625 19L 90.0312 18.1641ZM 93.2891 14.7031C 93.2891 13.4062 93.5964 12.3646 94.2109 11.5781C 94.8255 10.7865 95.6302 10.3906 96.625 10.3906C 97.6146 10.3906 98.3984 10.7292 98.9766 11.4062L 98.9766 7L 100.422 7L 100.422 19L 99.0938 19L 99.0234 18.0938C 98.4453 18.8021 97.6406 19.1562 96.6094 19.1562C 95.6302 19.1562 94.8307 18.7552 94.2109 17.9531C 93.5964 17.151 93.2891 16.1042 93.2891 14.8125L 93.2891 14.7031ZM 94.7344 14.8672C 94.7344 15.8255 94.9323 16.5755 95.3281 17.1172C 95.724 17.6589 96.2708 17.9297 96.9688 17.9297C 97.8854 17.9297 98.5547 17.5182 98.9766 16.6953L 98.9766 12.8125C 98.5443 12.0156 97.8802 11.6172 96.9844 11.6172C 96.276 11.6172 95.724 11.8906 95.3281 12.4375C 94.9323 12.9844 94.7344 13.7943 94.7344 14.8672ZM 106.18 19.1562C 105.034 19.1562 104.102 18.7812 103.383 18.0312C 102.664 17.276 102.305 16.2682 102.305 15.0078L 102.305 14.7422C 102.305 13.9036 102.464 13.1562 102.781 12.5C 103.104 11.8385 103.552 11.3229 104.125 10.9531C 104.703 10.5781 105.328 10.3906 106 10.3906C 107.099 10.3906 107.953 10.7526 108.562 11.4766C 109.172 12.2005 109.477 13.237 109.477 14.5859L 109.477 15.1875L 103.75 15.1875C 103.771 16.0208 104.013 16.6953 104.477 17.2109C 104.945 17.7214 105.539 17.9766 106.258 17.9766C 106.768 17.9766 107.201 17.8724 107.555 17.6641C 107.909 17.4557 108.219 17.1797 108.484 16.8359L 109.367 17.5234C 108.659 18.612 107.596 19.1562 106.18 19.1562ZM 106 11.5781C 105.417 11.5781 104.927 11.7917 104.531 12.2188C 104.135 12.6406 103.891 13.2344 103.797 14L 108.031 14L 108.031 13.8906C 107.99 13.1562 107.792 12.5885 107.438 12.1875C 107.083 11.7812 106.604 11.5781 106 11.5781ZM 110.805 14.7031C 110.805 13.4062 111.112 12.3646 111.727 11.5781C 112.341 10.7865 113.146 10.3906 114.141 10.3906C 115.13 10.3906 115.914 10.7292 116.492 11.4062L 116.492 7L 117.938 7L 117.938 19L 116.609 19L 116.539 18.0938C 115.961 18.8021 115.156 19.1562 114.125 19.1562C 113.146 19.1562 112.346 18.7552 111.727 17.9531C 111.112 17.151 110.805 16.1042 110.805 14.8125L 110.805 14.7031ZM 112.25 14.8672C 112.25 15.8255 112.448 16.5755 112.844 17.1172C 113.24 17.6589 113.786 17.9297 114.484 17.9297C 115.401 17.9297 116.07 17.5182 116.492 16.6953L 116.492 12.8125C 116.06 12.0156 115.396 11.6172 114.5 11.6172C 113.792 11.6172 113.24 11.8906 112.844 12.4375C 112.448 12.9844 112.25 13.7943 112.25 14.8672Z"/>
<path id="path3_fill" fill-rule="evenodd" d="M 0 7.5C 0 3.35786 3.35786 0 7.5 0L 26.5 0C 30.6421 0 34 3.35786 34 7.5C 34 11.6421 30.6421 15 26.5 15L 7.5 15C 3.35786 15 0 11.6421 0 7.5Z"/>
<path id="path4_fill" fill-rule="evenodd" d="M 10 20C 15.5228 20 20 15.5228 20 10C 20 4.47715 15.5228 0 10 0C 4.47715 0 0 4.47715 0 10C 0 15.5228 4.47715 20 10 20Z"/>
<path id="path5_stroke_2x" d="M 10 21C 16.0751 21 21 16.0751 21 10L 19 10C 19 14.9706 14.9706 19 10 19L 10 21ZM 21 10C 21 3.92487 16.0751 -1 10 -1L 10 1C 14.9706 1 19 5.02944 19 10L 21 10ZM 10 -1C 3.92487 -1 -1 3.92487 -1 10L 1 10C 1 5.02944 5.02944 1 10 1L 10 -1ZM -1 10C -1 16.0751 3.92487 21 10 21L 10 19C 5.02944 19 1 14.9706 1 10L -1 10Z"/>
</defs>
</svg>
