<svg width="340" height="215" viewBox="0 0 340 215" version="1.1" xmlns="http://www.w3.org/2000/svg" xmlns:xlink="http://www.w3.org/1999/xlink">
<title>Group</title>
<desc>Created using Figma</desc>
<g id="Canvas" transform="translate(-3004 -11124)">
<g id="Group">
<g id="input field copy 17">
<use xlink:href="#path0_fill" transform="translate(3004 11124)" fill="#FFFFFF"/>
<mask id="mask0_outline_ins">
<use xlink:href="#path0_fill" fill="white" transform="translate(3004 11124)"/>
</mask>
<g mask="url(#mask0_outline_ins)">
<use xlink:href="#path1_stroke_2x" transform="translate(3004 11124)" fill="#E0E6ED"/>
</g>
</g>
<g id="input field copy 9" opacity="0.15">
<use xlink:href="#path2_fill" transform="translate(3179 11144)" fill="#71A2EA"/>
</g>
<g id="Rectangle 8" opacity="0.7">
<use xlink:href="#path3_fill" transform="translate(3179 11144)" fill="#71A2EA"/>
</g>
<g id="Price per">
<use xlink:href="#path4_fill" transform="translate(3019 11147)" fill="#34495E"/>
</g>
<g id="day">
<use xlink:href="#path5_fill" transform="translate(3203 11148)" fill="#FFFFFF"/>
</g>
<g id="week">
<use xlink:href="#path6_fill" transform="translate(3272 11148)" fill="#34495E"/>
</g>
<g id="input field copy 7">
<use xlink:href="#path7_fill" transform="translate(3263 11190)" fill="#FFFFFF"/>
<mask id="mask1_outline_ins">
<use xlink:href="#path7_fill" fill="white" transform="translate(3263 11190)"/>
</mask>
<g mask="url(#mask1_outline_ins)">
<use xlink:href="#path8_stroke_2x" transform="translate(3263 11190)" fill="#DDDDDD"/>
</g>
</g>
<g id="input field copy 8">
<use xlink:href="#path7_fill" transform="translate(3019 11190)" fill="#FFFFFF"/>
<mask id="mask2_outline_ins">
<use xlink:href="#path7_fill" fill="white" transform="translate(3019 11190)"/>
</mask>
<g mask="url(#mask2_outline_ins)">
<use xlink:href="#path8_stroke_2x" transform="translate(3019 11190)" fill="#DDDDDD"/>
</g>
</g>
<g id="&#226;&#130;&#172;5435">
<use xlink:href="#path9_fill" transform="translate(3270 11195)" fill="#34495E"/>
</g>
<g id="&#226;&#130;&#172;865">
<use xlink:href="#path10_fill" transform="translate(3027 11195)" fill="#34495E"/>
</g>
<g id="Rectangle 7 Copy">
<use xlink:href="#path11_fill" transform="translate(3038 11291)" fill="#CBDDF7"/>
</g>
<g id="Rectangle 7 Copy 36">
<use xlink:href="#path12_fill" transform="translate(3030 11294)" fill="#CBDDF7"/>
</g>
<g id="Rectangle 7 Copy 37">
<use xlink:href="#path13_fill" transform="translate(3026 11296)" fill="#CBDDF7"/>
</g>
<g id="Rectangle 7 Copy 2">
<use xlink:href="#path14_fill" transform="translate(3042 11286)" fill="#CBDDF7"/>
</g>
<g id="Rectangle 7 Copy 4">
<use xlink:href="#path11_fill" transform="translate(3046 11291)" fill="#CBDDF7"/>
</g>
<g id="Rectangle 7 Copy 3">
<use xlink:href="#path15_fill" transform="translate(3050 11292)" fill="#CBDDF7"/>
</g>
<g id="Rectangle 7 Copy 8">
<use xlink:href="#path16_fill" transform="translate(3054 11283)" fill="#CBDDF7"/>
</g>
<g id="Rectangle 7 Copy 7">
<use xlink:href="#path16_fill" transform="translate(3058 11283)" fill="#CBDDF7"/>
</g>
<g id="Rectangle 7 Copy 6">
<use xlink:href="#path17_fill" transform="translate(3062 11279)" fill="#CBDDF7"/>
</g>
<g id="Rectangle 7 Copy 5">
<use xlink:href="#path14_fill" transform="translate(3066 11286)" fill="#CBDDF7"/>
</g>
<g id="Rectangle 7 Copy 16">
<use xlink:href="#path18_fill" transform="translate(3070 11290)" fill="#CBDDF7"/>
</g>
<g id="Rectangle 7 Copy 15">
<use xlink:href="#path19_fill" transform="translate(3074 11283)" fill="#CBDDF7"/>
</g>
<g id="Rectangle 7 Copy 14">
<use xlink:href="#path17_fill" transform="translate(3078 11278)" fill="#CBDDF7"/>
</g>
<g id="Rectangle 7 Copy 13">
<use xlink:href="#path16_fill" transform="translate(3082 11282)" fill="#CBDDF7"/>
</g>
<g id="Rectangle 7 Copy 12">
<use xlink:href="#path14_fill" transform="translate(3086 11286)" fill="#CBDDF7"/>
</g>
<g id="Rectangle 7 Copy 11">
<use xlink:href="#path17_fill" transform="translate(3090 11279)" fill="#CBDDF7"/>
</g>
<g id="Rectangle 7 Copy 10">
<use xlink:href="#path16_fill" transform="translate(3094 11283)" fill="#CBDDF7"/>
</g>
<g id="Rectangle 7 Copy 9">
<use xlink:href="#path20_fill" transform="translate(3098 11282)" fill="#CBDDF7"/>
</g>
<g id="Rectangle 7 Copy 24">
<use xlink:href="#path17_fill" transform="translate(3102 11279)" fill="#CBDDF7"/>
</g>
<g id="Rectangle 7 Copy 23">
<use xlink:href="#path21_fill" transform="translate(3106 11266)" fill="#CBDDF7"/>
</g>
<g id="Rectangle 7 Copy 22">
<use xlink:href="#path22_fill" transform="translate(3110 11270.7)" fill="#CBDDF7"/>
</g>
<g id="Rectangle 7 Copy 21">
<use xlink:href="#path23_fill" transform="translate(3114 11264.8)" fill="#CBDDF7"/>
</g>
<g id="Rectangle 7 Copy 20">
<use xlink:href="#path24_fill" transform="translate(3118 11260)" fill="#CBDDF7"/>
</g>
<g id="Rectangle 7 Copy 19">
<use xlink:href="#path23_fill" transform="translate(3122 11264.8)" fill="#CBDDF7"/>
</g>
<g id="Rectangle 7 Copy 18">
<use xlink:href="#path25_fill" transform="translate(3126 11262.4)" fill="#CBDDF7"/>
</g>
<g id="Rectangle 7 Copy 17">
<use xlink:href="#path26_fill" transform="translate(3130 11256)" fill="#CBDDF7"/>
</g>
<g id="Rectangle 7 Copy 31">
<use xlink:href="#path21_fill" transform="translate(3134 11266)" fill="#CBDDF7"/>
</g>
<g id="Rectangle 7 Copy 30">
<use xlink:href="#path27_fill" transform="translate(3138 11243)" fill="#CBDDF7"/>
</g>
<g id="Rectangle 7 Copy 29">
<use xlink:href="#path28_fill" transform="translate(3142 11253)" fill="#CBDDF7"/>
</g>
<g id="Rectangle 7 Copy 28">
<use xlink:href="#path21_fill" transform="translate(3146 11267)" fill="#CBDDF7"/>
</g>
<g id="Rectangle 7 Copy 27">
<use xlink:href="#path23_fill" transform="translate(3150 11265.8)" fill="#CBDDF7"/>
</g>
<g id="Rectangle 7 Copy 26">
<use xlink:href="#path24_fill" transform="translate(3154 11261)" fill="#CBDDF7"/>
</g>
<g id="Rectangle 7 Copy 25">
<use xlink:href="#path26_fill" transform="translate(3158 11257)" fill="#CBDDF7"/>
</g>
<g id="Rectangle 7 Copy 35">
<use xlink:href="#path29_fill" transform="translate(3162 11250)" fill="#CBDDF7"/>
</g>
<g id="Rectangle 7 Copy 34">
<use xlink:href="#path24_fill" transform="translate(3166 11261)" fill="#CBDDF7"/>
</g>
<g id="Rectangle 7 Copy 33">
<use xlink:href="#path21_fill" transform="translate(3170 11267)" fill="#CBDDF7"/>
</g>
<g id="Rectangle 7 Copy 32">
<use xlink:href="#path24_fill" transform="translate(3174 11261)" fill="#CBDDF7"/>
</g>
<g id="Rectangle 7 Copy 40">
<use xlink:href="#path30_fill" transform="translate(3178 11274)" fill="#CBDDF7"/>
</g>
<g id="Rectangle 7 Copy 39">
<use xlink:href="#path17_fill" transform="translate(3182 11280)" fill="#CBDDF7"/>
</g>
<g id="Rectangle 7 Copy 38">
<use xlink:href="#path31_fill" transform="translate(3186 11272)" fill="#CBDDF7"/>
</g>
<g id="Rectangle 7 Copy 44">
<use xlink:href="#path17_fill" transform="translate(3190 11280)" fill="#CBDDF7"/>
</g>
<g id="Rectangle 7 Copy 43">
<use xlink:href="#path17_fill" transform="translate(3194 11280)" fill="#CBDDF7"/>
</g>
<g id="Rectangle 7 Copy 42">
<use xlink:href="#path16_fill" transform="translate(3198 11284)" fill="#CBDDF7"/>
</g>
<g id="Rectangle 7 Copy 41">
<use xlink:href="#path17_fill" transform="translate(3202 11280)" fill="#CBDDF7"/>
</g>
<g id="Rectangle 7 Copy 52">
<use xlink:href="#path17_fill" transform="translate(3206 11280)" fill="#CBDDF7"/>
</g>
<g id="Rectangle 7 Copy 51">
<use xlink:href="#path30_fill" transform="translate(3210 11274)" fill="#CBDDF7"/>
</g>
<g id="Rectangle 7 Copy 50">
<use xlink:href="#path19_fill" transform="translate(3214 11285)" fill="#CBDDF7"/>
</g>
<g id="Rectangle 7 Copy 49">
<use xlink:href="#path15_fill" transform="translate(3218 11293)" fill="#CBDDF7"/>
</g>
<g id="Rectangle 7 Copy 48">
<use xlink:href="#path12_fill" transform="translate(3222 11295)" fill="#CBDDF7"/>
</g>
<g id="Rectangle 7 Copy 47">
<use xlink:href="#path14_fill" transform="translate(3226 11287)" fill="#CBDDF7"/>
</g>
<g id="Rectangle 7 Copy 46">
<use xlink:href="#path15_fill" transform="translate(3230 11293)" fill="#CBDDF7"/>
</g>
<g id="Rectangle 7 Copy 45">
<use xlink:href="#path17_fill" transform="translate(3234 11280)" fill="#CBDDF7"/>
</g>
<g id="Rectangle 7 Copy 54">
<use xlink:href="#path32_fill" transform="translate(3248 11293)" fill="#CBDDF7"/>
</g>
<g id="Rectangle 7 Copy 53">
<use xlink:href="#path33_fill" transform="translate(3256 11295)" fill="#CBDDF7"/>
</g>
<g id="Rectangle 5 Copy 14">
<use xlink:href="#path34_fill" transform="translate(3019 11296)" fill="#E8F1FF"/>
</g>
<g id="Rectangle 5 Copy 13">
<use xlink:href="#path35_fill" transform="translate(3077 11296)" fill="#71A2EA"/>
</g>
<g id="Oval Copy 5">
<use xlink:href="#path36_fill" transform="translate(3070 11287)" fill="#71A2EA"/>
<mask id="mask3_outline_ins">
<use xlink:href="#path36_fill" fill="white" transform="translate(3070 11287)"/>
</mask>
<g mask="url(#mask3_outline_ins)">
<use xlink:href="#path37_stroke_2x" transform="translate(3070 11287)" fill="#7CACF3"/>
</g>
</g>
<g id="Oval Copy 4">
<use xlink:href="#path36_fill" transform="translate(3271 11287)" fill="#71A2EA"/>
<mask id="mask4_outline_ins">
<use xlink:href="#path36_fill" fill="white" transform="translate(3271 11287)"/>
</mask>
<g mask="url(#mask4_outline_ins)">
<use xlink:href="#path37_stroke_2x" transform="translate(3271 11287)" fill="#7CACF3"/>
</g>
</g>
</g>
</g>
<defs>
<path id="path0_fill" fill-rule="evenodd" d="M 0 4C 0 1.79086 1.79086 0 4 0L 336 0C 338.209 0 340 1.79086 340 4L 340 211C 340 213.209 338.209 215 336 215L 4 215C 1.79086 215 0 213.209 0 211L 0 4Z"/>
<path id="path1_stroke_2x" d="M 4 1L 336 1L 336 -1L 4 -1L 4 1ZM 339 4L 339 211L 341 211L 341 4L 339 4ZM 336 214L 4 214L 4 216L 336 216L 336 214ZM 1 211L 1 4L -1 4L -1 211L 1 211ZM 4 -1C 1.23858 -1 -1 1.23858 -1 4L 1 4C 1 2.34315 2.34315 1 4 1L 4 -1ZM 336 1C 337.657 1 339 2.34315 339 4L 341 4C 341 1.23858 338.761 -1 336 -1L 336 1ZM 339 211C 339 212.657 337.657 214 336 214L 336 216C 338.761 216 341 213.761 341 211L 339 211ZM 4 214C 2.34315 214 1 212.657 1 211L -1 211C -1 213.761 1.23858 216 4 216L 4 214Z"/>
<path id="path2_fill" fill-rule="evenodd" d="M 0 4C 0 1.79086 1.79086 0 4 0L 146 0C 148.209 0 150 1.79086 150 4L 150 32C 150 34.2091 148.209 36 146 36L 4 36C 1.79086 36 0 34.2091 0 32L 0 4Z"/>
<path id="path3_fill" fill-rule="evenodd" d="M 0 4C 0 1.79086 1.79086 0 4 0L 75 0L 75 36L 4 36C 1.79086 36 0 34.2091 0 32L 0 4Z"/>
<path id="path4_fill" d="M 2.99658 14.2686L 2.99658 19L 1.40283 19L 1.40283 6.91406L 5.86035 6.91406C 7.18294 6.91406 8.21777 7.25163 8.96484 7.92676C 9.71745 8.60189 10.0938 9.49561 10.0938 10.6079C 10.0938 11.7811 9.72575 12.6859 8.98975 13.3223C 8.25928 13.9531 7.21061 14.2686 5.84375 14.2686L 2.99658 14.2686ZM 2.99658 12.9653L 5.86035 12.9653C 6.71257 12.9653 7.36556 12.7661 7.81934 12.3677C 8.27311 11.9637 8.5 11.3826 8.5 10.6245C 8.5 9.90511 8.27311 9.32959 7.81934 8.89795C 7.36556 8.46631 6.743 8.24219 5.95166 8.22559L 2.99658 8.22559L 2.99658 12.9653ZM 16.228 11.3965C 15.9956 11.3577 15.7438 11.3384 15.4727 11.3384C 14.4655 11.3384 13.7821 11.7673 13.4224 12.625L 13.4224 19L 11.8867 19L 11.8867 10.0186L 13.3809 10.0186L 13.4058 11.0562C 13.9093 10.2537 14.6232 9.85254 15.5474 9.85254C 15.8462 9.85254 16.0731 9.89128 16.228 9.96875L 16.228 11.3965ZM 19.3159 19L 17.7803 19L 17.7803 10.0186L 19.3159 10.0186L 19.3159 19ZM 17.6558 7.63623C 17.6558 7.38721 17.7305 7.17692 17.8799 7.00537C 18.0348 6.83382 18.2617 6.74805 18.5605 6.74805C 18.8594 6.74805 19.0863 6.83382 19.2412 7.00537C 19.3962 7.17692 19.4736 7.38721 19.4736 7.63623C 19.4736 7.88525 19.3962 8.09277 19.2412 8.25879C 19.0863 8.4248 18.8594 8.50781 18.5605 8.50781C 18.2617 8.50781 18.0348 8.4248 17.8799 8.25879C 17.7305 8.09277 17.6558 7.88525 17.6558 7.63623ZM 25.3838 17.9126C 25.9316 17.9126 26.4103 17.7466 26.8198 17.4146C 27.2293 17.0825 27.4562 16.6675 27.5005 16.1694L 28.9531 16.1694C 28.9255 16.6841 28.7484 17.1738 28.4219 17.6387C 28.0954 18.1035 27.6582 18.4743 27.1104 18.751C 26.568 19.0277 25.9925 19.166 25.3838 19.166C 24.1608 19.166 23.1868 18.7593 22.4619 17.9458C 21.7425 17.1268 21.3828 16.009 21.3828 14.5923L 21.3828 14.335C 21.3828 13.4606 21.5433 12.6831 21.8643 12.0024C 22.1852 11.3218 22.6445 10.7933 23.2422 10.417C 23.8454 10.0407 24.5565 9.85254 25.3755 9.85254C 26.3826 9.85254 27.2183 10.1541 27.8823 10.7573C 28.5519 11.3605 28.9089 12.1436 28.9531 13.1064L 27.5005 13.1064C 27.4562 12.5254 27.2349 12.0495 26.8364 11.6787C 26.4435 11.3024 25.9565 11.1143 25.3755 11.1143C 24.5952 11.1143 23.9893 11.3965 23.5576 11.9609C 23.1315 12.5199 22.9185 13.3306 22.9185 14.3931L 22.9185 14.6836C 22.9185 15.7184 23.1315 16.5153 23.5576 17.0742C 23.9837 17.6331 24.5924 17.9126 25.3838 17.9126ZM 34.4067 19.166C 33.1893 19.166 32.1987 18.7676 31.4351 17.9707C 30.6714 17.1683 30.2896 16.0975 30.2896 14.7583L 30.2896 14.4761C 30.2896 13.5851 30.4583 12.791 30.7959 12.0938C 31.139 11.391 31.6149 10.8431 32.2236 10.4502C 32.8379 10.0518 33.502 9.85254 34.2158 9.85254C 35.3835 9.85254 36.291 10.2371 36.9385 11.0063C 37.5859 11.7756 37.9097 12.8768 37.9097 14.3101L 37.9097 14.9492L 31.8252 14.9492C 31.8473 15.8346 32.1047 16.5513 32.5972 17.0991C 33.0952 17.6414 33.7261 17.9126 34.4897 17.9126C 35.0321 17.9126 35.4914 17.8019 35.8677 17.5806C 36.244 17.3592 36.5732 17.0659 36.8555 16.7007L 37.7935 17.4312C 37.0409 18.5877 35.9119 19.166 34.4067 19.166ZM 34.2158 11.1143C 33.596 11.1143 33.0758 11.3411 32.6553 11.7949C 32.2347 12.2432 31.9746 12.874 31.875 13.6875L 36.374 13.6875L 36.374 13.5713C 36.3298 12.791 36.1195 12.1878 35.7432 11.7617C 35.3669 11.3301 34.8577 11.1143 34.2158 11.1143ZM 51.498 14.6089C 51.498 15.9757 51.1854 17.077 50.5601 17.9126C 49.9347 18.7482 49.0881 19.166 48.02 19.166C 46.9299 19.166 46.0721 18.8201 45.4468 18.1284L 45.4468 22.4531L 43.9111 22.4531L 43.9111 10.0186L 45.314 10.0186L 45.3887 11.0146C 46.014 10.2399 46.8828 9.85254 47.9951 9.85254C 49.0742 9.85254 49.9264 10.2593 50.5518 11.0728C 51.1826 11.8862 51.498 13.0179 51.498 14.4678L 51.498 14.6089ZM 49.9624 14.4346C 49.9624 13.4219 49.7466 12.6222 49.3149 12.0356C 48.8833 11.4491 48.2912 11.1558 47.5386 11.1558C 46.6089 11.1558 45.9116 11.568 45.4468 12.3926L 45.4468 16.6841C 45.9061 17.5031 46.6089 17.9126 47.5552 17.9126C 48.2912 17.9126 48.875 17.6221 49.3066 17.041C 49.7438 16.4544 49.9624 15.5856 49.9624 14.4346ZM 57.1841 19.166C 55.9666 19.166 54.9761 18.7676 54.2124 17.9707C 53.4487 17.1683 53.0669 16.0975 53.0669 14.7583L 53.0669 14.4761C 53.0669 13.5851 53.2357 12.791 53.5732 12.0938C 53.9163 11.391 54.3923 10.8431 55.001 10.4502C 55.6152 10.0518 56.2793 9.85254 56.9932 9.85254C 58.1608 9.85254 59.0684 10.2371 59.7158 11.0063C 60.3633 11.7756 60.687 12.8768 60.687 14.3101L 60.687 14.9492L 54.6025 14.9492C 54.6247 15.8346 54.882 16.5513 55.3745 17.0991C 55.8726 17.6414 56.5034 17.9126 57.2671 17.9126C 57.8094 17.9126 58.2687 17.8019 58.645 17.5806C 59.0213 17.3592 59.3506 17.0659 59.6328 16.7007L 60.5708 17.4312C 59.8182 18.5877 58.6893 19.166 57.1841 19.166ZM 56.9932 11.1143C 56.3734 11.1143 55.8532 11.3411 55.4326 11.7949C 55.012 12.2432 54.752 12.874 54.6523 13.6875L 59.1514 13.6875L 59.1514 13.5713C 59.1071 12.791 58.8968 12.1878 58.5205 11.7617C 58.1442 11.3301 57.6351 11.1143 56.9932 11.1143ZM 66.813 11.3965C 66.5806 11.3577 66.3288 11.3384 66.0576 11.3384C 65.0505 11.3384 64.367 11.7673 64.0073 12.625L 64.0073 19L 62.4717 19L 62.4717 10.0186L 63.9658 10.0186L 63.9907 11.0562C 64.4943 10.2537 65.2082 9.85254 66.1323 9.85254C 66.4312 9.85254 66.658 9.89128 66.813 9.96875L 66.813 11.3965Z"/>
<path id="path5_fill" d="M 0.742188 14.7031C 0.742188 13.4062 1.04948 12.3646 1.66406 11.5781C 2.27865 10.7865 3.08333 10.3906 4.07812 10.3906C 5.06771 10.3906 5.85156 10.7292 6.42969 11.4062L 6.42969 7L 7.875 7L 7.875 19L 6.54688 19L 6.47656 18.0938C 5.89844 18.8021 5.09375 19.1562 4.0625 19.1562C 3.08333 19.1562 2.28385 18.7552 1.66406 17.9531C 1.04948 17.151 0.742188 16.1042 0.742188 14.8125L 0.742188 14.7031ZM 2.1875 14.8672C 2.1875 15.8255 2.38542 16.5755 2.78125 17.1172C 3.17708 17.6589 3.72396 17.9297 4.42188 17.9297C 5.33854 17.9297 6.00781 17.5182 6.42969 16.6953L 6.42969 12.8125C 5.9974 12.0156 5.33333 11.6172 4.4375 11.6172C 3.72917 11.6172 3.17708 11.8906 2.78125 12.4375C 2.38542 12.9844 2.1875 13.7943 2.1875 14.8672ZM 15.3438 19C 15.2604 18.8333 15.1927 18.5365 15.1406 18.1094C 14.4688 18.8073 13.6667 19.1562 12.7344 19.1562C 11.901 19.1562 11.2161 18.9219 10.6797 18.4531C 10.1484 17.9792 9.88281 17.3802 9.88281 16.6562C 9.88281 15.776 10.2161 15.0938 10.8828 14.6094C 11.5547 14.1198 12.4974 13.875 13.7109 13.875L 15.1172 13.875L 15.1172 13.2109C 15.1172 12.7057 14.9661 12.3047 14.6641 12.0078C 14.362 11.7057 13.9167 11.5547 13.3281 11.5547C 12.8125 11.5547 12.3802 11.6849 12.0312 11.9453C 11.6823 12.2057 11.5078 12.5208 11.5078 12.8906L 10.0547 12.8906C 10.0547 12.4688 10.2031 12.0625 10.5 11.6719C 10.8021 11.276 11.2083 10.9635 11.7188 10.7344C 12.2344 10.5052 12.7995 10.3906 13.4141 10.3906C 14.388 10.3906 15.151 10.6354 15.7031 11.125C 16.2552 11.6094 16.5417 12.2786 16.5625 13.1328L 16.5625 17.0234C 16.5625 17.7995 16.6615 18.4167 16.8594 18.875L 16.8594 19L 15.3438 19ZM 12.9453 17.8984C 13.3984 17.8984 13.8281 17.7812 14.2344 17.5469C 14.6406 17.3125 14.9349 17.0078 15.1172 16.6328L 15.1172 14.8984L 13.9844 14.8984C 12.2135 14.8984 11.3281 15.4167 11.3281 16.4531C 11.3281 16.9062 11.4792 17.2604 11.7812 17.5156C 12.0833 17.7708 12.4714 17.8984 12.9453 17.8984ZM 21.4688 16.8828L 23.4375 10.5469L 24.9844 10.5469L 21.5859 20.3047C 21.0599 21.7109 20.224 22.4141 19.0781 22.4141L 18.8047 22.3906L 18.2656 22.2891L 18.2656 21.1172L 18.6562 21.1484C 19.1458 21.1484 19.526 21.0495 19.7969 20.8516C 20.0729 20.6536 20.2995 20.2917 20.4766 19.7656L 20.7969 18.9062L 17.7812 10.5469L 19.3594 10.5469L 21.4688 16.8828Z"/>
<path id="path6_fill" d="M 8.57812 17.0078L 10.2031 10.5469L 11.6484 10.5469L 9.1875 19L 8.01562 19L 5.96094 12.5938L 3.96094 19L 2.78906 19L 0.335938 10.5469L 1.77344 10.5469L 3.4375 16.875L 5.40625 10.5469L 6.57031 10.5469L 8.57812 17.0078ZM 16.6328 19.1562C 15.487 19.1562 14.5547 18.7812 13.8359 18.0312C 13.1172 17.276 12.7578 16.2682 12.7578 15.0078L 12.7578 14.7422C 12.7578 13.9036 12.9167 13.1562 13.2344 12.5C 13.5573 11.8385 14.0052 11.3229 14.5781 10.9531C 15.1562 10.5781 15.7812 10.3906 16.4531 10.3906C 17.5521 10.3906 18.4062 10.7526 19.0156 11.4766C 19.625 12.2005 19.9297 13.237 19.9297 14.5859L 19.9297 15.1875L 14.2031 15.1875C 14.224 16.0208 14.4661 16.6953 14.9297 17.2109C 15.3984 17.7214 15.9922 17.9766 16.7109 17.9766C 17.2214 17.9766 17.6536 17.8724 18.0078 17.6641C 18.362 17.4557 18.6719 17.1797 18.9375 16.8359L 19.8203 17.5234C 19.112 18.612 18.0495 19.1562 16.6328 19.1562ZM 16.4531 11.5781C 15.8698 11.5781 15.3802 11.7917 14.9844 12.2188C 14.5885 12.6406 14.3438 13.2344 14.25 14L 18.4844 14L 18.4844 13.8906C 18.4427 13.1562 18.2448 12.5885 17.8906 12.1875C 17.5365 11.7812 17.0573 11.5781 16.4531 11.5781ZM 25.1172 19.1562C 23.9714 19.1562 23.0391 18.7812 22.3203 18.0312C 21.6016 17.276 21.2422 16.2682 21.2422 15.0078L 21.2422 14.7422C 21.2422 13.9036 21.401 13.1562 21.7188 12.5C 22.0417 11.8385 22.4896 11.3229 23.0625 10.9531C 23.6406 10.5781 24.2656 10.3906 24.9375 10.3906C 26.0365 10.3906 26.8906 10.7526 27.5 11.4766C 28.1094 12.2005 28.4141 13.237 28.4141 14.5859L 28.4141 15.1875L 22.6875 15.1875C 22.7083 16.0208 22.9505 16.6953 23.4141 17.2109C 23.8828 17.7214 24.4766 17.9766 25.1953 17.9766C 25.7057 17.9766 26.138 17.8724 26.4922 17.6641C 26.8464 17.4557 27.1562 17.1797 27.4219 16.8359L 28.3047 17.5234C 27.5964 18.612 26.5339 19.1562 25.1172 19.1562ZM 24.9375 11.5781C 24.3542 11.5781 23.8646 11.7917 23.4688 12.2188C 23.0729 12.6406 22.8281 13.2344 22.7344 14L 26.9688 14L 26.9688 13.8906C 26.9271 13.1562 26.7292 12.5885 26.375 12.1875C 26.0208 11.7812 25.5417 11.5781 24.9375 11.5781ZM 32.4531 15.0859L 31.5469 16.0312L 31.5469 19L 30.1016 19L 30.1016 7L 31.5469 7L 31.5469 14.2578L 32.3203 13.3281L 34.9531 10.5469L 36.7109 10.5469L 33.4219 14.0781L 37.0938 19L 35.3984 19L 32.4531 15.0859Z"/>
<path id="path7_fill" fill-rule="evenodd" d="M 0 4C 0 1.79086 1.79086 0 4 0L 62 0C 64.2091 0 66 1.79086 66 4L 66 32C 66 34.2091 64.2091 36 62 36L 4 36C 1.79086 36 0 34.2091 0 32L 0 4Z"/>
<path id="path8_stroke_2x" d="M 4 1L 62 1L 62 -1L 4 -1L 4 1ZM 65 4L 65 32L 67 32L 67 4L 65 4ZM 62 35L 4 35L 4 37L 62 37L 62 35ZM 1 32L 1 4L -1 4L -1 32L 1 32ZM 4 -1C 1.23858 -1 -1 1.23858 -1 4L 1 4C 1 2.34315 2.34315 1 4 1L 4 -1ZM 62 1C 63.6569 1 65 2.34315 65 4L 67 4C 67 1.23858 64.7614 -1 62 -1L 62 1ZM 65 32C 65 33.6569 63.6569 35 62 35L 62 37C 64.7614 37 67 34.7614 67 32L 65 32ZM 4 35C 2.34315 35 1 33.6569 1 32L -1 32C -1 34.7614 1.23858 37 4 37L 4 35Z"/>
<path id="path9_fill" d="M 6.63281 14.7734L 3.63281 14.7734C 3.65365 15.7891 3.89844 16.5703 4.36719 17.1172C 4.83594 17.6641 5.5 17.9375 6.35938 17.9375C 6.96354 17.9375 7.53125 17.849 8.0625 17.6719L 8.21875 18.9219C 7.59375 19.0781 6.96875 19.1562 6.34375 19.1562C 5.05208 19.1562 4.03385 18.776 3.28906 18.0156C 2.54948 17.25 2.16406 16.1693 2.13281 14.7734L 0.742188 14.7734L 0.742188 13.8047L 2.13281 13.8047L 2.13281 12.7344L 0.742188 12.7344L 0.742188 11.7578L 2.13281 11.7578C 2.1849 10.3932 2.58073 9.33854 3.32031 8.59375C 4.0651 7.84375 5.07031 7.46875 6.33594 7.46875C 6.88802 7.46875 7.51562 7.54948 8.21875 7.71094L 8.0625 8.97656C 7.49479 8.79427 6.92448 8.70312 6.35156 8.70312C 5.4974 8.70312 4.83854 8.96875 4.375 9.5C 3.91667 10.026 3.67188 10.7786 3.64062 11.7578L 6.63281 11.7578L 6.63281 12.7344L 3.63281 12.7344L 3.63281 13.8047L 6.63281 13.8047L 6.63281 14.7734ZM 10.5938 13.2969L 11.1719 7.625L 17 7.625L 17 8.96094L 12.3984 8.96094L 12.0547 12.0625C 12.612 11.7344 13.2448 11.5703 13.9531 11.5703C 14.9896 11.5703 15.8125 11.9141 16.4219 12.6016C 17.0312 13.2839 17.3359 14.2083 17.3359 15.375C 17.3359 16.5469 17.0182 17.4714 16.3828 18.1484C 15.7526 18.8203 14.8698 19.1562 13.7344 19.1562C 12.7292 19.1562 11.9089 18.8776 11.2734 18.3203C 10.638 17.763 10.276 16.9922 10.1875 16.0078L 11.5547 16.0078C 11.6432 16.6589 11.875 17.151 12.25 17.4844C 12.625 17.8125 13.1198 17.9766 13.7344 17.9766C 14.4062 17.9766 14.9323 17.7474 15.3125 17.2891C 15.6979 16.8307 15.8906 16.1979 15.8906 15.3906C 15.8906 14.6302 15.6823 14.0208 15.2656 13.5625C 14.8542 13.099 14.3047 12.8672 13.6172 12.8672C 12.987 12.8672 12.4922 13.0052 12.1328 13.2812L 11.75 13.5938L 10.5938 13.2969ZM 25.0156 15.1797L 26.5938 15.1797L 26.5938 16.3594L 25.0156 16.3594L 25.0156 19L 23.5625 19L 23.5625 16.3594L 18.3828 16.3594L 18.3828 15.5078L 23.4766 7.625L 25.0156 7.625L 25.0156 15.1797ZM 20.0234 15.1797L 23.5625 15.1797L 23.5625 9.60156L 23.3906 9.91406L 20.0234 15.1797ZM 30 12.6094L 31.0859 12.6094C 31.7682 12.599 32.3047 12.4193 32.6953 12.0703C 33.0859 11.7214 33.2812 11.25 33.2812 10.6562C 33.2812 9.32292 32.6172 8.65625 31.2891 8.65625C 30.6641 8.65625 30.1641 8.83594 29.7891 9.19531C 29.4193 9.54948 29.2344 10.0208 29.2344 10.6094L 27.7891 10.6094C 27.7891 9.70833 28.1172 8.96094 28.7734 8.36719C 29.4349 7.76823 30.2734 7.46875 31.2891 7.46875C 32.362 7.46875 33.2031 7.7526 33.8125 8.32031C 34.4219 8.88802 34.7266 9.67708 34.7266 10.6875C 34.7266 11.1823 34.5651 11.6615 34.2422 12.125C 33.9245 12.5885 33.4896 12.9349 32.9375 13.1641C 33.5625 13.362 34.0443 13.6901 34.3828 14.1484C 34.7266 14.6068 34.8984 15.1667 34.8984 15.8281C 34.8984 16.849 34.5651 17.6589 33.8984 18.2578C 33.2318 18.8568 32.3646 19.1562 31.2969 19.1562C 30.2292 19.1562 29.3594 18.8672 28.6875 18.2891C 28.0208 17.7109 27.6875 16.9479 27.6875 16L 29.1406 16C 29.1406 16.599 29.3359 17.0781 29.7266 17.4375C 30.1172 17.7969 30.6406 17.9766 31.2969 17.9766C 31.9948 17.9766 32.5286 17.7943 32.8984 17.4297C 33.2682 17.0651 33.4531 16.5417 33.4531 15.8594C 33.4531 15.1979 33.25 14.6901 32.8438 14.3359C 32.4375 13.9818 31.8516 13.7995 31.0859 13.7891L 30 13.7891L 30 12.6094ZM 37.5469 13.2969L 38.125 7.625L 43.9531 7.625L 43.9531 8.96094L 39.3516 8.96094L 39.0078 12.0625C 39.5651 11.7344 40.1979 11.5703 40.9062 11.5703C 41.9427 11.5703 42.7656 11.9141 43.375 12.6016C 43.9844 13.2839 44.2891 14.2083 44.2891 15.375C 44.2891 16.5469 43.9714 17.4714 43.3359 18.1484C 42.7057 18.8203 41.8229 19.1562 40.6875 19.1562C 39.6823 19.1562 38.862 18.8776 38.2266 18.3203C 37.5911 17.763 37.2292 16.9922 37.1406 16.0078L 38.5078 16.0078C 38.5964 16.6589 38.8281 17.151 39.2031 17.4844C 39.5781 17.8125 40.0729 17.9766 40.6875 17.9766C 41.3594 17.9766 41.8854 17.7474 42.2656 17.2891C 42.651 16.8307 42.8438 16.1979 42.8438 15.3906C 42.8438 14.6302 42.6354 14.0208 42.2188 13.5625C 41.8073 13.099 41.2578 12.8672 40.5703 12.8672C 39.9401 12.8672 39.4453 13.0052 39.0859 13.2812L 38.7031 13.5938L 37.5469 13.2969Z"/>
<path id="path10_fill" d="M 6.63281 14.7734L 3.63281 14.7734C 3.65365 15.7891 3.89844 16.5703 4.36719 17.1172C 4.83594 17.6641 5.5 17.9375 6.35938 17.9375C 6.96354 17.9375 7.53125 17.849 8.0625 17.6719L 8.21875 18.9219C 7.59375 19.0781 6.96875 19.1562 6.34375 19.1562C 5.05208 19.1562 4.03385 18.776 3.28906 18.0156C 2.54948 17.25 2.16406 16.1693 2.13281 14.7734L 0.742188 14.7734L 0.742188 13.8047L 2.13281 13.8047L 2.13281 12.7344L 0.742188 12.7344L 0.742188 11.7578L 2.13281 11.7578C 2.1849 10.3932 2.58073 9.33854 3.32031 8.59375C 4.0651 7.84375 5.07031 7.46875 6.33594 7.46875C 6.88802 7.46875 7.51562 7.54948 8.21875 7.71094L 8.0625 8.97656C 7.49479 8.79427 6.92448 8.70312 6.35156 8.70312C 5.4974 8.70312 4.83854 8.96875 4.375 9.5C 3.91667 10.026 3.67188 10.7786 3.64062 11.7578L 6.63281 11.7578L 6.63281 12.7344L 3.63281 12.7344L 3.63281 13.8047L 6.63281 13.8047L 6.63281 14.7734ZM 16.8281 10.5938C 16.8281 11.1615 16.6771 11.6667 16.375 12.1094C 16.0781 12.5521 15.6745 12.8984 15.1641 13.1484C 15.7578 13.4036 16.2266 13.776 16.5703 14.2656C 16.9193 14.7552 17.0938 15.3099 17.0938 15.9297C 17.0938 16.9141 16.7604 17.6979 16.0938 18.2812C 15.4323 18.8646 14.5599 19.1562 13.4766 19.1562C 12.3828 19.1562 11.5052 18.8646 10.8438 18.2812C 10.1875 17.6927 9.85938 16.9089 9.85938 15.9297C 9.85938 15.3151 10.026 14.7604 10.3594 14.2656C 10.6979 13.7708 11.1641 13.3958 11.7578 13.1406C 11.2526 12.8906 10.8542 12.5443 10.5625 12.1016C 10.2708 11.6589 10.125 11.1562 10.125 10.5938C 10.125 9.63542 10.4323 8.875 11.0469 8.3125C 11.6615 7.75 12.4714 7.46875 13.4766 7.46875C 14.4766 7.46875 15.2839 7.75 15.8984 8.3125C 16.5182 8.875 16.8281 9.63542 16.8281 10.5938ZM 15.6484 15.8984C 15.6484 15.263 15.4453 14.7448 15.0391 14.3438C 14.638 13.9427 14.112 13.7422 13.4609 13.7422C 12.8099 13.7422 12.2865 13.9401 11.8906 14.3359C 11.5 14.7318 11.3047 15.2526 11.3047 15.8984C 11.3047 16.5443 11.4948 17.0521 11.875 17.4219C 12.2604 17.7917 12.7943 17.9766 13.4766 17.9766C 14.1536 17.9766 14.6849 17.7917 15.0703 17.4219C 15.4557 17.0469 15.6484 16.5391 15.6484 15.8984ZM 13.4766 8.65625C 12.9089 8.65625 12.4479 8.83333 12.0938 9.1875C 11.7448 9.53646 11.5703 10.013 11.5703 10.6172C 11.5703 11.1953 11.7422 11.6641 12.0859 12.0234C 12.4349 12.3776 12.8984 12.5547 13.4766 12.5547C 14.0547 12.5547 14.5156 12.3776 14.8594 12.0234C 15.2083 11.6641 15.3828 11.1953 15.3828 10.6172C 15.3828 10.0391 15.2031 9.56771 14.8438 9.20312C 14.4844 8.83854 14.0286 8.65625 13.4766 8.65625ZM 24.5859 7.61719L 24.5859 8.84375L 24.3203 8.84375C 23.1953 8.86458 22.2995 9.19792 21.6328 9.84375C 20.9661 10.4896 20.5807 11.3984 20.4766 12.5703C 21.0755 11.8828 21.8932 11.5391 22.9297 11.5391C 23.9193 11.5391 24.7083 11.888 25.2969 12.5859C 25.8906 13.2839 26.1875 14.1849 26.1875 15.2891C 26.1875 16.4609 25.8672 17.3984 25.2266 18.1016C 24.5911 18.8047 23.737 19.1562 22.6641 19.1562C 21.5755 19.1562 20.6927 18.7396 20.0156 17.9062C 19.3385 17.0677 19 15.9896 19 14.6719L 19 14.1172C 19 12.0234 19.4453 10.4245 20.3359 9.32031C 21.2318 8.21094 22.5625 7.64323 24.3281 7.61719L 24.5859 7.61719ZM 22.6875 12.7422C 22.1927 12.7422 21.737 12.8906 21.3203 13.1875C 20.9036 13.4844 20.6146 13.8568 20.4531 14.3047L 20.4531 14.8359C 20.4531 15.7734 20.6641 16.5286 21.0859 17.1016C 21.5078 17.6745 22.0339 17.9609 22.6641 17.9609C 23.3151 17.9609 23.8255 17.7214 24.1953 17.2422C 24.5703 16.763 24.7578 16.1354 24.7578 15.3594C 24.7578 14.5781 24.5677 13.9479 24.1875 13.4688C 23.8125 12.9844 23.3125 12.7422 22.6875 12.7422ZM 28.5625 13.2969L 29.1406 7.625L 34.9688 7.625L 34.9688 8.96094L 30.3672 8.96094L 30.0234 12.0625C 30.5807 11.7344 31.2135 11.5703 31.9219 11.5703C 32.9583 11.5703 33.7812 11.9141 34.3906 12.6016C 35 13.2839 35.3047 14.2083 35.3047 15.375C 35.3047 16.5469 34.987 17.4714 34.3516 18.1484C 33.7214 18.8203 32.8385 19.1562 31.7031 19.1562C 30.6979 19.1562 29.8776 18.8776 29.2422 18.3203C 28.6068 17.763 28.2448 16.9922 28.1562 16.0078L 29.5234 16.0078C 29.612 16.6589 29.8438 17.151 30.2188 17.4844C 30.5938 17.8125 31.0885 17.9766 31.7031 17.9766C 32.375 17.9766 32.901 17.7474 33.2812 17.2891C 33.6667 16.8307 33.8594 16.1979 33.8594 15.3906C 33.8594 14.6302 33.651 14.0208 33.2344 13.5625C 32.8229 13.099 32.2734 12.8672 31.5859 12.8672C 30.9557 12.8672 30.4609 13.0052 30.1016 13.2812L 29.7188 13.5938L 28.5625 13.2969Z"/>
<path id="path11_fill" fill-rule="evenodd" d="M 0 1C 0 0.447715 0.447715 0 1 0L 3 0C 3.55228 0 4 0.447715 4 1L 4 5C 4 5.55228 3.55228 6 3 6L 1 6C 0.447715 6 0 5.55228 0 5L 0 1Z"/>
<path id="path12_fill" fill-rule="evenodd" d="M 0 1C 0 0.447715 0.447715 0 1 0L 3 0C 3.55228 0 4 0.447715 4 1L 4 2C 4 2.55228 3.55228 3 3 3L 1 3C 0.447715 3 0 2.55228 0 2L 0 1Z"/>
<path id="path13_fill" fill-rule="evenodd" d="M 0 0.5C 0 0.223858 0.223858 0 0.5 0L 3.5 0C 3.77614 0 4 0.223858 4 0.5C 4 0.776142 3.77614 1 3.5 1L 0.5 1C 0.223858 1 0 0.776142 0 0.5Z"/>
<path id="path14_fill" fill-rule="evenodd" d="M 0 1C 0 0.447715 0.447715 0 1 0L 3 0C 3.55228 0 4 0.447715 4 1L 4 10C 4 10.5523 3.55228 11 3 11L 1 11C 0.447715 11 0 10.5523 0 10L 0 1Z"/>
<path id="path15_fill" fill-rule="evenodd" d="M 0 1C 0 0.447715 0.447715 0 1 0L 3 0C 3.55228 0 4 0.447715 4 1L 4 4C 4 4.55228 3.55228 5 3 5L 1 5C 0.447715 5 0 4.55228 0 4L 0 1Z"/>
<path id="path16_fill" fill-rule="evenodd" d="M 0 1C 0 0.447715 0.447715 0 1 0L 3 0C 3.55228 0 4 0.447715 4 1L 4 13C 4 13.5523 3.55228 14 3 14L 1 14C 0.447715 14 0 13.5523 0 13L 0 1Z"/>
<path id="path17_fill" fill-rule="evenodd" d="M 0 1C 0 0.447715 0.447715 0 1 0L 3 0C 3.55228 0 4 0.447715 4 1L 4 17C 4 17.5523 3.55228 18 3 18L 1 18C 0.447715 18 0 17.5523 0 17L 0 1Z"/>
<path id="path18_fill" fill-rule="evenodd" d="M 0 1C 0 0.447715 0.447715 0 1 0L 3 0C 3.55228 0 4 0.447715 4 1L 4 6C 4 6.55228 3.55228 7 3 7L 1 7C 0.447715 7 0 6.55228 0 6L 0 1Z"/>
<path id="path19_fill" fill-rule="evenodd" d="M 0 1C 0 0.447715 0.447715 0 1 0L 3 0C 3.55228 0 4 0.447715 4 1L 4 12C 4 12.5523 3.55228 13 3 13L 1 13C 0.447715 13 0 12.5523 0 12L 0 1Z"/>
<path id="path20_fill" fill-rule="evenodd" d="M 0 1C 0 0.447715 0.447715 0 1 0L 3 0C 3.55228 0 4 0.447715 4 1L 4 14C 4 14.5523 3.55228 15 3 15L 1 15C 0.447715 15 0 14.5523 0 14L 0 1Z"/>
<path id="path21_fill" fill-rule="evenodd" d="M 0 1C 0 0.447715 0.447715 0 1 0L 3 0C 3.55228 0 4 0.447715 4 1L 4 30C 4 30.5523 3.55228 31 3 31L 1 31C 0.447715 31 0 30.5523 0 30L 0 1Z"/>
<path id="path22_fill" fill-rule="evenodd" d="M 0 1C 0 0.447715 0.447715 0 1 0L 3 0C 3.55228 0 4 0.447715 4 1L 4 25.2581C 4 25.8103 3.55228 26.2581 3 26.2581L 1 26.2581C 0.447715 26.2581 0 25.8103 0 25.2581L 0 1Z"/>
<path id="path23_fill" fill-rule="evenodd" d="M 0 1C 0 0.447715 0.447715 0 1 0L 3 0C 3.55228 0 4 0.447715 4 1L 4 31.2258C 4 31.7781 3.55228 32.2258 3 32.2258L 1 32.2258C 0.447715 32.2258 0 31.7781 0 31.2258L 0 1Z"/>
<path id="path24_fill" fill-rule="evenodd" d="M 0 1C 0 0.447715 0.447715 0 1 0L 3 0C 3.55228 0 4 0.447715 4 1L 4 36C 4 36.5523 3.55228 37 3 37L 1 37C 0.447715 37 0 36.5523 0 36L 0 1Z"/>
<path id="path25_fill" fill-rule="evenodd" d="M 0 1C 0 0.447715 0.447715 0 1 0L 3 0C 3.55228 0 4 0.447715 4 1L 4 33.6129C 4 34.1652 3.55228 34.6129 3 34.6129L 1 34.6129C 0.447715 34.6129 0 34.1652 0 33.6129L 0 1Z"/>
<path id="path26_fill" fill-rule="evenodd" d="M 0 1C 0 0.447715 0.447715 0 1 0L 3 0C 3.55228 0 4 0.447715 4 1L 4 40C 4 40.5523 3.55228 41 3 41L 1 41C 0.447715 41 0 40.5523 0 40L 0 1Z"/>
<path id="path27_fill" fill-rule="evenodd" d="M 0 0L 4 0L 4 53L 0 53L 0 0Z"/>
<path id="path28_fill" fill-rule="evenodd" d="M 0 1C 0 0.447715 0.447715 0 1 0L 3 0C 3.55228 0 4 0.447715 4 1L 4 43C 4 43.5523 3.55228 44 3 44L 1 44C 0.447715 44 0 43.5523 0 43L 0 1Z"/>
<path id="path29_fill" fill-rule="evenodd" d="M 0 1C 0 0.447715 0.447715 0 1 0L 3 0C 3.55228 0 4 0.447715 4 1L 4 47C 4 47.5523 3.55228 48 3 48L 1 48C 0.447715 48 0 47.5523 0 47L 0 1Z"/>
<path id="path30_fill" fill-rule="evenodd" d="M 0 1C 0 0.447715 0.447715 0 1 0L 3 0C 3.55228 0 4 0.447715 4 1L 4 23C 4 23.5523 3.55228 24 3 24L 1 24C 0.447715 24 0 23.5523 0 23L 0 1Z"/>
<path id="path31_fill" fill-rule="evenodd" d="M 0 1C 0 0.447715 0.447715 0 1 0L 3 0C 3.55228 0 4 0.447715 4 1L 4 25C 4 25.5523 3.55228 26 3 26L 1 26C 0.447715 26 0 25.5523 0 25L 0 1Z"/>
<path id="path32_fill" fill-rule="evenodd" d="M 0 1C 0 0.447715 0.447715 0 1 0L 3 0C 3.55228 0 4 0.447715 4 1L 4 3C 4 3.55228 3.55228 4 3 4L 1 4C 0.447715 4 0 3.55228 0 3L 0 1Z"/>
<path id="path33_fill" fill-rule="evenodd" d="M 0 1C 0 0.447715 0.447715 0 1 0L 3 0C 3.55228 0 4 0.447716 4 1C 4 1.55228 3.55228 2 3 2L 1 2C 0.447715 2 0 1.55228 0 1Z"/>
<path id="path34_fill" fill-rule="evenodd" d="M 0 1C 0 0.447715 0.447715 0 1 0L 309 0C 309.552 0 310 0.447716 310 1C 310 1.55228 309.552 2 309 2L 1 2C 0.447715 2 0 1.55228 0 1Z"/>
<path id="path35_fill" fill-rule="evenodd" d="M 0 0L 204 0L 204 2L 0 2L 0 0Z"/>
<path id="path36_fill" fill-rule="evenodd" d="M 10 20C 15.5228 20 20 15.5228 20 10C 20 4.47715 15.5228 0 10 0C 4.47715 0 0 4.47715 0 10C 0 15.5228 4.47715 20 10 20Z"/>
<path id="path37_stroke_2x" d="M 10 21C 16.0751 21 21 16.0751 21 10L 19 10C 19 14.9706 14.9706 19 10 19L 10 21ZM 21 10C 21 3.92487 16.0751 -1 10 -1L 10 1C 14.9706 1 19 5.02944 19 10L 21 10ZM 10 -1C 3.92487 -1 -1 3.92487 -1 10L 1 10C 1 5.02944 5.02944 1 10 1L 10 -1ZM -1 10C -1 16.0751 3.92487 21 10 21L 10 19C 5.02944 19 1 14.9706 1 10L -1 10Z"/>
</defs>
</svg>
