<?xml version="1.0" encoding="utf-8"?>
<!-- Generator: Adobe Illustrator 21.0.0, SVG Export Plug-In . SVG Version: 6.00 Build 0)  -->
<svg version="1.1" id="Слой_1" xmlns="http://www.w3.org/2000/svg" xmlns:xlink="http://www.w3.org/1999/xlink" x="0px" y="0px"
	 viewBox="0 0 36.9 93.2" style="enable-background:new 0 0 36.9 93.2;" xml:space="preserve">
<style type="text/css">
	.st0{fill:#ED2C2F;}
</style>
<path class="st0" d="M4.6,93.2c-1,0-2-0.4-2.8-1.2c-1.6-1.6-1.6-4.1,0-5.7L30,58.1c1.6-1.6,4.1-1.6,5.7,0c1.6,1.6,1.6,4.1,0,5.7
	L7.4,92C6.6,92.8,5.6,93.2,4.6,93.2z"/>
<path class="st0" d="M4,37.2c-1,0-2-0.4-2.8-1.2c-1.6-1.6-1.6-4.1,0-5.7L29.5,2.1c1.6-1.6,4.1-1.6,5.7,0c1.6,1.6,1.6,4.1,0,5.7
	L6.8,36C6,36.8,5,37.2,4,37.2z"/>
<path class="st0" d="M11.1,58.4c-1,0-2-0.4-2.8-1.2c-1.6-1.6-1.6-4.1,0-5.7l14.1-14.1c1.6-1.6,4.1-1.6,5.7,0s1.6,4.1,0,5.7
	L13.9,57.3C13.1,58,12.1,58.4,11.1,58.4z"/>
</svg>
