<svg id="пипка_копия" data-name="пипка копия" xmlns="http://www.w3.org/2000/svg" width="40" height="67" viewBox="0 0 79 94">
  <metadata><?xpacket begin="﻿" id="W5M0MpCehiHzreSzNTczkc9d"?>
<x:xmpmeta xmlns:x="adobe:ns:meta/" x:xmptk="Adobe XMP Core 5.6-c138 79.159824, 2016/09/14-01:09:01        ">
   <rdf:RDF xmlns:rdf="http://www.w3.org/1999/02/22-rdf-syntax-ns#">
      <rdf:Description rdf:about=""/>
   </rdf:RDF>
</x:xmpmeta>
                                                                                                    
                                                                                                    
                                                                                                    
                                                                                                    
                                                                                                    
                                                                                                    
                                                                                                    
                                                                                                    
                                                                                                    
                                                                                                    
                                                                                                    
                                                                                                    
                                                                                                    
                                                                                                    
                                                                                                    
                                                                                                    
                                                                                                    
                                                                                                    
                                                                                                    
                                                                                                    
                           
<?xpacket end="w"?></metadata>
<defs>
    <style>
      .cls-1 {
        fill: #ee2c2f;
      }

      .cls-1, .cls-2 {
        fill-rule: evenodd;
      }

      .cls-2 {
        fill: #fff;
      }
    </style>
  </defs>
  <path id="Фигура_41" data-name="Фигура 41" class="cls-1" d="M941.5,346A39.352,39.352,0,0,0,902,385.2c0,21.651,39.5,54.8,39.5,54.8S981,406.852,981,385.2A39.352,39.352,0,0,0,941.5,346Z" transform="translate(-902 -346)"/>
  <path id="Фигура_42" data-name="Фигура 42" class="cls-2" d="M933.237,406.994a1.951,1.951,0,0,1-1.38-3.33l13.8-13.8a1.951,1.951,0,1,1,2.76,2.759l-13.8,13.8A1.944,1.944,0,0,1,933.237,406.994Zm-0.288-27.3a1.952,1.952,0,0,1-1.38-3.331l13.8-13.8a1.951,1.951,0,0,1,2.759,2.759l-13.8,13.8A1.945,1.945,0,0,1,932.949,379.69Zm3.45,10.347a1.952,1.952,0,0,1-1.38-3.331l6.9-6.9a1.951,1.951,0,0,1,2.759,2.759l-6.9,6.9A1.945,1.945,0,0,1,936.4,390.037Z" transform="translate(-902 -346)"/>
</svg>
