<svg xmlns="http://www.w3.org/2000/svg" xmlns:xlink="http://www.w3.org/1999/xlink" x="0px" y="0px"
	 viewBox="0 0 42 32" style="enable-background:new 0 0 42 32;" xml:space="preserve" width="80" height="61">
<path style="fill:none;stroke:#262324;stroke-linecap:round;stroke-linejoin:round;stroke-miterlimit:10;" d="M28.1,25.4v2.8
	c0,1.8-1.5,3.3-3.3,3.3H14c-1.8,0-3.3-1.5-3.3-3.3V4.4c0-1.8,1.5-3.3,3.3-3.3h10.8c1.8,0,3.3,1.5,3.3,3.3v6.4"/>
<path style="fill:none;stroke:#262324;stroke-linecap:round;stroke-linejoin:round;stroke-miterlimit:10;" d="M10.7,4.4L10.7,4.4
	c0-1.9,1.5-3.3,3.3-3.3h10.8c1.8,0,3.3,1.5,3.3,3.3v0H10.7z"/>
<path style="fill:none;stroke:#262324;stroke-linecap:round;stroke-linejoin:round;stroke-miterlimit:10;" d="M28.1,28.2L28.1,28.2
	c0,1.9-1.5,3.3-3.3,3.3H14c-1.8,0-3.3-1.5-3.3-3.3v0H28.1z"/>
<line style="fill:#262324;stroke:#262324;stroke-linecap:round;stroke-linejoin:round;stroke-miterlimit:10;" x1="17.9" y1="30" x2="20.9" y2="30"/>
<line style="fill:#262324;stroke:#262324;stroke-linecap:round;stroke-linejoin:round;stroke-miterlimit:10;" x1="17.9" y1="2.7" x2="20.9" y2="2.7"/>
<g>
	
		<line style="fill:none;stroke:#262324;stroke-width:0.5;stroke-linecap:round;stroke-linejoin:round;stroke-miterlimit:10;" x1="2.1" y1="9.8" x2="2.1" y2="13"/>
	
		<line style="fill:none;stroke:#262324;stroke-width:0.5;stroke-linecap:round;stroke-linejoin:round;stroke-miterlimit:10;" x1="3.9" y1="11.4" x2="0.3" y2="11.4"/>
</g>
<g>
	
		<line style="fill:none;stroke:#262324;stroke-width:0.5;stroke-linecap:round;stroke-linejoin:round;stroke-miterlimit:10;" x1="6" y1="17.7" x2="6" y2="19.8"/>
	
		<line style="fill:none;stroke:#262324;stroke-width:0.5;stroke-linecap:round;stroke-linejoin:round;stroke-miterlimit:10;" x1="7.1" y1="18.8" x2="5" y2="18.8"/>
</g>
<line style="fill:none;stroke:#262324;stroke-linecap:round;stroke-linejoin:round;stroke-miterlimit:10;" x1="13" y1="8.5" x2="23" y2="8.5"/>
<line style="fill:none;stroke:#262324;stroke-linecap:round;stroke-linejoin:round;stroke-miterlimit:10;" x1="13" y1="10.5" x2="20" y2="10.5"/>
<line style="fill:none;stroke:#262324;stroke-linecap:round;stroke-linejoin:round;stroke-miterlimit:10;" x1="13" y1="12.5" x2="20" y2="12.5"/>
<g>
	
		<line style="fill:none;stroke:#262324;stroke-width:0.5;stroke-linecap:round;stroke-linejoin:round;stroke-miterlimit:10;" x1="35.7" y1="3.4" x2="35.7" y2="6.6"/>
	
		<line style="fill:none;stroke:#262324;stroke-width:0.5;stroke-linecap:round;stroke-linejoin:round;stroke-miterlimit:10;" x1="37.5" y1="5" x2="33.9" y2="5"/>
</g>
<circle style="fill:none;stroke:#262324;stroke-miterlimit:10;" cx="31.7" cy="18.2" r="3.9"/>
<path style="fill:#262324;stroke:#262324;stroke-width:0.25;stroke-linecap:round;stroke-linejoin:round;stroke-miterlimit:10;" d="
	M32.9,19.5L32.9,19.5c-0.3,0.3-0.7,0.5-1.2,0.5c-0.5,0-0.9-0.2-1.2-0.5c-0.3-0.3-0.5-0.7-0.5-1.2c0-0.5,0.2-0.9,0.5-1.2
	c0.3-0.3,0.7-0.5,1.2-0.5c0.5,0,0.9,0.2,1.2,0.5c0.3,0.3,0.5,0.7,0.5,1.2C33.4,18.7,33.2,19.2,32.9,19.5 M31.7,16
	c-0.6,0-1.2,0.3-1.6,0.7l0,0c-0.4,0.4-0.7,1-0.7,1.6c0,0.6,0.3,1.2,0.7,1.6c0.4,0.4,1,0.7,1.6,0.7c0.6,0,1.2-0.3,1.6-0.7h0
	c0.4-0.4,0.7-1,0.7-1.6c0-0.6-0.3-1.2-0.7-1.6C33,16.2,32.4,16,31.7,16 M38.2,11.1c-0.3,0-0.6,0-0.8,0.2L36.5,12
	c-0.3-0.2-0.6-0.5-1-0.6l0,0c-0.3-0.2-0.7-0.3-1-0.5l0.1-1.1c0-0.3-0.1-0.6-0.2-0.8c-0.2-0.2-0.4-0.4-0.7-0.4l-1.6-0.2
	c-0.3,0-0.6,0.1-0.8,0.2c-0.2,0.2-0.4,0.4-0.4,0.7l-0.1,1.1c-0.4,0.1-0.8,0.1-1.1,0.2c-0.4,0.1-0.7,0.2-1.1,0.4l-0.7-0.9
	C27.6,10,27.3,9.9,27,9.9l0,0c-0.3,0-0.6,0-0.8,0.2l-1.2,1c-0.2,0.2-0.4,0.5-0.4,0.7l0,0c0,0.3,0,0.6,0.2,0.8l0.7,0.9
	c-0.2,0.3-0.5,0.6-0.6,1c-0.2,0.3-0.4,0.7-0.5,1.1l-1.1-0.1c-0.3,0-0.6,0.1-0.8,0.2c-0.2,0.2-0.4,0.4-0.4,0.7L21.8,18
	c0,0.3,0.1,0.6,0.2,0.8c0.2,0.2,0.4,0.4,0.7,0.4l1.1,0.1c0.1,0.4,0.1,0.8,0.2,1.1c0.1,0.4,0.2,0.7,0.4,1.1l-0.9,0.7
	c-0.2,0.2-0.4,0.5-0.4,0.7l0,0c0,0.3,0,0.6,0.2,0.8l1,1.2c0.2,0.2,0.5,0.4,0.7,0.4l0,0c0.3,0,0.6-0.1,0.8-0.2l0.9-0.7
	c0.3,0.2,0.6,0.4,1,0.6l0,0c0.3,0.2,0.7,0.3,1.1,0.5l-0.1,1.1c0,0.3,0.1,0.6,0.2,0.8c0.2,0.2,0.4,0.4,0.7,0.4l1.6,0.2
	c0.3,0,0.6-0.1,0.8-0.2c0.2-0.2,0.4-0.4,0.4-0.7l0,0l0.1-1.1c0.4-0.1,0.8-0.1,1.2-0.2l0,0c0.4-0.1,0.7-0.2,1.1-0.4l0.7,0.9
	c0.2,0.2,0.5,0.4,0.7,0.4l0,0c0.3,0,0.6,0,0.8-0.2l1.2-1c0.2-0.2,0.4-0.5,0.4-0.7l0,0c0-0.3-0.1-0.6-0.2-0.8L38,23
	c0.2-0.3,0.5-0.6,0.6-1c0.2-0.3,0.4-0.7,0.5-1.1l1.1,0.1l0,0c0.3,0,0.6-0.1,0.8-0.2c0.2-0.2,0.4-0.4,0.4-0.7l0,0l0.2-1.6l0,0
	c0-0.3-0.1-0.6-0.2-0.8c-0.2-0.2-0.4-0.4-0.7-0.4l-0.3,0l-0.8-0.1l0-0.1l0,0l0-0.2l0,0l0-0.2l0-0.2l0-0.2c0-0.2-0.2-0.3-0.4-0.2
	c-0.2,0-0.3,0.2-0.2,0.4l0,0.2l0,0l0,0.1c0-0.1,0-0.1,0-0.2l0,0.2l0,0l0,0.2l0,0.1l0,0l0,0.2l0,0l0,0.2c0,0.1,0.1,0.3,0.3,0.3l0.3,0
	l0,0l0.3,0l0.3,0l0.3,0c0.1,0,0.2,0.1,0.3,0.2c0.1,0.1,0.1,0.2,0.1,0.3l-0.2,1.6c0,0.1-0.1,0.2-0.2,0.3c-0.1,0.1-0.2,0.1-0.4,0.1
	l-1.4-0.1c-0.1,0-0.3,0.1-0.3,0.2c-0.1,0.4-0.3,0.8-0.5,1.2c-0.2,0.4-0.4,0.7-0.7,1.1c-0.1,0.1-0.1,0.3,0,0.4l0.8,1.1
	c0.1,0.1,0.1,0.2,0.1,0.3l0,0c0,0.1-0.1,0.2-0.2,0.3l-1.2,1c-0.1,0.1-0.2,0.1-0.4,0.1l0,0c-0.1,0-0.2-0.1-0.3-0.2l-0.8-1.1
	c-0.1-0.1-0.2-0.1-0.4-0.1c-0.4,0.2-0.8,0.4-1.2,0.5c0.2,0,0,0,0,0l0,0c-0.4,0.1-0.9,0.2-1.3,0.2c-0.1,0-0.3,0.1-0.3,0.3L32,27.1
	c0,0.1-0.1,0.2-0.2,0.3c-0.1,0.1-0.2,0.1-0.4,0.1l-1.6-0.2c-0.1,0-0.2-0.1-0.3-0.2s-0.1-0.2-0.1-0.4l0.2-1.4c0-0.1-0.1-0.3-0.2-0.3
	c-0.4-0.1-0.8-0.3-1.2-0.5l0,0c-0.4-0.2-0.7-0.4-1.1-0.7c-0.1-0.1-0.3-0.1-0.4,0l-1.1,0.9c-0.1,0.1-0.2,0.1-0.3,0.1l0,0
	c-0.1,0-0.2-0.1-0.3-0.2l-1-1.2c-0.1-0.1-0.1-0.2-0.1-0.4c0-0.1,0.1-0.2,0.2-0.3l1.1-0.9c0.1-0.1,0.1-0.2,0.1-0.4
	c-0.2-0.4-0.4-0.8-0.5-1.2c-0.1-0.4-0.2-0.9-0.2-1.3c0-0.1-0.1-0.3-0.3-0.3l-1.3-0.1l0,0c-0.1,0-0.2-0.1-0.3-0.2
	c-0.1-0.1-0.1-0.2-0.1-0.4l0.2-1.6c0-0.1,0.1-0.2,0.2-0.3c0.1-0.1,0.2-0.1,0.4-0.1l1.4,0.1c0.1,0,0.3-0.1,0.3-0.2
	c0.1-0.4,0.3-0.8,0.5-1.2c0.2-0.4,0.4-0.7,0.7-1.1c0.1-0.1,0.1-0.3,0-0.4l-0.8-1.1c-0.1-0.1-0.1-0.2-0.1-0.4c0-0.1,0.1-0.2,0.2-0.3
	l1.2-1c0.1-0.1,0.2-0.1,0.4-0.1l0,0c0.1,0,0.2,0.1,0.3,0.2l0.8,1.1c0.1,0.1,0.2,0.1,0.4,0.1c0.4-0.2,0.8-0.4,1.2-0.5l0,0
	c0.4-0.1,0.8-0.2,1.3-0.2c0.2,0,0.3-0.1,0.3-0.3l0.2-1.4l0,0c0-0.1,0.1-0.2,0.2-0.3C31.7,9,31.9,9,32,9l1.6,0.2
	c0.1,0,0.2,0.1,0.3,0.2C34,9.4,34,9.6,34,9.7l-0.2,1.4c0,0.1,0.1,0.3,0.2,0.3c0.4,0.1,0.8,0.3,1.2,0.5l0,0c0.4,0.2,0.7,0.4,1.1,0.7
	c0.1,0.1,0.3,0.1,0.4,0l1.1-0.9c0.1-0.1,0.2-0.1,0.4-0.1c0.1,0,0.2,0.1,0.3,0.2l1,1.2c0.1,0.1,0.1,0.2,0.1,0.4
	c0,0.1-0.1,0.2-0.2,0.3l-1.1,0.9c-0.1,0.1-0.2,0.3-0.1,0.4c0.1,0.1,0.3,0.2,0.4,0l1.1-0.9c0.2-0.2,0.4-0.5,0.4-0.7
	c0-0.3,0-0.6-0.2-0.8l-1-1.2C38.8,11.2,38.5,11.1,38.2,11.1"/>
</svg>
