<svg xmlns="http://www.w3.org/2000/svg" xmlns:xlink="http://www.w3.org/1999/xlink" x="0px" y="0px"
	 viewBox="0 0 58 32" style="enable-background:new 0 0 58 32;" xml:space="preserve" width="108" height="60">
<g>
	<path style="fill:none;stroke:#262324;stroke-linecap:round;stroke-linejoin:round;stroke-miterlimit:10;" d="M12.2,12.9v-10
		c0-0.9,0.7-1.6,1.6-1.6h30.7c0.9,0,1.6,0.7,1.6,1.6v4.5"/>
	<path style="fill:none;stroke:#262324;stroke-linecap:round;stroke-linejoin:round;stroke-miterlimit:10;" d="M45.9,22.2v7.7
		c0,0.9-0.7,1.6-1.6,1.6H13.7c-0.9,0-1.6-0.7-1.6-1.6v-5.6"/>
	
		<line style="fill:none;stroke:#262324;stroke-linecap:round;stroke-linejoin:round;stroke-miterlimit:10;" x1="15" y1="8.5" x2="42" y2="8.5"/>
	
		<line style="fill:none;stroke:#262324;stroke-linecap:round;stroke-linejoin:round;stroke-miterlimit:10;" x1="15" y1="14.5" x2="42" y2="14.5"/>
	
		<line style="fill:none;stroke:#262324;stroke-linecap:round;stroke-linejoin:round;stroke-miterlimit:10;" x1="15" y1="20.5" x2="42" y2="20.5"/>
	
		<line style="fill:none;stroke:#262324;stroke-linecap:round;stroke-linejoin:round;stroke-miterlimit:10;" x1="15" y1="26.5" x2="42" y2="26.5"/>
	<path style="fill:none;stroke:#262324;stroke-linecap:round;stroke-linejoin:round;stroke-miterlimit:10;" d="M12.2,4.5V2.9
		c0-0.9,0.7-1.6,1.6-1.6h30.6c0.9,0,1.6,0.7,1.6,1.6v1.6H12.2z"/>
	<path style="fill:#ffffff;stroke:#262324;stroke-linecap:round;stroke-linejoin:round;stroke-miterlimit:10;" d="M52.9,7.5H39.4
		c-2.3,0-4.9,1.8-4.9,4.1v6.2c0,2.3,2,4.4,5,4.4l0,0V26l4.1-4.5h9.3c2.3,0,3.6-1.4,3.6-3.7v-6.2C56.5,9.3,55.3,7.5,52.9,7.5z"/>
	<path style="fill:#ffffff;" d="M10.9,13h10.5c1.8,0,1.6,1.3,1.6,3.1v4.8c0,1.7,0,3.2-2,3.3c0,0,0,0,0,0v3.1L18.2,25h-7.3
		C9.1,25,6,22.7,6,20.9v-4.8C6,14.3,9.1,13,10.9,13z"/>
	<path style="fill:none;stroke:#262324;stroke-linecap:round;stroke-linejoin:round;stroke-miterlimit:10;" d="M10.9,12.5h10.5
		c1.8,0,2.1,1.8,2.1,3.6v4.8c0,1.7,0,3.2-2,3.3c0,0,0,0,0,0v3.1l-3.3-2.9h-7.3c-1.8,0-4.4-1.8-4.4-3.6v-4.8
		C6.5,14.3,9.1,12.5,10.9,12.5z"/>
	
		<line style="fill:none;stroke:#262324;stroke-linecap:round;stroke-linejoin:round;stroke-miterlimit:10;" x1="10" y1="16.5" x2="21" y2="16.5"/>
	
		<line style="fill:none;stroke:#262324;stroke-linecap:round;stroke-linejoin:round;stroke-miterlimit:10;" x1="10" y1="18.5" x2="19" y2="18.5"/>
	
		<line style="fill:none;stroke:#262324;stroke-linecap:round;stroke-linejoin:round;stroke-miterlimit:10;" x1="10" y1="20.5" x2="16" y2="20.5"/>
	
		<line style="fill:none;stroke:#262324;stroke-linecap:round;stroke-linejoin:round;stroke-miterlimit:10;" x1="39" y1="10.5" x2="53" y2="10.5"/>
	
		<line style="fill:none;stroke:#262324;stroke-linecap:round;stroke-linejoin:round;stroke-miterlimit:10;" x1="39" y1="14.5" x2="49" y2="14.5"/>
	
		<line style="fill:none;stroke:#262324;stroke-linecap:round;stroke-linejoin:round;stroke-miterlimit:10;" x1="39" y1="17.5" x2="45" y2="17.5"/>
	<g>
		
			<line style="fill:none;stroke:#262324;stroke-width:0.5;stroke-linecap:round;stroke-linejoin:round;stroke-miterlimit:10;" x1="2.6" y1="1.2" x2="2.6" y2="5.2"/>
		
			<line style="fill:none;stroke:#262324;stroke-width:0.5;stroke-linecap:round;stroke-linejoin:round;stroke-miterlimit:10;" x1="0.7" y1="3.2" x2="4.6" y2="3.2"/>
	</g>
	<g>
		
			<line style="fill:none;stroke:#262324;stroke-width:0.5;stroke-linecap:round;stroke-linejoin:round;stroke-miterlimit:10;" x1="7.2" y1="7.6" x2="7.2" y2="9.9"/>
		
			<line style="fill:none;stroke:#262324;stroke-width:0.5;stroke-linecap:round;stroke-linejoin:round;stroke-miterlimit:10;" x1="6" y1="8.7" x2="8.4" y2="8.7"/>
	</g>
	<g>
		
			<line style="fill:none;stroke:#262324;stroke-width:0.5;stroke-linecap:round;stroke-linejoin:round;stroke-miterlimit:10;" x1="54.3" y1="26.2" x2="54.3" y2="30.2"/>
		
			<line style="fill:none;stroke:#262324;stroke-width:0.5;stroke-linecap:round;stroke-linejoin:round;stroke-miterlimit:10;" x1="52.3" y1="28.2" x2="56.3" y2="28.2"/>
	</g>
	<rect x="14" y="2.2" style="fill:#262324;" width="1.5" height="1.1"/>
	<rect x="16.2" y="2.2" style="fill:#262324;" width="1.5" height="1.1"/>
	<rect x="18.3" y="2.2" style="fill:#262324;" width="1.5" height="1.1"/>
</g>
</svg>
