<svg xmlns="http://www.w3.org/2000/svg" xmlns:xlink="http://www.w3.org/1999/xlink" x="0px" y="0px"
	 viewBox="0 0 39 39" style="enable-background:new 0 0 39 39;" xml:space="preserve" width="63" height="63">
<g>
	
		<line style="fill:none;stroke:#262324;stroke-width:0.5;stroke-linecap:round;stroke-linejoin:round;stroke-miterlimit:10;" x1="31.1" y1="11" x2="31.1" y2="14.4"/>
	
		<line style="fill:none;stroke:#262324;stroke-width:0.5;stroke-linecap:round;stroke-linejoin:round;stroke-miterlimit:10;" x1="32.8" y1="12.7" x2="29.5" y2="12.7"/>
</g>
<g>
	
		<line style="fill:none;stroke:#262324;stroke-width:0.5;stroke-linecap:round;stroke-linejoin:round;stroke-miterlimit:10;" x1="29.5" y1="6.7" x2="29.5" y2="8.4"/>
	
		<line style="fill:none;stroke:#262324;stroke-width:0.5;stroke-linecap:round;stroke-linejoin:round;stroke-miterlimit:10;" x1="30.3" y1="7.5" x2="28.6" y2="7.5"/>
</g>
<g>
	
		<line style="fill:none;stroke:#262324;stroke-width:0.5;stroke-linecap:round;stroke-linejoin:round;stroke-miterlimit:10;" x1="10.3" y1="8.2" x2="10.3" y2="10"/>
	
		<line style="fill:none;stroke:#262324;stroke-width:0.5;stroke-linecap:round;stroke-linejoin:round;stroke-miterlimit:10;" x1="11.1" y1="9.1" x2="9.4" y2="9.1"/>
</g>
<g>
	
		<line style="fill:none;stroke:#262324;stroke-linecap:round;stroke-linejoin:round;stroke-miterlimit:5;" x1="15.4" y1="28.4" x2="15.4" y2="7.5"/>
	<path style="fill:none;stroke:#262324;stroke-linecap:round;stroke-linejoin:round;stroke-miterlimit:5;" d="M15.4,7.5
		c0-1.9,4.3-6.3,4.3-6.3s4.3,4.3,4.3,6.3"/>
	
		<line style="fill:none;stroke:#262324;stroke-linecap:round;stroke-linejoin:round;stroke-miterlimit:5;" x1="23.9" y1="7.5" x2="23.9" y2="28.4"/>
	
		<line style="fill:none;stroke:#262324;stroke-linecap:round;stroke-linejoin:round;stroke-miterlimit:5;" x1="23.9" y1="19.1" x2="25" y2="19.1"/>
	<path style="fill:none;stroke:#262324;stroke-linecap:round;stroke-linejoin:round;stroke-miterlimit:5;" d="M25,19.1
		c2.8,2.9,1.5,6.1-1.1,9.4"/>
	
		<line style="fill:none;stroke:#262324;stroke-linecap:round;stroke-linejoin:round;stroke-miterlimit:5;" x1="15.2" y1="19.2" x2="14.1" y2="19.2"/>
	<path style="fill:none;stroke:#262324;stroke-linecap:round;stroke-linejoin:round;stroke-miterlimit:5;" d="M14.1,19.2
		c-2.8,2.9-1.5,6.1,1.1,9.4"/>
	
		<circle style="fill:none;stroke:#262324;stroke-linecap:round;stroke-linejoin:round;stroke-miterlimit:5;" cx="19.6" cy="10.5" r="3.1"/>
	
		<line style="fill:none;stroke:#262324;stroke-linecap:round;stroke-linejoin:round;stroke-miterlimit:5;" x1="18.2" y1="11.3" x2="20.3" y2="9.2"/>
	
		<line style="fill:none;stroke:#262324;stroke-linecap:round;stroke-linejoin:round;stroke-miterlimit:5;" x1="19.6" y1="11.7" x2="20.7" y2="10.5"/>
	
		<line style="fill:none;stroke:#262324;stroke-linecap:round;stroke-linejoin:round;stroke-miterlimit:5;" x1="15.4" y1="22.7" x2="23.9" y2="22.7"/>
	<path style="fill:none;stroke:#262324;stroke-linecap:round;stroke-linejoin:round;stroke-miterlimit:5;" d="M18,24.2
		c-0.5,4.3-1.7,7.5-3.9,9.4"/>
	<path style="fill:none;stroke:#262324;stroke-linecap:round;stroke-linejoin:round;stroke-miterlimit:5;" d="M20.8,24.5
		c0.7,4.2,1.9,7.7,4.3,9.5"/>
	<path style="fill:none;stroke:#262324;stroke-linecap:round;stroke-linejoin:round;stroke-miterlimit:5;" d="M15.2,29.2
		c-1.6,0-2.9,0.5-3.9,1.7"/>
	<path style="fill:none;stroke:#262324;stroke-linecap:round;stroke-linejoin:round;stroke-miterlimit:5;" d="M11.4,30.9
		C9,28.6,5,30.6,5.3,34"/>
	<path style="fill:none;stroke:#262324;stroke-linecap:round;stroke-linejoin:round;stroke-miterlimit:5;" d="M5.3,34
		c-1.3-1.2-2.6-1.5-3.9,0"/>
	<path style="fill:none;stroke:#262324;stroke-linecap:round;stroke-linejoin:round;stroke-miterlimit:5;" d="M5.5,36.6
		c1.7-3.6,6.3-3.8,7.8,0"/>
	<path style="fill:none;stroke:#262324;stroke-linecap:round;stroke-linejoin:round;stroke-miterlimit:5;" d="M25.2,37.6
		c0.5-1.7,1.6-2,3.3-1.2"/>
	<path style="fill:none;stroke:#262324;stroke-linecap:round;stroke-linejoin:round;stroke-miterlimit:5;" d="M28.5,36.4
		c1.3-2.6,5.3-2.1,5.3,1.2"/>
	<path style="fill:none;stroke:#262324;stroke-linecap:round;stroke-linejoin:round;stroke-miterlimit:5;" d="M37.8,34.6
		c-1.2-2.4-3-2.9-5.5-1"/>
	<path style="fill:none;stroke:#262324;stroke-linecap:round;stroke-linejoin:round;stroke-miterlimit:5;" d="M32.3,33.6
		c-0.8-2.3-3.1-3-4.8-1.2"/>
	<path style="fill:none;stroke:#262324;stroke-linecap:round;stroke-linejoin:round;stroke-miterlimit:5;" d="M27.5,32.4
		c-0.8-1.7-2-2.4-3.6-1.9"/>
</g>
</svg>
