<svg xmlns="http://www.w3.org/2000/svg" xmlns:xlink="http://www.w3.org/1999/xlink" x="0px" y="0px"
	 viewBox="0 0 41 35" style="enable-background:new 0 0 41 35;" xml:space="preserve" width="70" height="61">
<g>
	<path style="fill:none;stroke:#262324;stroke-linecap:round;stroke-linejoin:round;stroke-miterlimit:10;" d="M34.1,32.5l-15.8,0
		c-1.2,0-2.1-1-2.1-2.1l0-0.6"/>
	<path style="fill:none;stroke:#262324;stroke-linecap:round;stroke-linejoin:round;stroke-miterlimit:10;" d="M16.2,18.7V2.6
		c0-1.2,1-2.1,2.1-2.1h18.8c1.2,0,2.1,1,2.1,2.1v27.8c0,1.2-1,2.1-2.1,2.1h-0.9"/>
	<path style="fill:none;stroke:#262324;stroke-linecap:round;stroke-linejoin:round;stroke-miterlimit:10;" d="M16.2,4.1V2.6
		c0-1.2,1-2.1,2.1-2.1h18.8c1.2,0,2.1,1,2.1,2.1v1.5H16.2z"/>
	
		<line style="fill:none;stroke:#262324;stroke-linecap:round;stroke-linejoin:round;stroke-miterlimit:10;" x1="18" y1="8.5" x2="36" y2="8.5"/>
	
		<line style="fill:none;stroke:#262324;stroke-linecap:round;stroke-linejoin:round;stroke-miterlimit:10;" x1="18" y1="15.5" x2="30" y2="15.5"/>
	
		<line style="fill:none;stroke:#262324;stroke-linecap:round;stroke-linejoin:round;stroke-miterlimit:10;" x1="18" y1="12.5" x2="32" y2="12.5"/>
	<g>
		
			<polygon style="fill:none;stroke:#4E6BAF;stroke-width:0.3605;stroke-linecap:round;stroke-linejoin:round;stroke-miterlimit:10;" points="
			36.2,33.8 34.1,33.8 34.1,17.2 35.2,15.2 36.2,17.2 		"/>
		
			<line style="fill:none;stroke:#4E6BAF;stroke-width:0.3605;stroke-linecap:round;stroke-linejoin:round;stroke-miterlimit:10;" x1="34.1" y1="17.6" x2="36.2" y2="17.6"/>
		
			<line style="fill:none;stroke:#4E6BAF;stroke-width:0.3605;stroke-linecap:round;stroke-linejoin:round;stroke-miterlimit:10;" x1="34.1" y1="31.5" x2="36.2" y2="31.5"/>
		
			<line style="fill:none;stroke:#4E6BAF;stroke-width:0.3605;stroke-linecap:round;stroke-linejoin:round;stroke-miterlimit:10;" x1="34.1" y1="30" x2="36.2" y2="30"/>
	</g>
	<g>
		
			<line style="fill:none;stroke:#262324;stroke-linecap:round;stroke-linejoin:round;stroke-miterlimit:10;" x1="34.1" y1="17.6" x2="36.2" y2="17.6"/>
		
			<line style="fill:none;stroke:#262324;stroke-linecap:round;stroke-linejoin:round;stroke-miterlimit:10;" x1="34.1" y1="31.5" x2="36.2" y2="31.5"/>
		
			<line style="fill:none;stroke:#262324;stroke-linecap:round;stroke-linejoin:round;stroke-miterlimit:10;" x1="34.1" y1="30" x2="36.2" y2="30"/>
	</g>
	<g>
		
			<line style="fill:none;stroke:#262324;stroke-linecap:round;stroke-linejoin:round;stroke-miterlimit:10;" x1="34.1" y1="17.6" x2="36.2" y2="17.6"/>
		<polygon style="fill:none;stroke:#262324;stroke-linecap:round;stroke-linejoin:round;stroke-miterlimit:10;" points="36.2,33.8 
			34.1,33.8 34.1,17.2 35.2,15.2 36.2,17.2 		"/>
		
			<line style="fill:none;stroke:#262324;stroke-linecap:round;stroke-linejoin:round;stroke-miterlimit:10;" x1="34.1" y1="31.5" x2="36.2" y2="31.5"/>
		
			<line style="fill:none;stroke:#262324;stroke-linecap:round;stroke-linejoin:round;stroke-miterlimit:10;" x1="34.1" y1="30" x2="36.2" y2="30"/>
	</g>
	<g>
		
			<line style="fill:none;stroke:#262324;stroke-width:0.5;stroke-linecap:round;stroke-linejoin:round;stroke-miterlimit:10;" x1="11.7" y1="12.1" x2="11.7" y2="14.1"/>
		
			<line style="fill:none;stroke:#262324;stroke-width:0.5;stroke-linecap:round;stroke-linejoin:round;stroke-miterlimit:10;" x1="12.7" y1="13.1" x2="10.7" y2="13.1"/>
	</g>
	<g>
		
			<line style="fill:none;stroke:#262324;stroke-width:0.5;stroke-linecap:round;stroke-linejoin:round;stroke-miterlimit:10;" x1="8.5" y1="3.8" x2="8.5" y2="7.2"/>
		
			<line style="fill:none;stroke:#262324;stroke-width:0.5;stroke-linecap:round;stroke-linejoin:round;stroke-miterlimit:10;" x1="10.2" y1="5.5" x2="6.8" y2="5.5"/>
	</g>
	<g>
		<g>
			
				<rect x="4.3" y="21.1" style="fill:none;stroke:#262324;stroke-linecap:round;stroke-linejoin:round;stroke-miterlimit:10;" width="5.2" height="6.2"/>
		</g>
		<g>
			<g>
				
					<line style="fill:none;stroke:#262324;stroke-linecap:round;stroke-linejoin:round;stroke-miterlimit:10;" x1="12" y1="21.5" x2="20" y2="21.5"/>
				
					<line style="fill:none;stroke:#262324;stroke-linecap:round;stroke-linejoin:round;stroke-miterlimit:10;" x1="12" y1="23.5" x2="17" y2="23.5"/>
				
					<line style="fill:none;stroke:#262324;stroke-linecap:round;stroke-linejoin:round;stroke-miterlimit:10;" x1="12" y1="25.5" x2="18" y2="25.5"/>
			</g>
		</g>
	</g>
</g>
<path style="fill:none;stroke:#262324;stroke-linecap:round;stroke-linejoin:round;stroke-miterlimit:10;" d="M23,27.9
	c0,1-0.8,1.9-1.9,1.9H2.9c-1,0-1.9-0.8-1.9-1.9v-7.3c0-1,0.8-1.9,1.9-1.9h18.1c1,0,1.9,0.8,1.9,1.9V27.9z"/>
</svg>
