<svg xmlns="http://www.w3.org/2000/svg" xmlns:xlink="http://www.w3.org/1999/xlink" x="0px" y="0px"
	 viewBox="0 0 64 40" style="enable-background:new 0 0 64 40;" xml:space="preserve" width="96" height="61">
<g>
	<path style="fill:none;stroke:#262324;stroke-miterlimit:5;" d="M51,9.4"/>
	<path style="fill:none;stroke:#262324;stroke-linecap:round;stroke-linejoin:round;stroke-miterlimit:5;" d="M11.9,35.6
		c-0.4-0.5-0.7-1.1-0.7-1.8V11.7c0-1.6,1.2-2.8,2.8-2.8h27.3"/>
	<path style="fill:none;stroke:#262324;stroke-miterlimit:5;" d="M14,36.6"/>
	<path style="fill:none;stroke:#262324;stroke-linecap:round;stroke-linejoin:round;stroke-miterlimit:5;" d="M53.7,20.2v13.7
		c0,0.7-0.2,1.3-0.6,1.8"/>
	<path style="fill:none;stroke:#262324;stroke-miterlimit:5;" d="M54.3,11.9"/>
	<path style="fill:none;stroke:#262324;stroke-miterlimit:5;" d="M49.3,10.8"/>
	<path style="fill:none;stroke:#262324;stroke-linecap:round;stroke-linejoin:round;stroke-miterlimit:5;" d="M52.1,22.5v8.7
		c0,1.5-1.2,2.8-2.8,2.8H15.6c-1.5,0-2.8-1.2-2.8-2.8V13.6c0-1.5,1.2-2.8,2.8-2.8h25.8"/>
	<path style="fill:none;stroke:#262324;stroke-miterlimit:5;" d="M52.7,13.4"/>
	<path style="fill:none;stroke:#262324;stroke-miterlimit:5;" d="M56.9,35.6H8.1c-0.7,0-1.3,0.8-1.3,1.7v0c0,0.9,0.6,1.7,1.3,1.7
		h48.7c0.7,0,1.3-0.8,1.3-1.7v0C58.1,36.4,57.6,35.6,56.9,35.6z"/>
	<path style="opacity:0.3;fill:none;stroke:#262324;stroke-miterlimit:5;" d="M40.4,36.9H24.5c-0.4,0-0.6-0.3-0.6-0.6l0,0
		c0-0.4,0.3-0.6,0.6-0.6h15.9c0.4,0,0.6,0.3,0.6,0.6l0,0C41.1,36.6,40.8,36.9,40.4,36.9z"/>
	<path style="fill:none;stroke:#262324;stroke-miterlimit:5;" d="M40.4,36.9H24.5c-0.4,0-0.6-0.3-0.6-0.6l0,0c0-0.4,0.3-0.6,0.6-0.6
		h15.9c0.4,0,0.6,0.3,0.6,0.6l0,0C41.1,36.6,40.8,36.9,40.4,36.9z"/>
	
		<line style="fill:none;stroke:#262324;stroke-linecap:round;stroke-linejoin:round;stroke-miterlimit:5;" x1="17" y1="15.5" x2="32" y2="15.5"/>
	
		<line style="fill:none;stroke:#262324;stroke-linecap:round;stroke-linejoin:round;stroke-miterlimit:5;" x1="17" y1="18.5" x2="34" y2="18.5"/>
	<g>
		
			<line style="fill:none;stroke:#262324;stroke-width:0.5;stroke-linecap:round;stroke-linejoin:round;stroke-miterlimit:10;" x1="3" y1="8.4" x2="3" y2="12.5"/>
		
			<line style="fill:none;stroke:#262324;stroke-width:0.5;stroke-linecap:round;stroke-linejoin:round;stroke-miterlimit:10;" x1="5.1" y1="10.4" x2="1" y2="10.4"/>
	</g>
	<g>
		
			<line style="fill:none;stroke:#262324;stroke-width:0.5;stroke-linecap:round;stroke-linejoin:round;stroke-miterlimit:10;" x1="6.4" y1="17.4" x2="6.4" y2="19.9"/>
		
			<line style="fill:none;stroke:#262324;stroke-width:0.5;stroke-linecap:round;stroke-linejoin:round;stroke-miterlimit:10;" x1="7.6" y1="18.7" x2="5.1" y2="18.7"/>
	</g>
	
		<line style="fill:none;stroke:#262324;stroke-linecap:round;stroke-linejoin:round;stroke-miterlimit:5;" x1="17" y1="22.5" x2="40" y2="22.5"/>
	<circle style="fill:none;stroke:#262324;stroke-miterlimit:10;" cx="52" cy="11.4" r="4.3"/>
	
		<path style="fill:#262324;stroke:#262324;stroke-width:0.25;stroke-linecap:round;stroke-linejoin:round;stroke-miterlimit:10;" d="
		M53.3,12.7L53.3,12.7c-0.3,0.3-0.8,0.5-1.3,0.5c-0.5,0-1-0.2-1.3-0.5c-0.3-0.3-0.5-0.8-0.5-1.3c0-0.5,0.2-1,0.5-1.3
		C51,9.8,51.5,9.6,52,9.6c0.5,0,1,0.2,1.3,0.5c0.3,0.3,0.5,0.8,0.5,1.3C53.8,12,53.6,12.4,53.3,12.7 M52,8.9c-0.7,0-1.3,0.3-1.8,0.7
		l0,0c-0.5,0.5-0.7,1.1-0.7,1.8c0,0.7,0.3,1.3,0.7,1.8c0.5,0.5,1.1,0.7,1.8,0.7c0.7,0,1.3-0.3,1.8-0.7h0c0.5-0.5,0.7-1.1,0.7-1.8
		c0-0.7-0.3-1.3-0.7-1.8C53.3,9.2,52.7,8.9,52,8.9 M59.1,3.6c-0.3,0-0.6,0.1-0.9,0.3l-1,0.8c-0.3-0.3-0.7-0.5-1.1-0.7l0,0
		c-0.4-0.2-0.8-0.4-1.1-0.5l0.1-1.2c0-0.3-0.1-0.6-0.3-0.9s-0.5-0.4-0.8-0.4l-1.7-0.2c-0.3,0-0.6,0.1-0.9,0.3
		C51.2,1.1,51,1.4,51,1.7l-0.1,1.2C50.4,3,50,3.1,49.6,3.2c-0.4,0.1-0.8,0.3-1.2,0.4l-0.8-1c-0.2-0.3-0.5-0.4-0.8-0.4l0,0
		c-0.3,0-0.6,0.1-0.9,0.3l-1.4,1.1c-0.3,0.2-0.4,0.5-0.5,0.8l0,0c0,0.3,0,0.6,0.3,0.9l0.8,1c-0.3,0.3-0.5,0.7-0.7,1.1
		c-0.2,0.4-0.4,0.8-0.5,1.2l-1.2-0.1c-0.3,0-0.6,0.1-0.9,0.3c-0.2,0.2-0.4,0.5-0.5,0.8l-0.2,1.7c0,0.3,0.1,0.6,0.3,0.9
		c0.2,0.2,0.5,0.4,0.8,0.4l1.2,0.1c0.1,0.4,0.1,0.8,0.3,1.3c0.1,0.4,0.3,0.8,0.4,1.2l-1,0.8c-0.3,0.2-0.4,0.5-0.4,0.8l0,0
		c0,0.3,0,0.6,0.3,0.9l1.1,1.4c0.2,0.3,0.5,0.4,0.8,0.4l0,0c0.3,0,0.6-0.1,0.9-0.3l1-0.8c0.3,0.3,0.7,0.5,1.1,0.7l0,0
		c0.4,0.2,0.8,0.4,1.2,0.5l-0.1,1.2c0,0.3,0.1,0.6,0.3,0.9c0.2,0.2,0.5,0.4,0.8,0.4l1.7,0.2c0.3,0,0.6-0.1,0.9-0.3
		c0.2-0.2,0.4-0.5,0.5-0.8l0,0l0.1-1.2c0.4-0.1,0.8-0.1,1.3-0.3l0,0c0.4-0.1,0.8-0.3,1.2-0.4l0.8,1c0.2,0.3,0.5,0.4,0.8,0.4l0,0
		c0.3,0,0.6-0.1,0.9-0.3l1.4-1.1c0.3-0.2,0.4-0.5,0.5-0.8l0,0c0-0.3-0.1-0.6-0.3-0.9l-0.8-1c0.3-0.3,0.5-0.7,0.7-1.1
		c0.2-0.4,0.4-0.8,0.5-1.2l1.2,0.1l0,0c0.3,0,0.6-0.1,0.9-0.3c0.2-0.2,0.4-0.5,0.4-0.8l0,0l0.2-1.7l0,0c0-0.3-0.1-0.6-0.3-0.8
		c-0.2-0.2-0.5-0.4-0.8-0.4l-0.4,0l-0.9-0.1l0-0.1l0,0l0-0.2l0,0l0-0.2l0-0.2l0-0.2c0-0.2-0.2-0.3-0.4-0.3c-0.2,0-0.3,0.2-0.3,0.4
		l0,0.2l0,0l0,0.2c0-0.1,0-0.1,0-0.2l0,0.2l0,0l0,0.2l0,0.2l0,0l0,0.2l0,0l0,0.2c0,0.2,0.1,0.3,0.3,0.3l0.3,0l0,0l0.4,0l0.4,0l0.4,0
		c0.1,0,0.3,0.1,0.4,0.2c0.1,0.1,0.1,0.2,0.1,0.4l-0.2,1.8c0,0.1-0.1,0.3-0.2,0.4c-0.1,0.1-0.2,0.1-0.4,0.1l-1.5-0.2
		c-0.2,0-0.3,0.1-0.4,0.2c-0.2,0.4-0.3,0.9-0.6,1.3c-0.2,0.4-0.5,0.8-0.8,1.2c-0.1,0.1-0.1,0.3,0,0.4L59,18c0.1,0.1,0.1,0.2,0.1,0.4
		l0,0c0,0.1-0.1,0.3-0.2,0.4l-1.4,1.1C57.5,20,57.3,20,57.2,20l0,0c-0.1,0-0.3-0.1-0.4-0.2l-0.9-1.2c-0.1-0.1-0.3-0.2-0.4-0.1
		c-0.4,0.2-0.9,0.4-1.3,0.5c0.2,0,0,0,0,0l0,0c-0.5,0.1-0.9,0.2-1.4,0.3c-0.2,0-0.3,0.1-0.3,0.3l-0.2,1.5c0,0.1-0.1,0.3-0.2,0.4
		c-0.1,0.1-0.2,0.1-0.4,0.1l-1.7-0.2c-0.1,0-0.3-0.1-0.4-0.2s-0.1-0.2-0.1-0.4l0.2-1.5c0-0.2-0.1-0.3-0.2-0.4
		c-0.4-0.1-0.9-0.3-1.3-0.6l0,0c-0.4-0.2-0.8-0.5-1.2-0.8c-0.1-0.1-0.3-0.1-0.4,0l-1.2,0.9c-0.1,0.1-0.2,0.1-0.4,0.1l0,0
		c-0.1,0-0.3-0.1-0.4-0.2l-1.1-1.4c-0.1-0.1-0.1-0.3-0.1-0.4c0-0.1,0.1-0.3,0.2-0.4l1.2-0.9c0.1-0.1,0.2-0.3,0.1-0.4
		c-0.2-0.4-0.4-0.9-0.5-1.3c-0.1-0.5-0.2-0.9-0.3-1.4c0-0.2-0.1-0.3-0.3-0.3l-1.5-0.2l0,0c-0.1,0-0.3-0.1-0.4-0.2
		c-0.1-0.1-0.1-0.2-0.1-0.4L42,9.5c0-0.1,0.1-0.3,0.2-0.4C42.3,9,42.4,9,42.6,9l1.5,0.2c0.2,0,0.3-0.1,0.4-0.2
		c0.2-0.4,0.3-0.9,0.6-1.3c0.2-0.4,0.5-0.8,0.8-1.2c0.1-0.1,0.1-0.3,0-0.4l-0.9-1.2c-0.1-0.1-0.1-0.3-0.1-0.4c0-0.1,0.1-0.3,0.2-0.4
		L46.4,3c0.1-0.1,0.3-0.1,0.4-0.1l0,0c0.1,0,0.3,0.1,0.4,0.2L48,4.3c0.1,0.1,0.3,0.2,0.4,0.1c0.4-0.2,0.9-0.4,1.3-0.5l0,0
		c0.5-0.1,0.9-0.2,1.4-0.3c0.2,0,0.3-0.1,0.3-0.3l0.2-1.5l0,0c0-0.1,0.1-0.3,0.2-0.4c0.1-0.1,0.2-0.1,0.4-0.1L54,1.5
		c0.1,0,0.3,0.1,0.4,0.2c0.1,0.1,0.1,0.2,0.1,0.4l-0.2,1.5c0,0.2,0.1,0.3,0.2,0.4c0.4,0.1,0.9,0.3,1.3,0.6l0,0
		C56.2,4.7,56.6,5,57,5.3c0.1,0.1,0.3,0.1,0.4,0l1.2-0.9c0.1-0.1,0.3-0.1,0.4-0.1c0.1,0,0.3,0.1,0.4,0.2l1.1,1.4
		c0.1,0.1,0.1,0.3,0.1,0.4c0,0.1-0.1,0.3-0.2,0.4l-1.2,0.9c-0.1,0.1-0.2,0.3-0.1,0.5s0.3,0.2,0.5,0l1.2-0.9c0.3-0.2,0.4-0.5,0.5-0.8
		c0-0.3,0-0.6-0.3-0.9L59.9,4C59.7,3.7,59.4,3.6,59.1,3.6"/>
</g>
</svg>
