<svg width="1200" height="40" viewBox="0 0 1200 40" version="1.1" xmlns="http://www.w3.org/2000/svg" xmlns:xlink="http://www.w3.org/1999/xlink">
<title>background</title>
<desc>Created using Figma</desc>
<g id="Canvas" transform="translate(-2720 -967)">
<rect x="2720" y="967" width="1200" height="40" fill="#FFFFFF"/>
<clipPath id="clip-0" clip-rule="evenodd">
<path d="M 2420 -91L 4220 -91L 4220 14069L 2420 14069L 2420 -91Z" fill="#FFFFFF"/>
</clipPath>
<g id="Sailica promo" clip-path="url(#clip-0)">
<path d="M 2420 -91L 4220 -91L 4220 14069L 2420 14069L 2420 -91Z" fill="#239BF5"/>
<g id="Fill 1 Copy 5" opacity="0.9">
<use xlink:href="#path0_stroke" transform="translate(2259.89 -231.512)" fill="#FFFFFF"/>
</g>
<g id="Rectangle">
<use xlink:href="#path1_fill" transform="translate(2445 678)" fill="#FFFFFF"/>
</g>
<g id="MacBook - 1280x800pt Copy">
<g id="Safari">
<g id="background" filter="url(#filter0_bdi)">
<use xlink:href="#path2_fill" transform="translate(2720 968)" fill="url(#paint2_linear)"/>
</g>
<g id="New Tab">
<g id="background" opacity="0.4">
<use xlink:href="#path3_fill" transform="translate(3897.5 982)" fill="#B6B6B6" fill-opacity="0.5"/>
</g>
<g id="Add" opacity="0.5">
<use xlink:href="#path4_fill" transform="translate(3897.5 982)" fill="#7D7D7D"/>
</g>
</g>
<g id="Search">
<g id="background" filter="url(#filter1_di)">
<use xlink:href="#path5_fill" transform="translate(3062.19 976)" fill="#FCFBFC"/>
</g>
<g id="reload">
<use xlink:href="#path6_fill" transform="translate(3559.53 979.54)" fill="#DADADA"/>
</g>
<g id="sailica.com">
<use xlink:href="#path7_fill" transform="translate(3290 980)"/>
</g>
</g>
<g id="Back + Forward">
<g id="forward">
<g id="background" filter="url(#filter2_di)">
<use xlink:href="#path8_fill" transform="translate(2818.91 976)" fill="#FCFBFC"/>
</g>
<g id="Icon">
<g id="Line">
<use xlink:href="#path9_stroke" transform="translate(2828.98 981.842)" fill="#DADADA"/>
</g>
<g id="Line">
<use xlink:href="#path10_stroke" transform="translate(2828.98 986.947)" fill="#DADADA"/>
</g>
</g>
</g>
<g id="back">
<g id="background" filter="url(#filter3_di)">
<use xlink:href="#path11_fill" transform="translate(2793.12 976)" fill="#FCFBFC"/>
</g>
<g id="Icon">
<g id="Line">
<use xlink:href="#path9_stroke" transform="matrix(-1 0 0 1 2806.95 981.842)" fill="#D7D7D7"/>
</g>
<g id="Line">
<use xlink:href="#path10_stroke" transform="matrix(-1 0 0 1 2806.95 986.947)" fill="#D7D7D7"/>
</g>
</g>
</g>
</g>
<g id="Close + Minimize + Full Screen">
<g id="green">
<use xlink:href="#path12_fill" transform="translate(2769.69 981)" fill="#F7F5F7"/>
</g>
<g id="yellow">
<use xlink:href="#path13_fill" transform="translate(2750.94 981)" fill="#F7F5F7"/>
</g>
<g id="red">
<use xlink:href="#path13_fill" transform="translate(2732.19 981)" fill="#F7F5F7"/>
</g>
</g>
</g>
</g>
</g>
</g>
<defs>
<filter id="filter0_bdi" filterUnits="userSpaceOnUse" x="2638" y="886" width="1364" height="203" color-interpolation-filters="sRGB">
<feFlood flood-opacity="0" result="BackgroundImageFix"/>
<feGaussianBlur in="BackgroundImage" stdDeviation="40.7742"/>
<feComposite in2="SourceAlpha" operator="in" result="effect1_backgroundBlur"/>
<feColorMatrix in="SourceAlpha" type="matrix" values="0 0 0 0 0 0 0 0 0 0 0 0 0 0 0 0 0 0 255 0"/>
<feOffset dx="0" dy="-1"/>
<feColorMatrix type="matrix" values="0 0 0 0 0 0 0 0 0 0 0 0 0 0 0 0 0 0 0.0560462 0"/>
<feBlend mode="normal" in2="effect1_backgroundBlur" result="effect2_dropShadow"/>
<feBlend mode="normal" in="SourceGraphic" in2="effect2_dropShadow" result="shape"/>
<feColorMatrix in="SourceAlpha" type="matrix" values="0 0 0 0 0 0 0 0 0 0 0 0 0 0 0 0 0 0 255 0" result="hardAlpha"/>
<feOffset dx="0" dy="1"/>
<feGaussianBlur stdDeviation="0.5"/>
<feComposite in2="hardAlpha" operator="arithmetic" k2="-1" k3="1"/>
<feColorMatrix type="matrix" values="0 0 0 0 1 0 0 0 0 1 0 0 0 0 1 0 0 0 0.5 0"/>
<feBlend mode="normal" in2="shape" result="effect3_innerShadow"/>
</filter>
<filter id="filter1_di" filterUnits="userSpaceOnUse" x="3062" y="976" width="516" height="23" color-interpolation-filters="sRGB">
<feFlood flood-opacity="0" result="BackgroundImageFix"/>
<feColorMatrix in="SourceAlpha" type="matrix" values="0 0 0 0 0 0 0 0 0 0 0 0 0 0 0 0 0 0 255 0"/>
<feOffset dx="0" dy="1"/>
<feColorMatrix type="matrix" values="0 0 0 0 0.792157 0 0 0 0 0.788235 0 0 0 0 0.792157 0 0 0 1 0"/>
<feBlend mode="normal" in2="BackgroundImageFix" result="effect1_dropShadow"/>
<feBlend mode="normal" in="SourceGraphic" in2="effect1_dropShadow" result="shape"/>
<feColorMatrix in="SourceAlpha" type="matrix" values="0 0 0 0 0 0 0 0 0 0 0 0 0 0 0 0 0 0 255 0" result="hardAlpha"/>
<feOffset dx="0" dy="1"/>
<feComposite in2="hardAlpha" operator="arithmetic" k2="-1" k3="1"/>
<feColorMatrix type="matrix" values="0 0 0 0 1 0 0 0 0 1 0 0 0 0 1 0 0 0 1 0"/>
<feBlend mode="normal" in2="shape" result="effect2_innerShadow"/>
</filter>
<filter id="filter2_di" filterUnits="userSpaceOnUse" x="2818" y="976" width="25" height="23" color-interpolation-filters="sRGB">
<feFlood flood-opacity="0" result="BackgroundImageFix"/>
<feColorMatrix in="SourceAlpha" type="matrix" values="0 0 0 0 0 0 0 0 0 0 0 0 0 0 0 0 0 0 255 0"/>
<feOffset dx="0" dy="1"/>
<feColorMatrix type="matrix" values="0 0 0 0 0.792157 0 0 0 0 0.788235 0 0 0 0 0.792157 0 0 0 1 0"/>
<feBlend mode="normal" in2="BackgroundImageFix" result="effect1_dropShadow"/>
<feBlend mode="normal" in="SourceGraphic" in2="effect1_dropShadow" result="shape"/>
<feColorMatrix in="SourceAlpha" type="matrix" values="0 0 0 0 0 0 0 0 0 0 0 0 0 0 0 0 0 0 255 0" result="hardAlpha"/>
<feOffset dx="0" dy="1"/>
<feComposite in2="hardAlpha" operator="arithmetic" k2="-1" k3="1"/>
<feColorMatrix type="matrix" values="0 0 0 0 1 0 0 0 0 1 0 0 0 0 1 0 0 0 1 0"/>
<feBlend mode="normal" in2="shape" result="effect2_innerShadow"/>
</filter>
<filter id="filter3_di" filterUnits="userSpaceOnUse" x="2793" y="976" width="25" height="23" color-interpolation-filters="sRGB">
<feFlood flood-opacity="0" result="BackgroundImageFix"/>
<feColorMatrix in="SourceAlpha" type="matrix" values="0 0 0 0 0 0 0 0 0 0 0 0 0 0 0 0 0 0 255 0"/>
<feOffset dx="0" dy="1"/>
<feColorMatrix type="matrix" values="0 0 0 0 0.792157 0 0 0 0 0.788235 0 0 0 0 0.792157 0 0 0 1 0"/>
<feBlend mode="normal" in2="BackgroundImageFix" result="effect1_dropShadow"/>
<feBlend mode="normal" in="SourceGraphic" in2="effect1_dropShadow" result="shape"/>
<feColorMatrix in="SourceAlpha" type="matrix" values="0 0 0 0 0 0 0 0 0 0 0 0 0 0 0 0 0 0 255 0" result="hardAlpha"/>
<feOffset dx="0" dy="1"/>
<feComposite in2="hardAlpha" operator="arithmetic" k2="-1" k3="1"/>
<feColorMatrix type="matrix" values="0 0 0 0 1 0 0 0 0 1 0 0 0 0 1 0 0 0 1 0"/>
<feBlend mode="normal" in2="shape" result="effect2_innerShadow"/>
</filter>
<linearGradient id="paint2_linear" x1="0" y1="0" x2="1" y2="0" gradientUnits="userSpaceOnUse" gradientTransform="matrix(0 38.187 -1174.98 0 600 0)">
<stop offset="0" stop-color="#F6F4F6"/>
<stop offset="0.995416" stop-color="#D5D5D5"/>
<stop offset="1" stop-color="#B7B6B7"/>
</linearGradient>
<path id="path0_stroke" d="M 397.801 1047.73L 397.313 1047.62L 397.313 1047.62L 397.801 1047.73ZM 54.5318 587.735L 54.0319 587.745L 54.5318 587.735ZM 882.34 204.253L 882.807 204.076L 882.34 204.253ZM 1060.11 652.903L 1059.91 652.445L 1060.11 652.903ZM 1750.84 112.233L 1751.31 112.4L 1750.84 112.233ZM 1960.11 95.4645L 1959.81 95.8638L 1960.11 95.4645ZM 2045.56 604.342L 2046.01 604.564L 2045.56 604.342ZM 1960.11 732.538L 1959.73 732.216L 1959.73 732.216L 1960.11 732.538ZM 1305.43 1481.11L 1305.75 1481.49L 1305.75 1481.49L 1305.43 1481.11ZM 398.29 1047.84C 407.95 1003.37 396.13 973.373 371.436 951.189C 346.796 929.054 309.368 914.724 267.891 901.426C 226.395 888.121 180.778 875.831 139.636 857.801C 98.4998 839.775 61.8886 816.036 38.3375 779.868L 37.4995 780.414C 61.2027 816.815 98.0165 840.655 139.234 858.717C 180.446 876.775 226.112 889.081 267.585 902.378C 309.078 915.681 346.307 929.959 370.768 951.933C 395.176 973.86 406.902 1003.48 397.313 1047.62L 398.29 1047.84ZM 38.3375 779.868C 14.7306 743.615 4.05573 716.405 1.26891 695.275C -1.51483 674.167 3.56839 659.101 11.5467 647.101C 19.5424 635.066 30.4726 626.1 39.3878 617.22C 48.2925 608.35 55.2668 599.492 55.0317 587.725L 54.0319 587.745C 54.258 599.062 47.5728 607.655 38.682 616.512C 29.8017 625.359 18.8006 634.395 10.714 646.548C 2.61009 658.736 -2.5398 674.044 0.277492 695.405C 3.0917 716.744 13.852 744.098 37.4995 780.414L 38.3375 779.868ZM 55.0317 587.725C 52.4581 458.946 129.554 355.815 230.014 279.203C 330.479 202.581 454.194 152.57 544.727 129.997L 544.485 129.027C 453.885 151.619 329.984 201.712 229.407 278.408C 128.824 355.114 51.4492 458.512 54.0319 587.745L 55.0317 587.725ZM 544.727 129.997C 635.261 107.423 710.381 101.779 767.452 113.914C 824.498 126.042 863.488 155.924 881.872 204.43L 882.807 204.076C 864.281 155.192 824.971 125.121 767.66 112.936C 710.375 100.756 635.084 106.437 544.485 129.027L 544.727 129.997ZM 881.872 204.43C 907.574 272.248 897.3 362.698 884.937 444.633C 878.757 485.584 872.061 524.386 869.101 557.114C 866.144 589.813 866.901 616.582 875.745 633.363L 876.629 632.897C 867.94 616.408 867.139 589.921 870.097 557.204C 873.052 524.517 879.744 485.744 885.925 444.783C 898.282 362.895 908.617 272.178 882.807 204.076L 881.872 204.43ZM 875.745 633.363C 893.414 666.893 929.83 676.159 966.58 674.938C 1003.33 673.713 1040.64 661.996 1060.31 653.361L 1059.91 652.445C 1040.29 661.06 1003.17 672.727 966.547 673.939C 929.924 675.155 894.026 665.909 876.629 632.897L 875.745 633.363ZM 1060.31 653.361C 1139.54 618.572 1195.12 555.823 1235.34 479.354L 1234.45 478.889C 1194.29 555.255 1138.95 617.764 1059.91 652.445L 1060.31 653.361ZM 1235.34 479.354C 1255.37 441.272 1281.81 422.675 1314.29 410.669C 1346.8 398.644 1385.36 393.239 1429.54 381.547L 1429.28 380.58C 1385.16 392.259 1346.56 397.674 1313.94 409.731C 1281.28 421.808 1254.61 440.553 1234.45 478.889L 1235.34 479.354ZM 1429.54 381.547C 1517.87 358.167 1687.35 293.706 1751.31 112.4L 1750.37 112.067C 1686.59 292.88 1517.54 357.219 1429.28 380.58L 1429.54 381.547ZM 1751.31 112.4C 1769.35 61.2599 1786.27 30.8482 1802.75 14.9176C 1810.97 6.96147 1819.07 2.63442 1827.13 1.12422C 1835.22 -0.399358 1843.25 0.9029 1851.44 4.28891C 1867.84 11.0562 1884.59 26.1292 1902.44 43.4652C 1920.28 60.7844 1939.18 80.3103 1959.81 95.8638L 1960.41 95.0652C 1939.84 79.5611 1920.99 60.0779 1903.14 42.7477C 1885.31 25.4341 1868.43 10.217 1851.83 3.36457C 1843.52 -0.0592746 1835.21 -1.39928 1826.95 0.141329C 1818.66 1.69533 1810.39 6.13892 1802.05 14.1987C 1785.4 30.3001 1768.42 60.9015 1750.37 112.067L 1751.31 112.4ZM 1959.81 95.8638C 2038.97 155.516 2166.57 359.696 2045.11 604.119L 2046.01 604.564C 2167.72 359.622 2039.87 154.944 1960.41 95.0652L 1959.81 95.8638ZM 2045.11 604.119C 2024.39 645.827 1996.43 688.682 1959.73 732.216L 1960.5 732.86C 1997.24 689.279 2025.26 646.324 2046.01 604.564L 2045.11 604.119ZM 1959.73 732.216C 1833.8 881.599 1710.36 941.969 1600.01 973.042C 1544.81 988.583 1492.88 996.797 1445.52 1005.15C 1398.16 1013.5 1355.33 1022.01 1318.44 1038.11L 1318.84 1039.03C 1355.63 1022.96 1398.34 1014.49 1445.69 1006.13C 1493.05 997.783 1545.03 989.56 1600.28 974.005C 1710.81 942.883 1834.42 882.412 1960.5 732.86L 1959.73 732.216ZM 1318.44 1038.11C 1281.36 1054.3 1266.37 1086.5 1263.61 1126.47C 1260.86 1166.4 1270.3 1214.21 1282.19 1261.8C 1294.07 1309.4 1308.39 1356.81 1315.42 1396.03C 1318.94 1415.63 1320.63 1433.14 1319.29 1447.62C 1317.95 1462.09 1313.6 1473.42 1305.1 1480.73L 1305.75 1481.49C 1314.53 1473.94 1318.94 1462.31 1320.28 1447.72C 1321.63 1433.14 1319.93 1415.49 1316.4 1395.85C 1309.36 1356.57 1295.03 1309.13 1283.16 1261.56C 1271.28 1213.99 1261.86 1166.34 1264.61 1126.54C 1267.35 1086.79 1282.22 1055.02 1318.84 1039.03L 1318.44 1038.11ZM 1305.1 1480.73C 1279.26 1502.97 1232.52 1518.02 1174.85 1526.88C 1117.19 1535.73 1048.72 1538.38 979.465 1535.87C 910.207 1533.36 840.209 1525.71 779.501 1513.95C 718.788 1502.2 667.436 1486.36 635.469 1467.51L 634.961 1468.37C 667.079 1487.31 718.567 1503.18 779.311 1514.94C 840.059 1526.7 910.135 1534.36 979.429 1536.87C 1048.72 1539.38 1117.29 1536.73 1175 1527.87C 1232.7 1519.01 1279.68 1503.93 1305.75 1481.49L 1305.1 1480.73ZM 635.469 1467.51C 571.387 1429.72 498.908 1385.5 449.037 1320.36C 399.195 1255.26 371.914 1169.25 398.29 1047.84L 397.313 1047.62C 370.877 1169.32 398.218 1255.63 448.243 1320.96C 498.239 1386.25 570.873 1430.58 634.961 1468.37L 635.469 1467.51Z"/>
<path id="path1_fill" fill-rule="evenodd" d="M 0 4C 0 1.79086 1.79086 0 4 0L 1746 0C 1748.21 0 1750 1.79086 1750 4L 1750 3166C 1750 3168.21 1748.21 3170 1746 3170L 4 3170C 1.79086 3170 0 3168.21 0 3166L 0 4Z"/>
<path id="path2_fill" fill-rule="evenodd" d="M 0 6C 0 2.68629 2.68629 0 6 0L 1194 0C 1197.31 0 1200 2.68629 1200 6L 1200 39L 0 39L 0 6Z"/>
<path id="path3_fill" fill-rule="evenodd" d="M 0 0L 22.5 0L 22.5 25L 0 25L 0 0Z"/>
<path id="path4_fill" fill-rule="evenodd" d="M 0.9375 0L 0 0L 0 23.9866L 0.9375 23.9866L 0.9375 1.00671L 22.5 1.00671L 22.5 0L 0.9375 0ZM 16.875 12L 12.1875 12L 12.1875 7L 11.25 7L 11.25 12L 6.5625 12L 6.5625 13.0067L 11.25 13.0067L 11.25 18.0739L 12.1875 18.0739L 12.1875 13.0067L 16.875 13.0067L 16.875 12Z"/>
<path id="path5_fill" fill-rule="evenodd" d="M 3.5 0C 1.567 0 0 1.567 0 3.5L 0 18.5C 0 20.433 1.567 22 3.5 22L 512.125 22C 514.058 22 515.625 20.433 515.625 18.5L 515.625 3.5C 515.625 1.567 514.058 0 512.125 0L 3.5 0Z"/>
<path id="path6_fill" fill-rule="evenodd" d="M 4.67163 5L 9.39062 2.5L 4.67163 0L 4.67163 2.02075C 2.05127 2.28308 0 4.65106 0 7.53357C 0 10.5915 2.30859 13.0705 5.15625 13.0705C 8.00391 13.0705 10.3125 10.5915 10.3125 7.53357C 10.3125 7.36389 10.3054 7.19598 10.2915 7.03021L 9.34937 7.03021C 9.36646 7.1955 9.375 7.3634 9.375 7.53357C 9.375 10.0355 7.48608 12.0638 5.15625 12.0638C 2.82642 12.0638 0.9375 10.0355 0.9375 7.53357C 0.9375 5.20764 2.57007 3.29102 4.67163 3.0329L 4.67163 5Z"/>
<path id="path7_fill" d="M 2.89736 10.1782C 2.89736 9.86084 2.77676 9.6154 2.53555 9.44189C 2.29857 9.26416 1.88174 9.11182 1.28506 8.98486C 0.692609 8.85791 0.220767 8.70557 -0.13047 8.52783C -0.477475 8.3501 -0.735614 8.13851 -0.904884 7.89307C -1.06992 7.64762 -1.15244 7.35563 -1.15244 7.01709C -1.15244 6.45426 -0.915464 5.97819 -0.441505 5.58887C 0.0366847 5.19954 0.64606 5.00488 1.38662 5.00488C 2.16527 5.00488 2.7958 5.20589 3.27822 5.60791C 3.76487 6.00993 4.0082 6.52409 4.0082 7.15039L 2.82754 7.15039C 2.82754 6.82878 2.69 6.5516 2.41494 6.31885C 2.14411 6.0861 1.80133 5.96973 1.38662 5.96973C 0.959211 5.96973 0.624901 6.06283 0.38369 6.24902C 0.142479 6.43522 0.0218735 6.67855 0.0218735 6.979C 0.0218735 7.26253 0.134015 7.47624 0.358299 7.62012C 0.582583 7.764 0.986717 7.90153 1.5707 8.03271C 2.15892 8.1639 2.63499 8.32048 2.99892 8.50244C 3.36286 8.68441 3.63157 8.90446 3.80508 9.1626C 3.98281 9.4165 4.07168 9.72754 4.07168 10.0957C 4.07168 10.7093 3.82624 11.2023 3.33535 11.5747C 2.84446 11.9429 2.20758 12.127 1.42471 12.127C 0.874575 12.127 0.387922 12.0296 -0.0352554 11.835C -0.458433 11.6403 -0.790627 11.3695 -1.03184 11.0225C -1.26882 10.6712 -1.38731 10.2925 -1.38731 9.88623L -0.21299 9.88623C -0.191831 10.2798 -0.0352554 10.5929 0.256737 10.8257C 0.552961 11.0542 0.942284 11.1685 1.42471 11.1685C 1.86904 11.1685 2.22451 11.0796 2.49111 10.9019C 2.76195 10.7199 2.89736 10.4787 2.89736 10.1782ZM 9.6417 12C 9.57399 11.8646 9.51898 11.6234 9.47666 11.2764C 8.93076 11.8434 8.27907 12.127 7.52158 12.127C 6.8445 12.127 6.28802 11.9365 5.85215 11.5557C 5.42051 11.1706 5.20469 10.6839 5.20469 10.0957C 5.20469 9.38053 5.47552 8.82617 6.01719 8.43262C 6.56308 8.03483 7.32904 7.83594 8.31504 7.83594L 9.45762 7.83594L 9.45762 7.29639C 9.45762 6.8859 9.33489 6.56006 9.08945 6.31885C 8.84401 6.0734 8.48219 5.95068 8.004 5.95068C 7.58506 5.95068 7.23382 6.05648 6.95029 6.26807C 6.66676 6.47965 6.525 6.73568 6.525 7.03613L 5.34433 7.03613C 5.34433 6.69336 5.46494 6.36328 5.70615 6.0459C 5.95159 5.72428 6.28167 5.47038 6.69639 5.28418C 7.11533 5.09798 7.57448 5.00488 8.07383 5.00488C 8.86517 5.00488 9.48512 5.20378 9.93369 5.60156C 10.3823 5.99512 10.615 6.5389 10.6319 7.23291L 10.6319 10.394C 10.6319 11.0246 10.7123 11.526 10.8731 11.8984L 10.8731 12L 9.6417 12ZM 7.69297 11.105C 8.06113 11.105 8.41025 11.0098 8.74033 10.8193C 9.07041 10.6289 9.3095 10.3813 9.45762 10.0767L 9.45762 8.66748L 8.53721 8.66748C 7.0984 8.66748 6.379 9.08854 6.379 9.93066C 6.379 10.2988 6.50172 10.5866 6.74717 10.7939C 6.99261 11.0013 7.30788 11.105 7.69297 11.105ZM 13.5486 12L 12.3743 12L 12.3743 5.13184L 13.5486 5.13184L 13.5486 12ZM 12.2791 3.31006C 12.2791 3.11963 12.3362 2.95882 12.4505 2.82764C 12.569 2.69645 12.7425 2.63086 12.971 2.63086C 13.1995 2.63086 13.373 2.69645 13.4915 2.82764C 13.61 2.95882 13.6692 3.11963 13.6692 3.31006C 13.6692 3.50049 13.61 3.65918 13.4915 3.78613C 13.373 3.91309 13.1995 3.97656 12.971 3.97656C 12.7425 3.97656 12.569 3.91309 12.4505 3.78613C 12.3362 3.65918 12.2791 3.50049 12.2791 3.31006ZM 16.5098 12L 15.3354 12L 15.3354 2.25L 16.5098 2.25L 16.5098 12ZM 19.4709 12L 18.2966 12L 18.2966 5.13184L 19.4709 5.13184L 19.4709 12ZM 18.2014 3.31006C 18.2014 3.11963 18.2585 2.95882 18.3728 2.82764C 18.4912 2.69645 18.6647 2.63086 18.8933 2.63086C 19.1218 2.63086 19.2953 2.69645 19.4138 2.82764C 19.5323 2.95882 19.5915 3.11963 19.5915 3.31006C 19.5915 3.50049 19.5323 3.65918 19.4138 3.78613C 19.2953 3.91309 19.1218 3.97656 18.8933 3.97656C 18.6647 3.97656 18.4912 3.91309 18.3728 3.78613C 18.2585 3.65918 18.2014 3.50049 18.2014 3.31006ZM 23.911 11.1685C 24.33 11.1685 24.696 11.0415 25.0092 10.7876C 25.3223 10.5337 25.4958 10.2163 25.5297 9.83545L 26.6405 9.83545C 26.6194 10.229 26.484 10.6035 26.2343 10.959C 25.9846 11.3145 25.6503 11.598 25.2313 11.8096C 24.8166 12.0212 24.3765 12.127 23.911 12.127C 22.9758 12.127 22.231 11.8159 21.6767 11.1938C 21.1265 10.5675 20.8515 9.71273 20.8515 8.62939L 20.8515 8.43262C 20.8515 7.764 20.9742 7.16943 21.2196 6.64893C 21.4651 6.12842 21.8163 5.72428 22.2733 5.43652C 22.7346 5.14876 23.2784 5.00488 23.9047 5.00488C 24.6749 5.00488 25.3139 5.23551 25.8217 5.69678C 26.3337 6.15804 26.6067 6.75684 26.6405 7.49316L 25.5297 7.49316C 25.4958 7.04883 25.3266 6.6849 25.0219 6.40137C 24.7214 6.11361 24.349 5.96973 23.9047 5.96973C 23.308 5.96973 22.8446 6.18555 22.5145 6.61719C 22.1887 7.0446 22.0258 7.66455 22.0258 8.47705L 22.0258 8.69922C 22.0258 9.49056 22.1887 10.0999 22.5145 10.5273C 22.8404 10.9548 23.3059 11.1685 23.911 11.1685ZM 32.0011 12C 31.9334 11.8646 31.8784 11.6234 31.836 11.2764C 31.2901 11.8434 30.6384 12.127 29.881 12.127C 29.2039 12.127 28.6474 11.9365 28.2115 11.5557C 27.7799 11.1706 27.5641 10.6839 27.5641 10.0957C 27.5641 9.38053 27.8349 8.82617 28.3766 8.43262C 28.9225 8.03483 29.6884 7.83594 30.6744 7.83594L 31.817 7.83594L 31.817 7.29639C 31.817 6.8859 31.6943 6.56006 31.4488 6.31885C 31.2034 6.0734 30.8416 5.95068 30.3634 5.95068C 29.9444 5.95068 29.5932 6.05648 29.3097 6.26807C 29.0261 6.47965 28.8844 6.73568 28.8844 7.03613L 27.7037 7.03613C 27.7037 6.69336 27.8243 6.36328 28.0655 6.0459C 28.311 5.72428 28.641 5.47038 29.0558 5.28418C 29.4747 5.09798 29.9339 5.00488 30.4332 5.00488C 31.2245 5.00488 31.8445 5.20378 32.2931 5.60156C 32.7416 5.99512 32.9744 6.5389 32.9913 7.23291L 32.9913 10.394C 32.9913 11.0246 33.0717 11.526 33.2325 11.8984L 33.2325 12L 32.0011 12ZM 30.0523 11.105C 30.4205 11.105 30.7696 11.0098 31.0997 10.8193C 31.4298 10.6289 31.6689 10.3813 31.817 10.0767L 31.817 8.66748L 30.8966 8.66748C 29.4578 8.66748 28.7384 9.08854 28.7384 9.93066C 28.7384 10.2988 28.8611 10.5866 29.1065 10.7939C 29.352 11.0013 29.6673 11.105 30.0523 11.105ZM 34.6575 11.3843C 34.6575 11.1812 34.7168 11.0119 34.8353 10.8765C 34.958 10.741 35.1399 10.6733 35.3812 10.6733C 35.6224 10.6733 35.8043 10.741 35.9271 10.8765C 36.054 11.0119 36.1175 11.1812 36.1175 11.3843C 36.1175 11.5789 36.054 11.7419 35.9271 11.873C 35.8043 12.0042 35.6224 12.0698 35.3812 12.0698C 35.1399 12.0698 34.958 12.0042 34.8353 11.873C 34.7168 11.7419 34.6575 11.5789 34.6575 11.3843ZM 40.6147 11.1685C 41.0337 11.1685 41.3997 11.0415 41.7129 10.7876C 42.026 10.5337 42.1995 10.2163 42.2334 9.83545L 43.3442 9.83545C 43.3231 10.229 43.1877 10.6035 42.938 10.959C 42.6883 11.3145 42.354 11.598 41.9351 11.8096C 41.5203 12.0212 41.0802 12.127 40.6147 12.127C 39.6795 12.127 38.9347 11.8159 38.3804 11.1938C 37.8302 10.5675 37.5552 9.71273 37.5552 8.62939L 37.5552 8.43262C 37.5552 7.764 37.6779 7.16943 37.9233 6.64893C 38.1688 6.12842 38.52 5.72428 38.9771 5.43652C 39.4383 5.14876 39.9821 5.00488 40.6084 5.00488C 41.3786 5.00488 42.0176 5.23551 42.5254 5.69678C 43.0374 6.15804 43.3104 6.75684 43.3442 7.49316L 42.2334 7.49316C 42.1995 7.04883 42.0303 6.6849 41.7256 6.40137C 41.4251 6.11361 41.0527 5.96973 40.6084 5.96973C 40.0117 5.96973 39.5483 6.18555 39.2183 6.61719C 38.8924 7.0446 38.7295 7.66455 38.7295 8.47705L 38.7295 8.69922C 38.7295 9.49056 38.8924 10.0999 39.2183 10.5273C 39.5441 10.9548 40.0096 11.1685 40.6147 11.1685ZM 44.1535 8.50244C 44.1535 7.82959 44.2847 7.22445 44.5471 6.68701C 44.8137 6.14958 45.1818 5.73486 45.6516 5.44287C 46.1255 5.15088 46.6651 5.00488 47.2702 5.00488C 48.2054 5.00488 48.9608 5.32861 49.5363 5.97607C 50.1161 6.62354 50.406 7.4847 50.406 8.55957L 50.406 8.64209C 50.406 9.31071 50.2769 9.91162 50.0187 10.4448C 49.7648 10.9738 49.3988 11.3864 48.9206 11.6826C 48.4466 11.9788 47.9007 12.127 47.2829 12.127C 46.3519 12.127 45.5965 11.8032 45.0168 11.1558C 44.4413 10.5083 44.1535 9.65137 44.1535 8.58496L 44.1535 8.50244ZM 45.3342 8.64209C 45.3342 9.40381 45.5098 10.0153 45.861 10.4766C 46.2165 10.9378 46.6905 11.1685 47.2829 11.1685C 47.8796 11.1685 48.3535 10.9357 48.7048 10.4702C 49.056 10.0005 49.2316 9.34456 49.2316 8.50244C 49.2316 7.74919 49.0518 7.13981 48.6921 6.67432C 48.3366 6.20459 47.8627 5.96973 47.2702 5.96973C 46.6905 5.96973 46.2229 6.20036 45.8674 6.66162C 45.5119 7.12288 45.3342 7.78304 45.3342 8.64209ZM 52.7831 5.13184L 52.8148 5.89355C 53.3184 5.30111 53.9976 5.00488 54.8524 5.00488C 55.8131 5.00488 56.4669 5.37305 56.8139 6.10938C 57.0424 5.7793 57.3386 5.5127 57.7025 5.30957C 58.0707 5.10645 58.5045 5.00488 59.0038 5.00488C 60.5103 5.00488 61.2763 5.80257 61.3017 7.39795L 61.3017 12L 60.1273 12L 60.1273 7.46777C 60.1273 6.97689 60.0152 6.61084 59.7909 6.36963C 59.5666 6.12419 59.19 6.00146 58.661 6.00146C 58.2252 6.00146 57.8633 6.13265 57.5756 6.39502C 57.2878 6.65316 57.1207 7.00228 57.0741 7.44238L 57.0741 12L 55.8935 12L 55.8935 7.49951C 55.8935 6.50081 55.4047 6.00146 54.4271 6.00146C 53.657 6.00146 53.1301 6.32943 52.8466 6.98535L 52.8466 12L 51.6723 12L 51.6723 5.13184L 52.7831 5.13184Z"/>
<path id="path8_fill" fill-rule="evenodd" d="M 3.5 0C 1.567 0 0 1.567 0 3.5L 0 18.5C 0 20.433 1.567 22 3.5 22L 20.4062 22C 22.3392 22 23.9062 20.433 23.9062 18.5L 23.9062 3.5C 23.9062 1.567 22.3392 0 20.4062 0L 3.5 0Z"/>
<path id="path9_stroke" d="M 0.548861 -0.511127C 0.266574 -0.814255 -0.207999 -0.831149 -0.511127 -0.548861C -0.814255 -0.266574 -0.831149 0.207999 -0.548861 0.511127L 0.548861 -0.511127ZM 4.19096 5.60087C 4.47325 5.904 4.94782 5.92089 5.25095 5.63861C 5.55408 5.35632 5.57097 4.88175 5.28869 4.57862L 4.19096 5.60087ZM -0.548861 0.511127L 4.19096 5.60087L 5.28869 4.57862L 0.548861 -0.511127L -0.548861 0.511127Z"/>
<path id="path10_stroke" d="M -0.548861 4.57862C -0.831149 4.88175 -0.814255 5.35632 -0.511127 5.63861C -0.207999 5.92089 0.266574 5.904 0.548861 5.60087L -0.548861 4.57862ZM 5.28869 0.511127C 5.57097 0.207999 5.55408 -0.266574 5.25095 -0.548861C 4.94782 -0.831149 4.47325 -0.814255 4.19096 -0.511127L 5.28869 0.511127ZM 0.548861 5.60087L 5.28869 0.511127L 4.19096 -0.511127L -0.548861 4.57862L 0.548861 5.60087Z"/>
<path id="path11_fill" fill-rule="evenodd" d="M 3.5 0C 1.567 0 0 1.567 0 3.5L 0 18.5C 0 20.433 1.567 22 3.5 22L 21.3438 22C 23.2767 22 24.8438 20.433 24.8438 18.5L 24.8438 3.5C 24.8438 1.567 23.2767 0 21.3438 0L 3.5 0Z"/>
<path id="path12_fill" fill-rule="evenodd" d="M 5.625 12.0805C 8.7316 12.0805 11.25 9.37622 11.25 6.04027C 11.25 2.70432 8.7316 0 5.625 0C 2.5184 0 0 2.70432 0 6.04027C 0 9.37622 2.5184 12.0805 5.625 12.0805Z"/>
<path id="path13_fill" fill-rule="evenodd" d="M 5.625 12C 8.7316 12 11.25 9.31371 11.25 6C 11.25 2.68629 8.7316 0 5.625 0C 2.5184 0 0 2.68629 0 6C 0 9.31371 2.5184 12 5.625 12Z"/>
</defs>
</svg>
