<svg width="1772" height="708" viewBox="0 0 1772 708" version="1.1" xmlns="http://www.w3.org/2000/svg" xmlns:xlink="http://www.w3.org/1999/xlink">
<title>Component</title>
<desc>Created using Figma</desc>
<g id="Canvas" transform="translate(-2425 -2003)">
<g id="Component">
<g id="Rectangle 4" opacity="0.3">
<use xlink:href="#path0_fill" transform="translate(2425.92 2003.45)" fill="#319BF5" fill-opacity="0.02"/>
<mask id="mask0_outline_ins">
<use xlink:href="#path0_fill" fill="white" transform="translate(2425.92 2003.45)"/>
</mask>
<g mask="url(#mask0_outline_ins)">
<use xlink:href="#path1_stroke_2x" transform="translate(2425.92 2003.45)" fill="url(#paint1_linear)"/>
</g>
</g>
<g id="Oval 2" opacity="0.3">
<use xlink:href="#path2_fill" transform="translate(3970.76 2102.46)" fill="#319BF5" fill-opacity="0.02"/>
<mask id="mask1_outline_ins">
<use xlink:href="#path2_fill" fill="white" transform="translate(3970.76 2102.46)"/>
</mask>
<g mask="url(#mask1_outline_ins)">
<use xlink:href="#path3_stroke_2x" transform="translate(3970.76 2102.46)" fill="url(#paint3_linear)"/>
</g>
</g>
<g id="Rectangle 4 Copy 2" opacity="0.4">
<use xlink:href="#path4_fill" transform="translate(2597.78 2050.83)" fill="#319BF5" fill-opacity="0.02"/>
<mask id="mask2_outline_ins">
<use xlink:href="#path4_fill" fill="white" transform="translate(2597.78 2050.83)"/>
</mask>
<g mask="url(#mask2_outline_ins)">
<use xlink:href="#path5_stroke_2x" transform="translate(2597.78 2050.83)" fill="url(#paint5_linear)"/>
</g>
</g>
<g id="Rectangle 4 Copy" opacity="0.5">
<use xlink:href="#path6_fill" transform="translate(2692.52 2087.61)" fill="#319BF5" fill-opacity="0.02"/>
<mask id="mask3_outline_ins">
<use xlink:href="#path6_fill" fill="white" transform="translate(2692.52 2087.61)"/>
</mask>
<g mask="url(#mask3_outline_ins)">
<use xlink:href="#path7_stroke_2x" transform="translate(2692.52 2087.61)" fill="url(#paint7_linear)"/>
</g>
</g>
</g>
</g>
<defs>
<linearGradient id="paint1_linear" x1="0" y1="0" x2="1" y2="0" gradientUnits="userSpaceOnUse" gradientTransform="matrix(-272.622 835.755 -2093.45 -108.837 1158.13 -128.722)">
<stop offset="0" stop-color="#0FE4B7"/>
<stop offset="1" stop-color="#2399F5"/>
</linearGradient>
<linearGradient id="paint3_linear" x1="0" y1="0" x2="1" y2="0" gradientUnits="userSpaceOnUse" gradientTransform="matrix(-20.982 320.021 -161.12 -41.6751 89.1342 -49.2893)">
<stop offset="0" stop-color="#0FE4B7"/>
<stop offset="1" stop-color="#2399F5"/>
</linearGradient>
<linearGradient id="paint5_linear" x1="0" y1="0" x2="1" y2="0" gradientUnits="userSpaceOnUse" gradientTransform="matrix(-220.48 633.226 -1693.06 -82.4626 936.628 -97.5287)">
<stop offset="0" stop-color="#0FE4B7"/>
<stop offset="1" stop-color="#2399F5"/>
</linearGradient>
<linearGradient id="paint7_linear" x1="0" y1="0" x2="1" y2="0" gradientUnits="userSpaceOnUse" gradientTransform="matrix(-195.044 515.504 -1497.74 -67.1321 828.572 -79.3973)">
<stop offset="0" stop-color="#0FE4B7"/>
<stop offset="1" stop-color="#2399F5"/>
</linearGradient>
<path id="path0_fill" fill-rule="evenodd" d="M 268.944 3.48422L 268.944 3.48422C 364.647 -11.5666 441.623 25.1883 613.765 55.5227C 785.906 85.857 875.06 87.9163 1032.92 77.4341C 1118.09 71.7792 1319.08 36.1873 1399.45 30.3084C 1479.82 24.4295 1641.09 3.79775 1675.26 127.773C 1709.43 251.749 1744.84 260.874 1761.44 316.377C 1796.48 433.609 1733.05 471.664 1610.31 524.449L 1610.31 524.449C 1487.57 577.235 1238.21 546.909 1010.24 573.267C 782.268 599.626 616.449 662.247 535.888 677.606C 317.189 719.299 193.328 714.306 130.944 677.606L 130.944 677.606C 38.3113 623.111 89.3687 502.284 56.5928 431.941C 23.8169 361.599 6.84782 326.954 1.17971 286.603C -4.48839 246.251 9.46386 196.879 60.6006 127.773C 111.737 58.6678 173.241 18.535 268.944 3.48422Z"/>
<path id="path1_stroke_2x" d="M 268.944 3.48422L 268.789 2.49636L 267.944 2.62919L 267.944 3.48422L 268.944 3.48422ZM 1032.92 77.4341L 1032.99 78.4319L 1032.92 77.4341ZM 1761.44 316.377L 1762.39 316.09L 1761.44 316.377ZM 535.888 677.606L 535.7 676.623L 535.888 677.606ZM 268.944 3.48422L 269.1 4.47208L 269.944 4.33924L 269.944 3.48422L 268.944 3.48422ZM 269.1 4.47208C 316.811 -3.04129 359.8 2.37106 412.484 13.4626C 465.181 24.5556 527.477 41.3316 613.591 56.5075L 613.938 54.5378C 527.911 39.3793 465.648 22.6107 412.896 11.5055C 360.131 0.398637 316.78 -5.04105 268.789 2.49636L 269.1 4.47208ZM 613.591 56.5075C 785.807 86.8521 875.082 88.916 1032.99 78.4319L 1032.86 76.4363C 875.039 86.9165 786.005 84.8619 613.938 54.5378L 613.591 56.5075ZM 1032.99 78.4319C 1075.61 75.6012 1147.19 65.2846 1218.13 54.9448C 1289.07 44.605 1359.38 34.2419 1399.53 31.3058L 1399.38 29.3111C 1359.16 32.2539 1288.78 42.6262 1217.84 52.9657C 1146.9 63.3053 1075.4 73.6122 1032.86 76.4363L 1032.99 78.4319ZM 1399.53 31.3058C 1439.73 28.3648 1500.01 21.7408 1554.51 31.3303C 1608.94 40.8999 1657.35 66.5748 1674.29 128.039L 1676.22 127.508C 1658.99 64.9963 1609.68 38.9993 1554.85 29.3605C 1500.08 19.7418 1439.54 26.3731 1399.38 29.3111L 1399.53 31.3058ZM 1674.29 128.039C 1691.41 190.128 1708.87 223.53 1724.09 248.276C 1739.32 273.045 1752.26 289.091 1760.48 316.663L 1762.39 316.09C 1754.03 288.16 1740.96 271.892 1725.79 247.229C 1710.61 222.542 1693.27 189.394 1676.22 127.508L 1674.29 128.039ZM 1760.48 316.663C 1777.93 375.065 1770.81 413.495 1744.29 443.923C 1717.64 474.488 1671.32 497.119 1609.91 523.53L 1610.7 525.368C 1672.03 498.993 1718.8 476.205 1745.79 445.238C 1772.91 414.135 1779.98 374.921 1762.39 316.09L 1760.48 316.663ZM 1609.91 523.53C 1548.75 549.832 1455.94 555.456 1349.71 557.769C 1243.55 560.08 1124.17 559.09 1010.12 572.274L 1010.35 574.261C 1124.28 561.087 1243.56 562.08 1349.76 559.768C 1455.89 557.458 1549.12 551.851 1610.7 525.368L 1609.91 523.53ZM 1010.12 572.274C 896.085 585.461 797.569 607.72 717.532 628.594C 637.486 649.471 575.923 668.957 535.7 676.623L 536.075 678.588C 576.413 670.896 638.04 651.392 718.037 630.529C 798.042 609.663 896.42 587.432 1010.35 574.261L 1010.12 572.274ZM 535.7 676.623C 426.391 697.463 340.85 706.629 274.807 706.003C 208.782 705.38 162.425 694.965 131.451 676.744L 130.437 678.468C 161.847 696.946 208.612 707.378 274.788 708.003C 340.947 708.626 426.685 699.442 536.075 678.588L 535.7 676.623ZM 131.451 676.744C 85.5785 649.758 75.2259 606.372 72.3201 560.653C 70.866 537.788 71.2807 514.39 70.0094 492.281C 68.7362 470.168 65.7453 449.242 57.4992 431.519L 55.6863 432.364C 63.8281 449.812 66.7461 470.367 68.0127 492.396C 69.2811 514.43 68.8665 537.834 70.3241 560.78C 73.2417 606.684 83.6766 650.959 130.437 678.468L 131.451 676.744ZM 57.4992 431.519C 24.6943 361.114 7.81223 326.631 2.16999 286.464L 0.189435 286.742C 5.88341 327.277 22.9394 362.083 55.6863 432.364L 57.4992 431.519ZM 2.16999 286.464C -3.44561 246.486 10.3381 197.378 61.4044 128.368L 59.7967 127.178C 8.58963 196.379 -5.53118 246.016 0.189435 286.742L 2.16999 286.464ZM 61.4044 128.368C 112.387 59.471 173.659 19.4815 269.1 4.47208L 268.789 2.49636C 172.823 17.5885 111.088 57.8647 59.7967 127.178L 61.4044 128.368ZM 267.944 3.48422L 267.944 3.48422L 269.944 3.48422L 269.944 3.48422L 267.944 3.48422Z"/>
<path id="path2_fill" fill-rule="evenodd" d="M 122.814 270.402C 140.81 263.968 144.212 245.187 111.65 196.546C 79.5173 148.546 71.1677 58.63 65.4826 37.1632C 54.761 -3.3206 22.6657 -7.13754 7.2751 8.61637C -8.11552 24.3703 1.82588 88.0421 28.4939 137.866C 55.1618 187.691 104.818 276.835 122.814 270.402Z"/>
<path id="path3_stroke_2x" d="M 111.65 196.546L 110.819 197.102L 110.819 197.102L 111.65 196.546ZM 65.4826 37.1632L 64.5159 37.4193L 65.4826 37.1632ZM 123.151 271.343C 127.782 269.688 131.572 267.202 134.067 263.552C 136.566 259.894 137.687 255.18 137.188 249.218C 136.195 237.366 128.774 220.327 112.481 195.99L 110.819 197.102C 127.089 221.406 134.248 238.079 135.195 249.385C 135.666 255.003 134.597 259.231 132.415 262.423C 130.228 265.624 126.845 267.899 122.478 269.46L 123.151 271.343ZM 112.481 195.99C 96.5266 172.157 86.4366 137.838 79.6254 106.691C 76.2223 91.1305 73.6457 76.4011 71.5617 64.2047C 69.4779 52.0093 67.8817 42.3205 66.4492 36.9072L 64.5159 37.4193C 65.9261 42.7394 67.5055 52.3401 69.5903 64.5415C 71.6749 76.7419 74.26 91.5165 77.6716 107.118C 84.4896 138.296 94.6408 172.935 110.819 197.102L 112.481 195.99ZM 66.4492 36.9072C 61.0271 16.4335 50.1401 5.04281 38.4671 0.859283C 26.8126 -3.3176 14.5295 -0.240256 6.55979 7.91756L 7.99041 9.31518C 15.4113 1.71909 26.8712 -1.17205 37.7924 2.74202C 48.695 6.64945 59.2165 17.4092 64.5159 37.4193L 66.4492 36.9072ZM 6.55979 7.91756C 2.46563 12.1084 0.173145 19.3317 -0.648458 28.3607C -1.46805 37.3979 -0.82909 48.516 1.1253 60.6245C 5.03526 84.8141 14.2395 113.345 27.6122 138.338L 29.3755 137.394C 16.0803 112.563 6.97979 84.3463 3.09971 60.3055C 1.15908 48.2988 0.531677 37.4311 1.34331 28.542C 2.15294 19.6446 4.38926 13.0013 7.99041 9.31518L 6.55979 7.91756ZM 27.6122 138.338C 40.9487 163.255 60.0507 198.034 78.0673 225.775C 87.0794 239.651 95.8578 251.815 103.5 260.092C 107.335 264.242 110.959 267.48 114.166 269.45C 117.383 271.421 120.468 272.302 123.151 271.343L 122.478 269.46C 120.661 270.109 118.258 269.612 115.211 267.745C 112.153 265.876 108.737 262.816 104.969 258.735C 97.4062 250.55 88.7295 238.521 79.7446 224.686C 61.767 197.007 42.7069 162.302 29.3755 137.394L 27.6122 138.338Z"/>
<path id="path4_fill" fill-rule="evenodd" d="M 178.934 4.1619L 178.934 4.1619C 237.5 -8.25217 347.702 9.90636 409.121 22.0408C 470.541 34.1752 533.039 53.0412 722.215 53.0412C 911.392 53.0412 1010.76 36.926 1107.22 30.076L 1107.22 30.076C 1200.93 23.4202 1251.86 41.6341 1300.38 81.3025C 1345.88 118.496 1401.64 238.102 1423.87 296.31C 1454.88 377.506 1396.92 430.663 1304.99 445.615L 1304.99 445.615C 1213.05 460.568 1103.69 461.302 933.883 469.833C 764.077 478.364 598.744 502.1 411.861 530.589C 276.241 551.263 144.911 505.413 92.4887 460.568L 92.4887 460.568C 40.0666 415.724 19.309 346.261 8.51216 299.307C -2.28467 252.353 -6.70772 185.636 19.309 116.459C 45.3257 47.2811 120.368 16.576 178.934 4.1619Z"/>
<path id="path5_stroke_2x" d="M 1300.38 81.3025L 1299.75 82.0767L 1299.75 82.0767L 1300.38 81.3025ZM 1423.87 296.31L 1422.94 296.667L 1423.87 296.31ZM 411.861 530.589L 412.012 531.578L 412.012 531.578L 411.861 530.589ZM 179.141 5.14016C 208.258 -1.03163 250.314 0.3865 292.853 4.8901C 335.367 9.39054 378.228 16.9565 408.928 23.0218L 409.315 21.0598C 378.596 14.9906 335.646 7.41014 293.063 2.90122C 250.504 -1.60454 208.176 -3.05864 178.727 3.18363L 179.141 5.14016ZM 408.928 23.0218C 470.358 35.1584 532.935 54.0412 722.215 54.0412L 722.215 52.0412C 533.142 52.0412 470.724 33.1921 409.315 21.0598L 408.928 23.0218ZM 722.215 54.0412C 911.472 54.038 1010.88 37.9193 1107.29 31.0734L 1107.14 29.0785C 1010.65 35.9327 911.312 52.0445 722.215 52.0412L 722.215 54.0412ZM 1107.29 31.0734C 1200.79 24.4326 1251.46 42.5961 1299.75 82.0767L 1301.02 80.5283C 1252.27 40.6722 1201.07 22.4078 1107.14 29.0785L 1107.29 31.0734ZM 1299.75 82.0767C 1322.32 100.533 1347.56 139.565 1369.97 181.398C 1392.36 223.19 1411.83 267.586 1422.94 296.667L 1424.8 295.954C 1413.68 266.827 1394.16 222.315 1371.73 180.454C 1349.33 138.634 1323.93 99.2656 1301.02 80.5283L 1299.75 82.0767ZM 1422.94 296.667C 1438.32 336.959 1431.61 370.148 1409.78 395.146C 1387.89 420.211 1350.67 437.172 1304.82 444.628L 1305.15 446.602C 1351.24 439.106 1388.97 422.012 1411.29 396.462C 1433.66 370.845 1440.43 336.857 1424.8 295.954L 1422.94 296.667ZM 1304.82 444.628C 1212.97 459.572 1103.66 460.302 933.833 468.834L 933.933 470.832C 1103.72 462.302 1213.13 461.565 1305.15 446.602L 1304.82 444.628ZM 933.833 468.834C 763.981 477.368 598.597 501.111 411.711 529.6L 412.012 531.578C 598.89 503.089 764.173 479.359 933.933 470.832L 933.833 468.834ZM 411.711 529.6C 276.338 550.237 145.311 504.439 93.1387 459.808L 91.8386 461.328C 144.51 506.386 276.144 552.29 412.012 531.578L 411.711 529.6ZM 93.1387 459.808C 40.9828 415.192 20.2794 346.019 9.48672 299.083L 7.53759 299.531C 18.3385 346.503 39.1503 416.256 91.8386 461.328L 93.1387 459.808ZM 9.48672 299.083C -1.29532 252.208 -5.71847 185.783 20.245 116.811L 18.373 116.107C -7.69697 185.49 -3.27401 252.499 7.53759 299.531L 9.48672 299.083ZM 20.245 116.811C 46.0678 48.1487 120.632 17.5421 179.141 5.14016L 178.727 3.18363C 120.103 15.6098 44.5836 46.4136 18.373 116.107L 20.245 116.811Z"/>
<path id="path6_fill" fill-rule="evenodd" d="M 73.9791 52.5255L 73.9791 52.5255C 118.824 15.3416 167.536 -3.50515 261.329 0.539059C 355.123 4.58327 481.773 39.1186 623.622 39.1186C 765.472 39.1186 903.915 18.6444 996.918 28.1129C 1089.92 37.5815 1121.53 49.4869 1162.61 72.0891C 1162.61 72.0891 1162.61 72.0891 1162.61 72.0891C 1209.12 97.6723 1234.3 161.348 1252.54 218.053C 1270.79 274.759 1296.43 365.523 1156.16 378.426L 1156.16 378.426C 1015.89 391.328 867.444 385.99 714.719 397.867C 561.994 409.744 402.732 439.048 295.722 435.866C 188.712 432.685 96.3432 415.09 56.9271 378.426L 56.9271 378.426C 17.511 341.761 5.9528 292.752 0.563154 232.077C -4.82649 171.402 29.1337 89.7094 73.9791 52.5255Z"/>
<path id="path7_stroke_2x" d="M 1162.61 72.0891L 1163.09 71.213L 1163.09 71.213L 1162.61 72.0891ZM 1252.54 218.053L 1251.59 218.359L 1252.54 218.053ZM 1162.61 72.0891L 1162.13 72.9653L 1162.13 72.9653L 1162.61 72.0891ZM 74.6174 53.2953C 119.237 16.2985 167.691 -2.49752 261.286 1.53813L 261.372 -0.460013C 167.38 -4.51278 118.412 14.3847 73.3408 51.7557L 74.6174 53.2953ZM 261.286 1.53813C 308.118 3.55532 363.177 13.1931 424.307 22.3344C 485.435 31.4752 552.634 40.1165 623.622 40.1186L 623.622 38.1186C 552.762 38.1206 485.711 29.4943 424.603 20.3564C 363.497 11.219 308.334 1.56701 261.372 -0.460013L 261.286 1.53813ZM 623.622 40.1186C 694.584 40.1179 764.687 34.9978 828.649 31.0632C 892.609 27.1286 950.389 24.3783 996.817 29.1078L 997.02 27.1181C 950.443 22.379 892.5 25.1315 828.526 29.0669C 764.553 33.0023 694.511 38.1193 623.622 38.1186L 623.622 40.1186ZM 996.817 29.1078C 1089.72 38.5666 1121.19 50.4439 1162.13 72.9653L 1163.09 71.213C 1121.86 48.53 1090.12 36.5964 997.02 27.1181L 996.817 29.1078ZM 1162.13 72.9653C 1185.15 85.6272 1202.95 107.757 1217.3 133.882C 1231.65 160.017 1242.47 190.023 1251.59 218.359L 1253.5 217.747C 1244.37 189.377 1233.47 159.194 1219.05 132.919C 1204.62 106.634 1186.58 84.1342 1163.09 71.213L 1162.13 72.9653ZM 1251.59 218.359C 1260.73 246.766 1271.58 283.34 1262.83 314.394C 1258.47 329.866 1249.24 343.99 1232.41 355.063C 1215.56 366.152 1191.04 374.213 1156.07 377.43L 1156.25 379.421C 1191.42 376.187 1216.29 368.064 1233.51 356.734C 1250.76 345.388 1260.27 330.857 1264.76 314.937C 1273.7 283.207 1262.6 246.046 1253.5 217.747L 1251.59 218.359ZM 1156.07 377.43C 1015.86 390.328 867.423 384.99 714.641 396.87L 714.796 398.864C 867.465 386.99 1015.92 392.328 1156.25 379.421L 1156.07 377.43ZM 714.641 396.87C 638.252 402.811 560.236 413.109 487.962 421.521C 415.689 429.932 349.193 436.458 295.752 434.867L 295.692 436.866C 349.261 438.457 415.902 431.921 488.193 423.507C 560.483 415.093 638.461 404.8 714.796 398.864L 714.641 396.87ZM 295.752 434.867C 242.284 433.278 192.535 428.095 151.198 418.727C 109.854 409.359 77.1194 395.843 57.6082 377.693L 56.246 379.158C 76.1509 397.673 109.309 411.287 150.756 420.678C 192.21 430.068 242.15 435.274 295.692 436.866L 295.752 434.867ZM 57.6082 377.693C 18.4789 341.295 6.94458 292.615 1.55923 231.989L -0.432924 232.166C 4.96101 292.889 16.543 342.226 56.246 379.158L 57.6082 377.693ZM 1.55923 231.989C -1.13317 201.795 5.96807 166.438 19.3579 133.872C 32.7386 101.317 52.3571 71.7526 74.6174 53.2953L 73.3408 51.7557C 50.7557 70.4823 30.9714 100.356 17.5081 133.112C 4.05389 165.858 -3.13017 201.685 -0.432924 232.166L 1.55923 231.989ZM 1162.13 72.9653L 1162.13 72.9653L 1163.09 71.213L 1163.09 71.213L 1162.13 72.9653Z"/>
</defs>
</svg>
