<svg width="105" height="105" viewBox="0 0 105 105" version="1.1" xmlns="http://www.w3.org/2000/svg" xmlns:xlink="http://www.w3.org/1999/xlink">
<title>Group</title>
<desc>Created using Figma</desc>
<g id="Canvas" transform="translate(-3268 -13632)">
<g id="Group">
<mask id="mask0_outline" mask-type="alpha">
<g id="Rectangle 20">
<use xlink:href="#path0_fill" transform="translate(3268 13632)" fill="#FFFFFF"/>
</g>
</mask>
<g id="Rectangle 20" mask="url(#mask0_outline)">
<use xlink:href="#path0_fill" transform="translate(3268 13632)" fill="#FFFFFF"/>
</g>
<g id="Fill 1 Copy 3" opacity="0.3" mask="url(#mask0_outline)">
<use xlink:href="#path1_stroke" transform="translate(3268 13643.4)" fill="#229FF1"/>
</g>
<g id="Fill 1 Copy 4" opacity="0.2" mask="url(#mask0_outline)">
<use xlink:href="#path2_stroke" transform="matrix(0.981627 -0.190809 0.190809 0.981627 3228.16 13654.9)" fill="#229FF1"/>
</g>
<g id="duplicate_1_original_Fill 1 Copy 2_73649849" opacity="0.5" mask="url(#mask0_outline)">
<use xlink:href="#path3_stroke" transform="translate(3292.65 13648.9)" fill="#229FF1"/>
</g>
<g id="Looper_Group" mask="url(#mask0_outline)">
<g id="original_Fill 1 Copy 2_73649849 Group">
<g id="duplicate_1_original_Fill 1 Copy 2_73649849">
<use xlink:href="#path4_fill" transform="translate(3310.17 13665)" fill="#229FF1"/>
<use xlink:href="#path5_stroke" transform="translate(3310.17 13665)" fill="#229FF1"/>
</g>
</g>
</g>
</g>
</g>
<defs>
<path id="path0_fill" fill-rule="evenodd" d="M 0 30C 0 13.4315 13.4315 0 30 0L 75 0C 91.5685 0 105 13.4315 105 30L 105 75C 105 91.5685 91.5685 105 75 105L 30 105C 13.4315 105 0 91.5685 0 75L 0 30Z"/>
<path id="path1_stroke" d="M 12.9741 32.2351L 13.3783 32.5294L 13.3783 32.5294L 12.9741 32.2351ZM 81.2902 74.4073L 81.7578 74.5844L 81.2902 74.4073ZM 13.3783 32.5294C 20.3759 22.9133 29.9262 14.3714 39.9629 8.51164C 49.9939 2.65226 60.4076 -0.454029 69.0888 0.760686L 69.2274 -0.229666C 60.2323 -1.4883 49.585 1.733 39.4585 7.64816C 29.3377 13.5629 19.6341 22.2426 12.5698 31.9409L 13.3783 32.5294ZM 69.0888 0.760686C 73.2695 1.34566 76.6863 4.64226 79.318 9.81163C 81.9578 14.9901 83.7336 21.8918 84.6972 29.5032C 86.627 44.732 85.2398 62.5624 80.8226 74.2303L 81.7578 74.5844C 86.2484 62.7228 87.6333 44.7189 85.6892 29.3775C 84.7158 21.7038 82.8932 14.6364 80.2092 9.35794C 77.5172 4.07032 73.8849 0.422036 69.2274 -0.229666L 69.0888 0.760686ZM 80.8226 74.2303C 68.781 106.038 33.5784 116.411 13.2824 100.509L 12.6657 101.297C 33.6149 117.71 69.5353 106.87 81.7578 74.5844L 80.8226 74.2303ZM 13.2824 100.509C 3.14468 92.5665 -0.237575 80.2678 0.630224 67.5617C 1.49396 54.8293 6.60016 41.8325 13.3783 32.5294L 12.5698 31.9409C 5.72342 41.3515 0.518327 54.6098 -0.367452 67.4935C -1.24917 80.4034 2.18084 93.0817 12.6657 101.297L 13.2824 100.509Z"/>
<path id="path2_stroke" d="M 28.884 97.4551L 29.2112 97.077L 29.2112 97.077L 28.884 97.4551ZM 39.6526 9.83179L 39.8976 10.2677L 39.6526 9.83179ZM 124.667 64.979L 124.182 64.8604L 124.667 64.979ZM 29.2112 97.077C 22.4415 91.2198 13.2585 84.444 7.11665 76.1596C 1.0012 67.9199 -2.08083 58.2435 3.20439 46.4971L 2.29245 46.0868C -3.18218 58.2542 0.0487595 68.3145 6.31365 76.7556C 12.5522 85.1519 21.8168 92.0007 28.5568 97.8332L 29.2112 97.077ZM 3.20439 46.4971C 13.8623 22.7312 33.4999 13.8626 39.8976 10.2677L 39.4077 9.39591C 33.048 12.9705 13.1542 22.0251 2.29245 46.0868L 3.20439 46.4971ZM 39.8976 10.2677C 52.5937 3.12408 67.7335 0.564387 81.2595 0.501255C 94.7845 0.436467 106.57 2.8884 112.462 5.74926L 112.899 4.84967C 106.817 1.89709 94.8629 -0.56392 81.2547 -0.498733C 67.6473 -0.43189 52.2603 2.1813 39.4077 9.39591L 39.8976 10.2677ZM 112.462 5.74926C 118.232 8.55029 122.814 16.5891 125.121 27.4073C 127.428 38.2099 127.432 51.5643 124.182 64.8604L 125.153 65.0977C 128.425 51.6837 128.423 38.105 126.099 27.1987C 123.777 16.308 119.104 7.86209 112.899 4.84967L 112.462 5.74926ZM 124.182 64.8604C 120.812 78.6623 116.472 91.1524 110.076 100.764C 103.705 110.345 95.3268 117.008 83.8858 119.183L 84.0726 120.166C 95.8341 117.929 104.424 111.069 110.909 101.318C 117.368 91.597 121.771 78.9455 125.153 65.0977L 124.182 64.8604ZM 83.8858 119.183C 72.4465 121.359 60.8264 117.619 51.0117 112.414C 41.1983 107.213 33.2701 100.589 29.2112 97.077L 28.5568 97.8332C 32.6224 101.351 40.6406 108.043 50.5432 113.297C 60.4443 118.548 72.3095 122.403 84.0726 120.166L 83.8858 119.183Z"/>
<path id="path3_stroke" d="M 3.24923 32.0974L 3.70527 32.3024L 3.24923 32.0974ZM 51.5405 53.8198L 52.0101 53.9916L 51.5405 53.8198ZM 3.70527 32.3024C 8.48344 21.647 17.2797 13.676 24.762 7.41248L 24.1201 6.64569C 16.6225 12.9222 7.67427 21.0594 2.79318 31.8924L 3.70527 32.3024ZM 24.762 7.41248C 32.1966 1.18886 39.7538 -0.659786 44.3852 1.17754L 44.754 0.24801C 39.6151 -1.79063 31.6654 0.32933 24.1201 6.64569L 24.762 7.41248ZM 44.3852 1.17754C 46.6622 2.08085 48.4548 3.96854 49.8359 7.45012C 51.2231 10.9472 52.1745 16.0042 52.7808 23.1575L 53.7772 23.073C 53.1687 15.8929 52.2079 10.7177 50.7654 7.08139C 49.3168 3.42956 47.3621 1.28268 44.754 0.24801L 44.3852 1.17754ZM 52.7808 23.1575C 53.9944 37.4748 53.1915 47.8502 51.0709 53.6481L 52.0101 53.9916C 54.2088 47.9801 54.9935 37.4223 53.7772 23.073L 52.7808 23.1575ZM 51.0709 53.6481C 48.703 60.1221 42.9868 66.1387 36.0326 69.8405C 29.0806 73.5411 20.9702 74.8881 13.8254 72.1464L 13.4672 73.0801C 20.9573 75.9543 29.3754 74.517 36.5025 70.7232C 43.6275 66.9305 49.541 60.7424 52.0101 53.9916L 51.0709 53.6481ZM 13.8254 72.1464C 6.72313 69.421 2.68843 62.8405 1.18281 55.197C -0.333842 47.5297 0.707603 38.9573 3.70527 32.3024L 2.79318 31.8924C -0.255729 38.689 -1.33316 47.5665 0.20166 55.3903C 1.74751 63.2379 5.93463 70.1896 13.4672 73.0801L 13.8254 72.1464Z"/>
<path id="path4_fill" fill-rule="evenodd" d="M 10.2861 34.4872C 4.88586 34.4872 1.04754 30.6491 0.0468991 26.8577C -0.152587 26.1015 0.302669 25.3279 1.06392 25.1298C 1.82541 24.9318 2.60412 25.3838 2.80361 26.1399C 3.50941 28.8143 6.37168 31.6567 10.2861 31.6567C 13.7596 31.6567 16.1565 29.5322 17.2456 27.4581C 16.1939 27.3466 14.8104 27.0875 13.3066 26.4607C 11.9505 25.8956 11.0676 25.1573 10.2885 24.5059C 9.54386 23.8833 8.90076 23.3455 7.85358 22.9091C 5.97104 22.1246 3.82336 21.7144 2.54012 21.4693C 1.41659 21.2548 0.996121 21.1744 0.627665 20.6533C 0.517829 20.4986 0.00237101 19.6691 0.824064 18.7792C 1.99367 17.5123 16.7644 0.910517 16.9135 0.742925L 16.9598 0.69339C 17.6058 0.0336353 18.5084 -0.173938 19.3148 0.151221C 20.1133 0.473314 20.6292 1.27011 20.6292 2.18108L 20.6366 19.8297C 20.637 20.6114 19.9993 21.2452 19.2123 21.2456L 19.2117 21.2456C 18.425 21.2456 17.7872 20.6123 17.7868 19.8309L 17.7801 4.04311C 14.8521 7.33339 7.70384 15.3633 4.47573 18.9688C 5.77548 19.2466 7.43216 19.6638 8.95621 20.299C 10.4038 20.9022 11.3176 21.6664 12.1239 22.3405C 12.8373 22.937 13.4536 23.4524 14.4093 23.8506C 16.3493 24.6592 18.0928 24.7007 18.8374 24.7183C 19.3408 24.7303 19.8613 24.7427 20.2951 25.239L 20.3058 25.2513C 20.5618 25.5441 20.6811 25.9308 20.6347 26.3159L 20.6172 26.4598C 20.2161 28.3959 19.0295 30.3506 17.3621 31.8227C 15.985 33.0382 13.6396 34.4872 10.2861 34.4872"/>
<path id="path5_stroke" d="M 0.0468991 26.8577L -0.436563 26.9852L -0.436547 26.9853L 0.0468991 26.8577ZM 1.06392 25.1298L 0.938086 24.6459L 0.937979 24.6459L 1.06392 25.1298ZM 2.80361 26.1399L 2.32015 26.2675L 2.32016 26.2675L 2.80361 26.1399ZM 17.2456 27.4581L 17.6883 27.6906L 18.0306 27.0386L 17.2983 26.9609L 17.2456 27.4581ZM 13.3066 26.4607L 13.1142 26.9222L 13.1142 26.9223L 13.3066 26.4607ZM 10.2885 24.5059L 9.96777 24.8895L 9.96777 24.8895L 10.2885 24.5059ZM 7.85358 22.9091L 7.66124 23.3706L 7.66125 23.3706L 7.85358 22.9091ZM 2.54012 21.4693L 2.63392 20.9782L 2.6339 20.9782L 2.54012 21.4693ZM 0.627665 20.6533L 1.03594 20.3646L 1.03529 20.3637L 0.627665 20.6533ZM 0.824064 18.7792L 1.19141 19.1184L 1.19144 19.1184L 0.824064 18.7792ZM 16.9135 0.742925L 16.5481 0.401359L 16.5398 0.41068L 16.9135 0.742925ZM 16.9598 0.69339L 16.6024 0.343466L 16.5945 0.351931L 16.9598 0.69339ZM 19.3148 0.151221L 19.5018 -0.312479L 19.5018 -0.312498L 19.3148 0.151221ZM 20.6292 2.18108L 20.1292 2.18108L 20.1292 2.18129L 20.6292 2.18108ZM 20.6366 19.8297L 20.1366 19.8299L 20.1366 19.8299L 20.6366 19.8297ZM 19.2123 21.2456L 19.2123 21.7456L 19.2125 21.7456L 19.2123 21.2456ZM 17.7868 19.8309L 17.2868 19.8311L 17.2868 19.8311L 17.7868 19.8309ZM 17.7801 4.04311L 18.2801 4.0429L 18.2796 2.72976L 17.4066 3.71072L 17.7801 4.04311ZM 4.47573 18.9688L 4.10322 18.6353L 3.52814 19.2776L 4.37124 19.4578L 4.47573 18.9688ZM 8.95621 20.299L 8.76385 20.7605L 8.76388 20.7605L 8.95621 20.299ZM 12.1239 22.3405L 12.4446 21.9569L 12.4446 21.9569L 12.1239 22.3405ZM 14.4093 23.8506L 14.6017 23.3891L 14.6016 23.3891L 14.4093 23.8506ZM 18.8374 24.7183L 18.8494 24.2184L 18.8492 24.2184L 18.8374 24.7183ZM 20.2951 25.239L 20.6721 24.9105L 20.6716 24.91L 20.2951 25.239ZM 20.3058 25.2513L 19.9288 25.5797L 19.9294 25.5803L 20.3058 25.2513ZM 20.6347 26.3159L 21.1311 26.3761L 21.1311 26.3758L 20.6347 26.3159ZM 20.6172 26.4598L 21.1068 26.5612L 21.1111 26.5408L 21.1136 26.52L 20.6172 26.4598ZM 17.3621 31.8227L 17.6929 32.1976L 17.693 32.1976L 17.3621 31.8227ZM 10.2861 33.9872C 5.13535 33.9872 1.479 30.3246 0.530345 26.7301L -0.436547 26.9853C 0.616073 30.9737 4.63638 34.9872 10.2861 34.9872L 10.2861 33.9872ZM 0.530361 26.7302C 0.402156 26.2442 0.693874 25.7428 1.18987 25.6137L 0.937979 24.6459C -0.0885365 24.9131 -0.70733 25.9588 -0.436563 26.9852L 0.530361 26.7302ZM 1.18976 25.6137C 1.68756 25.4842 2.19169 25.7806 2.32015 26.2675L 3.28706 26.0124C 3.01655 24.9871 1.96327 24.3793 0.938086 24.6459L 1.18976 25.6137ZM 2.32016 26.2675C 3.07882 29.1422 6.12541 32.1567 10.2861 32.1567L 10.2861 31.1567C 6.61795 31.1567 3.94 28.4865 3.28706 26.0123L 2.32016 26.2675ZM 10.2861 32.1567C 13.9832 32.1567 16.5319 29.8928 17.6883 27.6906L 16.8029 27.2257C 15.7811 29.1717 13.536 31.1567 10.2861 31.1567L 10.2861 32.1567ZM 17.2983 26.9609C 16.2663 26.8519 14.9534 26.6083 13.4989 25.9992L 13.1142 26.9223C 14.6674 27.5666 16.1214 27.8413 17.1928 27.9554L 17.2983 26.9609ZM 13.4989 25.9992C 12.21 25.4682 11.3883 24.7737 10.6092 24.1223L 9.96777 24.8895C 10.7468 25.5408 11.691 26.323 13.1142 26.9222L 13.4989 25.9992ZM 10.6092 24.1223C 9.8646 23.4997 9.16025 22.9181 8.0459 22.4476L 7.66125 23.3706C 8.64127 23.7729 9.22313 24.2668 9.96777 24.8895L 10.6092 24.1223ZM 8.04591 22.4476C 6.11488 21.6457 3.91716 21.2232 2.63392 20.9782L 2.44632 21.9604C 3.72956 22.2055 5.82721 22.6034 7.66124 23.3706L 8.04591 22.4476ZM 2.6339 20.9782C 1.45682 20.7534 1.26674 20.6911 1.03594 20.3646L 0.219391 20.9419C 0.725506 21.6578 1.37635 21.7561 2.44634 21.9604L 2.6339 20.9782ZM 1.03529 20.3637C 0.98771 20.297 0.887512 20.1623 0.873095 19.9333C 0.849886 19.7367 0.882271 19.4532 1.19141 19.1184L 0.456722 18.44C -0.0558362 18.9951 -0.176569 19.5713 -0.120013 20.0505C -0.0546648 20.4975 0.157784 20.8549 0.220044 20.9428L 1.03529 20.3637ZM 1.19144 19.1184C 2.36415 17.8481 17.138 1.24282 17.2871 1.07517L 16.5398 0.41068C 16.3908 0.578218 1.62319 17.1765 0.456684 18.44L 1.19144 19.1184ZM 17.2787 1.08438L 17.325 1.03485L 16.5945 0.351931L 16.5482 0.401465L 17.2787 1.08438ZM 17.317 1.04322C 17.8328 0.516507 18.5237 0.37137 19.1278 0.61494L 19.5018 -0.312498C 18.493 -0.719247 17.3789 -0.449236 16.6025 0.34356L 17.317 1.04322ZM 19.1277 0.614921C 19.7231 0.855082 20.1292 1.4585 20.1292 2.18108L 21.1292 2.18108C 21.1292 1.08173 20.5035 0.091547 19.5018 -0.312479L 19.1277 0.614921ZM 20.1292 2.18129L 20.1366 19.8299L 21.1366 19.8295L 21.1292 2.18087L 20.1292 2.18129ZM 20.1366 19.8299C 20.1368 20.3322 19.7262 20.7453 19.2121 20.7456L 19.2125 21.7456C 20.2724 21.7451 21.1371 20.8905 21.1366 19.8295L 20.1366 19.8299ZM 19.2123 20.7456L 19.2117 20.7456L 19.2117 21.7456L 19.2123 21.7456L 19.2123 20.7456ZM 19.2117 20.7456C 18.6979 20.7456 18.287 20.3329 18.2868 19.8306L 17.2868 19.8311C 17.2873 20.8918 18.1522 21.7456 19.2117 21.7456L 19.2117 20.7456ZM 18.2868 19.8307L 18.2801 4.0429L 17.2801 4.04332L 17.2868 19.8311L 18.2868 19.8307ZM 17.4066 3.71072C 14.4786 7.00097 7.33086 15.0303 4.10322 18.6353L 4.84824 19.3024C 8.07683 15.6963 15.2256 7.66582 18.1537 4.37551L 17.4066 3.71072ZM 4.37124 19.4578C 5.66217 19.7336 7.2745 20.1382 8.76385 20.7605L 9.14857 19.8375C 7.58982 19.1893 5.88878 18.7596 4.58022 18.4799L 4.37124 19.4578ZM 8.76388 20.7605C 10.1443 21.3296 10.9969 22.0499 11.8032 22.7241L 12.4446 21.9569C 11.6384 21.2828 10.6633 20.4748 9.14855 19.8374L 8.76388 20.7605ZM 11.8031 22.7241C 12.5165 23.3206 13.1941 23.8798 14.217 24.3122L 14.6016 23.3891C 13.713 23.025 13.158 22.5535 12.4446 21.9569L 11.8031 22.7241ZM 14.2169 24.3121C 16.2454 25.1483 18.0809 25.2006 18.8256 25.2182L 18.8492 24.2184C 18.1046 24.2009 16.4532 24.1701 14.6017 23.3891L 14.2169 24.3121ZM 18.8255 25.2181C 19.3408 25.2305 19.6439 25.2537 19.9186 25.568L 20.6716 24.91C 20.0788 24.2317 19.3408 24.2302 18.8494 24.2184L 18.8255 25.2181ZM 19.9181 25.5674L 19.9288 25.5797L 20.6828 24.9228L 20.6721 24.9105L 19.9181 25.5674ZM 19.9294 25.5803C 20.0922 25.7666 20.1677 26.012 20.1383 26.256L 21.1311 26.3758C 21.1945 25.8496 21.0314 25.3216 20.6822 24.9222L 19.9294 25.5803ZM 20.1383 26.2557L 20.1209 26.3996L 21.1136 26.52L 21.1311 26.3761L 20.1383 26.2557ZM 20.1276 26.3584C 19.7512 28.1754 18.6282 30.038 17.0311 31.4479L 17.693 32.1976C 19.4309 30.6633 20.6811 28.6163 21.1068 26.5612L 20.1276 26.3584ZM 17.0312 31.4479C 15.717 32.6079 13.4844 33.9872 10.2861 33.9872L 10.2861 34.9872C 13.7948 34.9872 16.2531 33.4685 17.6929 32.1976L 17.0312 31.4479Z"/>
</defs>
</svg>
