<svg xmlns="http://www.w3.org/2000/svg" width="43" height="40" viewBox="0 0 43 40"><path fill="#239bf5" d="M27.62 28.63a.84.84 0 0 0-1.14.31l-4.99 8.5-5-8.5a.83.83 0 0 0-1.03-.36l-4.86 1.91 1.94-4.77a.81.81 0 0 0-.36-1.01l-9.93-5.6a.84.84 0 0 0-1.14.3.8.8 0 0 0 .31 1.11l9.3 5.25-2.39 5.88a.8.8 0 0 0 .18.88c.24.23.59.3.9.18l6-2.35 5.36 9.12a.84.84 0 0 0 1.44 0l5.72-9.73a.81.81 0 0 0-.31-1.12z"/><path fill="#239bf5" d="M41.97 19.37l-9.31-5.25 2.4-5.88a.82.82 0 0 0-.18-.88.85.85 0 0 0-.9-.18l-6 2.35L22.62.41a.84.84 0 0 0-1.44 0l-5.36 9.12-6-2.35a.85.85 0 0 0-.9.18.8.8 0 0 0-.18.88l2.39 5.88-2.71 1.53a.8.8 0 0 0-.31 1.11c.23.39.74.53 1.14.3l3.34-1.88c.36-.2.51-.63.36-1.01L11.01 9.4l4.86 1.91c.39.15.83 0 1.03-.35l5-8.51 4.99 8.51c.21.35.65.5 1.04.35l4.86-1.91-1.94 4.77a.8.8 0 0 0 .36 1.01l8.67 4.89-8.67 4.9c-.36.2-.52.63-.36 1.01l2.66 6.53a.84.84 0 0 0 1.09.46.81.81 0 0 0 .46-1.06l-2.4-5.88 9.31-5.25a.8.8 0 0 0 0-1.41z"/><path fill="#239bf5" d="M21.26 25.31c2.9 0 5.26-2.31 5.26-5.16A5.21 5.21 0 0 0 21.26 15 5.21 5.21 0 0 0 16 20.15a5.21 5.21 0 0 0 5.26 5.16zm0-8.68a3.56 3.56 0 0 1 3.59 3.52 3.56 3.56 0 0 1-3.59 3.52 3.56 3.56 0 0 1-3.59-3.52 3.56 3.56 0 0 1 3.59-3.52z"/></svg>