<?xml version="1.0" encoding="utf-8"?>
<!-- Generator: Adobe Illustrator 20.1.0, SVG Export Plug-In . SVG Version: 6.00 Build 0)  -->
<svg version="1.1" id="Слой_1" xmlns="http://www.w3.org/2000/svg" xmlns:xlink="http://www.w3.org/1999/xlink" x="0px" y="0px"
	 viewBox="0 0 1500 1500" style="enable-background:new 0 0 1500 1500;" xml:space="preserve">
<style type="text/css">
	
		.st0{fill-rule:evenodd;clip-rule:evenodd;fill:#FFFFFF;stroke:#FFFFFF;stroke-width:5;stroke-linecap:round;stroke-linejoin:round;stroke-miterlimit:10;}
	.st1{fill:none;stroke:#FFFFFF;stroke-width:18;stroke-miterlimit:10;}
	.st2{fill:#FFFFFF;}
	.st3{fill:none;stroke:#5577AF;stroke-linecap:round;stroke-linejoin:round;stroke-miterlimit:10;}
	.st4{fill:none;stroke:#FFFFFF;stroke-width:5;stroke-linecap:round;stroke-linejoin:round;stroke-miterlimit:10;}
</style>
<path class="st0" d="M618.2,686.1l-58.4-28l58.4-28c0,0-3.1,13.6-3.1,27.9C615,672.3,618.2,686.1,618.2,686.1z"/>
<path class="st1" d="M869.9,659.5c0,63.9-51.8,115.7-115.7,115.7s-115.7-51.8-115.7-115.7s51.8-115.7,115.7-115.7
	C822.1,543.7,869.9,600.2,869.9,659.5z"/>
<path class="st2" d="M753.8,578.9c-44.5,0-80.5,36.1-80.5,80.5s36.1,80.5,80.5,80.5s80.5-36.1,80.5-80.5
	C834.3,618.2,801.1,578.9,753.8,578.9z M772.4,677.6c-11.2,10.8-63,26.5-65.4,24s15.2-53.5,26.5-64.4c11.4-11,62.7-26.9,65.4-24
	C801.6,616.1,783.6,666.8,772.4,677.6z"/>
<path class="st3" d="M753,732.1"/>
<path class="st3" d="M825.6,659.5"/>
<ellipse transform="matrix(0.6166 -0.7873 0.7873 0.6166 -228.8934 844.9161)" class="st4" cx="753" cy="657.4" rx="6.5" ry="6.5"/>
<path class="st0" d="M724.6,524.8l28-58.4l28,58.4c0,0-13.6-3.1-27.9-3.1S724.6,524.8,724.6,524.8z"/>
<path class="st0" d="M889,629.1l58.4,28L889,685c0,0,3.1-13.6,3.1-27.9S889,629.1,889,629.1z"/>
<path class="st0" d="M780.6,794.7l-28,58.4l-28-58.4c0,0,13.6,3.1,27.9,3.1C766.8,797.8,780.6,794.7,780.6,794.7z"/>
<path class="st0" d="M644,576.3l-10.8-25.5l26.7,7.6c0,0-4.9,3.5-8.9,8.1C646.9,571,644,576.3,644,576.3z"/>
<path class="st0" d="M848.7,558l26.8-7.1l-11.2,25.4c0,0-2.8-5.3-6.7-10C853.5,561.6,848.7,558,848.7,558z"/>
<path class="st0" d="M866.5,742.3l10.4,25.7l-26.6-8c0,0,4.9-3.4,9-7.9C863.5,747.6,866.5,742.3,866.5,742.3z"/>
<path class="st0" d="M659.1,760l-26.3,9l9.5-26.1c0,0,3.1,5.1,7.4,9.5C654,756.7,659.1,760,659.1,760z"/>
</svg>
