<svg width="394" height="393" viewBox="0 0 394 393" version="1.1" xmlns="http://www.w3.org/2000/svg" xmlns:xlink="http://www.w3.org/1999/xlink">
<title>sun</title>
<desc>Created using Figma</desc>
<g id="Canvas" transform="translate(-1099 712)">
<g id="sun">
<g id="Vector">
<use xlink:href="#path0_fill" transform="translate(1102 -545.3)" fill="#FFFFFF"/>
<use xlink:href="#path1_stroke" transform="translate(1102 -545.3)" fill="#FFFFFF"/>
</g>
<g id="Vector">
<use xlink:href="#path2_stroke" transform="translate(1180.7 -631.6)" fill="#FFFFFF"/>
</g>
<g id="Vector">
<use xlink:href="#path3_fill" transform="translate(1215.5 -596.5)" fill="#FFFFFF"/>
</g>
<g id="Vector">
<use xlink:href="#path4_stroke" transform="matrix(0.6166 -0.7873 0.7873 0.6166 1286.05 -516.858)" fill="#FFFFFF"/>
</g>
<g id="Vector">
<use xlink:href="#path5_fill" transform="translate(1266.8 -709)" fill="#FFFFFF"/>
<use xlink:href="#path6_stroke" transform="translate(1266.8 -709)" fill="#FFFFFF"/>
</g>
<g id="Vector">
<use xlink:href="#path7_fill" transform="translate(1431.2 -546.3)" fill="#FFFFFF"/>
<use xlink:href="#path8_stroke" transform="translate(1431.2 -546.3)" fill="#FFFFFF"/>
</g>
<g id="Vector">
<use xlink:href="#path9_fill" transform="translate(1266.8 -380.7)" fill="#FFFFFF"/>
<use xlink:href="#path10_stroke" transform="translate(1266.8 -380.7)" fill="#FFFFFF"/>
</g>
<g id="Vector">
<use xlink:href="#path11_fill" transform="translate(1175.4 -624.6)" fill="#FFFFFF"/>
<use xlink:href="#path12_stroke" transform="translate(1175.4 -624.6)" fill="#FFFFFF"/>
</g>
<g id="Vector">
<use xlink:href="#path13_fill" transform="translate(1390.9 -624.5)" fill="#FFFFFF"/>
<use xlink:href="#path14_stroke" transform="translate(1390.9 -624.5)" fill="#FFFFFF"/>
</g>
<g id="Vector">
<use xlink:href="#path15_fill" transform="translate(1392.5 -433.1)" fill="#FFFFFF"/>
<use xlink:href="#path16_stroke" transform="translate(1392.5 -433.1)" fill="#FFFFFF"/>
</g>
<g id="Vector">
<use xlink:href="#path17_fill" transform="translate(1175 -432.5)" fill="#FFFFFF"/>
<use xlink:href="#path18_stroke" transform="translate(1175 -432.5)" fill="#FFFFFF"/>
</g>
</g>
</g>
<defs>
<path id="path0_fill" fill-rule="evenodd" d="M 58.4 56L -1.2207e-05 28L 58.4 -2.44141e-05C 58.4 -2.44141e-05 55.3 13.6 55.3 27.9C 55.2 42.2 58.4 56 58.4 56Z"/>
<path id="path1_stroke" d="M 58.4 56L 57.3192 58.2543C 58.1858 58.6698 59.2139 58.5517 59.9638 57.9505C 60.7137 57.3493 61.0525 56.3715 60.8354 55.4352L 58.4 56ZM -1.2207e-05 28L -1.08084 25.7457C -1.94817 26.1615 -2.50001 27.0381 -2.50001 28C -2.50001 28.9618 -1.94817 29.8384 -1.08084 30.2543L -1.2207e-05 28ZM 58.4 -2.44141e-05L 60.8375 0.555583C 61.0507 -0.379834 60.7098 -1.35476 59.9601 -1.95348C 59.2105 -2.5522 58.1843 -2.66909 57.3192 -2.25431L 58.4 -2.44141e-05ZM 55.3 27.9L 57.7999 27.9175C 57.8 27.9117 57.8 27.9058 57.8 27.9L 55.3 27.9ZM 59.4808 53.7457L 1.08081 25.7457L -1.08084 30.2543L 57.3192 58.2543L 59.4808 53.7457ZM 1.08081 30.2543L 59.4808 2.25427L 57.3192 -2.25431L -1.08084 25.7457L 1.08081 30.2543ZM 58.4 -2.44141e-05C 55.9625 -0.555632 55.9625 -0.555308 55.9624 -0.554933C 55.9623 -0.554739 55.9622 -0.554312 55.9621 -0.553923C 55.962 -0.553327 55.9617 -0.552161 55.9615 -0.55097C 55.961 -0.548951 55.9602 -0.545375 55.9593 -0.541346C 55.9576 -0.534018 55.9549 -0.521933 55.9516 -0.507363C 55.9454 -0.479692 55.9357 -0.436081 55.9237 -0.381477C 55.9003 -0.275255 55.8649 -0.112602 55.8212 0.0937582C 55.735 0.500318 55.6095 1.10868 55.4614 1.8724C 55.1677 3.38681 54.7708 5.58696 54.3774 8.21809C 53.5959 13.4522 52.8038 20.6117 52.8 27.9L 57.8 27.9C 57.7962 20.8883 58.5541 14.0978 59.3226 8.95689C 59.7042 6.40051 60.0823 4.30691 60.3699 2.82443C 60.5124 2.08972 60.6291 1.52386 60.7124 1.1308C 60.7534 0.93736 60.7847 0.793859 60.8067 0.693879C 60.8174 0.645383 60.8251 0.610881 60.8306 0.586214C 60.8332 0.574616 60.8349 0.566975 60.8362 0.561121C 60.8368 0.558558 60.8371 0.557178 60.8374 0.555889C 60.8375 0.555426 60.8375 0.55535 60.8376 0.555118C 60.8376 0.555092 60.8376 0.555209 60.8376 0.555196C 60.8375 0.555363 60.8375 0.555583 58.4 -2.44141e-05ZM 52.8 27.8825C 52.7533 35.1785 53.5459 42.398 54.3403 47.6842C 54.7402 50.3418 55.1469 52.5691 55.4486 54.1028C 55.6008 54.8764 55.73 55.4933 55.8188 55.9056C 55.8639 56.1149 55.9004 56.28 55.9245 56.3878C 55.9369 56.4432 55.947 56.4875 55.9534 56.5156C 55.9567 56.5304 55.9596 56.5427 55.9613 56.5501C 55.9622 56.5542 55.9631 56.5579 55.9635 56.5599C 55.9638 56.5612 55.9641 56.5624 55.9642 56.563C 55.9643 56.5634 55.9644 56.5638 55.9645 56.564C 55.9646 56.5644 55.9646 56.5647 58.4 56C 60.8354 55.4352 60.8354 55.4355 60.8355 55.4356C 60.8355 55.4356 60.8355 55.4358 60.8355 55.4357C 60.8355 55.4355 60.8354 55.4354 60.8353 55.435C 60.835 55.4337 60.8347 55.4323 60.8341 55.4297C 60.8328 55.4238 60.831 55.416 60.8283 55.4043C 60.8226 55.3793 60.8147 55.3444 60.8037 55.2953C 60.781 55.1939 60.7488 55.0486 60.7066 54.8526C 60.6208 54.4543 60.5008 53.8814 60.3546 53.1378C 60.0593 51.6371 59.6723 49.5206 59.2847 46.9408C 58.504 41.752 57.7467 34.9215 57.7999 27.9175L 52.8 27.8825Z"/>
<path id="path2_stroke" d="M 115.7 0.000120339L 115.7 9.00013L 115.713 9.00011L 115.7 0.000120339ZM 222.4 115.7C 222.4 174.63 174.629 222.4 115.7 222.4L 115.7 240.4C 184.571 240.4 240.4 184.571 240.4 115.7L 222.4 115.7ZM 115.7 222.4C 56.7706 222.4 9 174.63 9 115.7L -9 115.7C -9 184.571 46.8294 240.4 115.7 240.4L 115.7 222.4ZM 9 115.7C 9 56.7707 56.7706 9.00012 115.7 9.00012L 115.7 -8.99988C 46.8294 -8.99988 -9 46.8296 -9 115.7L 9 115.7ZM 115.713 9.00011C 178.191 8.9081 222.4 60.9174 222.4 115.7L 240.4 115.7C 240.4 51.8829 189.009 -9.10786 115.687 -8.99987L 115.713 9.00011Z"/>
<path id="path3_fill" d="M 80.5 2.44141e-05C 36 2.44141e-05 -1.2207e-05 36.1 -1.2207e-05 80.5C -1.2207e-05 124.9 36.1 161 80.5 161C 124.9 161 161 124.9 161 80.5C 161 39.3 127.8 2.44141e-05 80.5 2.44141e-05ZM 99.1 98.7C 87.9 109.5 36.1 125.2 33.7 122.7C 31.3 120.2 48.9 69.2 60.2 58.3C 71.6 47.3 122.9 31.4 125.6 34.3C 128.3 37.2 110.3 87.9 99.1 98.7Z"/>
<path id="path4_stroke" d="M 10.5 6.50002C 10.5 8.70916 8.70914 10.5 6.5 10.5L 6.5 15.5C 11.4706 15.5 15.5 11.4706 15.5 6.50002L 10.5 6.50002ZM 6.5 10.5C 4.29086 10.5 2.5 8.70916 2.5 6.50002L -2.5 6.50002C -2.5 11.4706 1.52944 15.5 6.5 15.5L 6.5 10.5ZM 2.5 6.50002C 2.5 4.29089 4.29086 2.50002 6.5 2.50002L 6.5 -2.49998C 1.52944 -2.49998 -2.5 1.52946 -2.5 6.50002L 2.5 6.50002ZM 6.5 2.50002C 8.70914 2.50002 10.5 4.29089 10.5 6.50002L 15.5 6.50002C 15.5 1.52946 11.4706 -2.49998 6.5 -2.49998L 6.5 2.50002Z"/>
<path id="path5_fill" fill-rule="evenodd" d="M -2.44141e-05 58.4L 28 -6.10352e-06L 56 58.4C 56 58.4 42.4 55.3 28.1 55.3C 13.8 55.3 -2.44141e-05 58.4 -2.44141e-05 58.4Z"/>
<path id="path6_stroke" d="M -2.44141e-05 58.4L -2.25431 57.3192C -2.66848 58.183 -2.55259 59.2075 -1.95593 59.957C -1.35928 60.7065 -0.386788 61.0492 0.547909 60.8392L -2.44141e-05 58.4ZM 28 -6.10352e-06L 30.2543 -1.08083C 29.8384 -1.94817 28.9618 -2.50001 28 -2.50001C 27.0381 -2.50001 26.1615 -1.94817 25.7457 -1.08083L 28 -6.10352e-06ZM 56 58.4L 55.4444 60.8375C 56.3798 61.0507 57.3547 60.7098 57.9534 59.9601C 58.5522 59.2104 58.669 58.1843 58.2543 57.3192L 56 58.4ZM 2.25426 59.4808L 30.2543 1.08082L 25.7457 -1.08083L -2.25431 57.3192L 2.25426 59.4808ZM 25.7457 1.08082L 53.7457 59.4808L 58.2543 57.3192L 30.2543 -1.08083L 25.7457 1.08082ZM 56 58.4C 56.5556 55.9625 56.5553 55.9624 56.5549 55.9623C 56.5547 55.9623 56.5543 55.9622 56.5539 55.9621C 56.5533 55.962 56.5521 55.9617 56.5509 55.9614C 56.5489 55.961 56.5453 55.9602 56.5413 55.9593C 56.534 55.9576 56.5219 55.9549 56.5073 55.9516C 56.4796 55.9454 56.436 55.9357 56.3814 55.9237C 56.2752 55.9003 56.1125 55.8649 55.9062 55.8211C 55.4996 55.735 54.8913 55.6095 54.1276 55.4613C 52.6132 55.1677 50.413 54.7708 47.7819 54.3774C 42.5478 53.5959 35.3883 52.8038 28.1 52.8L 28.1 57.8C 35.1118 57.7962 41.9022 58.5541 47.0431 59.3226C 49.5995 59.7042 51.6931 60.0823 53.1755 60.3699C 53.9102 60.5123 54.4761 60.6291 54.8692 60.7124C 55.0626 60.7534 55.2061 60.7847 55.3061 60.8067C 55.3546 60.8173 55.3891 60.825 55.4137 60.8306C 55.4253 60.8332 55.433 60.8349 55.4388 60.8362C 55.4414 60.8368 55.4428 60.8371 55.4441 60.8374C 55.4445 60.8375 55.4446 60.8375 55.4448 60.8376C 55.4449 60.8376 55.4448 60.8376 55.4448 60.8376C 55.4446 60.8375 55.4444 60.8375 56 58.4ZM 28.1 52.8C 20.8127 52.8038 13.6049 53.5956 8.32155 54.3769C 5.66617 54.7701 3.44213 55.1667 1.90934 55.4603C 1.13658 55.6083 0.520925 55.7336 0.109064 55.8197C -0.0998665 55.8634 -0.264423 55.8987 -0.372029 55.9221C -0.427286 55.9341 -0.47134 55.9438 -0.49935 55.95C -0.51407 55.9532 -0.526239 55.9559 -0.533644 55.9576C -0.537701 55.9585 -0.541284 55.9593 -0.543318 55.9597C -0.544511 55.96 -0.545672 55.9603 -0.546269 55.9604C -0.546656 55.9605 -0.547079 55.9606 -0.547272 55.9606C -0.547641 55.9607 -0.547958 55.9608 -2.44141e-05 58.4C 0.547909 60.8392 0.547698 60.8392 0.547539 60.8393C 0.547556 60.8393 0.547449 60.8393 0.547482 60.8393C 0.547726 60.8392 0.547825 60.8392 0.54831 60.8391C 0.549633 60.8388 0.551078 60.8385 0.553709 60.8379C 0.559679 60.8366 0.567521 60.8348 0.579349 60.8322C 0.604434 60.8267 0.639616 60.8189 0.688924 60.8082C 0.79045 60.7862 0.936343 60.7549 1.13269 60.7138C 1.53137 60.6304 2.10556 60.5135 2.85 60.371C 4.35159 60.0833 6.47131 59.7049 9.05343 59.3231C 14.2451 58.5544 21.0873 57.7962 28.1 57.8L 28.1 52.8Z"/>
<path id="path7_fill" fill-rule="evenodd" d="M 0 -2.44141e-05L 58.4 28L 0 55.9C 0 55.9 3.09998 42.3 3.09998 28C 3.09998 13.7 0 -2.44141e-05 0 -2.44141e-05Z"/>
<path id="path8_stroke" d="M 0 -2.44141e-05L 1.08082 -2.25431C 0.216353 -2.66879 -0.809 -2.5524 -1.55858 -1.95472C -2.30816 -1.35704 -2.64994 -0.383339 -2.43836 0.551716L 0 -2.44141e-05ZM 58.4 28L 59.4777 30.2558C 60.3462 29.8409 60.8994 28.9642 60.9 28.0017C 60.9007 27.0392 60.3488 26.1618 59.4808 25.7457L 58.4 28ZM 0 55.9L -2.43748 55.3444C -2.65056 56.2792 -2.31024 57.2535 -1.56149 57.8524C -0.812729 58.4512 0.212559 58.5691 1.07768 58.1558L 0 55.9ZM -1.08082 2.25427L 57.3192 30.2543L 59.4808 25.7457L 1.08082 -2.25431L -1.08082 2.25427ZM 57.3223 25.7442L -1.07768 53.6442L 1.07768 58.1558L 59.4777 30.2558L 57.3223 25.7442ZM 0 55.9C 2.43748 56.4556 2.43755 56.4553 2.43764 56.4549C 2.43768 56.4547 2.43778 56.4543 2.43787 56.4539C 2.43801 56.4533 2.43827 56.4521 2.43854 56.4509C 2.439 56.4489 2.43981 56.4453 2.44072 56.4413C 2.44238 56.434 2.4451 56.4219 2.44837 56.4073C 2.45457 56.3797 2.46429 56.336 2.47631 56.2814C 2.4997 56.1752 2.53508 56.0126 2.57884 55.8062C 2.66503 55.3996 2.79047 54.7913 2.93864 54.0276C 3.2323 52.5132 3.62918 50.313 4.02255 47.6819C 4.80406 42.4478 5.59615 35.2882 5.59998 28L 0.599976 28C 0.603801 35.0117 -0.154092 41.8022 -0.922572 46.9431C -1.30419 49.4995 -1.68231 51.5931 -1.96989 53.0756C -2.11235 53.8103 -2.22909 54.3761 -2.31244 54.7692C -2.35344 54.9626 -2.38466 55.1061 -2.40668 55.2061C -2.41736 55.2546 -2.42505 55.2891 -2.43058 55.3138C -2.43318 55.3254 -2.4349 55.333 -2.43623 55.3389C -2.43681 55.3414 -2.43712 55.3428 -2.43741 55.3441C -2.43752 55.3446 -2.43753 55.3446 -2.43759 55.3449C -2.43759 55.3449 -2.43757 55.3448 -2.43757 55.3448C -2.43753 55.3446 -2.43748 55.3444 0 55.9ZM 5.59998 28C 5.59618 20.7122 4.80423 13.5285 4.02281 8.26982C 3.62952 5.62657 3.2328 3.41448 2.93919 1.89089C 2.79107 1.12265 2.66571 0.510644 2.57955 0.101435C 2.53582 -0.106209 2.50048 -0.269812 2.47711 -0.376726C 2.46509 -0.431656 2.4554 -0.475488 2.4492 -0.503328C 2.44594 -0.517972 2.44323 -0.530099 2.44158 -0.537466C 2.44067 -0.541509 2.43986 -0.545088 2.43941 -0.547114C 2.43914 -0.548306 2.43888 -0.54947 2.43874 -0.550066C 2.43865 -0.550454 2.43856 -0.550879 2.43851 -0.551073C 2.43843 -0.551445 2.43836 -0.551765 0 -2.44141e-05C -2.43836 0.551716 -2.43841 0.551501 -2.43844 0.551337C -2.43844 0.551352 -2.43846 0.551241 -2.43846 0.55127C -2.4384 0.551508 -2.43838 0.551596 -2.43828 0.55207C -2.43798 0.553376 -2.43766 0.554789 -2.43708 0.557385C -2.43576 0.563298 -2.43402 0.57104 -2.43142 0.582753C -2.42588 0.607629 -2.41817 0.642471 -2.40748 0.691374C -2.38544 0.792127 -2.35418 0.936825 -2.31315 1.13172C -2.22978 1.52759 -2.11295 2.09762 -1.97045 2.83719C -1.68281 4.32922 -1.30454 6.43588 -0.92283 9.00513C -0.154268 14.1714 0.603774 20.9877 0.599976 28L 5.59998 28Z"/>
<path id="path9_fill" fill-rule="evenodd" d="M 56 1.2207e-05L 28 58.4L -2.44141e-05 1.2207e-05C -2.44141e-05 1.2207e-05 13.6 3.09999 27.9 3.09999C 42.2 3.09999 56 1.2207e-05 56 1.2207e-05Z"/>
<path id="path10_stroke" d="M 56 1.2207e-05L 58.2543 1.08084C 58.6684 0.217001 58.5525 -0.807546 57.9559 -1.55704C 57.3592 -2.30654 56.3867 -2.64917 55.452 -2.4392L 56 1.2207e-05ZM 28 58.4L 25.7457 59.4808C 26.1615 60.3481 27.0381 60.9 28 60.9C 28.9618 60.9 29.8384 60.3481 30.2543 59.4808L 28 58.4ZM -2.44141e-05 1.2207e-05L 0.555572 -2.43747C -0.379843 -2.65069 -1.35477 -2.30978 -1.95348 -1.56011C -2.5522 -0.810448 -2.66909 0.215723 -2.25431 1.08084L -2.44141e-05 1.2207e-05ZM 27.9 3.09999L 27.9 5.59999L 27.9 3.09999ZM 53.7457 -1.08081L 25.7457 57.3192L 30.2543 59.4808L 58.2543 1.08084L 53.7457 -1.08081ZM 30.2543 57.3192L 2.25426 -1.08081L -2.25431 1.08084L 25.7457 59.4808L 30.2543 57.3192ZM -2.44141e-05 1.2207e-05C -0.555621 2.43749 -0.555298 2.43757 -0.554923 2.43765C -0.554729 2.4377 -0.554301 2.43779 -0.553913 2.43788C -0.553317 2.43802 -0.55215 2.43828 -0.550959 2.43855C -0.54894 2.43901 -0.545364 2.43982 -0.541336 2.44073C -0.534008 2.44239 -0.521923 2.44511 -0.507353 2.44838C -0.479682 2.45458 -0.436071 2.4643 -0.381466 2.47632C -0.275245 2.49971 -0.112592 2.53509 0.093768 2.57885C 0.500328 2.66504 1.10869 2.79048 1.87241 2.93865C 3.38682 3.23231 5.58696 3.62919 8.2181 4.02256C 13.4522 4.80407 20.6117 5.59616 27.9 5.59999L 27.9 0.599988C 20.8882 0.603813 14.0978 -0.15408 8.95688 -0.922559C 6.40051 -1.30418 4.3069 -1.6823 2.82442 -1.96988C 2.08971 -2.11234 1.52385 -2.22908 1.13079 -2.31242C 0.93735 -2.35343 0.793849 -2.38465 0.693869 -2.40667C 0.645373 -2.41735 0.610871 -2.42504 0.586204 -2.43057C 0.574605 -2.43317 0.566965 -2.43489 0.561111 -2.43621C 0.558548 -2.43679 0.557168 -2.43711 0.555879 -2.4374C 0.555415 -2.4375 0.55534 -2.43752 0.555107 -2.43757C 0.555082 -2.43758 0.555198 -2.43755 0.555185 -2.43756C 0.555353 -2.43752 0.555572 -2.43747 -2.44141e-05 1.2207e-05ZM 27.9 5.59999C 35.1873 5.59622 42.3951 4.80442 47.6784 4.02307C 50.3338 3.62988 52.5578 3.2333 54.0906 2.93974C 54.8634 2.79168 55.479 2.6664 55.8909 2.58026C 56.0998 2.53656 56.2644 2.50126 56.372 2.4779C 56.4272 2.4659 56.4713 2.45622 56.4993 2.45003C 56.514 2.44678 56.5262 2.44408 56.5336 2.44243C 56.5377 2.44152 56.5412 2.44072 56.5433 2.44027C 56.5445 2.44 56.5456 2.43974 56.5462 2.43961C 56.5466 2.43952 56.547 2.43942 56.5472 2.43938C 56.5476 2.4393 56.5479 2.43923 56 1.2207e-05C 55.452 -2.4392 55.4523 -2.43925 55.4524 -2.43929C 55.4524 -2.43928 55.4525 -2.43931 55.4525 -2.4393C 55.4522 -2.43924 55.4521 -2.43922 55.4516 -2.43911C 55.4503 -2.43882 55.4489 -2.43849 55.4462 -2.43791C 55.4403 -2.43658 55.4324 -2.43483 55.4206 -2.43222C 55.3955 -2.42668 55.3603 -2.41895 55.311 -2.40824C 55.2095 -2.3862 55.0636 -2.35489 54.8673 -2.31383C 54.4686 -2.23044 53.8944 -2.11353 53.15 -1.97098C 51.6484 -1.68329 49.5287 -1.30487 46.9465 -0.923072C 41.7549 -0.15443 34.9127 0.603759 27.9 0.599988L 27.9 5.59999Z"/>
<path id="path11_fill" fill-rule="evenodd" d="M 10.8 25.5L 1.2207e-05 -1.2207e-05L 26.7 7.60002C 26.7 7.60002 21.8 11.1 17.8 15.7C 13.7 20.2 10.8 25.5 10.8 25.5Z"/>
<path id="path12_stroke" d="M 10.8 25.5L 8.49796 26.475C 8.87182 27.3577 9.71755 27.9489 10.675 27.9969C 11.6324 28.0448 12.533 27.541 12.9932 26.7L 10.8 25.5ZM 1.2207e-05 -1.2207e-05L 0.684439 -2.4045C -0.241245 -2.66799 -1.23599 -2.37669 -1.87332 -1.6555C -2.51065 -0.934296 -2.67738 0.0887249 -2.30203 0.97497L 1.2207e-05 -1.2207e-05ZM 26.7 7.60002L 28.1531 9.63437C 28.9346 9.07619 29.3272 8.11971 29.1634 7.17346C 28.9995 6.2272 28.3081 5.45845 27.3845 5.19554L 26.7 7.60002ZM 17.8 15.7L 19.648 17.3837C 19.661 17.3694 19.6738 17.355 19.6865 17.3404L 17.8 15.7ZM 13.102 24.525L 2.30206 -0.974995L -2.30203 0.97497L 8.49796 26.475L 13.102 24.525ZM -0.684414 2.40448L 26.0156 10.0045L 27.3845 5.19554L 0.684439 -2.4045L -0.684414 2.40448ZM 26.7 7.60002C 25.2469 5.56568 25.2467 5.56586 25.2464 5.56606C 25.2463 5.56614 25.246 5.56635 25.2458 5.56651C 25.2455 5.56673 25.2448 5.56723 25.2442 5.56767C 25.2433 5.56832 25.2414 5.56963 25.2396 5.57094C 25.2366 5.57309 25.2311 5.57701 25.2252 5.58131C 25.2145 5.589 25.1966 5.60194 25.1755 5.61722C 25.136 5.64592 25.0732 5.69175 24.9968 5.74814C 24.8492 5.85709 24.6242 6.02526 24.3511 6.23456C 23.8158 6.64487 23.0343 7.26117 22.1414 8.01129C 20.379 9.49332 18.0123 11.6523 15.9135 14.0596L 19.6865 17.3404C 21.5877 15.1477 23.671 13.2567 25.3586 11.8387C 26.1908 11.1389 26.8842 10.5927 27.3927 10.203C 27.6415 10.0123 27.8305 9.87108 27.9665 9.77065C 28.0319 9.72236 28.0783 9.6885 28.1125 9.66369C 28.1283 9.65221 28.1384 9.64493 28.1465 9.6391C 28.1499 9.63664 28.1516 9.63547 28.1533 9.63422C 28.1539 9.63382 28.1544 9.63346 28.1541 9.63366C 28.1541 9.63365 28.1538 9.63386 28.1538 9.63386C 28.1537 9.63391 28.1536 9.63404 28.1535 9.63407C 28.1533 9.63421 28.1531 9.63437 26.7 7.60002ZM 15.952 14.0163C 13.8054 16.3788 11.9371 18.9878 10.6718 20.9168C 10.0314 21.8941 9.51086 22.7457 9.16617 23.3275C 8.99034 23.6245 8.84967 23.8688 8.75879 24.0288C 8.71173 24.1116 8.67356 24.1797 8.64969 24.2225C 8.63698 24.2454 8.62623 24.2648 8.61984 24.2763C 8.61626 24.2828 8.613 24.2887 8.61121 24.292C 8.61013 24.294 8.60904 24.296 8.6085 24.2969C 8.60813 24.2976 8.60772 24.2984 8.60754 24.2987C 8.6074 24.2989 8.60723 24.2993 8.60716 24.2994C 8.607 24.2997 8.60685 24.3 10.8 25.5C 12.9932 26.7 12.993 26.7003 12.9929 26.7005C 12.9929 26.7005 12.9928 26.7007 12.9927 26.7008C 12.9927 26.7008 12.9926 26.7011 12.9926 26.7011C 12.9924 26.7014 12.9927 26.7009 12.993 26.7003C 12.9941 26.6984 12.995 26.6966 12.9971 26.693C 13.0019 26.6842 13.0079 26.6733 13.0174 26.6562C 13.0381 26.6192 13.0662 26.569 13.1064 26.4982C 13.1902 26.3507 13.3081 26.1458 13.4682 25.8756C 13.7954 25.3231 14.2561 24.5684 14.8532 23.6582C 16.0629 21.8122 17.6946 19.5212 19.648 17.3837L 15.952 14.0163Z"/>
<path id="path13_fill" fill-rule="evenodd" d="M 1.2207e-05 7.1L 26.8 2.44141e-05L 15.6 25.4C 15.6 25.4 12.8 20.1 8.89998 15.4C 4.79998 10.7 1.2207e-05 7.1 1.2207e-05 7.1Z"/>
<path id="path14_stroke" d="M 1.2207e-05 7.1L -0.640213 4.68337C -1.56638 4.92873 -2.27085 5.68184 -2.45392 6.6223C -2.637 7.56276 -2.26648 8.52513 -1.49999 9.1L 1.2207e-05 7.1ZM 26.8 2.44141e-05L 29.0875 1.00868C 29.4751 0.129554 29.3247 -0.89395 28.7004 -1.62431C 28.0761 -2.35468 27.0885 -2.66266 26.1598 -2.41661L 26.8 2.44141e-05ZM 15.6 25.4L 13.3895 26.5678C 13.8373 27.4154 14.7304 27.9323 15.6884 27.8984C 16.6464 27.8645 17.5007 27.2858 17.8875 26.4086L 15.6 25.4ZM 8.89998 15.4L 10.8239 13.8036C 10.8107 13.7877 10.7974 13.7721 10.7839 13.7566L 8.89998 15.4ZM 0.640238 9.51663L 27.4402 2.41666L 26.1598 -2.41661L -0.640213 4.68337L 0.640238 9.51663ZM 24.5125 -1.00863L 13.3125 24.3913L 17.8875 26.4086L 29.0875 1.00868L 24.5125 -1.00863ZM 15.6 25.4C 17.8105 24.2322 17.8103 24.2319 17.8102 24.2317C 17.8101 24.2316 17.81 24.2313 17.8099 24.231C 17.8097 24.2307 17.8093 24.23 17.809 24.2294C 17.8085 24.2285 17.8075 24.2266 17.8065 24.2247C 17.8048 24.2215 17.8018 24.2158 17.7984 24.2095C 17.7924 24.1981 17.7822 24.1791 17.7701 24.1566C 17.7473 24.1141 17.711 24.0469 17.6661 23.9646C 17.5788 23.8049 17.4446 23.5621 17.2762 23.2651C 16.9453 22.6819 16.4483 21.8297 15.8364 20.8437C 14.6257 18.8946 12.853 16.254 10.8239 13.8036L 6.97607 16.9964C 8.84694 19.2459 10.4243 21.6053 11.5886 23.4812C 12.1642 24.4078 12.6109 25.1744 12.9269 25.7317C 13.082 26.005 13.1969 26.213 13.2781 26.3616C 13.3173 26.4333 13.345 26.4846 13.365 26.522C 13.3744 26.5395 13.3805 26.5508 13.3852 26.5598C 13.3873 26.5636 13.3884 26.5656 13.3894 26.5676C 13.3897 26.5682 13.3898 26.5683 13.39 26.5686C 13.39 26.5687 13.3899 26.5685 13.3899 26.5685C 13.3898 26.5684 13.3897 26.5682 13.3897 26.5682C 13.3896 26.568 13.3895 26.5678 15.6 25.4ZM 10.7839 13.7566C 8.64685 11.3118 6.29749 9.11684 4.55192 7.60009C 3.66858 6.83315 2.90112 6.20376 2.37509 5.78319C 2.10709 5.56901 1.8874 5.39734 1.74297 5.28572C 1.66838 5.22808 1.60743 5.18146 1.56886 5.15211C 1.54841 5.13655 1.53115 5.12348 1.52078 5.11564C 1.51502 5.11129 1.50982 5.10737 1.50692 5.10519C 1.50519 5.10389 1.50346 5.10259 1.50259 5.10194C 1.50202 5.1015 1.50137 5.10102 1.50108 5.1008C 1.50087 5.10064 1.5006 5.10044 1.50049 5.10036C 1.50025 5.10018 1.50002 5.1 1.2207e-05 7.1C -1.49999 9.1 -1.50019 9.09985 -1.50036 9.09972C -1.50039 9.09969 -1.50055 9.09958 -1.50062 9.09953C -1.50062 9.09952 -1.50082 9.09937 -1.50081 9.09938C -1.50052 9.0996 -1.5005 9.09962 -1.49991 9.10006C -1.49816 9.10138 -1.49641 9.10269 -1.49296 9.1053C -1.48492 9.11137 -1.47473 9.11909 -1.45902 9.13105C -1.42528 9.15672 -1.3791 9.19203 -1.31443 9.24201C -1.18035 9.34562 -0.993014 9.49193 -0.746948 9.68868C -0.244863 10.09 0.443919 10.6543 1.27307 11.3749C 2.95248 12.8331 5.0531 14.7882 7.01605 17.0434L 10.7839 13.7566Z"/>
<path id="path15_fill" fill-rule="evenodd" d="M 16.2 -1.2207e-05L 26.6 25.7L -1.2207e-05 17.7C -1.2207e-05 17.7 4.89999 14.3 8.99999 9.79998C 13.2 5.29998 16.2 -1.2207e-05 16.2 -1.2207e-05Z"/>
<path id="path16_stroke" d="M 16.2 -1.2207e-05L 18.5174 -0.937811C 18.1575 -1.82716 17.3204 -2.43211 16.3631 -2.49469C 15.4057 -2.55727 14.497 -2.06645 14.0244 -1.23151L 16.2 -1.2207e-05ZM 26.6 25.7L 25.88 28.0941C 26.8011 28.3711 27.7995 28.0951 28.4475 27.3843C 29.0956 26.6734 29.2783 25.6538 28.9175 24.7622L 26.6 25.7ZM -1.2207e-05 17.7L -1.42522 15.646C -2.21378 16.1932 -2.61946 17.1435 -2.46917 18.0915C -2.31888 19.0394 -1.63916 19.8176 -0.720032 20.0941L -1.2207e-05 17.7ZM 8.99999 9.79998L 7.17235 8.09418C 7.16552 8.1015 7.15874 8.10885 7.152 8.11625L 8.99999 9.79998ZM 13.8826 0.937787L 24.2826 26.6378L 28.9175 24.7622L 18.5174 -0.937811L 13.8826 0.937787ZM 27.32 23.3059L 0.720008 15.3059L -0.720032 20.0941L 25.88 28.0941L 27.32 23.3059ZM -1.2207e-05 17.7C 1.4252 19.754 1.42545 19.7538 1.42571 19.7536C 1.42583 19.7535 1.42611 19.7533 1.42634 19.7532C 1.42664 19.753 1.42732 19.7525 1.42793 19.7521C 1.42883 19.7514 1.43065 19.7502 1.43245 19.7489C 1.43544 19.7468 1.44086 19.7431 1.4468 19.7389C 1.45746 19.7315 1.47529 19.7189 1.4963 19.7041C 1.5358 19.6763 1.59844 19.6319 1.67482 19.5772C 1.82242 19.4714 2.04741 19.3082 2.32104 19.1049C 2.85752 18.7061 3.64111 18.1073 4.5395 17.3773C 6.31339 15.9347 8.70131 13.834 10.848 11.4837L 7.152 8.11625C 5.19866 10.2659 3.08658 12.1153 1.38548 13.4976C 0.546361 14.1802 -0.151296 14.7127 -0.661692 15.092C -0.911497 15.2777 -1.10135 15.4153 -1.23773 15.5131C -1.30335 15.5601 -1.34999 15.5931 -1.38426 15.6173C -1.40015 15.6285 -1.41033 15.6356 -1.41847 15.6413C -1.42192 15.6437 -1.42359 15.6449 -1.42534 15.6461C -1.42591 15.6465 -1.42645 15.6469 -1.42616 15.6467C -1.42617 15.6467 -1.42591 15.6465 -1.42592 15.6465C -1.42584 15.6465 -1.42566 15.6463 -1.42562 15.6463C -1.42543 15.6462 -1.42522 15.646 -1.2207e-05 17.7ZM 10.8276 11.5058C 13.0245 9.14571 14.9436 6.54005 16.2466 4.61187C 16.906 3.63517 17.4426 2.78438 17.7984 2.20277C 17.9798 1.90602 18.125 1.66204 18.2188 1.50215C 18.2674 1.41938 18.3068 1.35145 18.3315 1.30866C 18.3446 1.28589 18.3557 1.26653 18.3623 1.25498C 18.366 1.24853 18.3693 1.24264 18.3712 1.23939C 18.3723 1.23743 18.3734 1.23545 18.3739 1.23447C 18.3743 1.23381 18.3747 1.23307 18.3749 1.23274C 18.3751 1.23249 18.3753 1.23218 18.3753 1.23205C 18.3755 1.23176 18.3756 1.23149 16.2 -1.2207e-05C 14.0244 -1.23151 14.0245 -1.23175 14.0246 -1.23196C 14.0246 -1.232 14.0247 -1.23219 14.0248 -1.23228C 14.0248 -1.23227 14.025 -1.23258 14.025 -1.23256C 14.0251 -1.23287 14.0248 -1.2323 14.0245 -1.2317C 14.0234 -1.22982 14.0224 -1.22803 14.0203 -1.22432C 14.0152 -1.21554 14.009 -1.20459 13.9991 -1.18744C 13.9778 -1.1504 13.9486 -1.10007 13.9069 -1.02913C 13.8203 -0.8816 13.6983 -0.676362 13.5329 -0.40592C 13.1949 0.146843 12.719 0.902301 12.1034 1.81309C 10.8564 3.6599 9.17551 5.95424 7.17235 8.09418L 10.8276 11.5058Z"/>
<path id="path17_fill" fill-rule="evenodd" d="M 26.3 17.1L -1.2207e-05 26.1L 9.49999 2.44141e-05C 9.49999 2.44141e-05 12.6 5.10002 16.9 9.50002C 21.2 13.8 26.3 17.1 26.3 17.1Z"/>
<path id="path18_stroke" d="M 26.3 17.1L 27.1094 19.4653C 28.0153 19.1554 28.6645 18.3552 28.7813 17.405C 28.8981 16.4547 28.4619 15.5212 27.6581 15.0011L 26.3 17.1ZM -1.2207e-05 26.1L -2.34923 25.2449C -2.67856 26.1497 -2.45902 27.1632 -1.78481 27.8506C -1.1106 28.538 -0.101559 28.7771 0.809419 28.4653L -1.2207e-05 26.1ZM 9.49999 2.44141e-05L 11.6363 -1.29852C 11.1369 -2.12004 10.2107 -2.58243 9.25402 -2.48785C 8.29731 -2.39326 7.47959 -1.75845 7.15077 -0.855057L 9.49999 2.44141e-05ZM 16.9 9.50002L 15.112 11.2474C 15.1187 11.2542 15.1255 11.261 15.1322 11.2678L 16.9 9.50002ZM 25.4905 14.7347L -0.809444 23.7347L 0.809419 28.4653L 27.1094 19.4653L 25.4905 14.7347ZM 2.34921 26.9551L 11.8492 0.855105L 7.15077 -0.855057L -2.34923 25.2449L 2.34921 26.9551ZM 9.49999 2.44141e-05C 7.36369 1.29857 7.36385 1.29883 7.36402 1.29911C 7.36409 1.29923 7.36427 1.29954 7.36442 1.29978C 7.36461 1.30009 7.36505 1.30082 7.36544 1.30145C 7.36602 1.3024 7.36718 1.30431 7.36833 1.3062C 7.37024 1.30932 7.37371 1.315 7.37752 1.32122C 7.38434 1.33234 7.3958 1.35099 7.40936 1.37292C 7.43483 1.41412 7.47552 1.47955 7.52569 1.55928C 7.62261 1.71329 7.77243 1.94834 7.95956 2.23442C 8.32649 2.79514 8.87936 3.61572 9.55788 4.55969C 10.8987 6.42328 12.8669 8.94442 15.112 11.2474L 18.688 7.75269C 16.6331 5.65563 14.9013 3.42677 13.6171 1.64036C 12.9831 0.759326 12.4922 0.0299126 12.1436 -0.503124C 11.9729 -0.763913 11.8469 -0.961674 11.7575 -1.10376C 11.7145 -1.17208 11.6844 -1.22052 11.6623 -1.25617C 11.6521 -1.27267 11.6457 -1.2832 11.6405 -1.29164C 11.6383 -1.29521 11.6373 -1.29691 11.6362 -1.29872C 11.6358 -1.2993 11.6355 -1.29983 11.6357 -1.29954C 11.6357 -1.29956 11.6358 -1.29925 11.6358 -1.29926C 11.6359 -1.29918 11.636 -1.29899 11.636 -1.29895C 11.6362 -1.29875 11.6363 -1.29852 9.49999 2.44141e-05ZM 15.1322 11.2678C 17.3779 13.5085 19.8628 15.5215 21.7103 16.9109C 22.6449 17.6131 23.4577 18.1892 24.0153 18.5744C 24.2993 18.7704 24.5319 18.9273 24.6851 19.0295C 24.7641 19.0822 24.8285 19.1247 24.8693 19.1516C 24.891 19.1658 24.9091 19.1776 24.9201 19.1848C 24.9262 19.1887 24.9316 19.1923 24.9347 19.1943C 24.9365 19.1954 24.9383 19.1966 24.9392 19.1972C 24.9398 19.1976 24.9405 19.198 24.9408 19.1982C 24.941 19.1984 24.9412 19.1985 24.9414 19.1986C 24.9416 19.1988 24.9418 19.1989 26.3 17.1C 27.6581 15.0011 27.6583 15.0012 27.6585 15.0013C 27.6585 15.0013 27.6587 15.0014 27.6587 15.0015C 27.6587 15.0015 27.6589 15.0016 27.6589 15.0016C 27.6586 15.0014 27.6585 15.0013 27.6579 15.0009C 27.656 14.9997 27.654 14.9984 27.6503 14.996C 27.6417 14.9904 27.6308 14.9832 27.614 14.9722C 27.578 14.9486 27.5287 14.916 27.4598 14.8701C 27.3173 14.775 27.1179 14.6406 26.8565 14.46C 26.3236 14.0921 25.5926 13.5744 24.7147 12.9142C 22.9372 11.5785 20.7221 9.79152 18.6678 7.73226L 15.1322 11.2678Z"/>
</defs>
</svg>
