<?xml version="1.0" encoding="utf-8"?>
<!-- Generator: Adobe Illustrator 20.1.0, SVG Export Plug-In . SVG Version: 6.00 Build 0)  -->
<svg version="1.1" id="Capa_1" xmlns="http://www.w3.org/2000/svg" xmlns:xlink="http://www.w3.org/1999/xlink" x="0px" y="0px"
	 viewBox="0 0 106.6 106.6" style="enable-background:new 0 0 106.6 106.6;" xml:space="preserve">
<style type="text/css">
	.st0{fill:#FFFFFF;}
</style>
<g>
	<g>
		<path class="st0" d="M53.1,25.1c15.6,0,28.3,12.6,28.3,28.3S68.7,81.6,53.1,81.6c-15.6,0-28.3-12.7-28.3-28.3S37.5,25.1,53.1,25.1
			z"/>
		<path class="st0" d="M16.5,58c0.2-0.1,0.3-0.3,0.3-0.5v-8.3c0-0.2-0.1-0.4-0.3-0.5c-0.2-0.1-0.4-0.2-0.6-0.1L0.4,52.7
			c-0.6,0.2-0.6,1.1,0,1.3l15.5,4.2C16.1,58.2,16.3,58.1,16.5,58z"/>
		<path class="st0" d="M106.2,52.7l-15.5-4.2c-0.2-0.1-0.4,0-0.6,0.1c-0.2,0.1-0.3,0.3-0.3,0.5v8.3c0,0.2,0.1,0.4,0.3,0.5
			c0.2,0.1,0.4,0.2,0.6,0.1l15.5-4.2C106.8,53.8,106.8,52.8,106.2,52.7z"/>
		<path class="st0" d="M57.3,88.7h-8.3c-0.2,0-0.4,0.1-0.5,0.3c-0.1,0.2-0.2,0.4-0.1,0.6l4.2,15.5c0.2,0.6,1.1,0.6,1.3,0l4.2-15.5
			c0-0.2,0-0.4-0.1-0.6C57.7,88.8,57.5,88.7,57.3,88.7z"/>
		<path class="st0" d="M48.9,17.9h8.3c0.2,0,0.4-0.1,0.5-0.3c0.1-0.2,0.2-0.4,0.1-0.6L53.7,1.6c-0.2-0.6-1.1-0.6-1.3,0l-4.2,15.5
			c-0.1,0.2,0,0.4,0.1,0.6C48.5,17.8,48.7,17.9,48.9,17.9z"/>
		<path class="st0" d="M25.1,75.4c-0.1-0.1-0.3-0.2-0.5-0.2c-0.2,0-0.4,0.1-0.5,0.3l-8,13.9c-0.3,0.5,0.4,1.2,0.9,0.9l13.9-8
			c0.2-0.1,0.3-0.3,0.3-0.5c0-0.2,0-0.4-0.2-0.6L25.1,75.4z"/>
		<path class="st0" d="M81.1,31.2c0.1,0.1,0.3,0.2,0.6,0.2c0.2,0,0.4-0.1,0.5-0.3l8-13.9c0.3-0.5-0.4-1.2-0.9-0.9l-13.9,8
			c-0.2,0.1-0.3,0.3-0.3,0.5c0,0.2,0,0.4,0.2,0.5L81.1,31.2z"/>
		<path class="st0" d="M78.9,75.6c-0.1-0.2-0.3-0.3-0.5-0.3c-0.2,0-0.4,0-0.6,0.2L72,81.3c-0.1,0.1-0.2,0.3-0.2,0.6
			c0,0.2,0.1,0.4,0.3,0.5l13.9,8c0.5,0.3,1.2-0.4,0.9-0.9L78.9,75.6z"/>
		<path class="st0" d="M20.9,31.1c0.1,0.2,0.3,0.3,0.4,0.3s0.4-0.1,0.5-0.2l5.9-5.9c0.1-0.1,0.2-0.3,0.2-0.5c0-0.2-0.1-0.4-0.3-0.4
			l-12.9-7c-0.5-0.3-1.2,0.4-0.9,0.9L20.9,31.1z"/>
	</g>
</g>
</svg>
