<?xml version="1.0" encoding="utf-8"?>
<!-- Generator: Adobe Illustrator 20.1.0, SVG Export Plug-In . SVG Version: 6.00 Build 0)  -->
<svg version="1.1" id="Слой_1" xmlns="http://www.w3.org/2000/svg" xmlns:xlink="http://www.w3.org/1999/xlink" x="0px" y="0px"
	 viewBox="0 0 1500 1500" style="enable-background:new 0 0 1500 1500;" xml:space="preserve">
<style type="text/css">
	
		.st0{fill-rule:evenodd;clip-rule:evenodd;fill:#FFFFFF;stroke:#FFFFFF;stroke-width:5;stroke-linecap:round;stroke-linejoin:round;stroke-miterlimit:10;}
	.st1{fill:none;stroke:#FFFFFF;stroke-width:18;stroke-miterlimit:10;}
	.st2{fill:#FFFFFF;}
	.st3{fill:none;stroke:#5577AF;stroke-linecap:round;stroke-linejoin:round;stroke-miterlimit:10;}
	.st4{fill:none;stroke:#FFFFFF;stroke-width:5;stroke-linecap:round;stroke-linejoin:round;stroke-miterlimit:10;}
</style>
<path class="st0" d="M618.2,686.1l-58.4-28l58.4-28c0,0-3.1,13.6-3.1,27.9C615,672.3,618.2,686.1,618.2,686.1z"/>
<path class="st1" d="M869.9,659.5c0,63.9-51.8,115.7-115.7,115.7s-115.7-51.8-115.7-115.7s51.8-115.7,115.7-115.7
	C822.1,543.7,869.9,600.2,869.9,659.5z"/>
<path class="st2" d="M753.8,578.9c-44.5,0-80.5,36.1-80.5,80.5s36.1,80.5,80.5,80.5s80.5-36.1,80.5-80.5
	C834.3,618.2,801.1,578.9,753.8,578.9z M772.4,677.6c-11.2,10.8-63,26.5-65.4,24s15.2-53.5,26.5-64.4c11.4-11,62.7-26.9,65.4-24
	C801.6,616.1,783.6,666.8,772.4,677.6z"/>
<path class="st3" d="M753,732.1"/>
<path class="st3" d="M825.6,659.5"/>
<ellipse transform="matrix(0.6166 -0.7873 0.7873 0.6166 -228.8934 844.9161)" class="st4" cx="753" cy="657.4" rx="6.5" ry="6.5"/>
<g>
	<path class="st2" d="M368.4,1004.7c0,0.4-0.1,0.8-0.4,1.1c-3.7,4.3-8.9,7.6-15.6,10c-6.9,2.5-14.5,3.7-22.9,3.7
		c-8.8,0-16.5-1.9-23.2-5.8c-6.6-3.8-11.8-9.4-15.4-16.7c-3.6-7.3-5.5-15.9-5.6-25.8v-6.9c0-10.2,1.7-18.9,5.1-26.4
		c3.4-7.4,8.4-13.1,14.8-17c6.4-3.9,14-5.9,22.7-5.9c12.1,0,21.5,2.9,28.3,8.6c6.4,5.4,10.4,13.2,11.8,23.2c0.1,1-0.6,1.9-1.6,1.9
		h-17.1c-0.8,0-1.5-0.6-1.6-1.4c-1-5.1-3-8.9-5.9-11.4c-3.2-2.7-7.6-4.1-13.2-4.1c-7.1,0-12.6,2.7-16.3,8
		c-3.7,5.4-5.6,13.3-5.7,23.9v6.5c0,10.7,2,18.7,6.1,24.2c4.1,5.4,10,8.2,17.8,8.2c7.5,0,12.9-1.5,16.3-4.5c0.3-0.3,0.5-0.8,0.5-1.2
		v-15.1c0-0.9-0.7-1.7-1.7-1.7h-15.7c-0.9,0-1.7-0.7-1.7-1.7v-12.1c0-0.9,0.7-1.7,1.7-1.7h36.7c0.9,0,1.7,0.7,1.7,1.7L368.4,1004.7z
		"/>
	<path class="st2" d="M459.2,974h-36.9c-0.9,0-1.7,0.7-1.7,1.7v24.1c0,0.9,0.7,1.7,1.7,1.7h43.9c0.9,0,1.7,0.7,1.7,1.7v13.5
		c0,0.9-0.7,1.7-1.7,1.7h-64.9c-0.9,0-1.7-0.7-1.7-1.7v-98.4c0-0.9,0.7-1.7,1.7-1.7h64.7c0.9,0,1.7,0.7,1.7,1.7v13.7
		c0,0.9-0.7,1.7-1.7,1.7h-43.8c-0.9,0-1.7,0.7-1.7,1.7v20.9c0,0.9,0.7,1.7,1.7,1.7h36.9c0.9,0,1.7,0.7,1.7,1.7v13
		C460.9,973.3,460.1,974,459.2,974z"/>
	<path class="st2" d="M570.8,933.5h-27.8c-0.9,0-1.7,0.7-1.7,1.7v81.4c0,0.9-0.7,1.7-1.7,1.7H522c-0.9,0-1.7-0.7-1.7-1.7v-81.4
		c0-0.9-0.7-1.7-1.7-1.7h-27.4c-0.9,0-1.7-0.7-1.7-1.7v-13.7c0-0.9,0.7-1.7,1.7-1.7h79.5c0.9,0,1.7,0.7,1.7,1.7v13.7
		C572.4,932.8,571.7,933.5,570.8,933.5z"/>
	<path class="st2" d="M715.1,933.5h-27.8c-0.9,0-1.7,0.7-1.7,1.7v81.4c0,0.9-0.7,1.7-1.7,1.7h-17.6c-0.9,0-1.7-0.7-1.7-1.7v-81.4
		c0-0.9-0.7-1.7-1.7-1.7h-27.4c-0.9,0-1.7-0.7-1.7-1.7v-13.7c0-0.9,0.7-1.7,1.7-1.7h79.5c0.9,0,1.7,0.7,1.7,1.7v13.7
		C716.8,932.8,716,933.5,715.1,933.5z"/>
	<path class="st2" d="M779.7,981h-14c-0.9,0-1.7,0.7-1.7,1.7v33.9c0,0.9-0.7,1.7-1.7,1.7h-17.6c-0.9,0-1.7-0.7-1.7-1.7v-98.4
		c0-0.9,0.7-1.7,1.7-1.7h36.1c12,0,21.3,2.7,27.8,8c6.5,5.4,9.8,12.9,9.8,22.7c0,6.9-1.5,12.7-4.5,17.4c-2.8,4.2-6.8,7.7-12.1,10.4
		c-0.8,0.4-1.1,1.4-0.7,2.2l21.2,40v1h-21.5c-0.6,0-1.2-0.3-1.5-0.9l-18.1-35.4C780.9,981.3,780.3,981,779.7,981z M764,962.4
		c0,0.9,0.7,1.7,1.7,1.7h15.2c5.3,0,9.3-1.3,12.2-4c2.9-2.7,4.3-6.4,4.3-11.1c0-4.8-1.4-8.6-4.1-11.3c-2.7-2.7-6.9-4.1-12.5-4.1
		h-15.2c-0.9,0-1.7,0.7-1.7,1.7V962.4z"/>
	<path class="st2" d="M993,987.7l21.1-70c0.2-0.7,0.9-1.2,1.6-1.2h19.8c1.1,0,1.9,1.1,1.6,2.2l-34.3,98.4c-0.2,0.7-0.9,1.1-1.6,1.1
		h-19.5c-0.7,0-1.3-0.4-1.6-1.1L946,918.7c-0.4-1.1,0.4-2.2,1.6-2.2h19.7c0.7,0,1.4,0.5,1.6,1.2l21,70
		C990.3,989.3,992.5,989.3,993,987.7z"/>
	<path class="st2" d="M1121.2,974h-36.9c-0.9,0-1.7,0.7-1.7,1.7v24.1c0,0.9,0.7,1.7,1.7,1.7h43.9c0.9,0,1.7,0.7,1.7,1.7v13.5
		c0,0.9-0.7,1.7-1.7,1.7h-64.9c-0.9,0-1.7-0.7-1.7-1.7v-98.4c0-0.9,0.7-1.7,1.7-1.7h64.7c0.9,0,1.7,0.7,1.7,1.7v13.7
		c0,0.9-0.7,1.7-1.7,1.7h-43.8c-0.9,0-1.7,0.7-1.7,1.7v20.9c0,0.9,0.7,1.7,1.7,1.7h36.9c0.9,0,1.7,0.7,1.7,1.7v13
		C1122.8,973.3,1122.1,974,1121.2,974z"/>
	<path class="st2" d="M1179,1001.4h41.2c0.9,0,1.7,0.7,1.7,1.7v13.5c0,0.9-0.7,1.7-1.7,1.7h-62.1c-0.9,0-1.7-0.7-1.7-1.7v-98.4
		c0-0.9,0.7-1.7,1.7-1.7h17.6c0.9,0,1.7,0.7,1.7,1.7v81.5C1177.4,1000.7,1178.1,1001.4,1179,1001.4z"/>
</g>
<path class="st0" d="M724.6,524.8l28-58.4l28,58.4c0,0-13.6-3.1-27.9-3.1S724.6,524.8,724.6,524.8z"/>
<path class="st0" d="M889,629.1l58.4,28L889,685c0,0,3.1-13.6,3.1-27.9S889,629.1,889,629.1z"/>
<path class="st0" d="M780.6,794.7l-28,58.4l-28-58.4c0,0,13.6,3.1,27.9,3.1C766.8,797.8,780.6,794.7,780.6,794.7z"/>
<path class="st0" d="M644,576.3l-10.8-25.5l26.7,7.6c0,0-4.9,3.5-8.9,8.1C646.9,571,644,576.3,644,576.3z"/>
<path class="st0" d="M848.7,558l26.8-7.1l-11.2,25.4c0,0-2.8-5.3-6.7-10C853.5,561.6,848.7,558,848.7,558z"/>
<path class="st0" d="M866.5,742.3l10.4,25.7l-26.6-8c0,0,4.9-3.4,9-7.9C863.5,747.6,866.5,742.3,866.5,742.3z"/>
<path class="st0" d="M659.1,760l-26.3,9l9.5-26.1c0,0,3.1,5.1,7.4,9.5C654,756.7,659.1,760,659.1,760z"/>
<path class="st2" d="M888.6,947l-21.1,70c-0.2,0.7-0.9,1.2-1.6,1.2h-19.8c-1.1,0-1.9-1.1-1.6-2.2l34.3-98.4c0.2-0.7,0.9-1.1,1.6-1.1
	h19.5c0.7,0,1.3,0.4,1.6,1.1l34.1,98.4c0.4,1.1-0.4,2.2-1.6,2.2h-19.7c-0.7,0-1.4-0.5-1.6-1.2l-21-70
	C891.3,945.5,889,945.5,888.6,947z"/>
</svg>
