<svg width="69" height="25" viewBox="0 0 69 25" version="1.1" xmlns="http://www.w3.org/2000/svg" xmlns:xlink="http://www.w3.org/1999/xlink">
<title>Rectangle 5</title>
<desc>Created using Figma</desc>
<g id="Canvas" transform="translate(-3467 -10195)">
<g id="Rectangle 5">
<use xlink:href="#path0_fill" transform="translate(3467 10195.9)" fill="#E8F1FF"/>
<mask id="mask0_outline_ins">
<use xlink:href="#path0_fill" fill="white" transform="translate(3467 10195.9)"/>
</mask>
<g mask="url(#mask0_outline_ins)">
<use xlink:href="#path1_stroke_2x" transform="translate(3467 10195.9)" fill="#71A2EA"/>
</g>
</g>
</g>
<defs>
<path id="path0_fill" fill-rule="evenodd" d="M 10.3528 0.589641C 11.6129 -0.670124 13.7672 0.222454 13.7672 2.0037L 13.7672 5.43241L 54.7562 5.43241L 54.7562 2.0037C 54.7562 0.222454 56.9105 -0.670124 58.1705 0.589641L 67.9376 10.3572C 68.7186 11.1385 68.7186 12.4041 67.9376 13.1853L 58.1705 22.9529C 56.9105 24.2127 54.7562 23.3201 54.7562 21.5389L 54.7562 17.8172L 13.7672 17.8172L 13.7672 21.5389C 13.7672 23.3201 11.6129 24.2127 10.3528 22.9529L 0.585754 13.1853C -0.195251 12.4041 -0.195251 11.1385 0.585754 10.3572L 10.3528 0.589641Z"/>
<path id="path1_stroke_2x" d="M 10.3528 0.589641L 9.64581 -0.117534L 9.64572 -0.117448L 10.3528 0.589641ZM 13.7672 5.43241L 12.7672 5.43241L 12.7672 6.43241L 13.7672 6.43241L 13.7672 5.43241ZM 54.7562 5.43241L 54.7562 6.43241L 55.7562 6.43241L 55.7562 5.43241L 54.7562 5.43241ZM 58.1705 0.589641L 58.8776 -0.117448L 58.8775 -0.117534L 58.1705 0.589641ZM 67.9376 10.3572L 68.6448 9.65022L 68.6447 9.65013L 67.9376 10.3572ZM 67.9376 13.1853L 68.6447 13.8924L 68.6448 13.8923L 67.9376 13.1853ZM 58.1705 22.9529L 58.8775 23.6601L 58.8776 23.66L 58.1705 22.9529ZM 54.7562 17.8172L 55.7562 17.8172L 55.7562 16.8172L 54.7562 16.8172L 54.7562 17.8172ZM 13.7672 17.8172L 13.7672 16.8172L 12.7672 16.8172L 12.7672 17.8172L 13.7672 17.8172ZM 10.3528 22.9529L 9.64572 23.66L 9.64581 23.6601L 10.3528 22.9529ZM 0.585754 13.1853L -0.121463 13.8923L -0.12137 13.8924L 0.585754 13.1853ZM 0.585754 10.3572L -0.12137 9.65013L -0.121463 9.65022L 0.585754 10.3572ZM 14.7672 2.0037C 14.7672 -0.668547 11.5357 -2.00707 9.64581 -0.117534L 11.0599 1.29682C 11.69 0.666821 12.7672 1.11345 12.7672 2.0037L 14.7672 2.0037ZM 14.7672 5.43241L 14.7672 2.0037L 12.7672 2.0037L 12.7672 5.43241L 14.7672 5.43241ZM 54.7562 4.43241L 13.7672 4.43241L 13.7672 6.43241L 54.7562 6.43241L 54.7562 4.43241ZM 53.7562 2.0037L 53.7562 5.43241L 55.7562 5.43241L 55.7562 2.0037L 53.7562 2.0037ZM 58.8775 -0.117534C 56.9876 -2.00707 53.7562 -0.668547 53.7562 2.0037L 55.7562 2.0037C 55.7562 1.11345 56.8333 0.666821 57.4634 1.29682L 58.8775 -0.117534ZM 68.6447 9.65013L 58.8776 -0.117448L 57.4633 1.29673L 67.2304 11.0643L 68.6447 9.65013ZM 68.6448 13.8923C 69.8162 12.7206 69.8162 10.822 68.6448 9.65022L 67.2303 11.0642C 67.621 11.455 67.621 12.0876 67.2303 12.4783L 68.6448 13.8923ZM 58.8776 23.66L 68.6447 13.8924L 67.2304 12.4783L 57.4633 22.2458L 58.8776 23.66ZM 53.7562 21.5389C 53.7562 24.2111 56.9876 25.5496 58.8775 23.6601L 57.4634 22.2457C 56.8333 22.8757 55.7562 22.4291 55.7562 21.5389L 53.7562 21.5389ZM 53.7562 17.8172L 53.7562 21.5389L 55.7562 21.5389L 55.7562 17.8172L 53.7562 17.8172ZM 13.7672 18.8172L 54.7562 18.8172L 54.7562 16.8172L 13.7672 16.8172L 13.7672 18.8172ZM 14.7672 21.5389L 14.7672 17.8172L 12.7672 17.8172L 12.7672 21.5389L 14.7672 21.5389ZM 9.64581 23.6601C 11.5357 25.5496 14.7672 24.2111 14.7672 21.5389L 12.7672 21.5389C 12.7672 22.4291 11.69 22.8757 11.0599 22.2457L 9.64581 23.6601ZM -0.12137 13.8924L 9.64572 23.66L 11.06 22.2458L 1.29288 12.4783L -0.12137 13.8924ZM -0.121463 9.65022C -1.29285 10.822 -1.29285 12.7206 -0.121463 13.8923L 1.29297 12.4783C 0.902343 12.0876 0.902343 11.455 1.29297 11.0642L -0.121463 9.65022ZM 9.64572 -0.117448L -0.12137 9.65013L 1.29288 11.0643L 11.06 1.29673L 9.64572 -0.117448Z"/>
</defs>
</svg>
