<svg width="65" height="67" viewBox="0 0 65 67" version="1.1" xmlns="http://www.w3.org/2000/svg" xmlns:xlink="http://www.w3.org/1999/xlink">
<title>boat-anchor copy</title>
<desc>Created using Figma</desc>
<g id="Canvas" transform="translate(-3469 -10018)">
<g id="boat-anchor copy">
<use xlink:href="#path0_fill" transform="translate(3469 10018)" fill="#E8F1FF"/>
<mask id="mask0_outline_ins">
<use xlink:href="#path0_fill" fill="white" transform="translate(3469 10018)"/>
</mask>
<g mask="url(#mask0_outline_ins)">
<use xlink:href="#path1_stroke_2x" transform="translate(3469 10018)" fill="#71A2EA"/>
</g>
</g>
</g>
<defs>
<path id="path0_fill" fill-rule="evenodd" d="M 63.624 37.9859L 54.7284 29.2804C 54.5335 29.0879 54.2644 28.9753 53.9897 28.9753C 53.7132 28.9753 53.4533 29.0806 53.2566 29.2804L 44.3535 37.9859C 43.4478 38.8722 43.1805 40.2344 43.6649 41.3914C 44.1586 42.5466 45.3112 43.3276 46.5936 43.3276L 48.11 43.3276C 46.7254 47.7048 43.4329 51.4155 39.1642 53.3389L 36.9816 15.9706C 39.4611 14.4377 41.113 11.7278 41.113 8.64735C 41.113 3.87233 37.156 0 32.2767 0C 27.4048 0 23.446 3.86688 23.446 8.64008C 23.446 11.7278 25.0978 14.4231 27.5774 15.9561L 25.3966 53.3389C 21.126 51.4155 17.8335 47.7048 16.4415 43.3276L 17.9579 43.3276C 19.2403 43.3276 20.4003 42.5466 20.8866 41.3914C 21.3803 40.2344 21.1112 38.8867 20.2054 37.9986L 11.3023 29.2877C 11.1056 29.0951 10.8383 28.9825 10.5692 28.9825C 10.2871 28.9825 10.0254 29.0879 9.83055 29.2804L 0.927454 37.9859C 0.0217395 38.8722 -0.247376 40.2344 0.238888 41.3914C 0.732577 42.5466 1.88514 43.3276 3.16761 43.3276L 4.36471 43.3276C 6.66983 56.3049 18.2845 66.3654 32.2767 66.3654C 46.2689 66.3654 57.8891 56.3049 60.1886 43.3276L 61.3839 43.3276C 62.6682 43.3276 63.8282 42.5466 64.3126 41.3914C 64.8063 40.2344 64.5372 38.8722 63.624 37.9859Z"/>
<path id="path1_stroke_2x" d="M 63.624 37.9859L 62.9246 38.7006L 62.9275 38.7034L 63.624 37.9859ZM 54.7284 29.2804L 54.0256 29.9918L 54.0289 29.9951L 54.7284 29.2804ZM 53.2566 29.2804L 53.9557 29.9954L 53.9625 29.9888L 53.9691 29.982L 53.2566 29.2804ZM 44.3535 37.9859L 43.6544 37.2709L 43.6541 37.2712L 44.3535 37.9859ZM 43.6649 41.3914L 42.7425 41.7776L 42.7454 41.7844L 43.6649 41.3914ZM 48.11 43.3276L 49.0634 43.6291L 49.4751 42.3276L 48.11 42.3276L 48.11 43.3276ZM 39.1642 53.3389L 38.1659 53.3973L 38.2506 54.8474L 39.575 54.2507L 39.1642 53.3389ZM 36.9816 15.9706L 36.4557 15.12L 35.9485 15.4336L 35.9833 16.0289L 36.9816 15.9706ZM 27.5774 15.9561L 28.5757 16.0143L 28.6104 15.4191L 28.1032 15.1055L 27.5774 15.9561ZM 25.3966 53.3389L 24.9859 54.2507L 26.3103 54.8472L 26.3949 53.3972L 25.3966 53.3389ZM 16.4415 43.3276L 16.4415 42.3276L 15.0742 42.3276L 15.4885 43.6306L 16.4415 43.3276ZM 20.8866 41.3914L 19.9668 40.9989L 19.9649 41.0034L 20.8866 41.3914ZM 20.2054 37.9986L 20.9056 37.2846L 20.9048 37.2838L 20.2054 37.9986ZM 11.3023 29.2877L 10.6029 30.0024L 10.603 30.0024L 11.3023 29.2877ZM 9.83055 29.2804L 10.5297 29.9954L 10.5334 29.9918L 9.83055 29.2804ZM 0.927454 37.9859L 0.228327 37.2709L 0.228029 37.2712L 0.927454 37.9859ZM 0.238888 41.3914L -0.683015 41.7789L -0.680654 41.7844L 0.238888 41.3914ZM 4.36471 43.3276L 5.3493 43.1527L 5.20274 42.3276L 4.36471 42.3276L 4.36471 43.3276ZM 60.1886 43.3276L 60.1886 42.3276L 59.3503 42.3276L 59.204 43.1531L 60.1886 43.3276ZM 64.3126 41.3914L 63.3928 40.9989L 63.3904 41.0047L 64.3126 41.3914ZM 64.3235 37.2712L 55.4278 28.5657L 54.0289 29.9951L 62.9246 38.7006L 64.3235 37.2712ZM 55.4312 28.569C 55.0525 28.1949 54.5322 27.9753 53.9897 27.9753L 53.9897 29.9753C 53.9908 29.9753 53.9969 29.9756 54.006 29.9794C 54.0152 29.9832 54.022 29.9882 54.0256 29.9918L 55.4312 28.569ZM 53.9897 27.9753C 53.4519 27.9753 52.9333 28.1834 52.544 28.5788L 53.9691 29.982C 53.9718 29.9793 53.9735 29.9781 53.9741 29.9777C 53.9747 29.9773 53.975 29.9771 53.9753 29.977C 53.9755 29.9769 53.9765 29.9766 53.9785 29.9762C 53.9805 29.9758 53.9841 29.9753 53.9897 29.9753L 53.9897 27.9753ZM 52.5575 28.5654L 43.6544 37.2709L 45.0526 38.7009L 53.9557 29.9954L 52.5575 28.5654ZM 43.6541 37.2712C 42.4532 38.4464 42.1011 40.2456 42.7425 41.7776L 44.5873 41.0052C 44.2599 40.2232 44.4424 39.2981 45.0529 38.7006L 43.6541 37.2712ZM 42.7454 41.7844C 43.394 43.302 44.9045 44.3276 46.5936 44.3276L 46.5936 42.3276C 45.7178 42.3276 44.9233 41.7912 44.5845 40.9984L 42.7454 41.7844ZM 46.5936 44.3276L 48.11 44.3276L 48.11 42.3276L 46.5936 42.3276L 46.5936 44.3276ZM 47.1565 43.026C 45.8584 47.13 42.7645 50.6198 38.7534 52.4272L 39.575 54.2507C 44.1013 52.2112 47.5924 48.2797 49.0634 43.6291L 47.1565 43.026ZM 40.1625 53.2806L 37.9799 15.9123L 35.9833 16.0289L 38.1659 53.3973L 40.1625 53.2806ZM 37.5074 16.8212C 40.2629 15.1177 42.113 12.0959 42.113 8.64735L 40.113 8.64735C 40.113 11.3596 38.6594 13.7577 36.4557 15.12L 37.5074 16.8212ZM 42.113 8.64735C 42.113 3.29978 37.6878 -1 32.2767 -1L 32.2767 1C 36.6242 1 40.113 4.44488 40.113 8.64735L 42.113 8.64735ZM 32.2767 -1C 26.8736 -1 22.446 3.29365 22.446 8.64008L 24.446 8.64008C 24.446 4.4401 27.9359 1 32.2767 1L 32.2767 -1ZM 22.446 8.64008C 22.446 12.0973 24.2973 15.1039 27.0515 16.8067L 28.1032 15.1055C 25.8983 13.7423 24.446 11.3582 24.446 8.64008L 22.446 8.64008ZM 26.5791 15.8979L 24.3983 53.2807L 26.3949 53.3972L 28.5757 16.0143L 26.5791 15.8979ZM 25.8073 52.4272C 21.7945 50.6198 18.7 47.1297 17.3945 43.0245L 15.4885 43.6306C 16.967 48.2799 20.4575 52.2112 24.9859 54.2507L 25.8073 52.4272ZM 16.4415 44.3276L 17.9579 44.3276L 17.9579 42.3276L 16.4415 42.3276L 16.4415 44.3276ZM 17.9579 44.3276C 19.6433 44.3276 21.1661 43.3049 21.8082 41.7794L 19.9649 41.0034C 19.6345 41.7883 18.8374 42.3276 17.9579 42.3276L 17.9579 44.3276ZM 21.8063 41.7839C 22.4629 40.2452 22.1032 38.459 20.9056 37.2846L 19.5053 38.7126C 20.1191 39.3145 20.2976 40.2236 19.9668 40.9989L 21.8063 41.7839ZM 20.9048 37.2838L 12.0017 28.5729L 10.603 30.0024L 19.5061 38.7134L 20.9048 37.2838ZM 12.0018 28.5729C 11.6268 28.206 11.1116 27.9825 10.5692 27.9825L 10.5692 29.9825C 10.5648 29.9825 10.5683 29.9818 10.5776 29.9857C 10.5869 29.9896 10.5961 29.9957 10.6029 30.0024L 12.0018 28.5729ZM 10.5692 27.9825C 10.0335 27.9825 9.51643 28.185 9.12775 28.569L 10.5334 29.9918C 10.5358 29.9894 10.5378 29.988 10.541 29.9867C 10.5444 29.9854 10.5532 29.9825 10.5692 29.9825L 10.5692 27.9825ZM 9.13143 28.5654L 0.228327 37.2709L 1.62658 38.7009L 10.5297 29.9954L 9.13143 28.5654ZM 0.228029 37.2712C -0.971998 38.4455 -1.32765 40.245 -0.682999 41.7789L 1.16078 41.0039C 0.832894 40.2238 1.01548 39.2989 1.62688 38.7006L 0.228029 37.2712ZM -0.680654 41.7844C -0.0320815 43.302 1.4785 44.3276 3.16761 44.3276L 3.16761 42.3276C 2.29177 42.3276 1.49724 41.7912 1.15843 40.9984L -0.680654 41.7844ZM 3.16761 44.3276L 4.36471 44.3276L 4.36471 42.3276L 3.16761 42.3276L 3.16761 44.3276ZM 3.38013 43.5024C 5.77015 56.9578 17.8004 67.3654 32.2767 67.3654L 32.2767 65.3654C 18.7686 65.3654 7.56951 55.652 5.3493 43.1527L 3.38013 43.5024ZM 32.2767 67.3654C 46.7527 67.3654 58.7889 56.9581 61.1733 43.502L 59.204 43.1531C 56.9893 55.6518 45.785 65.3654 32.2767 65.3654L 32.2767 67.3654ZM 60.1886 44.3276L 61.3839 44.3276L 61.3839 42.3276L 60.1886 42.3276L 60.1886 44.3276ZM 61.3839 44.3276C 63.0706 44.3276 64.5944 43.3053 65.2348 41.7781L 63.3904 41.0047C 63.062 41.7878 62.2659 42.3276 61.3839 42.3276L 61.3839 44.3276ZM 65.2324 41.7839C 65.8883 40.2467 65.5309 38.4431 64.3205 37.2683L 62.9275 38.7034C 63.5435 39.3013 63.7243 40.2221 63.3928 40.9989L 65.2324 41.7839Z"/>
</defs>
</svg>
