<svg width="119" height="153" viewBox="0 0 119 153" version="1.1" xmlns="http://www.w3.org/2000/svg" xmlns:xlink="http://www.w3.org/1999/xlink">
<title>Group 13</title>
<desc>Created using Figma</desc>
<g id="Canvas" transform="translate(-3373 -9756)">
<g id="Group 13">
<g id="Group 4">
<g id="Fill 1">
<use xlink:href="#path0_fill" transform="translate(3381.33 9767.12)" fill="url(#paint0_linear)"/>
</g>
<g id="Fill 1 Copy 6" opacity="0.4">
<use xlink:href="#path1_stroke" transform="translate(3429.34 9763)" fill="#FFFFFF"/>
</g>
<g id="Fill 1 Copy 9" opacity="0.4">
<use xlink:href="#path2_stroke" transform="translate(3402 9863)" fill="#FFFFFF"/>
</g>
<g id="Fill 1 Copy 8" opacity="0.4">
<use xlink:href="#path3_stroke" transform="matrix(-1 0 0 1 3406.05 9825.52)" fill="#FFFFFF"/>
</g>
<g id="Fill 3">
<use xlink:href="#path4_fill" transform="translate(3432.19 9767.92)" fill="#74E1F6"/>
</g>
<g id="Fill 3 Copy 2" opacity="0.3">
<use xlink:href="#path5_fill" transform="translate(3432.19 9797.44)" fill="#FFFFFF"/>
</g>
</g>
<g id="Fill 5">
<use xlink:href="#path6_fill" transform="translate(3378.49 9878.51)" fill="url(#paint6_linear)"/>
</g>
<g id="Fill 5 Copy" opacity="0.2">
<use xlink:href="#path7_stroke" transform="matrix(-1 0 0 1 3484.8 9881.16)" fill="#FFFFFF"/>
</g>
<g id="Fill 5 Copy 2" opacity="0.2">
<use xlink:href="#path8_stroke" transform="matrix(-1 0 0 1 3435.89 9882.88)" fill="#FFFFFF"/>
</g>
<g id="Fill 5 Copy 3" opacity="0.2">
<use xlink:href="#path9_stroke" transform="translate(3461.44 9887.15)" fill="#FFFFFF"/>
</g>
</g>
</g>
<defs>
<linearGradient id="paint0_linear" x1="0" y1="0" x2="1" y2="0" gradientUnits="userSpaceOnUse" gradientTransform="matrix(0 99.057 -104.092 0 52.0461 0)">
<stop offset="0" stop-color="#D7F8FF"/>
<stop offset="1" stop-color="#95E7FF"/>
</linearGradient>
<linearGradient id="paint6_linear" x1="0" y1="0" x2="1" y2="0" gradientUnits="userSpaceOnUse" gradientTransform="matrix(-13.2195 -61.908 259.876 -3.14917 50.2832 41.4855)">
<stop offset="0" stop-color="#62A0FC"/>
<stop offset="1" stop-color="#7CFFF3"/>
</linearGradient>
<path id="path0_fill" fill-rule="evenodd" d="M 4.89662 99.057C 1.74681 99.057 -0.195926 95.6118 1.46605 92.9361C 12.5689 75.0614 44.5633 22.7677 53.2178 0C 61.8761 22.7774 93.4674 75.1062 104.406 92.9591C 106.045 95.6352 104.101 99.057 100.962 99.057L 4.89662 99.057Z"/>
<path id="path1_stroke" d="M 5.60847 -2.13192C 4.43104 -5.22939 0.965555 -6.78589 -2.13192 -5.60847C -5.22939 -4.43104 -6.78589 -0.965555 -5.60847 2.13192L 5.60847 -2.13192ZM 25.4581 50.3839L 20.2412 53.3477L 25.4581 50.3839ZM 51.6048 94.464L 46.4643 97.5583L 51.6048 94.464ZM 15.6715 94.5301C 12.3577 94.5301 9.67145 97.2163 9.67145 100.53C 9.67145 103.844 12.3577 106.53 15.6715 106.53L 15.6715 94.5301ZM -5.60847 2.13192C -1.22142 13.6499 7.46635 30.858 20.2412 53.3477L 30.675 47.4201C 18.0416 25.1866 9.75727 8.80549 5.60847 -2.13192L -5.60847 2.13192ZM 20.2412 53.3477C 26.0429 63.5588 39.8557 86.5794 46.4643 97.5583L 56.7454 91.3697C 50.1411 80.3979 36.4053 57.5075 30.675 47.4201L 20.2412 53.3477ZM 48.1718 94.5301L 15.6715 94.5301L 15.6715 106.53L 48.1718 106.53L 48.1718 94.5301ZM 46.4643 97.5583C 45.6577 96.2183 46.6297 94.5301 48.1718 94.5301L 48.1718 106.53C 55.9429 106.53 60.7644 98.0466 56.7454 91.3697L 46.4643 97.5583Z"/>
<path id="path2_stroke" d="M 18.902 6.52985C 22.2157 6.52985 24.902 3.84356 24.902 0.529851C 24.902 -2.78386 22.2157 -5.47015 18.902 -5.47015L 18.902 6.52985ZM 0 -5.47015C -3.31371 -5.47015 -6 -2.78386 -6 0.529851C -6 3.84356 -3.31371 6.52985 0 6.52985L 0 -5.47015ZM 18.902 -5.47015L 0 -5.47015L 0 6.52985L 18.902 6.52985L 18.902 -5.47015Z"/>
<path id="path3_stroke" d="M 5.21687 -2.96383C 3.57999 -5.84502 -0.0826279 -6.85375 -2.96383 -5.21687C -5.84502 -3.57999 -6.85375 0.0826279 -5.21687 2.96383L 5.21687 -2.96383ZM 17.2948 41.1081C 19.0049 43.9465 22.6921 44.8612 25.5305 43.1512C 28.3688 41.4411 29.2836 37.7539 27.5735 34.9155L 17.2948 41.1081ZM -5.21687 2.96383C -1.33155 9.80228 4.30744 19.3572 8.95626 27.1705C 11.2817 31.0788 13.3672 34.5647 14.8687 37.069C 15.6199 38.322 16.2266 39.3321 16.6446 40.0273C 16.8538 40.3753 17.0164 40.6456 17.1263 40.8282C 17.1813 40.9197 17.2235 40.9897 17.2517 41.0365C 17.2658 41.06 17.2766 41.0779 17.2838 41.0898C 17.2874 41.0958 17.2901 41.1004 17.292 41.1034C 17.2929 41.1049 17.2936 41.1061 17.2941 41.1069C 17.2943 41.1073 17.2945 41.1076 17.2946 41.1078C 17.2947 41.108 17.2948 41.1081 22.4342 38.0118C 27.5735 34.9155 27.5735 34.9155 27.5734 34.9153C 27.5733 34.9152 27.5731 34.9149 27.5729 34.9146C 27.5725 34.9138 27.5719 34.9128 27.571 34.9114C 27.5692 34.9084 27.5667 34.9042 27.5632 34.8984C 27.5561 34.8867 27.5457 34.8693 27.5318 34.8462C 27.5038 34.7998 27.4624 34.731 27.4078 34.6403C 27.2984 34.4586 27.1374 34.1909 26.9292 33.8446C 26.5124 33.1512 25.9093 32.1472 25.1606 30.8984C 23.6621 28.399 21.5869 24.9304 19.2689 21.0345C 14.631 13.2396 9.05286 3.78863 5.21687 -2.96383L -5.21687 2.96383Z"/>
<path id="path4_fill" fill-rule="evenodd" d="M 0 111.086L 4.89973 111.086L 4.89973 2.44987C 4.89973 1.09684 3.80289 0 2.44987 0L 2.44987 0C 1.09684 0 0 1.09684 0 2.44987L 0 111.086Z"/>
<path id="path5_fill" fill-rule="evenodd" d="M 0 52.6228C 0 53.9758 1.09684 55.0727 2.44987 55.0727L 2.44987 55.0727C 3.80289 55.0727 4.89973 53.9758 4.89973 52.6228L 4.89973 2.44987C 4.89973 1.09684 3.80289 0 2.44987 0L 2.44987 0C 1.09684 0 0 1.09684 0 2.44987L 0 52.6228Z"/>
<path id="path6_fill" fill-rule="evenodd" d="M 32.4456 26.4926C 22.7076 26.4926 13.5754 21.766 7.95236 13.8154L 2.64403 6.3098C 0.770312 3.66049 2.66486 9.43006e-05 5.9098 9.43006e-05L 109.119 9.43006e-05C 112.364 9.43006e-05 114.259 3.66049 112.385 6.3098L 107.077 13.8154C 101.454 21.766 92.3216 26.4926 82.5836 26.4926L 32.4456 26.4926Z"/>
<path id="path7_stroke" d="M 0 -4.97015C -3.03757 -4.97015 -5.5 -2.50772 -5.5 0.529851C -5.5 3.56742 -3.03757 6.02985 0 6.02985L 0 -4.97015ZM 64.0409 6.02985C 67.0784 6.02985 69.5409 3.56742 69.5409 0.529851C 69.5409 -2.50772 67.0784 -4.97015 64.0409 -4.97015L 64.0409 6.02985ZM 0 6.02985L 64.0409 6.02985L 64.0409 -4.97015L 0 -4.97015L 0 6.02985Z"/>
<path id="path8_stroke" d="M 61.8763 -3.32093C 63.6303 -5.80093 63.0417 -9.23324 60.5617 -10.9872C 58.0817 -12.7412 54.6494 -12.1526 52.8954 -9.67263L 61.8763 -3.32093ZM 0 14.4958C -3.03757 14.4958 -5.5 16.9582 -5.5 19.9958C -5.5 23.0333 -3.03757 25.4958 0 25.4958L 0 14.4958ZM 52.8954 -9.67263L 43.1246 4.14271L 52.1055 10.4944L 61.8763 -3.32093L 52.8954 -9.67263ZM 23.1217 14.4958L 0 14.4958L 0 25.4958L 23.1217 25.4958L 23.1217 14.4958ZM 43.1246 4.14271C 38.5325 10.6357 31.0745 14.4958 23.1217 14.4958L 23.1217 25.4958C 34.6451 25.4958 45.4516 19.9026 52.1055 10.4944L 43.1246 4.14271Z"/>
<path id="path9_stroke" d="M 0 10.2283C -3.03757 10.2283 -5.5 12.6907 -5.5 15.7283C -5.5 18.7658 -3.03757 21.2283 0 21.2283L 0 10.2283ZM 4.364 10.2283L 0 10.2283L 0 21.2283L 4.364 21.2283L 4.364 10.2283ZM 14.5319 4.96559C 12.1976 8.26611 8.40656 10.2283 4.364 10.2283L 4.364 21.2283C 11.9772 21.2283 19.1167 17.533 23.5128 11.3173L 14.5319 4.96559Z"/>
</defs>
</svg>
