<svg width="153" height="115" viewBox="0 0 153 115" version="1.1" xmlns="http://www.w3.org/2000/svg" xmlns:xlink="http://www.w3.org/1999/xlink">
<title>Group 10</title>
<desc>Created using Figma</desc>
<g id="Canvas" transform="translate(-3131 -9788)">
<g id="Group 10">
<g id="captain-3 copy">
<g id="Group 9">
<mask id="mask0_outline" mask-type="alpha">
<g id="Fill 1">
<use xlink:href="#path0_fill" transform="translate(3134.35 9792.4)" fill="#FFFFFF"/>
</g>
</mask>
<g id="Fill 1" mask="url(#mask0_outline)">
<use xlink:href="#path0_fill" transform="translate(3134.35 9792.4)" fill="url(#paint1_linear)"/>
</g>
<g id="Fill 1 Copy 5" opacity="0.7" mask="url(#mask0_outline)">
<use xlink:href="#path0_fill" transform="translate(3134.54 9805.37)" fill="url(#paint2_linear)"/>
</g>
</g>
<g id="Fill 2">
<use xlink:href="#path1_fill" transform="translate(3145.73 9840.19)" fill="url(#paint3_linear)"/>
</g>
</g>
<g id="Fill 2 Copy" opacity="0.2">
<use xlink:href="#path2_stroke" transform="translate(3149.89 9837.45)" fill="#FFFFFF"/>
</g>
<g id="Fill 3" opacity="0.2">
<use xlink:href="#path3_stroke" transform="translate(3205.35 9872.73)" fill="#FFFFFF"/>
</g>
<g id="Fill 3 Copy" opacity="0.2">
<use xlink:href="#path4_stroke" transform="matrix(-1 0 0 1 3171.25 9872.73)" fill="#FFFFFF"/>
</g>
<g id="Fill 1 Copy 4" opacity="0.2">
<use xlink:href="#path5_stroke" transform="translate(3136.95 9799)" fill="#FFFFFF"/>
</g>
<g id="Fill 1 Copy 2" opacity="0.1">
<use xlink:href="#path6_stroke" transform="matrix(-1 0 0 1 3278.16 9821.51)" fill="#FFFFFF"/>
</g>
<g id="Fill 1 Copy 3" opacity="0.2">
<use xlink:href="#path7_stroke" transform="matrix(-1 0 0 1 3252.71 9794.14)" fill="#FFFFFF"/>
</g>
<g id="Oval 5">
<use xlink:href="#path8_fill" transform="translate(3189.8 9797.88)" fill="url(#paint10_linear)"/>
</g>
<g id="Oval 5 Copy" opacity="0.2">
<use xlink:href="#path9_stroke" transform="translate(3194.52 9800.96)" fill="#FFFFFF"/>
</g>
<g id="Oval 5 Copy 2" opacity="0.1">
<use xlink:href="#path10_stroke" transform="matrix(1 0 0 -1 3196.04 9830.92)" fill="#FFFFFF"/>
</g>
<g id="Fill 1">
<use xlink:href="#path11_fill" transform="translate(3199.88 9805.37)" fill="#FFFFFF"/>
</g>
</g>
</g>
<defs>
<linearGradient id="paint1_linear" x1="0" y1="0" x2="1" y2="0" gradientUnits="userSpaceOnUse" gradientTransform="matrix(0 125.472 -207.707 0 73.0759 -37.1843)">
<stop offset="0" stop-color="#73B9F5"/>
<stop offset="1" stop-color="#3F83E7"/>
</linearGradient>
<linearGradient id="paint2_linear" x1="0" y1="0" x2="1" y2="0" gradientUnits="userSpaceOnUse" gradientTransform="matrix(0 125.472 -207.707 0 73.0759 -37.1843)">
<stop offset="0" stop-color="#73B9F5"/>
<stop offset="1" stop-color="#3F83E7"/>
</linearGradient>
<linearGradient id="paint3_linear" x1="0" y1="0" x2="1" y2="0" gradientUnits="userSpaceOnUse" gradientTransform="matrix(-4.22439 -126.371 262.2 -2.036 33.6261 90.0333)">
<stop offset="0" stop-color="#62A0FC"/>
<stop offset="1" stop-color="#7CFFF3"/>
</linearGradient>
<linearGradient id="paint10_linear" x1="0" y1="0" x2="1" y2="0" gradientUnits="userSpaceOnUse" gradientTransform="matrix(-1.23068 -76.1236 76.386 -1.22645 9.79619 54.2346)">
<stop offset="0" stop-color="#62A0FC"/>
<stop offset="1" stop-color="#7CFFF3"/>
</linearGradient>
<path id="path0_fill" fill-rule="evenodd" d="M 146.152 44.145C 146.152 68.5241 113.435 88.2881 73.0761 88.2881C 32.7172 88.2881 0 68.5241 0 44.145C 0 19.7644 32.7172 0 73.0761 0C 113.435 0 146.152 19.7644 146.152 44.145Z"/>
<path id="path1_fill" fill-rule="evenodd" d="M 123.385 17.1475L 123.385 22.6191C 123.385 23.6064 123.324 24.5781 123.209 25.5391C 122.807 28.876 121.716 32.0508 120.03 35.0244C 111.688 49.7178 88.7219 59.4668 61.6924 59.4668C 34.8601 59.4668 12.0327 49.6338 3.54199 35.0244C 1.81177 32.0459 0.67627 28.8701 0.224854 25.5391C 0.0783691 24.46 0 23.3652 0 22.2549L 0 17.1475C 0 7.67676 27.6204 0 61.6921 0C 95.7637 0 123.385 7.67676 123.385 17.1475Z"/>
<path id="path2_stroke" d="M 108.881 13.6392C 111.608 14.9759 114.903 13.8485 116.24 11.1209C 117.577 8.39326 116.449 5.09842 113.722 3.76163L 108.881 13.6392ZM -3.22185 6.53679C -5.68368 8.31617 -6.23692 11.7544 -4.45754 14.2162C -2.67816 16.678 0.760017 17.2313 3.22185 15.4519L -3.22185 6.53679ZM 113.722 3.76163C 101.996 -1.98527 80.9157 -5.5 57.6013 -5.5L 57.6013 5.5C 80.3314 5.5 99.4057 8.99552 108.881 13.6392L 113.722 3.76163ZM 57.6013 -5.5C 44.2097 -5.494 31.5083 -4.3032 21.2365 -2.31332C 11.0344 -0.330159 2.22715 2.59833 -3.22185 6.53679L 3.22185 15.4519C 6.67007 12.9595 13.5287 10.3909 23.3355 8.48456C 33.0727 6.58497 44.7234 5.494 57.6013 5.5L 57.6013 -5.5Z"/>
<path id="path3_stroke" d="M 0 18.9426C -3.03757 18.9426 -5.5 21.405 -5.5 24.4426C -5.5 27.4802 -3.03757 29.9426 0 29.9426L 0 18.9426ZM 63.1202 2.71522C 64.6198 0.073618 63.694 -3.28347 61.0524 -4.78305C 58.4108 -6.28263 55.0537 -5.35683 53.5542 -2.71522L 63.1202 2.71522ZM 0 29.9426C 27.7946 29.9426 53.3225 19.9747 63.1202 2.71522L 53.5542 -2.71522C 46.6698 9.41196 26.2645 18.9426 0 18.9426L 0 29.9426Z"/>
<path id="path4_stroke" d="M -2.29947 11.8207C -5.05882 13.0907 -6.2662 16.3571 -4.99624 19.1164C -3.72628 21.8758 -0.459884 23.0832 2.29947 21.8132L -2.29947 11.8207ZM 24.8657 2.71522C 26.3653 0.0736179 25.4395 -3.28347 22.7979 -4.78305C 20.1563 -6.28263 16.7992 -5.35683 15.2996 -2.71522L 24.8657 2.71522ZM 2.29947 21.8132C 12.131 17.2884 20.2442 10.8563 24.8657 2.71522L 15.2996 -2.71522C 12.1578 2.81926 6.17291 7.92139 -2.29947 11.8207L 2.29947 21.8132Z"/>
<path id="path5_stroke" d="M 2.41609 60.1522C 4.26867 62.5595 7.72192 63.0091 10.1292 61.1565C 12.5364 59.304 12.986 55.8507 11.1335 53.4435L 2.41609 60.1522ZM 38.2757 5.19042C 41.1423 4.1857 42.6516 1.04739 41.6469 -1.8192C 40.6422 -4.6858 37.5038 -6.19514 34.6373 -5.19042L 38.2757 5.19042ZM 11.1335 53.4435C 7.22217 48.4545 5.40723 43.8449 5.5 38.2106L -5.5 38.2106C -5.40723 45.8567 -2.36787 53.8426 2.41609 60.1522L 11.1335 53.4435ZM 5.5 38.2106C 5.5 25.4672 17.224 12.5689 38.2757 5.19042L 34.6373 -5.19042C 12.0939 2.71087 -5.5 18.315 -5.5 38.2106L 5.5 38.2106Z"/>
<path id="path6_stroke" d="M -5.5 16.7685C -5.5 19.806 -3.03757 22.2685 0 22.2685C 3.03757 22.2685 5.5 19.806 5.5 16.7685L -5.5 16.7685ZM 1.03829 9.31118L 6.33234 10.8022L 1.03829 9.31118ZM 3.77967 2.71726L 8.58784 5.38775L 3.77967 2.71726ZM 10.004 3.0935C 11.7125 0.581949 11.0615 -2.83907 8.54992 -4.54756C 6.03837 -6.25605 2.61735 -5.60504 0.908863 -3.0935L 10.004 3.0935ZM 5.5 16.7685C 5.48619 14.6163 5.73686 12.8718 6.33234 10.8022L -4.25576 7.8202C -5.02573 10.5988 -5.48619 13.8373 -5.5 16.7685L 5.5 16.7685ZM 6.33234 10.8022C 6.86869 8.86017 7.5452 7.24764 8.58784 5.38775L -1.0285 0.0467777C -2.35201 2.4471 -3.51846 5.2398 -4.25576 7.8202L 6.33234 10.8022ZM 8.58784 5.38775C 9.03564 4.57847 9.46473 3.88383 10.004 3.0935L 0.908863 -3.0935C 0.23523 -2.10085 -0.454754 -0.983226 -1.0285 0.0467778L 8.58784 5.38775Z"/>
<path id="path7_stroke" d="M -2.5355 5.77979C -5.23103 7.1801 -6.28102 10.5004 -4.8807 13.196C -3.48039 15.8915 -0.160041 16.9415 2.5355 15.5412L -2.5355 5.77979ZM 11.5727 5.73678L 13.3583 10.9388L 11.5727 5.73678ZM 47.6227 5.5C 50.6603 5.5 53.1227 3.03757 53.1227 0C 53.1227 -3.03757 50.6603 -5.5 47.6227 -5.5L 47.6227 5.5ZM 2.5355 15.5412C 5.92145 13.7777 9.42038 12.2868 13.3583 10.9388L 9.78699 0.534725C 5.47559 2.01847 1.226 3.83021 -2.5355 5.77979L 2.5355 15.5412ZM 13.3583 10.9388C 23.5671 7.41531 34.9745 5.48063 47.6227 5.5L 47.6227 -5.5C 34.0521 -5.48063 20.8533 -3.24469 9.78699 0.534725L 13.3583 10.9388Z"/>
<path id="path8_fill" fill-rule="evenodd" d="M 17.9726 35.8218C 27.8986 35.8218 35.9453 27.8028 35.9453 17.9109C 35.9453 8.01898 27.8986 0 17.9726 0C 8.04662 0 0 8.01898 0 17.9109C 0 27.8028 8.04662 35.8218 17.9726 35.8218Z"/>
<path id="path9_stroke" d="M 21.4142 9.7959C 22.7172 12.5398 25.9979 13.7078 28.7418 12.4048C 31.4857 11.1018 32.6537 7.82109 31.3507 5.0772L 21.4142 9.7959ZM -5.03068 5.47497C -6.25848 8.25333 -5.0015 11.501 -2.22313 12.7288C 0.555235 13.9566 3.80287 12.6996 5.03068 9.92123L -5.03068 5.47497ZM 31.3507 5.0772C 28.2256 -1.50351 20.9758 -5.5 13.2512 -5.5L 13.2512 5.5C 17.453 5.5 20.4024 7.66528 21.4142 9.7959L 31.3507 5.0772ZM 13.2512 -5.5C 5.38248 -5.5 -2.01685 -1.34495 -5.03068 5.47497L 5.03068 9.92123C 5.98823 7.7544 8.95606 5.5 13.2512 5.5L 13.2512 -5.5Z"/>
<path id="path10_stroke" d="M 18.7966 8.86758C 20.698 11.2364 24.1598 11.6153 26.5286 9.71385C 28.8974 7.81241 29.2763 4.35067 27.3749 1.98185L 18.7966 8.86758ZM -4.4605 2.8003C -6.23762 5.26376 -5.68122 8.70143 -3.21776 10.4785C -0.75429 12.2557 2.68338 11.6993 4.4605 9.23581L -4.4605 2.8003ZM 27.3749 1.98185C 23.719 -2.5727 18.0823 -5.5 11.7687 -5.5L 11.7687 5.5C 14.6143 5.5 17.144 6.80872 18.7966 8.86758L 27.3749 1.98185ZM 11.7687 -5.5C 5.08377 -5.5 -0.839079 -2.21977 -4.4605 2.8003L 4.4605 9.23581C 6.09736 6.96676 8.75782 5.5 11.7687 5.5L 11.7687 -5.5Z"/>
<path id="path11_fill" fill-rule="evenodd" d="M 6.23944 20.8368C 2.96371 20.8368 0.635423 18.5179 0.0284485 16.2272C -0.0925575 15.7703 0.183595 15.3029 0.645363 15.1832C 1.10727 15.0635 1.57963 15.3367 1.70064 15.7935C 2.12877 17.4093 3.86499 19.1267 6.23944 19.1267C 8.34639 19.1267 9.80033 17.8431 10.461 16.5899C 9.82302 16.5225 8.98383 16.366 8.0716 15.9873C 7.24905 15.6458 6.71345 15.1998 6.24088 14.8062C 5.7892 14.43 5.3991 14.1051 4.76389 13.8414C 3.62197 13.3674 2.31921 13.1196 1.54081 12.9715C 0.859284 12.8419 0.604235 12.7934 0.380734 12.4785C 0.314109 12.3851 0.0014382 11.8838 0.499868 11.3462C 1.20934 10.5808 10.1691 0.550125 10.2595 0.448868L 10.2876 0.418939C 10.6795 0.0203221 11.227 -0.105092 11.7161 0.0913664C 12.2005 0.285972 12.5135 0.767391 12.5135 1.31779L 12.5179 11.9809C 12.5181 12.4532 12.1314 12.8361 11.654 12.8364L 11.6536 12.8364C 11.1764 12.8364 10.7895 12.4538 10.7893 11.9816L 10.7852 2.44281C 9.00911 4.43076 4.67306 9.28236 2.71493 11.4608C 3.50334 11.6286 4.50826 11.8806 5.43273 12.2644C 6.31082 12.6289 6.86514 13.0906 7.35421 13.4979C 7.78695 13.8583 8.16077 14.1697 8.74052 14.4103C 9.9173 14.8988 10.9749 14.9239 11.4266 14.9345C 11.7319 14.9418 12.0477 14.9493 12.3108 15.2491L 12.3173 15.2566C 12.4725 15.4335 12.5449 15.6671 12.5168 15.8998L 12.5062 15.9867C 12.2629 17.1565 11.5431 18.3375 10.5316 19.227C 9.69632 19.9614 8.27364 20.8368 6.23944 20.8368"/>
</defs>
</svg>
