<svg width="109" height="120" viewBox="0 0 109 120" version="1.1" xmlns="http://www.w3.org/2000/svg" xmlns:xlink="http://www.w3.org/1999/xlink">
<title>Group 10</title>
<desc>Created using Figma</desc>
<g id="Canvas" transform="translate(-3600 -9774)">
<g id="Group 10">
<g id="letter">
<g id="Fill 2">
<use xlink:href="#path0_fill" transform="translate(3600.32 9819.83)" fill="url(#paint0_linear)"/>
</g>
<g id="Fill 3">
<use xlink:href="#path1_fill" transform="translate(3600.32 9770.56)" fill="url(#paint1_linear)"/>
</g>
<g id="Fill 4">
<use xlink:href="#path2_fill" transform="translate(3612.9 9785.07)" fill="#E2EEFF"/>
</g>
<g id="Fill 11">
<use xlink:href="#path3_fill" transform="translate(3600.32 9861.12)" fill="url(#paint3_linear)"/>
</g>
<g id="Fill 11 Copy" opacity="0.1">
<use xlink:href="#path4_stroke" transform="translate(3616.52 9865.5)" fill="#FFFFFF"/>
</g>
</g>
<g id="Path 2" opacity="0.2">
<use xlink:href="#path5_stroke" transform="translate(3676 9839.08)" fill="#FFFFFF"/>
</g>
<g id="Path 2 Copy" opacity="0.1">
<use xlink:href="#path6_stroke" transform="matrix(-1 0 0 -1 3634.5 9879.64)" fill="#FFFFFF"/>
</g>
<g id="5%">
<use xlink:href="#path7_fill" transform="translate(3637 9805)" fill="#54A9ED"/>
</g>
</g>
</g>
<defs>
<linearGradient id="paint0_linear" x1="0" y1="0" x2="1" y2="0" gradientUnits="userSpaceOnUse" gradientTransform="matrix(-12.8982 -173.072 253.559 -8.8039 49.0609 115.978)">
<stop offset="0" stop-color="#62A0FC"/>
<stop offset="1" stop-color="#7CFFF3"/>
</linearGradient>
<linearGradient id="paint1_linear" x1="0" y1="0" x2="1" y2="0" gradientUnits="userSpaceOnUse" gradientTransform="matrix(0 112.238 -128.09 0 54.2533 -17.1598)">
<stop offset="0" stop-color="#74E1F6"/>
<stop offset="1" stop-color="#3F83E7"/>
</linearGradient>
<linearGradient id="paint3_linear" x1="0" y1="0" x2="1" y2="0" gradientUnits="userSpaceOnUse" gradientTransform="matrix(-12.8982 -76.7993 253.559 -3.90667 49.0609 51.4644)">
<stop offset="0" stop-color="#62A0FC"/>
<stop offset="1" stop-color="#7CFFF3"/>
</linearGradient>
<path id="path0_fill" fill-rule="evenodd" d="M 0 74.0632L 108.507 74.0632L 108.507 0L 0 0L 0 74.0632Z"/>
<path id="path1_fill" fill-rule="evenodd" d="M 63.7546 7.91581C 58.3902 2.95887 50.1164 2.95887 44.752 7.91581L 0 49.2686L 54.2526 99.2758L 108.507 49.2686L 63.7546 7.91581Z"/>
<path id="path2_fill" fill-rule="evenodd" d="M 0 46.3129L 40.4549 83.6292L 42.8958 83.6292L 83.3504 46.3129L 83.3504 4C 83.3504 1.79086 81.5595 0 79.3504 0L 4 0C 1.79086 0 0 1.79086 0 4L 0 46.3129Z"/>
<path id="path3_fill" fill-rule="evenodd" d="M 66.5145 2.29816C 64.4627 0.804599 61.9902 0 59.4524 0L 49.0526 0C 46.5147 0 44.0421 0.804647 41.9902 2.29829L 25.0661 14.6182L 0 32.865L 54.378 32.865L 108.507 32.865L 85.33 15.9944L 66.5145 2.29816Z"/>
<path id="path4_stroke" d="M 44.8941 2C 45.9986 2 46.8941 1.10457 46.8941 0C 46.8941 -1.10457 45.9986 -2 44.8941 -2L 44.8941 2ZM 17.671 9.38451L 18.848 11.0015L 17.671 9.38451ZM 38.1756 27.865C 39.2802 27.865 40.1756 26.9696 40.1756 25.865C 40.1756 24.7605 39.2802 23.865 38.1756 23.865L 38.1756 27.865ZM 44.8941 -2L 34.4678 -2L 34.4678 2L 44.8941 2L 44.8941 -2ZM 26.2284 0.681336L 16.4939 7.76756L 18.848 11.0015L 28.5825 3.91524L 26.2284 0.681336ZM 16.4939 7.76756L -1.17706 20.6311L 1.17706 23.865L 18.848 11.0015L 16.4939 7.76756ZM 1.17706 27.865L 38.1756 27.865L 38.1756 23.865L 1.17706 23.865L 1.17706 27.865ZM 34.4678 -2C 31.6166 -1.9753 28.5481 -0.97674 26.2284 0.681336L 28.5825 3.91524C 30.3666 2.58603 32.2432 1.9753 34.4678 2L 34.4678 -2ZM -1.17706 20.6311C -4.3083 22.9105 -2.69596 27.865 1.17706 27.865L 1.17706 23.865C 1.16292 23.865 1.155 23.8639 1.15241 23.8635C 1.14981 23.8631 1.1507 23.863 1.1542 23.8642C 1.15765 23.8654 1.1621 23.8673 1.16695 23.8699C 1.17175 23.8725 1.17592 23.8753 1.17928 23.8779C 1.18603 23.8831 1.1874 23.8859 1.1856 23.8833C 1.18357 23.8803 1.17999 23.874 1.17706 23.865C 1.17412 23.856 1.17332 23.8488 1.17323 23.8453C 1.17315 23.8421 1.17368 23.8452 1.1713 23.8533C 1.17011 23.8574 1.16838 23.8621 1.16603 23.867C 1.16365 23.872 1.16115 23.8762 1.15905 23.8791C 1.15693 23.8822 1.15619 23.8827 1.15803 23.8808C 1.15988 23.8789 1.16562 23.8734 1.17706 23.865L -1.17706 20.6311Z"/>
<path id="path5_stroke" d="M -1.63759 17.8276C -2.68085 18.732 -2.79341 20.3109 -1.889 21.3541C -0.984582 22.3974 0.594324 22.51 1.63759 21.6055L -1.63759 17.8276ZM 25.4572 24.6013C 25.4572 25.982 26.5765 27.1013 27.9572 27.1013C 29.338 27.1013 30.4572 25.982 30.4572 24.6013L 25.4572 24.6013ZM 1.63759 21.6055C 3.27561 20.185 15.1832 9.06892 22.9331 1.82195L 19.518 -1.83009C 11.7697 5.41548 -0.0685735 16.4679 -1.63759 17.8276L 1.63759 21.6055ZM 25.4572 2.92416L 25.4572 24.6013L 30.4572 24.6013L 30.4572 2.92416L 25.4572 2.92416ZM 22.9331 1.82195C 23.8864 0.930508 25.4572 1.60155 25.4572 2.92416L 30.4572 2.92416C 30.4572 -2.75517 23.679 -5.72105 19.518 -1.83009L 22.9331 1.82195Z"/>
<path id="path6_stroke" d="M -1.63759 15.5263C -2.68085 16.4308 -2.79341 18.0097 -1.889 19.0529C -0.984582 20.0962 0.594324 20.2088 1.63759 19.3043L -1.63759 15.5263ZM 27.0038 25.6353C 27.0038 27.016 28.123 28.1353 29.5038 28.1353C 30.8845 28.1353 32.0038 27.016 32.0038 25.6353L 27.0038 25.6353ZM 1.63759 19.3043C 2.35265 18.6844 5.97448 16.0489 10.6226 12.7246C 15.1931 9.45589 20.5747 5.64818 24.6535 2.77019L 21.7709 -1.31519C 17.6895 1.56466 12.2948 5.38158 7.71401 8.65768C 3.21097 11.8782 -0.693206 14.7077 -1.63759 15.5263L 1.63759 19.3043ZM 27.0038 3.99416L 27.0038 25.6353L 32.0038 25.6353L 32.0038 3.99416L 27.0038 3.99416ZM 24.6535 2.77019C 25.6384 2.07525 27.0038 2.77522 27.0038 3.99416L 32.0038 3.99416C 32.0038 -1.26489 26.079 -4.35501 21.7709 -1.31519L 24.6535 2.77019Z"/>
<path id="path7_fill" d="M 3.1054 17.3066L 4.18938 6.67188L 15.1171 6.67188L 15.1171 9.17676L 6.48919 9.17676L 5.84466 14.9922C 6.88958 14.377 8.0761 14.0693 9.40423 14.0693C 11.3476 14.0693 12.8906 14.7139 14.0331 16.0029C 15.1757 17.2822 15.747 19.0156 15.747 21.2031C 15.747 23.4004 15.1513 25.1338 13.9599 26.4033C 12.7782 27.6631 11.123 28.293 8.99407 28.293C 7.1093 28.293 5.57122 27.7705 4.37981 26.7256C 3.18841 25.6807 2.5097 24.2354 2.34368 22.3896L 4.90716 22.3896C 5.07317 23.6104 5.50774 24.5332 6.21087 25.1582C 6.91399 25.7734 7.84173 26.0811 8.99407 26.0811C 10.2538 26.0811 11.2402 25.6514 11.9531 24.792C 12.6757 23.9326 13.037 22.7461 13.037 21.2324C 13.037 19.8066 12.6464 18.6641 11.8652 17.8047C 11.0937 16.9355 10.0634 16.501 8.77434 16.501C 7.5927 16.501 6.66497 16.7598 5.99114 17.2773L 5.27337 17.8633L 3.1054 17.3066ZM 18.4746 10.7734C 18.4746 9.49414 18.8799 8.43945 19.6904 7.60938C 20.5107 6.7793 21.5605 6.36426 22.8398 6.36426C 24.1387 6.36426 25.1885 6.78418 25.9893 7.62402C 26.7998 8.4541 27.2051 9.5332 27.2051 10.8613L 27.2051 11.9014C 27.2051 13.1904 26.7949 14.2451 25.9746 15.0654C 25.1641 15.876 24.1289 16.2812 22.8691 16.2812C 21.5996 16.2812 20.5498 15.876 19.7197 15.0654C 18.8896 14.2451 18.4746 13.1562 18.4746 11.7988L 18.4746 10.7734ZM 20.4961 11.9014C 20.4961 12.6631 20.7109 13.293 21.1406 13.791C 21.5703 14.2793 22.1465 14.5234 22.8691 14.5234C 23.5625 14.5234 24.1191 14.2842 24.5391 13.8057C 24.9688 13.3271 25.1836 12.6729 25.1836 11.8428L 25.1836 10.7734C 25.1836 10.0117 24.9736 9.38184 24.5537 8.88379C 24.1338 8.38574 23.5625 8.13672 22.8398 8.13672C 22.1172 8.13672 21.5459 8.38574 21.126 8.88379C 20.7061 9.38184 20.4961 10.0312 20.4961 10.832L 20.4961 11.9014ZM 28.8604 22.7705C 28.8604 21.4912 29.2656 20.4414 30.0762 19.6211C 30.8965 18.791 31.9463 18.376 33.2256 18.376C 34.5049 18.376 35.5547 18.7861 36.375 19.6064C 37.1953 20.4268 37.6055 21.5156 37.6055 22.873L 37.6055 23.9131C 37.6055 25.1924 37.1953 26.2471 36.375 27.0771C 35.5645 27.8975 34.5244 28.3076 33.2549 28.3076C 31.9854 28.3076 30.9355 27.9023 30.1055 27.0918C 29.2754 26.2715 28.8604 25.1826 28.8604 23.8252L 28.8604 22.7705ZM 30.8818 23.9131C 30.8818 24.6846 31.0967 25.3193 31.5264 25.8174C 31.9561 26.3057 32.5322 26.5498 33.2549 26.5498C 33.958 26.5498 34.5195 26.3105 34.9395 25.832C 35.3594 25.3438 35.5693 24.6846 35.5693 23.8545L 35.5693 22.7705C 35.5693 21.999 35.3545 21.3691 34.9248 20.8809C 34.5049 20.3926 33.9385 20.1484 33.2256 20.1484C 32.5322 20.1484 31.9658 20.3926 31.5264 20.8809C 31.0967 21.3594 30.8818 22.0088 30.8818 22.8291L 30.8818 23.9131ZM 23.4844 26.3887L 21.9463 25.4219L 32.3613 8.75195L 33.8994 9.71875L 23.4844 26.3887Z"/>
</defs>
</svg>
