<svg width="56" height="69" viewBox="0 0 56 69" version="1.1" xmlns="http://www.w3.org/2000/svg" xmlns:xlink="http://www.w3.org/1999/xlink">
<title>oil</title>
<desc>Created using Figma</desc>
<g id="Canvas" transform="translate(-3647 -10017)">
<g id="oil">
<use xlink:href="#path0_fill" transform="translate(3647 10017)" fill="#E8F1FF"/>
<mask id="mask0_outline_ins">
<use xlink:href="#path0_fill" fill="white" transform="translate(3647 10017)"/>
</mask>
<g mask="url(#mask0_outline_ins)">
<use xlink:href="#path1_stroke_2x" transform="translate(3647 10017)" fill="#71A2EA"/>
</g>
</g>
</g>
<defs>
<path id="path0_fill" fill-rule="evenodd" d="M 51.4512 8.50742L 51.1159 8.50742L 51.1159 7.01769C 51.1159 3.14765 47.9743 0 44.1121 0L 33.2932 0C 29.4293 0 26.2881 3.14765 26.2881 7.01769L 26.2881 8.50742L 22.1274 8.50742C 21.4483 8.50742 20.7975 8.77832 20.3153 9.25977L 6.42513 23.18C 5.94466 23.6615 5.67432 24.315 5.67432 24.9954L 5.67432 65.2271C 5.67432 67.3083 7.36259 69 9.43994 69L 51.4512 69C 53.5281 69 55.2164 67.3083 55.2164 65.2271L 55.2164 12.2803C 55.2164 10.2009 53.5264 8.50742 51.4512 8.50742ZM 4.52925 16.7919C 3.85061 16.7919 3.19802 16.5214 2.71755 16.04L 0.750818 14.0688C -0.250273 13.0657 -0.250273 11.4394 0.750818 10.438L 8.18127 2.99021C 8.66175 2.50875 9.31433 2.23828 9.99468 2.23828C 10.6738 2.23828 11.3263 2.50875 11.8068 2.99021L 13.7735 4.96139C 14.7746 5.96453 14.7746 7.59078 13.7735 8.59392L 6.34138 16.04C 5.86091 16.5214 5.20832 16.7919 4.52925 16.7919Z"/>
<path id="path1_stroke_2x" d="M 51.1159 8.50742L 50.1159 8.50742L 50.1159 9.50742L 51.1159 9.50742L 51.1159 8.50742ZM 26.2881 8.50742L 26.2881 9.50742L 27.2881 9.50742L 27.2881 8.50742L 26.2881 8.50742ZM 20.3153 9.25977L 19.6087 8.55213L 19.6074 8.55343L 20.3153 9.25977ZM 6.42513 23.18L 7.13296 23.8864L 7.13301 23.8864L 6.42513 23.18ZM 2.71755 16.04L 2.00965 16.7463L 2.00972 16.7464L 2.71755 16.04ZM 0.750818 14.0688L 1.45872 13.3625L 1.45865 13.3624L 0.750818 14.0688ZM 0.750818 10.438L 1.45804 11.145L 1.45875 11.1443L 0.750818 10.438ZM 8.18127 2.99021L 7.47344 2.28382L 7.47334 2.28392L 8.18127 2.99021ZM 11.8068 2.99021L 12.5147 2.2839L 12.5146 2.28382L 11.8068 2.99021ZM 13.7735 4.96139L 13.0656 5.6677L 13.0657 5.66778L 13.7735 4.96139ZM 13.7735 8.59392L 14.4813 9.30036L 14.4814 9.3003L 13.7735 8.59392ZM 6.34138 16.04L 5.63362 15.3335L 5.63355 15.3336L 6.34138 16.04ZM 51.4512 7.50742L 51.1159 7.50742L 51.1159 9.50742L 51.4512 9.50742L 51.4512 7.50742ZM 52.1159 8.50742L 52.1159 7.01769L 50.1159 7.01769L 50.1159 8.50742L 52.1159 8.50742ZM 52.1159 7.01769C 52.1159 2.59721 48.5284 -1 44.1121 -1L 44.1121 1C 47.4201 1 50.1159 3.69808 50.1159 7.01769L 52.1159 7.01769ZM 44.1121 -1L 33.2932 -1L 33.2932 1L 44.1121 1L 44.1121 -1ZM 33.2932 -1C 28.8753 -1 25.2881 2.59713 25.2881 7.01769L 27.2881 7.01769C 27.2881 3.69816 29.9834 1 33.2932 1L 33.2932 -1ZM 25.2881 7.01769L 25.2881 8.50742L 27.2881 8.50742L 27.2881 7.01769L 25.2881 7.01769ZM 26.2881 7.50742L 22.1274 7.50742L 22.1274 9.50742L 26.2881 9.50742L 26.2881 7.50742ZM 22.1274 7.50742C 21.1813 7.50742 20.2769 7.88493 19.6087 8.55213L 21.0218 9.96741C 21.318 9.67171 21.7154 9.50742 22.1274 9.50742L 22.1274 7.50742ZM 19.6074 8.55343L 5.71726 22.4737L 7.13301 23.8864L 21.0231 9.96611L 19.6074 8.55343ZM 5.71731 22.4736C 5.04973 23.1426 4.67432 24.0501 4.67432 24.9954L 6.67432 24.9954C 6.67432 24.5798 6.83959 24.1804 7.13296 23.8864L 5.71731 22.4736ZM 4.67432 24.9954L 4.67432 65.2271L 6.67432 65.2271L 6.67432 24.9954L 4.67432 24.9954ZM 4.67432 65.2271C 4.67432 67.8587 6.80845 70 9.43994 70L 9.43994 68C 7.91673 68 6.67432 66.7578 6.67432 65.2271L 4.67432 65.2271ZM 9.43994 70L 51.4512 70L 51.4512 68L 9.43994 68L 9.43994 70ZM 51.4512 70C 54.0823 70 56.2164 67.8586 56.2164 65.2271L 54.2164 65.2271C 54.2164 66.7579 52.9739 68 51.4512 68L 51.4512 70ZM 56.2164 65.2271L 56.2164 12.2803L 54.2164 12.2803L 54.2164 65.2271L 56.2164 65.2271ZM 56.2164 12.2803C 56.2164 9.6505 54.0806 7.50742 51.4512 7.50742L 51.4512 9.50742C 52.9722 9.50742 54.2164 10.7512 54.2164 12.2803L 56.2164 12.2803ZM 4.52925 15.7919C 4.11627 15.7919 3.71832 15.6271 3.42538 15.3336L 2.00972 16.7464C 2.67773 17.4157 3.58495 17.7919 4.52925 17.7919L 4.52925 15.7919ZM 3.42546 15.3337L 1.45872 13.3625L 0.042913 14.7751L 2.00965 16.7463L 3.42546 15.3337ZM 1.45865 13.3624C 0.846785 12.7493 0.847652 11.7556 1.45804 11.145L 0.0435931 9.73101C -1.3482 11.1233 -1.34733 13.382 0.0429897 14.7752L 1.45865 13.3624ZM 1.45875 11.1443L 8.8892 3.69649L 7.47334 2.28392L 0.0428882 9.73171L 1.45875 11.1443ZM 8.8891 3.69659C 9.18179 3.4033 9.57964 3.23828 9.99468 3.23828L 9.99468 1.23828C 9.04903 1.23828 8.1417 1.6142 7.47344 2.28382L 8.8891 3.69659ZM 9.99468 3.23828C 10.4082 3.23828 10.8061 3.40311 11.099 3.69659L 12.5146 2.28382C 11.8466 1.61439 10.9393 1.23828 9.99468 1.23828L 9.99468 3.23828ZM 11.0989 3.69651L 13.0656 5.6677L 14.4815 4.25508L 12.5147 2.2839L 11.0989 3.69651ZM 13.0657 5.66778C 13.6772 6.28056 13.6772 7.27475 13.0657 7.88753L 14.4814 9.3003C 15.872 7.9068 15.872 5.6485 14.4814 4.25501L 13.0657 5.66778ZM 13.0658 7.88747L 5.63362 15.3335L 7.04915 16.7464L 14.4813 9.30036L 13.0658 7.88747ZM 5.63355 15.3336C 5.34068 15.6271 4.94275 15.7919 4.52925 15.7919L 4.52925 17.7919C 5.47389 17.7919 6.38114 17.4158 7.04921 16.7464L 5.63355 15.3336Z"/>
</defs>
</svg>
