<svg width="47" height="69" viewBox="0 0 47 69" version="1.1" xmlns="http://www.w3.org/2000/svg" xmlns:xlink="http://www.w3.org/1999/xlink">
<title>raindrop-close-up</title>
<desc>Created using Figma</desc>
<g id="Canvas" transform="translate(-3302 -10174)">
<g id="raindrop-close-up">
<g id="Fill 1">
<use xlink:href="#path0_fill" transform="translate(3302 10174)" fill="#E8F1FF"/>
<mask id="mask0_outline_ins">
<use xlink:href="#path0_fill" fill="white" transform="translate(3302 10174)"/>
</mask>
<g mask="url(#mask0_outline_ins)">
<use xlink:href="#path1_stroke_2x" transform="translate(3302 10174)" fill="#71A2EA"/>
</g>
</g>
</g>
</g>
<defs>
<path id="path0_fill" fill-rule="evenodd" d="M 21.9617 0.818584L 3.09015 33.857C -0.875367 40.842 -1.18188 49.7236 3.09015 57.2025C 9.51192 68.4454 23.797 72.3336 34.9967 65.8869C 46.1963 59.4402 50.0695 45.0999 43.6477 33.857L 24.7761 0.818584C 24.1527 -0.272861 22.5846 -0.272861 21.9617 0.818584Z"/>
<path id="path1_stroke_2x" d="M 21.9617 0.818584L 22.83 1.31457L 22.8302 1.31429L 21.9617 0.818584ZM 3.09015 33.857L 2.22181 33.361L 2.22052 33.3633L 3.09015 33.857ZM 3.09015 57.2025L 3.95848 56.7066L 3.95847 56.7065L 3.09015 57.2025ZM 43.6477 33.857L 44.516 33.361L 44.516 33.361L 43.6477 33.857ZM 24.7761 0.818584L 23.9077 1.31453L 23.9077 1.31457L 24.7761 0.818584ZM 21.0933 0.322595L 2.22182 33.361L 3.95847 34.353L 22.83 1.31457L 21.0933 0.322595ZM 2.22052 33.3633C -1.91101 40.6408 -2.23347 49.8988 2.22182 57.6985L 3.95847 56.7065C -0.130292 49.5485 0.160272 41.0433 3.95978 34.3507L 2.22052 33.3633ZM 2.22181 57.6985C 8.91724 69.4205 23.8145 73.4773 35.4955 66.7535L 34.4978 65.0202C 23.7795 71.1898 10.1066 67.4704 3.95848 56.7066L 2.22181 57.6985ZM 35.4955 66.7535C 47.1743 60.0311 51.2102 45.0808 44.516 33.361L 42.7793 34.353C 48.9288 45.1191 45.2183 58.8493 34.4978 65.0202L 35.4955 66.7535ZM 44.516 33.361L 25.6444 0.322593L 23.9077 1.31457L 42.7794 34.353L 44.516 33.361ZM 25.6444 0.322633C 24.6373 -1.44066 22.1 -1.44118 21.0932 0.322877L 22.8302 1.31429C 23.0692 0.895455 23.6681 0.894936 23.9077 1.31453L 25.6444 0.322633Z"/>
</defs>
</svg>
