<svg width="70" height="70" viewBox="0 0 70 70" version="1.1" xmlns="http://www.w3.org/2000/svg" xmlns:xlink="http://www.w3.org/1999/xlink">
<title>settings-work-tool</title>
<desc>Created using Figma</desc>
<g id="Canvas" transform="translate(-3101 -10016)">
<g id="settings-work-tool">
<g id="Fill 1">
<use xlink:href="#path0_fill" transform="translate(3101.82 10016.2)" fill="#E8F1FF"/>
<mask id="mask0_outline_ins">
<use xlink:href="#path0_fill" fill="white" transform="translate(3101.82 10016.2)"/>
</mask>
<g mask="url(#mask0_outline_ins)">
<use xlink:href="#path1_stroke_2x" transform="translate(3101.82 10016.2)" fill="#71A2EA"/>
</g>
</g>
</g>
</g>
<defs>
<path id="path0_fill" fill-rule="evenodd" d="M 68.7675 30.6634C 68.6584 29.6935 67.528 28.9642 66.5504 28.9642C 63.3895 28.9642 60.5846 27.1091 59.4078 24.2379C 58.2072 21.2976 58.9817 17.8697 61.3367 15.7092C 62.0785 15.0312 62.169 13.8957 61.5472 13.1074C 59.9292 11.0531 58.0907 9.19698 56.0829 7.58891C 55.2971 6.95877 54.1427 7.04636 53.4609 7.80099C 51.4056 10.078 47.712 10.9241 44.8581 9.73343C 41.8893 8.48406 40.0156 5.47486 40.1998 2.24492C 40.2598 1.22977 39.518 0.347448 38.5067 0.229698C 35.9297 -0.0686876 33.3305 -0.0773504 30.7461 0.209485C 29.7473 0.319855 29.0052 1.181 29.0392 2.18364C 29.1505 5.38214 27.2556 8.3384 24.3154 9.54285C 21.4955 10.6947 17.8283 9.85503 15.7768 7.59789C 15.0988 6.8545 13.9643 6.76305 13.1738 7.37972C 11.1069 9.00159 9.22706 10.859 7.59396 12.8966C 6.95741 13.6888 7.05141 14.8368 7.79962 15.5173C 10.2008 17.692 10.9753 21.1497 9.72822 24.1239C 8.53757 26.9599 5.59382 28.7861 2.22367 28.7861C 1.12959 28.7512 0.351219 29.4856 0.230902 30.4805C -0.0726168 33.071 -0.0761461 35.7119 0.215822 38.3236C 0.32491 39.2976 1.48925 40.0208 2.4781 40.0208C 5.48216 39.9442 8.36463 41.8028 9.5755 44.7469C 10.7812 47.6871 10.0054 51.1137 7.64658 53.2768C 6.90832 53.9548 6.81431 55.0877 7.43739 55.875C 9.03905 57.9166 10.8788 59.7739 12.893 61.3958C 13.6836 62.0324 14.8329 61.9435 15.5185 61.1876C 17.5828 58.9054 21.2751 58.0606 24.1175 59.2539C 27.0952 60.4997 28.9677 63.5089 28.7848 66.7398C 28.7245 67.755 29.4691 68.6398 30.4766 68.755C 31.7953 68.9093 33.121 68.9857 34.4509 68.9857C 35.7131 68.9857 36.975 68.9167 38.2372 68.7765C 39.2373 68.6661 39.9781 67.8037 39.9441 66.8011C 39.8289 63.6039 41.7276 60.6476 44.664 59.4454C 47.5028 58.2862 51.1537 59.1348 53.2065 61.3881C 53.8883 62.1302 55.0151 62.2204 55.8095 61.6063C 57.8725 59.9883 59.7488 58.1322 61.3893 56.0894C 62.0259 55.2985 61.9357 54.1492 61.1837 53.4674C 58.7825 51.294 58.0041 47.835 59.2512 44.8633C 60.4229 42.0662 63.2579 40.1874 66.3072 40.1874L 66.7333 40.1986C 67.7234 40.2788 68.6333 39.5168 68.7524 38.5068C 69.0569 35.9137 69.0607 33.2754 68.7675 30.6634ZM 34.5464 44.3266C 29.1644 44.3266 24.7874 39.9484 24.7874 34.5667C 24.7874 29.1848 29.1644 24.8066 34.5464 24.8066C 39.9291 24.8066 44.3062 29.1848 44.3062 34.5667C 44.3062 39.9484 39.9291 44.3266 34.5464 44.3266Z"/>
<path id="path1_stroke_2x" d="M 68.7675 30.6634L 69.7612 30.5518L 69.7612 30.5516L 68.7675 30.6634ZM 59.4078 24.2379L 58.482 24.6159L 58.4825 24.6171L 59.4078 24.2379ZM 61.3367 15.7092L 60.6621 14.971L 60.6607 14.9723L 61.3367 15.7092ZM 61.5472 13.1074L 60.7616 13.7262L 60.762 13.7267L 61.5472 13.1074ZM 56.0829 7.58891L 55.4572 8.36903L 55.4577 8.36944L 56.0829 7.58891ZM 53.4609 7.80099L 52.7189 7.13059L 52.7186 7.13094L 53.4609 7.80099ZM 44.8581 9.73343L 44.4702 10.6551L 44.4731 10.6563L 44.8581 9.73343ZM 40.1998 2.24492L 39.2015 2.18592L 39.2014 2.188L 40.1998 2.24492ZM 38.5067 0.229698L 38.6223 -0.763592L 38.6217 -0.763666L 38.5067 0.229698ZM 30.7461 0.209485L 30.8559 1.20343L 30.8564 1.20338L 30.7461 0.209485ZM 29.0392 2.18364L 28.0398 2.21754L 28.0398 2.21843L 29.0392 2.18364ZM 24.3154 9.54285L 24.6936 10.4686L 24.6945 10.4682L 24.3154 9.54285ZM 15.7768 7.59789L 16.5168 6.9253L 16.5157 6.92406L 15.7768 7.59789ZM 13.1738 7.37972L 12.5587 6.59122L 12.5564 6.59301L 13.1738 7.37972ZM 7.59396 12.8966L 8.37347 13.523L 8.37428 13.522L 7.59396 12.8966ZM 7.79962 15.5173L 7.12678 16.2571L 7.12834 16.2585L 7.79962 15.5173ZM 9.72822 24.1239L 10.6503 24.5111L 10.6504 24.5106L 9.72822 24.1239ZM 2.22367 28.7861L 2.19172 29.7856L 2.20769 29.7861L 2.22367 29.7861L 2.22367 28.7861ZM 0.230902 30.4805L -0.761872 30.3605L -0.762304 30.3642L 0.230902 30.4805ZM 0.215822 38.3236L -0.777987 38.4347L -0.777965 38.4349L 0.215822 38.3236ZM 2.4781 40.0208L 2.4781 41.0208L 2.49086 41.0208L 2.50361 41.0205L 2.4781 40.0208ZM 9.5755 44.7469L 10.5007 44.3675L 10.5003 44.3665L 9.5755 44.7469ZM 7.64658 53.2768L 6.97071 52.5398L 6.9702 52.5403L 7.64658 53.2768ZM 7.43739 55.875L 8.22417 55.2578L 8.22155 55.2545L 7.43739 55.875ZM 12.893 61.3958L 13.5202 60.6169L 13.5202 60.6169L 12.893 61.3958ZM 15.5185 61.1876L 16.2592 61.8594L 16.2601 61.8584L 15.5185 61.1876ZM 24.1175 59.2539L 23.7304 60.1759L 23.7315 60.1764L 24.1175 59.2539ZM 28.7848 66.7398L 29.783 66.7991L 29.7832 66.7963L 28.7848 66.7398ZM 30.4766 68.755L 30.5928 67.7618L 30.5902 67.7615L 30.4766 68.755ZM 38.2372 68.7765L 38.1275 67.7826L 38.1268 67.7826L 38.2372 68.7765ZM 39.9441 66.8011L 40.9435 66.7672L 40.9434 66.7651L 39.9441 66.8011ZM 44.664 59.4454L 44.286 58.5196L 44.2851 58.52L 44.664 59.4454ZM 53.2065 61.3881L 52.4673 62.0616L 52.4701 62.0647L 53.2065 61.3881ZM 55.8095 61.6063L 56.4211 62.3975L 56.4266 62.3931L 55.8095 61.6063ZM 61.3893 56.0894L 60.6103 55.4624L 60.6096 55.4632L 61.3893 56.0894ZM 61.1837 53.4674L 61.8553 52.7266L 61.8547 52.726L 61.1837 53.4674ZM 59.2512 44.8633L 60.1733 45.2503L 60.1736 45.2497L 59.2512 44.8633ZM 66.3072 40.1874L 66.3336 39.1877L 66.3204 39.1874L 66.3072 39.1874L 66.3072 40.1874ZM 66.7333 40.1986L 66.814 39.2018L 66.7869 39.1996L 66.7596 39.1989L 66.7333 40.1986ZM 68.7524 38.5068L 69.7455 38.6238L 69.7456 38.6234L 68.7524 38.5068ZM 69.7612 30.5516C 69.666 29.7056 69.1414 29.0538 68.5719 28.6407C 68.0283 28.2597 67.205 27.978 66.5504 27.9642L 66.5504 29.9642C 66.8735 29.9504 67.1041 30.0334 67.3974 30.2595C 67.6647 30.4535 67.7598 30.6513 67.7737 30.7752L 69.7612 30.5516ZM 66.5504 27.9642C 63.785 27.9642 61.3521 26.3449 60.3331 23.8586L 58.4825 24.6171C 59.8171 27.8733 62.994 29.9642 66.5504 29.9642L 66.5504 27.9642ZM 60.3336 23.8598C 59.2923 21.3099 59.9636 18.326 62.0127 16.446L 60.6607 14.9723C 57.9998 17.4135 57.122 21.2854 58.482 24.6159L 60.3336 23.8598ZM 62.0113 16.4473C 63.1412 15.4147 63.2777 13.6867 62.3323 12.4881L 60.762 13.7267C 61.0602 14.1048 61.0158 14.6477 60.6621 14.971L 62.0113 16.4473ZM 62.3328 12.4887C 60.6784 10.3908 58.7596 8.45363 56.708 6.80838L 55.4577 8.36944C 57.4218 9.94033 59.1799 11.7154 60.7616 13.7262L 62.3328 12.4887ZM 56.7085 6.80879C 55.511 5.84841 53.7567 5.98192 52.7189 7.13059L 54.2029 8.47138C 54.5287 8.1108 55.0833 8.06913 55.4572 8.36903L 56.7085 6.80879ZM 52.7186 7.13094C 50.9457 9.0951 47.7033 9.8369 45.2432 8.81053L 44.4731 10.6563C 47.7208 12.0113 51.8655 11.0609 54.2033 8.47103L 52.7186 7.13094ZM 45.246 8.81173C 42.669 7.72724 41.038 5.11112 41.1982 2.30185L 39.2014 2.188C 38.9933 5.83861 41.1097 9.24089 44.4702 10.6551L 45.246 8.81173ZM 41.198 2.30392C 41.2894 0.757797 40.1586 -0.584719 38.6223 -0.763592L 38.391 1.22299C 38.8774 1.27961 39.2301 1.70174 39.2015 2.18592L 41.198 2.30392ZM 38.6217 -0.763666C 35.9889 -1.06693 33.2769 -1.07591 30.6358 -0.784413L 30.8564 1.20338C 33.3841 0.921213 35.8704 0.929554 38.3917 1.22306L 38.6217 -0.763666ZM 30.6363 -0.784465C 29.1161 -0.616478 27.9881 0.694227 28.0398 2.21754L 30.0386 2.14974C 30.0223 1.66778 30.3785 1.25619 30.8559 1.20343L 30.6363 -0.784465ZM 28.0398 2.21843C 28.1368 5.00369 26.4845 7.57364 23.9363 8.61748L 24.6945 10.4682C 28.0268 9.10316 30.1643 5.76059 30.0386 2.14885L 28.0398 2.21843ZM 23.9373 8.6171C 21.5087 9.60907 18.2875 8.87355 16.5168 6.9253L 15.0368 8.27048C 17.369 10.8365 21.4823 11.7803 24.6936 10.4686L 23.9373 8.6171ZM 16.5157 6.92406C 15.4834 5.79216 13.7586 5.65527 12.5587 6.59123L 13.7888 8.16821C 14.17 7.87084 14.7143 7.91683 15.0379 8.27172L 16.5157 6.92406ZM 12.5564 6.59301C 10.4457 8.25134 8.48424 10.1895 6.81365 12.2713L 8.37428 13.522C 9.96989 11.5284 11.768 9.75183 13.7911 8.16643L 12.5564 6.59301ZM 6.81445 12.2703C 5.84517 13.4765 5.98949 15.2227 7.12678 16.2571L 8.47247 14.7775C 8.11334 14.4509 8.06964 13.9011 8.37347 13.523L 6.81445 12.2703ZM 7.12834 16.2585C 9.217 18.1501 9.88818 21.1564 8.80601 23.7373L 10.6504 24.5106C 12.0625 21.143 11.1846 17.2338 8.4709 14.7761L 7.12834 16.2585ZM 8.80619 23.7368C 7.79015 26.1569 5.24176 27.7861 2.22367 27.7861L 2.22367 29.7861C 5.94587 29.7861 9.28498 27.7629 10.6503 24.5111L 8.80619 23.7368ZM 2.25562 27.7867C 0.625031 27.7345 -0.581623 28.87 -0.761865 30.3605L 1.22367 30.6006C 1.28406 30.1012 1.63414 29.7678 2.19172 29.7856L 2.25562 27.7867ZM -0.762304 30.3642C -1.07088 33.0121 -1.07463 35.7669 -0.777987 38.4347L 1.20963 38.2125C 0.922342 35.6569 0.925644 33.13 1.22411 30.5969L -0.762304 30.3642ZM -0.777965 38.4349C -0.681709 39.2944 -0.137262 39.9464 0.440103 40.3543C 0.992931 40.7318 1.82237 41.0077 2.4781 41.0208L 2.4781 39.0208C 2.14498 39.0339 1.89783 38.9482 1.594 38.7207C 1.31471 38.5234 1.22244 38.3268 1.20961 38.2123L -0.777965 38.4349ZM 2.50361 41.0205C 5.08396 40.9546 7.59401 42.5581 8.65067 45.1272L 10.5003 44.3665C 9.13525 41.0475 5.88037 38.9337 2.45258 39.0212L 2.50361 41.0205ZM 8.65027 45.1263C 9.69537 47.6748 9.02404 50.6569 6.97071 52.5398L 8.32245 54.0139C 10.9868 51.5706 11.8671 47.6994 10.5007 44.3675L 8.65027 45.1263ZM 6.9702 52.5403C 5.84856 53.5703 5.70301 55.2949 6.65323 56.4956L 8.22155 55.2545C 7.92561 54.8805 7.96808 54.3393 8.32296 54.0134L 6.9702 52.5403ZM 6.65062 56.4923C 8.28918 58.5782 10.2089 60.5164 12.2659 62.1747L 13.5202 60.6169C 11.5486 59.0315 9.78891 57.255 8.22416 55.2578L 6.65062 56.4923ZM 12.2659 62.1747C 13.4695 63.1438 15.2184 63.0069 16.2592 61.8594L 14.7778 60.5157C 14.4473 60.8801 13.8977 60.9209 13.5202 60.6169L 12.2659 62.1747ZM 16.2601 61.8584C 18.0433 59.887 21.2844 59.1491 23.7304 60.1759L 24.5045 58.3318C 21.2658 56.9722 17.1223 57.9238 14.7769 60.5168L 16.2601 61.8584ZM 23.7315 60.1764C 26.3156 61.2575 27.9455 63.8727 27.7864 66.6833L 29.7832 66.7963C 29.9899 63.1451 27.8748 59.7419 24.5034 58.3313L 23.7315 60.1764ZM 27.7865 66.6805C 27.6947 68.2257 28.8277 69.573 30.363 69.7485L 30.5902 67.7615C 30.1105 67.7067 29.7542 67.2842 29.783 66.7991L 27.7865 66.6805ZM 30.3604 69.7482C 31.7084 69.9056 33.0922 69.9853 34.4509 69.9857L 34.4509 67.9857C 33.1498 67.9861 31.8822 67.9131 30.5928 67.7618L 30.3604 69.7482ZM 34.4509 69.9857C 35.7404 69.9853 37.0575 69.9133 38.3476 69.7704L 38.1268 67.7826C 36.8925 67.9201 35.6858 67.9861 34.4509 67.9857L 34.4509 69.9857ZM 38.3469 69.7705C 39.8698 69.6024 40.9951 68.2891 40.9435 66.7672L 38.9446 66.835C 38.961 67.3183 38.6047 67.7299 38.1275 67.7826L 38.3469 69.7705ZM 40.9434 66.7651C 40.8432 63.9827 42.4981 61.4127 45.0429 60.3708L 44.2851 58.52C 40.9572 59.8825 38.8146 63.2251 38.9447 66.8371L 40.9434 66.7651ZM 45.0421 60.3712C 47.488 59.3724 50.6939 60.115 52.4673 62.0616L 53.9457 60.7147C 51.6136 58.1547 47.5177 57.2 44.286 58.5196L 45.0421 60.3712ZM 52.4701 62.0647C 53.5062 63.1924 55.2191 63.3266 56.4211 62.3975L 55.1979 60.8151C 54.8111 61.1142 54.2704 61.0681 53.9429 60.7116L 52.4701 62.0647ZM 56.4266 62.3931C 58.5338 60.7384 60.4915 58.8018 62.169 56.7155L 60.6096 55.4632C 59.0061 57.4626 57.2113 59.2381 55.1924 60.8194L 56.4266 62.3931ZM 62.1683 56.7164C 63.1368 55.5131 62.9997 53.764 61.8553 52.7266L 60.512 54.2083C 60.8717 54.5344 60.9149 55.0839 60.6103 55.4624L 62.1683 56.7164ZM 61.8547 52.726C 59.7655 50.835 59.0917 47.8275 60.1733 45.2503L 58.3291 44.4764C 56.9164 47.8425 57.7994 51.753 60.5126 54.2088L 61.8547 52.726ZM 60.1736 45.2497C 61.1885 42.8269 63.658 41.1874 66.3072 41.1874L 66.3072 39.1874C 62.8578 39.1874 59.6574 41.3055 58.3289 44.477L 60.1736 45.2497ZM 66.2809 41.187L 66.707 41.1982L 66.7596 39.1989L 66.3336 39.1877L 66.2809 41.187ZM 66.6526 41.1953C 68.1992 41.3206 69.5659 40.1478 69.7455 38.6238L 67.7593 38.3897C 67.7008 38.8857 67.2476 39.237 66.814 39.2018L 66.6526 41.1953ZM 69.7456 38.6234C 70.0551 35.9728 70.0592 33.2203 69.7612 30.5518L 67.7737 30.775C 68.0622 33.3305 68.0586 35.8546 67.7592 38.3901L 69.7456 38.6234ZM 34.5464 43.3266C 29.7168 43.3266 25.7874 39.3962 25.7874 34.5667L 23.7874 34.5667C 23.7874 40.5006 28.612 45.3266 34.5464 45.3266L 34.5464 43.3266ZM 25.7874 34.5667C 25.7874 29.7369 29.7169 25.8066 34.5464 25.8066L 34.5464 23.8066C 28.612 23.8066 23.7874 28.6327 23.7874 34.5667L 25.7874 34.5667ZM 34.5464 25.8066C 39.3767 25.8066 43.3062 29.737 43.3062 34.5667L 45.3062 34.5667C 45.3062 28.6326 40.4815 23.8066 34.5464 23.8066L 34.5464 25.8066ZM 43.3062 34.5667C 43.3062 39.3962 39.3767 43.3266 34.5464 43.3266L 34.5464 45.3266C 40.4815 45.3266 45.3062 40.5006 45.3062 34.5667L 43.3062 34.5667Z"/>
</defs>
</svg>
