<svg width="59" height="68" viewBox="0 0 59 68" version="1.1" xmlns="http://www.w3.org/2000/svg" xmlns:xlink="http://www.w3.org/1999/xlink">
<title>toilet</title>
<desc>Created using Figma</desc>
<g id="Canvas" transform="translate(-3647 -10174)">
<g id="toilet">
<g id="Fill 1">
<use xlink:href="#path0_fill" transform="translate(3647.24 10174.2)" fill="#E8F1FF"/>
<mask id="mask0_outline_ins">
<use xlink:href="#path0_fill" fill="white" transform="translate(3647.24 10174.2)"/>
</mask>
<g mask="url(#mask0_outline_ins)">
<use xlink:href="#path1_stroke_2x" transform="translate(3647.24 10174.2)" fill="#71A2EA"/>
</g>
</g>
</g>
</g>
<defs>
<path id="path0_fill" fill-rule="evenodd" d="M 0.0494589 4.09302C 0.0494589 1.83221 1.92704 0 4.24048 0L 21.4667 0C 23.7801 0 25.658 1.83221 25.658 4.09302L 25.658 30.2281L 0 30.2281L 0.0494589 4.09302ZM 58.4728 37.4852C 57.7677 44.7038 52.3253 53.1988 37.2812 54.2853L 40.3702 59.8958L 42.2271 59.8958C 44.2945 59.8958 45.9693 61.5331 45.9693 63.552C 45.9693 65.5742 44.2945 67.2095 42.2271 67.2095L 12.0386 67.2095C 9.97153 67.2095 8.29673 65.5742 8.29673 63.552C 8.29673 61.6582 9.77462 60.1199 11.6609 59.9344L 11.6609 53.9089C 5.47355 51.9054 0.714681 44.174 0 37.516L 0.00370942 35.5479L 58.7565 35.5479L 58.4728 37.4852Z"/>
<path id="path1_stroke_2x" d="M 0.0494589 4.09302L 1.04946 4.09491L 1.04946 4.09302L 0.0494589 4.09302ZM 25.658 30.2281L 25.658 31.2281L 26.658 31.2281L 26.658 30.2281L 25.658 30.2281ZM 0 30.2281L -0.999998 30.2262L -1.00189 31.2281L 0 31.2281L 0 30.2281ZM 58.4728 37.4852L 57.4833 37.3402L 57.4798 37.364L 57.4775 37.388L 58.4728 37.4852ZM 37.2812 54.2853L 37.2092 53.2879L 35.6524 53.4003L 36.4052 54.7676L 37.2812 54.2853ZM 40.3702 59.8958L 39.4942 60.3781L 39.7792 60.8958L 40.3702 60.8958L 40.3702 59.8958ZM 11.6609 59.9344L 11.7587 60.9296L 12.6609 60.8409L 12.6609 59.9344L 11.6609 59.9344ZM 11.6609 53.9089L 12.6609 53.9089L 12.6609 53.1816L 11.9689 52.9575L 11.6609 53.9089ZM 0 37.516L -0.999998 37.5141L -1.0001 37.5686L -0.994288 37.6227L 0 37.516ZM 0.00370942 35.5479L 0.00370942 34.5479L -0.994408 34.5479L -0.996289 35.546L 0.00370942 35.5479ZM 58.7565 35.5479L 59.746 35.6928L 59.9137 34.5479L 58.7565 34.5479L 58.7565 35.5479ZM 1.04946 4.09302C 1.04946 2.4069 2.45665 1 4.24048 1L 4.24048 -1C 1.39743 -1 -0.950541 1.25752 -0.950541 4.09302L 1.04946 4.09302ZM 4.24048 1L 21.4667 1L 21.4667 -1L 4.24048 -1L 4.24048 1ZM 21.4667 1C 23.2506 1 24.658 2.40699 24.658 4.09302L 26.658 4.09302C 26.658 1.25743 24.3097 -1 21.4667 -1L 21.4667 1ZM 24.658 4.09302L 24.658 30.2281L 26.658 30.2281L 26.658 4.09302L 24.658 4.09302ZM 25.658 29.2281L 0 29.2281L 0 31.2281L 25.658 31.2281L 25.658 29.2281ZM 0.999998 30.23L 1.04946 4.09491L -0.950539 4.09113L -0.999998 30.2262L 0.999998 30.23ZM 57.4775 37.388C 57.1477 40.8615 55.7536 44.4648 52.5655 47.4597C 49.4364 50.4315 44.5491 52.7578 37.2092 53.2879L 37.3532 55.2827C 45.0574 54.7263 50.4134 52.2618 53.9428 48.9099C 57.4132 45.5809 59.0927 41.3274 59.468 37.5824L 57.4775 37.388ZM 36.4052 54.7676L 39.4942 60.3781L 41.2462 59.4135L 38.1572 53.803L 36.4052 54.7676ZM 40.3702 60.8958L 42.2271 60.8958L 42.2271 58.8958L 40.3702 58.8958L 40.3702 60.8958ZM 42.2271 60.8958C 43.764 60.8958 44.9693 62.107 44.9693 63.552L 46.9693 63.552C 46.9693 60.9593 44.8249 58.8958 42.2271 58.8958L 42.2271 60.8958ZM 44.9693 63.552C 44.9693 65.0002 43.7642 66.2095 42.2271 66.2095L 42.2271 68.2095C 44.8247 68.2095 46.9693 66.1483 46.9693 63.552L 44.9693 63.552ZM 42.2271 66.2095L 12.0386 66.2095L 12.0386 68.2095L 42.2271 68.2095L 42.2271 66.2095ZM 12.0386 66.2095C 10.5019 66.2095 9.29673 65.0002 9.29673 63.552L 7.29673 63.552C 7.29673 66.1482 9.44119 68.2095 12.0386 68.2095L 12.0386 66.2095ZM 9.29673 63.552C 9.29673 62.204 10.3525 61.0679 11.7587 60.9296L 11.563 58.9392C 9.19671 59.1719 7.29673 61.1124 7.29673 63.552L 9.29673 63.552ZM 12.6609 59.9344L 12.6609 53.9089L 10.6609 53.9089L 10.6609 59.9344L 12.6609 59.9344ZM 11.9689 52.9575C 9.15264 52.0456 6.57817 49.7944 4.60488 46.8952C 2.61247 43.9801 1.32981 40.6119 0.994288 37.4093L -0.994288 37.6227C -0.615125 41.078 0.838986 44.9046 2.95151 48.0206C 5.08316 51.1524 7.98178 53.7687 11.3528 54.8603L 11.9689 52.9575ZM 0.999998 37.5179L 1.00371 35.5497L -0.996289 35.546L -0.999998 37.5141L 0.999998 37.5179ZM 0.00370942 36.5479L 58.7565 36.5479L 58.7565 34.5479L 0.00370942 34.5479L 0.00370942 36.5479ZM 57.7671 35.4029L 57.4833 37.3402L 59.4622 37.6301L 59.746 35.6928L 57.7671 35.4029Z"/>
</defs>
</svg>
