<svg width="52" height="71" viewBox="0 0 52 71" version="1.1" xmlns="http://www.w3.org/2000/svg" xmlns:xlink="http://www.w3.org/1999/xlink">
<title>user-silhouette</title>
<desc>Created using Figma</desc>
<g id="Canvas" transform="translate(-2932 -10015)">
<g id="user-silhouette">
<g id="Group 3">
<g id="Fill 1">
<use xlink:href="#path0_fill" transform="translate(2932 10049.1)" fill="#E8F1FF"/>
<mask id="mask0_outline_ins">
<use xlink:href="#path0_fill" fill="white" transform="translate(2932 10049.1)"/>
</mask>
<g mask="url(#mask0_outline_ins)">
<use xlink:href="#path1_stroke_2x" transform="translate(2932 10049.1)" fill="#71A2EA"/>
</g>
</g>
</g>
<g id="Fill 4">
<use xlink:href="#path2_fill" transform="translate(2943.36 10015)" fill="#EDF4FF"/>
<mask id="mask1_outline_ins">
<use xlink:href="#path2_fill" fill="white" transform="translate(2943.36 10015)"/>
</mask>
<g mask="url(#mask1_outline_ins)">
<use xlink:href="#path3_stroke_2x" transform="translate(2943.36 10015)" fill="#71A2EA"/>
</g>
</g>
</g>
</g>
<defs>
<path id="path0_fill" fill-rule="evenodd" d="M 51.2586 30.6292L 48.7048 11.4411C 47.8313 4.86142 41.9895 0 35.0563 0L 16.2394 0C 9.30813 0 3.46636 4.86142 2.59087 11.4411L 0.0390229 30.6668C -0.137644 32.009 0.290282 33.699 1.22662 34.7198C 2.16295 35.7331 3.5115 36.6505 4.92287 36.6505L 46.3748 36.6505C 47.7861 36.6505 49.1347 35.7105 50.071 34.6973C 51.0054 33.684 51.4353 31.9733 51.2586 30.6292Z"/>
<path id="path1_stroke_2x" d="M 51.2586 30.6292L 52.2501 30.4989L 52.2499 30.4972L 51.2586 30.6292ZM 48.7048 11.4411L 47.7135 11.5727L 47.7135 11.573L 48.7048 11.4411ZM 2.59087 11.4411L 1.59961 11.3092L 1.59957 11.3095L 2.59087 11.4411ZM 0.0390229 30.6668L -0.952284 30.5352L -0.952426 30.5363L 0.0390229 30.6668ZM 1.22662 34.7198L 0.489677 35.3958L 0.492178 35.3985L 1.22662 34.7198ZM 50.071 34.6973L 50.8055 35.3759L 50.8062 35.3752L 50.071 34.6973ZM 52.2499 30.4972L 49.6961 11.3091L 47.7135 11.573L 50.2674 30.7611L 52.2499 30.4972ZM 49.6961 11.3095C 48.7513 4.19316 42.4499 -1 35.0563 -1L 35.0563 1C 41.5291 1 46.9112 5.52967 47.7135 11.5727L 49.6961 11.3095ZM 35.0563 -1L 16.2394 -1L 16.2394 1L 35.0563 1L 35.0563 -1ZM 16.2394 -1C 8.84756 -1 2.54645 4.19325 1.59961 11.3092L 3.58214 11.573C 4.38626 5.52958 9.76871 1 16.2394 1L 16.2394 -1ZM 1.59957 11.3095L -0.952283 30.5352L 1.03033 30.7983L 3.58218 11.5726L 1.59957 11.3095ZM -0.952426 30.5363C -1.16144 32.1243 -0.676833 34.1241 0.489682 35.3958L 1.96355 34.0439C 1.2574 33.274 0.886151 31.8938 1.03047 30.7973L -0.952426 30.5363ZM 0.492178 35.3985C 1.50607 36.4957 3.10222 37.6505 4.92287 37.6505L 4.92287 35.6505C 3.92079 35.6505 2.81983 34.9705 1.96105 34.0412L 0.492178 35.3985ZM 4.92287 37.6505L 46.3748 37.6505L 46.3748 35.6505L 4.92287 35.6505L 4.92287 37.6505ZM 46.3748 37.6505C 48.2028 37.6505 49.7998 36.4642 50.8055 35.3759L 49.3366 34.0186C 48.4696 34.9568 47.3694 35.6505 46.3748 35.6505L 46.3748 37.6505ZM 50.8062 35.3752C 51.9745 34.1082 52.4586 32.0853 52.2501 30.4989L 50.2671 30.7595C 50.412 31.8613 50.0363 33.2598 49.3359 34.0194L 50.8062 35.3752Z"/>
<path id="path2_fill" fill-rule="evenodd" d="M 26.3059 13.4269C 26.3059 20.842 20.4153 26.8557 13.152 26.8557C 5.89058 26.8557 0 20.842 0 13.4269C 0 6.00651 5.89058 0 13.152 0C 20.4153 0 26.3059 6.00651 26.3059 13.4269Z"/>
<path id="path3_stroke_2x" d="M 25.3059 13.4269C 25.3059 20.3093 19.8436 25.8557 13.152 25.8557L 13.152 27.8557C 20.987 27.8557 27.3059 21.3747 27.3059 13.4269L 25.3059 13.4269ZM 13.152 25.8557C 6.46235 25.8557 1 20.3094 1 13.4269L -1 13.4269C -1 21.3746 5.31881 27.8557 13.152 27.8557L 13.152 25.8557ZM 1 13.4269C 1 6.53954 6.46192 1 13.152 1L 13.152 -1C 5.31924 -1 -1 5.47347 -1 13.4269L 1 13.4269ZM 13.152 1C 19.844 1 25.3059 6.53963 25.3059 13.4269L 27.3059 13.4269C 27.3059 5.47339 20.9865 -1 13.152 -1L 13.152 1Z"/>
</defs>
</svg>
