<svg width="300" height="620" viewBox="0 0 300 620" version="1.1" xmlns="http://www.w3.org/2000/svg" xmlns:xlink="http://www.w3.org/1999/xlink">
<title>Component</title>
<desc>Created using Figma</desc>
<g id="Canvas" transform="translate(-2657 -12126)">
<g id="Component">
<g id="Group 14">
<g id="Rectangle 12">
<use xlink:href="#path0_fill" transform="translate(2657 12126)" fill="#F9FDFF"/>
<mask id="mask0_outline_ins">
<use xlink:href="#path0_fill" fill="white" transform="translate(2657 12126)"/>
</mask>
<g mask="url(#mask0_outline_ins)">
<use xlink:href="#path1_stroke_2x" transform="translate(2657 12126)" fill="#FFFFFF"/>
</g>
</g>
<mask id="mask1_outline" mask-type="alpha">
<g id="Rectangle 9">
<use xlink:href="#path2_fill" transform="translate(2675 12203)" fill="#FFFFFF"/>
<mask id="mask2_outline_out">
<rect id="mask2_outline_inv" fill="white" x="-1" y="-1" width="267" height="471" transform="translate(2675 12203)"/>
<use xlink:href="#path2_fill" fill="black" transform="translate(2675 12203)"/>
</mask>
<g mask="url(#mask2_outline_out)">
<use xlink:href="#path3_stroke_2x" transform="translate(2675 12203)" fill="#FFFFFF"/>
</g>
</g>
</mask>
<g id="Rectangle 9" mask="url(#mask1_outline)">
<use xlink:href="#path2_fill" transform="translate(2675 12203)" fill="#D8D8D8"/>
<mask id="mask3_outline_out">
<rect id="mask3_outline_inv" fill="white" x="-1" y="-1" width="267" height="471" transform="translate(2675 12203)"/>
<use xlink:href="#path2_fill" fill="black" transform="translate(2675 12203)"/>
</mask>
<g mask="url(#mask3_outline_out)">
<use xlink:href="#path3_stroke_2x" transform="translate(2675 12203)" fill="#C7DBEA"/>
</g>
</g>
</g>
<g id="Oval">
<use xlink:href="#path4_fill" transform="translate(2786 12686)" fill="#F3FAFF"/>
</g>
<g id="Rectangle 13">
<use xlink:href="#path5_fill" transform="translate(2780 12163)" fill="#DEF1FF"/>
</g>
</g>
</g>
<defs>
<path id="path0_fill" fill-rule="evenodd" d="M 0 43C 0 19.2518 19.2518 0 43 0L 257 0C 280.748 0 300 19.2518 300 43L 300 577C 300 600.748 280.748 620 257 620L 43 620C 19.2518 620 0 600.748 0 577L 0 43Z"/>
<path id="path1_stroke_2x" d="M 43 1L 257 1L 257 -1L 43 -1L 43 1ZM 299 43L 299 577L 301 577L 301 43L 299 43ZM 257 619L 43 619L 43 621L 257 621L 257 619ZM 1 577L 1 43L -1 43L -1 577L 1 577ZM 43 -1C 18.6995 -1 -1 18.6995 -1 43L 1 43C 1 19.804 19.804 1 43 1L 43 -1ZM 257 1C 280.196 1 299 19.804 299 43L 301 43C 301 18.6995 281.301 -1 257 -1L 257 1ZM 299 577C 299 600.196 280.196 619 257 619L 257 621C 281.301 621 301 601.301 301 577L 299 577ZM 43 619C 19.804 619 1 600.196 1 577L -1 577C -1 601.301 18.6995 621 43 621L 43 619Z"/>
<path id="path2_fill" fill-rule="evenodd" d="M 0 2C 0 0.895431 0.895431 0 2 0L 263 0C 264.105 0 265 0.895431 265 2L 265 467C 265 468.105 264.105 469 263 469L 2 469C 0.895431 469 0 468.105 0 467L 0 2Z"/>
<path id="path3_stroke_2x" d="M 2 1L 263 1L 263 -1L 2 -1L 2 1ZM 264 2L 264 467L 266 467L 266 2L 264 2ZM 263 468L 2 468L 2 470L 263 470L 263 468ZM 1 467L 1 2L -1 2L -1 467L 1 467ZM 2 -1C 0.343146 -1 -1 0.343146 -1 2L 1 2C 1 1.44772 1.44772 1 2 1L 2 -1ZM 263 1C 263.552 1 264 1.44772 264 2L 266 2C 266 0.343146 264.657 -1 263 -1L 263 1ZM 264 467C 264 467.552 263.552 468 263 468L 263 470C 264.657 470 266 468.657 266 467L 264 467ZM 2 468C 1.44772 468 1 467.552 1 467L -1 467C -1 468.657 0.343146 470 2 470L 2 468Z"/>
<path id="path4_fill" fill-rule="evenodd" d="M 21 42C 32.598 42 42 32.598 42 21C 42 9.40202 32.598 0 21 0C 9.40202 0 0 9.40202 0 21C 0 32.598 9.40202 42 21 42Z"/>
<path id="path5_fill" fill-rule="evenodd" d="M 0 2C 0 0.89543 0.89543 0 2 0L 52 0C 53.1046 0 54 0.895431 54 2L 54 2C 54 3.10457 53.1046 4 52 4L 2 4C 0.89543 4 0 3.10457 0 2L 0 2Z"/>
</defs>
</svg>
